<svg xmlns="http://www.w3.org/2000/svg" viewBox="0 0 1856.6 1480.33">
    <defs>
        <style>.cls-1{fill:#ae957a;}.cls-2{fill:#7e997c;}.cls-3{fill:#d0e8cd;}.cls-4{fill:#e94f25;}</style>
    </defs>
    <title>intestines-3</title>
    <g id="Layer_2" data-name="Layer 2">
        <g id="intestines_3">
            <g id="intestines">
                <path id="intestines_2" class="cls-1"
                      d="M685,0s-2.4,75.7,9,125c5.85,25.27,12.5,61,28.77,93.35,15.58,31,37.29,57.29,54.23,76.65,0,0,43.36,60,135.18,99,82.26,34.94,159.85,27.34,175.11,25.38a63.17,63.17,0,0,1,6.43-.49c9.75-.25,37.15-3.66,63.62-1.26,23.8,2.15,45.16,4.75,57.66,20.38,8.27,10.33,9,40.23-14.18,56.35C1178.29,510,1144.28,510.75,1107,509c0,0-67.33-2.67-145-48,0,0-91.5-51.5-130-84-35.66-30.1-123.5-113.5-150-132-9.56-6.68-88-60-161-78,0,0-33-14-109-14s-143,17-193,48c-26.06,16.15-65.86,43.81-97.77,76.22-12.41,12.6-42,43-66.36,83.77C29.07,404.23,10.69,458.51,5,493c0,0-43.36,280.59,124.63,447.08s447,161.49,552,157,344.17-73.73,378-88.5c36.41-15.91,81-28.5,129-28.5s117,9,117,81-29.24,92.59-61,108.49c-35.41,17.73-117.58,23.43-216.49,7-98.38-16.35-198.09-2.23-247.54,28.72-34,21.3-63.67,47.68-89.35,88.08-35,55.1-46.53,126.19-46.53,187H661s1.5-72.13,19-116.33c19-48,44.67-82.67,73.33-104.67s63-41.67,97.67-48.33,82-17.33,146-14.67,91.22,9.83,150,6c43.5-2.83,59.33-4.78,84.93-12.9,25.81-8.18,49.07-18.94,65.07-35.1,0,0,41.67-37.33,41.67-93.33s-16.42-75.75-33.67-93c0,0-25.33-26.33-78.5-37.5,0,0-53.5-13.5-114,7C1075.83,949.93,987,993,932,1009c-19.67,5.72-57,17-101,30.07A840.89,840.89,0,0,1,698.36,1067s-120.67,15.33-209.33,5.33c-82.15-9.26-141.33-20-210-50-46.77-20.43-105.33-56.67-146.67-104.67S59.53,791,49.69,730.17c-8.83-54.65-3.39-156.83,28-234.83C112,410,206.69,309,276,271.67S397.69,223,451.69,223,545,233.33,561,238s88.67,37.67,119,58.33,103.33,69.33,115.33,79.33,111.61,77.76,174,108c13.47,6.53,61.9,26,100.27,31.59,54.69,7.94,101.37,1,122.73-7.26,36.33-14,46.86-54.18,40.67-73.5-6.29-19.61-19.67-46.5-66.75-52.75-27.32-3.63-43.92-1.75-72.58-2.08s-69,2.33-93.67-1.67c0,0-71.67-15.33-107.33-36.33C875.4,331.49,842,312.95,813.1,285.92c-30.76-28.72-55.93-66.13-66.11-81.57-18.82-28.51-30.37-71.64-36.46-92.86C698,68,697.53,0,697.53,0Z"/>
                <path id="intestines_1" class="cls-1"
                      d="M761.69,1480.33S758.53,1426,782,1373s66.89-89.67,97-102.5c54-23,78.83-21.89,125.5-18,54,4.5,197.51,35.65,225,40,49.5,7.83,137.54,20.24,199.5,18,96.67-3.5,162.47-32.4,203.5-59,30.37-19.69,121.81-93.72,150.2-214.92,19.45-83-6.6-214.65-38.7-260.58-68.82-98.43-168.33-109.67-228-112-53.19-2.08-155.67,20.33-230.55,59C1243.73,744.56,1039,853,977,875s-204,64-352,36c0,0-123-17-166-114s3-187,17-206,66-77,152-75,140.82,25.33,157,34c23.49,12.59,199,112,384,118,0,0,133,7.78,244.95-54.36C1442.95,597.56,1479,571,1494,547c0,0,95-133,39-288-58.93-163.1-294-95-398-99-83.94-3.23-134.6-17.15-180.6-40.48C912.52,98.26,875,50.72,875,0h17.33s-3.13,48.21,51.21,84.44c16.57,11,76.2,42.24,148.47,44.65,80.55,2.69,157.49-24.09,213.65-24.09,101.83,0,144.63,26.35,182.67,56,45.33,35.33,66.67,97.67,66.67,97.67s23.56,58.44,14,134c0,0-20,110.33-72.33,170.33,0,0-53.1,73.59-222.67,110-125.14,26.87-343,6-445-37,0,0-51.5-23.5-101-30.5-42.32-6-111.5-12-141.5,6s-52.5,39-59,77.5-.76,77.82,26,107.5c27.5,30.5,88,52,140.5,59s197-10,233-16,170-48.5,204-65,186.49-93.07,237-107c55-15.17,104.5-22.5,155-22s123.33,8.17,200,62.83,104,95.33,117,150c12.78,53.74,18.49,84.74,16,127.33-2.5,42.83-9,73.33-31,113.33s-38.33,65-71.67,98.33c-49.5,49.5-82.33,75.67-183.67,111.67-68.83,24.45-196,17-257.33,8.33s-168.25-26.28-244.67-33.67c-70.37-6.81-105.67-16.67-174,6.67-53.63,18.31-77.33,49.33-96,88-6.36,13.18-10.33,29.22-14.11,44.64a313.76,313.76,0,0,0-8.22,57.36Z"/>
            </g>
            <g id="lact-bacteria">
                <g id="lact-bacteria-2" data-name="lact-bacteria">
                    <path class="cls-2"
                          d="M1078.93,348.29a36.12,36.12,0,1,1,36.12-36.12A36.16,36.16,0,0,1,1078.93,348.29Z"/>
                    <path class="cls-3"
                          d="M1078.93,281.54a30.62,30.62,0,1,1-30.62,30.62,30.62,30.62,0,0,1,30.62-30.62m0-11a41.62,41.62,0,1,0,41.62,41.62,41.67,41.67,0,0,0-41.62-41.62Z"/>
                </g>
                <g id="lact-bacteria-3" data-name="lact-bacteria">
                    <path class="cls-2"
                          d="M199.54,928.76a36.12,36.12,0,1,1,36.12-36.12A36.16,36.16,0,0,1,199.54,928.76Z"/>
                    <path class="cls-3"
                          d="M199.54,862a30.62,30.62,0,1,1-30.62,30.62A30.62,30.62,0,0,1,199.54,862m0-11a41.62,41.62,0,1,0,41.62,41.62A41.67,41.67,0,0,0,199.54,851Z"/>
                </g>
                <g id="lact-bacteria-4" data-name="lact-bacteria">
                    <path class="cls-2"
                          d="M379.84,984.85A36.12,36.12,0,1,1,416,948.73,36.16,36.16,0,0,1,379.84,984.85Z"/>
                    <path class="cls-3"
                          d="M379.84,918.11a30.62,30.62,0,1,1-30.62,30.62,30.62,30.62,0,0,1,30.62-30.62m0-11a41.62,41.62,0,1,0,41.62,41.62,41.67,41.67,0,0,0-41.62-41.62Z"/>
                </g>
                <g id="lact-bacteria-5" data-name="lact-bacteria">
                    <path class="cls-2"
                          d="M1438.91,806.91A36.12,36.12,0,1,1,1475,770.79,36.16,36.16,0,0,1,1438.91,806.91Z"/>
                    <path class="cls-3"
                          d="M1438.91,740.17a30.62,30.62,0,1,1-30.62,30.62,30.62,30.62,0,0,1,30.62-30.62m0-11a41.62,41.62,0,1,0,41.62,41.62,41.67,41.67,0,0,0-41.62-41.62Z"/>
                </g>
                <g id="lact-bacteria-6" data-name="lact-bacteria">
                    <path class="cls-2"
                          d="M1444.06,1247.89a36.12,36.12,0,1,1,36.12-36.12A36.16,36.16,0,0,1,1444.06,1247.89Z"/>
                    <path class="cls-3"
                          d="M1444.07,1181.14a30.62,30.62,0,1,1-30.62,30.62,30.62,30.62,0,0,1,30.62-30.62m0-11a41.62,41.62,0,1,0,41.62,41.62,41.67,41.67,0,0,0-41.62-41.62Z"/>
                </g>
                <g id="lact-bacteria-7" data-name="lact-bacteria">
                    <path class="cls-2" d="M496,336.58a36.12,36.12,0,1,1,36.12-36.12A36.16,36.16,0,0,1,496,336.58Z"/>
                    <path class="cls-3"
                          d="M496,269.83a30.62,30.62,0,1,1-30.62,30.62A30.62,30.62,0,0,1,496,269.83m0-11a41.62,41.62,0,1,0,41.62,41.62A41.67,41.67,0,0,0,496,258.83Z"/>
                </g>
                <g id="lact-bacteria-8" data-name="lact-bacteria">
                    <path class="cls-2"
                          d="M122.54,690.92a36.12,36.12,0,1,1,36.12-36.12A36.16,36.16,0,0,1,122.54,690.92Z"/>
                    <path class="cls-3"
                          d="M122.54,624.17a30.62,30.62,0,1,1-30.62,30.62,30.62,30.62,0,0,1,30.62-30.62m0-11a41.62,41.62,0,1,0,41.62,41.62,41.67,41.67,0,0,0-41.62-41.62Z"/>
                </g>
                <g id="lact-bacteria-9" data-name="lact-bacteria">
                    <path class="cls-2"
                          d="M1200.26,230.94A18.77,18.77,0,1,1,1219,212.17,18.79,18.79,0,0,1,1200.26,230.94Z"/>
                    <path class="cls-3"
                          d="M1200.26,196.4a15.77,15.77,0,1,1-15.77,15.77,15.77,15.77,0,0,1,15.77-15.77m0-6A21.77,21.77,0,1,0,1222,212.17a21.79,21.79,0,0,0-21.77-21.77Z"/>
                </g>
                <g id="lact-bacteria-10" data-name="lact-bacteria">
                    <path class="cls-2" d="M1084,642.94a18.77,18.77,0,1,1,18.77-18.77A18.79,18.79,0,0,1,1084,642.94Z"/>
                    <path class="cls-3"
                          d="M1084,608.4a15.77,15.77,0,1,1-15.77,15.77A15.77,15.77,0,0,1,1084,608.4m0-6a21.77,21.77,0,1,0,21.77,21.77A21.79,21.79,0,0,0,1084,602.4Z"/>
                </g>
                <g id="lact-bacteria-11" data-name="lact-bacteria">
                    <path class="cls-2"
                          d="M564.61,967.5a18.77,18.77,0,1,1,18.77-18.77A18.79,18.79,0,0,1,564.61,967.5Z"/>
                    <path class="cls-3"
                          d="M564.61,933a15.77,15.77,0,1,1-15.77,15.77A15.77,15.77,0,0,1,564.61,933m0-6a21.77,21.77,0,1,0,21.77,21.77A21.79,21.79,0,0,0,564.61,927Z"/>
                </g>
                <g id="lact-bacteria-12" data-name="lact-bacteria">
                    <path class="cls-2"
                          d="M831.46,1013.89a18.77,18.77,0,1,1,18.77-18.77A18.79,18.79,0,0,1,831.46,1013.89Z"/>
                    <path class="cls-3"
                          d="M831.46,979.35a15.77,15.77,0,1,1-15.77,15.77,15.77,15.77,0,0,1,15.77-15.77m0-6a21.77,21.77,0,1,0,21.77,21.77,21.79,21.79,0,0,0-21.77-21.77Z"/>
                </g>
                <g id="lact-bacteria-13" data-name="lact-bacteria">
                    <path class="cls-2"
                          d="M1262.7,896.55a18.77,18.77,0,1,1,18.77-18.77A18.79,18.79,0,0,1,1262.7,896.55Z"/>
                    <path class="cls-3"
                          d="M1262.7,862a15.77,15.77,0,1,1-15.77,15.77A15.77,15.77,0,0,1,1262.7,862m0-6a21.77,21.77,0,1,0,21.77,21.77A21.79,21.79,0,0,0,1262.7,856Z"/>
                </g>
                <g id="lact-bacteria-14" data-name="lact-bacteria">
                    <path class="cls-2"
                          d="M1562.09,936.88a18.77,18.77,0,1,1,18.77-18.77A18.79,18.79,0,0,1,1562.09,936.88Z"/>
                    <path class="cls-3"
                          d="M1562.09,902.34a15.77,15.77,0,1,1-15.77,15.77,15.77,15.77,0,0,1,15.77-15.77m0-6a21.77,21.77,0,1,0,21.77,21.77,21.79,21.79,0,0,0-21.77-21.77Z"/>
                </g>
                <g id="lact-bacteria-15" data-name="lact-bacteria">
                    <path class="cls-2"
                          d="M1396.13,1083.56a18.77,18.77,0,1,1,18.77-18.77A18.79,18.79,0,0,1,1396.13,1083.56Z"/>
                    <path class="cls-3"
                          d="M1396.13,1049a15.77,15.77,0,1,1-15.77,15.77,15.77,15.77,0,0,1,15.77-15.77m0-6a21.77,21.77,0,1,0,21.77,21.77,21.79,21.79,0,0,0-21.77-21.77Z"/>
                </g>
                <g id="lact-bacteria-16" data-name="lact-bacteria">
                    <path class="cls-2"
                          d="M1249.54,1261.16a18.77,18.77,0,1,1,18.77-18.77A18.79,18.79,0,0,1,1249.54,1261.16Z"/>
                    <path class="cls-3"
                          d="M1249.54,1226.62a15.77,15.77,0,1,1-15.77,15.77,15.77,15.77,0,0,1,15.77-15.77m0-6a21.77,21.77,0,1,0,21.77,21.77,21.79,21.79,0,0,0-21.77-21.77Z"/>
                </g>
                <g id="lact-bacteria-17" data-name="lact-bacteria">
                    <path class="cls-2"
                          d="M1048.3,1248.94a18.77,18.77,0,1,1,18.77-18.77A18.79,18.79,0,0,1,1048.3,1248.94Z"/>
                    <path class="cls-3"
                          d="M1048.3,1214.4a15.77,15.77,0,1,1-15.77,15.77,15.77,15.77,0,0,1,15.77-15.77m0-6a21.77,21.77,0,1,0,21.77,21.77,21.79,21.79,0,0,0-21.77-21.77Z"/>
                </g>
                <g id="lact-bacteria-18" data-name="lact-bacteria">
                    <path class="cls-2"
                          d="M831.46,217.78A18.77,18.77,0,1,1,850.23,199,18.79,18.79,0,0,1,831.46,217.78Z"/>
                    <path class="cls-3"
                          d="M831.46,183.24A15.77,15.77,0,1,1,815.69,199a15.77,15.77,0,0,1,15.77-15.77m0-6A21.77,21.77,0,1,0,853.23,199a21.79,21.79,0,0,0-21.77-21.77Z"/>
                </g>
                <g id="lact-bacteria-19" data-name="lact-bacteria">
                    <circle class="cls-2" cx="1246.93" cy="349.67" r="8.38"/>
                    <path class="cls-3"
                          d="M1246.93,342.79a6.88,6.88,0,1,1-6.88,6.88,6.88,6.88,0,0,1,6.88-6.88m0-3a9.88,9.88,0,1,0,9.88,9.88,9.89,9.89,0,0,0-9.88-9.88Z"/>
                </g>
                <g id="lact-bacteria-20" data-name="lact-bacteria">
                    <circle class="cls-2" cx="1445.78" cy="480.4" r="8.38"/>
                    <path class="cls-3"
                          d="M1445.78,473.52a6.88,6.88,0,1,1-6.88,6.88,6.88,6.88,0,0,1,6.88-6.88m0-3a9.88,9.88,0,1,0,9.88,9.88,9.89,9.89,0,0,0-9.88-9.88Z"/>
                </g>
                <g id="lact-bacteria-21" data-name="lact-bacteria">
                    <circle class="cls-2" cx="961.97" cy="557.32" r="8.38"/>
                    <path class="cls-3"
                          d="M962,550.45a6.88,6.88,0,1,1-6.88,6.88,6.88,6.88,0,0,1,6.88-6.88m0-3a9.88,9.88,0,1,0,9.88,9.88,9.89,9.89,0,0,0-9.88-9.88Z"/>
                </g>
                <g id="lact-bacteria-22" data-name="lact-bacteria">
                    <circle class="cls-2" cx="781.97" cy="467.32" r="8.38"/>
                    <path class="cls-3"
                          d="M782,460.45a6.88,6.88,0,1,1-6.88,6.88,6.88,6.88,0,0,1,6.88-6.88m0-3a9.88,9.88,0,1,0,9.88,9.88,9.89,9.89,0,0,0-9.88-9.88Z"/>
                </g>
                <g id="lact-bacteria-23" data-name="lact-bacteria">
                    <circle class="cls-2" cx="541.97" cy="457.32" r="8.38"/>
                    <path class="cls-3"
                          d="M542,450.45a6.88,6.88,0,1,1-6.88,6.88,6.88,6.88,0,0,1,6.88-6.88m0-3a9.88,9.88,0,1,0,9.88,9.88,9.89,9.89,0,0,0-9.88-9.88Z"/>
                </g>
                <g id="lact-bacteria-24" data-name="lact-bacteria">
                    <circle class="cls-2" cx="351.97" cy="434.32" r="8.38"/>
                    <path class="cls-3"
                          d="M352,427.45a6.88,6.88,0,1,1-6.88,6.88,6.88,6.88,0,0,1,6.88-6.88m0-3a9.88,9.88,0,1,0,9.88,9.88,9.89,9.89,0,0,0-9.88-9.88Z"/>
                </g>
                <g id="lact-bacteria-25" data-name="lact-bacteria">
                    <circle class="cls-2" cx="241.97" cy="744.32" r="8.38"/>
                    <path class="cls-3"
                          d="M242,737.45a6.88,6.88,0,1,1-6.88,6.88,6.88,6.88,0,0,1,6.88-6.88m0-3a9.88,9.88,0,1,0,9.88,9.88,9.89,9.89,0,0,0-9.88-9.88Z"/>
                </g>
                <g id="lact-bacteria-26" data-name="lact-bacteria">
                    <circle class="cls-2" cx="351.97" cy="654.79" r="8.38"/>
                    <path class="cls-3"
                          d="M352,647.92a6.88,6.88,0,1,1-6.88,6.88,6.88,6.88,0,0,1,6.88-6.88m0-3a9.88,9.88,0,1,0,9.88,9.88,9.89,9.89,0,0,0-9.88-9.88Z"/>
                </g>
                <g id="lact-bacteria-27" data-name="lact-bacteria">
                    <circle class="cls-2" cx="916.16" cy="961.57" r="8.38"/>
                    <path class="cls-3"
                          d="M916.16,954.7a6.88,6.88,0,1,1-6.88,6.88,6.88,6.88,0,0,1,6.88-6.88m0-3a9.88,9.88,0,1,0,9.88,9.88,9.89,9.89,0,0,0-9.88-9.88Z"/>
                </g>
                <g id="lact-bacteria-28" data-name="lact-bacteria">
                    <circle class="cls-2" cx="804.61" cy="1258.16" r="8.38"/>
                    <path class="cls-3"
                          d="M804.61,1251.29a6.88,6.88,0,1,1-6.88,6.88,6.88,6.88,0,0,1,6.88-6.88m0-3a9.88,9.88,0,1,0,9.88,9.88,9.89,9.89,0,0,0-9.88-9.88Z"/>
                </g>
                <g id="lact-bacteria-29" data-name="lact-bacteria">
                    <circle class="cls-2" cx="715.72" cy="1401.56" r="8.38"/>
                    <path class="cls-3"
                          d="M715.72,1394.68a6.88,6.88,0,1,1-6.88,6.88,6.88,6.88,0,0,1,6.88-6.88m0-3a9.88,9.88,0,1,0,9.88,9.88,9.89,9.89,0,0,0-9.88-9.88Z"/>
                </g>
                <g id="lact-bacteria-30" data-name="lact-bacteria">
                    <circle class="cls-2" cx="1662.55" cy="1135.75" r="8.38"/>
                    <path class="cls-3"
                          d="M1662.55,1128.87a6.88,6.88,0,1,1-6.88,6.88,6.88,6.88,0,0,1,6.88-6.88m0-3a9.88,9.88,0,1,0,9.88,9.88,9.89,9.89,0,0,0-9.88-9.88Z"/>
                </g>
                <g id="lact-bacteria-31" data-name="lact-bacteria">
                    <circle class="cls-2" cx="1577.86" cy="737.45" r="8.38"/>
                    <path class="cls-3"
                          d="M1577.86,730.57a6.88,6.88,0,1,1-6.88,6.88,6.88,6.88,0,0,1,6.88-6.88m0-3a9.88,9.88,0,1,0,9.88,9.88,9.89,9.89,0,0,0-9.88-9.88Z"/>
                </g>
                <g id="lact-bacteria-32" data-name="lact-bacteria">
                    <circle class="cls-2" cx="686.16" cy="1011.57" r="8.38"/>
                    <path class="cls-3"
                          d="M686.16,1004.7a6.88,6.88,0,1,1-6.88,6.88,6.88,6.88,0,0,1,6.88-6.88m0-3a9.88,9.88,0,1,0,9.88,9.88,9.89,9.89,0,0,0-9.88-9.88Z"/>
                </g>
                <g id="lact-bacteria-33" data-name="lact-bacteria">
                    <circle class="cls-2" cx="281.97" cy="975.32" r="8.38"/>
                    <path class="cls-3"
                          d="M282,968.45a6.88,6.88,0,1,1-6.88,6.88,6.88,6.88,0,0,1,6.88-6.88m0-3a9.88,9.88,0,1,0,9.88,9.88,9.89,9.89,0,0,0-9.88-9.88Z"/>
                </g>
                <g id="lact-bacteria-34" data-name="lact-bacteria">
                    <circle class="cls-2" cx="761.09" cy="63.58" r="8.38"/>
                    <path class="cls-3"
                          d="M761.09,56.7a6.88,6.88,0,1,1-6.88,6.88,6.88,6.88,0,0,1,6.88-6.88m0-3A9.88,9.88,0,1,0,771,63.58a9.89,9.89,0,0,0-9.88-9.88Z"/>
                </g>
            </g>
            <g id="virus">
                <polygon id="virus-2" data-name="virus" class="cls-4"
                         points="1409.28 191.43 1420.09 213.72 1440.59 199.82 1438.8 224.53 1463.51 222.74 1449.61 243.24 1471.9 254.04 1449.61 264.85 1463.51 285.35 1438.8 283.56 1440.59 308.27 1420.09 294.36 1409.28 316.66 1398.48 294.36 1377.98 308.27 1379.77 283.56 1355.06 285.35 1368.96 264.85 1346.67 254.04 1368.96 243.24 1355.06 222.74 1379.77 224.53 1377.98 199.82 1398.48 213.72 1409.28 191.43"/>
                <polygon id="virus-3" data-name="virus" class="cls-4"
                         points="1562.09 1066.26 1572.89 1088.55 1593.39 1074.65 1591.6 1099.36 1616.31 1097.57 1602.41 1118.07 1624.7 1128.87 1602.41 1139.68 1616.31 1160.18 1591.6 1158.39 1593.39 1183.1 1572.89 1169.19 1562.09 1191.49 1551.28 1169.19 1530.78 1183.1 1532.57 1158.39 1507.86 1160.18 1521.77 1139.68 1499.47 1128.87 1521.77 1118.07 1507.86 1097.57 1532.57 1099.36 1530.78 1074.65 1551.28 1088.55 1562.09 1066.26"/>
                <polygon id="virus-4" data-name="virus" class="cls-4"
                         points="1608.93 932.51 1619.73 954.8 1640.24 940.9 1638.45 965.61 1663.16 963.82 1649.25 984.32 1671.55 995.12 1649.25 1005.93 1663.16 1026.43 1638.45 1024.64 1640.24 1049.35 1619.73 1035.44 1608.93 1057.74 1598.13 1035.44 1577.62 1049.35 1579.41 1024.64 1554.7 1026.43 1568.61 1005.93 1546.32 995.12 1568.61 984.32 1554.7 963.82 1579.41 965.61 1577.62 940.9 1598.13 954.8 1608.93 932.51"/>
                <polygon id="virus-5" data-name="virus" class="cls-4"
                         points="252.85 499.71 263.66 522 284.16 508.1 282.37 532.8 307.08 531.01 293.18 551.52 315.47 562.32 293.18 573.13 307.08 593.63 282.37 591.84 284.16 616.55 263.66 602.64 252.85 624.94 242.05 602.64 221.55 616.55 223.34 591.84 198.63 593.63 212.53 573.13 190.24 562.32 212.53 551.52 198.63 531.01 223.34 532.8 221.55 508.1 242.05 522 252.85 499.71"/>
                <polygon id="virus-6" data-name="virus" class="cls-4"
                         points="423.78 348.78 434.59 371.07 455.09 357.17 453.3 381.88 478.01 380.08 464.11 400.59 486.4 411.39 464.11 422.2 478.01 442.7 453.3 440.91 455.09 465.62 434.59 451.71 423.78 474.01 412.98 451.71 392.48 465.62 394.27 440.91 369.56 442.7 383.46 422.2 361.17 411.39 383.46 400.59 369.56 380.08 394.27 381.88 392.48 357.17 412.98 371.07 423.78 348.78"/>
                <polygon id="virus-7" data-name="virus" class="cls-4"
                         points="1429.67 917.98 1436.34 931.74 1449 923.16 1447.89 938.41 1463.15 937.31 1454.56 949.97 1468.33 956.64 1454.56 963.31 1463.15 975.97 1447.89 974.86 1449 990.12 1436.34 981.53 1429.67 995.3 1423 981.53 1410.34 990.12 1411.44 974.86 1396.19 975.97 1404.77 963.31 1391.01 956.64 1404.77 949.97 1396.19 937.31 1411.44 938.41 1410.34 923.16 1423 931.74 1429.67 917.98"/>
                <polygon id="virus-8" data-name="virus" class="cls-4"
                         points="1655.68 762.75 1662.35 776.52 1675.01 767.93 1673.9 783.19 1689.16 782.08 1680.57 794.74 1694.34 801.41 1680.57 808.09 1689.16 820.74 1673.9 819.64 1675.01 834.89 1662.35 826.31 1655.68 840.07 1649.01 826.31 1636.35 834.89 1637.45 819.64 1622.19 820.74 1630.78 808.09 1617.02 801.41 1630.78 794.74 1622.19 782.08 1637.45 783.19 1636.35 767.93 1649.01 776.52 1655.68 762.75"/>
                <polygon id="virus-9" data-name="virus" class="cls-4"
                         points="168.92 773.37 175.59 787.13 188.25 778.55 187.15 793.8 202.4 792.7 193.82 805.36 207.58 812.03 193.82 818.7 202.4 831.36 187.15 830.25 188.25 845.51 175.59 836.92 168.92 850.69 162.25 836.92 149.59 845.51 150.7 830.25 135.44 831.36 144.03 818.7 130.26 812.03 144.03 805.36 135.44 792.7 150.7 793.8 149.59 778.55 162.25 787.13 168.92 773.37"/>
                <polygon id="virus-10" data-name="virus" class="cls-4"
                         points="315.47 823.35 322.14 837.12 334.8 828.53 333.69 843.79 348.95 842.68 340.37 855.34 354.13 862.01 340.37 868.69 348.95 881.35 333.69 880.24 334.8 895.5 322.14 886.91 315.47 900.68 308.8 886.91 296.14 895.5 297.25 880.24 281.99 881.35 290.57 868.69 276.81 862.01 290.57 855.34 281.99 842.68 297.25 843.79 296.14 828.53 308.8 837.12 315.47 823.35"/>
                <polygon id="virus-11" data-name="virus" class="cls-4"
                         points="1311.13 516.66 1317.8 530.43 1330.46 521.84 1329.36 537.1 1344.61 535.99 1336.03 548.65 1349.79 555.32 1336.03 561.99 1344.61 574.65 1329.36 573.55 1330.46 588.8 1317.8 580.22 1311.13 593.98 1304.46 580.22 1291.8 588.8 1292.91 573.55 1277.65 574.65 1286.24 561.99 1272.47 555.32 1286.24 548.65 1277.65 535.99 1292.91 537.1 1291.8 521.84 1304.46 530.43 1311.13 516.66"/>
                <polygon id="virus-12" data-name="virus" class="cls-4"
                         points="1278.47 261.79 1285.14 275.56 1297.8 266.97 1296.69 282.23 1311.95 281.12 1303.36 293.78 1317.13 300.45 1303.36 307.12 1311.95 319.78 1296.69 318.68 1297.8 333.93 1285.14 325.35 1278.47 339.11 1271.8 325.35 1259.14 333.93 1260.24 318.68 1244.98 319.78 1253.57 307.12 1239.81 300.45 1253.57 293.78 1244.98 281.12 1260.24 282.23 1259.14 266.97 1271.8 275.56 1278.47 261.79"/>
                <polygon id="virus-13" data-name="virus" class="cls-4"
                         points="781.97 1270.83 785.63 1278.39 792.58 1273.67 791.98 1282.05 800.36 1281.44 795.64 1288.4 803.2 1292.06 795.64 1295.72 800.36 1302.68 791.98 1302.07 792.58 1310.45 785.63 1305.73 781.97 1313.3 778.3 1305.73 771.35 1310.45 771.96 1302.07 763.58 1302.68 768.29 1295.72 760.73 1292.06 768.29 1288.4 763.58 1281.44 771.96 1282.05 771.35 1273.67 778.3 1278.39 781.97 1270.83"/>
                <polygon id="virus-14" data-name="virus" class="cls-4"
                         points="1216.93 1224.7 1220.59 1232.27 1227.54 1227.55 1226.94 1235.93 1235.32 1235.32 1230.6 1242.28 1238.16 1245.94 1230.6 1249.6 1235.32 1256.56 1226.94 1255.95 1227.54 1264.33 1220.59 1259.61 1216.93 1267.17 1213.26 1259.61 1206.31 1264.33 1206.92 1255.95 1198.54 1256.56 1203.25 1249.6 1195.69 1245.94 1203.25 1242.28 1198.54 1235.32 1206.92 1235.93 1206.31 1227.55 1213.26 1232.27 1216.93 1224.7"/>
                <polygon id="virus-15" data-name="virus" class="cls-4"
                         points="1718.08 982.12 1721.74 989.67 1728.7 984.96 1728.09 993.34 1736.47 992.73 1731.75 999.68 1739.31 1003.35 1731.75 1007.01 1736.47 1013.97 1728.09 1013.36 1728.7 1021.74 1721.74 1017.02 1718.08 1024.58 1714.41 1017.02 1707.46 1021.74 1708.07 1013.36 1699.69 1013.97 1704.4 1007.01 1696.84 1003.35 1704.4 999.68 1699.69 992.73 1708.07 993.34 1707.46 984.96 1714.41 989.67 1718.08 982.12"/>
                <polygon id="virus-16" data-name="virus" class="cls-4"
                         points="1130.16 851.62 1133.82 859.18 1140.77 854.46 1140.17 862.84 1148.55 862.24 1143.83 869.19 1151.39 872.85 1143.83 876.52 1148.55 883.47 1140.17 882.86 1140.77 891.24 1133.82 886.53 1130.16 894.09 1126.49 886.53 1119.54 891.24 1120.15 882.86 1111.77 883.47 1116.48 876.52 1108.92 872.85 1116.48 869.19 1111.77 862.24 1120.15 862.84 1119.54 854.46 1126.49 859.18 1130.16 851.62"/>
                <polygon id="virus-17" data-name="virus" class="cls-4"
                         points="1299.7 766.97 1303.37 774.53 1310.32 769.81 1309.71 778.19 1318.09 777.59 1313.38 784.54 1320.93 788.2 1313.38 791.87 1318.09 798.82 1309.71 798.21 1310.32 806.59 1303.37 801.88 1299.7 809.44 1296.04 801.88 1289.08 806.59 1289.69 798.21 1281.31 798.82 1286.03 791.87 1278.47 788.2 1286.03 784.54 1281.31 777.59 1289.69 778.19 1289.08 769.81 1296.04 774.53 1299.7 766.97"/>
                <polygon id="virus-18" data-name="virus" class="cls-4"
                         points="480.26 1012.01 483.92 1019.57 490.87 1014.86 490.27 1023.24 498.65 1022.63 493.93 1029.58 501.49 1033.25 493.93 1036.91 498.65 1043.87 490.27 1043.26 490.87 1051.64 483.92 1046.92 480.26 1054.48 476.59 1046.92 469.64 1051.64 470.25 1043.26 461.87 1043.87 466.58 1036.91 459.02 1033.25 466.58 1029.58 461.87 1022.63 470.25 1023.24 469.64 1014.86 476.59 1019.57 480.26 1012.01"/>
                <polygon id="virus-19" data-name="virus" class="cls-4"
                         points="638.26 943.26 641.92 950.83 648.87 946.11 648.27 954.49 656.65 953.88 651.93 960.84 659.49 964.5 651.93 968.16 656.65 975.12 648.27 974.51 648.87 982.89 641.92 978.17 638.26 985.73 634.59 978.17 627.64 982.89 628.25 974.51 619.87 975.12 624.58 968.16 617.02 964.5 624.58 960.84 619.87 953.88 628.25 954.49 627.64 946.11 634.59 950.83 638.26 943.26"/>
                <polygon id="virus-20" data-name="virus" class="cls-4"
                         points="379.84 745.73 383.5 753.29 390.45 748.58 389.85 756.96 398.23 756.35 393.51 763.3 401.07 766.97 393.51 770.63 398.23 777.59 389.85 776.98 390.45 785.36 383.5 780.64 379.84 788.2 376.17 780.64 369.22 785.36 369.83 776.98 361.45 777.59 366.16 770.63 358.6 766.97 366.16 763.3 361.45 756.35 369.83 756.96 369.22 748.58 376.17 753.29 379.84 745.73"/>
                <polygon id="virus-21" data-name="virus" class="cls-4"
                         points="252.85 363.93 256.52 371.49 263.47 366.78 262.87 375.16 271.25 374.55 266.53 381.5 274.09 385.17 266.53 388.83 271.25 395.79 262.87 395.18 263.47 403.56 256.52 398.84 252.85 406.4 249.19 398.84 242.24 403.56 242.84 395.18 234.47 395.79 239.18 388.83 231.62 385.17 239.18 381.5 234.47 374.55 242.84 375.16 242.24 366.78 249.19 371.49 252.85 363.93"/>
                <polygon id="virus-22" data-name="virus" class="cls-4"
                         points="441.08 277.27 444.75 284.83 451.7 280.12 451.1 288.5 459.48 287.89 454.76 294.85 462.32 298.51 454.76 302.17 459.48 309.13 451.1 308.52 451.7 316.9 444.75 312.18 441.08 319.74 437.42 312.18 430.47 316.9 431.07 308.52 422.69 309.13 427.41 302.17 419.85 298.51 427.41 294.85 422.69 287.89 431.07 288.5 430.47 280.12 437.42 284.83 441.08 277.27"/>
                <polygon id="virus-23" data-name="virus" class="cls-4"
                         points="867.97 534.09 871.63 541.65 878.59 536.93 877.98 545.31 886.36 544.71 881.64 551.66 889.2 555.32 881.64 558.99 886.36 565.94 877.98 565.33 878.59 573.71 871.63 569 867.97 576.56 864.3 569 857.35 573.71 857.96 565.33 849.58 565.94 854.29 558.99 846.73 555.32 854.29 551.66 849.58 544.71 857.96 545.31 857.35 536.93 864.3 541.65 867.97 534.09"/>
                <polygon id="virus-24" data-name="virus" class="cls-4"
                         points="496.03 474.93 499.69 482.49 506.64 477.78 506.04 486.16 514.42 485.55 509.7 492.5 517.26 496.17 509.7 499.83 514.42 506.79 506.04 506.18 506.64 514.56 499.69 509.84 496.03 517.4 492.36 509.84 485.41 514.56 486.02 506.18 477.64 506.79 482.35 499.83 474.79 496.17 482.35 492.5 477.64 485.55 486.02 486.16 485.41 477.78 492.36 482.49 496.03 474.93"/>
                <polygon id="virus-25" data-name="virus" class="cls-4"
                         points="606.85 387.09 610.51 394.65 617.46 389.93 616.86 398.31 625.24 397.7 620.52 404.66 628.08 408.32 620.52 411.99 625.24 418.94 616.86 418.33 617.46 426.71 610.51 422 606.85 429.56 603.18 422 596.23 426.71 596.84 418.33 588.46 418.94 593.17 411.99 585.61 408.32 593.17 404.66 588.46 397.7 596.84 398.31 596.23 389.93 603.18 394.65 606.85 387.09"/>
                <polygon id="virus-26" data-name="virus" class="cls-4"
                         points="143.78 474.93 147.44 482.49 154.4 477.78 153.79 486.16 162.17 485.55 157.45 492.5 165.01 496.17 157.45 499.83 162.17 506.79 153.79 506.18 154.4 514.56 147.44 509.84 143.78 517.4 140.12 509.84 133.16 514.56 133.77 506.18 125.39 506.79 130.1 499.83 122.54 496.17 130.1 492.5 125.39 485.55 133.77 486.16 133.16 477.78 140.12 482.49 143.78 474.93"/>
                <polygon id="virus-27" data-name="virus" class="cls-4"
                         points="934.22 267.41 937.88 274.97 944.84 270.25 944.23 278.63 952.61 278.03 947.89 284.98 955.45 288.64 947.89 292.31 952.61 299.26 944.23 298.65 944.84 307.03 937.88 302.32 934.22 309.88 930.55 302.32 923.6 307.03 924.21 298.65 915.83 299.26 920.54 292.31 912.98 288.64 920.54 284.98 915.83 278.03 924.21 278.63 923.6 270.25 930.55 274.97 934.22 267.41"/>
                <polygon id="virus-28" data-name="virus" class="cls-4"
                         points="1109.55 206.7 1113.21 214.26 1120.17 209.55 1119.56 217.93 1127.94 217.32 1123.22 224.27 1130.79 227.94 1123.22 231.6 1127.94 238.56 1119.56 237.95 1120.17 246.33 1113.21 241.61 1109.55 249.17 1105.89 241.61 1098.93 246.33 1099.54 237.95 1091.16 238.56 1095.88 231.6 1088.32 227.94 1095.88 224.27 1091.16 217.32 1099.54 217.93 1098.93 209.55 1105.89 214.26 1109.55 206.7"/>
                <polygon id="virus-29" data-name="virus" class="cls-4"
                         points="929.91 165.47 933.58 173.03 940.53 168.31 939.92 176.69 948.3 176.08 943.59 183.04 951.15 186.7 943.59 190.37 948.3 197.32 939.92 196.71 940.53 205.09 933.58 200.38 929.91 207.94 926.25 200.38 919.29 205.09 919.9 196.71 911.52 197.32 916.24 190.37 908.68 186.7 916.24 183.04 911.52 176.08 919.9 176.69 919.29 168.31 926.25 173.03 929.91 165.47"/>
                <polygon id="virus-30" data-name="virus" class="cls-4"
                         points="1496.61 418.02 1500.28 425.58 1507.23 420.87 1506.62 429.25 1515 428.64 1510.29 435.59 1517.85 439.25 1510.29 442.92 1515 449.87 1506.62 449.26 1507.23 457.64 1500.28 452.93 1496.61 460.49 1492.95 452.93 1485.99 457.64 1486.6 449.26 1478.22 449.87 1482.94 442.92 1475.38 439.25 1482.94 435.59 1478.22 428.64 1486.6 429.25 1485.99 420.87 1492.95 425.58 1496.61 418.02"/>
                <polygon id="virus-31" data-name="virus" class="cls-4"
                         points="1140.02 627.08 1141.79 630.72 1145.14 628.45 1144.85 632.49 1148.9 632.2 1146.62 635.55 1150.27 637.32 1146.62 639.09 1148.9 642.45 1144.85 642.15 1145.14 646.2 1141.79 643.92 1140.02 647.57 1138.25 643.92 1134.9 646.2 1135.19 642.15 1131.15 642.45 1133.42 639.09 1129.78 637.32 1133.42 635.55 1131.15 632.2 1135.19 632.49 1134.9 628.45 1138.25 630.72 1140.02 627.08"/>
                <polygon id="virus-32" data-name="virus" class="cls-4"
                         points="1475.38 693.75 1477.14 697.4 1480.5 695.13 1480.21 699.17 1484.25 698.88 1481.97 702.23 1485.62 704 1481.97 705.77 1484.25 709.12 1480.21 708.83 1480.5 712.87 1477.14 710.6 1475.38 714.25 1473.61 710.6 1470.25 712.87 1470.55 708.83 1466.5 709.12 1468.78 705.77 1465.13 704 1468.78 702.23 1466.5 698.88 1470.55 699.17 1470.25 695.13 1473.61 697.4 1475.38 693.75"/>
                <polygon id="virus-33" data-name="virus" class="cls-4"
                         points="701.97 397.08 703.73 400.72 707.09 398.45 706.79 402.49 710.84 402.2 708.56 405.55 712.21 407.32 708.56 409.09 710.84 412.44 706.79 412.15 707.09 416.2 703.73 413.92 701.97 417.57 700.2 413.92 696.84 416.2 697.13 412.15 693.09 412.44 695.37 409.09 691.72 407.32 695.37 405.55 693.09 402.2 697.13 402.49 696.84 398.45 700.2 400.72 701.97 397.08"/>
                <polygon id="virus-34" data-name="virus" class="cls-4"
                         points="923.04 1216.38 924.8 1220.02 928.16 1217.75 927.87 1221.79 931.91 1221.5 929.63 1224.85 933.28 1226.62 929.63 1228.39 931.91 1231.74 927.87 1231.45 928.16 1235.5 924.8 1233.22 923.04 1236.87 921.27 1233.22 917.91 1235.5 918.21 1231.45 914.16 1231.74 916.44 1228.39 912.79 1226.62 916.44 1224.85 914.16 1221.5 918.21 1221.79 917.91 1217.75 921.27 1220.02 923.04 1216.38"/>
                <polygon id="virus-35" data-name="virus" class="cls-4"
                         points="781.97 971.95 783.73 975.6 787.09 973.32 786.79 977.37 790.84 977.07 788.56 980.43 792.21 982.2 788.56 983.97 790.84 987.32 786.79 987.03 787.09 991.07 783.73 988.8 781.97 992.44 780.2 988.8 776.84 991.07 777.13 987.03 773.09 987.32 775.37 983.97 771.72 982.2 775.37 980.43 773.09 977.07 777.13 977.37 776.84 973.32 780.2 975.6 781.97 971.95"/>
                <polygon id="virus-36" data-name="virus" class="cls-4"
                         points="866.03 93.33 867.79 96.98 871.15 94.7 870.86 98.75 874.9 98.45 872.62 101.81 876.27 103.58 872.62 105.34 874.9 108.7 870.86 108.41 871.15 112.45 867.79 110.17 866.03 113.82 864.26 110.17 860.9 112.45 861.2 108.41 857.15 108.7 859.43 105.34 855.78 103.58 859.43 101.81 857.15 98.45 861.2 98.75 860.9 94.7 864.26 96.98 866.03 93.33"/>
            </g>
        </g>
    </g>
</svg>