<svg xmlns="http://www.w3.org/2000/svg" viewBox="0 0 1856.6 1480.33"><defs><style>.cls-1{fill:#a2e59a;}.cls-2{fill:#9ad891;}.cls-3{fill:#c0f9b9;}.cls-4{fill:#77ac72;}.cls-5{fill:#c9f5c4;}</style></defs><title>intestines-4</title><g id="Layer_2" data-name="Layer 2"><g id="intestines_4"><g id="intestines"><path id="intestines_2" class="cls-1" d="M685,0s-2.4,75.7,9,125c5.85,25.27,12.5,61,28.77,93.35,15.58,31,37.29,57.29,54.23,76.65,0,0,43.36,60,135.18,99,82.26,34.94,159.85,27.34,175.11,25.38a63.17,63.17,0,0,1,6.43-.49c9.75-.25,37.15-3.66,63.62-1.26,23.8,2.15,45.16,4.75,57.66,20.38,8.27,10.33,9,40.23-14.18,56.35C1178.29,510,1144.28,510.75,1107,509c0,0-67.33-2.67-145-48,0,0-91.5-51.5-130-84-35.66-30.1-123.5-113.5-150-132-9.56-6.68-88-60-161-78,0,0-33-14-109-14s-143,17-193,48c-26.06,16.15-65.86,43.81-97.77,76.22-12.41,12.6-42,43-66.36,83.77C29.07,404.23,10.69,458.51,5,493c0,0-43.36,280.59,124.63,447.08s447,161.49,552,157,344.17-73.73,378-88.5c36.41-15.91,81-28.5,129-28.5s117,9,117,81-29.24,92.59-61,108.49c-35.41,17.73-117.58,23.43-216.49,7-98.38-16.35-198.09-2.23-247.54,28.72-34,21.3-63.67,47.68-89.35,88.08-35,55.1-46.53,126.19-46.53,187H661s1.5-72.13,19-116.33c19-48,44.67-82.67,73.33-104.67s63-41.67,97.67-48.33,82-17.33,146-14.67,91.22,9.83,150,6c43.5-2.83,59.33-4.78,84.93-12.9,25.81-8.18,49.07-18.94,65.07-35.1,0,0,41.67-37.33,41.67-93.33s-16.42-75.75-33.67-93c0,0-25.33-26.33-78.5-37.5,0,0-53.5-13.5-114,7C1075.83,949.93,987,993,932,1009c-19.67,5.72-57,17-101,30.07A840.89,840.89,0,0,1,698.36,1067s-120.67,15.33-209.33,5.33c-82.15-9.26-141.33-20-210-50-46.77-20.43-105.33-56.67-146.67-104.67S59.53,791,49.69,730.17c-8.83-54.65-3.39-156.83,28-234.83C112,410,206.69,309,276,271.67S397.69,223,451.69,223,545,233.33,561,238s88.67,37.67,119,58.33,103.33,69.33,115.33,79.33,111.61,77.76,174,108c13.47,6.53,61.9,26,100.27,31.59,54.69,7.94,101.37,1,122.73-7.26,36.33-14,46.86-54.18,40.67-73.5-6.29-19.61-19.67-46.5-66.75-52.75-27.32-3.63-43.92-1.75-72.58-2.08s-69,2.33-93.67-1.67c0,0-71.67-15.33-107.33-36.33C875.4,331.49,842,312.95,813.1,285.92c-30.76-28.72-55.93-66.13-66.11-81.57-18.82-28.51-30.37-71.64-36.46-92.86C698,68,697.53,0,697.53,0Z"/><path id="intestines_1" class="cls-1" d="M761.69,1480.33S758.53,1426,782,1373s66.89-89.67,97-102.5c54-23,78.83-21.89,125.5-18,54,4.5,197.51,35.65,225,40,49.5,7.83,137.54,20.24,199.5,18,96.67-3.5,162.47-32.4,203.5-59,30.37-19.69,121.81-93.72,150.2-214.92,19.45-83-6.6-214.65-38.7-260.58-68.82-98.43-168.33-109.67-228-112-53.19-2.08-155.67,20.33-230.55,59C1243.73,744.56,1039,853,977,875s-204,64-352,36c0,0-123-17-166-114s3-187,17-206,66-77,152-75,140.82,25.33,157,34c23.49,12.59,199,112,384,118,0,0,133,7.78,244.95-54.36C1442.95,597.56,1479,571,1494,547c0,0,95-133,39-288-58.93-163.1-294-95-398-99-83.94-3.23-134.6-17.15-180.6-40.48C912.52,98.26,875,50.72,875,0h17.33s-3.13,48.21,51.21,84.44c16.57,11,76.2,42.24,148.47,44.65,80.55,2.69,157.49-24.09,213.65-24.09,101.83,0,144.63,26.35,182.67,56,45.33,35.33,66.67,97.67,66.67,97.67s23.56,58.44,14,134c0,0-20,110.33-72.33,170.33,0,0-53.1,73.59-222.67,110-125.14,26.87-343,6-445-37,0,0-51.5-23.5-101-30.5-42.32-6-111.5-12-141.5,6s-52.5,39-59,77.5-.76,77.82,26,107.5c27.5,30.5,88,52,140.5,59s197-10,233-16,170-48.5,204-65,186.49-93.07,237-107c55-15.17,104.5-22.5,155-22s123.33,8.17,200,62.83,104,95.33,117,150c12.78,53.74,18.49,84.74,16,127.33-2.5,42.83-9,73.33-31,113.33s-38.33,65-71.67,98.33c-49.5,49.5-82.33,75.67-183.67,111.67-68.83,24.45-196,17-257.33,8.33s-168.25-26.28-244.67-33.67c-70.37-6.81-105.67-16.67-174,6.67-53.63,18.31-77.33,49.33-96,88-6.36,13.18-10.33,29.22-14.11,44.64a313.76,313.76,0,0,0-8.22,57.36Z"/></g><g id="Лактобактерии"><g id="лакто-бактерия_1" data-name="лакто-бактерия 1"><path class="cls-2" d="M1380.36,355.17a56.75,56.75,0,1,1,56.75-56.75A56.81,56.81,0,0,1,1380.36,355.17Z"/><path class="cls-3" d="M1380.36,247.17a51.25,51.25,0,1,1-51.25,51.25,51.25,51.25,0,0,1,51.25-51.25m0-11a62.25,62.25,0,1,0,62.25,62.25,62.32,62.32,0,0,0-62.25-62.25Z"/></g><g id="лакто-бактерия_1-2" data-name="лакто-бактерия 1"><path class="cls-2" d="M168.92,633.4a56.75,56.75,0,1,1,56.75-56.75A56.81,56.81,0,0,1,168.92,633.4Z"/><path class="cls-3" d="M168.92,525.4a51.25,51.25,0,1,1-51.25,51.25,51.25,51.25,0,0,1,51.25-51.25m0-11a62.25,62.25,0,1,0,62.25,62.25,62.32,62.32,0,0,0-62.25-62.25Z"/></g><g id="лакто-бактерия_1-3" data-name="лакто-бактерия 1"><path class="cls-4" d="M1554.85,1134.37a56.75,56.75,0,1,1,56.75-56.75A56.81,56.81,0,0,1,1554.85,1134.37Z"/><path class="cls-5" d="M1554.85,1026.37a51.25,51.25,0,1,1-51.25,51.25,51.25,51.25,0,0,1,51.25-51.25m0-11a62.25,62.25,0,1,0,62.25,62.25,62.32,62.32,0,0,0-62.25-62.25Z"/></g><g id="лакто-бактерия_2" data-name="лакто-бактерия 2"><path class="cls-4" d="M1078.93,346.79a34.62,34.62,0,1,1,34.62-34.62A34.66,34.66,0,0,1,1078.93,346.79Z"/><path class="cls-5" d="M1078.93,281.54a30.62,30.62,0,1,1-30.62,30.62,30.62,30.62,0,0,1,30.62-30.62m0-8a38.62,38.62,0,1,0,38.62,38.62,38.67,38.67,0,0,0-38.62-38.62Z"/></g><g id="лакто-бактерия_2-2" data-name="лакто-бактерия 2"><path class="cls-2" d="M199.54,927.26a34.62,34.62,0,1,1,34.62-34.62A34.66,34.66,0,0,1,199.54,927.26Z"/><path class="cls-3" d="M199.54,862a30.62,30.62,0,1,1-30.62,30.62A30.62,30.62,0,0,1,199.54,862m0-8a38.62,38.62,0,1,0,38.62,38.62A38.67,38.67,0,0,0,199.54,854Z"/></g><g id="лакто-бактерия_2-3" data-name="лакто-бактерия 2"><path class="cls-4" d="M379.84,983.35a34.62,34.62,0,1,1,34.62-34.62A34.66,34.66,0,0,1,379.84,983.35Z"/><path class="cls-5" d="M379.84,918.11a30.62,30.62,0,1,1-30.62,30.62,30.62,30.62,0,0,1,30.62-30.62m0-8a38.62,38.62,0,1,0,38.62,38.62,38.67,38.67,0,0,0-38.62-38.62Z"/></g><g id="лакто-бактерия_2-4" data-name="лакто-бактерия 2"><path class="cls-2" d="M1438.91,805.41a34.62,34.62,0,1,1,34.62-34.62A34.66,34.66,0,0,1,1438.91,805.41Z"/><path class="cls-3" d="M1438.91,740.17a30.62,30.62,0,1,1-30.62,30.62,30.62,30.62,0,0,1,30.62-30.62m0-8a38.62,38.62,0,1,0,38.62,38.62,38.67,38.67,0,0,0-38.62-38.62Z"/></g><g id="лакто-бактерия_2-5" data-name="лакто-бактерия 2"><path class="cls-2" d="M1444.06,1246.39a34.62,34.62,0,1,1,34.62-34.62A34.66,34.66,0,0,1,1444.06,1246.39Z"/><path class="cls-3" d="M1444.07,1181.14a30.62,30.62,0,1,1-30.62,30.62,30.62,30.62,0,0,1,30.62-30.62m0-8a38.62,38.62,0,1,0,38.62,38.62,38.67,38.67,0,0,0-38.62-38.62Z"/></g><g id="лакто-бактерия_2-6" data-name="лакто-бактерия 2"><path class="cls-2" d="M496,335.08a34.62,34.62,0,1,1,34.62-34.62A34.66,34.66,0,0,1,496,335.08Z"/><path class="cls-3" d="M496,269.83a30.62,30.62,0,1,1-30.62,30.62A30.62,30.62,0,0,1,496,269.83m0-8a38.62,38.62,0,1,0,38.62,38.62A38.67,38.67,0,0,0,496,261.83Z"/></g><g id="лакто-бактерия_2-7" data-name="лакто-бактерия 2"><path class="cls-4" d="M426,335.08a34.62,34.62,0,1,1,34.62-34.62A34.66,34.66,0,0,1,426,335.08Z"/><path class="cls-5" d="M426,269.83a30.62,30.62,0,1,1-30.62,30.62A30.62,30.62,0,0,1,426,269.83m0-8a38.62,38.62,0,1,0,38.62,38.62A38.67,38.67,0,0,0,426,261.83Z"/></g><g id="лакто-бактерия_2-8" data-name="лакто-бактерия 2"><path class="cls-4" d="M122.54,689.42a34.62,34.62,0,1,1,34.62-34.62A34.66,34.66,0,0,1,122.54,689.42Z"/><path class="cls-5" d="M122.54,624.17a30.62,30.62,0,1,1-30.62,30.62,30.62,30.62,0,0,1,30.62-30.62m0-8a38.62,38.62,0,1,0,38.62,38.62,38.67,38.67,0,0,0-38.62-38.62Z"/></g><g id="лакто-бактерия_3" data-name="лакто-бактерия 3"><path class="cls-2" d="M1200.26,230.94A18.77,18.77,0,1,1,1219,212.17,18.79,18.79,0,0,1,1200.26,230.94Z"/><path class="cls-3" d="M1200.26,196.4a15.77,15.77,0,1,1-15.77,15.77,15.77,15.77,0,0,1,15.77-15.77m0-6A21.77,21.77,0,1,0,1222,212.17a21.79,21.79,0,0,0-21.77-21.77Z"/></g><g id="лакто-бактерия_3-2" data-name="лакто-бактерия 3"><path class="cls-2" d="M1336,560.94a18.77,18.77,0,1,1,18.77-18.77A18.79,18.79,0,0,1,1336,560.94Z"/><path class="cls-3" d="M1336,526.4a15.77,15.77,0,1,1-15.77,15.77A15.77,15.77,0,0,1,1336,526.4m0-6a21.77,21.77,0,1,0,21.77,21.77A21.79,21.79,0,0,0,1336,520.4Z"/></g><g id="лакто-бактерия_3-3" data-name="лакто-бактерия 3"><path class="cls-4" d="M1084,642.94a18.77,18.77,0,1,1,18.77-18.77A18.79,18.79,0,0,1,1084,642.94Z"/><path class="cls-5" d="M1084,608.4a15.77,15.77,0,1,1-15.77,15.77A15.77,15.77,0,0,1,1084,608.4m0-6a21.77,21.77,0,1,0,21.77,21.77A21.79,21.79,0,0,0,1084,602.4Z"/></g><g id="лакто-бактерия_3-4" data-name="лакто-бактерия 3"><path class="cls-4" d="M866,567.94a18.77,18.77,0,1,1,18.77-18.77A18.79,18.79,0,0,1,866,567.94Z"/><path class="cls-5" d="M866,533.4a15.77,15.77,0,1,1-15.77,15.77A15.77,15.77,0,0,1,866,533.4m0-6a21.77,21.77,0,1,0,21.77,21.77A21.79,21.79,0,0,0,866,527.4Z"/></g><g id="лакто-бактерия_3-5" data-name="лакто-бактерия 3"><path class="cls-4" d="M496,514.94a18.77,18.77,0,1,1,18.77-18.77A18.79,18.79,0,0,1,496,514.94Z"/><path class="cls-5" d="M496,480.4a15.77,15.77,0,1,1-15.77,15.77A15.77,15.77,0,0,1,496,480.4m0-6a21.77,21.77,0,1,0,21.77,21.77A21.79,21.79,0,0,0,496,474.4Z"/></g><g id="лакто-бактерия_3-6" data-name="лакто-бактерия 3"><path class="cls-4" d="M406.86,540.94a18.77,18.77,0,1,1,18.77-18.77A18.79,18.79,0,0,1,406.86,540.94Z"/><path class="cls-5" d="M406.86,506.4a15.77,15.77,0,1,1-15.77,15.77,15.77,15.77,0,0,1,15.77-15.77m0-6a21.77,21.77,0,1,0,21.77,21.77,21.79,21.79,0,0,0-21.77-21.77Z"/></g><g id="лакто-бактерия_3-7" data-name="лакто-бактерия 3"><path class="cls-2" d="M379.84,785.74A18.77,18.77,0,1,1,398.61,767,18.79,18.79,0,0,1,379.84,785.74Z"/><path class="cls-3" d="M379.84,751.2A15.77,15.77,0,1,1,364.07,767a15.77,15.77,0,0,1,15.77-15.77m0-6A21.77,21.77,0,1,0,401.61,767a21.79,21.79,0,0,0-21.77-21.77Z"/></g><g id="лакто-бактерия_3-8" data-name="лакто-бактерия 3"><path class="cls-4" d="M480.26,1052A18.77,18.77,0,1,1,499,1033.25,18.79,18.79,0,0,1,480.26,1052Z"/><path class="cls-5" d="M480.26,1017.48a15.77,15.77,0,1,1-15.77,15.77,15.77,15.77,0,0,1,15.77-15.77m0-6A21.77,21.77,0,1,0,502,1033.25a21.79,21.79,0,0,0-21.77-21.77Z"/></g><g id="лакто-бактерия_3-9" data-name="лакто-бактерия 3"><path class="cls-4" d="M564.61,967.5a18.77,18.77,0,1,1,18.77-18.77A18.79,18.79,0,0,1,564.61,967.5Z"/><path class="cls-5" d="M564.61,933a15.77,15.77,0,1,1-15.77,15.77A15.77,15.77,0,0,1,564.61,933m0-6a21.77,21.77,0,1,0,21.77,21.77A21.79,21.79,0,0,0,564.61,927Z"/></g><g id="лакто-бактерия_3-10" data-name="лакто-бактерия 3"><path class="cls-2" d="M831.46,1013.89a18.77,18.77,0,1,1,18.77-18.77A18.79,18.79,0,0,1,831.46,1013.89Z"/><path class="cls-3" d="M831.46,979.35a15.77,15.77,0,1,1-15.77,15.77,15.77,15.77,0,0,1,15.77-15.77m0-6a21.77,21.77,0,1,0,21.77,21.77,21.79,21.79,0,0,0-21.77-21.77Z"/></g><g id="лакто-бактерия_3-11" data-name="лакто-бактерия 3"><path class="cls-4" d="M1262.7,896.55a18.77,18.77,0,1,1,18.77-18.77A18.79,18.79,0,0,1,1262.7,896.55Z"/><path class="cls-5" d="M1262.7,862a15.77,15.77,0,1,1-15.77,15.77A15.77,15.77,0,0,1,1262.7,862m0-6a21.77,21.77,0,1,0,21.77,21.77A21.79,21.79,0,0,0,1262.7,856Z"/></g><g id="лакто-бактерия_3-12" data-name="лакто-бактерия 3"><path class="cls-2" d="M1303.7,896.55a18.77,18.77,0,1,1,18.77-18.77A18.79,18.79,0,0,1,1303.7,896.55Z"/><path class="cls-3" d="M1303.7,862a15.77,15.77,0,1,1-15.77,15.77A15.77,15.77,0,0,1,1303.7,862m0-6a21.77,21.77,0,1,0,21.77,21.77A21.79,21.79,0,0,0,1303.7,856Z"/></g><g id="лакто-бактерия_3-13" data-name="лакто-бактерия 3"><path class="cls-2" d="M1655.68,815a18.77,18.77,0,1,1,18.77-18.77A18.79,18.79,0,0,1,1655.68,815Z"/><path class="cls-3" d="M1655.68,780.49a15.77,15.77,0,1,1-15.77,15.77,15.77,15.77,0,0,1,15.77-15.77m0-6a21.77,21.77,0,1,0,21.77,21.77,21.79,21.79,0,0,0-21.77-21.77Z"/></g><g id="лакто-бактерия_3-14" data-name="лакто-бактерия 3"><path class="cls-4" d="M1562.09,936.88a18.77,18.77,0,1,1,18.77-18.77A18.79,18.79,0,0,1,1562.09,936.88Z"/><path class="cls-5" d="M1562.09,902.34a15.77,15.77,0,1,1-15.77,15.77,15.77,15.77,0,0,1,15.77-15.77m0-6a21.77,21.77,0,1,0,21.77,21.77,21.79,21.79,0,0,0-21.77-21.77Z"/></g><g id="лакто-бактерия_3-15" data-name="лакто-бактерия 3"><path class="cls-2" d="M1396.13,1083.56a18.77,18.77,0,1,1,18.77-18.77A18.79,18.79,0,0,1,1396.13,1083.56Z"/><path class="cls-3" d="M1396.13,1049a15.77,15.77,0,1,1-15.77,15.77,15.77,15.77,0,0,1,15.77-15.77m0-6a21.77,21.77,0,1,0,21.77,21.77,21.79,21.79,0,0,0-21.77-21.77Z"/></g><g id="лакто-бактерия_3-16" data-name="лакто-бактерия 3"><path class="cls-2" d="M1249.54,1261.16a18.77,18.77,0,1,1,18.77-18.77A18.79,18.79,0,0,1,1249.54,1261.16Z"/><path class="cls-3" d="M1249.54,1226.62a15.77,15.77,0,1,1-15.77,15.77,15.77,15.77,0,0,1,15.77-15.77m0-6a21.77,21.77,0,1,0,21.77,21.77,21.79,21.79,0,0,0-21.77-21.77Z"/></g><g id="лакто-бактерия_3-17" data-name="лакто-бактерия 3"><path class="cls-4" d="M1287.54,1241.16a18.77,18.77,0,1,1,18.77-18.77A18.79,18.79,0,0,1,1287.54,1241.16Z"/><path class="cls-5" d="M1287.54,1206.62a15.77,15.77,0,1,1-15.77,15.77,15.77,15.77,0,0,1,15.77-15.77m0-6a21.77,21.77,0,1,0,21.77,21.77,21.79,21.79,0,0,0-21.77-21.77Z"/></g><g id="лакто-бактерия_3-18" data-name="лакто-бактерия 3"><path class="cls-2" d="M1048.3,1248.94a18.77,18.77,0,1,1,18.77-18.77A18.79,18.79,0,0,1,1048.3,1248.94Z"/><path class="cls-3" d="M1048.3,1214.4a15.77,15.77,0,1,1-15.77,15.77,15.77,15.77,0,0,1,15.77-15.77m0-6a21.77,21.77,0,1,0,21.77,21.77,21.79,21.79,0,0,0-21.77-21.77Z"/></g><g id="лакто-бактерия_3-19" data-name="лакто-бактерия 3"><path class="cls-4" d="M782,1310.83a18.77,18.77,0,1,1,18.77-18.77A18.79,18.79,0,0,1,782,1310.83Z"/><path class="cls-5" d="M782,1276.29a15.77,15.77,0,1,1-15.77,15.77A15.77,15.77,0,0,1,782,1276.29m0-6a21.77,21.77,0,1,0,21.77,21.77A21.79,21.79,0,0,0,782,1270.29Z"/></g><g id="лакто-бактерия_3-20" data-name="лакто-бактерия 3"><path class="cls-2" d="M738.36,1397.68a18.77,18.77,0,1,1,18.77-18.77A18.79,18.79,0,0,1,738.36,1397.68Z"/><path class="cls-3" d="M738.36,1363.14a15.77,15.77,0,1,1-15.77,15.77,15.77,15.77,0,0,1,15.77-15.77m0-6a21.77,21.77,0,1,0,21.77,21.77,21.79,21.79,0,0,0-21.77-21.77Z"/></g><g id="лакто-бактерия_3-21" data-name="лакто-бактерия 3"><path class="cls-2" d="M1718.08,1035.27a18.77,18.77,0,1,1,18.77-18.77A18.79,18.79,0,0,1,1718.08,1035.27Z"/><path class="cls-3" d="M1718.08,1000.73a15.77,15.77,0,1,1-15.77,15.77,15.77,15.77,0,0,1,15.77-15.77m0-6a21.77,21.77,0,1,0,21.77,21.77,21.79,21.79,0,0,0-21.77-21.77Z"/></g><g id="лакто-бактерия_3-22" data-name="лакто-бактерия 3"><path class="cls-4" d="M1686.08,1012.27a18.77,18.77,0,1,1,18.77-18.77A18.79,18.79,0,0,1,1686.08,1012.27Z"/><path class="cls-5" d="M1686.08,977.73a15.77,15.77,0,1,1-15.77,15.77,15.77,15.77,0,0,1,15.77-15.77m0-6a21.77,21.77,0,1,0,21.77,21.77,21.79,21.79,0,0,0-21.77-21.77Z"/></g><g id="лакто-бактерия_3-23" data-name="лакто-бактерия 3"><path class="cls-4" d="M252.86,403.94a18.77,18.77,0,1,1,18.77-18.77A18.79,18.79,0,0,1,252.86,403.94Z"/><path class="cls-5" d="M252.86,369.4a15.77,15.77,0,1,1-15.77,15.77,15.77,15.77,0,0,1,15.77-15.77m0-6a21.77,21.77,0,1,0,21.77,21.77,21.79,21.79,0,0,0-21.77-21.77Z"/></g><g id="лакто-бактерия_3-24" data-name="лакто-бактерия 3"><path class="cls-2" d="M332.86,363.94a18.77,18.77,0,1,1,18.77-18.77A18.79,18.79,0,0,1,332.86,363.94Z"/><path class="cls-3" d="M332.86,329.4a15.77,15.77,0,1,1-15.77,15.77,15.77,15.77,0,0,1,15.77-15.77m0-6a21.77,21.77,0,1,0,21.77,21.77,21.79,21.79,0,0,0-21.77-21.77Z"/></g><g id="лакто-бактерия_3-25" data-name="лакто-бактерия 3"><path class="cls-4" d="M831.46,217.78A18.77,18.77,0,1,1,850.23,199,18.79,18.79,0,0,1,831.46,217.78Z"/><path class="cls-5" d="M831.46,183.24A15.77,15.77,0,1,1,815.69,199a15.77,15.77,0,0,1,15.77-15.77m0-6A21.77,21.77,0,1,0,853.23,199a21.79,21.79,0,0,0-21.77-21.77Z"/></g><g id="лакто-бактерия_4" data-name="лакто-бактерия 4"><circle class="cls-2" cx="1246.93" cy="349.67" r="8.38"/><path class="cls-3" d="M1246.93,342.79a6.88,6.88,0,1,1-6.88,6.88,6.88,6.88,0,0,1,6.88-6.88m0-3a9.88,9.88,0,1,0,9.88,9.88,9.89,9.89,0,0,0-9.88-9.88Z"/></g><g id="лакто-бактерия_4-2" data-name="лакто-бактерия 4"><circle class="cls-4" cx="1445.78" cy="480.4" r="8.38"/><path class="cls-5" d="M1445.78,473.52a6.88,6.88,0,1,1-6.88,6.88,6.88,6.88,0,0,1,6.88-6.88m0-3a9.88,9.88,0,1,0,9.88,9.88,9.89,9.89,0,0,0-9.88-9.88Z"/></g><g id="лакто-бактерия_4-3" data-name="лакто-бактерия 4"><circle class="cls-2" cx="1475.78" cy="465.4" r="8.38"/><path class="cls-3" d="M1475.78,458.52a6.88,6.88,0,1,1-6.88,6.88,6.88,6.88,0,0,1,6.88-6.88m0-3a9.88,9.88,0,1,0,9.88,9.88,9.89,9.89,0,0,0-9.88-9.88Z"/></g><g id="лакто-бактерия_4-4" data-name="лакто-бактерия 4"><circle class="cls-4" cx="1141.96" cy="637.32" r="8.38"/><path class="cls-5" d="M1142,630.45a6.88,6.88,0,1,1-6.88,6.88,6.88,6.88,0,0,1,6.88-6.88m0-3a9.88,9.88,0,1,0,9.88,9.88,9.89,9.89,0,0,0-9.88-9.88Z"/></g><g id="лакто-бактерия_4-5" data-name="лакто-бактерия 4"><circle class="cls-2" cx="1231.96" cy="627.32" r="8.38"/><path class="cls-3" d="M1232,620.45a6.88,6.88,0,1,1-6.88,6.88,6.88,6.88,0,0,1,6.88-6.88m0-3a9.88,9.88,0,1,0,9.88,9.88,9.89,9.89,0,0,0-9.88-9.88Z"/></g><g id="лакто-бактерия_4-6" data-name="лакто-бактерия 4"><circle class="cls-4" cx="961.97" cy="557.32" r="8.38"/><path class="cls-5" d="M962,550.45a6.88,6.88,0,1,1-6.88,6.88,6.88,6.88,0,0,1,6.88-6.88m0-3a9.88,9.88,0,1,0,9.88,9.88,9.89,9.89,0,0,0-9.88-9.88Z"/></g><g id="лакто-бактерия_4-7" data-name="лакто-бактерия 4"><circle class="cls-2" cx="1031.96" cy="577.32" r="8.38"/><path class="cls-3" d="M1032,570.45a6.88,6.88,0,1,1-6.88,6.88,6.88,6.88,0,0,1,6.88-6.88m0-3a9.88,9.88,0,1,0,9.88,9.88,9.89,9.89,0,0,0-9.88-9.88Z"/></g><g id="лакто-бактерия_4-8" data-name="лакто-бактерия 4"><circle class="cls-2" cx="781.97" cy="467.32" r="8.38"/><path class="cls-3" d="M782,460.45a6.88,6.88,0,1,1-6.88,6.88,6.88,6.88,0,0,1,6.88-6.88m0-3a9.88,9.88,0,1,0,9.88,9.88,9.89,9.89,0,0,0-9.88-9.88Z"/></g><g id="лакто-бактерия_4-9" data-name="лакто-бактерия 4"><circle class="cls-2" cx="701.97" cy="407.32" r="8.38"/><path class="cls-3" d="M702,400.45a6.88,6.88,0,1,1-6.88,6.88,6.88,6.88,0,0,1,6.88-6.88m0-3a9.88,9.88,0,1,0,9.88,9.88,9.89,9.89,0,0,0-9.88-9.88Z"/></g><g id="лакто-бактерия_4-10" data-name="лакто-бактерия 4"><circle class="cls-4" cx="711.97" cy="447.32" r="8.38"/><path class="cls-5" d="M712,440.45a6.88,6.88,0,1,1-6.88,6.88,6.88,6.88,0,0,1,6.88-6.88m0-3a9.88,9.88,0,1,0,9.88,9.88,9.89,9.89,0,0,0-9.88-9.88Z"/></g><g id="лакто-бактерия_4-11" data-name="лакто-бактерия 4"><circle class="cls-4" cx="631.97" cy="387.32" r="8.38"/><path class="cls-5" d="M632,380.45a6.88,6.88,0,1,1-6.88,6.88,6.88,6.88,0,0,1,6.88-6.88m0-3a9.88,9.88,0,1,0,9.88,9.88,9.89,9.89,0,0,0-9.88-9.88Z"/></g><g id="лакто-бактерия_4-12" data-name="лакто-бактерия 4"><circle class="cls-4" cx="541.97" cy="457.32" r="8.38"/><path class="cls-5" d="M542,450.45a6.88,6.88,0,1,1-6.88,6.88,6.88,6.88,0,0,1,6.88-6.88m0-3a9.88,9.88,0,1,0,9.88,9.88,9.89,9.89,0,0,0-9.88-9.88Z"/></g><g id="лакто-бактерия_4-13" data-name="лакто-бактерия 4"><circle class="cls-2" cx="351.97" cy="434.32" r="8.38"/><path class="cls-3" d="M352,427.45a6.88,6.88,0,1,1-6.88,6.88,6.88,6.88,0,0,1,6.88-6.88m0-3a9.88,9.88,0,1,0,9.88,9.88,9.89,9.89,0,0,0-9.88-9.88Z"/></g><g id="лакто-бактерия_4-14" data-name="лакто-бактерия 4"><circle class="cls-4" cx="241.97" cy="744.32" r="8.38"/><path class="cls-5" d="M242,737.45a6.88,6.88,0,1,1-6.88,6.88,6.88,6.88,0,0,1,6.88-6.88m0-3a9.88,9.88,0,1,0,9.88,9.88,9.89,9.89,0,0,0-9.88-9.88Z"/></g><g id="лакто-бактерия_4-15" data-name="лакто-бактерия 4"><circle class="cls-4" cx="351.97" cy="654.79" r="8.38"/><path class="cls-5" d="M352,647.92a6.88,6.88,0,1,1-6.88,6.88,6.88,6.88,0,0,1,6.88-6.88m0-3a9.88,9.88,0,1,0,9.88,9.88,9.89,9.89,0,0,0-9.88-9.88Z"/></g><g id="лакто-бактерия_4-16" data-name="лакто-бактерия 4"><circle class="cls-4" cx="916.16" cy="961.57" r="8.38"/><path class="cls-5" d="M916.16,954.7a6.88,6.88,0,1,1-6.88,6.88,6.88,6.88,0,0,1,6.88-6.88m0-3a9.88,9.88,0,1,0,9.88,9.88,9.89,9.89,0,0,0-9.88-9.88Z"/></g><g id="лакто-бактерия_4-17" data-name="лакто-бактерия 4"><circle class="cls-2" cx="1006.16" cy="931.57" r="8.38"/><path class="cls-3" d="M1006.16,924.7a6.88,6.88,0,1,1-6.88,6.88,6.88,6.88,0,0,1,6.88-6.88m0-3a9.88,9.88,0,1,0,9.88,9.88,9.89,9.89,0,0,0-9.88-9.88Z"/></g><g id="лакто-бактерия_4-18" data-name="лакто-бактерия 4"><circle class="cls-4" cx="804.61" cy="1258.16" r="8.38"/><path class="cls-5" d="M804.61,1251.29a6.88,6.88,0,1,1-6.88,6.88,6.88,6.88,0,0,1,6.88-6.88m0-3a9.88,9.88,0,1,0,9.88,9.88,9.89,9.89,0,0,0-9.88-9.88Z"/></g><g id="лакто-бактерия_4-19" data-name="лакто-бактерия 4"><circle class="cls-4" cx="715.72" cy="1401.56" r="8.38"/><path class="cls-5" d="M715.72,1394.68a6.88,6.88,0,1,1-6.88,6.88,6.88,6.88,0,0,1,6.88-6.88m0-3a9.88,9.88,0,1,0,9.88,9.88,9.89,9.89,0,0,0-9.88-9.88Z"/></g><g id="лакто-бактерия_4-20" data-name="лакто-бактерия 4"><circle class="cls-4" cx="923.04" cy="1229.24" r="8.38"/><path class="cls-5" d="M923,1222.36a6.88,6.88,0,1,1-6.88,6.88,6.88,6.88,0,0,1,6.88-6.88m0-3a9.88,9.88,0,1,0,9.88,9.88,9.89,9.89,0,0,0-9.88-9.88Z"/></g><g id="лакто-бактерия_4-21" data-name="лакто-бактерия 4"><circle class="cls-2" cx="1135.09" cy="877.78" r="8.38"/><path class="cls-3" d="M1135.09,870.91a6.88,6.88,0,1,1-6.88,6.88,6.88,6.88,0,0,1,6.88-6.88m0-3a9.88,9.88,0,1,0,9.88,9.88,9.89,9.89,0,0,0-9.88-9.88Z"/></g><g id="лакто-бактерия_4-22" data-name="лакто-бактерия 4"><circle class="cls-2" cx="1662.55" cy="1135.75" r="8.38"/><path class="cls-3" d="M1662.55,1128.87a6.88,6.88,0,1,1-6.88,6.88,6.88,6.88,0,0,1,6.88-6.88m0-3a9.88,9.88,0,1,0,9.88,9.88,9.89,9.89,0,0,0-9.88-9.88Z"/></g><g id="лакто-бактерия_4-23" data-name="лакто-бактерия 4"><circle class="cls-4" cx="1424.73" cy="961.57" r="8.38"/><path class="cls-5" d="M1424.73,954.7a6.88,6.88,0,1,1-6.88,6.88,6.88,6.88,0,0,1,6.88-6.88m0-3a9.88,9.88,0,1,0,9.88,9.88,9.89,9.89,0,0,0-9.88-9.88Z"/></g><g id="лакто-бактерия_4-24" data-name="лакто-бактерия 4"><circle class="cls-4" cx="1577.86" cy="737.45" r="8.38"/><path class="cls-5" d="M1577.86,730.57a6.88,6.88,0,1,1-6.88,6.88,6.88,6.88,0,0,1,6.88-6.88m0-3a9.88,9.88,0,1,0,9.88,9.88,9.89,9.89,0,0,0-9.88-9.88Z"/></g><g id="лакто-бактерия_4-25" data-name="лакто-бактерия 4"><circle class="cls-2" cx="686.16" cy="1011.57" r="8.38"/><path class="cls-3" d="M686.16,1004.7a6.88,6.88,0,1,1-6.88,6.88,6.88,6.88,0,0,1,6.88-6.88m0-3a9.88,9.88,0,1,0,9.88,9.88,9.89,9.89,0,0,0-9.88-9.88Z"/></g><g id="лакто-бактерия_4-26" data-name="лакто-бактерия 4"><circle class="cls-2" cx="281.97" cy="975.32" r="8.38"/><path class="cls-3" d="M282,968.45a6.88,6.88,0,1,1-6.88,6.88,6.88,6.88,0,0,1,6.88-6.88m0-3a9.88,9.88,0,1,0,9.88,9.88,9.89,9.89,0,0,0-9.88-9.88Z"/></g><g id="лакто-бактерия_4-27" data-name="лакто-бактерия 4"><circle class="cls-4" cx="921.09" cy="293.58" r="8.38"/><path class="cls-5" d="M921.09,286.7a6.88,6.88,0,1,1-6.88,6.88,6.88,6.88,0,0,1,6.88-6.88m0-3a9.88,9.88,0,1,0,9.88,9.88,9.89,9.89,0,0,0-9.88-9.88Z"/></g><g id="лакто-бактерия_4-28" data-name="лакто-бактерия 4"><circle class="cls-4" cx="941.09" cy="193.58" r="8.38"/><path class="cls-5" d="M941.09,186.7a6.88,6.88,0,1,1-6.88,6.88,6.88,6.88,0,0,1,6.88-6.88m0-3a9.88,9.88,0,1,0,9.88,9.88,9.89,9.89,0,0,0-9.88-9.88Z"/></g><g id="лакто-бактерия_4-29" data-name="лакто-бактерия 4"><circle class="cls-2" cx="861.09" cy="103.58" r="8.38"/><path class="cls-3" d="M861.09,96.7a6.88,6.88,0,1,1-6.88,6.88,6.88,6.88,0,0,1,6.88-6.88m0-3a9.88,9.88,0,1,0,9.88,9.88,9.89,9.89,0,0,0-9.88-9.88Z"/></g><g id="лакто-бактерия_4-30" data-name="лакто-бактерия 4"><circle class="cls-4" cx="841.09" cy="93.58" r="8.38"/><path class="cls-5" d="M841.09,86.7a6.88,6.88,0,1,1-6.88,6.88,6.88,6.88,0,0,1,6.88-6.88m0-3A9.88,9.88,0,1,0,851,93.58a9.89,9.89,0,0,0-9.88-9.88Z"/></g><g id="лакто-бактерия_4-31" data-name="лакто-бактерия 4"><circle class="cls-2" cx="761.09" cy="63.58" r="8.38"/><path class="cls-3" d="M761.09,56.7a6.88,6.88,0,1,1-6.88,6.88,6.88,6.88,0,0,1,6.88-6.88m0-3A9.88,9.88,0,1,0,771,63.58a9.89,9.89,0,0,0-9.88-9.88Z"/></g></g></g></g></svg>