<?xml version="1.0" encoding="utf-8"?>
<!-- Generator: Adobe Illustrator 21.1.0, SVG Export Plug-In . SVG Version: 6.00 Build 0)  -->
<svg version="1.1" id="Слой_1" xmlns="http://www.w3.org/2000/svg" xmlns:xlink="http://www.w3.org/1999/xlink" x="0px" y="0px"
	 viewBox="0 0 1856.6 1480.3" style="enable-background:new 0 0 1856.6 1480.3;" xml:space="preserve">
<style type="text/css">
	.st0{fill:#82B97C;}
	.st1{fill:#77AC72;stroke:#C9F5C4;stroke-width:2;stroke-miterlimit:10;}
</style>
<path id="intestines_2" class="st0" d="M685,0c0,0-2.4,75.7,9,125c5.8,25.3,12.5,61,28.8,93.4c15.6,31,37.3,57.3,54.2,76.6
	c0,0,43.4,60,135.2,99c82.3,34.9,159.9,27.3,175.1,25.4c2.1-0.3,4.3-0.4,6.4-0.5c9.8-0.3,37.2-3.7,63.6-1.3
	c23.8,2.1,45.2,4.8,57.7,20.4c8.3,10.3,9,40.2-14.2,56.4c-22.5,15.6-56.5,16.4-93.8,14.6c0,0-67.3-2.7-145-48c0,0-91.5-51.5-130-84
	c-35.7-30.1-123.5-113.5-150-132c-9.6-6.7-88-60-161-78c0,0-33-14-109-14s-143,17-193,48c-26.1,16.1-65.9,43.8-97.8,76.2
	c-12.4,12.6-42,43-66.4,83.8C29.1,404.2,10.7,458.5,5,493c0,0-43.4,280.6,124.6,447.1s447,161.5,552,157s344.2-73.7,378-88.5
	c36.4-15.9,81-28.5,129-28.5s117,9,117,81s-29.2,92.6-61,108.5c-35.4,17.7-117.6,23.4-216.5,7c-98.4-16.3-198.1-2.2-247.5,28.7
	c-34,21.3-63.7,47.7-89.3,88.1c-35,55.1-46.5,126.2-46.5,187H661c0,0,1.5-72.1,19-116.3c19-48,44.7-82.7,73.3-104.7
	s63-41.7,97.7-48.3s82-17.3,146-14.7s91.2,9.8,150,6c43.5-2.8,59.3-4.8,84.9-12.9c25.8-8.2,49.1-18.9,65.1-35.1
	c0,0,41.7-37.3,41.7-93.3s-16.4-75.8-33.7-93c0,0-25.3-26.3-78.5-37.5c0,0-53.5-13.5-114,7C1075.8,949.9,987,993,932,1009
	c-19.7,5.7-57,17-101,30.1c-43.4,12.9-87.7,22.2-132.6,27.9c0,0-120.7,15.3-209.3,5.3c-82.1-9.3-141.3-20-210-50
	c-46.8-20.4-105.3-56.7-146.7-104.7S59.5,791,49.7,730.2c-8.8-54.7-3.4-156.8,28-234.8C112,410,206.7,309,276,271.7
	S397.7,223,451.7,223S545,233.3,561,238s88.7,37.7,119,58.3s103.3,69.3,115.3,79.3s111.6,77.8,174,108c13.5,6.5,61.9,26,100.3,31.6
	c54.7,7.9,101.4,1,122.7-7.3c36.3-14,46.9-54.2,40.7-73.5c-6.3-19.6-19.7-46.5-66.8-52.8c-27.3-3.6-43.9-1.8-72.6-2.1
	s-69,2.3-93.7-1.7c0,0-71.7-15.3-107.3-36.3c-17.3-10.2-50.7-28.7-79.6-55.7c-30.8-28.7-55.9-66.1-66.1-81.6
	c-18.8-28.5-30.4-71.6-36.5-92.9C698,68,697.5,0,697.5,0H685z"/>
<path id="intestines_1-2" class="st0" d="M761.7,1480.3c0,0-3.2-54.3,20.3-107.3s66.9-89.7,97-102.5c54-23,78.8-21.9,125.5-18
	c54,4.5,197.5,35.7,225,40c49.5,7.8,137.5,20.2,199.5,18c96.7-3.5,162.5-32.4,203.5-59c30.4-19.7,121.8-93.7,150.2-214.9
	c19.4-83-6.6-214.7-38.7-260.6c-68.8-98.4-168.3-109.7-228-112c-53.2-2.1-155.7,20.3-230.6,59C1243.7,744.6,1039,853,977,875
	s-204,64-352,36c0,0-123-17-166-114s3-187,17-206s66-77,152-75s140.8,25.3,157,34c23.5,12.6,199,112,384,118c0,0,133,7.8,244.9-54.4
	c29-16.1,65.1-42.6,80.1-66.6c0,0,95-133,39-288c-58.9-163.1-294-95-398-99c-83.9-3.2-134.6-17.1-180.6-40.5
	C912.5,98.3,875,50.7,875,0h17.3c0,0-3.1,48.2,51.2,84.4c16.6,11,76.2,42.2,148.5,44.6c80.6,2.7,157.5-24.1,213.7-24.1
	c101.8,0,144.6,26.4,182.7,56c45.3,35.3,66.7,97.7,66.7,97.7s23.6,58.4,14,134c0,0-20,110.3-72.3,170.3c0,0-53.1,73.6-222.7,110
	c-125.1,26.9-343,6-445-37c0,0-51.5-23.5-101-30.5c-42.3-6-111.5-12-141.5,6s-52.5,39-59,77.5s-0.8,77.8,26,107.5
	c27.5,30.5,88,52,140.5,59s197-10,233-16s170-48.5,204-65s186.5-93.1,237-107c55-15.2,104.5-22.5,155-22s123.3,8.2,200,62.8
	s104,95.3,117,150c12.8,53.7,18.5,84.7,16,127.3c-2.5,42.8-9,73.3-31,113.3s-38.3,65-71.7,98.3c-49.5,49.5-82.3,75.7-183.7,111.7
	c-68.8,24.4-196,17-257.3,8.3s-168.3-26.3-244.7-33.7c-70.4-6.8-105.7-16.7-174,6.7c-53.6,18.3-77.3,49.3-96,88
	c-6.4,13.2-10.3,29.2-14.1,44.6c-4.5,18.8-7.3,38-8.2,57.4L761.7,1480.3z"/>
<g id="bacts">
	<circle data-name="lact-bacteria-n" id="bact_1_" class="st1" cx="752.6" cy="50.5" r="13.1"/>
	<circle data-name="lact-bacteria-n" id="bact_3_" class="st1" cx="861.1" cy="119.5" r="8.9"/>
	<circle data-name="lact-bacteria-n" id="bact_5_" class="st1" cx="870" cy="231" r="14"/>
	<circle data-name="lact-bacteria-n" id="bact_7_" class="st1" cx="991.5" cy="217" r="33.5"/>
	<circle data-name="lact-bacteria-n" id="bact_9_" class="st1" cx="1044" cy="319" r="22.5"/>
	<circle data-name="lact-bacteria-n" id="bact_11_" class="st1" cx="1159" cy="234" r="11.5"/>
	<circle data-name="lact-bacteria-n" id="bact_13_" class="st1" cx="1229" cy="341.5" r="19.5"/>
	<circle data-name="lact-bacteria-n" id="bact_15_" class="st1" cx="1402.4" cy="270" r="39"/>
	<circle data-name="lact-bacteria-n" id="bact_17_" class="st1" cx="1327.7" cy="366.6" r="11"/>
	<circle data-name="lact-bacteria-n" id="bact_19_" class="st1" cx="1465" cy="443.3" r="20.3"/>
	<circle data-name="lact-bacteria-n" id="bact_21_" class="st1" cx="1302.4" cy="476.6" r="14.3"/>
	<circle data-name="lact-bacteria-n" id="bact_23_" class="st1" cx="1283.7" cy="594.3" r="25"/>
	<circle data-name="lact-bacteria-n" id="bact_25_" class="st1" cx="1164.4" cy="569.3" r="11.9"/>
	<circle data-name="lact-bacteria-n" id="bact_27_" class="st1" cx="966.4" cy="586.7" r="11.9"/>
	<circle data-name="lact-bacteria-n" id="bact_29_" class="st1" cx="889" cy="488.5" r="7.8"/>
	<circle data-name="lact-bacteria-n" id="bact_31_" class="st1" cx="728.4" cy="463.2" r="13.9"/>
	<circle data-name="lact-bacteria-n" id="bact_33_" class="st1" cx="599.7" cy="332.9" r="29.5"/>
	<circle data-name="lact-bacteria-n" id="bact_35_" class="st1" cx="448.4" cy="466.8" r="41.4"/>
	<circle data-name="lact-bacteria-n" id="bact_37_" class="st1" cx="282.4" cy="374.3" r="13"/>
	<circle data-name="lact-bacteria-n" id="bact_39_" class="st1" cx="221" cy="537.6" r="21.6"/>
	<circle data-name="lact-bacteria-n" id="bact_41_" class="st1" cx="329" cy="656.3" r="14.3"/>
	<circle data-name="lact-bacteria-n" id="bact_43_" class="st1" cx="177" cy="776.3" r="31.6"/>
	<circle data-name="lact-bacteria-n" id="bact_45_" class="st1" cx="346.4" cy="830.3" r="11"/>
	<circle data-name="lact-bacteria-n" id="bact_47_" class="st1" cx="391.7" cy="961.6" r="18.3"/>
	<circle data-name="lact-bacteria-n" id="bact_49_" class="st1" cx="518.4" cy="961.6" r="10.4"/>
	<circle data-name="lact-bacteria-n" id="bact_51_" class="st1" cx="733" cy="1005" r="25"/>
	<circle data-name="lact-bacteria-n" id="bact_53_" class="st1" cx="899" cy="943.6" r="14.5"/>
	<circle data-name="lact-bacteria-n" id="bact_55_" class="st1" cx="1054.4" cy="883" r="8.2"/>
	<circle data-name="lact-bacteria-n" id="bact_57_" class="st1" cx="1234.1" cy="875.9" r="15.3"/>
	<circle data-name="lact-bacteria-n" id="bact_59_" class="st1" cx="1353.9" cy="789.9" r="21.9"/>
	<circle data-name="lact-bacteria-n" id="bact_61_" class="st1" cx="1418.6" cy="896.7" r="26.1"/>
	<circle data-name="lact-bacteria-n" id="bact_63_" class="st1" cx="1637.9" cy="902.1" r="52.7"/>
	<circle data-name="lact-bacteria-n" id="bact_65_" class="st1" cx="1517.8" cy="1031.5" r="27.9"/>
	<circle data-name="lact-bacteria-n" id="bact_67_" class="st1" cx="1494.5" cy="1178.2" r="36.2"/>
	<circle data-name="lact-bacteria-n" id="bact_69_" class="st1" cx="1353.9" cy="1202.5" r="21.9"/>
	<circle data-name="lact-bacteria-n" id="bact_71_" class="st1" cx="1171" cy="1244.6" r="13.7"/>
	<circle data-name="lact-bacteria-n" id="bact_73_" class="st1" cx="983.7" cy="1224.4" r="9"/>
	<circle data-name="lact-bacteria-n" id="bact_75_" class="st1" cx="758.1" cy="1304.4" r="9"/>
	<circle data-name="lact-bacteria-n" id="bact_77_" class="st1" cx="726.7" cy="1443.1" r="13.3"/>
</g>
</svg>
