<?xml version="1.0" encoding="utf-8"?>
<!-- Generator: Adobe Illustrator 21.1.0, SVG Export Plug-In . SVG Version: 6.00 Build 0)  -->
<svg version="1.1"
	 id="Layer_1" xmlns:cc="http://creativecommons.org/ns#" xmlns:dc="http://purl.org/dc/elements/1.1/" xmlns:inkscape="http://www.inkscape.org/namespaces/inkscape" xmlns:rdf="http://www.w3.org/1999/02/22-rdf-syntax-ns#" xmlns:sodipodi="http://sodipodi.sourceforge.net/DTD/sodipodi-0.dtd" xmlns:svg="http://www.w3.org/2000/svg"
	 xmlns="http://www.w3.org/2000/svg" xmlns:xlink="http://www.w3.org/1999/xlink" x="0px" y="0px" viewBox="0 0 200 200"
	 style="enable-background:new 0 0 200 200;" xml:space="preserve">
<path d="M85.1,3.9c9.8,0,17.9,8.1,17.9,18v156.3c0,9.8-8.1,18-17.9,18H22.9c-9.8,0-17.9-8.1-17.9-18V21.9c0-9.8,8.1-18,17.9-18H85.1
	z M85.1,8.6H22.9c-6.5,0-11.8,4.7-13.1,10.9h88.3C96.9,13.3,91.6,8.6,85.1,8.6z M61.8,11.7c1.2,0,2.3,1.1,2.3,2.3s-1.1,2.3-2.3,2.3
	H46.2c-1.2,0-2.3-1.1-2.3-2.3s1.1-2.3,2.3-2.3H61.8z M98.3,24.2H9.7V168h88.6V24.2z M178.4,97.7c9.8,0,17.9,8.1,17.9,18v62.5
	c0,9.8-8.1,18-17.9,18H100c1.7-1.4,3.1-3,4.2-4.7H176v-89.1h-67.6v-4.7H178.4z M180.7,102.5v88.6c6.2-1.1,10.9-6.4,10.9-13v-62.5
	C191.6,109.1,186.9,103.7,180.7,102.5z M186.1,136.7c1.2,0,2.3,1.1,2.3,2.3v15.6c0,1.3-1.1,2.3-2.3,2.3c-1.2,0-2.3-1.1-2.3-2.3
	v-15.6C183.8,137.8,184.9,136.7,186.1,136.7z M98.3,172.7H9.7v5.5c0,7.3,5.9,13.3,13.2,13.3h62.2c7.3,0,13.2-5.9,13.2-13.3V172.7z
	 M54,174.2c4.4,0,7.8,3.4,7.8,7.8s-3.4,7.8-7.8,7.8s-7.8-3.4-7.8-7.8S49.6,174.2,54,174.2z M54,178.9c-1.7,0-3.1,1.4-3.1,3.1
	s1.4,3.1,3.1,3.1c1.7,0,3.1-1.4,3.1-3.1S55.7,178.9,54,178.9z"/>
<path d="M108.9,51.5c0-1.2,1-2.1,2.1-2.1c22.3,0,40.4,18.1,40.4,40.4c0,1.2-1,2.1-2.1,2.1s-2.1-1-2.1-2.1
	c0-19.9-16.2-36.1-36.1-36.1C109.8,53.6,108.9,52.6,108.9,51.5z"/>
<path d="M147.1,89.7c0-0.4,0.1-0.8,0.4-1.2l8.5-12.7c0.6-1,2-1.2,2.9-0.6c1,0.6,1.2,2,0.6,2.9L151,90.9c-0.6,1-2,1.2-2.9,0.6
	C147.4,91.1,147.1,90.4,147.1,89.7z"/>
<path d="M134.4,81.2c0-0.4,0.1-0.8,0.4-1.2c0.6-1,2-1.2,2.9-0.6l12.7,8.5c1,0.7,1.2,2,0.6,2.9c-0.6,1-2,1.2-2.9,0.6L135.3,83
	C134.7,82.6,134.4,81.9,134.4,81.2z"/>
</svg>
