<svg xmlns="http://www.w3.org/2000/svg" viewBox="0 0 427.66 512.08"><defs><style>.cls-1{fill:#e94f25;}</style></defs><title>Asset 1</title><g id="Layer_2" data-name="Layer 2"><g id="Capa_1" data-name="Capa 1"><path class="cls-1" d="M427.63,223.28V74.78a9.47,9.47,0,0,0-6.4-8.9L219.83.48a8.83,8.83,0,0,0-6,.1,8.83,8.83,0,0,0-6-.1L6.43,65.88A9.28,9.28,0,0,0,0,74.78V223c-.1,2.2-5.7,217.6,209,288.6a9.29,9.29,0,0,0,2.9.5h3.8a9.29,9.29,0,0,0,2.9-.5C433.43,440.48,427.73,225.08,427.63,223.28Zm-213.4,270.1h-.8c-199.8-67-195.1-261.5-194.8-270.1V81.48l194.9-63.3c.1,0,.2-.1.3-.1s.2.1.3.1L409,81.58v142.1C409.13,225.68,414.43,426.18,214.23,493.38Z"/><path class="cls-1" d="M381.73,93.38l-163-54.9a10.31,10.31,0,0,0-4.2-.5,10.12,10.12,0,0,0-4.2.5L47.13,93.38a10,10,0,0,0-6.8,9.5v124.9c.1,1.8,8.2,180.4,170.5,243.3a9.22,9.22,0,0,0,3.6.7,8.89,8.89,0,0,0,3.6-.7c162.3-62.9,170.5-241.5,170.5-243.7V102.88A9.87,9.87,0,0,0,381.73,93.38ZM214.43,451c-146.3-59.3-154-222.2-154-223.5V110.18l154-51.8,154.1,51.8v116.9C368.43,228.78,360.73,391.68,214.43,451Z"/><path class="cls-1" d="M321.13,187.18a9.24,9.24,0,0,0-13.1,1.2l-107.9,129.1-69.6-73.1a9.34,9.34,0,0,0-13.5,12.9l76.8,80.6a9.62,9.62,0,0,0,6.8,2.9h.3a9.67,9.67,0,0,0,6.9-3.3l114.5-137.2A9.34,9.34,0,0,0,321.13,187.18Z"/></g></g></svg>