<svg xmlns="http://www.w3.org/2000/svg" viewBox="0 0 200.01 199.94"><defs><style>.cls-1{fill:#ccc;}</style></defs><title>Asset 1</title><g id="Layer_2" data-name="Layer 2"><g id="Layer_1-2" data-name="Layer 1"><path class="cls-1" d="M176.17,6.9c-14.15-9.19-31.94-9.2-50.07,0a44.42,44.42,0,0,0-23,27c-5.38,16.78-2.18,35.44,1.35,47.44a70.9,70.9,0,0,0-15.62,8c-.34-2.23-.82-4.48-1.35-6.54C85.77,76.11,78.88,54,61.39,49,33.43,41,32.7,7,32.68,5.58a5,5,0,0,0-10,.09c0,.43.77,42.85,36,52.95,15.51,4.45,21.49,32.15,20.6,37.59a4.66,4.66,0,0,0-.29.59A25.37,25.37,0,0,0,68.76,77.62c-7.57-5.48-15.84-7.21-23.92-5a35.54,35.54,0,0,0-15.15,9.15,17.44,17.44,0,0,0-14.07-2.26,20.09,20.09,0,0,0-14.55,14,30.3,30.3,0,0,0,4,24.7c3.35,5,9.76,11.18,21.57,13.72a45.46,45.46,0,0,0-.77,5.53c-2.13,33.55,12.67,55.21,41.65,61A79.05,79.05,0,0,0,83,199.94c35.71,0,73.87-21.87,86.91-45.1,15-26.64,12.11-37.39,7.19-47.75a24,24,0,0,1-2.25-5.9c.18-1.42,3.74-5.28,6.35-8.1,7.55-8.17,17.9-19.37,18.72-36.27C200.92,36.83,191.37,16.76,176.17,6.9ZM190,56.34c-.65,13.27-9.21,22.53-16.08,30-5.47,5.92-9.79,10.6-8.88,16.29a31.42,31.42,0,0,0,3.1,8.79c3.33,7,6.77,14.27-6.88,38.57-13,23.23-56.87,45.68-91.74,38.7-30.06-6-34.88-30.82-33.63-50.57.51-8,4.86-19.79,10.12-27.36a5,5,0,1,0-8.21-5.7,73.25,73.25,0,0,0-8.5,17.24c-7.16-1.45-12.61-4.73-15.88-9.62A20.48,20.48,0,0,1,10.7,96.19a10.1,10.1,0,0,1,7.33-7,8,8,0,0,1,5.26.37,38.87,38.87,0,0,0-3,5.55,5,5,0,0,0,9.16,4c2.3-5.25,9.25-14.49,18.06-16.88,5.21-1.42,10.26-.28,15.44,3.46,5.61,4.06,9.19,13.09,2.43,26.29a5.06,5.06,0,0,0-.33.84,49.21,49.21,0,0,0-7.49,20.45c-1.07,9.16,2.62,13.91,5.91,16.29,3.47,2.5,8.09,3.47,13.15,3.47,14.74,0,33.22-8.17,37.78-10.3a5,5,0,1,0-4.23-9.06c-13,6.08-34.31,12.51-40.85,7.79-.6-.44-2.44-1.76-1.83-7,2.93-25.06,32.23-41,40.31-43.74.38.87.71,1.58,1,2.1a23.63,23.63,0,0,0,5.37,6.94c-9.3,3.32-20.26,8.31-24.35,14.38a5,5,0,1,0,8.29,5.59c3.5-5.19,21.1-11.64,32.48-14.56a5.34,5.34,0,0,0-1.81-10.52c-.06,0-6.94,1.53-11.12-6.47-3.41-6.5-11.25-31.75-5-51.28a34.75,34.75,0,0,1,18-21.11c15-7.6,28.91-7.78,40.11-.51C183,23.28,190.77,39.78,190,56.34Z"/></g></g></svg>