<svg xmlns="http://www.w3.org/2000/svg" viewBox="0 0 158 158"><defs><style>.cls-1{fill:#ccc;}</style></defs><title>lactovit-forte-security-2</title><g id="Layer_2" data-name="Layer 2"><g id="Layer_1-2" data-name="Layer 1"><path class="cls-1" d="M79,158a79,79,0,1,1,79-79A79.09,79.09,0,0,1,79,158ZM79,8a71,71,0,1,0,71,71A71.08,71.08,0,0,0,79,8Z"/><path class="cls-1" d="M21.66,100.27A9.18,9.18,0,0,1,14.1,85.9L30.62,61.73A9.19,9.19,0,1,1,45.79,72.1L29.26,96.28A9.19,9.19,0,0,1,21.66,100.27ZM38.23,61.73A5.2,5.2,0,0,0,33.93,64L17.4,88.16a5.21,5.21,0,0,0,1.36,7.21A5.35,5.35,0,0,0,26,94L42.49,69.84a5.18,5.18,0,0,0-4.27-8.11Z"/><path class="cls-1" d="M123.51,124.62a9.19,9.19,0,0,1-9.17-8.7l-1.57-29.24a9.19,9.19,0,0,1,18.35-1l1.57,29.24a9.21,9.21,0,0,1-8.68,9.67ZM121.94,81h-.28a5.19,5.19,0,0,0-4.9,5.46l1.57,29.24a5.19,5.19,0,0,0,5.18,4.91h.28a5.21,5.21,0,0,0,4.9-5.46l-1.57-29.24A5.19,5.19,0,0,0,121.94,81Z"/><path class="cls-1" d="M79,45.6a9.15,9.15,0,0,1-2.86-.46L48.29,36a9.19,9.19,0,0,1,2.89-17.92,9.11,9.11,0,0,1,2.86.46l27.81,9.16A9.19,9.19,0,0,1,79,45.6ZM51.18,22.07a5.19,5.19,0,0,0-1.64,10.11l27.81,9.16A5.27,5.27,0,0,0,83.91,38a5.21,5.21,0,0,0-3.3-6.55L52.79,22.33A5.12,5.12,0,0,0,51.18,22.07Z"/><path class="cls-1" d="M98.45,72.5a9.18,9.18,0,0,1-5.31-16.69l23.93-16.88a9.11,9.11,0,0,1,5.28-1.67,9.18,9.18,0,0,1,5.31,16.69L103.73,70.82A9.12,9.12,0,0,1,98.45,72.5Zm23.9-31.24a5.12,5.12,0,0,0-3,.94L95.44,59.07a5.19,5.19,0,0,0-1.25,7.23,5.34,5.34,0,0,0,7.23,1.25l23.93-16.88a5.18,5.18,0,0,0-3-9.42Z"/><path class="cls-1" d="M83.66,111A9.11,9.11,0,0,1,77,108.23L56.74,87.11A9.19,9.19,0,0,1,70,74.37L90.28,95.49A9.18,9.18,0,0,1,83.66,111ZM63.36,75.56a5.19,5.19,0,0,0-3.74,8.77l20.29,21.12a5.33,5.33,0,0,0,7.34.15,5.21,5.21,0,0,0,.15-7.34L67.11,77.15A5.14,5.14,0,0,0,63.36,75.56Z"/><path class="cls-1" d="M89.08,143.73H59.8a9.19,9.19,0,1,1,0-18.38H89.08a9.19,9.19,0,1,1,0,18.38ZM59.8,129.35a5.19,5.19,0,1,0,0,10.38H89.08a5.19,5.19,0,1,0,0-10.38Z"/></g></g></svg>