<svg xmlns="http://www.w3.org/2000/svg" viewBox="0 0 118.11 150.56"><defs><style>.cls-1{fill:#ccc;}</style></defs><title>lactovit-forte-security-1</title><g id="Layer_2" data-name="Layer 2"><g id="Layer_1-2" data-name="Layer 1"><path class="cls-1" d="M117.38,138,80.06,55.28a102,102,0,0,1-4-28.6V18.52h7.56a5.76,5.76,0,0,0,5.76-5.76v-7A5.76,5.76,0,0,0,83.62,0h-49a5.76,5.76,0,0,0-5.76,5.76h0v7a5.76,5.76,0,0,0,5.76,5.76h7.56v8.32a102.36,102.36,0,0,1-4,28.52L.7,138a9,9,0,0,0,8.36,12.52h100a9,9,0,0,0,8.32-12.6Zm-5.12,5.68a4,4,0,0,1-3.2,1.72H9.06a4,4,0,0,1-3.6-5.24l37.4-82.68a106.08,106.08,0,0,0,4.48-30.56V18.32H57.62a2.6,2.6,0,0,0,0-5.2H34.14a.56.56,0,0,1,0-.36v-7a.56.56,0,0,1,.56-.56H83.54a.56.56,0,0,1,.56.56v7a.56.56,0,0,1-.56.56H70.78V26.84A105.88,105.88,0,0,0,75.3,57.48L112.62,140A4,4,0,0,1,112.26,143.64Z"/><path class="cls-1" d="M81.9,83.68H36.22L15.5,129.44a7.36,7.36,0,0,0,6.8,10.16H95.82a7.36,7.36,0,0,0,6.8-10.16Zm15.68,49.76a2.12,2.12,0,0,1-1.8,1H22.3a2.16,2.16,0,0,1-2-2.88L39.58,88.88h39l19.24,42.4a2.12,2.12,0,0,1-.24,2.16Z"/><path class="cls-1" d="M61.62,51.88a7,7,0,1,0-7-7,7,7,0,0,0,7,7Zm0-8.84a1.84,1.84,0,1,1-1.84,1.84h0A1.84,1.84,0,0,1,61.62,43Z"/><path class="cls-1" d="M54.7,77.88a7,7,0,1,0-7-7,7,7,0,0,0,7,7Zm0-8.84a1.84,1.84,0,1,1-1.84,1.84h0A1.84,1.84,0,0,1,54.7,69Z"/></g></g></svg>