<svg xmlns="http://www.w3.org/2000/svg" viewBox="0 0 90.19 92.68"><defs><style>.cls-1{fill:#e94f25;}</style></defs><title>Asset 1</title><g id="Layer_2" data-name="Layer 2"><g id="Layer_1-2" data-name="Layer 1"><path class="cls-1" d="M74.19,55.45a10.82,10.82,0,0,1-1.59-.12A10.37,10.37,0,0,1,63.94,43.5c.29-1.89-2-2.78-2.15-2.82a10.36,10.36,0,0,1,7.15-19.46c6.36,2.34,17.77,10.66,15.49,25.45A10.31,10.31,0,0,1,74.19,55.45ZM65.38,23.52a7.43,7.43,0,0,0-2.58,14.4c1.62.58,4.57,2.6,4,6a7.43,7.43,0,1,0,14.68,2.27c2-12.9-8-20.19-13.6-22.24A7.33,7.33,0,0,0,65.38,23.52Z"/><path class="cls-1" d="M65.82,37.05a6,6,0,1,1,6-6A6,6,0,0,1,65.82,37.05Zm0-9a3,3,0,1,0,3,3A3,3,0,0,0,65.82,28.09Z"/><path class="cls-1" d="M46.21,87.76a16.06,16.06,0,0,1-7-1.59C5.88,70.3,4.81,35.13,8.9,18.76A16.26,16.26,0,0,1,24.68,6.41a16.55,16.55,0,0,1,4,.49A16.35,16.35,0,0,1,40.54,26.55c-.52,2.21-4.56,22,12.68,30.2a16.27,16.27,0,0,1,7.7,21.71A16.36,16.36,0,0,1,46.21,87.76ZM24.68,9.35A13.33,13.33,0,0,0,11.75,19.47c-3.89,15.57-2.89,49,28.73,64a13.15,13.15,0,0,0,5.73,1.31A13.41,13.41,0,0,0,58.27,77.2,13.35,13.35,0,0,0,52,59.4c-19.3-9.19-14.85-31.07-14.28-33.53a13.36,13.36,0,0,0-13-16.52Z"/><path class="cls-1" d="M24.31,30.54a7.25,7.25,0,1,1,7.25-7.25A7.26,7.26,0,0,1,24.31,30.54Zm0-11.56a4.31,4.31,0,1,0,4.31,4.31A4.32,4.32,0,0,0,24.31,19Z"/><path class="cls-1" d="M46,79.49a7.25,7.25,0,1,1,7.25-7.25A7.26,7.26,0,0,1,46,79.49Zm0-11.56a4.31,4.31,0,1,0,4.31,4.31A4.32,4.32,0,0,0,46,67.92Z"/><path class="cls-1" d="M30.09,68.19a4.36,4.36,0,1,1,4.36-4.36A4.36,4.36,0,0,1,30.09,68.19Zm0-5.78a1.42,1.42,0,1,0,1.42,1.42A1.42,1.42,0,0,0,30.09,62.4Z"/><path class="cls-1" d="M32,55a3.8,3.8,0,1,1,3.8-3.8A3.8,3.8,0,0,1,32,55Zm0-4.66a.86.86,0,1,0,.86.86A.86.86,0,0,0,32,50.32Z"/><path class="cls-1" d="M21.22,45.13a6,6,0,1,1,6-6A6,6,0,0,1,21.22,45.13Zm0-9a3,3,0,1,0,3,3A3,3,0,0,0,21.22,36.16Z"/><rect class="cls-1" x="24.53" y="2.7" width="7.82" height="2.94" transform="translate(15.48 29.83) rotate(-71.56)"/><rect class="cls-1" x="11.01" y="3.53" width="2.94" height="8.75" transform="translate(-2.24 9.12) rotate(-37.09)"/><rect class="cls-1" x="3.91" y="18.21" width="2.94" height="8.39" transform="translate(-17.66 22.89) rotate(-77.73)"/><rect class="cls-1" x="0.21" y="36.56" width="8.56" height="2.94" transform="translate(-7.48 1.65) rotate(-11.48)"/><rect class="cls-1" x="3.07" y="51.52" width="8.45" height="2.94" transform="translate(-21.96 8.21) rotate(-25.31)"/><rect class="cls-1" x="9.67" y="63.88" width="7.24" height="2.94" transform="translate(-19.26 7.15) rotate(-17.72)"/><polygon class="cls-1" points="20.9 82.03 18.85 79.93 24.68 74.27 26.73 76.38 20.9 82.03"/><rect class="cls-1" x="29.54" y="85.14" width="8.69" height="2.94" transform="translate(-58.84 79.38) rotate(-64.18)"/><polygon class="cls-1" points="50.36 92.68 48.33 86.29 51.13 85.39 53.16 91.79 50.36 92.68"/><rect class="cls-1" x="61.1" y="76.74" width="2.94" height="8.08" transform="translate(-38.22 97.56) rotate(-61.69)"/><rect class="cls-1" x="59.96" y="63.67" width="8.57" height="2.94" transform="translate(-16.89 22.85) rotate(-17.87)"/><rect class="cls-1" x="49.46" y="52.68" width="8.15" height="2.93" transform="translate(-22.59 55.94) rotate(-46.67)"/><polygon class="cls-1" points="40.77 43.42 39.63 40.71 46.47 37.82 47.61 40.53 40.77 43.42"/><rect class="cls-1" x="41.61" y="22.73" width="2.93" height="8" transform="translate(10.87 65.88) rotate(-82.37)"/><rect class="cls-1" x="35.8" y="9.76" width="10.04" height="2.93" transform="translate(2.76 29.77) rotate(-41.35)"/><rect class="cls-1" x="53.27" y="39.4" width="9.29" height="2.94" transform="translate(-10.4 21.97) rotate(-19.74)"/><rect class="cls-1" x="63.39" y="52.38" width="5.8" height="2.94" transform="translate(-18.61 63.1) rotate(-45.31)"/><rect class="cls-1" x="62.78" y="15.06" width="2.94" height="7.1"/><rect class="cls-1" x="76.26" y="24.99" width="5.46" height="2.94" transform="translate(-1.85 46.55) rotate(-32.47)"/><rect class="cls-1" x="83.09" y="35.53" width="6.81" height="2.94" transform="translate(-7.13 27.76) rotate(-17.52)"/><rect class="cls-1" x="81.79" y="50.35" width="2.94" height="8.73" transform="translate(-13.15 79.84) rotate(-47.92)"/></g></g></svg>