<svg xmlns="http://www.w3.org/2000/svg" viewBox="0 0 340 512"><defs><style>.cls-1{fill:#e94f25;}</style></defs><title>Asset2</title><g id="Layer_2" data-name="Layer 2"><g id="Layer_1-2" data-name="Layer 1"><path class="cls-1" d="M177.1,3.7a8.66,8.66,0,0,0-14.2,0C156.2,12.3,0,217.1,0,320,0,425.9,76.3,512,170,512s170-86.1,170-192C340,217.1,183.8,12.3,177.1,3.7Zm-7.1,487C86.7,490.7,18.9,414.1,18.9,320,18.9,236.7,139.2,68.9,170,27.2c13.3,17.9,43,59.1,72.5,106.7,51.4,83,78.6,147.4,78.6,186.1C321.1,414.1,253.3,490.7,170,490.7Z"/><path class="cls-1" d="M170,437.3c-57.3,0-103.9-52.6-103.9-117.3,0-5.9-4.2-10.7-9.4-10.7s-9.4,4.8-9.4,10.7c0,76.5,55.1,138.7,122.8,138.7,5.2,0,9.4-4.8,9.4-10.7S175.2,437.3,170,437.3Z"/></g></g></svg>