<svg xmlns="http://www.w3.org/2000/svg" viewBox="0 0 200 193.33"><defs><style>.cls-1{fill:#ccc;}</style></defs><title>lactovit-forte-security-5</title><g id="Layer_2" data-name="Layer 2"><g id="Layer_1-2" data-name="Layer 1"><path class="cls-1" d="M100,13.33c-45.07,0-80,15.23-80,28.33S54.93,70,100,70s80-15.23,80-28.33S145.07,13.33,100,13.33Zm0,50c-47.33,0-73.33-16.27-73.33-21.67S52.67,20,100,20s73.33,16.27,73.33,21.67S147.33,63.33,100,63.33Z"/><path class="cls-1" d="M190.77,103.33h-4.1V86.67H190A3.33,3.33,0,1,0,190,80h-3.33V57.4c4.3-4.83,6.67-10.13,6.67-15.73C193.33,18.3,152.33,0,100,0S6.67,18.3,6.67,41.67c0,9,6.13,17.3,16.67,24v7.63H20A3.33,3.33,0,0,0,20,80h3.33V95.9L17.5,107.7,2.8,110.07a3.32,3.32,0,0,0-1.63,5.8l10.7,9.3L9.53,138.73A3.28,3.28,0,0,0,10.87,142a3.4,3.4,0,0,0,3.5.27l12.3-6.47L39,142.27a3.33,3.33,0,0,0,4.87-3.5L41.5,125.2l10.7-9.3a3.41,3.41,0,0,0,1-3.43,3.35,3.35,0,0,0-2.67-2.37l-14.7-2.37L30,95.9V80h3.33a3.33,3.33,0,0,0,0-6.67H30V69.5c10.63,5.33,24.33,9.4,40,11.7v42.37H66.67a3.33,3.33,0,1,0,0,6.67H70v16.7a23.33,23.33,0,1,0,6.67,0v-16.7H80a3.33,3.33,0,1,0,0-6.67H76.67V82.07A209.72,209.72,0,0,0,100,83.33a208.65,208.65,0,0,0,30-2.13V96.67h-3.33a3.33,3.33,0,0,0,0,6.67H130V119.9l-5.8,11.77-13.77,2a3.33,3.33,0,0,0-1.87,5.67l10,9.7-2.37,13.7a3.35,3.35,0,0,0,4.83,3.53l12.33-6.47,12.3,6.47a3.33,3.33,0,0,0,4.87-3.5l-2.37-13.7,10-9.7a3.33,3.33,0,0,0-1.87-5.67l-13.77-2-5.8-11.8V103.33H140a3.33,3.33,0,1,0,0-6.67h-3.33V80.1c18.2-3.37,33.3-9.23,43.33-16.67V80h-3.33a3.33,3.33,0,0,0,0,6.67H180v16.67h-4.1a9.23,9.23,0,0,0-9.23,9.23v14.87a9.23,9.23,0,0,0,9.23,9.23h14.87a9.23,9.23,0,0,0,9.23-9.23V112.57A9.23,9.23,0,0,0,190.77,103.33ZM33.07,114l9.37,1.5-6.73,5.87a3.35,3.35,0,0,0-1.1,3.07l1.5,8.77-7.87-4.13a3.28,3.28,0,0,0-1.57-.37,3.32,3.32,0,0,0-1.57.4l-7.87,4.13,1.5-8.77a3.35,3.35,0,0,0-1.1-3.07l-6.73-5.87,9.37-1.5a3.3,3.3,0,0,0,2.47-1.8l3.93-8,3.93,8A3.34,3.34,0,0,0,33.07,114ZM90,170a16.67,16.67,0,1,1-16.67-16.67A16.67,16.67,0,0,1,90,170Zm49.77-32,8.8,1.27-6.37,6.2a3.33,3.33,0,0,0-1,2.93l1.5,8.77-7.87-4.13a3.27,3.27,0,0,0-3.13,0l-7.87,4.13,1.5-8.77a3.21,3.21,0,0,0-1-2.93L118,139.3l8.8-1.27a3.26,3.26,0,0,0,2.5-1.83l4-8,3.93,8A3.37,3.37,0,0,0,139.77,138ZM100,76.67c-47,0-86.67-16-86.67-35S53,6.67,100,6.67s86.67,16,86.67,35S147,76.67,100,76.67Zm93.33,50.77a2.57,2.57,0,0,1-2.57,2.57H175.9a2.55,2.55,0,0,1-2.57-2.57V112.57A2.57,2.57,0,0,1,175.9,110h14.87a2.57,2.57,0,0,1,2.57,2.57Z"/></g></g></svg>