<svg xmlns="http://www.w3.org/2000/svg" viewBox="0 0 149.39 107.1"><defs><style>.cls-1{fill:#e94f25;}</style></defs><title>Asset 1</title><g id="Layer_2" data-name="Layer 2"><g id="Layer_1-2" data-name="Layer 1"><path class="cls-1" d="M15.17.1h0A10.23,10.23,0,0,0,7,4.1c-8.8,12-8.6,26.9-3.1,36.3a2.41,2.41,0,0,0,3.3.8,2.65,2.65,0,0,0,.6-.5c.1-.2.2-.3.6-.3a8.57,8.57,0,0,1,1.8.4,9.64,9.64,0,0,1,1.8,1,1.73,1.73,0,0,1,.3.4,2.29,2.29,0,0,0,2.4,2.3A2.38,2.38,0,0,0,17,42.3a4.11,4.11,0,0,1,1.5-2.7c.7-.4,1.7-.6,4.2.3a2.39,2.39,0,0,0,3.1-1.3,2.19,2.19,0,0,0-.3-2.2,5.6,5.6,0,0,1-.9-3.7,1.46,1.46,0,0,1,.6-.9,3.89,3.89,0,0,1,2.1-.4,2.35,2.35,0,1,0,.3-4.7h-.3a22.44,22.44,0,0,1-6-1.6,8.59,8.59,0,0,1-2.7-2.7c-.8-.9-.8-2.7.3-4.5a5.21,5.21,0,0,1,4.8-2.7,26.31,26.31,0,0,1,4.9,2.4,73.93,73.93,0,0,0,7.1,4c3.8,1.8,6.8,3.5,10.1,4.5,1.4.4,3.8,1.1,5.8,1.8,1,.3,2,.7,2.7.9a9.4,9.4,0,0,1,.9.3h.4a1.45,1.45,0,0,0,.6.1h.1c.7,0,1.1.1,1.3.1-3.1,8.7-1.3,14.9,0,22.5,1.4,8.1,1.7,14.2,3.7,20.8a40.49,40.49,0,0,0,3.9,9.4,2.44,2.44,0,0,0,2.1,1.2h.1c.4,6,.8,12.4,1,16.7a7.36,7.36,0,0,0,1.8,4.8,7.43,7.43,0,0,0,5.5,2.4h4.9a7.2,7.2,0,0,0,4.6-1.5,8,8,0,0,0,2.7-5.7c.3-4.3.7-10.7,1-16.7h.4a2.38,2.38,0,0,0,2.2-1.6s1.9-5.3,3-8.5c2.3-6.7,1.8-12.6,3.6-20.7,1.7-7.6,3.1-14.3,1-22.6.2,0,.3-.1.4-.1h.4c.1,0,.2-.1.3-.1,10.8-3.5,14.1-4.3,20.7-7.1a42.78,42.78,0,0,0,7.4-4.3,8.64,8.64,0,0,1,4.9-1.8c1.3,0,1.3.2,1.5.7a2.59,2.59,0,0,1-.6,2.4c.3-.3.1.1-.3.3s-1,.6-1.6.9c-1.2.7-2.8,1.4-4.3,2.2a33.26,33.26,0,0,0-3.9,2.4,3.61,3.61,0,0,0-1.6,1.8,3.36,3.36,0,0,0,.1,2.4,2.28,2.28,0,0,0,1.5,1.3h.4a.37.37,0,0,0,.3.1,11.07,11.07,0,0,1,1.3.7,1.15,1.15,0,0,1,.1,1,4.7,4.7,0,0,1-2.1,2.7,2.24,2.24,0,0,0-.9,3.2,2.27,2.27,0,0,0,2,1.2,7.15,7.15,0,0,1,3.7.7c.6.5,1.2,1.3,1.2,4a2.43,2.43,0,0,0,2.3,2.5,2.22,2.22,0,0,0,2-1,6.27,6.27,0,0,1,2.4-2.2,1.3,1.3,0,0,1,1.2-.1c.9.1,2.1,1.1,4.5,1.5a2.37,2.37,0,0,0,2.7-2,2,2,0,0,0-.3-1.5,14.69,14.69,0,0,1-1.3-2.5,4.91,4.91,0,0,1-.4-1.8c0-.1-.1-.1-.1,0,4.7-6.2,7-15.7,6.3-23.7-.4-4.1-1.6-7.8-4.3-10.4s-6.8-3.6-11.5-2.4c-.1,0-.2.1-.3.1-12.5,5.2-22.6,12.7-35,14V15c-2.6.3-5-.7-8.2-2.1a29,29,0,0,0-11.8-3.1,27.34,27.34,0,0,0-12.1,2.8c-3.2,1.4-5.6,2.6-8.3,2.5s-6.9-1.3-11.5-3.3S36.87,7.4,32,5.1,22.37.7,18,0C17.37.1,16.27,0,15.17.1Zm.2,4.7h0a10.57,10.57,0,0,1,2.4.2c3.5.6,8.1,2.4,12.8,4.6s9.7,4.8,14.4,6.8,9.1,3.6,13.2,3.6,7.2-1.6,10.3-3a22.36,22.36,0,0,1,10-2.4c3.8.1,6.8,1.3,10,2.7s6.6,2.9,10.7,2.4c13.8-1.4,24.2-9.4,35.9-14.3,3.5-.9,5.5-.3,7,1.2s2.5,4.1,2.8,7.4c.7,6.7-1.7,15.6-5.4,20.4l-.1.1.1.1a4.5,4.5,0,0,0-.7,3.4,4.87,4.87,0,0,0,.3.7,7.26,7.26,0,0,0-4,.7c-.4.2-.8.8-1.2,1-.5-1.3-.5-3.1-1.5-3.9s-2-.5-3-.7c.6-1,1.8-1.5,1.9-2.7a6.18,6.18,0,0,0-.9-4.5c-.3-.4-1.1-.5-1.5-.9.6-.3.9-.7,1.6-1,1.4-.8,3-1.5,4.3-2.2.7-.4,1.3-.7,1.8-1a4.89,4.89,0,0,0,1.5-1.2,7,7,0,0,0,1.6-6.8,6.31,6.31,0,0,0-6.3-4.2,13.24,13.24,0,0,0-7.3,2.5,35.81,35.81,0,0,1-6.7,4c-6.3,2.7-9.5,3.4-20.1,6.8h-.6v.1h-.3a6.57,6.57,0,0,0-1.3.3,31.82,31.82,0,0,0-5.8.9,10.7,10.7,0,0,0-4.5,2.5,8.49,8.49,0,0,0-2.4,5.4,99.48,99.48,0,0,1-2.7,14.9c-.4,1.8-2,4-2.1,7.1-.1,2.6,0,5.5,0,6.4h-3.4c0-.9.1-3.8,0-6.4-.1-3.1-1.5-5.4-1.9-7.1a99.48,99.48,0,0,1-2.7-14.9,9.29,9.29,0,0,0-2.7-5.7,12.38,12.38,0,0,0-4.8-2.8,18.92,18.92,0,0,0-7.6-1.2h-.4c-.2,0-.4-.2-.6-.3-.7-.2-1.5-.4-2.5-.7-2-.7-4.4-1.5-6-1.9a68.31,68.31,0,0,1-9.5-4.2c-1.7-.8-4.1-2.3-6.5-3.7s-4.5-2.9-7-3.1a9.94,9.94,0,0,0-9.4,4.9c-1.8,3-2.3,7.2.1,10.1a14.33,14.33,0,0,0,4,3.7,14.12,14.12,0,0,0,2.2.6,7.07,7.07,0,0,0-1.2,1.8c-.4,1.5.5,2.7.9,4-1.7-.1-3.7-.6-4.9.1-.9.6-1,1.5-1.5,2.2a13.25,13.25,0,0,0-2.5-1.6,7.36,7.36,0,0,0-3.9-.7c-.2,0-.4.3-.6.3a29.37,29.37,0,0,1,3.4-29A6.65,6.65,0,0,1,15.37,4.8Zm47,25.2c.2,0,.3.1.4.1a7.14,7.14,0,0,1,2.8,1.8,4.09,4.09,0,0,1,1.3,2.7,128.56,128.56,0,0,0,2.8,15.5c.6,2.8,1.7,4.7,1.8,6.3.1,2.6,0,7,0,7v.3a2.2,2.2,0,0,0-.4,1.3V78.5h-2.2c-.3-.5-1.2-1.8-2.8-7.1-1.8-6-2.1-11.9-3.6-20.2C61.07,42.7,59.07,38.2,62.37,30Zm32.6.6c2.1,7.4.4,12.8-1.3,20.8-1.9,8.7-1.5,14.4-3.4,20.1-.9,2.6-1.8,5.6-2.2,7h-2.5V65a2.6,2.6,0,0,0-.9-1.6v-.1c0-.2-.1-4.3,0-6.8.1-1.5,1.3-3.5,1.9-6.3a108.94,108.94,0,0,0,2.7-15.5,3.65,3.65,0,0,1,1-2.5,6.47,6.47,0,0,1,2.5-1.2A7.19,7.19,0,0,1,95,30.6ZM75.87,67.3h4.8V80.8a2.43,2.43,0,0,0,2.4,2.4h1.3c-.4,5.9-.8,12.1-1,16.4-.1,1.5-.4,2-.7,2.2a2.82,2.82,0,0,1-1.8.4h-5a2.43,2.43,0,0,1-1.9-.7,3.85,3.85,0,0,1-.6-1.9c-.3-4.2-.7-10.5-1-16.4h1.2A2.43,2.43,0,0,0,76,80.8l-.1-13.5Z"/></g></g></svg>