<svg xmlns="http://www.w3.org/2000/svg" viewBox="0 0 56 48.2"><defs><style>.cls-1{fill:#e94f25;}</style></defs><title>Asset 1</title><g id="Layer_2" data-name="Layer 2"><g id="Capa_1" data-name="Capa 1"><circle class="cls-1" cx="43" cy="37" r="1"/><circle class="cls-1" cx="48" cy="39" r="1"/><circle class="cls-1" cx="41" cy="42" r="1"/><circle class="cls-1" cx="38" cy="36" r="1"/><circle class="cls-1" cx="37" cy="46" r="1"/><circle class="cls-1" cx="18" cy="35" r="1"/><circle class="cls-1" cx="15" cy="43" r="1"/><circle class="cls-1" cx="14" cy="38" r="1"/><circle class="cls-1" cx="8" cy="38" r="1"/><circle class="cls-1" cx="5" cy="34" r="1"/><path class="cls-1" d="M24.3,38.6a4.06,4.06,0,0,0,.4,3.7,3.93,3.93,0,0,0,6.6,0,4.06,4.06,0,0,0,.4-3.7L29,31.8V1a1,1,0,0,0-2,0V31.8Zm5.4,2.6a2.06,2.06,0,0,1-3.4,0,2.12,2.12,0,0,1-.2-1.9L28,34.7l1.9,4.6A2.49,2.49,0,0,1,29.7,41.2Z"/><path class="cls-1" d="M55.1,30h0"/><path class="cls-1" d="M.2,26h0"/><path class="cls-1" d="M.7,28.9h0a5.07,5.07,0,0,1,7.2,0l.5.5a3,3,0,0,0,4.3,0l.5-.5a5.07,5.07,0,0,1,7.2,0l.5.5a2.78,2.78,0,0,0,2.6.8l.6-1.5v-.3a2.48,2.48,0,0,0-2.5-2.5H.2A11.08,11.08,0,0,1,0,24H21.5A4.48,4.48,0,0,1,26,28.5v.7l-3.6,8.6a6.18,6.18,0,0,0,.6,5.6A5.86,5.86,0,0,0,28,46a6.25,6.25,0,0,0,5-2.6,6.14,6.14,0,0,0,.6-5.6L30,29.2v-.7A4.48,4.48,0,0,1,34.5,24H56c0,.7-.1,1.3-.1,2H34.5A2.48,2.48,0,0,0,32,28.5h0l.3-.1,1.1,1.1a3,3,0,0,0,4.3,0,5.07,5.07,0,0,1,7.2,0,3,3,0,0,0,4.3,0l.5-.5a5,5,0,0,1,5.9-.9c-.1.7-.3,1.4-.4,2a3.05,3.05,0,0,0-4,.3l-.5.5a5.07,5.07,0,0,1-7.2,0,3,3,0,0,0-4.3,0,5.06,5.06,0,0,1-5.8,1l2.1,5.3h0a8,8,0,1,1-14.8,0l1.9-4.8A5.21,5.21,0,0,1,19.5,31l-.5-.5a3,3,0,0,0-4.3,0l-.5.5a5.33,5.33,0,0,1-3.6,1.5A4.91,4.91,0,0,1,7,31l-.5-.5a3,3,0,0,0-4.3,0l-.5.5c-.2,0-.4,0-.5.2"/></g></g></svg>