<svg xmlns="http://www.w3.org/2000/svg" width="887.344" height="177.489" viewBox="0 0 887.344 177.489"><path fill="#EB1D25" fill-rule="evenodd" d="M129.973 50.29V.03H50.256v50.26H0v79.89h50.256v47.31h79.717v-47.31h47.484V50.29h-47.484zm32.06 65.506h-46.27v46.27H65.505v-46.27H15.423V65.54h50.083V15.457h50.256V65.54h46.27v50.256z" clip-rule="evenodd"/><path fill="#008ECF" d="M227.843 0h-20.85v103.554h65.12l-.024-17.75h-44.37L227.84 0zm76.782.026h-23.663V103.55h23.663V.026zm70.987 103.524h26.62L362.29 45.276 401.693 0l-26.08.026-30.32 33.494-11.09 13.83V.027H313.5V103.55h20.704V73.97l12.917-12.95 28.5 42.53z"/><path fill="#008ECF" d="M473.22 103.55h23.663L456.66 0h-20.213l-40.13 103.55h23.663l8.874-23.663h35.494l8.873 23.663zM446.6 26.646l14.79 38.452h-29.578l14.79-38.452zm118.313 76.904h26.62l-1.81-2.64-23.53-41.64c6.524-2.75 11.393-6.447 14.604-11.09 3.213-4.64 4.818-10.438 4.818-17.39 0-9.798-3.486-17.377-10.457-22.744C568.186 2.683 558.278 0 545.428 0l-39.67.026V103.55h20.704V65.098h17.746l20.705 38.452zm-38.45-85.777h17.745c6.025 0 11.716.608 14.63 3.36 2.912 2.754 3.118 6.624 3.118 11.43 0 4.71-.294 8.316-3.38 11-3.09 2.682-7.445 4.02-13.072 4.02l-19.042-.232V17.78z"/><path fill="#52504E" d="M621.112.026h-20.705V103.55h20.705V.026zm91.693 0H692.1v68.03l-40.857-68-21.257-.03V103.55h20.705V35.52l41.41 68.03h20.71V.026zm70.988 44.367h-41.41v-26.62h47.325V.026h-68.03V103.55h20.705V59.182h41.41v-14.79zm103.55 5.19c0-9.875-1.973-18.587-5.92-26.13-3.945-7.547-9.52-13.338-16.726-17.378C857.49 2.037 849.257.02 839.987.02c-9.268 0-17.503 2.018-24.707 6.055-7.206 4.04-12.782 9.83-16.728 17.377-3.947 7.544-5.92 16.278-5.92 26.2v4.985c.05 9.692 2.063 18.264 6.034 25.718 3.972 7.453 9.572 13.186 16.804 17.2 7.23 4.016 15.454 6.024 24.67 6.024 9.32 0 17.58-2.04 24.786-6.1 7.205-4.06 12.742-9.83 16.612-17.31 3.87-7.48 5.805-16.18 5.805-26.1v-4.5zm-23.22 4.846c-.05 10.47-2.14 18.44-6.262 23.91s-10.03 8.2-17.72 8.2c-7.84 0-13.85-2.84-18.02-8.52s-6.26-13.66-6.26-23.95v-4.91c.05-10.48 2.17-18.43 6.34-23.85 4.18-5.43 10.11-8.14 17.8-8.14 7.74 0 13.7 2.74 17.88 8.24 4.18 5.49 6.27 13.52 6.27 24.09v4.91z"/><path fill="#76C043" fill-rule="evenodd" d="M206.917 118.22h680.37v59.27h-680.37v-59.27z" clip-rule="evenodd"/><path fill="#FFF" d="M246.406 135.905h-22.29v26.704h6.846v-20.96h8.575v20.95h6.87v-26.7zm4.17 13.425c0 4.245 1.1 7.602 3.304 10.07 2.202 2.468 5.15 3.702 8.846 3.702 3.695 0 6.64-1.238 8.835-3.714 2.2-2.478 3.3-5.763 3.3-9.86l-.04-1.826c-.25-3.783-1.47-6.778-3.66-8.983-2.18-2.21-5.01-3.31-8.46-3.31-2.43 0-4.57.57-6.41 1.7-1.83 1.13-3.24 2.73-4.22 4.81-.98 2.07-1.47 4.43-1.47 7.08v.32zm8.22-6.13c.914-1.358 2.207-2.037 3.882-2.037 1.69 0 3 .683 3.932 2.05.93 1.368 1.397 3.296 1.397 5.784 0 2.917-.466 5.038-1.397 6.365-.932 1.327-2.226 1.99-3.885 1.99-1.705 0-3.016-.673-3.93-2.017-.918-1.342-1.376-3.28-1.376-5.82 0-2.85.45-4.955 1.37-6.315zm43.344 5.933c0-4.277-.876-7.634-2.63-10.068-1.753-2.437-4.208-3.654-7.366-3.654-2.67 0-4.832 1.04-6.49 3.11l-.237-2.61h-6.348v36.97h6.84v-12.59c1.59 1.88 3.69 2.82 6.27 2.82 3.04 0 5.46-1.24 7.26-3.71 1.79-2.48 2.69-5.77 2.69-9.88v-.37zm-11.75 8.218c-2.146 0-3.64-.88-4.476-2.64v-10.97c.805-1.72 2.282-2.57 4.43-2.57 1.61 0 2.837.68 3.682 2.03.846 1.36 1.268 3.28 1.268 5.77 0 5.6-1.634 8.39-4.903 8.39zm36.265-21.44H303.49v5.75h8.077v20.96h6.87v-20.96h8.218v-5.75zm24.823 26.71v-.42c-.663-1.3-1.003-3.22-1.02-5.75v-11.58c0-2.99-.927-5.32-2.782-6.97-1.855-1.65-4.362-2.48-7.52-2.48-2.085 0-3.965.38-5.638 1.12-1.675.75-2.97 1.79-3.885 3.1-.916 1.32-1.374 2.75-1.374 4.3h6.84c0-1 .33-1.79.98-2.37.65-.57 1.56-.86 2.71-.86 1.31 0 2.27.37 2.87 1.11.6.74.91 1.73.91 2.96v1.53h-3.15c-3.81.02-6.72.79-8.73 2.3-2.02 1.52-3.02 3.69-3.02 6.52 0 2.31.82 4.21 2.47 5.73 1.65 1.52 3.73 2.27 6.24 2.27 2.65 0 4.81-.96 6.47-2.89.14.96.37 1.75.68 2.4h6.92zm-15.04-5.82c-.6-.57-.9-1.31-.9-2.19l.023-.42c.23-2.47 2.05-3.7 5.48-3.7h2.56v4.59c-.41.79-1.04 1.42-1.89 1.89s-1.78.7-2.79.7c-1.04 0-1.86-.28-2.46-.86zm22.264-20.88l-.474 11.36c-.142 3.42-.497 5.83-1.066 7.25-.568 1.42-1.47 2.18-2.7 2.28l-.853.08.07 5.76H356c2.75-.05 4.816-1.08 6.207-3.09 1.39-2.01 2.218-5.21 2.487-9.61l.427-8.25h6.04v20.96h6.85v-26.71H358.7zm35.6 13.43c0 4.25 1.1 7.61 3.304 10.07 2.203 2.47 5.152 3.71 8.847 3.71 3.695 0 6.64-1.24 8.835-3.71 2.194-2.48 3.292-5.76 3.292-9.86l-.047-1.82c-.253-3.78-1.473-6.78-3.66-8.98-2.187-2.2-5.01-3.31-8.466-3.31-2.433 0-4.57.57-6.408 1.71-1.84 1.14-3.25 2.74-4.23 4.82-.98 2.08-1.47 4.44-1.47 7.08v.32zm8.22-6.13c.915-1.35 2.21-2.03 3.885-2.03 1.688 0 3 .68 3.93 2.05.933 1.37 1.398 3.3 1.398 5.78 0 2.92-.465 5.04-1.397 6.37s-2.227 1.99-3.885 1.99c-1.705 0-3.016-.67-3.932-2.01-.91-1.34-1.37-3.28-1.37-5.82 0-2.85.46-4.95 1.38-6.31zm42.61 3.44h-3.955v4.64h3.72c1.294 0 2.265.26 2.913.76.646.5.97 1.34.97 2.51 0 .96-.34 1.73-1.018 2.32-.68.6-1.626.89-2.842.89-1.248 0-2.26-.28-3.032-.84-.773-.56-1.16-1.29-1.16-2.19h-6.846c0 2.57 1.003 4.61 3.008 6.12 2.005 1.52 4.563 2.28 7.675 2.28 3.348 0 6.028-.73 8.04-2.18 2.015-1.45 3.022-3.41 3.022-5.86 0-3.06-1.46-5.12-4.383-6.19 1.248-.59 2.215-1.384 2.902-2.38s1.03-2.085 1.03-3.27c0-2.48-.943-4.4-2.83-5.75-1.888-1.35-4.48-2.02-7.78-2.02-3.002 0-5.465.756-7.392 2.27-1.926 1.51-2.89 3.48-2.89 5.9h6.846c0-.89.352-1.575 1.055-2.06.702-.49 1.613-.73 2.735-.73 1.09 0 1.93.26 2.522.775s.888 1.25.888 2.19c0 1.843-1.065 2.8-3.197 2.863zm12.814 10.22v13.78h6.987v-8.02h15.184v8.02h6.846v-13.77h-3.695v-20.96h-18.854l-.19 8.74c-.063 3.08-.37 5.45-.924 7.13s-1.603 3.38-3.15 5.09h-2.204zm13.123-11.84l.04-3.2h5.33v15.06h-8.22c1.75-2.99 2.7-6.94 2.84-11.85zm18.28 4.32c0 4.25 1.1 7.6 3.3 10.07 2.2 2.47 5.15 3.7 8.84 3.7s6.64-1.24 8.83-3.71c2.19-2.48 3.29-5.76 3.29-9.86l-.05-1.83c-.26-3.78-1.48-6.78-3.66-8.98-2.19-2.2-5.01-3.31-8.47-3.31-2.43 0-4.57.57-6.41 1.71-1.84 1.13-3.25 2.74-4.23 4.81-.98 2.07-1.47 4.43-1.47 7.08v.32zm8.22-6.13c.91-1.36 2.21-2.03 3.88-2.03 1.69 0 3 .69 3.93 2.05.93 1.37 1.4 3.3 1.4 5.79 0 2.92-.47 5.04-1.4 6.37-.93 1.33-2.23 1.99-3.89 1.99-1.71 0-3.02-.67-3.93-2.02-.92-1.34-1.38-3.28-1.38-5.82 0-2.85.45-4.95 1.37-6.31zm43.34 5.94c0-4.27-.88-7.63-2.63-10.06-1.76-2.44-4.21-3.65-7.37-3.65-2.67 0-4.83 1.04-6.49 3.11l-.24-2.61h-6.35v36.97h6.84v-12.6c1.59 1.88 3.69 2.81 6.27 2.81 3.04 0 5.46-1.24 7.26-3.71 1.79-2.48 2.69-5.77 2.69-9.88v-.37zm-11.75 8.22c-2.15 0-3.64-.88-4.48-2.64v-10.97c.8-1.71 2.28-2.57 4.43-2.57 1.61 0 2.84.68 3.68 2.03.84 1.36 1.27 3.28 1.27 5.77 0 5.6-1.64 8.39-4.91 8.39zm14.92-8.02c0 4.25 1.1 7.6 3.3 10.07 2.2 2.47 5.15 3.7 8.85 3.7 3.69 0 6.64-1.23 8.83-3.71 2.19-2.47 3.29-5.76 3.29-9.86l-.05-1.82c-.25-3.78-1.47-6.78-3.66-8.98-2.19-2.2-5.01-3.31-8.47-3.31-2.44 0-4.57.57-6.41 1.71-1.84 1.14-3.25 2.74-4.23 4.82-.98 2.07-1.47 4.43-1.47 7.08v.32zm8.22-6.13c.91-1.36 2.21-2.03 3.88-2.03 1.69 0 3 .69 3.93 2.05.93 1.37 1.39 3.3 1.39 5.79 0 2.92-.47 5.04-1.4 6.36s-2.23 1.99-3.89 1.99c-1.71 0-3.02-.67-3.93-2.01-.92-1.34-1.38-3.28-1.38-5.82 0-2.85.45-4.95 1.37-6.31zm33.06 19.41c3.41 0 6.01-.65 7.8-1.95 1.79-1.3 2.69-3.19 2.69-5.68 0-1.54-.53-2.85-1.58-3.91s-2.49-1.77-4.33-2.13c1.5-.52 2.64-1.27 3.42-2.25.78-.98 1.17-2.08 1.17-3.32 0-2.4-.94-4.24-2.8-5.53-1.87-1.28-4.54-1.92-8.03-1.92H573v26.71h12.338zm.19-11.08c2.3.04 3.46.94 3.46 2.72 0 1.75-1.21 2.62-3.63 2.62h-5.52v-5.33h5.69zm-5.69-9.87h3.86c1.34 0 2.34.21 2.99.62s.98 1.1.98 2.06c0 1.58-1.2 2.38-3.6 2.41h-4.24v-5.09zm27.19-5.75h-6.87v26.71h11.63c3.44 0 6.16-.86 8.16-2.58 2-1.72 3-3.98 3-6.8 0-1.9-.45-3.58-1.34-5.02-.89-1.44-2.18-2.54-3.85-3.32-1.68-.77-3.62-1.16-5.83-1.16h-4.91v-7.82zm4.85 13.58c1.39 0 2.44.34 3.15 1.01.71.68 1.06 1.59 1.06 2.73 0 1.13-.37 2.01-1.09 2.66-.73.65-1.77.98-3.13.98h-4.86v-7.38h4.85zm32.52 12.35c1.75-.84 3.14-2.02 4.17-3.54l-3.37-3.92c-1.49 1.99-3.55 2.99-6.19 2.99-1.71 0-3.12-.52-4.23-1.58-1.12-1.05-1.78-2.45-2-4.19h16.32v-2.91c0-4.23-1.01-7.5-3.02-9.8-2.02-2.3-4.78-3.46-8.28-3.46-2.34 0-4.42.58-6.24 1.72-1.83 1.15-3.24 2.77-4.23 4.89-1 2.12-1.49 4.51-1.49 7.2v.69c0 4 1.18 7.195 3.54 9.6 2.36 2.4 5.42 3.6 9.18 3.6 2.13 0 4.07-.424 5.82-1.27zm-3.24-19.37c.79.87 1.2 2.1 1.23 3.68v.57h-9.52c.24-1.78.78-3.16 1.62-4.12.84-.96 1.94-1.44 3.3-1.44 1.45 0 2.57.44 3.36 1.3z"/></svg>