<svg xmlns="http://www.w3.org/2000/svg" viewBox="0 0 128.17 40"><title>airbnb</title><path d="M67.55 10.05A2.6 2.6 0 1 1 65 7.45a2.59 2.59 0 0 1 2.55 2.6zM56.82 15.3v.64a5 5 0 0 0-3.88-1.61 7.67 7.67 0 0 0-7.77 7.93 7.66 7.66 0 0 0 7.77 7.93 4.86 4.86 0 0 0 3.88-1.64v.68a.55.55 0 0 0 .56.56h3.24V14.73h-3.24a.58.58 0 0 0-.56.57zm0 9.64a4 4 0 0 1-3.24 1.65 4.2 4.2 0 0 1-4.53-4.33 4.19 4.19 0 0 1 4.53-4.32 4.09 4.09 0 0 1 3.24 1.64zM63 14.73h3.84v15.06H63zm57.41-.4a5 5 0 0 0-3.88 1.61V7.49h-3.84v22.3H116a.57.57 0 0 0 .56-.56v-.68a5 5 0 0 0 3.88 1.64 7.69 7.69 0 0 0 7.77-7.93 7.68 7.68 0 0 0-7.77-7.93zm-.64 12.22a3.9 3.9 0 0 1-3.24-1.65v-5.36a4.34 4.34 0 0 1 3.24-1.64 4.19 4.19 0 0 1 4.53 4.32 4.2 4.2 0 0 1-4.5 4.33zm-9.09-5.69v9h-3.84V21.3c0-2.48-.8-3.48-3-3.48a4.32 4.32 0 0 0-3.13 1.48v10.49h-3.77V14.73h3a.58.58 0 0 1 .56.57v.64a5.5 5.5 0 0 1 4.09-1.61 6.18 6.18 0 0 1 4.2 1.45c1.4 1.12 1.92 2.56 1.92 5.08zm-23.1-6.53a5 5 0 0 0-3.88 1.61V7.49h-3.82v22.3h3.25a.57.57 0 0 0 .56-.56v-.68a5 5 0 0 0 3.88 1.64 7.69 7.69 0 0 0 7.77-7.93 7.64 7.64 0 0 0-7.73-7.93zM87 26.55a3.9 3.9 0 0 1-3.24-1.65v-5.36A4.34 4.34 0 0 1 87 17.9a4.19 4.19 0 0 1 4.52 4.32A4.2 4.2 0 0 1 87 26.55zM76.56 14.33a6.12 6.12 0 0 1 1.76.2v3.57s-3.2-1.08-5.2 1.2v10.53h-3.85v-15.1h3.25a.58.58 0 0 1 .56.57v.64a5.26 5.26 0 0 1 3.48-1.61zm-39.92 14.1c-.2-.48-.4-1-.6-1.44-.32-.72-.64-1.4-.92-2-2.76-6-5.73-12.09-8.85-18.09l-.12-.24c-.32-.6-.64-1.24-1-1.89a11.5 11.5 0 0 0-1.44-2.2A6.48 6.48 0 0 0 18.62 0a6.71 6.71 0 0 0-5.12 2.4 13.79 13.79 0 0 0-1.44 2.2c-.32.65-.65 1.29-1 1.89l-.06.24c-3.08 6-6.08 12.09-8.84 18.09v.08c-.28.65-.61 1.33-.93 2.05q-.3.66-.6 1.44a9 9 0 0 0-.48 4.32 8.51 8.51 0 0 0 5.21 6.65 8.21 8.21 0 0 0 3.17.64 9.1 9.1 0 0 0 1-.08 10.61 10.61 0 0 0 4-1.36 20.1 20.1 0 0 0 5-4.17 20.87 20.87 0 0 0 5 4.17 10.57 10.57 0 0 0 4 1.36 9.1 9.1 0 0 0 1 .08 8.16 8.16 0 0 0 3.25-.64A8.48 8.48 0 0 0 37 32.71a7.56 7.56 0 0 0-.36-4.28zm-18.06 2.08a19.69 19.69 0 0 1-4-7.45 6.45 6.45 0 0 1-.12-2.44 3.88 3.88 0 0 1 .64-1.68 4.25 4.25 0 0 1 3.52-1.76 4.13 4.13 0 0 1 3.53 1.76 3.88 3.88 0 0 1 .64 1.68 6.42 6.42 0 0 1-.12 2.44 20.33 20.33 0 0 1-4.09 7.45zm16 1.88a6 6 0 0 1-3.65 4.69 6.06 6.06 0 0 1-3 .4 7.87 7.87 0 0 1-3-1 19 19 0 0 1-4.57-3.89 22.43 22.43 0 0 0 4.85-8.85 10 10 0 0 0 .2-3.4 6.49 6.49 0 0 0-1.08-2.72 6.77 6.77 0 0 0-5.65-2.85 6.85 6.85 0 0 0-5.64 2.85 6.49 6.49 0 0 0-1.08 2.72 8.31 8.31 0 0 0 .2 3.4A23.17 23.17 0 0 0 17 32.63a18 18 0 0 1-4.56 3.89 8 8 0 0 1-3.05 1 6.4 6.4 0 0 1-3-.4 6 6 0 0 1-3.64-4.69A6.62 6.62 0 0 1 3 29.31c.12-.4.32-.8.52-1.28.28-.64.6-1.32.92-2v-.08c2.76-6 5.72-12.06 8.81-18l.12-.24c.32-.6.64-1.24 1-1.84a8.86 8.86 0 0 1 1.12-1.77 4.21 4.21 0 0 1 6.41 0A8.86 8.86 0 0 1 23 5.89c.32.6.64 1.24 1 1.84l.12.24c3 6 6 12.05 8.77 18 .32.64.6 1.36.92 2 .2.48.4.88.52 1.28a6.76 6.76 0 0 1 .23 3.14z" fill="#ff5a5f" data-name="Layer 2"/></svg>