<svg id="Layer_1" xmlns="http://www.w3.org/2000/svg" xmlns:xlink="http://www.w3.org/1999/xlink" viewBox="0 0 570.3 536.8" enable-background="new 0 0 570.3 536.8"><style>.st0{clip-path:url(#SVGID_2_)}.st1{fill:url(#SVGID_3_);fill-opacity:.3;filter:url(#Adobe_OpacityMaskFilter)}.st2{mask:url(#mask_1_)}.st3{opacity:.5}.st4{fill:#fff}</style><defs><path id="SVGID_1_" d="M0 0h570.3v536.8H0z"/></defs><clipPath id="SVGID_2_"><use xlink:href="#SVGID_1_" overflow="visible"/></clipPath><title>circle-large</title><g id="Layer_2_1_" class="st0"><g id="MOBILE"><g id="ПОЧЕМУ"><defs><filter id="Adobe_OpacityMaskFilter" filterUnits="userSpaceOnUse" x="-529.8" y="0" width="1100" height="1056.4"><feColorMatrix values="1 0 0 0 0 0 1 0 0 0 0 0 1 0 0 0 0 0 1 0"/></filter></defs><mask maskUnits="userSpaceOnUse" x="-529.8" y="0" width="1100" height="1056.4" id="mask_1_"><linearGradient id="SVGID_3_" gradientUnits="userSpaceOnUse" x1="335.75" y1="509.72" x2="335.75" y2="1091.21" gradientTransform="matrix(1 0 0 -1 0 1058)"><stop offset="0" stop-color="#fff"/><stop offset="1" stop-color="#103199"/></linearGradient><path class="st1" d="M.3-33.2h671v581.5H.3z"/></mask><g class="st2"><g class="st3"><path class="st4" d="M20.3 1056.4c-73.1.2-145.6-13.8-213.4-41.2-64.9-26.1-124.2-64.4-174.7-112.7-50.1-47.6-90.3-104.7-118.3-167.9-58.1-131.4-58.1-281.3 0-412.7 28-63.2 68.2-120.3 118.3-167.9 50.5-48.3 109.9-86.6 174.7-112.7 136.9-55 289.8-55 426.7 0 64.9 26.1 124.2 64.4 174.7 112.7 50.1 47.6 90.3 104.7 118.3 167.9 58.1 131.4 58.1 281.3 0 412.7-28 63.2-68.2 120.3-118.3 167.9-50.5 48.3-109.9 86.6-174.7 112.7-67.8 27.4-140.2 41.4-213.3 41.2zm0-956.4c-248.1 0-450 192.1-450 428.2s201.9 428.2 450 428.2 450-192.1 450-428.2S268.4 100 20.3 100z"/></g></g></g></g></g></svg>