<svg id="Layer_1" xmlns="http://www.w3.org/2000/svg" xmlns:xlink="http://www.w3.org/1999/xlink" viewBox="0 0 118 113.9" enable-background="new 0 0 118 113.9"><style>.st0{clip-path:url(#SVGID_2_)}.st1{fill:url(#SVGID_3_);fill-opacity:.3;filter:url(#Adobe_OpacityMaskFilter)}.st2{mask:url(#mask_1_)}.st3{opacity:.5}.st4{fill:#fff}</style><defs><path id="SVGID_1_" d="M0 0h118v113.9H0z"/></defs><clipPath id="SVGID_2_"><use xlink:href="#SVGID_1_" overflow="visible"/></clipPath><g id="Layer_2_1_" class="st0"><g id="MOBILE"><g id="ПОЧЕМУ"><defs><filter id="Adobe_OpacityMaskFilter" filterUnits="userSpaceOnUse" x="0" y="-97.4" width="220" height="211.3"><feColorMatrix values="1 0 0 0 0 0 1 0 0 0 0 0 1 0 0 0 0 0 1 0"/></filter></defs><mask maskUnits="userSpaceOnUse" x="0" y="-97.4" width="220" height="211.3" id="mask_1_"><linearGradient id="SVGID_3_" gradientUnits="userSpaceOnUse" x1="51.5" y1="-99.039" x2="51.5" y2="20.891" gradientTransform="matrix(1 0 0 -1 0 19.162)"><stop offset="0" stop-color="#fff"/><stop offset="1" stop-color="#103199"/></linearGradient><path class="st1" d="M-15-1.7h133v119.9H-15z"/></mask><g class="st2"><g class="st3"><path class="st4" d="M110 113.9C49.3 113.9 0 66.5 0 8.2S49.3-97.4 110-97.4 220-50 220 8.2s-49.4 105.7-110 105.7zm0-191.3C60.4-77.4 20-39 20 8.2s40.4 85.6 90 85.6 90-38.4 90-85.6-40.4-85.6-90-85.6z"/></g></g></g></g></g></svg>