<svg id="Layer_1" xmlns="http://www.w3.org/2000/svg" viewBox="0 0 388 102"><style>.st0,.st1{fill:none;stroke:#d8dfea;stroke-width:2;stroke-linecap:round}.st1{stroke-dasharray:.9948,3.9792}.st2{fill:#fff}.st3{fill:#f1592a}</style><path class="st0" d="M387.6 1.1l-.4.3"/><path class="st1" d="M384 3.8l-126.8 94H4.2"/><path class="st0" d="M2.2 97.8h-.5"/><path class="st2" d="M302.3 25.3h43v50.8h-43z"/><path class="st3" d="M327.7 60.2c-.5 0-.9.4-.9.9s.4.9.9.9.9-.4.9-.9c-.1-.5-.4-.9-.9-.9z"/><path class="st3" d="M339.8 63.7l-.7-2.1c2.1-2.2 3.2-5.1 3.2-8.2 0-5.4-3.6-10.1-8.7-11.6l2.1-3.6c.2-.4.1-.9-.3-1.2l-.7-.4.9-1.5.7.4c.4.2.9.1 1.2-.3l1.7-3c.2-.4.1-.9-.3-1.2l-6-3.4c-.4-.2-.9-.1-1.2.3l-1.7 3c-.2.4-.1.9.3 1.2l.7.4-.9 1.5-.7-.4c-.4-.2-.9-.1-1.2.3l-6.4 11.2-.7-.4c-.4-.2-.9-.1-1.2.3l-1.7 3c-.2.4-.1.9.3 1.2l8.9 5.2c.4.2.9.1 1.2-.3l1.7-3c.2-.4.1-.9-.3-1.2l-.7-.4.6-1.1c3-.2 5.5 2.2 5.5 5.2 0 .9-.2 1.8-.7 2.6-1.1-.6-2.3-.9-3.6-.9-1.8 0-3.5.6-5 1.7h-8.4c-1.6 0-3.1.9-3.8 2.4l-.8 1.5c-.1.3-.1.6 0 .8.2.3.4.4.7.4h9.1l-.6 1.7h-12c-1.4 0-2.6 1.2-2.6 2.6v4.3c0 .5.4.9.9.9h32.7c.5 0 .9-.4.9-.9v-4.3c.1-1.6-1-2.7-2.4-2.7zm-7-34.3l4.5 2.6-.9 1.5c-1-.6-3.3-1.9-4.5-2.6l.9-1.5zm-.3 3.9l1.5.9-.9 1.5-1.5-.9.9-1.5zm-5 18.9l-7.4-4.3.9-1.5c.8.5 5.7 3.3 6.7 3.9l.7.4-.9 1.5zm.3-3.8l-4.5-2.6 6-10.4c1.7 1 2.8 1.6 3.3 1.9-.1-.1-.2-.1-.2-.1s.4.2 1.4.8c-.9 1.5-5.3 9.1-6 10.4zm3.1-2l1.8-3.2c4.6 1.1 7.9 5.3 7.9 10.1 0 2.3-.8 4.5-2.2 6.3-.5-1.1-1.3-2.1-2.2-2.8.6-1.1 1-2.3 1-3.5-.1-3.6-2.8-6.5-6.3-6.9zm.2 10.4c2.7 0 5.1 1.8 6 4.3l.9 2.6h-13.7l.9-2.6c.8-2.6 3.2-4.3 5.9-4.3zm-15.8 3.4c.1-.1.6-1.7 2.5-1.7h6.8c-.4.5-.7 1.1-.9 1.7h-8.4zm25.3 9.5h-30.9v-3.4c0-.5.4-.9.9-.9h29.2c.5 0 .9.4.9.9v3.4z"/><path class="st3" d="M332.8 37.4c.1 0 .1.1.1.1 0-.1-.1-.1-.1-.1zm0 0zm-.1-.1zm0 0s0 .1 0 0c0 .1 0 0 0 0zm.2.2zm.4.2zm-.1 0s.1 0 0 0c.1 0 0 0 0 0zm.1 0zm-.2-.1zm0 0s.1 0 .1.1c0-.1 0-.1-.1-.1zm0 0zm-.2-.1c.1 0 .1.1.2.1-.1-.1-.1-.1-.2-.1zm1.7 22.7h-3.4c-.5 0-.9.4-.9.9s.4.9.9.9h3.4c.5 0 .9-.4.9-.9-.1-.5-.5-.9-.9-.9z"/></svg>