<svg xmlns="http://www.w3.org/2000/svg" xmlns:xlink="http://www.w3.org/1999/xlink" viewBox="0 0 82.93 43.6"><defs><clipPath id="clip-path"><path d="M61,19,54.7,12.69,61.29,6.1,63,7.85,58.2,12.69l4.5,4.51Zm-1.31,1.29L53.39,14l-1.75,1.75,4.51,4.5L51.3,25.09l1.75,1.74Z" fill="none"/></clipPath><linearGradient id="linear-gradient" x1="58.64" y1="28.91" x2="58.64" y2="-0.82" gradientUnits="userSpaceOnUse"><stop offset="0" stop-color="#0d3acc"/><stop offset="0.21" stop-color="#0d3acc"/><stop offset="0.87" stop-color="#2de2f7"/><stop offset="1" stop-color="#2de2f7"/></linearGradient></defs><title>Asset 35</title><g id="Layer_2" data-name="Layer 2"><g id="MENU"><g id="Desktop"><g id="LOGO"><g id="Logo-2" data-name="Logo"><g id="text"><path d="M8.51,28.8a4.89,4.89,0,0,0-3.95,1.61,6.68,6.68,0,0,0-1.37,4.46,8.8,8.8,0,0,0,.33,2.48,5.41,5.41,0,0,0,1,1.92,4.48,4.48,0,0,0,1.6,1.25A5.34,5.34,0,0,0,8.31,41a13.47,13.47,0,0,0,1.38-.06,4.88,4.88,0,0,0,.92-.16v-6h3.05v8a13.67,13.67,0,0,1-2.13.54,18.64,18.64,0,0,1-3.46.29A9.24,9.24,0,0,1,4.76,43a6.81,6.81,0,0,1-2.55-1.7A7.73,7.73,0,0,1,.58,38.59,10.92,10.92,0,0,1,0,34.87a10,10,0,0,1,.64-3.72,8,8,0,0,1,1.75-2.74A7.4,7.4,0,0,1,5,26.7a8.72,8.72,0,0,1,3.19-.58,11.61,11.61,0,0,1,2.07.16,13.2,13.2,0,0,1,1.56.35A6.48,6.48,0,0,1,12.9,27l.59.31-.92,2.49a7.24,7.24,0,0,0-1.8-.73A8,8,0,0,0,8.51,28.8Z" fill="#011111"/><path d="M15.16,37a8,8,0,0,1,.49-2.93A6.22,6.22,0,0,1,17,32a5.48,5.48,0,0,1,1.88-1.25A5.72,5.72,0,0,1,21,30.3a5.19,5.19,0,0,1,4.07,1.62,7,7,0,0,1,1.46,4.84c0,.16,0,.34,0,.54s0,.38,0,.54H18.18a3.36,3.36,0,0,0,1.07,2.36A4.08,4.08,0,0,0,22,41,9.08,9.08,0,0,0,24,40.84a8,8,0,0,0,1.39-.41l.38,2.39a4.77,4.77,0,0,1-.66.26,8.6,8.6,0,0,1-1,.24q-.54.1-1.17.18a10.86,10.86,0,0,1-1.28.07,7.76,7.76,0,0,1-2.9-.49,5.38,5.38,0,0,1-2-1.38,5.58,5.58,0,0,1-1.19-2.08A8.42,8.42,0,0,1,15.16,37Zm8.48-1.31a4,4,0,0,0-.17-1.15,2.74,2.74,0,0,0-.5-.94,2.45,2.45,0,0,0-.79-.63,2.85,2.85,0,0,0-2.31,0,2.7,2.7,0,0,0-.86.66,3.17,3.17,0,0,0-.54,1,5,5,0,0,0-.27,1.08Z" fill="#011111"/><path d="M28.09,27.28,31,26.8v3.82h4.5l-.41,2.44H31v5.15a3.74,3.74,0,0,0,.48,2.17,1.93,1.93,0,0,0,1.65.65,5.47,5.47,0,0,0,1.41-.16c.41-.12.74-.22,1-.32L36,42.87a10.16,10.16,0,0,1-1.33.45,7.43,7.43,0,0,1-1.94.23,6.19,6.19,0,0,1-2.26-.36,3.48,3.48,0,0,1-1.44-1.06,4.22,4.22,0,0,1-.75-1.66,10.8,10.8,0,0,1-.21-2.24Z" fill="#011111"/><path d="M42.25,26.34a9.68,9.68,0,0,1,5.55,1.33,4.6,4.6,0,0,1,1.92,4.06,4.57,4.57,0,0,1-3.36,4.62c.31.37.65.82,1,1.35s.78,1.11,1.18,1.73.79,1.25,1.16,1.91.71,1.29,1,1.92H47.33c-.31-.58-.64-1.17-1-1.75s-.72-1.16-1.08-1.72-.72-1.08-1.07-1.57-.69-.93-1-1.32l-.58,0H40.68v6.33h-3V26.75A17.35,17.35,0,0,1,40,26.42C40.84,26.37,41.59,26.34,42.25,26.34ZM42.47,29c-.65,0-1.24,0-1.79.08v5.41H42a14.2,14.2,0,0,0,2-.12,4.11,4.11,0,0,0,1.41-.44,2.11,2.11,0,0,0,.86-.84,2.88,2.88,0,0,0,.29-1.36,2.72,2.72,0,0,0-.29-1.3,2.18,2.18,0,0,0-.83-.85,3.83,3.83,0,0,0-1.3-.44A9.28,9.28,0,0,0,42.47,29Z" fill="#011111"/><path d="M56.34,30.3a6.92,6.92,0,0,1,2.44.37,4,4,0,0,1,1.59,1,3.88,3.88,0,0,1,.84,1.58,7.77,7.77,0,0,1,.26,2.05V43c-.45.1-1.13.21-2,.35a20.42,20.42,0,0,1-3.08.2,9.64,9.64,0,0,1-2.08-.21,4.5,4.5,0,0,1-1.6-.7,3.36,3.36,0,0,1-1-1.26,4.36,4.36,0,0,1-.38-1.91,3.6,3.6,0,0,1,.43-1.84,3.5,3.5,0,0,1,1.14-1.22,5.25,5.25,0,0,1,1.68-.68,10,10,0,0,1,2-.2,9,9,0,0,1,1,.06,8.65,8.65,0,0,1,1.14.21v-.49a3.71,3.71,0,0,0-.12-1,2,2,0,0,0-.42-.81,2,2,0,0,0-.8-.55,3.46,3.46,0,0,0-1.25-.19,11.93,11.93,0,0,0-1.86.14,8.68,8.68,0,0,0-1.38.34l-.36-2.37a11.64,11.64,0,0,1,1.62-.38A12.62,12.62,0,0,1,56.34,30.3Zm.24,10.9a10.72,10.72,0,0,0,2.06-.14V37.82a4.47,4.47,0,0,0-.7-.14,6.4,6.4,0,0,0-1-.08,6.58,6.58,0,0,0-1,.08,2.79,2.79,0,0,0-.89.26,1.61,1.61,0,0,0-.64.54,1.86,1.86,0,0,0,.41,2.33A3.43,3.43,0,0,0,56.58,41.2Z" fill="#011111"/><path d="M63,27.28l2.93-.48v3.82h4.49L70,33.06H65.94v5.15a3.74,3.74,0,0,0,.48,2.17,1.89,1.89,0,0,0,1.64.65,5.5,5.5,0,0,0,1.42-.16c.41-.12.73-.22,1-.32l.48,2.32a9.67,9.67,0,0,1-1.33.45,7.35,7.35,0,0,1-1.93.23,6.12,6.12,0,0,1-2.26-.36A3.35,3.35,0,0,1,64,42.13a4,4,0,0,1-.75-1.66A10.12,10.12,0,0,1,63,38.23Z" fill="#011111"/><path d="M71.52,37a7.79,7.79,0,0,1,.5-2.93A6.2,6.2,0,0,1,73.33,32a5.52,5.52,0,0,1,1.89-1.25,5.67,5.67,0,0,1,2.17-.43,5.23,5.23,0,0,1,4.08,1.62,7,7,0,0,1,1.46,4.84c0,.16,0,.34,0,.54s0,.38,0,.54H74.54a3.33,3.33,0,0,0,1.08,2.36,4,4,0,0,0,2.76.83,9.08,9.08,0,0,0,2-.19,7.69,7.69,0,0,0,1.39-.41l.39,2.39a5,5,0,0,1-.67.26,8.39,8.39,0,0,1-1,.24c-.37.07-.76.13-1.18.18a10.75,10.75,0,0,1-1.28.07,7.76,7.76,0,0,1-2.9-.49,5.38,5.38,0,0,1-2-1.38,5.56,5.56,0,0,1-1.18-2.08A8.42,8.42,0,0,1,71.52,37ZM80,35.69a3.68,3.68,0,0,0-.17-1.15,2.72,2.72,0,0,0-.49-.94,2.49,2.49,0,0,0-.8-.63,2.57,2.57,0,0,0-1.12-.23,2.6,2.6,0,0,0-2,.92,3,3,0,0,0-.55,1,4.48,4.48,0,0,0-.26,1.08Z" fill="#011111"/></g><g clip-path="url(#clip-path)"><rect x="49.7" width="17.87" height="28.37" fill="url(#linear-gradient)"/></g></g></g></g></g></g></svg>