<svg xmlns="http://www.w3.org/2000/svg" viewBox="0 0 110.55 20.96"><title>Asset 32</title><g data-name="Layer 2"><path d="M48.9 16.59a5.1 5.1 0 0 1-2.31 1.65 9.55 9.55 0 0 1-3.36.56 6.55 6.55 0 0 1-3.42-.88 5.81 5.81 0 0 1-2.3-2.5 8.76 8.76 0 0 1-.84-3.81v-1.2A8.16 8.16 0 0 1 38.34 5 5.8 5.8 0 0 1 43 3a6.11 6.11 0 0 1 4.07 1.28 5.48 5.48 0 0 1 1.82 3.66h-2.62a3 3 0 0 0-3.22-2.78 3.15 3.15 0 0 0-2.73 1.29 6.6 6.6 0 0 0-1 3.79v1.18a6.27 6.27 0 0 0 1 3.87 3.47 3.47 0 0 0 2.92 1.38 3.86 3.86 0 0 0 2.92-.93v-3h-3.09v-2h5.83zm7.5 2.21a5.3 5.3 0 0 1-4-1.54 5.55 5.55 0 0 1-1.51-4.09v-.32a6.83 6.83 0 0 1 .66-3 5.05 5.05 0 0 1 1.85-2.1A4.9 4.9 0 0 1 56.1 7a4.5 4.5 0 0 1 3.61 1.49A6.28 6.28 0 0 1 61 12.65v1h-7.48a3.42 3.42 0 0 0 .94 2.24 2.83 2.83 0 0 0 2.09.82 3.47 3.47 0 0 0 2.87-1.42l1.38 1.32a4.6 4.6 0 0 1-1.8 1.62 5.68 5.68 0 0 1-2.6.57zM56.09 9a2.16 2.16 0 0 0-1.7.74 3.77 3.77 0 0 0-.83 2.06h4.89v-.19a3.15 3.15 0 0 0-.69-1.95A2.15 2.15 0 0 0 56.09 9zM66 4.39v2.77h2v1.9h-2v6.38a1.44 1.44 0 0 0 .26 1 1.2 1.2 0 0 0 .92.29 4 4 0 0 0 .9-.11v2a6.38 6.38 0 0 1-1.69.24q-3 0-2.95-3.26V9.06h-1.86v-1.9h1.88V4.39zm9.64 8.29h-3v5.91H70V3.22h5.4a6.24 6.24 0 0 1 4.1 1.19A4.22 4.22 0 0 1 81 7.87a4.39 4.39 0 0 1-.74 2.58 4.76 4.76 0 0 1-2.08 1.6l3.45 6.4v.14h-2.91zm-3-2.16h2.75a3.08 3.08 0 0 0 2.11-.68A2.35 2.35 0 0 0 78.28 8a2.54 2.54 0 0 0-.7-1.91 3 3 0 0 0-2.1-.7h-2.82zm17.06 8.07a4 4 0 0 1-.29-1.07 4.32 4.32 0 0 1-5.81.3 3.14 3.14 0 0 1-1.09-2.43 3.22 3.22 0 0 1 1.36-2.8 6.58 6.58 0 0 1 3.88-1h1.57v-.75a2 2 0 0 0-.49-1.42 2 2 0 0 0-1.51-.53 2.26 2.26 0 0 0-1.44.43 1.39 1.39 0 0 0-.56 1.12h-2.57a2.84 2.84 0 0 1 .63-1.76 4.17 4.17 0 0 1 1.69-1.28 6 6 0 0 1 2.39-.4 4.79 4.79 0 0 1 3.2 1 3.59 3.59 0 0 1 1.23 2.84V16a5.81 5.81 0 0 0 .43 2.46v.18zm-2.82-1.85a2.85 2.85 0 0 0 1.43-.37 2.47 2.47 0 0 0 1-1v-2.15h-1.37a3.76 3.76 0 0 0-2.14.5 1.6 1.6 0 0 0-.72 1.4 1.48 1.48 0 0 0 .49 1.18 1.9 1.9 0 0 0 1.31.44zM97.49 4.39v2.77h2v1.9h-2v6.38a1.38 1.38 0 0 0 .26 1 1.2 1.2 0 0 0 .92.29 4 4 0 0 0 .9-.11v2a6.44 6.44 0 0 1-1.69.24q-3 0-3-3.26V9.06H93v-1.9h1.88V4.39zM106 18.8a5.3 5.3 0 0 1-4-1.54 5.55 5.55 0 0 1-1.51-4.09v-.32a6.83 6.83 0 0 1 .66-3A5.05 5.05 0 0 1 103 7.7a4.9 4.9 0 0 1 2.67-.7 4.5 4.5 0 0 1 3.61 1.49 6.28 6.28 0 0 1 1.27 4.21v1h-7.46a3.42 3.42 0 0 0 .94 2.24 2.83 2.83 0 0 0 2.09.82 3.47 3.47 0 0 0 2.88-1.43l1.38 1.32a4.6 4.6 0 0 1-1.83 1.58 5.71 5.71 0 0 1-2.55.57zm-.34-9.8a2.16 2.16 0 0 0-1.7.74 3.77 3.77 0 0 0-.83 2.06H108v-.19a3.15 3.15 0 0 0-.69-1.95 2.15 2.15 0 0 0-1.65-.66z" fill="#001d99"/><path d="M15.34 18.9a9.63 9.63 0 0 1-4.86 1.31 9.73 9.73 0 0 1 0-19.46 9.63 9.63 0 0 1 4.86 1.31 9.72 9.72 0 0 0 0 16.84zm14.6-8.42a9.73 9.73 0 0 1-14.6 8.42 9.71 9.71 0 0 0 0-16.84 9.73 9.73 0 0 1 14.6 8.42z" fill="none" stroke="#2de2f7" stroke-miterlimit="10" stroke-width="1.5"/></g></svg>