<svg xmlns="http://www.w3.org/2000/svg" viewBox="0 0 148.01 40"><title>netflix</title><path d="M20.35 37.42c-2.22.39-4.49.51-6.83.82L6.37 17.3v21.84c-2.23.24-4.26.55-6.37.86V0h5.94l8.12 22.7V0h6.29v37.42zm12.31-22.77c2.42 0 6.13-.12 8.36-.12v6.25c-2.78 0-6 0-8.36.12v9.3c3.67-.24 7.34-.55 11.05-.67v6l-17.3 1.36V0h17.3v6.25H32.66zM67 6.25h-6.53V35c-2.11 0-4.22 0-6.25.08V6.25h-6.49V0H67zm10.16 8h8.55v6.25h-8.6v14.15H71V0h17.44v6.25H77.11zm21.48 15c3.56.08 7.15.35 10.63.55v6.1c-5.59-.35-11.17-.7-16.88-.82V0h6.25v29.18zm15.9 7.15c2 .12 4.1.23 6.13.47V0h-6.13zM148 0l-7.93 19L148 40c-2.35-.31-4.69-.74-7-1.13l-4.5-11.57-4.57 10.63c-2.26-.39-4.45-.51-6.71-.82l8-18.32L126 0h6.72l4.1 10.51L141.17 0z" fill="#d81f26" data-name="Layer 2"/></svg>