<svg id="Layer_1" xmlns="http://www.w3.org/2000/svg" viewBox="0 0 388 102"><style>.st0,.st1{fill:none;stroke:#d8dfea;stroke-width:2;stroke-linecap:round}.st1{stroke-dasharray:.9948,3.9792}.st2{fill:#fff}.st3{fill:#f1592a}</style><path class="st0" d="M2.1 1.4l-.4-.3"/><path class="st1" d="M385.1 97.8h-253L5.3 3.8"/><path class="st0" d="M387.6 97.8h-.5"/><path class="st2" d="M37.3 21h52.1v55.1H37.3z"/><path class="st3" d="M80.7 62l-.7-.3c3.6-4 5.6-9.2 5.6-14.7 0-4.5-1.4-8.8-3.8-12.4 0-.1-.1-.1-.1-.2-1.1-1.6-2.4-3-3.8-4.2-.3-.2-.7-.2-1 .1s-.2.7.1 1c1.2 1 2.2 2.1 3.1 3.3-1.5.6-3.2 1.1-5.2 1.4-.5-1.6-1.2-3.1-2-4.5-1.1-1.8-2.3-3.3-3.6-4.4 2.1.6 4 1.5 5.8 2.7.3.2.7.1 1-.2.2-.3.1-.7-.2-1C72.3 26.3 68 25 63.6 25c-5.9 0-11.4 2.3-15.6 6.4-4.2 4.2-6.4 9.7-6.4 15.6 0 5.5 2 10.7 5.6 14.7l-.7.3c-.3.1-2.5 1-2.5 3.8v2.5c0 .4.3.7.7.7H58c.4 0 .7-.3.7-.7s-.3-.7-.7-.7h-2.1v-2.4c0-2.6 2-3.3 2.1-3.3l3.4-1.3 1.8 1.8c.1.1.3.2.5.2s.4-.1.5-.2l1.7-1.8 3.4 1.4c.1 0 2.1.8 2.1 3.3v2.4H60.1c-.4 0-.7.3-.7.7 0 .4.3.7.7.7h22.4c.4 0 .7-.3.7-.7v-2.5c0-2.9-2.2-3.8-2.5-3.9zm-2.1-.9l-.7-.3v-.4c.8-.4 1.3-1.2 1.6-2 1-.1 1.8-.9 1.8-2 0-.6-.3-1.2-.7-1.5v-1.2c0-2.4-1.8-4.4-4.1-4.6 0-.5 0-.9.1-1.4h7.6c-.1 5-2.1 9.8-5.6 13.4zm-2.5-1.5h-.6c-1.2 0-2.2-1-2.2-2.2v-1.8c.9-.1 2.5-.4 3.7-1.4.3.5.7 1 1.3 1.3v2c0 1.1-1 2.1-2.2 2.1zm.4 1.3v.4l-.8.8-.7-.7v-.5h1c.3.1.4.1.5 0zm-3.9-6.7s-.1 0 0 0c-.1 0-.1 0 0 0-.1 0-.1 0 0 0h-.1v-.5c0-1.8 1.5-3.3 3.3-3.3h.3c1.8 0 3.3 1.5 3.3 3.3v.4c-1-.2-1.3-1.5-1.3-1.5-.1-.3-.3-.5-.5-.5-.3-.1-.5.1-.7.3-1.5 1.8-4.3 1.8-4.3 1.8zm7.1 2.8v-1c.1.1.2.3.2.5s0 .4-.2.5zm1.2-21.2c2 3.1 3.2 6.7 3.3 10.5h-7.6c-.1-3.1-.5-6.1-1.3-8.9 2.2-.4 4.1-1 5.6-1.6zm-5.7 10.5h-7.1c-.9-1-2.3-1.7-3.8-1.9v-6c3.4 0 6.7-.3 9.6-.8.8 2.7 1.2 5.7 1.3 8.7zm-6.1 7.3c0 .4-.3.8-.7.9v-1.7c.4 0 .7.4.7.8zm-4.8-27.2c2.8.3 5.4 2.3 7.4 5.9.7 1.2 1.3 2.6 1.8 4-2.8.5-5.9.7-9.2.8V26.4zm-.4 19.4c2.4 0 4.3 1.9 4.3 4.3v.9c-1.3-.3-1.7-2-1.7-2-.1-.3-.3-.5-.5-.5-.3-.1-.5.1-.7.3-1.6 2.2-5.2 2.3-5.3 2.3h-.1v-.9c0-2.4 1.9-4.3 4.3-4.3l-.3-.1zm-11.9.5c.1-3.1.5-6 1.3-8.6 2.9.5 6.2.8 9.6.8v6c-1.5.1-2.8.8-3.7 1.9h-.1l-7.1-.1zm6.9 6.4v1.7c-.4-.1-.7-.4-.7-.9.1-.4.3-.7.7-.8zm4-26.3v10.7c-3.3 0-6.4-.3-9.2-.8.5-1.5 1.1-2.8 1.8-4 2.1-3.5 4.7-5.6 7.4-5.9zm-5 .8c-1.3 1.1-2.5 2.6-3.6 4.4-.8 1.4-1.5 2.9-2 4.5-2-.4-3.7-.9-5.2-1.4 2.7-3.6 6.5-6.3 10.8-7.5zm-11.6 8.6c1.6.6 3.5 1.2 5.6 1.6-.8 2.7-1.2 5.8-1.3 8.9H43c.2-3.9 1.3-7.4 3.3-10.5zm4.5 25.1h1.4v.4l-.8.8-.7-.7c.1 0 .1-.5.1-.5zm1.1-1.3h-.6c-1.2 0-2.2-1-2.2-2.2v-1.8c.9-.1 2.5-.4 3.7-1.4.3.5.7 1 1.3 1.3v2c0 1.1-1 2.1-2.2 2.1zm1.8-6.9c-.1-.3-.3-.5-.5-.5-.3-.1-.5.1-.7.3-1.3 1.7-4.1 1.8-4.1 1.8h-.1v-.5c0-1.8 1.5-3.3 3.3-3.3h.3c1.8 0 3.3 1.5 3.3 3.3v.4c-1.2-.2-1.5-1.5-1.5-1.5zm-10.7-5h7.6c0 .5 0 1 .1 1.4-2.3.3-4 2.3-4 4.6V55c-.4.4-.7.9-.7 1.5 0 1 .8 1.9 1.8 2 .3.8.9 1.6 1.6 2v.4l-.8.3c-3.4-3.7-5.4-8.5-5.6-13.5zm4.6 8.3v1c-.2-.1-.3-.3-.3-.5.1-.2.2-.4.3-.5zm6.9 9.2v2.4h-9v-1.8c0-1.9 1.5-2.5 1.6-2.5l2.6-1 1.4 1.4c.1.1.3.2.5.2s.4-.1.5-.2l1.3-1.4 1.6.7c-.3.5-.5 1.3-.5 2.2zm6.7-6.1l-3.7 1.4c-.5.2-1.1.5-1.7 1.1l-2.1-.8v-.4c.8-.4 1.3-1.2 1.6-2 1-.1 1.8-.9 1.8-2 0-.6-.3-1.2-.7-1.5v-1.2c0-2.5-1.9-4.5-4.3-4.7 0-.5 0-.9-.1-1.4h6.3c-.3.7-.5 1.6-.5 2.4v1.6c-.6.4-.9 1.1-.9 1.8 0 1.2 1 2.3 2.2 2.3.3 1.1 1.1 2 2.1 2.6v.8zM55.5 57v-1c.1.1.2.3.2.5s-.1.4-.2.5zm9.3 2.6l-1.1 1.2-1.1-1.1v-.9c.2 0 .5.1.7.1h.8c.2 0 .5 0 .7-.1v.8zm-.7-2h-.8c-1.6 0-3-1.3-3-3v-2.5c1.1-.1 3.3-.5 4.9-1.9.3.6.9 1.4 1.8 1.8v2.6c0 1.6-1.3 3-2.9 3zm7.4 4.1c-.6-.6-1.2-1-1.7-1.2l-3.6-1.4v-.7c1-.5 1.7-1.5 2.1-2.6 1.2 0 2.2-1 2.2-2.3 0-.7-.4-1.4-.9-1.8v-1.6c0-.9-.2-1.7-.5-2.4h6.2c0 .5 0 .9-.1 1.4-2.4.2-4.2 2.2-4.2 4.7V55c-.4.4-.7.9-.7 1.5 0 1 .8 1.9 1.8 2 .3.8.9 1.6 1.6 2v.4l-2.2.8zm.4-5.7v1c-.2-.1-.3-.3-.3-.5s.1-.4.3-.5zm9.9 11.6h-9v-2.4c0-.9-.2-1.7-.5-2.3l1.6-.6 1.4 1.4c.1.1.3.2.5.2s.4-.1.5-.2l1.3-1.4 2.6 1c.1 0 1.6.6 1.6 2.5v1.8z"/></svg>