<svg id="Layer_1" xmlns="http://www.w3.org/2000/svg" viewBox="0 0 388 102"><style>.st0,.st1{fill:none;stroke:#d8dfea;stroke-width:2;stroke-linecap:round}.st1{stroke-dasharray:.9948,3.9792}.st2{fill:#fff}.st3{fill:#f1592a}</style><path class="st0" d="M1.7 97.8l.4-.3"/><path class="st1" d="M5.3 95.1l126.8-94h253"/><path class="st0" d="M387.1 1.1h.5"/><path class="st2" d="M36.2 21h51.2v55.1H36.2z"/><path class="st3" d="M53.8 53.1L46 66.4c-.1.1-.1.3-.1.5 0 .5.4.9.9.9h6.4V66h-4.8l7-11.8-1.6-1.1z"/><path class="st3" d="M84 48.5H69.7c-2 0-3.7 1.6-3.7 3.7v10.6L57.7 50v-6.4c.9-.5 1.9-.9 3-1.2.4-.1.7-.5.7-.9V29.2H66v12.2c0 .4.3.8.7.9 3.2.6 6.1 2.4 8.2 4.9l1.4-1.1c-2.2-2.7-5.1-4.6-8.5-5.4V28.3c0-.5-.4-.9-.9-.9h-6.4c-.5 0-.9.4-.9.9V41c-.6.2-1.2.4-1.8.7v-3.2c0-.5-.4-.9-.9-.9h-4.6c-.5 0-.9.4-.9.9v11.7l-8.5 14.5c-.4.7-.6 1.5-.6 2.3 0 2.5 2 4.5 4.5 4.5h16.7c.9 0 1.7-.2 2.4-.7.5-.3.8-.7 1.2-1.1.8 1.1 2.2 1.8 3.6 1.8H79c2.5 0 4.6-2.1 4.6-4.6V54.4l2.1-2.1c.4-.4.6-1 .6-1.6-.1-1.2-1.1-2.2-2.3-2.2zM63.4 69.6H46.7c-.5 0-1-.1-1.4-.4-1.3-.8-1.7-2.4-1-3.7L53 50.8c.1-.1.1-.3.1-.5v-11h2.8v11c0 .2.1.3.1.5l9.5 14.7c.4.5.5 1 .5 1.5 0 1.4-1.1 2.6-2.6 2.6zM84.3 51l-2.4 2.4c-.2.2-.3.4-.3.6v12.8c0 1.5-1.2 2.8-2.8 2.8h-8.3c-1.5 0-2.8-1.2-2.8-2.8V52.2c0-1 .8-1.8 1.8-1.8H84c.1 0 .2 0 .3.1.1.1.1.3 0 .5z"/><path class="st3" d="M77.9 65.9h-2.8v1.8h3.7c.5 0 .9-.4.9-.9V54h-1.8v11.9zm0-22.4c0 1.8 1.4 3.2 3.2 3.2 1.8 0 3.2-1.4 3.2-3.2s-1.4-3.2-3.2-3.2-3.2 1.4-3.2 3.2zm3.3-1.4c.8 0 1.4.6 1.4 1.4 0 .8-.6 1.4-1.4 1.4s-1.4-.6-1.4-1.4c0-.8.6-1.4 1.4-1.4zm-3.3-2.8c1.5 0 2.8-1.2 2.8-2.8 0-1.5-1.2-2.8-2.8-2.8-1.5 0-2.8 1.2-2.8 2.8.1 1.6 1.3 2.8 2.8 2.8zm0-3.6c.5 0 .9.4.9.9s-.4.9-.9.9-.9-.4-.9-.9.4-.9.9-.9zm-32.5 5.5c1.8 0 3.2-1.4 3.2-3.2 0-1.8-1.4-3.2-3.2-3.2-1.8 0-3.2 1.4-3.2 3.2 0 1.7 1.4 3.2 3.2 3.2zm0-4.6c.8 0 1.4.6 1.4 1.4s-.6 1.4-1.4 1.4c-.8 0-1.4-.6-1.4-1.4 0-.8.6-1.4 1.4-1.4zm4.1-2.8c1.5 0 2.8-1.2 2.8-2.8 0-1.5-1.2-2.8-2.8-2.8-1.5 0-2.8 1.2-2.8 2.8.1 1.6 1.3 2.8 2.8 2.8zm0-3.6c.5 0 .9.4.9.9s-.4.9-.9.9-.9-.4-.9-.9.4-.9.9-.9zM69.7 54h2.8v1.8h-2.8zm0 3.7h1.8v1.8h-1.8zm0 3.6h2.8v1.8h-2.8zm0 3.7h1.8v1.8h-1.8zM44 43.9h1.8v1.8H44zm2.8 4.6h1.8v1.8h-1.8zm15.6 3.7h1.8V54h-1.8zm-1.9-3.7h1.8v1.8h-1.8zm-.9-3.7h1.8v1.8h-1.8zm.9 20.2h1.8v1.8h-1.8zm-2.7-3.7h1.8v1.8h-1.8z"/></svg>