<svg xmlns="http://www.w3.org/2000/svg" viewBox="0 0 143.71 30"><title>uber</title><path d="M22.61.72v16.54c0 5.53-2.45 7.82-8.18 7.82s-8.18-2.29-8.18-7.82V0H.72A.64.64 0 0 0 0 .72v16.81C0 26.77 5.89 30 14.43 30s14.42-3.23 14.42-12.47V0h-5.52a.64.64 0 0 0-.72.72m80.06 4.08a.78.78 0 0 0 .82-.48l1.6-4c.09-.24 0-.36-.25-.36H82.6c-2.08 0-2.87.63-2.87 2.05v25.73c0 1.2.61 1.75 2.21 1.75h20.73a.77.77 0 0 0 .82-.49l1.6-3.95c.09-.24 0-.36-.25-.36h-19v-5.22c0-1.81 1-2.63 3.68-2.63h8.24a.78.78 0 0 0 .82-.48l1.54-3.8c.09-.25 0-.37-.25-.37h-14V4.8h16.81M57.72 24.75h-10.9v-5.4c0-1.82 1-2.63 3.68-2.63h7.22c3.47 0 4.44 1.33 4.44 4s-.97 4.03-4.44 4.03zm-10.9-20h9.75c3.26 0 4.17 1.23 4.17 3.77s-.91 3.77-4.17 3.77h-9.75zm16.69 9.2c2.42-1.26 3.41-3.65 3.41-6.46C66.92 1 61.61 0 56.12 0H43.56c-2.08 0-2.86.63-2.86 2.05v25.69c0 1.2.6 1.75 2.2 1.75h15.45c5.83 0 10-2.27 10-8.15 0-3.53-1.51-6.52-4.83-7.4zm68.6-.28h-10.26V4.74h10.26c3.83 0 4.68 1.48 4.68 4.47s-.85 4.46-4.68 4.46zM143.64 29L137 17.63c3.29-.85 5.95-3 5.95-8.55C143 1.93 138.54 0 131.2 0h-12.61c-2.08 0-2.87.63-2.87 2.05v26.71a.64.64 0 0 0 .73.73h5.4v-8.6c0-1.82 1-2.63 3.68-2.63H131L137 29a.81.81 0 0 0 .81.49h5.62c.39 0 .39-.34.27-.52z" fill="#000203" data-name="Layer 2"/></svg>