<?xml version="1.0" encoding="utf-8"?>
<!-- Generator: Adobe Illustrator 18.1.0, SVG Export Plug-In . SVG Version: 6.00 Build 0)  -->
<svg version="1.1" id="Layer_1" xmlns="http://www.w3.org/2000/svg" xmlns:xlink="http://www.w3.org/1999/xlink" x="0px" y="0px"
	 viewBox="0 0 14 14" style="enable-background:new 0 0 14 14;" xml:space="preserve">
<path style="fill:#FFFFFF;" d="M4.1,13.8c0.2,0,0.3-0.1,0.4-0.2L10,8.2c0.3-0.3,0.5-0.8,0.5-1.2S10.3,6.1,10,5.8L4.6,0.4
	c-0.2-0.2-0.7-0.2-0.9,0S3.4,1,3.7,1.3l5.4,5.4C9.2,6.8,9.2,6.9,9.2,7s0,0.2-0.1,0.3l-5.4,5.4c-0.2,0.2-0.2,0.7,0,0.9
	C3.8,13.8,4,13.8,4.1,13.8z"/>
</svg>
