<?xml version="1.0" encoding="utf-8"?>
<!-- Generator: Adobe Illustrator 20.1.0, SVG Export Plug-In . SVG Version: 6.00 Build 0)  -->
<svg version="1.1" id="svg-folder" xmlns="http://www.w3.org/2000/svg" xmlns:xlink="http://www.w3.org/1999/xlink" x="0px" y="0px"
	 viewBox="0 0 258 58" style="enable-background:new 0 0 258 58;" xml:space="preserve">
<g id="text">
	<path style="fill:#FFFFFF;" d="M1.3,4.5V1.2h13.8v6h-3.3V4.5H6.5v6.8h5.2l4.1,4.4v8.4l-4.2,4.1H3.2V5.5l1.3-0.8V4.5H1.3z M6.5,14.6
		v10.3h3.9l2.2-2.2V17l-2.2-2.4H6.5z"/>
	<path style="fill:#FFFFFF;" d="M34.5,24l-4.1,4.3h-5.2l-4-4.3v-19l4.1-4.1h5.1l4.1,4.1V24z M31.3,22.7V6.3l-2.2-2.2h-2.4l-2.2,2.2
		v16.4l2.2,2.3h2.4L31.3,22.7z"/>
	<path style="fill:#FFFFFF;" d="M40.5,28.2V1.3h3.3v11.9h6.1V1.3h3.3v26.9h-3.3V16.3h-6.1v11.9H40.5z"/>
	<path style="fill:#FFFFFF;" d="M64.8,14.1l1.9-6.8l2.1-6.2h3.5l-8.8,27h-3.5l3-9.4L56.8,1.2h3.6l2,6.2L64.8,14.1L64.8,14.1z"/>
	<path style="fill:#FFFFFF;" d="M85.7,6.4l-2.1-2.1h-2.3l-2,2.1v16.4l2.1,2.3h2.3l2.1-2.3v-3l3.3,0V24l-3.9,4.4h-5.1L76,24V5.1L80,1
		h5.1L89,5.1v4.1h-3.3V6.4z"/>
	<path style="fill:#FFFFFF;" d="M105.1,4.5l-0.3,6.4h5.1l3.7,4.4v8.9l-3.7,4.1h-5l-3.7-4.1v-4.8h3.3v3.6l1.9,2.1h2.1l1.9-2.1v-6.4
		l-1.9-2.3h-7L102,1.2h10.7v3.3H105.1z"/>
	<path style="fill:#FFFFFF;" d="M128.4,28.3h-5.3L119,24V5.2l4.1-4.1c1.7,0,3.5,0,5.2,0l4.1,4.1V24L128.4,28.3z M128.5,5.9L127,4.4
		h-2.5l-2.2,2.2v12.3L128.5,5.9z M123,23.4l1.5,1.7h2.4l2.3-2.4V10.4L123,23.4z"/>
	<path style="fill:#FFFFFF;" d="M147.6,28.3h-5.3l-4.1-4.4V5.2l4.1-4.1c1.7,0,3.5,0,5.2,0l4.1,4.1V24L147.6,28.3z M147.8,5.9
		l-1.5-1.5h-2.5l-2.2,2.2v12.3L147.8,5.9z M142.2,23.4l1.5,1.7h2.4l2.3-2.4V10.4L142.2,23.4z"/>
	<path style="fill:#FFFFFF;" d="M165.5,28.2c-0.6,0-1.2,0-1.8,0V13.3c2.4,0,3.7,0,6.1,0v1.8h-4.3V28.2z"/>
	<path style="fill:#FFFFFF;" d="M179.2,15.5v5.4l-2.3,2.4H174v4.9h-1.8v-15h4.7L179.2,15.5z M176.1,21.4l1.2-1.3v-3.9l-1.2-1.2H174
		v6.4H176.1z"/>
	<path style="fill:#FFFFFF;" d="M182.3,28.2V13.2h1.8v6.6h3.4v-6.6h1.8v14.9h-1.8v-6.6h-3.4v6.6H182.3z"/>
	<path style="fill:#FFFFFF;" d="M5.8,45.7l5.2,8.8h-0.6L5.4,46H4v8.6H3.5V38.1H4v7.4h1.4l4.6-7.4h0.6L5.8,45.7z"/>
	<path style="fill:#FFFFFF;" d="M19.4,38.2h6.7v16.4h-0.5v-16h-5.7v16h-0.5V38.2z"/>
	<path style="fill:#FFFFFF;" d="M31,38.6v7.6h4.8v0.5H31v7.4h5.5v0.5h-6V38.1h5.7v0.5H31z"/>
	<path style="fill:#FFFFFF;" d="M41.2,54.6h-0.5V38.1h4.5l2.1,2.1v5.6l-2.2,2.3h-3.9V54.6z M41.2,47.6h3.7l1.9-2v-5.2l-1.9-1.9h-3.7
		V47.6z"/>
	<path style="fill:#FFFFFF;" d="M55.5,38.1l2.2,2.2v3.7l-1.7,2.1l2.1,2.1v4L56,54.6h-4.6V38.1H55.5z M55.7,46l1.6-2v-3.4l-1.9-1.9
		h-3.4V46H55.7z M51.9,54.1h3.9l1.9-1.9v-3.6l-2.1-2.1h-3.7V54.1z"/>
	<path style="fill:#FFFFFF;" d="M67.4,54.7h-2.7l-2.2-2.4V40.2l2.2-2.2h2.7l2.2,2.2v12.1L67.4,54.7z M69.2,40.4l-1.9-1.9h-2.3
		L63,40.4v11.7l1.9,2.1h2.3l1.9-2.1V40.4z"/>
	<path style="fill:#FFFFFF;" d="M83.9,38.5h-0.7l-3.5,15.3h-1.1l-3.4-15.3h-0.7v16.1H74V38.1h1.7L79,53.3h0.4l3.4-15.2h1.6v16.5
		h-0.5V38.5z"/>
	<path style="fill:#FFFFFF;" d="M90.4,54.6h-0.5l2.3-6.6L88,38.1h0.5l3.9,9.3l3.3-9.4h0.5L90.4,54.6z"/>
	<path style="fill:#FFFFFF;" d="M104.1,54.6l-0.2,2.6h-0.4l0.1-2.9h1.6l3.1-16h4v16h1.4l0.1,2.9h-0.4l-0.2-2.6H104.1z M111.8,38.6
		h-3.1l-3,15.6h6.1V38.6z"/>
	<path style="fill:#FFFFFF;" d="M117.6,38.6v7.6h4.8v0.5h-4.8v7.4h5.5v0.5h-6V38.1h5.7v0.5H117.6z"/>
	<path style="fill:#FFFFFF;" d="M127.3,38.2h6.7v16.4h-0.5v-16h-5.7v16h-0.5V38.2z"/>
	<path style="fill:#FFFFFF;" d="M143.2,54.7h-2.7l-2.2-2.4V40.2l2.2-2.2h2.7l2.2,2.2v12.1L143.2,54.7z M144.9,40.4l-1.9-1.9h-2.3
		l-1.9,1.9v11.7l1.9,2.1h2.3l1.9-2.1V40.4z"/>
	<path style="fill:#FFFFFF;" d="M155.7,52.1v-3.8l-2.1-2.1h-2.1v-0.4h2.1l1.6-2.1v-3.3l-1.6-1.8h-2l-1.7,1.7l-0.1,1.7h-0.4v-1.8
		l1.9-2h2.4l1.9,2.1v3.7l-1.7,2.1l2.1,2.2v4.2l-2.1,2.3h-2.7l-2.1-2.3v-2.3h0.4l0,2.1l1.9,2h2.3L155.7,52.1z"/>
	<path style="fill:#FFFFFF;" d="M160.5,54.6V38.2h0.5l0,16h0l5.4-16.1h1.2v16.4h-0.5v-16h-0.4l-5.4,16H160.5z"/>
	<path style="fill:#FFFFFF;" d="M174.7,38.5H171v-0.4h8v0.4h-3.7v16.1h-0.5V38.5z"/>
	<path style="fill:#FFFFFF;" d="M184,54.6h-0.5l2.3-6.6l-4.1-9.9h0.5l3.8,9.3l3.3-9.4h0.5L184,54.6z"/>
</g>
<g id="ic-rotate">
	<path style="fill:#FAD025;" d="M255.9,17.4h-11.7c2.1-0.3,4-0.5,4.7-0.8c1-0.4,1.8-1.2,2.2-2.3c0.4-1,0.4-2.2,0-3.2
		c-0.4-1-1.2-1.8-2.3-2.2c-1-0.4-2.2-0.4-3.2,0c-1.2,0.5-5.1,3.8-7.6,5.9c1-3.2,2.5-8,2.5-9.3c0-2.3-1.9-4.2-4.2-4.2
		s-4.2,1.9-4.2,4.2c0,1.3,1.5,6.2,2.5,9.3c-2.5-2.2-6.3-5.4-7.6-5.9l0,0c-2.1-0.9-4.6,0.1-5.5,2.2c-0.9,2.1,0.1,4.6,2.2,5.5
		c0.7,0.3,2.6,0.6,4.7,0.8H217c-0.4,0-0.8,0.4-0.8,0.8v10.1c0,0.4,0.4,0.8,0.8,0.8h1.7v3.5h-6.9c-0.4,0-0.8,0.4-0.8,0.8
		s0.4,0.8,0.8,0.8h22.9c0.5,0,0.9,0.4,0.9,0.9v17.8c0,0.5-0.4,0.9-0.9,0.9h-29.6c-0.5,0-0.9-0.4-0.9-0.9V35.1c0-0.5,0.4-0.9,0.9-0.9
		h3.3c0.4,0,0.8-0.4,0.8-0.8s-0.4-0.8-0.8-0.8h-3.3c-1.4,0-2.5,1.1-2.5,2.5v17.8c0,1.4,1.1,2.5,2.5,2.5h29.6c1.4,0,2.5-1.1,2.5-2.5
		v-1.7h16.1c0.4,0,0.8-0.4,0.8-0.8V29.1h1.7c0.4,0,0.8-0.4,0.8-0.8V18.1C256.7,17.7,256.3,17.4,255.9,17.4z M246.2,10.3
		c1.3-0.6,2.8,0.1,3.4,1.4c0.6,1.3-0.1,2.8-1.4,3.4c-1,0.4-5.7,0.9-9.6,1.3C241.6,13.8,245.3,10.7,246.2,10.3z M236.4,2.9
		c1.4,0,2.6,1.2,2.6,2.6c0,1-1.4,5.6-2.6,9.3c-1.2-3.7-2.6-8.3-2.6-9.3C233.8,4,234.9,2.9,236.4,2.9z M223.1,11.7
		c0.4-1,1.4-1.6,2.4-1.6c0.3,0,0.7,0.1,1,0.2c1,0.4,4.6,3.5,7.6,6c-3.9-0.3-8.6-0.9-9.6-1.3C223.1,14.5,222.5,13,223.1,11.7z
		 M217.8,18.9h13.6v8.6h-13.6V18.9z M220.3,29.1h11.1v3.5h-11.1V29.1z M252.6,49.5h-11.1v-4.3c0-0.4-0.4-0.8-0.8-0.8
		c-0.4,0-0.8,0.4-0.8,0.8v4.3h-2.6V35.1c0-1.4-1.1-2.5-2.5-2.5H233V18.9h6.9V42c0,0.4,0.4,0.8,0.8,0.8c0.4,0,0.8-0.4,0.8-0.8V29.1
		h11.1V49.5z M255.1,27.5h-13.6v-8.6h13.6V27.5z"/>
	<path style="fill:#FAD025;" d="M209.2,47.1l0.8-1c0.6,0.6,1.2,0.9,2,0.9c0.9,0,1.5-0.5,1.5-1.3c0-0.8-0.7-1.3-1.6-1.3
		c-0.5,0-1,0.2-1.4,0.3l-0.8-0.5l0.2-3.7h4.5v1.2H211l-0.1,1.8c0.4-0.1,0.7-0.2,1.2-0.2c1.5,0,2.6,0.8,2.6,2.4
		c0,1.6-1.1,2.6-2.8,2.6C210.8,48.3,209.9,47.8,209.2,47.1z"/>
	<path style="fill:#FAD025;" d="M216.6,44.4c0-2.2,1.3-3.9,3.3-3.9c2,0,3.3,1.7,3.3,3.9c0,2.2-1.3,3.9-3.3,3.9
		C217.9,48.3,216.6,46.6,216.6,44.4z M221.9,44.4c0-1.5-0.8-2.7-1.9-2.7s-1.9,1.2-1.9,2.7c0,1.5,0.8,2.7,1.9,2.7
		C221.1,47.1,221.9,45.9,221.9,44.4z"/>
	<path style="fill:#FAD025;" d="M225.1,44.4c0-2.2,1.3-3.9,3.3-3.9c2,0,3.3,1.7,3.3,3.9c0,2.2-1.3,3.9-3.3,3.9
		C226.4,48.3,225.1,46.6,225.1,44.4z M230.3,44.4c0-1.5-0.8-2.7-1.9-2.7c-1.2,0-1.9,1.2-1.9,2.7c0,1.5,0.8,2.7,1.9,2.7
		S230.3,45.9,230.3,44.4z"/>
</g>
</svg>
