<?xml version="1.0" encoding="utf-8"?>
<!-- Generator: Adobe Illustrator 20.1.0, SVG Export Plug-In . SVG Version: 6.00 Build 0)  -->
<svg version="1.1" id="Layer_1" xmlns="http://www.w3.org/2000/svg" xmlns:xlink="http://www.w3.org/1999/xlink" x="0px" y="0px"
	 viewBox="0 0 56 56" style="enable-background:new 0 0 56 56;" xml:space="preserve">
<g>
	<g>
		<g>
			<path style="fill:#FED900;" d="M28,55.8C12.7,55.8,0.2,43.3,0.2,28S12.7,0.2,28,0.2S55.8,12.7,55.8,28S43.3,55.8,28,55.8z
				 M28,1.2C13.2,1.2,1.2,13.2,1.2,28c0,14.8,12,26.8,26.8,26.8c14.8,0,26.8-12,26.8-26.8C54.8,13.2,42.8,1.2,28,1.2z"/>
		</g>
		<g>
			<path style="fill:#FED900;" d="M30.6,48.7h-8.7V30.1h-3.7v-7.6h3.7v-3.7c0-4,2.2-8.3,8.3-8.3l6.2,0v7.4h-4.7
				c-0.7,0-1.1,0.4-1.1,1.3v3.3h5.8l-0.8,7.6h-5V48.7z M22.9,47.7h6.7V29h5.1l0.6-5.5h-5.7v-4.4c0-1.7,1.2-2.3,2.1-2.3h3.6v-5.3
				l-5.2,0c-6.7,0-7.3,5.6-7.3,7.3v4.8h-3.7V29h3.7V47.7z"/>
		</g>
	</g>
</g>
</svg>
