<?xml version="1.0" encoding="utf-8"?>
<!-- Generator: Adobe Illustrator 18.1.0, SVG Export Plug-In . SVG Version: 6.00 Build 0)  -->
<svg version="1.1" id="Layer_1" xmlns="http://www.w3.org/2000/svg" xmlns:xlink="http://www.w3.org/1999/xlink" x="0px" y="0px"
	 viewBox="0 0 56 56" style="enable-background:new 0 0 56 56;" xml:space="preserve">
<g style="opacity:0.3;">
	<path style="fill:#FFFFFF;" d="M30.4,16.6c-0.5-0.3-1.1-0.3-1.6,0c0,0-0.1,0-0.1,0.1L21.9,23c-0.1,0-0.2,0.1-0.2,0.1h-4.3
		c-0.9,0-1.6,0.7-1.6,1.6v6.6c0,0.9,0.7,1.6,1.6,1.6h4.3c0.1,0,0.2,0,0.2,0.1l6.8,6.4c0,0,0.1,0.1,0.1,0.1c0.3,0.1,0.5,0.2,0.8,0.2
		c0.3,0,0.5-0.1,0.8-0.2c0.5-0.3,0.8-0.8,0.8-1.4V18C31.2,17.4,30.9,16.9,30.4,16.6L30.4,16.6z M30.2,38c0,0.3-0.2,0.4-0.3,0.5
		c-0.1,0-0.3,0.1-0.5,0l-6.8-6.4c0,0-0.1,0-0.1-0.1c-0.2-0.1-0.5-0.2-0.8-0.2h-4.3c-0.3,0-0.6-0.3-0.6-0.6v-6.6
		c0-0.3,0.3-0.6,0.6-0.6h4.3c0.3,0,0.6-0.1,0.8-0.2c0,0,0.1,0,0.1-0.1l6.8-6.4c0.2-0.1,0.4,0,0.5,0c0.1,0,0.3,0.2,0.3,0.5V38z
		 M30.2,38"/>
</g>
<path style="opacity:0.3;fill:#FFD900;" d="M28,1C13.1,1,1,13.1,1,28s12.1,27,27,27s27-12.1,27-27S42.9,1,28,1z M54,28
	c0,7-2.8,13.3-7.3,18L10,9.3C14.7,4.8,21,2,28,2C42.3,2,54,13.7,54,28z M2,28c0-7,2.8-13.3,7.3-18L46,46.7C41.3,51.2,35,54,28,54
	C13.7,54,2,42.3,2,28z"/>
</svg>
