<?xml version="1.0" encoding="utf-8"?>
<!-- Generator: Adobe Illustrator 18.1.0, SVG Export Plug-In . SVG Version: 6.00 Build 0)  -->
<svg version="1.1" id="Layer_1" xmlns="http://www.w3.org/2000/svg" xmlns:xlink="http://www.w3.org/1999/xlink" x="0px" y="0px"
	 viewBox="0 0 56 56" style="enable-background:new 0 0 56 56;" xml:space="preserve">
<g>
	<g>
		<path style="fill:#FFFFFF;" d="M30.4,16.6c-0.5-0.3-1.1-0.3-1.6,0c0,0-0.1,0-0.1,0.1L21.9,23c-0.1,0-0.2,0.1-0.2,0.1h-4.3
			c-0.9,0-1.6,0.7-1.6,1.6v6.6c0,0.9,0.7,1.6,1.6,1.6h4.3c0.1,0,0.2,0,0.2,0.1l6.8,6.4c0,0,0.1,0.1,0.1,0.1c0.3,0.1,0.5,0.2,0.8,0.2
			c0.3,0,0.5-0.1,0.8-0.2c0.5-0.3,0.8-0.8,0.8-1.4V18C31.2,17.4,30.9,16.9,30.4,16.6L30.4,16.6z M30.2,38c0,0.3-0.2,0.4-0.3,0.5
			c-0.1,0-0.3,0.1-0.5,0l-6.8-6.4c0,0-0.1,0-0.1-0.1c-0.2-0.1-0.5-0.2-0.8-0.2h-4.3c-0.3,0-0.6-0.3-0.6-0.6v-6.6
			c0-0.3,0.3-0.6,0.6-0.6h4.3c0.3,0,0.6-0.1,0.8-0.2c0,0,0.1,0,0.1-0.1l6.8-6.4c0.2-0.1,0.4,0,0.5,0c0.1,0,0.3,0.2,0.3,0.5V38z
			 M30.2,38"/>
		<path style="fill:#FFFFFF;" d="M35,21.7c-0.2-0.2-0.5-0.2-0.7,0c-0.2,0.2-0.2,0.5,0,0.7c3.2,3.2,3.2,8.5,0,11.7
			c-0.2,0.2-0.2,0.5,0,0.7c0.1,0.1,0.2,0.2,0.4,0.2c0.1,0,0.3-0.1,0.4-0.2C38.6,31.2,38.6,25.3,35,21.7L35,21.7z M35,21.7"/>
		<path style="fill:#FFFFFF;" d="M33.1,23.2c-0.2-0.2-0.5-0.2-0.7,0c-0.2,0.2-0.2,0.5,0,0.7c2.2,2.2,2.2,5.8,0,8
			c-0.2,0.2-0.2,0.5,0,0.7c0.1,0.1,0.2,0.2,0.4,0.2c0.1,0,0.3-0.1,0.4-0.2C35.8,30.1,35.8,25.9,33.1,23.2L33.1,23.2z M33.1,23.2"/>
		<path style="fill:#FFFFFF;" d="M36.5,19.1c-0.2-0.2-0.5-0.2-0.7,0c-0.2,0.2-0.2,0.5,0,0.7c2.2,2.2,3.5,5.2,3.5,8.4
			c0,3.2-1.2,6.2-3.5,8.4c-0.2,0.2-0.2,0.5,0,0.7c0.1,0.1,0.2,0.2,0.4,0.2c0.1,0,0.3-0.1,0.4-0.2c2.4-2.4,3.8-5.7,3.8-9.1
			C40.3,24.8,38.9,21.6,36.5,19.1L36.5,19.1z M36.5,19.1"/>
	</g>
	<path style="fill:#FFD900;" d="M28,2c14.3,0,26,11.7,26,26S42.3,54,28,54S2,42.3,2,28S13.7,2,28,2 M28,1C13.1,1,1,13.1,1,28
		s12.1,27,27,27s27-12.1,27-27S42.9,1,28,1L28,1z"/>
</g>
</svg>
