<svg xmlns="http://www.w3.org/2000/svg" viewBox="0 0 670 110"><path fill="#d71015" d="M668.9 2.7L662.1 69 1 108v-.4L7.6 41z"/><g opacity=".15"><path d="M159 75.9l-2.2 5.2-7.9.5L160 55.7l10.1-.6 5.1 24.9-7.9.5-1-5-7.3.4zm2.7-6.3l3.2-.2-1-5.5-2.2 5.7zm22.9 9.8l-7.7.4 3-25.4 7.7-.4-1.1 9.6h.5l6.5-9.9 8.3-.5-8.6 12.8 6.4 12.6-8.3.5-4.5-9.3-1.1.1-1.1 9.5zm24.1-1.3l-7.7.4 3-25.4 7.7-.4-1.1 9.6h.5l6.5-9.9 8.3-.5-8.6 12.8 6.4 12.6-8.3.5-4.5-9.3-1.1.1-1.1 9.5z"/><path d="M233.4 71.6l-2.2 5.2-7.9.5 11.1-25.9 10.1-.6 5.1 24.9-7.9.5-1-5-7.3.4zm2.7-6.3l3.2-.2-1-5.5-2.2 5.7zm35.4-16.1l-11.8 25.9-7.7.4 2.6-5.6-2.7.2-4.8-19.6 7.7-.4 2.9 13h.2l5.9-13.5 7.7-.4zm6.9 24.8l-7.7.4 3-25.4 7.7-.4-1.1 9.6 5.9-.3 1.1-9.6 7.7-.4-3 25.4-7.7.4 1.1-9.6-5.9.3-1.1 9.6zm21.4-1.2l2.2-19.2-5.9.3.7-6.2 19.6-1.1-.7 6.2-5.9.3-2.2 19.2-7.8.5zm38.8-31.9l-3 25.7 14.1-.8-.9 8.2-24.4 1.4 4-33.9 10.2-.6zm42-2.4l-1 8.2-15.1.9-.6 4.8 10.8-.6-.9 7.7-10.8.7-.6 4.8 15.6-.9-.9 8.2-25.9 1.5 4-33.9 25.4-1.4zm26.4-2l5.6 5.5-2.7 23.2-6.9 6.2-17.3 1-5.6-5.4 2.7-23.2 6.9-6.2 17.3-1.1zm-14.3 10L390.8 63l.9.9 7.2-.4 1-1 1.9-16.5-.8-1-7.2.4-1.1 1.1zm43-11.2l10.3-.6-4 33.9-10.1.6-7.3-15h-.2l-1.8 15.5-10.3.6 4-33.9 10.1-.6 7.3 15h.2l1.8-15.5zm9.2 33.1l.9-8.2 9.1-.5-.9 8.2-9.1.5zM471.7 57l-3.4.2-1.2 9.9-10.3.6 4-33.9 22-1.3 5.1 5-1.5 12.1-5.3 4.6 5.3 11.7-10.4.8-4.3-9.7zm4.7-15.9l-6.2.4-.9 7.5 6.2-.4 1-1 .6-5.6-.7-.9zM509.9 31l10.3-.6-3.3 28.6-6.9 6.2-16.3.9-5.6-5.4 3.4-28.6 10.3-.6-3 25.2.9.9 6.2-.4 1-1 3-25.2z"/></g><path d="M156 72.9l-2.2 5.2-7.9.5L157 52.7l10.1-.6 5.1 24.9-7.9.5-1-5-7.3.4zm2.7-6.3l3.2-.2-1-5.5-2.2 5.7zm22.9 9.8l-7.7.4 3-25.4 7.7-.4-1.1 9.6h.5l6.5-9.9 8.3-.5-8.6 12.8 6.4 12.6-8.3.5-4.5-9.3-1.1.1-1.1 9.5zm24.1-1.3l-7.7.4 3-25.4 7.7-.4-1.1 9.6h.5l6.5-9.9 8.3-.5-8.6 12.8 6.4 12.6-8.3.5-4.5-9.3-1.1.1-1.1 9.5z" fill="#fff"/><path d="M230.4 68.6l-2.2 5.2-7.9.5 11.1-25.9 10.1-.6 5.1 24.9-7.9.5-1-5-7.3.4zm2.7-6.3l3.2-.2-1-5.5-2.2 5.7zm35.4-16.1l-11.8 25.9-7.7.4 2.6-5.6-2.7.2-4.8-19.6 7.7-.4 2.9 13h.2l5.9-13.5 7.7-.4zm6.9 24.8l-7.7.4 3-25.4 7.7-.4-1.1 9.6 5.9-.3 1.1-9.6 7.7-.4-3 25.4-7.7.4 1.1-9.6-5.9.3-1.1 9.6zm21.4-1.2l2.2-19.2-5.9.3.7-6.2 19.6-1.1-.7 6.2-5.9.3-2.2 19.2-7.8.5z" fill="#fff"/><path d="M335.6 37.9l-3 25.7 14.1-.8-.9 8.2-24.4 1.4 4-33.9 10.2-.6zm42-2.4l-1 8.2-15.1.9-.6 4.8 10.8-.6-.9 7.7-10.8.7-.6 4.8 15.6-.9-.9 8.2-25.9 1.5 4-33.9 25.4-1.4zm26.4-2l5.6 5.5-2.7 23.2-6.9 6.2-17.3 1-5.6-5.4 2.7-23.2 6.9-6.2 17.3-1.1zm-14.3 10L387.8 60l.9.9 7.2-.4 1-1 1.9-16.5-.8-1-7.2.4-1.1 1.1zm43-11.2l10.3-.6-4 33.9-10.1.6-7.3-15h-.2l-1.8 15.5-10.3.6 4-33.9 10.1-.6 7.3 15h.2l1.8-15.5zm9.2 33.1l.9-8.2 9.1-.5-.9 8.2-9.1.5zM468.7 54l-3.4.2-1.2 9.9-10.3.6 4-33.9 22-1.3 5.1 5-1.5 12.1-5.3 4.6 5.3 11.7-10.4.8-4.3-9.7zm4.7-15.9l-6.2.4-.9 7.5 6.2-.4 1-1 .6-5.6-.7-.9zM506.9 28l10.3-.6-3.3 28.6-6.9 6.2-16.3.9-5.6-5.4 3.4-28.6 10.3-.6-3 25.2.9.9 6.2-.4 1-1 3-25.2z" fill="#fdc000"/></svg>