<?xml version="1.0" encoding="utf-8"?>
<!-- Generator: Adobe Illustrator 20.1.0, SVG Export Plug-In . SVG Version: 6.00 Build 0)  -->
<svg version="1.1" id="Layer_1" xmlns="http://www.w3.org/2000/svg" xmlns:xlink="http://www.w3.org/1999/xlink" x="0px" y="0px"
	 viewBox="0 0 670 110" style="enable-background:new 0 0 670 110;" xml:space="preserve">
<polygon id="bg" style="fill:#D71015;" points="668.9,2.7 662.1,69 662.1,69 1,108 1,108 1,107.6 7.6,41 7.6,41 "/>
<g id="_x32_-3">
	<g style="opacity:0.15;">
		<path d="M193.9,68.5l-0.7,6l-5.4,4.8l-17.1,1l3-25.4l16-0.9l4.3,4.3l-0.6,5.6l-2.2,1.9L193.9,68.5z M185.7,72.6l0.2-1.8l-1.3-1.2
			l-5,0.3l-0.5,3.8l5.8-0.3L185.7,72.6z M185.4,60.3l-4.7,0.3l-0.4,3.4l4.3-0.2l1.2-1L186,61L185.4,60.3z"/>
		<path d="M217.4,67.1l-0.7,6l-5.4,4.8l-17.1,1l3-25.4l16-0.9l4.3,4.3l-0.6,5.6l-2.2,1.9L217.4,67.1z M209.3,71.2l0.2-1.8l-1.3-1.2
			l-5,0.3l-0.5,3.8l5.8-0.3L209.3,71.2z M208.9,59l-4.7,0.3l-0.4,3.4l4.3-0.2l1.2-1l0.2-1.8L208.9,59z"/>
		<path d="M239.8,51.1l-0.7,6.2l-11.3,0.7l-0.4,3.6l8.1-0.5l-0.7,5.8l-8.1,0.5l-0.4,3.6l11.7-0.7l-0.7,6.2l-19.4,1.1l3-25.4
			L239.8,51.1z"/>
		<path d="M240.6,70.1l2.8-2.5l3.1-16.9l18.3-1.1l-2.3,19.2l2.7-0.2l-1.3,11.6l-7.7,0.4l0.7-5.4l-10.2,0.6l-0.7,5.4l-7.7,0.4
			l1.3-11.6L240.6,70.1z M248.9,69.7l5.9-0.3l1.6-13.1l-3.4,0.2l-2.1,11.5L248.9,69.7z"/>
		<path d="M280.4,74l1.3-11.6l-0.2,0l-8,12l-7.2,0.4l3-25.4l7.7-0.4l-1.3,11.6l0.2,0l8-12l7.2-0.4l-3,25.4L280.4,74z"/>
		<path d="M299.4,68.7l3.8-3.3l4.1-22.6l24.4-1.4l-3,25.7l3.6-0.2l-1.8,15.5l-10.3,0.6l0.9-7.3l-13.7,0.8l-0.9,7.3l-10.3,0.6
			l1.8-15.5L299.4,68.7z M310.4,68.1l7.9-0.5l2.1-17.4l-4.6,0.3l-2.8,15.3L310.4,68.1z"/>
		<path d="M344.8,67.5l-2.9,6.9L331.3,75l14.7-34.5l13.4-0.8l6.8,33.3l-10.5,0.6l-1.4-6.7L344.8,67.5z M348.4,59.2l4.3-0.2l-1.3-7.4
			L348.4,59.2z"/>
		<path d="M378,72.3l-10.3,0.6l4-33.9l10.3-0.6l-1.5,12.8l7.9-0.5l1.5-12.8l10.3-0.6l-4,33.9l-10.3,0.6l1.5-12.8l-7.9,0.5L378,72.3z
			"/>
		<path d="M409.4,70.5l-10.3,0.6l4-33.9l10.3-0.6l-1.5,12.8l7.9-0.5l1.5-12.8l10.3-0.6l-4,33.9l-10.3,0.6l1.5-12.8l-7.9,0.5
			L409.4,70.5z"/>
		<path d="M454.8,44.8l5.1,5l-1.5,12.6l-6.4,5.7l-21.6,1.2l4-33.9l10.3-0.6l-1.3,10.7L454.8,44.8z M448.6,59.1l0.6-4.8l-0.9-0.9
			l-5.8,0.3l-0.8,6.8l5.8-0.3L448.6,59.1z M472,66.9l-10.3,0.6l4-33.9l10.3-0.6L472,66.9z"/>
		<path d="M504.2,31.4l-1,8.2l-15.1,0.9l-0.6,4.8l10.8-0.6l-0.9,7.7l-10.8,0.6l-0.6,4.8l15.6-0.9l-0.9,8.2l-25.9,1.5l4-33.9
			L504.2,31.4z"/>
	</g>
	<g>
		<g>
			<path style="fill:#FFFFFF;" d="M190.9,65.5l-0.7,6l-5.4,4.8l-17.1,1l3-25.4l16-0.9l4.3,4.3l-0.6,5.6l-2.2,1.9L190.9,65.5z
				 M182.7,69.6l0.2-1.8l-1.3-1.2l-5,0.3l-0.5,3.8l5.8-0.3L182.7,69.6z M182.4,57.3l-4.7,0.3l-0.4,3.4l4.3-0.2l1.2-1L183,58
				L182.4,57.3z"/>
			<path style="fill:#FFFFFF;" d="M214.4,64.1l-0.7,6l-5.4,4.8l-17.1,1l3-25.4l16-0.9l4.3,4.3l-0.6,5.6l-2.2,1.9L214.4,64.1z
				 M206.3,68.2l0.2-1.8l-1.3-1.2l-5,0.3l-0.5,3.8l5.8-0.3L206.3,68.2z M205.9,56l-4.7,0.3l-0.4,3.4l4.3-0.2l1.2-1l0.2-1.8L205.9,56
				z"/>
			<path style="fill:#FFFFFF;" d="M236.8,48.1l-0.7,6.2l-11.3,0.7l-0.4,3.6l8.1-0.5l-0.7,5.8l-8.1,0.5l-0.4,3.6l11.7-0.7l-0.7,6.2
				l-19.4,1.1l3-25.4L236.8,48.1z"/>
			<path style="fill:#FFFFFF;" d="M237.6,67.1l2.8-2.5l3.1-16.9l18.3-1.1l-2.3,19.2l2.7-0.2l-1.3,11.6l-7.7,0.4l0.7-5.4l-10.2,0.6
				l-0.7,5.4l-7.7,0.4l1.3-11.6L237.6,67.1z M245.9,66.7l5.9-0.3l1.6-13.1l-3.4,0.2l-2.1,11.5L245.9,66.7z"/>
			<path style="fill:#FFFFFF;" d="M277.4,71l1.3-11.6l-0.2,0l-8,12l-7.2,0.4l3-25.4l7.7-0.4l-1.3,11.6l0.2,0l8-12l7.2-0.4l-3,25.4
				L277.4,71z"/>
			<path style="fill:#FDC000;" d="M296.4,65.7l3.8-3.3l4.1-22.6l24.4-1.4l-3,25.7l3.6-0.2l-1.8,15.5l-10.3,0.6l0.9-7.3l-13.7,0.8
				l-0.9,7.3l-10.3,0.6l1.8-15.5L296.4,65.7z M307.4,65.1l7.9-0.5l2.1-17.4l-4.6,0.3l-2.8,15.3L307.4,65.1z"/>
			<path style="fill:#FDC000;" d="M341.8,64.5l-2.9,6.9L328.3,72l14.7-34.5l13.4-0.8l6.8,33.3l-10.5,0.6l-1.4-6.7L341.8,64.5z
				 M345.4,56.2l4.3-0.2l-1.3-7.4L345.4,56.2z"/>
			<path style="fill:#FDC000;" d="M375,69.3l-10.3,0.6l4-33.9l10.3-0.6l-1.5,12.8l7.9-0.5l1.5-12.8l10.3-0.6l-4,33.9l-10.3,0.6
				l1.5-12.8l-7.9,0.5L375,69.3z"/>
			<path style="fill:#FDC000;" d="M406.4,67.5l-10.3,0.6l4-33.9l10.3-0.6l-1.5,12.8l7.9-0.5l1.5-12.8l10.3-0.6l-4,33.9l-10.3,0.6
				l1.5-12.8l-7.9,0.5L406.4,67.5z"/>
			<path style="fill:#FDC000;" d="M451.8,41.8l5.1,5l-1.5,12.6l-6.4,5.7l-21.6,1.2l4-33.9l10.3-0.6l-1.3,10.7L451.8,41.8z
				 M445.6,56.1l0.6-4.8l-0.9-0.9l-5.8,0.3l-0.8,6.8l5.8-0.3L445.6,56.1z M469,63.9l-10.3,0.6l4-33.9l10.3-0.6L469,63.9z"/>
			<path style="fill:#FDC000;" d="M501.2,28.4l-1,8.2l-15.1,0.9l-0.6,4.8l10.8-0.6l-0.9,7.7l-10.8,0.6l-0.6,4.8l15.6-0.9l-0.9,8.2
				l-25.9,1.5l4-33.9L501.2,28.4z"/>
		</g>
	</g>
</g>
</svg>
