<svg xmlns="http://www.w3.org/2000/svg" viewBox="0 0 670 110"><path fill="#d71015" d="M668.9 2.7L662.1 69 1 108v-.4L7.6 41z"/><g opacity=".15"><path d="M193.9 68.5l-.7 6-5.4 4.8-17.1 1 3-25.4 16-.9 4.3 4.3-.6 5.6-2.2 1.9 2.7 2.7zm-8.2 4.1l.2-1.8-1.3-1.2-5 .3-.5 3.8 5.8-.3.8-.8zm-.3-12.3l-4.7.3-.4 3.4 4.3-.2 1.2-1 .2-1.8-.6-.7zm32 6.8l-.7 6-5.4 4.8-17.1 1 3-25.4 16-.9 4.3 4.3-.6 5.6-2.2 1.9 2.7 2.7zm-8.1 4.1l.2-1.8-1.3-1.2-5 .3-.5 3.8 5.8-.3.8-.8zm-.4-12.2l-4.7.3-.4 3.4 4.3-.2 1.2-1 .2-1.8-.6-.7zm30.9-7.9l-.7 6.2-11.3.7-.4 3.6 8.1-.5-.7 5.8-8.1.5-.4 3.6 11.7-.7-.7 6.2-19.4 1.1 3-25.4 18.9-1.1zm.8 19l2.8-2.5 3.1-16.9 18.3-1.1-2.3 19.2 2.7-.2-1.3 11.6-7.7.4.7-5.4-10.2.6-.7 5.4-7.7.4 1.3-11.6 1 .1zm8.3-.4l5.9-.3 1.6-13.1-3.4.2-2.1 11.5-2 1.7zm31.5 4.3l1.3-11.6h-.2l-8 12-7.2.4 3-25.4 7.7-.4-1.3 11.6h.2l8-12 7.2-.4-3 25.4-7.7.4zm19-5.3l3.8-3.3 4.1-22.6 24.4-1.4-3 25.7 3.6-.2-1.8 15.5-10.3.6.9-7.3-13.7.8-.9 7.3-10.3.6 1.8-15.5 1.4-.2zm11-.6l7.9-.5 2.1-17.4-4.6.3-2.8 15.3-2.6 2.3z"/><path d="M344.8 67.5l-2.9 6.9-10.6.6L346 40.5l13.4-.8 6.8 33.3-10.5.6-1.4-6.7-9.5.6zm3.6-8.3l4.3-.2-1.3-7.4-3 7.6zM378 72.3l-10.3.6 4-33.9 10.3-.6-1.5 12.8 7.9-.5 1.5-12.8 10.3-.6-4 33.9-10.3.6 1.5-12.8-7.9.5-1.5 12.8zm31.4-1.8l-10.3.6 4-33.9 10.3-.6-1.5 12.8 7.9-.5 1.5-12.8 10.3-.6-4 33.9-10.3.6 1.5-12.8-7.9.5-1.5 12.8zm45.4-25.7l5.1 5-1.5 12.6-6.4 5.7-21.6 1.2 4-33.9 10.3-.6-1.3 10.7 11.4-.7zm-6.2 14.3l.6-4.8-.9-.9-5.8.3-.8 6.8 5.8-.3 1.1-1.1zm23.4 7.8l-10.3.6 4-33.9L476 33l-4 33.9zm32.2-35.5l-1 8.2-15.1.9-.6 4.8 10.8-.6-.9 7.7-10.8.6-.6 4.8 15.6-.9-.9 8.2-25.9 1.5 4-33.9 25.4-1.3z"/></g><path d="M190.9 65.5l-.7 6-5.4 4.8-17.1 1 3-25.4 16-.9 4.3 4.3-.6 5.6-2.2 1.9 2.7 2.7zm-8.2 4.1l.2-1.8-1.3-1.2-5 .3-.5 3.8 5.8-.3.8-.8zm-.3-12.3l-4.7.3-.4 3.4 4.3-.2 1.2-1 .2-1.8-.6-.7zm32 6.8l-.7 6-5.4 4.8-17.1 1 3-25.4 16-.9 4.3 4.3-.6 5.6-2.2 1.9 2.7 2.7zm-8.1 4.1l.2-1.8-1.3-1.2-5 .3-.5 3.8 5.8-.3.8-.8zm-.4-12.2l-4.7.3-.4 3.4 4.3-.2 1.2-1 .2-1.8-.6-.7zm30.9-7.9l-.7 6.2-11.3.7-.4 3.6 8.1-.5-.7 5.8-8.1.5-.4 3.6 11.7-.7-.7 6.2-19.4 1.1 3-25.4 18.9-1.1zm.8 19l2.8-2.5 3.1-16.9 18.3-1.1-2.3 19.2 2.7-.2-1.3 11.6-7.7.4.7-5.4-10.2.6-.7 5.4-7.7.4 1.3-11.6 1 .1zm8.3-.4l5.9-.3 1.6-13.1-3.4.2-2.1 11.5-2 1.7zm31.5 4.3l1.3-11.6h-.2l-8 12-7.2.4 3-25.4 7.7-.4-1.3 11.6h.2l8-12 7.2-.4-3 25.4-7.7.4z" fill="#fff"/><path d="M296.4 65.7l3.8-3.3 4.1-22.6 24.4-1.4-3 25.7 3.6-.2-1.8 15.5-10.3.6.9-7.3-13.7.8-.9 7.3-10.3.6 1.8-15.5 1.4-.2zm11-.6l7.9-.5 2.1-17.4-4.6.3-2.8 15.3-2.6 2.3z" fill="#fdc000"/><path d="M341.8 64.5l-2.9 6.9-10.6.6L343 37.5l13.4-.8 6.8 33.3-10.5.6-1.4-6.7-9.5.6zm3.6-8.3l4.3-.2-1.3-7.4-3 7.6zM375 69.3l-10.3.6 4-33.9 10.3-.6-1.5 12.8 7.9-.5 1.5-12.8 10.3-.6-4 33.9-10.3.6 1.5-12.8-7.9.5-1.5 12.8zm31.4-1.8l-10.3.6 4-33.9 10.3-.6-1.5 12.8 7.9-.5 1.5-12.8 10.3-.6-4 33.9-10.3.6 1.5-12.8-7.9.5-1.5 12.8zm45.4-25.7l5.1 5-1.5 12.6-6.4 5.7-21.6 1.2 4-33.9 10.3-.6-1.3 10.7 11.4-.7zm-6.2 14.3l.6-4.8-.9-.9-5.8.3-.8 6.8 5.8-.3 1.1-1.1zm23.4 7.8l-10.3.6 4-33.9L473 30l-4 33.9zm32.2-35.5l-1 8.2-15.1.9-.6 4.8 10.8-.6-.9 7.7-10.8.6-.6 4.8 15.6-.9-.9 8.2-25.9 1.5 4-33.9 25.4-1.3z" fill="#fdc000"/></svg>