<?xml version="1.0" encoding="utf-8"?>
<!-- Generator: Adobe Illustrator 20.1.0, SVG Export Plug-In . SVG Version: 6.00 Build 0)  -->
<svg version="1.1" id="Layer_1" xmlns="http://www.w3.org/2000/svg" xmlns:xlink="http://www.w3.org/1999/xlink" x="0px" y="0px"
	 viewBox="0 0 670 110" style="enable-background:new 0 0 670 110;" xml:space="preserve">
<polygon id="bg" style="fill:#D71015;" points="668.9,2.7 662.1,69 662.1,69 1,108 1,108 1,107.6 7.6,41 7.6,41 "/>
<g id="_x34_">
	<g style="opacity:0.15;">
		<path d="M171.4,80.6l-14.7,0.8l-4.2-4.1l2-16.7l5.2-4.6l14.7-0.8l-0.7,6.2l-11,0.6l-0.8,0.8l-1.3,11.6l0.6,0.7l11-0.6L171.4,80.6z
			"/>
		<path d="M179.7,80.1l2.2-19.2l-5.9,0.3l0.7-6.2l19.6-1.1l-0.7,6.2l-5.9,0.3l-2.2,19.2L179.7,80.1z"/>
		<path d="M200.2,73.9L198,79l-7.9,0.5l11.1-25.9l10.1-0.6l5.1,24.9l-7.9,0.5l-1-5L200.2,73.9z M202.9,67.6l3.2-0.2l-1-5.5
			L202.9,67.6z"/>
		<path d="M241.6,66.1l-0.7,6l-5.4,4.8l-17.1,1l3-25.4l16-0.9l4.3,4.3l-0.6,5.6l-2.2,1.9L241.6,66.1z M233.5,70.1l0.2-1.8l-1.3-1.2
			l-5,0.3l-0.5,3.8l5.7-0.3L233.5,70.1z M233.1,57.9l-4.7,0.3l-0.4,3.4l4.3-0.2l1.2-1l0.2-1.8L233.1,57.9z"/>
		<path d="M250.8,76l-7.7,0.4l3-25.4l7.7-0.4l-1.1,9.6l0.5,0l6.5-9.9l8.3-0.5l-8.6,12.8l6.4,12.6l-8.3,0.5l-4.5-9.3l-1.1,0.1
			L250.8,76z"/>
		<path d="M275.8,69.5l-2.2,5.2l-7.9,0.5l11.1-25.9l10.1-0.6l5.1,24.9l-7.9,0.5l-1-5L275.8,69.5z M278.5,63.2l3.2-0.2l-1-5.5
			L278.5,63.2z"/>
		<path d="M337.9,41.3l-4,33.9l-10.3,0.6l3-25.7l-7.9,0.5l-3,25.7l-10.3,0.6l4-33.9L337.9,41.3z"/>
		<path d="M347.6,65.5l-1,9l-10.3,0.6l4-33.9l22.5-1.3l5.1,5l-1.7,14.3l-6.4,5.7L347.6,65.5z M356.3,48.4l-6.7,0.4l-1,8.5l6.7-0.4
			l1.1-1l0.7-6.5L356.3,48.4z"/>
		<path d="M386.1,72.2l1.8-15.5l-0.2,0l-10.7,16l-9.6,0.6l4-33.9l10.3-0.6l-1.8,15.5l0.2,0l10.7-16l9.6-0.6l-4,33.9L386.1,72.2z"/>
		<path d="M410.1,70.8l-10.3,0.6l4-33.9l10.3-0.6l-1.5,12.8l7.9-0.5l1.5-12.8l10.3-0.6l-4,33.9L418,70.4l1.5-12.8l-7.9,0.5
			L410.1,70.8z"/>
		<path d="M434.3,53.1l1.5-12.1l6.4-5.7l22.3-1.3l-4,33.9l-10.3,0.6l1.2-9.9l-3.4,0.2L440.8,69L430,69.7l9.1-12.3L434.3,53.1z
			 M445.5,44.2l-0.6,5.6l0.9,0.9l6.5-0.4l0.9-7.5l-6.5,0.4L445.5,44.2z"/>
		<path d="M471.2,67.3l3-25.7l-7.9,0.5l1-8.2l26.1-1.5l-1,8.2l-7.9,0.5l-3,25.7L471.2,67.3z"/>
		<path d="M498.6,59l-2.9,6.9l-10.5,0.6L499.8,32l13.4-0.8l6.8,33.3l-10.5,0.6l-1.4-6.7L498.6,59z M502.2,50.6l4.3-0.2l-1.3-7.4
			L502.2,50.6z"/>
	</g>
	<g>
		<g>
			<path style="fill:#FFFFFF;" d="M168.4,77.6l-14.7,0.8l-4.2-4.1l2-16.7l5.2-4.6l14.7-0.8l-0.7,6.2l-11,0.6l-0.8,0.8l-1.3,11.6
				l0.6,0.7l11-0.6L168.4,77.6z"/>
			<path style="fill:#FFFFFF;" d="M176.7,77.1l2.2-19.2l-5.9,0.3l0.7-6.2l19.6-1.1l-0.7,6.2l-5.9,0.3l-2.2,19.2L176.7,77.1z"/>
			<path style="fill:#FFFFFF;" d="M197.2,70.9L195,76l-7.9,0.5l11.1-25.9l10.1-0.6l5.1,24.9l-7.9,0.5l-1-5L197.2,70.9z M199.9,64.6
				l3.2-0.2l-1-5.5L199.9,64.6z"/>
			<path style="fill:#FFFFFF;" d="M238.6,63.1l-0.7,6l-5.4,4.8l-17.1,1l3-25.4l16-0.9l4.3,4.3l-0.6,5.6l-2.2,1.9L238.6,63.1z
				 M230.5,67.1l0.2-1.8l-1.3-1.2l-5,0.3l-0.5,3.8l5.7-0.3L230.5,67.1z M230.1,54.9l-4.7,0.3l-0.4,3.4l4.3-0.2l1.2-1l0.2-1.8
				L230.1,54.9z"/>
			<path style="fill:#FFFFFF;" d="M247.8,73l-7.7,0.4l3-25.4l7.7-0.4l-1.1,9.6l0.5,0l6.5-9.9l8.3-0.5l-8.6,12.8l6.4,12.6l-8.3,0.5
				l-4.5-9.3l-1.1,0.1L247.8,73z"/>
			<path style="fill:#FFFFFF;" d="M272.8,66.5l-2.2,5.2l-7.9,0.5l11.1-25.9l10.1-0.6l5.1,24.9l-7.9,0.5l-1-5L272.8,66.5z
				 M275.5,60.2l3.2-0.2l-1-5.5L275.5,60.2z"/>
			<path style="fill:#FDC000;" d="M334.9,38.3l-4,33.9l-10.3,0.6l3-25.7l-7.9,0.5l-3,25.7l-10.3,0.6l4-33.9L334.9,38.3z"/>
			<path style="fill:#FDC000;" d="M344.6,62.5l-1,9l-10.3,0.6l4-33.9l22.5-1.3l5.1,5l-1.7,14.3l-6.4,5.7L344.6,62.5z M353.3,45.4
				l-6.7,0.4l-1,8.5l6.7-0.4l1.1-1l0.7-6.5L353.3,45.4z"/>
			<path style="fill:#FDC000;" d="M383.1,69.2l1.8-15.5l-0.2,0l-10.7,16l-9.6,0.6l4-33.9l10.3-0.6l-1.8,15.5l0.2,0l10.7-16l9.6-0.6
				l-4,33.9L383.1,69.2z"/>
			<path style="fill:#FDC000;" d="M407.1,67.8l-10.3,0.6l4-33.9l10.3-0.6l-1.5,12.8l7.9-0.5l1.5-12.8l10.3-0.6l-4,33.9L415,67.4
				l1.5-12.8l-7.9,0.5L407.1,67.8z"/>
			<path style="fill:#FDC000;" d="M431.3,50.1l1.5-12.1l6.4-5.7l22.3-1.3l-4,33.9l-10.3,0.6l1.2-9.9l-3.4,0.2L437.8,66L427,66.7
				l9.1-12.3L431.3,50.1z M442.5,41.2l-0.6,5.6l0.9,0.9l6.5-0.4l0.9-7.5l-6.5,0.4L442.5,41.2z"/>
			<path style="fill:#FDC000;" d="M468.2,64.3l3-25.7l-7.9,0.5l1-8.2l26.1-1.5l-1,8.2l-7.9,0.5l-3,25.7L468.2,64.3z"/>
			<path style="fill:#FDC000;" d="M495.6,56l-2.9,6.9l-10.5,0.6L496.8,29l13.4-0.8l6.8,33.3l-10.5,0.6l-1.4-6.7L495.6,56z
				 M499.2,47.6l4.3-0.2l-1.3-7.4L499.2,47.6z"/>
		</g>
	</g>
</g>
</svg>
