<svg xmlns="http://www.w3.org/2000/svg" viewBox="0 0 670 110"><path fill="#d71015" d="M668.9 2.7L662.1 69 1 108v-.4L7.6 41z"/><g opacity=".15"><path d="M171.4 80.6l-14.7.8-4.2-4.1 2-16.7 5.2-4.6 14.7-.8-.7 6.2-11 .6-.8.8-1.3 11.6.6.7 11-.6-.8 6.1zm8.3-.5l2.2-19.2-5.9.3.7-6.2 19.6-1.1-.7 6.2-5.9.3-2.2 19.2-7.8.5zm20.5-6.2L198 79l-7.9.5 11.1-25.9 10.1-.6 5.1 24.9-7.9.5-1-5-7.3.5zm2.7-6.3l3.2-.2-1-5.5-2.2 5.7zm38.7-1.5l-.7 6-5.4 4.8-17.1 1 3-25.4 16-.9 4.3 4.3-.6 5.6-2.2 1.9 2.7 2.7zm-8.1 4l.2-1.8-1.3-1.2-5 .3-.5 3.8 5.7-.3.9-.8zm-.4-12.2l-4.7.3-.4 3.4 4.3-.2 1.2-1 .2-1.8-.6-.7zM250.8 76l-7.7.4 3-25.4 7.7-.4-1.1 9.6h.5l6.5-9.9 8.3-.5-8.6 12.8 6.4 12.6-8.3.5-4.5-9.3-1.1.1-1.1 9.5z"/><path d="M275.8 69.5l-2.2 5.2-7.9.5 11.1-25.9 10.1-.6 5.1 24.9-7.9.5-1-5-7.3.4zm2.7-6.3l3.2-.2-1-5.5-2.2 5.7zm59.4-21.9l-4 33.9-10.3.6 3-25.7-7.9.5-3 25.7-10.3.6 4-33.9 28.5-1.7zm9.7 24.2l-1 9-10.3.6 4-33.9 22.5-1.3 5.1 5-1.7 14.3-6.4 5.7-12.2.6zm8.7-17.1l-6.7.4-1 8.5 6.7-.4 1.1-1 .7-6.5-.8-1zm29.8 23.8l1.8-15.5h-.2l-10.7 16-9.6.6 4-33.9 10.3-.6-1.8 15.5h.2l10.7-16 9.6-.6-4 33.9-10.3.6zm24-1.4l-10.3.6 4-33.9 10.3-.6-1.5 12.8 7.9-.5 1.5-12.8 10.3-.6-4 33.9-10.3.7 1.5-12.8-7.9.5-1.5 12.7zm24.2-17.7l1.5-12.1 6.4-5.7 22.3-1.3-4 33.9-10.3.6 1.2-9.9-3.4.2-7.2 10.2-10.8.7 9.1-12.3-4.8-4.3zm11.2-8.9l-.6 5.6.9.9 6.5-.4.9-7.5-6.5.4-1.2 1zm25.7 23.1l3-25.7-7.9.5 1-8.2 26.1-1.5-1 8.2-7.9.5-3 25.7-10.3.5zm27.4-8.3l-2.9 6.9-10.5.6L499.8 32l13.4-.8 6.8 33.3-10.5.6-1.4-6.7-9.5.6zm3.6-8.4l4.3-.2-1.3-7.4-3 7.6z"/></g><path d="M168.4 77.6l-14.7.8-4.2-4.1 2-16.7 5.2-4.6 14.7-.8-.7 6.2-11 .6-.8.8-1.3 11.6.6.7 11-.6-.8 6.1zm8.3-.5l2.2-19.2-5.9.3.7-6.2 19.6-1.1-.7 6.2-5.9.3-2.2 19.2-7.8.5zm20.5-6.2L195 76l-7.9.5 11.1-25.9 10.1-.6 5.1 24.9-7.9.5-1-5-7.3.5zm2.7-6.3l3.2-.2-1-5.5-2.2 5.7zm38.7-1.5l-.7 6-5.4 4.8-17.1 1 3-25.4 16-.9 4.3 4.3-.6 5.6-2.2 1.9 2.7 2.7zm-8.1 4l.2-1.8-1.3-1.2-5 .3-.5 3.8 5.7-.3.9-.8zm-.4-12.2l-4.7.3-.4 3.4 4.3-.2 1.2-1 .2-1.8-.6-.7zM247.8 73l-7.7.4 3-25.4 7.7-.4-1.1 9.6h.5l6.5-9.9 8.3-.5-8.6 12.8 6.4 12.6-8.3.5-4.5-9.3-1.1.1-1.1 9.5z" fill="#fff"/><path d="M272.8 66.5l-2.2 5.2-7.9.5 11.1-25.9 10.1-.6 5.1 24.9-7.9.5-1-5-7.3.4zm2.7-6.3l3.2-.2-1-5.5-2.2 5.7z" fill="#fff"/><path d="M334.9 38.3l-4 33.9-10.3.6 3-25.7-7.9.5-3 25.7-10.3.6 4-33.9 28.5-1.7zm9.7 24.2l-1 9-10.3.6 4-33.9 22.5-1.3 5.1 5-1.7 14.3-6.4 5.7-12.2.6zm8.7-17.1l-6.7.4-1 8.5 6.7-.4 1.1-1 .7-6.5-.8-1zm29.8 23.8l1.8-15.5h-.2l-10.7 16-9.6.6 4-33.9 10.3-.6-1.8 15.5h.2l10.7-16 9.6-.6-4 33.9-10.3.6zm24-1.4l-10.3.6 4-33.9 10.3-.6-1.5 12.8 7.9-.5 1.5-12.8 10.3-.6-4 33.9-10.3.7 1.5-12.8-7.9.5-1.5 12.7zm24.2-17.7l1.5-12.1 6.4-5.7 22.3-1.3-4 33.9-10.3.6 1.2-9.9-3.4.2-7.2 10.2-10.8.7 9.1-12.3-4.8-4.3zm11.2-8.9l-.6 5.6.9.9 6.5-.4.9-7.5-6.5.4-1.2 1zm25.7 23.1l3-25.7-7.9.5 1-8.2 26.1-1.5-1 8.2-7.9.5-3 25.7-10.3.5zm27.4-8.3l-2.9 6.9-10.5.6L496.8 29l13.4-.8 6.8 33.3-10.5.6-1.4-6.7-9.5.6zm3.6-8.4l4.3-.2-1.3-7.4-3 7.6z" fill="#fdc000"/></svg>