<?xml version="1.0" encoding="utf-8"?>
<!-- Generator: Adobe Illustrator 20.1.0, SVG Export Plug-In . SVG Version: 6.00 Build 0)  -->
<svg version="1.1" id="Layer_1" xmlns="http://www.w3.org/2000/svg" xmlns:xlink="http://www.w3.org/1999/xlink" x="0px" y="0px"
	 viewBox="0 0 670 110" style="enable-background:new 0 0 670 110;" xml:space="preserve">
<polygon id="bg" style="fill:#D71015;" points="668.9,2.7 662.1,69 662.1,69 1,108 1,108 1,107.6 7.6,41 7.6,41 "/>
<g id="_x31_">
	<g style="opacity:0.15;">
		<path d="M159,75.9l-2.2,5.2l-7.9,0.5l11.1-25.9l10.1-0.6l5.1,24.9l-7.9,0.5l-1-5L159,75.9z M161.7,69.6l3.2-0.2l-1-5.5L161.7,69.6
			z"/>
		<path d="M184.6,79.4l-7.7,0.4l3-25.4l7.7-0.4l-1.1,9.6l0.5,0l6.5-9.9l8.3-0.5L193.2,66l6.4,12.6l-8.3,0.5l-4.5-9.3l-1.1,0.1
			L184.6,79.4z"/>
		<path d="M208.7,78.1l-7.7,0.4l3-25.4l7.7-0.4l-1.1,9.6l0.5,0l6.5-9.9l8.3-0.5l-8.6,12.8l6.4,12.6l-8.3,0.5l-4.5-9.3l-1.1,0.1
			L208.7,78.1z"/>
		<path d="M233.4,71.6l-2.2,5.2l-7.9,0.5l11.1-25.9l10.1-0.6l5.1,24.9l-7.9,0.5l-1-5L233.4,71.6z M236.1,65.3l3.2-0.2l-1-5.5
			L236.1,65.3z"/>
		<path d="M271.5,49.2l-11.8,25.9l-7.7,0.4l2.6-5.6l-2.7,0.2l-4.8-19.6l7.7-0.4l2.9,13l0.2,0l5.9-13.5L271.5,49.2z"/>
		<path d="M278.4,74l-7.7,0.4l3-25.4l7.7-0.4l-1.1,9.6l5.9-0.3l1.1-9.6l7.7-0.4l-3,25.4l-7.7,0.4l1.1-9.6l-5.9,0.3L278.4,74z"/>
		<path d="M299.8,72.8l2.2-19.2l-5.9,0.3l0.7-6.2l19.6-1.1l-0.7,6.2l-5.9,0.3l-2.2,19.2L299.8,72.8z"/>
		<path d="M338.6,40.9l-3,25.7l14.1-0.8l-0.9,8.2l-24.4,1.4l4-33.9L338.6,40.9z"/>
		<path d="M380.6,38.5l-1,8.2l-15.1,0.9l-0.6,4.8l10.8-0.6l-0.9,7.7L363,60.2l-0.6,4.8l15.6-0.9l-0.9,8.2l-25.9,1.5l4-33.9
			L380.6,38.5z"/>
		<path d="M407,36.5l5.6,5.5l-2.7,23.2l-6.9,6.2l-17.3,1l-5.6-5.4l2.7-23.2l6.9-6.2L407,36.5z M392.7,46.5l-1.9,16.5l0.9,0.9
			l7.2-0.4l1-1l1.9-16.5L401,45l-7.2,0.4L392.7,46.5z"/>
		<path d="M435.7,35.3l10.3-0.6l-4,33.9l-10.1,0.6l-7.3-15l-0.2,0l-1.8,15.5l-10.3,0.6l4-33.9l10.1-0.6l7.3,15l0.2,0L435.7,35.3z"/>
		<path d="M444.9,68.4l0.9-8.2l9.1-0.5l-0.9,8.2L444.9,68.4z"/>
		<path d="M471.7,57l-3.4,0.2l-1.2,9.9l-10.3,0.6l4-33.9l22-1.3l5.1,5l-1.5,12.1l-5.3,4.6l5.3,11.7L476,66.7L471.7,57z M476.4,41.1
			l-6.2,0.4l-0.9,7.5l6.2-0.4l1-1l0.6-5.6L476.4,41.1z"/>
		<path d="M509.9,31l10.3-0.6L516.9,59l-6.9,6.2l-16.3,0.9l-5.6-5.4l3.4-28.6l10.3-0.6l-3,25.2l0.9,0.9l6.2-0.4l1-1L509.9,31z"/>
	</g>
	<g>
		<g>
			<path style="fill:#FFFFFF;" d="M156,72.9l-2.2,5.2l-7.9,0.5l11.1-25.9l10.1-0.6l5.1,24.9l-7.9,0.5l-1-5L156,72.9z M158.7,66.6
				l3.2-0.2l-1-5.5L158.7,66.6z"/>
			<path style="fill:#FFFFFF;" d="M181.6,76.4l-7.7,0.4l3-25.4l7.7-0.4l-1.1,9.6l0.5,0l6.5-9.9l8.3-0.5L190.2,63l6.4,12.6l-8.3,0.5
				l-4.5-9.3l-1.1,0.1L181.6,76.4z"/>
			<path style="fill:#FFFFFF;" d="M205.7,75.1l-7.7,0.4l3-25.4l7.7-0.4l-1.1,9.6l0.5,0l6.5-9.9l8.3-0.5l-8.6,12.8l6.4,12.6l-8.3,0.5
				l-4.5-9.3l-1.1,0.1L205.7,75.1z"/>
			<path style="fill:#FFFFFF;" d="M230.4,68.6l-2.2,5.2l-7.9,0.5l11.1-25.9l10.1-0.6l5.1,24.9l-7.9,0.5l-1-5L230.4,68.6z
				 M233.1,62.3l3.2-0.2l-1-5.5L233.1,62.3z"/>
			<path style="fill:#FFFFFF;" d="M268.5,46.2l-11.8,25.9l-7.7,0.4l2.6-5.6l-2.7,0.2l-4.8-19.6l7.7-0.4l2.9,13l0.2,0l5.9-13.5
				L268.5,46.2z"/>
			<path style="fill:#FFFFFF;" d="M275.4,71l-7.7,0.4l3-25.4l7.7-0.4l-1.1,9.6l5.9-0.3l1.1-9.6l7.7-0.4l-3,25.4l-7.7,0.4l1.1-9.6
				l-5.9,0.3L275.4,71z"/>
			<path style="fill:#FFFFFF;" d="M296.8,69.8l2.2-19.2l-5.9,0.3l0.7-6.2l19.6-1.1l-0.7,6.2l-5.9,0.3l-2.2,19.2L296.8,69.8z"/>
			<path style="fill:#FDC000;" d="M335.6,37.9l-3,25.7l14.1-0.8l-0.9,8.2l-24.4,1.4l4-33.9L335.6,37.9z"/>
			<path style="fill:#FDC000;" d="M377.6,35.5l-1,8.2l-15.1,0.9l-0.6,4.8l10.8-0.6l-0.9,7.7L360,57.2l-0.6,4.8l15.6-0.9l-0.9,8.2
				l-25.9,1.5l4-33.9L377.6,35.5z"/>
			<path style="fill:#FDC000;" d="M404,33.5l5.6,5.5l-2.7,23.2l-6.9,6.2l-17.3,1l-5.6-5.4l2.7-23.2l6.9-6.2L404,33.5z M389.7,43.5
				l-1.9,16.5l0.9,0.9l7.2-0.4l1-1l1.9-16.5L398,42l-7.2,0.4L389.7,43.5z"/>
			<path style="fill:#FDC000;" d="M432.7,32.3l10.3-0.6l-4,33.9l-10.1,0.6l-7.3-15l-0.2,0l-1.8,15.5l-10.3,0.6l4-33.9l10.1-0.6
				l7.3,15l0.2,0L432.7,32.3z"/>
			<path style="fill:#FDC000;" d="M441.9,65.4l0.9-8.2l9.1-0.5l-0.9,8.2L441.9,65.4z"/>
			<path style="fill:#FDC000;" d="M468.7,54l-3.4,0.2l-1.2,9.9l-10.3,0.6l4-33.9l22-1.3l5.1,5l-1.5,12.1l-5.3,4.6l5.3,11.7L473,63.7
				L468.7,54z M473.4,38.1l-6.2,0.4l-0.9,7.5l6.2-0.4l1-1l0.6-5.6L473.4,38.1z"/>
			<path style="fill:#FDC000;" d="M506.9,28l10.3-0.6L513.9,56l-6.9,6.2l-16.3,0.9l-5.6-5.4l3.4-28.6l10.3-0.6l-3,25.2l0.9,0.9
				l6.2-0.4l1-1L506.9,28z"/>
		</g>
	</g>
</g>
</svg>
