<?xml version="1.0" encoding="utf-8"?>
<!-- Generator: Adobe Illustrator 22.0.1, SVG Export Plug-In . SVG Version: 6.00 Build 0)  -->
<svg version="1.1" id="Layer_1" xmlns="http://www.w3.org/2000/svg" xmlns:xlink="http://www.w3.org/1999/xlink" x="0px" y="0px"
	 viewBox="0 0 200 200" style="enable-background:new 0 0 200 200;" xml:space="preserve">
<style type="text/css">
	.st0{fill:none;stroke:#000000;stroke-width:5;stroke-miterlimit:10;}
	.st1{fill:none;stroke:#000000;stroke-width:5;stroke-linecap:round;stroke-miterlimit:10;}
	.st2{fill:url(#SVGID_1_);}
	.st3{fill:url(#SVGID_2_);}
	.st4{fill:url(#SVGID_3_);}
	.st5{fill:url(#SVGID_4_);}
	.st6{fill:url(#SVGID_5_);}
	.st7{fill:url(#SVGID_6_);}
	.st8{fill:url(#SVGID_7_);}
	.st9{fill:url(#SVGID_8_);}
	.st10{fill:url(#SVGID_9_);}
	.st11{fill:url(#SVGID_10_);}
	.st12{fill:url(#SVGID_11_);}
	.st13{fill:url(#SVGID_12_);}
	.st14{fill:url(#SVGID_13_);}
	.st15{fill:url(#SVGID_14_);}
	.st16{fill:url(#SVGID_15_);}
	.st17{fill:url(#SVGID_16_);}
	.st18{fill:url(#SVGID_17_);}
	.st19{fill:url(#SVGID_18_);}
	.st20{fill:url(#SVGID_19_);}
	.st21{fill:url(#SVGID_20_);}
	.st22{fill:url(#SVGID_21_);}
	.st23{fill:url(#SVGID_22_);}
	.st24{opacity:0.2;fill:url(#SVGID_23_);}
	.st25{opacity:0.2;fill:url(#SVGID_24_);}
	.st26{opacity:0.2;fill:url(#SVGID_25_);}
	.st27{opacity:0.2;fill:url(#SVGID_26_);}
	.st28{fill:url(#SVGID_27_);}
	.st29{fill:url(#SVGID_28_);}
	.st30{opacity:0.2;fill:url(#SVGID_29_);}
	.st31{opacity:0.2;fill:url(#SVGID_30_);}
	.st32{fill:url(#SVGID_31_);}
	.st33{opacity:0.2;fill:url(#SVGID_32_);}
	.st34{opacity:0.2;fill:url(#SVGID_33_);}
	.st35{opacity:0.2;fill:url(#SVGID_34_);}
	.st36{opacity:0.2;fill:url(#SVGID_35_);}
	.st37{fill:url(#SVGID_36_);}
	.st38{opacity:0.2;fill:url(#SVGID_37_);}
	.st39{fill:url(#SVGID_38_);}
	.st40{opacity:0.2;fill:url(#SVGID_39_);}
	.st41{fill:url(#SVGID_40_);}
	.st42{fill:url(#SVGID_41_);}
	.st43{fill:url(#SVGID_42_);}
	.st44{fill:url(#SVGID_43_);}
	.st45{fill:url(#SVGID_44_);}
	.st46{opacity:0.2;fill:url(#SVGID_45_);}
	.st47{fill:url(#SVGID_46_);}
	.st48{opacity:0.2;fill:url(#SVGID_47_);}
	.st49{fill:url(#SVGID_48_);}
	.st50{opacity:0.2;fill:url(#SVGID_49_);}
	.st51{fill:url(#SVGID_50_);}
	.st52{fill:url(#SVGID_51_);}
	.st53{fill:url(#SVGID_52_);}
	.st54{fill:url(#SVGID_53_);}
	.st55{fill:url(#SVGID_54_);}
	.st56{fill:url(#SVGID_55_);}
	.st57{fill:url(#SVGID_56_);}
	.st58{fill:url(#SVGID_57_);}
	.st59{fill:url(#SVGID_58_);}
	.st60{fill:url(#SVGID_59_);}
	.st61{fill:url(#SVGID_60_);}
	.st62{fill:url(#SVGID_61_);}
	.st63{fill:url(#SVGID_62_);}
	.st64{fill:url(#SVGID_63_);}
	.st65{fill:url(#SVGID_64_);}
	.st66{fill:url(#SVGID_65_);}
	.st67{fill:url(#SVGID_66_);}
	.st68{fill:url(#SVGID_67_);}
	.st69{fill:url(#SVGID_68_);}
	.st70{fill:url(#SVGID_69_);}
	.st71{fill:url(#SVGID_70_);}
	.st72{fill:url(#SVGID_71_);}
	.st73{fill:url(#SVGID_72_);}
	.st74{fill:url(#SVGID_73_);}
	.st75{fill:url(#SVGID_74_);}
	.st76{fill:url(#SVGID_75_);}
	.st77{fill:url(#SVGID_76_);}
	.st78{fill:url(#SVGID_77_);}
	.st79{fill:url(#SVGID_78_);}
	.st80{fill:url(#SVGID_79_);}
	.st81{fill:url(#SVGID_80_);}
	.st82{fill:url(#SVGID_81_);}
	.st83{fill:url(#SVGID_82_);}
	.st84{fill:url(#SVGID_83_);}
	.st85{fill:url(#SVGID_84_);}
	.st86{fill:url(#SVGID_85_);}
	.st87{fill:url(#SVGID_86_);}
	.st88{fill:url(#SVGID_87_);}
	.st89{fill:url(#SVGID_88_);}
	.st90{fill:url(#SVGID_89_);}
	.st91{fill:url(#SVGID_90_);}
	.st92{fill:url(#SVGID_91_);}
	.st93{fill:url(#SVGID_92_);}
	.st94{fill:url(#SVGID_93_);}
	.st95{fill:url(#SVGID_94_);}
	.st96{fill:url(#SVGID_95_);}
	.st97{fill:url(#SVGID_96_);}
	.st98{fill:url(#SVGID_97_);}
	.st99{fill:url(#SVGID_98_);}
	.st100{fill:url(#SVGID_99_);}
	.st101{fill:url(#SVGID_100_);}
	.st102{fill:url(#SVGID_101_);}
	.st103{fill:url(#SVGID_102_);}
	.st104{fill:url(#SVGID_103_);}
	.st105{fill:url(#SVGID_104_);}
	.st106{fill:url(#SVGID_105_);}
	.st107{fill:url(#SVGID_106_);}
	.st108{fill:url(#SVGID_107_);}
	.st109{fill:url(#SVGID_108_);}
	.st110{fill:url(#SVGID_109_);}
	.st111{fill:url(#SVGID_110_);}
	.st112{fill:url(#SVGID_111_);}
	.st113{fill:url(#SVGID_112_);}
	.st114{fill:url(#SVGID_113_);}
	.st115{fill:url(#SVGID_114_);}
	.st116{fill:url(#SVGID_115_);}
	.st117{fill:url(#SVGID_116_);}
	.st118{fill:url(#SVGID_117_);}
	.st119{fill:url(#SVGID_118_);}
	.st120{fill:url(#SVGID_119_);}
	.st121{fill:url(#SVGID_120_);}
	.st122{fill:url(#SVGID_121_);}
	.st123{fill:url(#SVGID_122_);}
	.st124{fill:url(#SVGID_123_);}
	.st125{display:none;}
	.st126{fill:url(#SVGID_124_);}
	.st127{fill:url(#SVGID_125_);}
	.st128{fill:url(#SVGID_126_);}
	.st129{fill:url(#SVGID_127_);}
	.st130{fill:url(#SVGID_128_);}
	.st131{fill:url(#SVGID_129_);}
	.st132{fill:url(#SVGID_130_);}
	.st133{fill:url(#SVGID_131_);}
	.st134{fill:url(#SVGID_132_);}
	.st135{fill:url(#SVGID_133_);}
	.st136{fill:url(#SVGID_134_);}
	.st137{fill:url(#SVGID_135_);}
	.st138{fill:url(#SVGID_136_);}
	.st139{fill:url(#SVGID_137_);}
	.st140{fill:url(#SVGID_138_);}
	.st141{fill:url(#SVGID_139_);}
	.st142{fill:url(#SVGID_140_);}
	.st143{fill:url(#SVGID_141_);}
	.st144{fill:url(#SVGID_142_);}
	.st145{fill:url(#SVGID_143_);}
	.st146{fill:url(#SVGID_144_);}
	.st147{fill:url(#SVGID_145_);}
	.st148{fill:url(#SVGID_146_);}
</style>
<g>
	<linearGradient id="SVGID_1_" gradientUnits="userSpaceOnUse" x1="97.1833" y1="15.6998" x2="97.1833" y2="198.0523">
		<stop  offset="0" style="stop-color:#224FC4"/>
		<stop  offset="2.072120e-02" style="stop-color:#2553C7"/>
		<stop  offset="0.2069" style="stop-color:#3A75DA"/>
		<stop  offset="0.397" style="stop-color:#4B90EA"/>
		<stop  offset="0.5902" style="stop-color:#57A3F5"/>
		<stop  offset="0.7887" style="stop-color:#5FAEFC"/>
		<stop  offset="1" style="stop-color:#61B2FE"/>
	</linearGradient>
	<path class="st2" d="M193.4,37.7c0.4-5.4-2.1-10-3.8-12.3c0.1-4-0.9-7.4-3.2-10.1c-3.5-4.3-8.8-5.5-11-5.9
		c-4.4-2.3-8.9-2.9-13.5-1.7c-4.9,1.4-8.4,4.6-10.4,7.1c-4-0.7-7.7-0.1-10.7,1.8c-2.3,1.5-3.7,3.4-4.6,4.9c-1.6-0.2-3.2,0-4.6,0.6
		c-1,0.4-1.9,0.9-2.6,1.4c-0.6-0.3-1.3-0.6-2-0.8c-2.1-0.7-4.1-0.6-5.8-0.4c-1-1.4-2.3-2.5-3.8-3.4c-2.1-1.2-4.4-1.7-7-1.6
		c-1.3-2-2.9-3.7-5-4.9c0,0-0.1,0-0.1-0.1c-3.8-2-7.8-1.9-9.9-1.7c-3.8-3-7.9-4.4-12-4.2c-5.3,0.2-9.3,3-11.6,4.9
		c-4.6,1-7.9,3.1-9.8,6.4c-1.8,3-2,6.3-1.8,8.7c-2.2,1.5-3.8,3.6-4.8,6.1c-1.4,3.7-0.9,7.3-0.3,9.5c-4.9,6.6-3.1,13.7-1.7,17
		c-1.4,2.4-2.1,5.2-2.1,8.1C39.2,77.6,24.6,82.5,6,82.5c-2.6,0-4.8,2.2-4.8,4.8c0,3.4-0.1,6.9-0.1,10.6c-0.6,34.5-1.5,81.9,56,101.8
		c0.5,0.2,1,0.3,1.6,0.3s1.1-0.1,1.6-0.3c26.6-9.2,40.7-24.3,48.2-41.3c0.9,2.3,2.1,4.2,3.4,5.7c2.3,2.5,5.2,3.8,8.4,3.8
		c3.3,0,6.3-1.3,8.7-3.9c6-6.2,7.6-19,8-28c4.8,1.1,8.8-0.6,11-1.9c5,2.6,9.8,3.4,14.2,2.2c4.8-1.4,7.9-4.7,9.6-7
		c10.4-3.6,14.3-11.1,14.5-17c7.4-9.8,3.3-19,0.8-22.9c2.6-6.2,1-11.5-0.2-14.2c3.2-6.1,1.7-10.9,0.2-13.5
		c3.3-5.7,2.3-11.2,1.3-14.3C191.4,44.7,193.1,41.5,193.4,37.7z M58.7,192.9C6.6,174.5,7.4,132.1,8.1,98l0-0.4
		c0-2.8,0.1-5.5,0.1-8.2C28.8,89.1,45,83,58.6,70.4C72.3,83,88.5,89.1,109.2,89.5c0,2.6,0.1,5.2,0.1,8l0,0.6
		C110,132.1,110.8,174.4,58.7,192.9z M97.9,77.4c3.5-7.8,1.6-13.2-0.2-15.9c0.2-0.4,0.3-0.8,0.4-1.2c4.3,1.8,8.3,1.6,10.8,1.1
		c2.4,2.4,5.4,3.9,8.6,4.3c3.1,0.4,6.2-0.1,9.5-1.6c3.5,1.9,6.8,2.4,10.1,1.5c2.8-0.7,4.7-2.4,5.9-3.9c1.9,0.4,3.7,0.4,5.4,0
		c-0.8,1.3-1.3,2.7-1.5,4.1c-0.5,2.8,0,5.8,1.5,8.9c-2,3.9-2,8.1,0,12.2c-0.4,0.6-0.8,1.3-1.1,2c-0.7,1.6-0.9,3.2-0.8,4.6
		c0,0-0.1,0-0.1,0.1c-0.1,0.1-0.2,0.1-0.2,0.2c-1.9-0.9-3.9-1.4-6-1.4c-3.9,0-7.2,1.6-9.6,3.3c-3.1-1.1-8.3-1.9-14.1,1.4
		c-0.1-3.5-0.1-6.8-0.1-9.9c0-2.6-2.2-4.8-4.8-4.8c-4.4,0-8.6-0.3-12.6-0.8C98.5,79.9,98.2,78.5,97.9,77.4z M188.4,37.3
		c-0.3,2.9-1.7,5.3-4.5,7.4c-0.9,0.7-1.3,2-0.8,3c0.9,2,2.6,7.2-1.1,12.6c-0.6,0.9-0.6,2.1,0.1,3c1.1,1.4,3.1,5.1-0.2,10.5
		c-0.5,0.8-0.5,1.8,0,2.6c1,1.8,3.1,6.5,0.2,12.1c-0.4,0.8-0.4,1.9,0.2,2.6c2.1,2.9,6.4,10.5-0.3,18.8c-0.4,0.5-0.6,1-0.6,1.6
		c0,1-0.1,9.7-11.9,13.3c-0.6,0.2-1,0.5-1.4,1c-1.1,1.6-3.4,4.6-7.2,5.6c-3.5,0.9-7.4,0.1-11.7-2.4c-0.9-0.5-2-0.5-2.8,0.1
		c-1.2,0.9-5.4,3.6-10.7,1.1c-0.8-0.4-1.7-0.3-2.4,0.1c-0.7,0.5-1.2,1.2-1.2,2.1c-0.2,13.4-2.7,23.8-6.7,28
		c-1.5,1.5-3.2,2.3-5.1,2.3c-1.8,0-3.4-0.7-4.8-2.2c-1.8-2-3.2-5.5-4.1-10.2c5-15.7,5.2-32.4,5-47.3c5.5-4.7,10.6-3.6,13.3-2.4
		c0.8,0.4,1.8,0.3,2.6-0.3c1.8-1.4,4.6-3.1,7.7-3.1c1.8,0,3.5,0.5,5.1,1.6c1.2,0.8,2.8,0.3,3.5-0.8c0.1-0.1,0.4-0.4,0.7-0.6
		c0.2-0.1,0.5-0.3,0.8-0.4c1-0.5,1.5-1.5,1.4-2.6c-0.2-1.4-0.1-2.7,0.4-3.7c0.3-0.7,0.7-1.3,1.2-1.7c0.9-0.8,1.1-2.2,0.5-3.2
		c-2.1-3.4-2.2-6.7-0.2-9.8c0.5-0.8,0.5-1.8,0.1-2.6c-1.4-2.5-1.9-4.9-1.6-7c0.2-1.4,0.9-2.7,2-3.8c0.8-0.8,1-2.1,0.4-3.1l-0.2-0.3
		c-0.4-0.7-0.9-1.4-1.2-2.2c-0.3-0.7-0.8-1.2-1.5-1.5c-0.7-0.3-1.5-0.2-2.1,0.2c-1.9,1.1-4,1.2-6.4,0.4c-1.1-0.4-2.3,0.1-2.9,1.1
		c-0.5,0.8-1.8,2.6-4.1,3.3c-2.2,0.6-4.6,0.1-7.2-1.6c-0.8-0.5-1.7-0.5-2.5-0.1c-2.7,1.4-5.4,2-7.8,1.7c-2.4-0.3-4.7-1.6-6.5-3.8
		c-0.6-0.8-1.7-1.1-2.6-0.8c-1.8,0.5-6.6,1.4-11.3-1.8c-0.7-0.5-1.7-0.6-2.5-0.2c-0.8,0.4-1.4,1.2-1.4,2.1c-0.1,1.4-0.5,2.9-1.2,4.2
		c-0.5,0.9-0.4,2,0.3,2.8c1.2,1.4,3.6,5.5,0.1,12.8c-0.3,0.6-0.3,1.2-0.1,1.8c0.2,0.6,0.5,1.6,0.7,2.9C81.3,78.2,71,72.7,62,63.9
		c-0.9-0.9-2.1-1.3-3.3-1.3c-0.4,0-0.8,0.1-1.2,0.2c0.3-0.7,0.6-1.3,1.1-1.9c0.5-0.8,0.6-1.7,0.2-2.6c-1.2-2.4-3.5-8.5,1.3-13.9
		c0.6-0.7,0.8-1.6,0.5-2.5c-0.4-1.2-1.3-4.4-0.1-7.4c0.7-1.9,2.1-3.3,4-4.4c1-0.5,1.5-1.6,1.3-2.6c-0.3-1.5-0.5-4.5,0.9-7
		c1.2-2.2,3.5-3.5,7-4.1c0.5-0.1,0.9-0.3,1.3-0.6c1.6-1.4,4.8-3.9,8.9-4.1c3.2-0.2,6.2,1.1,9.4,3.7c0.6,0.5,1.4,0.7,2.1,0.5
		c2.1-0.4,5.2-0.4,7.8,1c1.7,1,2.9,2.4,3.8,4.3c0.5,1,1.5,1.5,2.5,1.4c2.3-0.2,4.2,0.1,5.7,0.9c1.2,0.7,2.1,1.6,2.8,3
		c0.6,1.1,1.8,1.6,3,1.2c0.9-0.3,2.8-0.7,4.7-0.1c0.8,0.2,1.5,0.6,2,1c1,0.9,2.5,0.8,3.4-0.1c0.7-0.7,1.6-1.3,2.4-1.6
		c1.1-0.4,2.3-0.4,3.6,0c1.2,0.4,2.6-0.3,3-1.5c0.3-0.9,1.4-3,3.5-4.5c2.2-1.4,5-1.7,8.4-0.8c1,0.3,2-0.1,2.6-1
		c1.4-1.9,4.3-5.2,8.7-6.5c3.3-0.9,6.7-0.4,10.1,1.4c0.2,0.1,0.5,0.2,0.8,0.3c1.4,0.3,5.9,1,8.4,4.2c1.6,1.9,2.3,4.4,2,7.5
		c-0.1,0.6,0.1,1.2,0.5,1.7C186.2,29.1,188.8,32.9,188.4,37.3z"/>
	<linearGradient id="SVGID_2_" gradientUnits="userSpaceOnUse" x1="82.8992" y1="15.6998" x2="82.8992" y2="198.0523">
		<stop  offset="0" style="stop-color:#224FC4"/>
		<stop  offset="2.072120e-02" style="stop-color:#2553C7"/>
		<stop  offset="0.2069" style="stop-color:#3A75DA"/>
		<stop  offset="0.397" style="stop-color:#4B90EA"/>
		<stop  offset="0.5902" style="stop-color:#57A3F5"/>
		<stop  offset="0.7887" style="stop-color:#5FAEFC"/>
		<stop  offset="1" style="stop-color:#61B2FE"/>
	</linearGradient>
	<circle class="st3" cx="82.9" cy="25.6" r="6"/>
	<linearGradient id="SVGID_3_" gradientUnits="userSpaceOnUse" x1="160.6097" y1="15.6998" x2="160.6097" y2="198.0523">
		<stop  offset="0" style="stop-color:#224FC4"/>
		<stop  offset="2.072120e-02" style="stop-color:#2553C7"/>
		<stop  offset="0.2069" style="stop-color:#3A75DA"/>
		<stop  offset="0.397" style="stop-color:#4B90EA"/>
		<stop  offset="0.5902" style="stop-color:#57A3F5"/>
		<stop  offset="0.7887" style="stop-color:#5FAEFC"/>
		<stop  offset="1" style="stop-color:#61B2FE"/>
	</linearGradient>
	<circle class="st4" cx="160.6" cy="110.2" r="6"/>
	<linearGradient id="SVGID_4_" gradientUnits="userSpaceOnUse" x1="125.1964" y1="15.6998" x2="125.1964" y2="198.0523">
		<stop  offset="0" style="stop-color:#224FC4"/>
		<stop  offset="2.072120e-02" style="stop-color:#2553C7"/>
		<stop  offset="0.2069" style="stop-color:#3A75DA"/>
		<stop  offset="0.397" style="stop-color:#4B90EA"/>
		<stop  offset="0.5902" style="stop-color:#57A3F5"/>
		<stop  offset="0.7887" style="stop-color:#5FAEFC"/>
		<stop  offset="1" style="stop-color:#61B2FE"/>
	</linearGradient>
	<circle class="st5" cx="125.2" cy="112.2" r="6"/>
	<linearGradient id="SVGID_5_" gradientUnits="userSpaceOnUse" x1="168.9423" y1="15.6998" x2="168.9423" y2="198.0523">
		<stop  offset="0" style="stop-color:#224FC4"/>
		<stop  offset="2.072120e-02" style="stop-color:#2553C7"/>
		<stop  offset="0.2069" style="stop-color:#3A75DA"/>
		<stop  offset="0.397" style="stop-color:#4B90EA"/>
		<stop  offset="0.5902" style="stop-color:#57A3F5"/>
		<stop  offset="0.7887" style="stop-color:#5FAEFC"/>
		<stop  offset="1" style="stop-color:#61B2FE"/>
	</linearGradient>
	<circle class="st6" cx="168.9" cy="26.8" r="6"/>
	<linearGradient id="SVGID_6_" gradientUnits="userSpaceOnUse" x1="82.0259" y1="15.6998" x2="82.0259" y2="198.0523">
		<stop  offset="0" style="stop-color:#224FC4"/>
		<stop  offset="2.072120e-02" style="stop-color:#2553C7"/>
		<stop  offset="0.2069" style="stop-color:#3A75DA"/>
		<stop  offset="0.397" style="stop-color:#4B90EA"/>
		<stop  offset="0.5902" style="stop-color:#57A3F5"/>
		<stop  offset="0.7887" style="stop-color:#5FAEFC"/>
		<stop  offset="1" style="stop-color:#61B2FE"/>
	</linearGradient>
	<circle class="st7" cx="82" cy="66.1" r="3.6"/>
	<linearGradient id="SVGID_7_" gradientUnits="userSpaceOnUse" x1="140.9687" y1="15.6998" x2="140.9687" y2="198.0523">
		<stop  offset="0" style="stop-color:#224FC4"/>
		<stop  offset="2.072120e-02" style="stop-color:#2553C7"/>
		<stop  offset="0.2069" style="stop-color:#3A75DA"/>
		<stop  offset="0.397" style="stop-color:#4B90EA"/>
		<stop  offset="0.5902" style="stop-color:#57A3F5"/>
		<stop  offset="0.7887" style="stop-color:#5FAEFC"/>
		<stop  offset="1" style="stop-color:#61B2FE"/>
	</linearGradient>
	<path class="st8" d="M141,114.5c-2,0-3.6,1.6-3.6,3.6c0,2,1.6,3.6,3.6,3.6c2,0,3.6-1.6,3.6-3.6C144.5,116.1,142.9,114.5,141,114.5z
		"/>
	<linearGradient id="SVGID_8_" gradientUnits="userSpaceOnUse" x1="120.0217" y1="15.6998" x2="120.0217" y2="198.0523">
		<stop  offset="0" style="stop-color:#224FC4"/>
		<stop  offset="2.072120e-02" style="stop-color:#2553C7"/>
		<stop  offset="0.2069" style="stop-color:#3A75DA"/>
		<stop  offset="0.397" style="stop-color:#4B90EA"/>
		<stop  offset="0.5902" style="stop-color:#57A3F5"/>
		<stop  offset="0.7887" style="stop-color:#5FAEFC"/>
		<stop  offset="1" style="stop-color:#61B2FE"/>
	</linearGradient>
	<circle class="st9" cx="120" cy="136.3" r="3.6"/>
	<linearGradient id="SVGID_9_" gradientUnits="userSpaceOnUse" x1="164.1808" y1="15.6998" x2="164.1808" y2="198.0523">
		<stop  offset="0" style="stop-color:#224FC4"/>
		<stop  offset="2.072120e-02" style="stop-color:#2553C7"/>
		<stop  offset="0.2069" style="stop-color:#3A75DA"/>
		<stop  offset="0.397" style="stop-color:#4B90EA"/>
		<stop  offset="0.5902" style="stop-color:#57A3F5"/>
		<stop  offset="0.7887" style="stop-color:#5FAEFC"/>
		<stop  offset="1" style="stop-color:#61B2FE"/>
	</linearGradient>
	<path class="st10" d="M164.2,84c2,0,3.6-1.6,3.6-3.6c0-2-1.6-3.6-3.6-3.6c-2,0-3.6,1.6-3.6,3.6C160.6,82.4,162.2,84,164.2,84z"/>
	<linearGradient id="SVGID_10_" gradientUnits="userSpaceOnUse" x1="155.8483" y1="15.6998" x2="155.8483" y2="198.0523">
		<stop  offset="0" style="stop-color:#224FC4"/>
		<stop  offset="2.072120e-02" style="stop-color:#2553C7"/>
		<stop  offset="0.2069" style="stop-color:#3A75DA"/>
		<stop  offset="0.397" style="stop-color:#4B90EA"/>
		<stop  offset="0.5902" style="stop-color:#57A3F5"/>
		<stop  offset="0.7887" style="stop-color:#5FAEFC"/>
		<stop  offset="1" style="stop-color:#61B2FE"/>
	</linearGradient>
	<circle class="st11" cx="155.8" cy="35.2" r="3.6"/>
	<linearGradient id="SVGID_11_" gradientUnits="userSpaceOnUse" x1="140.9687" y1="15.6998" x2="140.9687" y2="198.0523">
		<stop  offset="0" style="stop-color:#224FC4"/>
		<stop  offset="2.072120e-02" style="stop-color:#2553C7"/>
		<stop  offset="0.2069" style="stop-color:#3A75DA"/>
		<stop  offset="0.397" style="stop-color:#4B90EA"/>
		<stop  offset="0.5902" style="stop-color:#57A3F5"/>
		<stop  offset="0.7887" style="stop-color:#5FAEFC"/>
		<stop  offset="1" style="stop-color:#61B2FE"/>
	</linearGradient>
	<path class="st12" d="M141,39.8c-2,0-3.6,1.6-3.6,3.6c0,2,1.6,3.6,3.6,3.6c2,0,3.6-1.6,3.6-3.6C144.5,41.4,142.9,39.8,141,39.8z"/>
	<linearGradient id="SVGID_12_" gradientUnits="userSpaceOnUse" x1="105.2578" y1="15.6998" x2="105.2578" y2="198.0523">
		<stop  offset="0" style="stop-color:#224FC4"/>
		<stop  offset="2.072120e-02" style="stop-color:#2553C7"/>
		<stop  offset="0.2069" style="stop-color:#3A75DA"/>
		<stop  offset="0.397" style="stop-color:#4B90EA"/>
		<stop  offset="0.5902" style="stop-color:#57A3F5"/>
		<stop  offset="0.7887" style="stop-color:#5FAEFC"/>
		<stop  offset="1" style="stop-color:#61B2FE"/>
	</linearGradient>
	<path class="st13" d="M105.3,29.2c-2,0-3.6,1.6-3.6,3.6c0,2,1.6,3.6,3.6,3.6c2,0,3.6-1.6,3.6-3.6C108.8,30.8,107.2,29.2,105.3,29.2
		z"/>
	<linearGradient id="SVGID_13_" gradientUnits="userSpaceOnUse" x1="87.0655" y1="15.6998" x2="87.0655" y2="198.0523">
		<stop  offset="0" style="stop-color:#224FC4"/>
		<stop  offset="2.072120e-02" style="stop-color:#2553C7"/>
		<stop  offset="0.2069" style="stop-color:#3A75DA"/>
		<stop  offset="0.397" style="stop-color:#4B90EA"/>
		<stop  offset="0.5902" style="stop-color:#57A3F5"/>
		<stop  offset="0.7887" style="stop-color:#5FAEFC"/>
		<stop  offset="1" style="stop-color:#61B2FE"/>
	</linearGradient>
	<circle class="st14" cx="87.1" cy="41.6" r="4.2"/>
	<linearGradient id="SVGID_14_" gradientUnits="userSpaceOnUse" x1="173.7037" y1="15.6998" x2="173.7037" y2="198.0523">
		<stop  offset="0" style="stop-color:#224FC4"/>
		<stop  offset="2.072120e-02" style="stop-color:#2553C7"/>
		<stop  offset="0.2069" style="stop-color:#3A75DA"/>
		<stop  offset="0.397" style="stop-color:#4B90EA"/>
		<stop  offset="0.5902" style="stop-color:#57A3F5"/>
		<stop  offset="0.7887" style="stop-color:#5FAEFC"/>
		<stop  offset="1" style="stop-color:#61B2FE"/>
	</linearGradient>
	<circle class="st15" cx="173.7" cy="41.1" r="3.6"/>
	<linearGradient id="SVGID_15_" gradientUnits="userSpaceOnUse" x1="170.1327" y1="15.6998" x2="170.1327" y2="198.0523">
		<stop  offset="0" style="stop-color:#224FC4"/>
		<stop  offset="2.072120e-02" style="stop-color:#2553C7"/>
		<stop  offset="0.2069" style="stop-color:#3A75DA"/>
		<stop  offset="0.397" style="stop-color:#4B90EA"/>
		<stop  offset="0.5902" style="stop-color:#57A3F5"/>
		<stop  offset="0.7887" style="stop-color:#5FAEFC"/>
		<stop  offset="1" style="stop-color:#61B2FE"/>
	</linearGradient>
	<path class="st16" d="M170.1,90.8c-2,0-3.6,1.6-3.6,3.6c0,2,1.6,3.6,3.6,3.6c2,0,3.6-1.6,3.6-3.6C173.7,92.4,172.1,90.8,170.1,90.8
		z"/>
	<linearGradient id="SVGID_16_" gradientUnits="userSpaceOnUse" x1="69.9201" y1="15.6998" x2="69.9201" y2="198.0523">
		<stop  offset="0" style="stop-color:#224FC4"/>
		<stop  offset="2.072120e-02" style="stop-color:#2553C7"/>
		<stop  offset="0.2069" style="stop-color:#3A75DA"/>
		<stop  offset="0.397" style="stop-color:#4B90EA"/>
		<stop  offset="0.5902" style="stop-color:#57A3F5"/>
		<stop  offset="0.7887" style="stop-color:#5FAEFC"/>
		<stop  offset="1" style="stop-color:#61B2FE"/>
	</linearGradient>
	<circle class="st17" cx="69.9" cy="51.7" r="3.6"/>
	<linearGradient id="SVGID_17_" gradientUnits="userSpaceOnUse" x1="170.1327" y1="15.6998" x2="170.1327" y2="198.0523">
		<stop  offset="0" style="stop-color:#224FC4"/>
		<stop  offset="2.072120e-02" style="stop-color:#2553C7"/>
		<stop  offset="0.2069" style="stop-color:#3A75DA"/>
		<stop  offset="0.397" style="stop-color:#4B90EA"/>
		<stop  offset="0.5902" style="stop-color:#57A3F5"/>
		<stop  offset="0.7887" style="stop-color:#5FAEFC"/>
		<stop  offset="1" style="stop-color:#61B2FE"/>
	</linearGradient>
	<path class="st18" d="M170.1,64.9c-2,0-3.6,1.6-3.6,3.6c0,2,1.6,3.6,3.6,3.6c2,0,3.6-1.6,3.6-3.6C173.7,66.5,172.1,64.9,170.1,64.9
		z"/>
	<linearGradient id="SVGID_18_" gradientUnits="userSpaceOnUse" x1="121.212" y1="15.6998" x2="121.212" y2="198.0523">
		<stop  offset="0" style="stop-color:#224FC4"/>
		<stop  offset="2.072120e-02" style="stop-color:#2553C7"/>
		<stop  offset="0.2069" style="stop-color:#3A75DA"/>
		<stop  offset="0.397" style="stop-color:#4B90EA"/>
		<stop  offset="0.5902" style="stop-color:#57A3F5"/>
		<stop  offset="0.7887" style="stop-color:#5FAEFC"/>
		<stop  offset="1" style="stop-color:#61B2FE"/>
	</linearGradient>
	<circle class="st19" cx="121.2" cy="47" r="3.6"/>
	<linearGradient id="SVGID_19_" gradientUnits="userSpaceOnUse" x1="104.3452" y1="15.6998" x2="104.3452" y2="198.0523">
		<stop  offset="0" style="stop-color:#224FC4"/>
		<stop  offset="2.072120e-02" style="stop-color:#2553C7"/>
		<stop  offset="0.2069" style="stop-color:#3A75DA"/>
		<stop  offset="0.397" style="stop-color:#4B90EA"/>
		<stop  offset="0.5902" style="stop-color:#57A3F5"/>
		<stop  offset="0.7887" style="stop-color:#5FAEFC"/>
		<stop  offset="1" style="stop-color:#61B2FE"/>
	</linearGradient>
	<path class="st20" d="M104.3,41.6c-2,0-3.6,1.6-3.6,3.6c0,2,1.6,3.6,3.6,3.6c2,0,3.6-1.6,3.6-3.6C107.9,43.2,106.3,41.6,104.3,41.6
		z"/>
	<linearGradient id="SVGID_20_" gradientUnits="userSpaceOnUse" x1="164.1808" y1="15.6998" x2="164.1808" y2="198.0523">
		<stop  offset="0" style="stop-color:#224FC4"/>
		<stop  offset="2.072120e-02" style="stop-color:#2553C7"/>
		<stop  offset="0.2069" style="stop-color:#3A75DA"/>
		<stop  offset="0.397" style="stop-color:#4B90EA"/>
		<stop  offset="0.5902" style="stop-color:#57A3F5"/>
		<stop  offset="0.7887" style="stop-color:#5FAEFC"/>
		<stop  offset="1" style="stop-color:#61B2FE"/>
	</linearGradient>
	<path class="st21" d="M164.2,55.3c2,0,3.6-1.6,3.6-3.6c0-2-1.6-3.6-3.6-3.6c-2,0-3.6,1.6-3.6,3.6C160.6,53.7,162.2,55.3,164.2,55.3
		z"/>
	<linearGradient id="SVGID_21_" gradientUnits="userSpaceOnUse" x1="60.3774" y1="15.6998" x2="60.3774" y2="198.0523">
		<stop  offset="0" style="stop-color:#224FC4"/>
		<stop  offset="2.072120e-02" style="stop-color:#2553C7"/>
		<stop  offset="0.2069" style="stop-color:#3A75DA"/>
		<stop  offset="0.397" style="stop-color:#4B90EA"/>
		<stop  offset="0.5902" style="stop-color:#57A3F5"/>
		<stop  offset="0.7887" style="stop-color:#5FAEFC"/>
		<stop  offset="1" style="stop-color:#61B2FE"/>
	</linearGradient>
	<path class="st22" d="M81.9,109.7C81.9,109.7,81.9,109.7,81.9,109.7c-2.1,0-4,0.8-5.4,2.2l-23.2,23.2l-8.9-8.9c-3-3-7.9-3-10.9,0
		c-1.5,1.5-2.3,3.4-2.3,5.4s0.8,4,2.3,5.4l14.3,14.3c1.5,1.5,3.4,2.3,5.4,2.3s4-0.8,5.4-2.3l28.7-28.7c1.5-1.5,2.3-3.4,2.3-5.4
		c0-2.1-0.8-4-2.2-5.4S83.9,109.7,81.9,109.7z M83.8,119.2l-28.7,28.7c-1,1-2.8,1-3.8,0L37,133.6c-0.5-0.5-0.8-1.2-0.8-1.9
		c0-0.7,0.3-1.4,0.8-1.9c0.5-0.5,1.2-0.8,1.9-0.8c0.7,0,1.4,0.3,1.9,0.8l12.4,12.4L80,115.5c0.5-0.5,1.2-0.8,1.9-0.8h0
		c0.7,0,1.4,0.3,1.9,0.8c0.5,0.5,0.8,1.2,0.8,1.9C84.6,118.1,84.3,118.7,83.8,119.2z"/>
</g>
</svg>
