<?xml version="1.0" encoding="utf-8"?>
<!-- Generator: Adobe Illustrator 22.0.1, SVG Export Plug-In . SVG Version: 6.00 Build 0)  -->
<svg version="1.1" id="Layer_1" xmlns="http://www.w3.org/2000/svg" xmlns:xlink="http://www.w3.org/1999/xlink" x="0px" y="0px"
	 viewBox="0 0 198.9 200.3" style="enable-background:new 0 0 198.9 200.3;" xml:space="preserve">
<style type="text/css">
	.st0{fill:none;stroke:#000000;stroke-width:5;stroke-miterlimit:10;}
	.st1{fill:none;stroke:#000000;stroke-width:5;stroke-linecap:round;stroke-miterlimit:10;}
	.st2{fill:url(#SVGID_1_);}
	.st3{fill:url(#SVGID_2_);}
	.st4{fill:url(#SVGID_3_);}
	.st5{fill:url(#SVGID_4_);}
	.st6{fill:url(#SVGID_5_);}
	.st7{fill:url(#SVGID_6_);}
	.st8{fill:url(#SVGID_7_);}
	.st9{fill:url(#SVGID_8_);}
	.st10{fill:url(#SVGID_9_);}
	.st11{fill:url(#SVGID_10_);}
	.st12{fill:url(#SVGID_11_);}
	.st13{fill:url(#SVGID_12_);}
	.st14{fill:url(#SVGID_13_);}
	.st15{fill:url(#SVGID_14_);}
	.st16{fill:url(#SVGID_15_);}
	.st17{fill:url(#SVGID_16_);}
	.st18{fill:url(#SVGID_17_);}
	.st19{fill:url(#SVGID_18_);}
	.st20{fill:url(#SVGID_19_);}
	.st21{fill:url(#SVGID_20_);}
	.st22{fill:url(#SVGID_21_);}
	.st23{fill:url(#SVGID_22_);}
	.st24{opacity:0.2;fill:url(#SVGID_23_);}
	.st25{opacity:0.2;fill:url(#SVGID_24_);}
	.st26{opacity:0.2;fill:url(#SVGID_25_);}
	.st27{opacity:0.2;fill:url(#SVGID_26_);}
	.st28{fill:url(#SVGID_27_);}
	.st29{fill:url(#SVGID_28_);}
	.st30{opacity:0.2;fill:url(#SVGID_29_);}
	.st31{opacity:0.2;fill:url(#SVGID_30_);}
	.st32{fill:url(#SVGID_31_);}
	.st33{opacity:0.2;fill:url(#SVGID_32_);}
	.st34{opacity:0.2;fill:url(#SVGID_33_);}
	.st35{opacity:0.2;fill:url(#SVGID_34_);}
	.st36{opacity:0.2;fill:url(#SVGID_35_);}
	.st37{fill:url(#SVGID_36_);}
	.st38{opacity:0.2;fill:url(#SVGID_37_);}
	.st39{fill:url(#SVGID_38_);}
	.st40{opacity:0.2;fill:url(#SVGID_39_);}
	.st41{fill:url(#SVGID_40_);}
	.st42{fill:url(#SVGID_41_);}
	.st43{fill:url(#SVGID_42_);}
	.st44{fill:url(#SVGID_43_);}
	.st45{fill:url(#SVGID_44_);}
	.st46{opacity:0.2;fill:url(#SVGID_45_);}
	.st47{fill:url(#SVGID_46_);}
	.st48{opacity:0.2;fill:url(#SVGID_47_);}
	.st49{fill:url(#SVGID_48_);}
	.st50{opacity:0.2;fill:url(#SVGID_49_);}
	.st51{fill:url(#SVGID_50_);}
	.st52{fill:url(#SVGID_51_);}
	.st53{fill:url(#SVGID_52_);}
	.st54{fill:url(#SVGID_53_);}
	.st55{fill:url(#SVGID_54_);}
	.st56{fill:url(#SVGID_55_);}
	.st57{fill:url(#SVGID_56_);}
	.st58{fill:url(#SVGID_57_);}
	.st59{fill:url(#SVGID_58_);}
	.st60{fill:url(#SVGID_59_);}
	.st61{fill:url(#SVGID_60_);}
	.st62{fill:url(#SVGID_61_);}
	.st63{fill:url(#SVGID_62_);}
	.st64{fill:url(#SVGID_63_);}
	.st65{fill:url(#SVGID_64_);}
	.st66{fill:url(#SVGID_65_);}
	.st67{fill:url(#SVGID_66_);}
	.st68{fill:url(#SVGID_67_);}
	.st69{fill:url(#SVGID_68_);}
	.st70{fill:url(#SVGID_69_);}
	.st71{fill:url(#SVGID_70_);}
	.st72{fill:url(#SVGID_71_);}
	.st73{fill:url(#SVGID_72_);}
	.st74{fill:url(#SVGID_73_);}
	.st75{fill:url(#SVGID_74_);}
	.st76{fill:url(#SVGID_75_);}
	.st77{fill:url(#SVGID_76_);}
	.st78{fill:url(#SVGID_77_);}
	.st79{fill:url(#SVGID_78_);}
	.st80{fill:url(#SVGID_79_);}
	.st81{fill:url(#SVGID_80_);}
	.st82{fill:url(#SVGID_81_);}
	.st83{fill:url(#SVGID_82_);}
	.st84{fill:url(#SVGID_83_);}
	.st85{fill:url(#SVGID_84_);}
	.st86{fill:url(#SVGID_85_);}
	.st87{fill:url(#SVGID_86_);}
	.st88{fill:url(#SVGID_87_);}
	.st89{fill:url(#SVGID_88_);}
	.st90{fill:url(#SVGID_89_);}
	.st91{fill:url(#SVGID_90_);}
	.st92{fill:url(#SVGID_91_);}
	.st93{fill:url(#SVGID_92_);}
	.st94{fill:url(#SVGID_93_);}
	.st95{fill:url(#SVGID_94_);}
	.st96{fill:url(#SVGID_95_);}
	.st97{fill:url(#SVGID_96_);}
	.st98{fill:url(#SVGID_97_);}
	.st99{fill:url(#SVGID_98_);}
	.st100{fill:url(#SVGID_99_);}
	.st101{fill:url(#SVGID_100_);}
	.st102{fill:url(#SVGID_101_);}
	.st103{fill:url(#SVGID_102_);}
	.st104{fill:url(#SVGID_103_);}
	.st105{fill:url(#SVGID_104_);}
	.st106{fill:url(#SVGID_105_);}
	.st107{fill:url(#SVGID_106_);}
	.st108{fill:url(#SVGID_107_);}
	.st109{fill:url(#SVGID_108_);}
	.st110{fill:url(#SVGID_109_);}
	.st111{fill:url(#SVGID_110_);}
	.st112{fill:url(#SVGID_111_);}
	.st113{fill:url(#SVGID_112_);}
	.st114{fill:url(#SVGID_113_);}
	.st115{fill:url(#SVGID_114_);}
	.st116{fill:url(#SVGID_115_);}
	.st117{fill:url(#SVGID_116_);}
	.st118{fill:url(#SVGID_117_);}
	.st119{fill:url(#SVGID_118_);}
	.st120{fill:url(#SVGID_119_);}
	.st121{fill:url(#SVGID_120_);}
	.st122{fill:url(#SVGID_121_);}
	.st123{fill:url(#SVGID_122_);}
	.st124{fill:url(#SVGID_123_);}
	.st125{display:none;}
	.st126{fill:url(#SVGID_124_);}
	.st127{fill:url(#SVGID_125_);}
	.st128{fill:url(#SVGID_126_);}
	.st129{fill:url(#SVGID_127_);}
	.st130{fill:url(#SVGID_128_);}
	.st131{fill:url(#SVGID_129_);}
	.st132{fill:url(#SVGID_130_);}
	.st133{fill:url(#SVGID_131_);}
	.st134{fill:url(#SVGID_132_);}
	.st135{fill:url(#SVGID_133_);}
	.st136{fill:url(#SVGID_134_);}
	.st137{fill:url(#SVGID_135_);}
	.st138{fill:url(#SVGID_136_);}
	.st139{fill:url(#SVGID_137_);}
	.st140{fill:url(#SVGID_138_);}
	.st141{fill:url(#SVGID_139_);}
	.st142{fill:url(#SVGID_140_);}
	.st143{fill:url(#SVGID_141_);}
	.st144{fill:url(#SVGID_142_);}
	.st145{fill:url(#SVGID_143_);}
	.st146{fill:url(#SVGID_144_);}
	.st147{fill:url(#SVGID_145_);}
	.st148{fill:url(#SVGID_146_);}
</style>
<g>
	<linearGradient id="SVGID_1_" gradientUnits="userSpaceOnUse" x1="100.5861" y1="30.3333" x2="100.5861" y2="193.8364">
		<stop  offset="0" style="stop-color:#224FC4"/>
		<stop  offset="2.072120e-02" style="stop-color:#2553C7"/>
		<stop  offset="0.2069" style="stop-color:#3A75DA"/>
		<stop  offset="0.397" style="stop-color:#4B90EA"/>
		<stop  offset="0.5902" style="stop-color:#57A3F5"/>
		<stop  offset="0.7887" style="stop-color:#5FAEFC"/>
		<stop  offset="1" style="stop-color:#61B2FE"/>
	</linearGradient>
	<path class="st2" d="M83.5,100.7c1.7,0.6,3.4,1,5.2,1c2,0,4-0.4,5.9-1.3c3.5-1.6,6.2-4.4,7.6-8L126,30.6c1.4-3.6,1.3-7.5-0.3-11
		c-1.6-3.5-4.4-6.2-8-7.6c-7.4-2.9-15.8,0.8-18.7,8.3L75.2,82c-1.4,3.6-1.3,7.5,0.3,11S79.9,99.3,83.5,100.7z M79.9,83.8L103.7,22v0
		c1.4-3.7,5-6,8.8-6c1.1,0,2.3,0.2,3.4,0.6c2.3,0.9,4.2,2.7,5.2,5c1,2.3,1.1,4.9,0.2,7.2L97.5,90.6c-0.9,2.3-2.7,4.2-5,5.2
		s-4.9,1.1-7.2,0.2c-2.3-0.9-4.2-2.7-5.2-5C79,88.7,78.9,86.1,79.9,83.8z"/>
	<linearGradient id="SVGID_2_" gradientUnits="userSpaceOnUse" x1="147.6889" y1="30.3333" x2="147.6889" y2="193.8364">
		<stop  offset="0" style="stop-color:#224FC4"/>
		<stop  offset="2.072120e-02" style="stop-color:#2553C7"/>
		<stop  offset="0.2069" style="stop-color:#3A75DA"/>
		<stop  offset="0.397" style="stop-color:#4B90EA"/>
		<stop  offset="0.5902" style="stop-color:#57A3F5"/>
		<stop  offset="0.7887" style="stop-color:#5FAEFC"/>
		<stop  offset="1" style="stop-color:#61B2FE"/>
	</linearGradient>
	<path class="st3" d="M156.3,85.9c-0.6-3.8-2.7-7.1-5.9-9.3c-3.2-2.2-7-3.1-10.8-2.5c-3.8,0.6-7.1,2.7-9.3,5.9
		c-2.2,3.2-3.1,7-2.5,10.8l11.2,65.3c1.2,7,7.3,12,14.2,12c0.8,0,1.6-0.1,2.4-0.2c3.8-0.6,7.1-2.7,9.3-5.9c2.2-3.2,3.1-7,2.5-10.8
		L156.3,85.9z M161,159c-1.5,2.1-3.6,3.4-6.1,3.9c-2.5,0.4-5-0.1-7-1.6c-2.1-1.5-3.4-3.6-3.9-6.1l-11.2-65.3c-0.4-2.5,0.1-5,1.6-7
		c1.5-2.1,3.6-3.4,6.1-3.9c2.5-0.4,5,0.1,7,1.6c2.1,1.5,3.4,3.6,3.9,6.1l11.2,65.3C163,154.5,162.4,157,161,159z"/>
	<linearGradient id="SVGID_3_" gradientUnits="userSpaceOnUse" x1="147.5128" y1="30.3333" x2="147.5128" y2="193.8364">
		<stop  offset="0" style="stop-color:#224FC4"/>
		<stop  offset="2.072120e-02" style="stop-color:#2553C7"/>
		<stop  offset="0.2069" style="stop-color:#3A75DA"/>
		<stop  offset="0.397" style="stop-color:#4B90EA"/>
		<stop  offset="0.5902" style="stop-color:#57A3F5"/>
		<stop  offset="0.7887" style="stop-color:#5FAEFC"/>
		<stop  offset="1" style="stop-color:#61B2FE"/>
	</linearGradient>
	<path class="st4" d="M174.3,151.3l-11.6-67.4c-0.9-5.3-3.9-10-8.3-13.1c-4.4-3.1-9.8-4.4-15.1-3.4l-2.2,0.4
		c-5.3,0.9-10,3.9-13.1,8.3c-3.1,4.4-4.4,9.8-3.4,15.1l11.6,67.4c0.9,5.3,3.9,10,8.3,13.1c3.5,2.5,7.5,3.7,11.7,3.7
		c1.1,0,2.3-0.1,3.4-0.3l2.2-0.4C168.8,172.8,176.2,162.3,174.3,151.3z M157.5,172.7l-2.2,0.4c-4.8,0.8-9.6-0.3-13.6-3.1
		c-4-2.8-6.6-7-7.5-11.8l-11.6-67.4c-0.8-4.8,0.3-9.6,3.1-13.6c2.8-4,7-6.6,11.8-7.5l2.2-0.4c4.8-0.8,9.6,0.3,13.6,3.1
		c4,2.8,6.6,7,7.5,11.8l11.6,67.4C174.1,161.5,167.4,171,157.5,172.7z"/>
	<linearGradient id="SVGID_4_" gradientUnits="userSpaceOnUse" x1="65.0058" y1="30.3333" x2="65.0058" y2="193.8364">
		<stop  offset="0" style="stop-color:#224FC4"/>
		<stop  offset="2.072120e-02" style="stop-color:#2553C7"/>
		<stop  offset="0.2069" style="stop-color:#3A75DA"/>
		<stop  offset="0.397" style="stop-color:#4B90EA"/>
		<stop  offset="0.5902" style="stop-color:#57A3F5"/>
		<stop  offset="0.7887" style="stop-color:#5FAEFC"/>
		<stop  offset="1" style="stop-color:#61B2FE"/>
	</linearGradient>
	<path class="st5" d="M63.1,98.8c-2.7-2.7-6.3-4.2-10.2-4.3c0,0-0.1,0-0.1,0c-3.8,0-7.4,1.5-10.2,4.2c-2.7,2.7-4.2,6.3-4.3,10.2
		c0,0,0,0.1,0,0.1c-5.6-3.5-13-2.9-17.9,1.9c-2.7,2.7-4.2,6.3-4.3,10.2s1.5,7.5,4.2,10.2l46.6,47.1c2.7,2.7,6.3,4.2,10.2,4.3
		c0,0,0.1,0,0.1,0c3.8,0,7.4-1.5,10.2-4.2c2.7-2.7,4.2-6.3,4.3-10.2c0,0,0-0.1,0-0.1c2.4,1.5,5.1,2.3,7.8,2.3
		c3.7,0,7.3-1.4,10.2-4.2c2.7-2.7,4.2-6.3,4.3-10.2s-1.5-7.5-4.2-10.2L63.1,98.8z M83.8,174.9c-1.8,1.8-4.1,2.7-6.6,2.7
		c0,0,0,0-0.1,0c-2.5,0-4.9-1-6.7-2.8l-46.6-47.1c-1.8-1.8-2.7-4.2-2.7-6.7c0-2.5,1-4.9,2.8-6.7c1.8-1.8,4.2-2.7,6.6-2.7
		c2.4,0,4.9,0.9,6.7,2.8l46.6,47.1c1.8,1.8,2.7,4.2,2.7,6.7C86.6,170.8,85.6,173.2,83.8,174.9z M106,162.8
		c-3.7,3.7-9.7,3.6-13.3-0.1l-46.6-47.1v0c-1.8-1.8-2.7-4.2-2.7-6.7c0-2.5,1-4.9,2.8-6.7c1.8-1.8,4.1-2.7,6.6-2.7c0,0,0,0,0.1,0
		c2.5,0,4.9,1,6.7,2.8l46.6,47.1c1.8,1.8,2.7,4.2,2.7,6.7S107.8,161,106,162.8z"/>
	<linearGradient id="SVGID_5_" gradientUnits="userSpaceOnUse" x1="71.377" y1="30.3333" x2="71.377" y2="193.8364">
		<stop  offset="0" style="stop-color:#224FC4"/>
		<stop  offset="2.072120e-02" style="stop-color:#2553C7"/>
		<stop  offset="0.2069" style="stop-color:#3A75DA"/>
		<stop  offset="0.397" style="stop-color:#4B90EA"/>
		<stop  offset="0.5902" style="stop-color:#57A3F5"/>
		<stop  offset="0.7887" style="stop-color:#5FAEFC"/>
		<stop  offset="1" style="stop-color:#61B2FE"/>
	</linearGradient>
	<path class="st6" d="M80.9,107.3l0.8,0.3c2.4,0.9,4.8,1.4,7.3,1.4c2.8,0,5.6-0.6,8.2-1.8c5-2.2,8.8-6.2,10.7-11.2l24.6-63.8
		c1.9-5,1.8-10.5-0.4-15.5C130,11.8,126,8,121,6l-2.1-0.8c-5-1.9-10.5-1.8-15.5,0.4c-5,2.2-8.8,6.2-10.7,11.2L68.1,80.6
		c-1.7,4.3-1.8,8.9-0.4,13.3l-0.4-0.4c-3.8-3.8-8.9-6-14.3-6c0,0-0.1,0-0.1,0c-5.4,0-10.4,2.1-14.2,5.8L37,94.9
		c-1.5,1.4-2.7,3.1-3.7,5c-6.2-0.8-12.5,1.2-16.9,5.6l-1.6,1.6c-7.9,7.9-8,20.7-0.2,28.6l48.1,48.6c3.8,3.8,8.9,6,14.3,6
		c0,0,0.1,0,0.1,0c5.4,0,10.4-2.1,14.2-5.8l1.6-1.6c1.5-1.4,2.7-3.1,3.7-5c6.2,0.8,12.5-1.3,16.9-5.6l1.6-1.6
		c7.9-7.9,8-20.7,0.2-28.6L80.9,107.3z M70.3,95.3c-2-4.5-2.1-9.4-0.4-14l24.6-63.8c1.8-4.5,5.2-8.1,9.6-10.1c4.5-2,9.4-2.1,14-0.4
		l2.1,0.8c4.5,1.7,8.1,5.2,10.1,9.6c2,4.5,2.1,9.4,0.4,14L106,95.3c-1.8,4.5-5.2,8.1-9.6,10.1c-4.5,2-9.4,2.1-14,0.4l-2.1-0.8
		c-1.4-0.5-2.7-1.3-3.9-2.1l-4.6-4.6C71.3,97.3,70.7,96.3,70.3,95.3z M113.8,169.3l-1.6,1.6c-4.2,4.1-10.1,6-15.9,5l-0.7-0.1
		l-0.3,0.7c-0.9,1.9-2.1,3.6-3.6,5.1l-1.6,1.6c-3.4,3.4-8,5.3-12.8,5.3c0,0-0.1,0-0.1,0c-4.9,0-9.5-1.9-12.9-5.4l-48.1-48.6
		c-7.1-7.2-7-18.7,0.1-25.8l1.6-1.6c3.4-3.4,8.1-5.2,12.8-5.2c1,0,2.1,0.1,3.1,0.3l0.7,0.1l0.3-0.7c0.9-1.9,2.1-3.6,3.6-5.1l1.6-1.6
		c3.4-3.4,8-5.3,12.8-5.3c0,0,0.1,0,0.1,0c4.9,0,9.5,1.9,12.9,5.4l4.5,4.6c1.3,1.9,3,3.6,4.8,4.9l38.7,39.1
		C121,150.7,120.9,162.3,113.8,169.3z"/>
</g>
</svg>
