<?xml version="1.0" encoding="utf-8"?>
<!-- Generator: Adobe Illustrator 22.0.1, SVG Export Plug-In . SVG Version: 6.00 Build 0)  -->
<svg version="1.1" id="Layer_1" xmlns="http://www.w3.org/2000/svg" xmlns:xlink="http://www.w3.org/1999/xlink" x="0px" y="0px"
	 viewBox="0 0 200 200" style="enable-background:new 0 0 200 200;" xml:space="preserve">
<style type="text/css">
	.st0{fill:none;stroke:#000000;stroke-width:5;stroke-miterlimit:10;}
	.st1{fill:none;stroke:#000000;stroke-width:5;stroke-linecap:round;stroke-miterlimit:10;}
	.st2{fill:url(#SVGID_1_);}
	.st3{fill:url(#SVGID_2_);}
	.st4{fill:url(#SVGID_3_);}
	.st5{fill:url(#SVGID_4_);}
	.st6{fill:url(#SVGID_5_);}
	.st7{fill:url(#SVGID_6_);}
	.st8{fill:url(#SVGID_7_);}
	.st9{fill:url(#SVGID_8_);}
	.st10{fill:url(#SVGID_9_);}
	.st11{fill:url(#SVGID_10_);}
	.st12{fill:url(#SVGID_11_);}
	.st13{fill:url(#SVGID_12_);}
	.st14{fill:url(#SVGID_13_);}
	.st15{fill:url(#SVGID_14_);}
	.st16{fill:url(#SVGID_15_);}
	.st17{fill:url(#SVGID_16_);}
	.st18{fill:url(#SVGID_17_);}
	.st19{fill:url(#SVGID_18_);}
	.st20{fill:url(#SVGID_19_);}
	.st21{fill:url(#SVGID_20_);}
	.st22{fill:url(#SVGID_21_);}
	.st23{fill:url(#SVGID_22_);}
	.st24{opacity:0.2;fill:url(#SVGID_23_);}
	.st25{opacity:0.2;fill:url(#SVGID_24_);}
	.st26{opacity:0.2;fill:url(#SVGID_25_);}
	.st27{opacity:0.2;fill:url(#SVGID_26_);}
	.st28{fill:url(#SVGID_27_);}
	.st29{fill:url(#SVGID_28_);}
	.st30{opacity:0.2;fill:url(#SVGID_29_);}
	.st31{opacity:0.2;fill:url(#SVGID_30_);}
	.st32{fill:url(#SVGID_31_);}
	.st33{opacity:0.2;fill:url(#SVGID_32_);}
	.st34{opacity:0.2;fill:url(#SVGID_33_);}
	.st35{opacity:0.2;fill:url(#SVGID_34_);}
	.st36{opacity:0.2;fill:url(#SVGID_35_);}
	.st37{fill:url(#SVGID_36_);}
	.st38{opacity:0.2;fill:url(#SVGID_37_);}
	.st39{fill:url(#SVGID_38_);}
	.st40{opacity:0.2;fill:url(#SVGID_39_);}
	.st41{fill:url(#SVGID_40_);}
	.st42{fill:url(#SVGID_41_);}
	.st43{fill:url(#SVGID_42_);}
	.st44{fill:url(#SVGID_43_);}
	.st45{fill:url(#SVGID_44_);}
	.st46{opacity:0.2;fill:url(#SVGID_45_);}
	.st47{fill:url(#SVGID_46_);}
	.st48{opacity:0.2;fill:url(#SVGID_47_);}
	.st49{fill:url(#SVGID_48_);}
	.st50{opacity:0.2;fill:url(#SVGID_49_);}
	.st51{fill:url(#SVGID_50_);}
	.st52{fill:url(#SVGID_51_);}
	.st53{fill:url(#SVGID_52_);}
	.st54{fill:url(#SVGID_53_);}
	.st55{fill:url(#SVGID_54_);}
	.st56{fill:url(#SVGID_55_);}
	.st57{fill:url(#SVGID_56_);}
	.st58{fill:url(#SVGID_57_);}
	.st59{fill:url(#SVGID_58_);}
	.st60{fill:url(#SVGID_59_);}
	.st61{fill:url(#SVGID_60_);}
	.st62{fill:url(#SVGID_61_);}
	.st63{fill:url(#SVGID_62_);}
	.st64{fill:url(#SVGID_63_);}
	.st65{fill:url(#SVGID_64_);}
	.st66{fill:url(#SVGID_65_);}
	.st67{fill:url(#SVGID_66_);}
	.st68{fill:url(#SVGID_67_);}
	.st69{fill:url(#SVGID_68_);}
	.st70{fill:url(#SVGID_69_);}
	.st71{fill:url(#SVGID_70_);}
	.st72{fill:url(#SVGID_71_);}
	.st73{fill:url(#SVGID_72_);}
	.st74{fill:url(#SVGID_73_);}
	.st75{fill:url(#SVGID_74_);}
	.st76{fill:url(#SVGID_75_);}
	.st77{fill:url(#SVGID_76_);}
	.st78{fill:url(#SVGID_77_);}
	.st79{fill:url(#SVGID_78_);}
	.st80{fill:url(#SVGID_79_);}
	.st81{fill:url(#SVGID_80_);}
	.st82{fill:url(#SVGID_81_);}
	.st83{fill:url(#SVGID_82_);}
	.st84{fill:url(#SVGID_83_);}
	.st85{fill:url(#SVGID_84_);}
	.st86{fill:url(#SVGID_85_);}
	.st87{fill:url(#SVGID_86_);}
	.st88{fill:url(#SVGID_87_);}
	.st89{fill:url(#SVGID_88_);}
	.st90{fill:url(#SVGID_89_);}
	.st91{fill:url(#SVGID_90_);}
	.st92{fill:url(#SVGID_91_);}
	.st93{fill:url(#SVGID_92_);}
	.st94{fill:url(#SVGID_93_);}
	.st95{fill:url(#SVGID_94_);}
	.st96{fill:url(#SVGID_95_);}
	.st97{fill:url(#SVGID_96_);}
	.st98{fill:url(#SVGID_97_);}
	.st99{fill:url(#SVGID_98_);}
	.st100{fill:url(#SVGID_99_);}
	.st101{fill:url(#SVGID_100_);}
	.st102{fill:url(#SVGID_101_);}
	.st103{fill:url(#SVGID_102_);}
	.st104{fill:url(#SVGID_103_);}
	.st105{fill:url(#SVGID_104_);}
	.st106{fill:url(#SVGID_105_);}
	.st107{fill:url(#SVGID_106_);}
	.st108{fill:url(#SVGID_107_);}
	.st109{fill:url(#SVGID_108_);}
	.st110{fill:url(#SVGID_109_);}
	.st111{fill:url(#SVGID_110_);}
	.st112{fill:url(#SVGID_111_);}
	.st113{fill:url(#SVGID_112_);}
	.st114{fill:url(#SVGID_113_);}
	.st115{fill:url(#SVGID_114_);}
	.st116{fill:url(#SVGID_115_);}
	.st117{fill:url(#SVGID_116_);}
	.st118{fill:url(#SVGID_117_);}
	.st119{fill:url(#SVGID_118_);}
	.st120{fill:url(#SVGID_119_);}
	.st121{fill:url(#SVGID_120_);}
	.st122{fill:url(#SVGID_121_);}
	.st123{fill:url(#SVGID_122_);}
	.st124{fill:url(#SVGID_123_);}
	.st125{display:none;}
	.st126{fill:url(#SVGID_124_);}
	.st127{fill:url(#SVGID_125_);}
	.st128{fill:url(#SVGID_126_);}
	.st129{fill:url(#SVGID_127_);}
	.st130{fill:url(#SVGID_128_);}
	.st131{fill:url(#SVGID_129_);}
	.st132{fill:url(#SVGID_130_);}
	.st133{fill:url(#SVGID_131_);}
	.st134{fill:url(#SVGID_132_);}
	.st135{fill:url(#SVGID_133_);}
	.st136{fill:url(#SVGID_134_);}
	.st137{fill:url(#SVGID_135_);}
	.st138{fill:url(#SVGID_136_);}
	.st139{fill:url(#SVGID_137_);}
	.st140{fill:url(#SVGID_138_);}
	.st141{fill:url(#SVGID_139_);}
	.st142{fill:url(#SVGID_140_);}
	.st143{fill:url(#SVGID_141_);}
	.st144{fill:url(#SVGID_142_);}
	.st145{fill:url(#SVGID_143_);}
	.st146{fill:url(#SVGID_144_);}
	.st147{fill:url(#SVGID_145_);}
	.st148{fill:url(#SVGID_146_);}
</style>
<g>
	<linearGradient id="SVGID_1_" gradientUnits="userSpaceOnUse" x1="96.3216" y1="12" x2="96.3216" y2="201.0026">
		<stop  offset="0" style="stop-color:#224FC4"/>
		<stop  offset="2.072120e-02" style="stop-color:#2553C7"/>
		<stop  offset="0.2069" style="stop-color:#3A75DA"/>
		<stop  offset="0.397" style="stop-color:#4B90EA"/>
		<stop  offset="0.5902" style="stop-color:#57A3F5"/>
		<stop  offset="0.7887" style="stop-color:#5FAEFC"/>
		<stop  offset="1" style="stop-color:#61B2FE"/>
	</linearGradient>
	<path class="st2" d="M178.6,23.7c0.2-4.9-1.1-9-3.8-12.3c-4.2-5.2-10.7-6.6-13.3-7.1c-5.4-2.8-10.8-3.5-16.3-2
		c-6.1,1.8-10.4,5.8-12.8,8.8c-4.9-0.9-9.4-0.2-13.1,2.1c-2.9,1.9-4.6,4.3-5.7,6.2c-2-0.3-4-0.1-5.8,0.6c-1.3,0.5-2.4,1.2-3.3,1.8
		c-0.8-0.5-1.7-0.9-2.6-1.1c-2.7-0.8-5.2-0.7-7.2-0.4c-1.3-1.8-2.8-3.2-4.7-4.3c-2.5-1.4-5.4-2.1-8.7-2c-1.5-2.6-3.6-4.6-6.1-6.2
		c0,0-0.1,0-0.1-0.1c-4.7-2.5-9.7-2.3-12.2-2c-4.7-3.7-9.6-5.4-14.6-5.2c-6.4,0.3-11.4,3.7-14,6c-5.6,1.1-9.6,3.7-11.8,7.7
		c-2.2,3.8-2.4,7.9-2.1,10.7c-2.8,1.9-4.8,4.4-6,7.4c-1.7,4.5-1,9.1-0.3,11.7c-6.3,8.1-3.8,17-2.1,21c-5,8.3-1.7,17.2,0,20.8
		c-1.6,6.2-3.9,19.4,3.1,29.1c4.8,6.7,12.7,10.1,23.4,10.1c11.1,0,19.1-3.4,23.9-10.2c6.8-9.6,4.3-22.4,2.9-27.3
		c4.4-9.8,1.9-16.3-0.2-19.6c0.3-0.7,0.6-1.5,0.8-2.3c5.5,2.6,10.8,2.2,13.9,1.5c3,3,6.5,4.9,10.4,5.4c3.8,0.5,7.7-0.2,11.7-2
		c4.2,2.4,8.3,3.1,12.2,2c3.4-0.9,5.8-3.1,7.2-4.9c2.9,0.7,5.7,0.5,8.2-0.4c0,0,0,0,0,0c-1.4,1.8-2.3,4-2.7,6.2
		c-0.6,3.4,0,7.1,1.9,10.9c-2.6,4.8-2.5,10.1,0,15.1c-0.6,0.8-1.1,1.7-1.5,2.7c-0.9,2-1,4-1,5.7c-0.1,0-0.1,0.1-0.2,0.1
		c-0.1,0-0.1,0.1-0.2,0.1c-0.2,0.1-0.4,0.3-0.6,0.5c-2.4-1.2-4.9-1.8-7.5-1.8c-4.8,0-8.9,2.1-11.8,4.1c-6.9-2.5-16.7-1.8-24.9,7.4
		c-10.4,11.8-7.3,25.2-5.1,30.9c-0.5,6.9-2.1,34.5,7.6,45c2.8,2.9,6.2,4.5,10,4.5c3.9,0,7.5-1.6,10.3-4.6c7.4-7.7,9.4-23.9,9.8-34.9
		c6.3,1.6,11.5-0.6,14.1-2.2c6.1,3.3,12.1,4.2,17.4,2.8c5.9-1.7,9.7-5.8,11.6-8.6c12.8-4.3,17.5-13.6,17.7-20.7
		c9.2-12.1,3.9-23.4,0.9-28.1c3.4-7.7,1.2-14.5-0.3-17.7c4.2-7.7,2-13.7,0.3-16.6c4.3-7.2,2.9-14.2,1.7-17.8
		c3.7-3.3,5.8-7.3,6.2-11.9c0,0,0,0,0,0C183.8,32,180.6,26.4,178.6,23.7z M178.3,38.3c-0.3,3.7-2.2,6.9-5.8,9.5
		c-0.9,0.7-1.3,2-0.8,3c1.2,2.6,3.4,9.3-1.4,16.1c-0.6,0.9-0.6,2.1,0.1,3c1.4,1.8,4.1,6.7-0.3,13.7c-0.5,0.8-0.5,1.8,0,2.6
		c1.3,2.3,4,8.3,0.2,15.5c-0.4,0.8-0.4,1.9,0.2,2.6c2.7,3.7,8.1,13.4-0.4,23.9c-0.4,0.5-0.6,1-0.6,1.6c0.1,5.7-3.7,13.5-15,17
		c-0.6,0.2-1,0.5-1.4,1c-1.4,2.1-4.4,5.8-9.3,7.2c-4.4,1.2-9.4,0.2-14.9-3c-0.9-0.5-2-0.5-2.8,0.1c-1.5,1.1-7,4.6-13.9,1.4
		c-0.8-0.4-1.7-0.3-2.4,0.1c-0.7,0.5-1.2,1.2-1.2,2.1c-0.1,8-1.1,27.4-8.5,35c-1.9,2-4.2,3-6.7,3c-2.4,0-4.5-1-6.3-2.9
		c-7.1-7.7-7.2-29.9-6.2-41.8c0-0.4,0-0.8-0.2-1.1c-1.8-4.5-5-16.2,4-26.3c5-5.6,10-7,14-7c3.1,0,5.4,0.9,6.6,1.4
		c0.8,0.4,1.8,0.3,2.6-0.3c2.3-1.8,5.9-3.9,9.9-3.9c2.4,0,4.6,0.7,6.7,2c0.6,0.4,1.3,0.5,1.9,0.3c0.7-0.2,1.2-0.6,1.6-1.1
		c0.1-0.2,0.6-0.6,1-0.9c0.3-0.2,0.7-0.4,1.1-0.6c1-0.5,1.5-1.5,1.4-2.6c-0.3-1.8-0.1-3.5,0.5-4.8c0.4-1,0.9-1.8,1.6-2.4
		c0.9-0.8,1.1-2.2,0.5-3.2c-2.8-4.4-2.9-8.7-0.3-12.7c0.5-0.8,0.5-1.8,0.1-2.6c-1.8-3.3-2.5-6.3-2-9c0.3-1.9,1.2-3.6,2.6-5
		c0.8-0.8,1-2.1,0.4-3.1l-0.2-0.3c-0.5-0.9-1.1-1.8-1.5-2.8c-0.3-0.7-0.8-1.2-1.5-1.5c-0.7-0.3-1.5-0.2-2.1,0.2
		c-2.5,1.4-5.2,1.6-8.4,0.6c-1.1-0.4-2.3,0.1-2.9,1.1c-0.6,1-2.4,3.5-5.4,4.3c-2.9,0.8-6,0.1-9.4-2.1c-0.8-0.5-1.7-0.5-2.5-0.1
		c-3.5,1.8-6.9,2.6-10,2.2c-3.1-0.4-6-2.1-8.4-4.9c-0.6-0.8-1.7-1.1-2.6-0.8c-2.3,0.7-8.4,1.8-14.4-2.3c-0.7-0.5-1.7-0.6-2.5-0.2
		c-0.8,0.4-1.3,1.2-1.4,2.1c-0.1,1.9-0.7,3.8-1.6,5.4c-0.5,0.9-0.4,2,0.3,2.8c1.6,1.8,4.7,7.1,0.2,16.4c-0.3,0.6-0.3,1.2-0.1,1.8
		c1.1,3.5,4,15.5-1.9,23.9c-3.8,5.4-10.5,8.1-19.9,8.1c-9,0-15.5-2.7-19.4-8c-6.2-8.7-3.1-21.9-2-25.7c0.2-0.6,0.1-1.3-0.2-1.9
		c-1.3-2.4-5-10.6,0-17.7c0.5-0.8,0.6-1.7,0.2-2.6c-1.5-3-4.4-10.9,1.7-17.9c0.6-0.7,0.8-1.6,0.5-2.5c-0.5-1.6-1.7-5.7-0.2-9.6
		c0.9-2.4,2.7-4.4,5.2-5.7c1-0.5,1.5-1.6,1.3-2.6c-0.4-2-0.7-5.7,1.2-9c1.6-2.8,4.7-4.6,9.1-5.4c0.5-0.1,0.9-0.3,1.3-0.6
		c2-1.8,6.1-5,11.4-5.2c4.1-0.2,8,1.3,12,4.8c0.6,0.5,1.4,0.7,2.1,0.5c2.7-0.5,6.7-0.5,10,1.3c2.2,1.3,3.8,3.1,5,5.5
		c0.5,1,1.5,1.5,2.5,1.4c1.9-0.2,4.7-0.3,7.4,1.2c1.6,0.9,2.8,2.2,3.7,4c0.6,1.1,1.8,1.6,3,1.2c1.2-0.4,3.7-0.9,6.2-0.1
		c1,0.3,2,0.8,2.6,1.4c1,0.9,2.5,0.8,3.4-0.1c0.9-0.9,2.1-1.7,3.2-2.1c1.5-0.5,3.1-0.6,4.8-0.1c1.2,0.4,2.6-0.3,3-1.5
		c0.4-1.1,1.8-3.9,4.6-5.8c2.9-1.8,6.5-2.2,10.8-1.1c1,0.3,2-0.1,2.6-1c1.7-2.4,5.5-6.6,11.1-8.2c4.3-1.1,8.6-0.5,12.9,1.8
		c0.2,0.1,0.5,0.2,0.8,0.3c1.8,0.3,7.4,1.3,10.7,5.4c2.1,2.5,2.9,5.7,2.6,9.6c-0.1,0.6,0.1,1.2,0.5,1.7
		C175.5,27.8,178.8,32.7,178.3,38.3z"/>
	<linearGradient id="SVGID_2_" gradientUnits="userSpaceOnUse" x1="37.7819" y1="12" x2="37.7819" y2="201.0026">
		<stop  offset="0" style="stop-color:#224FC4"/>
		<stop  offset="2.072120e-02" style="stop-color:#2553C7"/>
		<stop  offset="0.2069" style="stop-color:#3A75DA"/>
		<stop  offset="0.397" style="stop-color:#4B90EA"/>
		<stop  offset="0.5902" style="stop-color:#57A3F5"/>
		<stop  offset="0.7887" style="stop-color:#5FAEFC"/>
		<stop  offset="1" style="stop-color:#61B2FE"/>
	</linearGradient>
	<path class="st3" d="M40.7,49.2c-1.2-0.6-2.7-0.1-3.4,1.1c-2.6,5.2-3,11.2-1.2,17.4c-4.6,8.6-2,16.2-0.3,19.5
		c-2.5,6.6-0.3,13.9,0.3,15c0.4,0.9,1.3,1.4,2.2,1.4c0.4,0,0.8-0.1,1.1-0.3c1.2-0.6,1.7-2,1.2-3.2c-0.1-0.4-2.3-6.7,0.2-11.9
		c0.4-0.8,0.3-1.6-0.1-2.4c-1.1-1.9-4.4-8.6,0.3-16.5c0.4-0.6,0.4-1.4,0.2-2.1c-1.8-5.3-1.5-10.3,0.6-14.6
		C42.4,51.4,41.9,49.9,40.7,49.2z"/>
	<linearGradient id="SVGID_3_" gradientUnits="userSpaceOnUse" x1="99.297" y1="12" x2="99.297" y2="201.0026">
		<stop  offset="0" style="stop-color:#224FC4"/>
		<stop  offset="2.072120e-02" style="stop-color:#2553C7"/>
		<stop  offset="0.2069" style="stop-color:#3A75DA"/>
		<stop  offset="0.397" style="stop-color:#4B90EA"/>
		<stop  offset="0.5902" style="stop-color:#57A3F5"/>
		<stop  offset="0.7887" style="stop-color:#5FAEFC"/>
		<stop  offset="1" style="stop-color:#61B2FE"/>
	</linearGradient>
	<path class="st4" d="M138,38.7c1.4,0.1,2.6-0.9,2.7-2.2c0.1-1.4-0.9-2.6-2.2-2.7c-11.1-1.1-16.9,4.4-19.4,8
		c-6.9-0.9-12,1.2-15.1,3.1c-5.1-3-10.7-2.8-14-2.3c-5.6-7.4-13.6-7.7-17.6-7.3c-5.2-6.2-13-6.5-14.6-6.5v2.5l0.1,2.5
		c1.3,0,7.7,0.2,11.4,5.5c0.6,0.8,1.5,1.2,2.5,1c2.3-0.4,10.3-1.2,15,6.3c0.6,0.9,1.6,1.3,2.6,1.1c2.3-0.5,8.3-1.3,13.2,2.1
		c0.4,0.3,0.9,0.5,1.5,0.5c0.5,0,1-0.2,1.5-0.5c2.8-2,7.5-4.2,14.3-2.9c1.1,0.2,2.1-0.3,2.7-1.2C124.2,42.7,128.5,37.8,138,38.7z"/>
	<linearGradient id="SVGID_4_" gradientUnits="userSpaceOnUse" x1="129.2907" y1="12" x2="129.2907" y2="201.0026">
		<stop  offset="0" style="stop-color:#224FC4"/>
		<stop  offset="2.072120e-02" style="stop-color:#2553C7"/>
		<stop  offset="0.2069" style="stop-color:#3A75DA"/>
		<stop  offset="0.397" style="stop-color:#4B90EA"/>
		<stop  offset="0.5902" style="stop-color:#57A3F5"/>
		<stop  offset="0.7887" style="stop-color:#5FAEFC"/>
		<stop  offset="1" style="stop-color:#61B2FE"/>
	</linearGradient>
	<path class="st5" d="M152.1,71.8c-3,3.1-6.7,10.5-2.4,18.8c-2.1,4.4-4.4,11.6-1.4,18.4c-2.5,5-3.6,9.4-3.6,13.3
		c-4,1.4-9.7,4.1-13.8,9c-4.6-1.2-10.6-1.8-16.1,0.2c-3.2-1.6-7.3-3-11-1.6c-1.3,0.5-1.9,1.9-1.4,3.2c0.5,1.3,1.9,1.9,3.2,1.4
		c1.7-0.7,4.6,0,7.8,1.9c0.4,0.2,0.8,0.3,1.3,0.3c0.4,0,0.7-0.1,1-0.2c5.3-2.4,11.9-1,15.4,0c1,0.3,2.1-0.1,2.7-0.9
		c3.9-5.4,10.6-8,14.2-9.1c1.2-0.4,2-1.6,1.8-2.8c-0.6-3.4,0.6-8.1,3.4-13.5c0.4-0.7,0.4-1.6,0-2.4c-3.2-5.8-0.5-12.6,1.4-16.1
		c0.4-0.8,0.4-1.7-0.1-2.5c-4.7-7.8,0.8-13.8,1.1-14c1-1,0.9-2.6-0.1-3.5C154.6,70.8,153,70.8,152.1,71.8z"/>
</g>
</svg>
