<?xml version="1.0" encoding="utf-8"?>
<!-- Generator: Adobe Illustrator 22.0.1, SVG Export Plug-In . SVG Version: 6.00 Build 0)  -->
<svg version="1.1" id="Layer_1" xmlns="http://www.w3.org/2000/svg" xmlns:xlink="http://www.w3.org/1999/xlink" x="0px" y="0px"
	 viewBox="0 0 200 200" style="enable-background:new 0 0 200 200;" xml:space="preserve">
<style type="text/css">
	.st0{fill:none;stroke:#000000;stroke-width:5;stroke-miterlimit:10;}
	.st1{fill:none;stroke:#000000;stroke-width:5;stroke-linecap:round;stroke-miterlimit:10;}
	.st2{fill:url(#SVGID_1_);}
	.st3{fill:url(#SVGID_2_);}
	.st4{fill:url(#SVGID_3_);}
	.st5{fill:url(#SVGID_4_);}
	.st6{fill:url(#SVGID_5_);}
	.st7{fill:url(#SVGID_6_);}
	.st8{fill:url(#SVGID_7_);}
	.st9{fill:url(#SVGID_8_);}
	.st10{fill:url(#SVGID_9_);}
	.st11{fill:url(#SVGID_10_);}
	.st12{fill:url(#SVGID_11_);}
	.st13{fill:url(#SVGID_12_);}
	.st14{fill:url(#SVGID_13_);}
	.st15{fill:url(#SVGID_14_);}
	.st16{fill:url(#SVGID_15_);}
	.st17{fill:url(#SVGID_16_);}
	.st18{fill:url(#SVGID_17_);}
	.st19{fill:url(#SVGID_18_);}
	.st20{fill:url(#SVGID_19_);}
	.st21{fill:url(#SVGID_20_);}
	.st22{fill:url(#SVGID_21_);}
	.st23{fill:url(#SVGID_22_);}
	.st24{opacity:0.2;fill:url(#SVGID_23_);}
	.st25{opacity:0.2;fill:url(#SVGID_24_);}
	.st26{opacity:0.2;fill:url(#SVGID_25_);}
	.st27{opacity:0.2;fill:url(#SVGID_26_);}
	.st28{fill:url(#SVGID_27_);}
	.st29{fill:url(#SVGID_28_);}
	.st30{opacity:0.2;fill:url(#SVGID_29_);}
	.st31{opacity:0.2;fill:url(#SVGID_30_);}
	.st32{fill:url(#SVGID_31_);}
	.st33{opacity:0.2;fill:url(#SVGID_32_);}
	.st34{opacity:0.2;fill:url(#SVGID_33_);}
	.st35{opacity:0.2;fill:url(#SVGID_34_);}
	.st36{opacity:0.2;fill:url(#SVGID_35_);}
	.st37{fill:url(#SVGID_36_);}
	.st38{opacity:0.2;fill:url(#SVGID_37_);}
	.st39{fill:url(#SVGID_38_);}
	.st40{opacity:0.2;fill:url(#SVGID_39_);}
	.st41{fill:url(#SVGID_40_);}
	.st42{fill:url(#SVGID_41_);}
	.st43{fill:url(#SVGID_42_);}
	.st44{fill:url(#SVGID_43_);}
	.st45{fill:url(#SVGID_44_);}
	.st46{opacity:0.2;fill:url(#SVGID_45_);}
	.st47{fill:url(#SVGID_46_);}
	.st48{opacity:0.2;fill:url(#SVGID_47_);}
	.st49{fill:url(#SVGID_48_);}
	.st50{opacity:0.2;fill:url(#SVGID_49_);}
	.st51{fill:url(#SVGID_50_);}
	.st52{fill:url(#SVGID_51_);}
	.st53{fill:url(#SVGID_52_);}
	.st54{fill:url(#SVGID_53_);}
	.st55{fill:url(#SVGID_54_);}
	.st56{fill:url(#SVGID_55_);}
	.st57{fill:url(#SVGID_56_);}
	.st58{fill:url(#SVGID_57_);}
	.st59{fill:url(#SVGID_58_);}
	.st60{fill:url(#SVGID_59_);}
	.st61{fill:url(#SVGID_60_);}
	.st62{fill:url(#SVGID_61_);}
	.st63{fill:url(#SVGID_62_);}
	.st64{fill:url(#SVGID_63_);}
	.st65{fill:url(#SVGID_64_);}
	.st66{fill:url(#SVGID_65_);}
	.st67{fill:url(#SVGID_66_);}
	.st68{fill:url(#SVGID_67_);}
	.st69{fill:url(#SVGID_68_);}
	.st70{fill:url(#SVGID_69_);}
	.st71{fill:url(#SVGID_70_);}
	.st72{fill:url(#SVGID_71_);}
	.st73{fill:url(#SVGID_72_);}
	.st74{fill:url(#SVGID_73_);}
	.st75{fill:url(#SVGID_74_);}
	.st76{fill:url(#SVGID_75_);}
	.st77{fill:url(#SVGID_76_);}
	.st78{fill:url(#SVGID_77_);}
	.st79{fill:url(#SVGID_78_);}
	.st80{fill:url(#SVGID_79_);}
	.st81{fill:url(#SVGID_80_);}
	.st82{fill:url(#SVGID_81_);}
	.st83{fill:url(#SVGID_82_);}
	.st84{fill:url(#SVGID_83_);}
	.st85{fill:url(#SVGID_84_);}
	.st86{fill:url(#SVGID_85_);}
	.st87{fill:url(#SVGID_86_);}
	.st88{fill:url(#SVGID_87_);}
	.st89{fill:url(#SVGID_88_);}
	.st90{fill:url(#SVGID_89_);}
	.st91{fill:url(#SVGID_90_);}
	.st92{fill:url(#SVGID_91_);}
	.st93{fill:url(#SVGID_92_);}
	.st94{fill:url(#SVGID_93_);}
	.st95{fill:url(#SVGID_94_);}
	.st96{fill:url(#SVGID_95_);}
	.st97{fill:url(#SVGID_96_);}
	.st98{fill:url(#SVGID_97_);}
	.st99{fill:url(#SVGID_98_);}
	.st100{fill:url(#SVGID_99_);}
	.st101{fill:url(#SVGID_100_);}
	.st102{fill:url(#SVGID_101_);}
	.st103{fill:url(#SVGID_102_);}
	.st104{fill:url(#SVGID_103_);}
	.st105{fill:url(#SVGID_104_);}
	.st106{fill:url(#SVGID_105_);}
	.st107{fill:url(#SVGID_106_);}
	.st108{fill:url(#SVGID_107_);}
	.st109{fill:url(#SVGID_108_);}
	.st110{fill:url(#SVGID_109_);}
	.st111{fill:url(#SVGID_110_);}
	.st112{fill:url(#SVGID_111_);}
	.st113{fill:url(#SVGID_112_);}
	.st114{fill:url(#SVGID_113_);}
	.st115{fill:url(#SVGID_114_);}
	.st116{fill:url(#SVGID_115_);}
	.st117{fill:url(#SVGID_116_);}
	.st118{fill:url(#SVGID_117_);}
	.st119{fill:url(#SVGID_118_);}
	.st120{fill:url(#SVGID_119_);}
	.st121{fill:url(#SVGID_120_);}
	.st122{fill:url(#SVGID_121_);}
	.st123{fill:url(#SVGID_122_);}
	.st124{fill:url(#SVGID_123_);}
	.st125{display:none;}
	.st126{fill:url(#SVGID_124_);}
	.st127{fill:url(#SVGID_125_);}
	.st128{fill:url(#SVGID_126_);}
	.st129{fill:url(#SVGID_127_);}
	.st130{fill:url(#SVGID_128_);}
	.st131{fill:url(#SVGID_129_);}
	.st132{fill:url(#SVGID_130_);}
	.st133{fill:url(#SVGID_131_);}
	.st134{fill:url(#SVGID_132_);}
	.st135{fill:url(#SVGID_133_);}
	.st136{fill:url(#SVGID_134_);}
	.st137{fill:url(#SVGID_135_);}
	.st138{fill:url(#SVGID_136_);}
	.st139{fill:url(#SVGID_137_);}
	.st140{fill:url(#SVGID_138_);}
	.st141{fill:url(#SVGID_139_);}
	.st142{fill:url(#SVGID_140_);}
	.st143{fill:url(#SVGID_141_);}
	.st144{fill:url(#SVGID_142_);}
	.st145{fill:url(#SVGID_143_);}
	.st146{fill:url(#SVGID_144_);}
	.st147{fill:url(#SVGID_145_);}
	.st148{fill:url(#SVGID_146_);}
</style>
<linearGradient id="SVGID_1_" gradientUnits="userSpaceOnUse" x1="99.729" y1="201" x2="99.729" y2="0.8853">
	<stop  offset="0" style="stop-color:#61B2FE"/>
	<stop  offset="1" style="stop-color:#224FC4"/>
</linearGradient>
<path class="st2" d="M186,95.9c-3.2-3.2-7.4-4.8-11.5-4.8l9.5-9.5c3.1-3.1,4.8-7.2,4.8-11.6s-1.7-8.5-4.8-11.6
	c-3.1-3.1-7.2-4.8-11.6-4.8s-8.5,1.7-11.6,4.8l-0.9,0.9c0.3-4.6-1.3-9.2-4.7-12.7c-6.4-6.4-16.8-6.4-23.2,0l-21.1,21.2l15.3-44.5
	c1.4-4.1,1.1-8.6-0.8-12.5c-1.9-3.9-5.3-6.9-9.4-8.3C107.4-0.5,98,4,95.1,12.6l-0.4,1.2C93,9.5,89.5,6,84.8,4.4
	C76.3,1.5,66.9,6,64,14.6l-25,73c0,0,0,0,0,0.1c-1.9-0.5-3.9-0.7-5.9-0.6c-4.4,0.4-8.3,2.4-11.2,5.7c-2.8,3.3-4.2,7.6-3.8,12
	c0.4,4.4,2.4,8.3,5.7,11.2l1,0.8c-0.4,0-0.8,0-1.1,0c-4.4,0.4-8.3,2.4-11.2,5.7c-5.8,6.9-5,17.3,1.9,23.1l58.9,49.8
	c3.1,2.6,6.8,3.9,10.6,3.9c4.7,0,9.3-2,12.5-5.8c2.8-3.3,4.2-7.6,3.8-12s-2.4-8.3-5.7-11.2l-1-0.8c3.7-0.1,7.4-1.4,10.4-3.9
	c0.7,2.9,2.1,5.7,4.4,8c3.2,3.2,7.4,4.8,11.6,4.8c4.2,0,8.4-1.6,11.6-4.8l54.5-54.5c3.1-3.1,4.8-7.2,4.8-11.6
	C190.8,103.1,189.1,99,186,95.9z M109.3,149.5c-0.8-3.3-2.6-6.4-5.4-8.8L90.2,129c3.8-0.3,7.6-1.8,10.5-4.8l0.9-0.9
	c0,0.4-0.1,0.8-0.1,1.1c0,4.4,1.7,8.5,4.8,11.6c3.1,3.1,7.2,4.8,11.6,4.8L109.3,149.5z M70,98.2l0.4-1.2c1,2.6,2.8,4.9,5,6.7
	c-1.7,2.6-2.7,5.8-2.7,9c0,0.5,0,1.1,0.1,1.6l-9.2-7.8C66.5,104.5,68.8,101.6,70,98.2z M164.4,61.9L164.4,61.9
	c2.1-2.1,5-3.3,8.1-3.3s5.9,1.2,8.1,3.3c2.1,2.1,3.3,5,3.3,8.1s-1.2,5.9-3.3,8.1l-54.5,54.5c-2.1,2.1-5,3.3-8.1,3.3
	s-5.9-1.2-8.1-3.3c-2.1-2.1-3.3-5-3.3-8.1s1.2-5.9,3.3-8.1L164.4,61.9z M135.5,50.1c2.2-2.2,5.1-3.3,8.1-3.3c2.9,0,5.8,1.1,8.1,3.3
	c4.4,4.4,4.4,11.7,0,16.1l-54.6,54.6c-4.4,4.4-11.7,4.4-16.1,0c-4-4-4.4-10.1-1.3-14.6c0.4-0.5,0.8-1.1,1.3-1.5l2.6-2.6l15.6-15.6
	l8-8L135.5,50.1z M99.8,14.2c2-5.9,8.5-9.1,14.5-7.1c2.9,1,5.2,3,6.5,5.8c1.3,2.7,1.5,5.8,0.6,8.7l-18.6,54.1L78.6,99.9
	c-3.8-2.9-5.5-8-3.9-12.8L99.8,14.2z M43.7,89.2l25-73c2-6,8.5-9.1,14.5-7.1c2.9,1,5.2,3,6.5,5.8c1.3,2.8,1.5,5.8,0.6,8.7l-25.1,73
	c-1,2.9-3,5.2-5.8,6.5L45,90.9c-0.5-0.4-1-0.8-1.5-1.1C43.5,89.5,43.6,89.4,43.7,89.2z M95.3,182c0.3,3-0.7,6-2.6,8.3
	c-4.1,4.8-11.3,5.4-16.1,1.3l-58.9-49.8h0c-4.8-4.1-5.4-11.3-1.3-16.1c2-2.3,4.7-3.7,7.8-4c3-0.3,6,0.7,8.3,2.6l58.9,49.8
	C93.6,176.2,95,178.9,95.3,182z M86,161.9L27,112.1c-2.3-2-3.7-4.7-4-7.8c-0.3-3,0.7-6,2.6-8.3c2-2.3,4.7-3.7,7.8-4c0.3,0,0.7,0,1,0
	c1.2,0,2.5,0.2,3.6,0.6c1.4,0.5,2.6,1.2,3.7,2.1l1.8,1.5l9.5,8h0l5.4,4.6l42.2,35.7c4.8,4,5.4,11.3,1.4,16.1S90.8,166,86,161.9z
	 M182.5,115.5L128,170.1c-4.4,4.4-11.7,4.4-16.1,0s-4.4-11.7,0-16.1l54.5-54.5v0c4.4-4.4,11.7-4.4,16.1,0
	C187,103.9,187,111.1,182.5,115.5z"/>
</svg>
