<?xml version="1.0" encoding="utf-8"?>
<!-- Generator: Adobe Illustrator 22.0.1, SVG Export Plug-In . SVG Version: 6.00 Build 0)  -->
<svg version="1.1" id="Layer_1" xmlns="http://www.w3.org/2000/svg" xmlns:xlink="http://www.w3.org/1999/xlink" x="0px" y="0px"
	 viewBox="0 0 199 200.3" style="enable-background:new 0 0 199 200.3;" xml:space="preserve">
<style type="text/css">
	.st0{fill:none;stroke:#000000;stroke-width:5;stroke-miterlimit:10;}
	.st1{fill:none;stroke:#000000;stroke-width:5;stroke-linecap:round;stroke-miterlimit:10;}
	.st2{fill:url(#SVGID_1_);}
	.st3{fill:url(#SVGID_2_);}
	.st4{fill:url(#SVGID_3_);}
	.st5{fill:url(#SVGID_4_);}
	.st6{fill:url(#SVGID_5_);}
	.st7{fill:url(#SVGID_6_);}
	.st8{fill:url(#SVGID_7_);}
	.st9{fill:url(#SVGID_8_);}
	.st10{fill:url(#SVGID_9_);}
	.st11{fill:url(#SVGID_10_);}
	.st12{fill:url(#SVGID_11_);}
	.st13{fill:url(#SVGID_12_);}
	.st14{fill:url(#SVGID_13_);}
	.st15{fill:url(#SVGID_14_);}
	.st16{fill:url(#SVGID_15_);}
	.st17{fill:url(#SVGID_16_);}
	.st18{fill:url(#SVGID_17_);}
	.st19{fill:url(#SVGID_18_);}
	.st20{fill:url(#SVGID_19_);}
	.st21{fill:url(#SVGID_20_);}
	.st22{fill:url(#SVGID_21_);}
	.st23{fill:url(#SVGID_22_);}
	.st24{opacity:0.2;fill:url(#SVGID_23_);}
	.st25{opacity:0.2;fill:url(#SVGID_24_);}
	.st26{opacity:0.2;fill:url(#SVGID_25_);}
	.st27{opacity:0.2;fill:url(#SVGID_26_);}
	.st28{fill:url(#SVGID_27_);}
	.st29{fill:url(#SVGID_28_);}
	.st30{opacity:0.2;fill:url(#SVGID_29_);}
	.st31{opacity:0.2;fill:url(#SVGID_30_);}
	.st32{fill:url(#SVGID_31_);}
	.st33{opacity:0.2;fill:url(#SVGID_32_);}
	.st34{opacity:0.2;fill:url(#SVGID_33_);}
	.st35{opacity:0.2;fill:url(#SVGID_34_);}
	.st36{opacity:0.2;fill:url(#SVGID_35_);}
	.st37{fill:url(#SVGID_36_);}
	.st38{opacity:0.2;fill:url(#SVGID_37_);}
	.st39{fill:url(#SVGID_38_);}
	.st40{opacity:0.2;fill:url(#SVGID_39_);}
	.st41{fill:url(#SVGID_40_);}
	.st42{fill:url(#SVGID_41_);}
	.st43{fill:url(#SVGID_42_);}
	.st44{fill:url(#SVGID_43_);}
	.st45{fill:url(#SVGID_44_);}
	.st46{opacity:0.2;fill:url(#SVGID_45_);}
	.st47{fill:url(#SVGID_46_);}
	.st48{opacity:0.2;fill:url(#SVGID_47_);}
	.st49{fill:url(#SVGID_48_);}
	.st50{opacity:0.2;fill:url(#SVGID_49_);}
	.st51{fill:url(#SVGID_50_);}
	.st52{fill:url(#SVGID_51_);}
	.st53{fill:url(#SVGID_52_);}
	.st54{fill:url(#SVGID_53_);}
	.st55{fill:url(#SVGID_54_);}
	.st56{fill:url(#SVGID_55_);}
	.st57{fill:url(#SVGID_56_);}
	.st58{fill:url(#SVGID_57_);}
	.st59{fill:url(#SVGID_58_);}
	.st60{fill:url(#SVGID_59_);}
	.st61{fill:url(#SVGID_60_);}
	.st62{fill:url(#SVGID_61_);}
	.st63{fill:url(#SVGID_62_);}
	.st64{fill:url(#SVGID_63_);}
	.st65{fill:url(#SVGID_64_);}
	.st66{fill:url(#SVGID_65_);}
	.st67{fill:url(#SVGID_66_);}
	.st68{fill:url(#SVGID_67_);}
	.st69{fill:url(#SVGID_68_);}
	.st70{fill:url(#SVGID_69_);}
	.st71{fill:url(#SVGID_70_);}
	.st72{fill:url(#SVGID_71_);}
	.st73{fill:url(#SVGID_72_);}
	.st74{fill:url(#SVGID_73_);}
	.st75{fill:url(#SVGID_74_);}
	.st76{fill:url(#SVGID_75_);}
	.st77{fill:url(#SVGID_76_);}
	.st78{fill:url(#SVGID_77_);}
	.st79{fill:url(#SVGID_78_);}
	.st80{fill:url(#SVGID_79_);}
	.st81{fill:url(#SVGID_80_);}
	.st82{fill:url(#SVGID_81_);}
	.st83{fill:url(#SVGID_82_);}
	.st84{fill:url(#SVGID_83_);}
	.st85{fill:url(#SVGID_84_);}
	.st86{fill:url(#SVGID_85_);}
	.st87{fill:url(#SVGID_86_);}
	.st88{fill:url(#SVGID_87_);}
	.st89{fill:url(#SVGID_88_);}
	.st90{fill:url(#SVGID_89_);}
	.st91{fill:url(#SVGID_90_);}
	.st92{fill:url(#SVGID_91_);}
	.st93{fill:url(#SVGID_92_);}
	.st94{fill:url(#SVGID_93_);}
	.st95{fill:url(#SVGID_94_);}
	.st96{fill:url(#SVGID_95_);}
	.st97{fill:url(#SVGID_96_);}
	.st98{fill:url(#SVGID_97_);}
	.st99{fill:url(#SVGID_98_);}
	.st100{fill:url(#SVGID_99_);}
	.st101{fill:url(#SVGID_100_);}
	.st102{fill:url(#SVGID_101_);}
	.st103{fill:url(#SVGID_102_);}
	.st104{fill:url(#SVGID_103_);}
	.st105{fill:url(#SVGID_104_);}
	.st106{fill:url(#SVGID_105_);}
	.st107{fill:url(#SVGID_106_);}
	.st108{fill:url(#SVGID_107_);}
	.st109{fill:url(#SVGID_108_);}
	.st110{fill:url(#SVGID_109_);}
	.st111{fill:url(#SVGID_110_);}
	.st112{fill:url(#SVGID_111_);}
	.st113{fill:url(#SVGID_112_);}
	.st114{fill:url(#SVGID_113_);}
	.st115{fill:url(#SVGID_114_);}
	.st116{fill:url(#SVGID_115_);}
	.st117{fill:url(#SVGID_116_);}
	.st118{fill:url(#SVGID_117_);}
	.st119{fill:url(#SVGID_118_);}
	.st120{fill:url(#SVGID_119_);}
	.st121{fill:url(#SVGID_120_);}
	.st122{fill:url(#SVGID_121_);}
	.st123{fill:url(#SVGID_122_);}
	.st124{fill:url(#SVGID_123_);}
	.st125{display:none;}
	.st126{fill:url(#SVGID_124_);}
	.st127{fill:url(#SVGID_125_);}
	.st128{fill:url(#SVGID_126_);}
	.st129{fill:url(#SVGID_127_);}
	.st130{fill:url(#SVGID_128_);}
	.st131{fill:url(#SVGID_129_);}
	.st132{fill:url(#SVGID_130_);}
	.st133{fill:url(#SVGID_131_);}
	.st134{fill:url(#SVGID_132_);}
	.st135{fill:url(#SVGID_133_);}
	.st136{fill:url(#SVGID_134_);}
	.st137{fill:url(#SVGID_135_);}
	.st138{fill:url(#SVGID_136_);}
	.st139{fill:url(#SVGID_137_);}
	.st140{fill:url(#SVGID_138_);}
	.st141{fill:url(#SVGID_139_);}
	.st142{fill:url(#SVGID_140_);}
	.st143{fill:url(#SVGID_141_);}
	.st144{fill:url(#SVGID_142_);}
	.st145{fill:url(#SVGID_143_);}
	.st146{fill:url(#SVGID_144_);}
	.st147{fill:url(#SVGID_145_);}
	.st148{fill:url(#SVGID_146_);}
</style>
<g>
	<linearGradient id="SVGID_1_" gradientUnits="userSpaceOnUse" x1="45.83" y1="34" x2="45.83" y2="190.1153">
		<stop  offset="0" style="stop-color:#224FC4"/>
		<stop  offset="2.072120e-02" style="stop-color:#2553C7"/>
		<stop  offset="0.2069" style="stop-color:#3A75DA"/>
		<stop  offset="0.397" style="stop-color:#4B90EA"/>
		<stop  offset="0.5902" style="stop-color:#57A3F5"/>
		<stop  offset="0.7887" style="stop-color:#5FAEFC"/>
		<stop  offset="1" style="stop-color:#61B2FE"/>
	</linearGradient>
	<path class="st2" d="M45.1,99.4c-1.8,0.4-2.9,2.2-2.5,3.9c0.4,1.8,2.2,2.9,3.9,2.5c1.8-0.4,2.9-2.2,2.5-3.9S46.9,99,45.1,99.4z"/>
	<linearGradient id="SVGID_2_" gradientUnits="userSpaceOnUse" x1="51.7861" y1="34" x2="51.7861" y2="190.1153">
		<stop  offset="0" style="stop-color:#224FC4"/>
		<stop  offset="2.072120e-02" style="stop-color:#2553C7"/>
		<stop  offset="0.2069" style="stop-color:#3A75DA"/>
		<stop  offset="0.397" style="stop-color:#4B90EA"/>
		<stop  offset="0.5902" style="stop-color:#57A3F5"/>
		<stop  offset="0.7887" style="stop-color:#5FAEFC"/>
		<stop  offset="1" style="stop-color:#61B2FE"/>
	</linearGradient>
	<path class="st3" d="M51.1,83.8c-1.8,0.4-2.9,2.2-2.5,3.9s2.2,2.9,3.9,2.5s2.9-2.2,2.5-3.9S52.9,83.4,51.1,83.8z"/>
	<linearGradient id="SVGID_3_" gradientUnits="userSpaceOnUse" x1="37.2556" y1="34" x2="37.2556" y2="190.1153">
		<stop  offset="0" style="stop-color:#224FC4"/>
		<stop  offset="2.072120e-02" style="stop-color:#2553C7"/>
		<stop  offset="0.2069" style="stop-color:#3A75DA"/>
		<stop  offset="0.397" style="stop-color:#4B90EA"/>
		<stop  offset="0.5902" style="stop-color:#57A3F5"/>
		<stop  offset="0.7887" style="stop-color:#5FAEFC"/>
		<stop  offset="1" style="stop-color:#61B2FE"/>
	</linearGradient>
	<path class="st4" d="M36.5,149.5c-1.8,0.4-2.9,2.2-2.5,3.9s2.2,2.9,3.9,2.5s2.9-2.2,2.5-3.9S38.3,149.1,36.5,149.5z"/>
	<linearGradient id="SVGID_4_" gradientUnits="userSpaceOnUse" x1="43.1572" y1="34" x2="43.1572" y2="190.1153">
		<stop  offset="0" style="stop-color:#224FC4"/>
		<stop  offset="2.072120e-02" style="stop-color:#2553C7"/>
		<stop  offset="0.2069" style="stop-color:#3A75DA"/>
		<stop  offset="0.397" style="stop-color:#4B90EA"/>
		<stop  offset="0.5902" style="stop-color:#57A3F5"/>
		<stop  offset="0.7887" style="stop-color:#5FAEFC"/>
		<stop  offset="1" style="stop-color:#61B2FE"/>
	</linearGradient>
	<path class="st5" d="M42.4,133.6c-1.8,0.4-2.9,2.2-2.5,3.9c0.4,1.8,2.2,2.9,3.9,2.5s2.9-2.2,2.5-3.9S44.2,133.2,42.4,133.6z"/>
	<linearGradient id="SVGID_5_" gradientUnits="userSpaceOnUse" x1="55.8064" y1="34" x2="55.8064" y2="190.1153">
		<stop  offset="0" style="stop-color:#224FC4"/>
		<stop  offset="2.072120e-02" style="stop-color:#2553C7"/>
		<stop  offset="0.2069" style="stop-color:#3A75DA"/>
		<stop  offset="0.397" style="stop-color:#4B90EA"/>
		<stop  offset="0.5902" style="stop-color:#57A3F5"/>
		<stop  offset="0.7887" style="stop-color:#5FAEFC"/>
		<stop  offset="1" style="stop-color:#61B2FE"/>
	</linearGradient>
	<path class="st6" d="M53.1,157.1l0.1,0.2c0,0,0.1,0.2,0.3,0.2c0.7,0.9,1.9,1.4,3.1,1.1c0.5-0.1,0.7-0.2,1.2-0.5
		c0.4-0.4,0.8-1,1.2-1.6c-0.1-0.2,0.2-0.3,0.1-0.6l-0.1-0.2c-0.1-0.2,0.1-0.8,0-1c-0.3-1.2-1.5-2.3-2.6-2.5c-0.6-0.1-0.8-0.1-1.3,0
		c-1.7,0.4-2.9,2.2-2.5,3.9C52.6,156.4,52.8,156.9,53.1,157.1z"/>
	<linearGradient id="SVGID_6_" gradientUnits="userSpaceOnUse" x1="53.2974" y1="34" x2="53.2974" y2="190.1153">
		<stop  offset="0" style="stop-color:#224FC4"/>
		<stop  offset="2.072120e-02" style="stop-color:#2553C7"/>
		<stop  offset="0.2069" style="stop-color:#3A75DA"/>
		<stop  offset="0.397" style="stop-color:#4B90EA"/>
		<stop  offset="0.5902" style="stop-color:#57A3F5"/>
		<stop  offset="0.7887" style="stop-color:#5FAEFC"/>
		<stop  offset="1" style="stop-color:#61B2FE"/>
	</linearGradient>
	<path class="st7" d="M89.1,86.1l-5.5,1.2c-2.1-7.1-6.9-12.6-12.9-15.9l3.9-6.1c0.8-1.2,0.5-2.7-0.8-3.5c-1.2-0.8-2.7-0.5-3.5,0.8
		l-4.3,6.7c-3.7-1.3-7.9-1.7-12-1.3l-1.6-7.2c-0.3-1.5-1.5-2.3-3-1.9c-1.5,0.3-2.3,1.5-1.9,3l1.6,7.2c-3.9,1.4-7.3,3.4-10.4,6.2
		L32.1,71c-1.2-0.8-2.7-0.5-3.5,0.8s-0.5,2.7,0.8,3.5l6.1,3.9c-4,5.6-6.1,12.5-5,19.9l-5.5,1.2c-1.5,0.3-2.3,1.5-1.9,3
		c0.3,1.5,1.5,2.3,3,1.9l5.5-1.2c1.9,6.1,5.8,11.2,10.8,14.8c-4.7,1.3-8.6,3.5-12.1,6.6l-6.7-4.3c-1.2-0.8-2.7-0.5-3.5,0.8
		s-0.5,2.7,0.8,3.5l6.1,3.9c-4,5.6-6.1,12.5-5,19.9l-5.5,1.2c-1.5,0.3-2.3,1.5-1.9,3c0.3,1.5,1.5,2.3,3,1.9L23,154
		c2.1,7.1,6.9,12.6,13.1,15.9l-4.1,6.4c-0.8,1.2-0.5,2.7,0.8,3.5c0.6,0.4,1.4,0.5,1.9,0.4c0.5-0.1,1.2-0.5,1.6-1.1l4.5-7
		c3.7,1.3,7.7,1.7,11.7,1.1l1.6,7.5c0.3,1.5,1.5,2.3,3,1.9c1.5-0.3,2.3-1.5,1.9-3l-1.6-7.5c3.9-1.1,7.3-3.4,10.2-5.9l7,4.5
		c0.6,0.4,1.4,0.5,1.9,0.4c0.5-0.1,1.2-0.5,1.6-1.1c0.8-1.2,0.5-2.7-0.8-3.5l-6.4-4.1c4.2-5.6,6.1-12.8,5-19.9l5.5-1.2
		c1.5-0.3,2.3-1.5,1.9-3c-0.3-1.5-1-2.4-2.5-2.1l-5.5,1.2c-1.9-6.1-5.8-11.2-10.8-14.8c4.7-1.3,8.6-3.5,11.9-6.5l7,4.5
		c0.6,0.4,1.4,0.5,1.9,0.4s1.2-0.5,1.6-1.1c0.8-1.2,0.5-2.7-0.8-3.5l-6.4-4.1c4.2-5.6,6.1-12.8,5-19.9l5.5-1.2
		c1.5-0.3,2.3-1.5,1.9-3C91.8,86.6,90.6,85.8,89.1,86.1z M71,140.4l0.2,0.7c2.6,11.9-4.9,24-17.1,26.7c-12.2,2.7-24-4.9-26.7-17.1
		l-0.2-0.7c-2.6-11.9,4.9-24,17.1-26.7C56.5,120.6,68.4,128.2,71,140.4z M62.7,118c-12.2,2.7-24.1-5.2-26.7-17.1l-0.2-0.7
		c-2.6-11.9,4.9-24,17.1-26.7s24,4.9,26.7,17.1l0.2,0.7C82.4,103.2,74.9,115.3,62.7,118z"/>
	<linearGradient id="SVGID_7_" gradientUnits="userSpaceOnUse" x1="118.4435" y1="34" x2="118.4435" y2="190.1153">
		<stop  offset="0" style="stop-color:#224FC4"/>
		<stop  offset="2.072120e-02" style="stop-color:#2553C7"/>
		<stop  offset="0.2069" style="stop-color:#3A75DA"/>
		<stop  offset="0.397" style="stop-color:#4B90EA"/>
		<stop  offset="0.5902" style="stop-color:#57A3F5"/>
		<stop  offset="0.7887" style="stop-color:#5FAEFC"/>
		<stop  offset="1" style="stop-color:#61B2FE"/>
	</linearGradient>
	<path class="st8" d="M121.6,64.4c0,0,0.1-0.2-0.1-0.3l-0.1-0.3c0.1-0.2-0.1-0.3-0.1-0.3c-0.1-0.3-0.4-0.4-0.5-0.8l-0.2-0.1
		c-0.2-0.1-0.1-0.3-0.4-0.4c-0.6-0.5-1.6-0.7-2.5-0.6c-0.5-0.2-1.2,0.3-1.8,0.9c-0.6,0.8-0.7,1.6-0.6,2.5c0.2,0.9,0.7,1.7,1.2,2.2
		c0.6,0.5,1.6,0.7,2.5,0.6c0.3-0.1,0.3-0.1,0.7-0.3c0.3-0.1,0.7-0.3,0.8-0.5c0.1-0.2,0.1-0.2,0.4-0.4c0,0,0.1-0.2,0.3-0.1
		c0.1-0.2,0.2-0.5,0.3-0.7c0.1-0.2,0.3-0.7,0.2-1C121.7,64.7,121.8,64.5,121.6,64.4z"/>
	<linearGradient id="SVGID_8_" gradientUnits="userSpaceOnUse" x1="125.9859" y1="34" x2="125.9859" y2="190.1153">
		<stop  offset="0" style="stop-color:#224FC4"/>
		<stop  offset="2.072120e-02" style="stop-color:#2553C7"/>
		<stop  offset="0.2069" style="stop-color:#3A75DA"/>
		<stop  offset="0.397" style="stop-color:#4B90EA"/>
		<stop  offset="0.5902" style="stop-color:#57A3F5"/>
		<stop  offset="0.7887" style="stop-color:#5FAEFC"/>
		<stop  offset="1" style="stop-color:#61B2FE"/>
	</linearGradient>
	<path class="st9" d="M130.6,41.4c-0.2-0.9-0.7-1.7-1.2-2.2c-0.4-0.4-0.6-0.5-1.1-0.7c0.1-0.2-0.1-0.3-0.4-0.4
		c-0.5-0.2-0.7-0.3-0.9-0.4l-0.2-0.1c-0.2-0.1-0.5-0.2-0.6,0c-0.2-0.1-0.3,0.1-0.3,0.1c-0.2-0.1-0.3,0.1-0.6,0c0,0-0.2-0.1-0.3,0.1
		c-1.2,0.3-2,0.8-2.8,1.8l-0.1,0.2c-0.2,0.5-0.5,1.2-0.7,1.6l-0.1,0.2c-0.1,0.2-0.2,0.5-0.1,0.8c0,0-0.1,0.2,0.1,0.3
		c-0.1,0.2,0.1,0.3,0,0.6l0.1,0.3c0.3,1.2,0.8,2,1.8,2.8l0.2,0.1c0.2,0.1,0.5,0.2,0.7,0.3c0,0,0,0,0.2,0.1c0.2,0.1,0.5,0.2,0.7,0.3
		l0.2,0.1c0.2,0.1,0.5,0.2,0.6,0c0.2,0.1,0.3-0.1,0.3-0.1c0.2,0.1,0.3-0.1,0.6,0l0.3-0.1c0.9-0.2,1.7-0.7,2.2-1.2
		c0.4-0.4,0.7-1.1,1-1.5s0.3-0.7,0.3-1.3l0.1-0.2c0.1-0.2,0.1-0.8-0.1-1.1L130.6,41.4z"/>
	<linearGradient id="SVGID_9_" gradientUnits="userSpaceOnUse" x1="136.263" y1="34" x2="136.263" y2="190.1153">
		<stop  offset="0" style="stop-color:#224FC4"/>
		<stop  offset="2.072120e-02" style="stop-color:#2553C7"/>
		<stop  offset="0.2069" style="stop-color:#3A75DA"/>
		<stop  offset="0.397" style="stop-color:#4B90EA"/>
		<stop  offset="0.5902" style="stop-color:#57A3F5"/>
		<stop  offset="0.7887" style="stop-color:#5FAEFC"/>
		<stop  offset="1" style="stop-color:#61B2FE"/>
	</linearGradient>
	<path class="st10" d="M187.7,92.4c-0.2-1.5-1.5-2.3-3-2.1l-7.2,1.3c-0.6-6.9-4.1-13.5-9.8-18.2l3.2-4.7c0.1-0.2,0.1-0.2,0.2-0.5
		c0.5-1.2,0.2-2.4-0.8-3.2s-2.8-0.7-3.6,0.6l-3.1,4.5c-5.5-3.3-12-4.4-17.9-3.5c0.8-1.3,1.7-2.6,2.4-4.2c1.2-2.8,1.9-5.6,2.1-8.5
		l8.1-1.4c0.9-0.2,1.7-0.7,2-1.4c0.2-0.5,0.2-1,0-1.4c-0.2-1.5-1.5-2.3-3-2.1l-7.2,1.3c-0.6-6.9-4.1-13.5-9.8-18.2l3.2-4.7
		c0.1-0.2,0.1-0.2,0.2-0.5c0.5-1.2,0.2-2.4-0.8-3.2c-0.7-0.9-2.5-0.6-3.3,0.5l-3.2,4.7c-6.1-3.8-13.5-4.8-20.3-3.1l-1.3-7.2
		c-0.2-1.5-1.5-2.3-3-2.1c-1.5,0.2-2.3,1.5-2.1,3l1.2,8c-3.7,1.4-7,3.9-9.6,7.2l-6.1-4.4c-1.1-0.7-2.8-0.7-3.6,0.6
		c-0.7,1.1-0.7,2.8,0.6,3.6l6.1,4.4c-2.1,3.5-3.3,7.5-3.7,11.5l-7.8,1.3c-1.5,0.2-2.3,1.5-2.1,3c0.2,1.5,1.5,2.3,3,2.1l7.2-1.3
		c0,0.6,0.1,1.1,0.1,1.7c1,6.6,4.4,12.2,9.5,16.4l-3,4.2c-0.7,1.1-0.7,2.8,0.6,3.6c1.3,0.8,2.8,0.7,3.6-0.6l3.2-4.7
		c5.5,3.3,12,4.4,17.9,3.5c-2.5,3.9-4.2,8.2-4.6,13l-7.8,1.3c-1.5,0.2-2.3,1.5-2.1,3s1.5,2.3,3,2.1l7.2-1.3c0,0.6,0.1,1.1,0.1,1.7
		c1,6.6,4.4,12.2,9.5,16.4l-3.2,4.7c-0.7,1.1-0.7,2.8,0.6,3.6s2.8,0.7,3.6-0.6l3.2-4.7c6.3,3.9,13.8,4.7,20.3,3.1l1.3,7.2
		c0.2,1.5,1.5,2.3,3,2.1c0.9-0.2,1.7-0.7,2-1.4c0.2-0.5,0.2-1,0-1.4l-1.4-8.1c3.5-1.5,6.8-4,9.5-7l6.4,4.5c1.1,0.7,2.8,0.7,3.6-0.6
		c0.1-0.2,0.1-0.2,0.2-0.5c0.5-1.2,0.2-2.4-0.8-3.2l-6.4-4.5c0.4-0.9,1.1-1.8,1.5-2.7c1.2-2.8,1.9-5.6,2.1-8.5l8.1-1.4
		c0.9-0.2,1.7-0.7,2-1.4C187.8,93.3,187.8,92.7,187.7,92.4z M110,69.3l-0.6-0.5c-4.8-3.5-7.9-8.5-8.9-14.5c-1-6,0.5-11.8,3.7-16.7
		c7.1-9.7,21.1-11.9,31-4.7l0.2,0.1l0.2,0.1c9.9,7.2,12.4,21,5.3,31S119.9,76.4,110,69.3z M168.3,106.7c-7.2,9.9-21,12.4-31,5.3
		l-0.6-0.5c-4.8-3.5-7.9-8.5-8.9-14.5c-1-6,0.5-11.8,3.7-16.7c6.9-9.5,20.8-12,31-4.7l0.2,0.1l0.2,0.1
		C173,82.9,175.5,96.8,168.3,106.7z"/>
	<linearGradient id="SVGID_10_" gradientUnits="userSpaceOnUse" x1="145.6231" y1="34" x2="145.6231" y2="190.1153">
		<stop  offset="0" style="stop-color:#224FC4"/>
		<stop  offset="2.072120e-02" style="stop-color:#2553C7"/>
		<stop  offset="0.2069" style="stop-color:#3A75DA"/>
		<stop  offset="0.397" style="stop-color:#4B90EA"/>
		<stop  offset="0.5902" style="stop-color:#57A3F5"/>
		<stop  offset="0.7887" style="stop-color:#5FAEFC"/>
		<stop  offset="1" style="stop-color:#61B2FE"/>
	</linearGradient>
	<path class="st11" d="M147.4,104.2c-0.6-0.5-1.6-0.7-2.5-0.6c-0.7,0.3-1.4,0.8-2,1.4c-0.6,0.8-0.7,1.6-0.6,2.5
		c0.2,0.9,0.7,1.7,1.2,2.2c1.5,1,3.6,0.7,4.8-0.7c0.1-0.2,0.2-0.5,0.3-0.7C149.3,106.9,149,105.1,147.4,104.2z"/>
	<linearGradient id="SVGID_11_" gradientUnits="userSpaceOnUse" x1="139.4861" y1="34" x2="139.4861" y2="190.1153">
		<stop  offset="0" style="stop-color:#224FC4"/>
		<stop  offset="2.072120e-02" style="stop-color:#2553C7"/>
		<stop  offset="0.2069" style="stop-color:#3A75DA"/>
		<stop  offset="0.397" style="stop-color:#4B90EA"/>
		<stop  offset="0.5902" style="stop-color:#57A3F5"/>
		<stop  offset="0.7887" style="stop-color:#5FAEFC"/>
		<stop  offset="1" style="stop-color:#61B2FE"/>
	</linearGradient>
	<path class="st12" d="M142.8,90.7c-0.2-0.9-0.7-1.7-1.2-2.2c-0.6-0.5-1.6-0.7-2.5-0.6c-0.9,0.2-1.7,0.7-2.2,1.2
		c-0.6,0.8-0.7,1.6-0.6,2.5c0.2,0.9,0.7,1.7,1.2,2.2s1.6,0.7,2.5,0.6c0.9-0.2,1.7-0.7,2.2-1.2c0.1-0.2,0.2-0.5,0.3-0.7
		C142.8,91.8,142.8,91.3,142.8,90.7z"/>
	<linearGradient id="SVGID_12_" gradientUnits="userSpaceOnUse" x1="153.46" y1="34" x2="153.46" y2="190.1153">
		<stop  offset="0" style="stop-color:#224FC4"/>
		<stop  offset="2.072120e-02" style="stop-color:#2553C7"/>
		<stop  offset="0.2069" style="stop-color:#3A75DA"/>
		<stop  offset="0.397" style="stop-color:#4B90EA"/>
		<stop  offset="0.5902" style="stop-color:#57A3F5"/>
		<stop  offset="0.7887" style="stop-color:#5FAEFC"/>
		<stop  offset="1" style="stop-color:#61B2FE"/>
	</linearGradient>
	<path class="st13" d="M158.3,83.9l-0.1-0.3c-0.2-0.9-0.7-1.7-1.2-2.2c-0.4-0.4-0.6-0.5-1.1-0.7c-0.3,0.1-0.3,0.1-0.6,0
		c0,0-0.2-0.1,0,0c-0.5-0.2-0.7-0.3-0.9-0.4l-0.2-0.1c-0.2-0.1-0.5-0.2-0.6,0c0,0-0.2-0.1-0.3,0.1c-0.2-0.1-0.3,0.1-0.6,0
		c0,0-0.2-0.1-0.3,0.1c-0.9,0.2-1.8,0.9-2.6,1.4c-0.1,0.2-0.5,0.6-0.6,0.8c-0.2,0.5-0.4,0.9-0.5,1.2c-0.1,0.2-0.2,0.5,0,0.6
		l-0.1,0.2c-0.1,0.2,0,0.6,0,0.6s-0.1,0.2,0.1,0.3c-0.1,0.2,0.1,0.3,0,0.6l0.1,0.3l0.1,0.3l0.1,0.3c0.2,0.1,0.1,0.3,0.4,0.4
		c0.2,0.1,0.1,0.3,0.4,0.4c0.2,0.1,0.4,0.4,0.6,0.5l0.2,0.1c0.6,0.5,1.1,0.7,1.9,0.8c0.2,0.1,0.2,0.1,0.6,0l0.2,0.1
		c0.2,0.1,0.3-0.1,0.6,0c0,0,0.2,0.1,0.3-0.1c0.2,0.1,0.3-0.1,0.6,0l0.3-0.1l0.3-0.1l0.3-0.1c0.1-0.2,0.3-0.1,0.4-0.4
		c0.1-0.2,0.3-0.1,0.4-0.4c0.4-0.4,1-1,1.3-1.7c0.2-0.5,0.3-0.7,0.3-1.3l0.1-0.2C158.5,84.8,158.4,84.3,158.3,83.9z"/>
	<linearGradient id="SVGID_13_" gradientUnits="userSpaceOnUse" x1="57.7196" y1="34" x2="57.7196" y2="190.1153">
		<stop  offset="0" style="stop-color:#224FC4"/>
		<stop  offset="2.072120e-02" style="stop-color:#2553C7"/>
		<stop  offset="0.2069" style="stop-color:#3A75DA"/>
		<stop  offset="0.397" style="stop-color:#4B90EA"/>
		<stop  offset="0.5902" style="stop-color:#57A3F5"/>
		<stop  offset="0.7887" style="stop-color:#5FAEFC"/>
		<stop  offset="1" style="stop-color:#61B2FE"/>
	</linearGradient>
	<circle class="st14" cx="57.7" cy="141.5" r="4.8"/>
	<linearGradient id="SVGID_14_" gradientUnits="userSpaceOnUse" x1="66.3329" y1="34" x2="66.3329" y2="190.1153">
		<stop  offset="0" style="stop-color:#224FC4"/>
		<stop  offset="2.072120e-02" style="stop-color:#2553C7"/>
		<stop  offset="0.2069" style="stop-color:#3A75DA"/>
		<stop  offset="0.397" style="stop-color:#4B90EA"/>
		<stop  offset="0.5902" style="stop-color:#57A3F5"/>
		<stop  offset="0.7887" style="stop-color:#5FAEFC"/>
		<stop  offset="1" style="stop-color:#61B2FE"/>
	</linearGradient>
	<path class="st15" d="M65.3,86.9c-1.5,0.3-2.6,1.3-3.3,2.6c-0.6,0.9-0.6,2.2-0.3,3.2c0,1,0.7,1.9,1.6,2.8c1.2,0.8,2.6,1.3,4.1,0.9
		c2.7-0.6,4.2-3.3,3.7-5.8C70.5,87.9,67.8,86.4,65.3,86.9z"/>
	<linearGradient id="SVGID_15_" gradientUnits="userSpaceOnUse" x1="161.3947" y1="34" x2="161.3947" y2="190.1153">
		<stop  offset="0" style="stop-color:#224FC4"/>
		<stop  offset="2.072120e-02" style="stop-color:#2553C7"/>
		<stop  offset="0.2069" style="stop-color:#3A75DA"/>
		<stop  offset="0.397" style="stop-color:#4B90EA"/>
		<stop  offset="0.5902" style="stop-color:#57A3F5"/>
		<stop  offset="0.7887" style="stop-color:#5FAEFC"/>
		<stop  offset="1" style="stop-color:#61B2FE"/>
	</linearGradient>
	<path class="st16" d="M164.4,96c0.1-0.2,0-0.6-0.2-0.9l-0.1-0.3c-0.1-0.3-0.4-0.4-0.3-0.7c-0.2-0.1-0.1-0.3-0.4-0.4
		c0,0-0.2-0.1-0.1-0.3l-0.2-0.1l-0.2-0.1c-0.2,0.5-0.5,0.6-0.5,0.6c-0.2-0.1-0.5-0.2-0.8-0.1c-0.2-0.1-0.6,0-0.6,0
		c-0.2-0.1-0.3,0.1-0.6,0c-0.3,0.1-0.3,0.1-0.7,0.3c-0.3,0.1-0.3,0.1-0.4,0.4c-0.1,0.2-0.4,0.4-0.4,0.4l-0.1,0.2l-0.1,0.2l-0.1,0.2
		l-0.1,0.2c-0.1,0.2-0.2,0.5-0.1,0.8c-0.1,0.2,0,0.6,0,0.6l-0.1,0.2l0.1,0.3c0.1,0.3,0.1,0.3,0.3,0.7c0.1,0.3,0.1,0.3,0.4,0.4
		c-0.1,0.2,0.1,0.3,0.1,0.3l0.2,0.1l0.2,0.1l0.2,0.1l0.2,0.1c0.2,0.1,0.5,0.2,0.8,0.1c0.2,0.1,0.6,0,0.6,0l0.2,0.1l0.3-0.1
		c0.3-0.1,0.3-0.1,0.7-0.3c0.3-0.1,0.3-0.1,0.4-0.4c0.1-0.2,0.3-0.1,0.4-0.4c0,0,0.1-0.2,0.3-0.1c0.1-0.2,0.2-0.5,0.3-0.7
		c0.2-0.5,0.3-0.7,0.3-1.3C164.6,96.1,164.4,96,164.4,96z"/>
	<linearGradient id="SVGID_16_" gradientUnits="userSpaceOnUse" x1="134.171" y1="34" x2="134.171" y2="190.1153">
		<stop  offset="0" style="stop-color:#224FC4"/>
		<stop  offset="2.072120e-02" style="stop-color:#2553C7"/>
		<stop  offset="0.2069" style="stop-color:#3A75DA"/>
		<stop  offset="0.397" style="stop-color:#4B90EA"/>
		<stop  offset="0.5902" style="stop-color:#57A3F5"/>
		<stop  offset="0.7887" style="stop-color:#5FAEFC"/>
		<stop  offset="1" style="stop-color:#61B2FE"/>
	</linearGradient>
	<path class="st17" d="M137.2,53.5c0,0,0.1-0.2-0.1-0.3l-0.1-0.3c-0.1-0.3-0.1-0.3-0.3-0.7c-0.1-0.3-0.1-0.3-0.4-0.4
		c-0.2-0.1-0.1-0.3-0.4-0.4c0,0-0.2-0.1-0.1-0.3l-0.2-0.1l-0.2-0.1c-0.1,0.2-0.1,0.2-0.4,0.4c-0.2-0.1-0.5-0.2-0.8-0.1
		c-0.2-0.1-0.6,0-0.6,0c-0.2-0.1-0.3,0.1-0.6,0c-0.3,0.1-0.3,0.1-0.7,0.3c-0.3,0.1-0.3,0.1-0.4,0.4c-0.1,0.2-0.4,0.4-0.4,0.4
		l-0.1,0.2l-0.1,0.2l-0.1,0.2L131,53c-0.1,0.2-0.2,0.5,0,0.6c-0.1,0.2,0,0.6,0,0.6c-0.1,0.2,0.1,0.3,0,0.6c0.1,0.3,0.1,0.3,0.3,0.7
		c0.1,0.3,0.1,0.3,0.4,0.4c0.2,0.1,0.4,0.4,0.4,0.4l0.2,0.1l0.2,0.1l0.2,0.1l0.2,0.1c0.2,0.1,0.5,0.2,0.8,0.1c0.2,0.1,0.6,0,0.6,0
		l0.2,0.1l0.3-0.1c0.3-0.1,0.3-0.1,0.7-0.3c0.3-0.1,0.3-0.1,0.4-0.4c0.1-0.2,0.3-0.1,0.4-0.4c0,0,0.1-0.2,0.3-0.1
		c0.1-0.2,0.2-0.5,0.3-0.7c0.2-0.5,0.3-0.7,0.2-1C137.4,53.8,137.5,53.6,137.2,53.5z"/>
	<linearGradient id="SVGID_17_" gradientUnits="userSpaceOnUse" x1="112.1011" y1="34" x2="112.1011" y2="190.1153">
		<stop  offset="0" style="stop-color:#224FC4"/>
		<stop  offset="2.072120e-02" style="stop-color:#2553C7"/>
		<stop  offset="0.2069" style="stop-color:#3A75DA"/>
		<stop  offset="0.397" style="stop-color:#4B90EA"/>
		<stop  offset="0.5902" style="stop-color:#57A3F5"/>
		<stop  offset="0.7887" style="stop-color:#5FAEFC"/>
		<stop  offset="1" style="stop-color:#61B2FE"/>
	</linearGradient>
	<path class="st18" d="M115.6,49c0,0,0.1-0.2-0.1-0.3c0,0,0.1-0.2-0.1-0.3l-0.1-0.3c0.1-0.2-0.1-0.3-0.1-0.3
		c-0.1-0.3-0.4-0.4-0.5-0.8l-0.2-0.1c-0.2-0.1-0.1-0.3-0.4-0.4c-0.6-0.5-1.6-0.7-2.5-0.6c-0.9,0.2-1.7,0.7-2.2,1.2
		c-0.6,0.8-0.7,1.6-0.6,2.5c0.2,0.9,0.7,1.7,1.2,2.2c1.5,1,3.6,0.7,4.8-0.7c0.5-0.6,0.6-0.8,0.7-1.1C115.5,49.8,115.7,49.3,115.6,49
		z"/>
	<linearGradient id="SVGID_18_" gradientUnits="userSpaceOnUse" x1="64.2071" y1="34" x2="64.2071" y2="190.1153">
		<stop  offset="0" style="stop-color:#224FC4"/>
		<stop  offset="2.072120e-02" style="stop-color:#2553C7"/>
		<stop  offset="0.2069" style="stop-color:#3A75DA"/>
		<stop  offset="0.397" style="stop-color:#4B90EA"/>
		<stop  offset="0.5902" style="stop-color:#57A3F5"/>
		<stop  offset="0.7887" style="stop-color:#5FAEFC"/>
		<stop  offset="1" style="stop-color:#61B2FE"/>
	</linearGradient>
	<path class="st19" d="M63.5,102.4c-1.7,0.4-2.9,2.2-2.5,3.9c0.4,1.7,2.2,2.9,3.9,2.5c1.7-0.4,2.9-2.2,2.5-3.9
		C67.1,103.2,65.2,102,63.5,102.4z"/>
</g>
</svg>
