<?xml version="1.0" encoding="utf-8"?>
<!-- Generator: Adobe Illustrator 22.0.1, SVG Export Plug-In . SVG Version: 6.00 Build 0)  -->
<svg version="1.1" id="Layer_1" xmlns="http://www.w3.org/2000/svg" xmlns:xlink="http://www.w3.org/1999/xlink" x="0px" y="0px"
	 viewBox="0 0 200 200" style="enable-background:new 0 0 200 200;" xml:space="preserve">
<style type="text/css">
	.st0{fill:none;stroke:#000000;stroke-width:5;stroke-miterlimit:10;}
	.st1{fill:none;stroke:#000000;stroke-width:5;stroke-linecap:round;stroke-miterlimit:10;}
	.st2{fill:url(#SVGID_1_);}
	.st3{fill:url(#SVGID_2_);}
	.st4{fill:url(#SVGID_3_);}
	.st5{fill:url(#SVGID_4_);}
	.st6{fill:url(#SVGID_5_);}
	.st7{fill:url(#SVGID_6_);}
	.st8{fill:url(#SVGID_7_);}
	.st9{fill:url(#SVGID_8_);}
	.st10{fill:url(#SVGID_9_);}
	.st11{fill:url(#SVGID_10_);}
	.st12{fill:url(#SVGID_11_);}
	.st13{fill:url(#SVGID_12_);}
	.st14{fill:url(#SVGID_13_);}
	.st15{fill:url(#SVGID_14_);}
	.st16{fill:url(#SVGID_15_);}
	.st17{fill:url(#SVGID_16_);}
	.st18{fill:url(#SVGID_17_);}
	.st19{fill:url(#SVGID_18_);}
	.st20{fill:url(#SVGID_19_);}
	.st21{fill:url(#SVGID_20_);}
	.st22{fill:url(#SVGID_21_);}
	.st23{fill:url(#SVGID_22_);}
	.st24{opacity:0.2;fill:url(#SVGID_23_);}
	.st25{opacity:0.2;fill:url(#SVGID_24_);}
	.st26{opacity:0.2;fill:url(#SVGID_25_);}
	.st27{opacity:0.2;fill:url(#SVGID_26_);}
	.st28{fill:url(#SVGID_27_);}
	.st29{fill:url(#SVGID_28_);}
	.st30{opacity:0.2;fill:url(#SVGID_29_);}
	.st31{opacity:0.2;fill:url(#SVGID_30_);}
	.st32{fill:url(#SVGID_31_);}
	.st33{opacity:0.2;fill:url(#SVGID_32_);}
	.st34{opacity:0.2;fill:url(#SVGID_33_);}
	.st35{opacity:0.2;fill:url(#SVGID_34_);}
	.st36{opacity:0.2;fill:url(#SVGID_35_);}
	.st37{fill:url(#SVGID_36_);}
	.st38{opacity:0.2;fill:url(#SVGID_37_);}
	.st39{fill:url(#SVGID_38_);}
	.st40{opacity:0.2;fill:url(#SVGID_39_);}
	.st41{fill:url(#SVGID_40_);}
	.st42{fill:url(#SVGID_41_);}
	.st43{fill:url(#SVGID_42_);}
	.st44{fill:url(#SVGID_43_);}
	.st45{fill:url(#SVGID_44_);}
	.st46{opacity:0.2;fill:url(#SVGID_45_);}
	.st47{fill:url(#SVGID_46_);}
	.st48{opacity:0.2;fill:url(#SVGID_47_);}
	.st49{fill:url(#SVGID_48_);}
	.st50{opacity:0.2;fill:url(#SVGID_49_);}
	.st51{fill:url(#SVGID_50_);}
	.st52{fill:url(#SVGID_51_);}
	.st53{fill:url(#SVGID_52_);}
	.st54{fill:url(#SVGID_53_);}
	.st55{fill:url(#SVGID_54_);}
	.st56{fill:url(#SVGID_55_);}
	.st57{fill:url(#SVGID_56_);}
	.st58{fill:url(#SVGID_57_);}
	.st59{fill:url(#SVGID_58_);}
	.st60{fill:url(#SVGID_59_);}
	.st61{fill:url(#SVGID_60_);}
	.st62{fill:url(#SVGID_61_);}
	.st63{fill:url(#SVGID_62_);}
	.st64{fill:url(#SVGID_63_);}
	.st65{fill:url(#SVGID_64_);}
	.st66{fill:url(#SVGID_65_);}
	.st67{fill:url(#SVGID_66_);}
	.st68{fill:url(#SVGID_67_);}
	.st69{fill:url(#SVGID_68_);}
	.st70{fill:url(#SVGID_69_);}
	.st71{fill:url(#SVGID_70_);}
	.st72{fill:url(#SVGID_71_);}
	.st73{fill:url(#SVGID_72_);}
	.st74{fill:url(#SVGID_73_);}
	.st75{fill:url(#SVGID_74_);}
	.st76{fill:url(#SVGID_75_);}
	.st77{fill:url(#SVGID_76_);}
	.st78{fill:url(#SVGID_77_);}
	.st79{fill:url(#SVGID_78_);}
	.st80{fill:url(#SVGID_79_);}
	.st81{fill:url(#SVGID_80_);}
	.st82{fill:url(#SVGID_81_);}
	.st83{fill:url(#SVGID_82_);}
	.st84{fill:url(#SVGID_83_);}
	.st85{fill:url(#SVGID_84_);}
	.st86{fill:url(#SVGID_85_);}
	.st87{fill:url(#SVGID_86_);}
	.st88{fill:url(#SVGID_87_);}
	.st89{fill:url(#SVGID_88_);}
	.st90{fill:url(#SVGID_89_);}
	.st91{fill:url(#SVGID_90_);}
	.st92{fill:url(#SVGID_91_);}
	.st93{fill:url(#SVGID_92_);}
	.st94{fill:url(#SVGID_93_);}
	.st95{fill:url(#SVGID_94_);}
	.st96{fill:url(#SVGID_95_);}
	.st97{fill:url(#SVGID_96_);}
	.st98{fill:url(#SVGID_97_);}
	.st99{fill:url(#SVGID_98_);}
	.st100{fill:url(#SVGID_99_);}
	.st101{fill:url(#SVGID_100_);}
	.st102{fill:url(#SVGID_101_);}
	.st103{fill:url(#SVGID_102_);}
	.st104{fill:url(#SVGID_103_);}
	.st105{fill:url(#SVGID_104_);}
	.st106{fill:url(#SVGID_105_);}
	.st107{fill:url(#SVGID_106_);}
	.st108{fill:url(#SVGID_107_);}
	.st109{fill:url(#SVGID_108_);}
	.st110{fill:url(#SVGID_109_);}
	.st111{fill:url(#SVGID_110_);}
	.st112{fill:url(#SVGID_111_);}
	.st113{fill:url(#SVGID_112_);}
	.st114{fill:url(#SVGID_113_);}
	.st115{fill:url(#SVGID_114_);}
	.st116{fill:url(#SVGID_115_);}
	.st117{fill:url(#SVGID_116_);}
	.st118{fill:url(#SVGID_117_);}
	.st119{fill:url(#SVGID_118_);}
	.st120{fill:url(#SVGID_119_);}
	.st121{fill:url(#SVGID_120_);}
	.st122{fill:url(#SVGID_121_);}
	.st123{fill:url(#SVGID_122_);}
	.st124{fill:url(#SVGID_123_);}
	.st125{display:none;}
	.st126{fill:url(#SVGID_124_);}
	.st127{fill:url(#SVGID_125_);}
	.st128{fill:url(#SVGID_126_);}
	.st129{fill:url(#SVGID_127_);}
	.st130{fill:url(#SVGID_128_);}
	.st131{fill:url(#SVGID_129_);}
	.st132{fill:url(#SVGID_130_);}
	.st133{fill:url(#SVGID_131_);}
	.st134{fill:url(#SVGID_132_);}
	.st135{fill:url(#SVGID_133_);}
	.st136{fill:url(#SVGID_134_);}
	.st137{fill:url(#SVGID_135_);}
	.st138{fill:url(#SVGID_136_);}
	.st139{fill:url(#SVGID_137_);}
	.st140{fill:url(#SVGID_138_);}
	.st141{fill:url(#SVGID_139_);}
	.st142{fill:url(#SVGID_140_);}
	.st143{fill:url(#SVGID_141_);}
	.st144{fill:url(#SVGID_142_);}
	.st145{fill:url(#SVGID_143_);}
	.st146{fill:url(#SVGID_144_);}
	.st147{fill:url(#SVGID_145_);}
	.st148{fill:url(#SVGID_146_);}
</style>
<linearGradient id="SVGID_1_" gradientUnits="userSpaceOnUse" x1="102.9413" y1="1.4442" x2="102.9413" y2="199.3906">
	<stop  offset="0" style="stop-color:#224FC4"/>
	<stop  offset="2.072120e-02" style="stop-color:#2553C7"/>
	<stop  offset="0.2069" style="stop-color:#3A75DA"/>
	<stop  offset="0.397" style="stop-color:#4B90EA"/>
	<stop  offset="0.5902" style="stop-color:#57A3F5"/>
	<stop  offset="0.7887" style="stop-color:#5FAEFC"/>
	<stop  offset="1" style="stop-color:#61B2FE"/>
</linearGradient>
<path class="st2" d="M177.9,88.3l-0.3-0.3c-4.6-4.6-12.1-4.5-16.7,0.1l-23.8,24c-2.3,2.3-3.4,5.3-3.4,8.3c-3.1-0.9-6.5-0.6-9.4,1.2
	l-29,17.4c-0.3,0.2-0.6,0.4-0.8,0.6c0-0.4,0-0.8,0-1.1l-2.3-31.2c1.5,0.7,3.1,1,4.8,1c3,0,6.1-1.2,8.4-3.5L129.2,81
	c4.6-4.6,4.6-12.1,0-16.7l-0.3-0.3c-2.2-2.2-5.2-3.5-8.4-3.5c-3.2,0-6.1,1.2-8.4,3.5L93.6,82.6l3.8-28.2c0.2-1.8,0.1-3.6-0.5-5.3
	c2.8-0.2,5.3-1.4,7.3-3.4L128,21.9c2.2-2.2,3.5-5.2,3.5-8.4c0-3.2-1.2-6.1-3.5-8.4l-0.3-0.3c-4.6-4.6-12.1-4.6-16.7,0L87.1,28.8
	c-3.3,3.3-4.2,8.1-2.8,12.2c-5.4,0.4-10.1,4.6-10.8,10.2L69,84.8c-0.4,3.1,0.4,6.2,2.3,8.8c0.6,0.8,1.4,1.6,2.2,2.2
	c-3.6,2.3-5.9,6.4-5.6,10.9l2.1,28.3l-15.8-20.6c-1.4-1.8-3.2-3.1-5.3-3.9c1.5-2.2,2.2-4.8,2-7.5l-2.5-33.7c-0.2-3.1-1.7-6-4.1-8.1
	c2.7-1.7,4.7-4.5,5.3-7.9L55.6,20c1.1-6.4-3.2-12.6-9.6-13.7l-0.4-0.1c-3.1-0.5-6.2,0.2-8.8,2s-4.3,4.5-4.9,7.6L26,49.1
	c-0.5,3.1,0.2,6.2,2,8.8c0.6,0.8,1.3,1.5,2,2.2c-1,0.6-1.9,1.4-2.7,2.3c-2.1,2.4-3.1,5.5-2.8,8.6l2.5,33.7c0.2,3.1,1.7,6,4.1,8.1
	c1.1,1,2.4,1.7,3.7,2.2c-2.8,4.1-2.8,9.7,0.3,13.9l20.5,26.8c1.9,2.5,4.7,4.1,7.8,4.5c0.5,0.1,1.1,0.1,1.6,0.1c0.5,0,1,0,1.5-0.1
	l-12.2,21.2c-1.6,2.7-2,5.9-1.2,9c0.8,3.1,2.8,5.6,5.5,7.2l0.3,0.2c1.8,1,3.8,1.6,5.9,1.6c1,0,2.1-0.1,3.1-0.4
	c3.1-0.8,5.6-2.8,7.2-5.5l16.9-29.3c1-1.8,1.5-3.7,1.6-5.7c1.4,1.2,3.1,2.1,5,2.6c1,0.2,1.9,0.4,2.9,0.4c2.1,0,4.2-0.6,6.1-1.7
	l29-17.4c3.7-2.2,5.7-6.2,5.7-10.2c1.1,0.3,2.3,0.5,3.4,0.5c3.1,0,6.1-1.2,8.4-3.5l23.8-24C182.6,100.4,182.5,92.9,177.9,88.3z
	 M89.6,149c0,0.1,0,0.1,0,0.2c0,0-0.1-0.1-0.1-0.1C89.5,149.1,89.5,149.1,89.6,149z M115.7,67.6c1.3-1.3,3-2,4.8-2
	c1.8,0,3.6,0.7,4.8,2l0.3,0.3c2.7,2.7,2.7,7,0,9.7l-23.9,23.9c-2.7,2.7-7,2.7-9.7,0l-0.3-0.3c-1.3-1.3-2-3-2-4.8
	c0-0.8,0.1-1.6,0.4-2.4c0.6-0.7,1.1-1.6,1.6-2.5L115.7,67.6z M90.6,32.3l23.9-23.9c2.7-2.7,7-2.7,9.7,0l0.3,0.3c1.3,1.3,2,3,2,4.8
	c0,1.8-0.7,3.6-2,4.8l-23.9,23.9c-1.3,1.3-3,2-4.8,2c-1,0-1.9-0.2-2.7-0.6c-0.6-0.5-1.3-0.9-2-1.3c-0.1-0.1-0.1-0.1-0.2-0.1L90.6,42
	C88,39.3,88,35,90.6,32.3z M74,85.5l4.5-33.5c0.5-3.7,3.9-6.4,7.7-5.9l0.4,0c0.6,0.1,1.2,0.3,1.8,0.5c0.6,0.5,1.3,1,2,1.3
	c0.3,0.3,0.5,0.5,0.8,0.8c1.1,1.5,1.6,3.3,1.4,5.1l-4.5,33.5c-0.1,0.5-0.2,1-0.4,1.4c-0.6,0.8-1.2,1.6-1.6,2.5
	c-1.5,1.5-3.6,2.3-5.8,2l-0.4,0c-1.8-0.2-3.4-1.2-4.5-2.6C74.2,89,73.7,87.3,74,85.5z M79.2,99l0.4,0c3.8-0.3,7,2.5,7.3,6.3
	l2.5,33.7c0.1,1.8-0.4,3.6-1.6,5s-2.9,2.2-4.7,2.4l-0.4,0c0,0-0.1,0-0.1,0c-0.4,0-0.8,0-1.2,0c-1.3-0.2-2.6-0.7-3.6-1.6
	c-1.4-1.2-2.2-2.9-2.4-4.7l-2.5-33.7C72.7,102.5,75.5,99.3,79.2,99z M31,50l5.9-33.3c0.3-1.8,1.3-3.4,2.8-4.4
	c1.2-0.8,2.5-1.2,3.9-1.2c0.4,0,0.8,0,1.2,0.1l0.4,0.1c1.8,0.3,3.4,1.3,4.4,2.8c1.1,1.5,1.5,3.3,1.1,5.1l-5.9,33.3
	c-0.7,3.7-4.2,6.2-7.9,5.6l-0.4-0.1c-1.8-0.3-3.4-1.3-4.4-2.8C31.1,53.6,30.7,51.8,31,50z M32,104.4l-2.5-33.7
	c-0.1-1.8,0.4-3.6,1.6-5s2.9-2.2,4.7-2.4l0.4,0c0.2,0,0.3,0,0.5,0c1.6,0,3.2,0.6,4.5,1.7c1.4,1.2,2.2,2.9,2.4,4.7l2.5,33.7
	c0.1,1.8-0.4,3.6-1.6,5c-0.6,0.7-1.3,1.3-2.1,1.7c-0.7,0.2-1.3,0.4-1.9,0.6c-0.2,0-0.4,0.1-0.6,0.1l-0.4,0c-1.8,0.1-3.6-0.5-5-1.6
	C33,107.9,32.1,106.2,32,104.4z M64.2,155.3c-1.8-0.2-3.4-1.2-4.5-2.6l-20.5-26.8c-2.3-3-1.7-7.3,1.3-9.6l0.3-0.2
	c0.4-0.3,0.8-0.5,1.2-0.7c0.6-0.2,1.3-0.4,1.9-0.6c0.4-0.1,0.7-0.1,1.1-0.1c0.3,0,0.6,0,0.9,0.1c1.8,0.2,3.4,1.2,4.5,2.6l20.5,26.8
	c2.3,3,1.7,7.3-1.3,9.6l-0.3,0.2C67.8,155.1,66,155.6,64.2,155.3z M87.9,161.7L71,191c-0.9,1.6-2.4,2.7-4.2,3.2
	c-1.8,0.5-3.6,0.2-5.2-0.7l-0.3-0.2c-1.6-0.9-2.7-2.4-3.2-4.2c-0.5-1.8-0.2-3.6,0.7-5.2l16.9-29.3c0.9-1.6,2.4-2.7,4.2-3.2
	c0.5-0.1,0.9-0.2,1.4-0.2c0.3,0,0.7,0,1,0c0.1,0,0.2,0,0.3,0c0.9,0.1,1.7,0.4,2.5,0.8l0.3,0.2c1.6,0.9,2.7,2.4,3.2,4.2
	C89,158.3,88.8,160.1,87.9,161.7z M134.1,138l-29,17.4c-1.6,0.9-3.4,1.2-5.2,0.8c-1.8-0.4-3.3-1.5-4.2-3.1l-0.2-0.3
	c-0.9-1.6-1.2-3.4-0.8-5.2c0.4-1.8,1.5-3.3,3.1-4.2l29-17.4c1.1-0.7,2.3-1,3.5-1c2.3,0,4.6,1.2,5.9,3.3l0.2,0.3
	C138.4,131.9,137.3,136.1,134.1,138z M174.4,101.5l-23.8,24c-2.7,2.7-7,2.7-9.7,0.1l-0.3-0.3c-2.7-2.7-2.7-7-0.1-9.7l23.8-24
	c1.3-1.3,3.1-2,4.9-2c1.7,0,3.5,0.7,4.8,2l0.3,0.3C177.1,94.5,177.1,98.9,174.4,101.5z"/>
</svg>
