<?xml version="1.0" encoding="utf-8"?>
<!-- Generator: Adobe Illustrator 22.0.1, SVG Export Plug-In . SVG Version: 6.00 Build 0)  -->
<svg version="1.1" id="Layer_1" xmlns="http://www.w3.org/2000/svg" xmlns:xlink="http://www.w3.org/1999/xlink" x="0px" y="0px"
	 viewBox="0 0 200 200" style="enable-background:new 0 0 200 200;" xml:space="preserve">
<style type="text/css">
	.st0{fill:none;stroke:#000000;stroke-width:5;stroke-miterlimit:10;}
	.st1{fill:none;stroke:#000000;stroke-width:5;stroke-linecap:round;stroke-miterlimit:10;}
	.st2{fill:url(#SVGID_1_);}
	.st3{fill:url(#SVGID_2_);}
	.st4{fill:url(#SVGID_3_);}
	.st5{fill:url(#SVGID_4_);}
	.st6{fill:url(#SVGID_5_);}
	.st7{fill:url(#SVGID_6_);}
	.st8{fill:url(#SVGID_7_);}
	.st9{fill:url(#SVGID_8_);}
	.st10{fill:url(#SVGID_9_);}
	.st11{fill:url(#SVGID_10_);}
	.st12{fill:url(#SVGID_11_);}
	.st13{fill:url(#SVGID_12_);}
	.st14{fill:url(#SVGID_13_);}
	.st15{fill:url(#SVGID_14_);}
	.st16{fill:url(#SVGID_15_);}
	.st17{fill:url(#SVGID_16_);}
	.st18{fill:url(#SVGID_17_);}
	.st19{fill:url(#SVGID_18_);}
	.st20{fill:url(#SVGID_19_);}
	.st21{fill:url(#SVGID_20_);}
	.st22{fill:url(#SVGID_21_);}
	.st23{fill:url(#SVGID_22_);}
	.st24{opacity:0.2;fill:url(#SVGID_23_);}
	.st25{opacity:0.2;fill:url(#SVGID_24_);}
	.st26{opacity:0.2;fill:url(#SVGID_25_);}
	.st27{opacity:0.2;fill:url(#SVGID_26_);}
	.st28{fill:url(#SVGID_27_);}
	.st29{fill:url(#SVGID_28_);}
	.st30{opacity:0.2;fill:url(#SVGID_29_);}
	.st31{opacity:0.2;fill:url(#SVGID_30_);}
	.st32{fill:url(#SVGID_31_);}
	.st33{opacity:0.2;fill:url(#SVGID_32_);}
	.st34{opacity:0.2;fill:url(#SVGID_33_);}
	.st35{opacity:0.2;fill:url(#SVGID_34_);}
	.st36{opacity:0.2;fill:url(#SVGID_35_);}
	.st37{fill:url(#SVGID_36_);}
	.st38{opacity:0.2;fill:url(#SVGID_37_);}
	.st39{fill:url(#SVGID_38_);}
	.st40{opacity:0.2;fill:url(#SVGID_39_);}
	.st41{fill:url(#SVGID_40_);}
	.st42{fill:url(#SVGID_41_);}
	.st43{fill:url(#SVGID_42_);}
	.st44{fill:url(#SVGID_43_);}
	.st45{fill:url(#SVGID_44_);}
	.st46{opacity:0.2;fill:url(#SVGID_45_);}
	.st47{fill:url(#SVGID_46_);}
	.st48{opacity:0.2;fill:url(#SVGID_47_);}
	.st49{fill:url(#SVGID_48_);}
	.st50{opacity:0.2;fill:url(#SVGID_49_);}
	.st51{fill:url(#SVGID_50_);}
	.st52{fill:url(#SVGID_51_);}
	.st53{fill:url(#SVGID_52_);}
	.st54{fill:url(#SVGID_53_);}
	.st55{fill:url(#SVGID_54_);}
	.st56{fill:url(#SVGID_55_);}
	.st57{fill:url(#SVGID_56_);}
	.st58{fill:url(#SVGID_57_);}
	.st59{fill:url(#SVGID_58_);}
	.st60{fill:url(#SVGID_59_);}
	.st61{fill:url(#SVGID_60_);}
	.st62{fill:url(#SVGID_61_);}
	.st63{fill:url(#SVGID_62_);}
	.st64{fill:url(#SVGID_63_);}
	.st65{fill:url(#SVGID_64_);}
	.st66{fill:url(#SVGID_65_);}
	.st67{fill:url(#SVGID_66_);}
	.st68{fill:url(#SVGID_67_);}
	.st69{fill:url(#SVGID_68_);}
	.st70{fill:url(#SVGID_69_);}
	.st71{fill:url(#SVGID_70_);}
	.st72{fill:url(#SVGID_71_);}
	.st73{fill:url(#SVGID_72_);}
	.st74{fill:url(#SVGID_73_);}
	.st75{fill:url(#SVGID_74_);}
	.st76{fill:url(#SVGID_75_);}
	.st77{fill:url(#SVGID_76_);}
	.st78{fill:url(#SVGID_77_);}
	.st79{fill:url(#SVGID_78_);}
	.st80{fill:url(#SVGID_79_);}
	.st81{fill:url(#SVGID_80_);}
	.st82{fill:url(#SVGID_81_);}
	.st83{fill:url(#SVGID_82_);}
	.st84{fill:url(#SVGID_83_);}
	.st85{fill:url(#SVGID_84_);}
	.st86{fill:url(#SVGID_85_);}
	.st87{fill:url(#SVGID_86_);}
	.st88{fill:url(#SVGID_87_);}
	.st89{fill:url(#SVGID_88_);}
	.st90{fill:url(#SVGID_89_);}
	.st91{fill:url(#SVGID_90_);}
	.st92{fill:url(#SVGID_91_);}
	.st93{fill:url(#SVGID_92_);}
	.st94{fill:url(#SVGID_93_);}
	.st95{fill:url(#SVGID_94_);}
	.st96{fill:url(#SVGID_95_);}
	.st97{fill:url(#SVGID_96_);}
	.st98{fill:url(#SVGID_97_);}
	.st99{fill:url(#SVGID_98_);}
	.st100{fill:url(#SVGID_99_);}
	.st101{fill:url(#SVGID_100_);}
	.st102{fill:url(#SVGID_101_);}
	.st103{fill:url(#SVGID_102_);}
	.st104{fill:url(#SVGID_103_);}
	.st105{fill:url(#SVGID_104_);}
	.st106{fill:url(#SVGID_105_);}
	.st107{fill:url(#SVGID_106_);}
	.st108{fill:url(#SVGID_107_);}
	.st109{fill:url(#SVGID_108_);}
	.st110{fill:url(#SVGID_109_);}
	.st111{fill:url(#SVGID_110_);}
	.st112{fill:url(#SVGID_111_);}
	.st113{fill:url(#SVGID_112_);}
	.st114{fill:url(#SVGID_113_);}
	.st115{fill:url(#SVGID_114_);}
	.st116{fill:url(#SVGID_115_);}
	.st117{fill:url(#SVGID_116_);}
	.st118{fill:url(#SVGID_117_);}
	.st119{fill:url(#SVGID_118_);}
	.st120{fill:url(#SVGID_119_);}
	.st121{fill:url(#SVGID_120_);}
	.st122{fill:url(#SVGID_121_);}
	.st123{fill:url(#SVGID_122_);}
	.st124{fill:url(#SVGID_123_);}
	.st125{display:none;}
	.st126{fill:url(#SVGID_124_);}
	.st127{fill:url(#SVGID_125_);}
	.st128{fill:url(#SVGID_126_);}
	.st129{fill:url(#SVGID_127_);}
	.st130{fill:url(#SVGID_128_);}
	.st131{fill:url(#SVGID_129_);}
	.st132{fill:url(#SVGID_130_);}
	.st133{fill:url(#SVGID_131_);}
	.st134{fill:url(#SVGID_132_);}
	.st135{fill:url(#SVGID_133_);}
	.st136{fill:url(#SVGID_134_);}
	.st137{fill:url(#SVGID_135_);}
	.st138{fill:url(#SVGID_136_);}
	.st139{fill:url(#SVGID_137_);}
	.st140{fill:url(#SVGID_138_);}
	.st141{fill:url(#SVGID_139_);}
	.st142{fill:url(#SVGID_140_);}
	.st143{fill:url(#SVGID_141_);}
	.st144{fill:url(#SVGID_142_);}
	.st145{fill:url(#SVGID_143_);}
	.st146{fill:url(#SVGID_144_);}
	.st147{fill:url(#SVGID_145_);}
	.st148{fill:url(#SVGID_146_);}
</style>
<g>
	<linearGradient id="SVGID_1_" gradientUnits="userSpaceOnUse" x1="99.4264" y1="-0.1177" x2="99.4264" y2="194.8826">
		<stop  offset="0" style="stop-color:#224FC4"/>
		<stop  offset="2.072120e-02" style="stop-color:#2553C7"/>
		<stop  offset="0.2069" style="stop-color:#3A75DA"/>
		<stop  offset="0.397" style="stop-color:#4B90EA"/>
		<stop  offset="0.5902" style="stop-color:#57A3F5"/>
		<stop  offset="0.7887" style="stop-color:#5FAEFC"/>
		<stop  offset="1" style="stop-color:#61B2FE"/>
	</linearGradient>
	<path class="st2" d="M186.9,36.3c0.5-6.6-3-12.1-4.9-14.5c0.4-4.7-0.7-8.7-3.3-11.9c-4-4.9-10.4-6.1-12.7-6.5
		c-3.4-1.9-6.9-2.8-10.3-2.8c-1.7,0-3.3,0.2-5,0.7c-6.5,1.8-10.8,6.6-12.9,9.5c-1.9-0.5-3.6-0.7-5.3-0.7c-3,0-5.6,0.7-7.9,2.2
		c-3,2-4.9,4.9-5.8,7.3c-1.1-0.3-2.1-0.5-3.2-0.5c-1.2,0-2.3,0.2-3.4,0.6c-1.7,0.7-3.2,1.7-4.2,2.8c-1.1-0.9-2.4-1.6-3.7-2
		c-1.2-0.4-2.4-0.5-3.6-0.5c-1.6,0-3.1,0.3-4.3,0.7c-1.2-2.2-2.8-4-4.9-5.1c-2.4-1.3-4.9-1.7-7-1.7c-0.8,0-1.6,0.1-2.2,0.1
		c-1.5-3-3.6-5.3-6.2-6.9c-2.8-1.5-5.8-1.9-8.3-1.9c-1.5,0-2.8,0.2-3.8,0.4c-4.2-3.6-8.7-5.6-13.4-5.6c-0.3,0-0.6,0-0.9,0
		C43.2,0.2,38.3,4.1,36.3,6c-5.3,0.9-9.1,3.2-11.2,6.9c-2.2,3.8-2.1,8.2-1.6,11.1c-3.2,1.7-5.4,4.2-6.6,7.3
		c-1.7,4.5-0.8,9.1,0.1,11.7c-6.5,7.4-4.7,16.1-2.1,21.4c-5.3,7.5-2.8,16.2-0.1,21.1c-1.3,4.6-4.6,19,2.5,28.9
		c4.5,6.2,11.9,9.4,22.2,9.4c10.6,0,18.2-3.2,22.7-9.5c6.7-9.5,3.7-22.7,2.4-27c4.6-9.5,2.5-16.2-0.5-19.8c1.2-2.1,1.8-4.5,2-6.7
		c3.8,2.7,7.8,3.6,11.4,3.6c2.1,0,4.1-0.3,5.7-0.8c2.9,3.4,6.5,5.4,10.3,5.9c0.7,0.1,1.4,0.1,2.1,0.1c4.1,0,7.6-1.5,9.7-2.6
		c3,2,5.9,3,8.7,3c1.1,0,2.2-0.2,3.2-0.4c3.4-0.9,5.8-3.4,7.1-5.5c1.7,0.6,3.3,0.8,4.8,0.8c2.3,0,4.3-0.6,6-1.6
		c0.5,1.5,1.3,2.6,2,3.7c-1.8,1.8-3,4.1-3.4,6.6c-0.8,4.5,1.1,8.6,2.4,10.9c-4,6.2-2.2,12,0.3,16c-1.1,0.9-1.8,2.1-2.4,3.4
		c-0.9,2.1-0.9,4.5-0.7,6.3c-0.5,0.3-1.1,0.5-1.5,0.8c-0.7,0.5-1.3,1.1-1.7,1.7c-2.6-1.7-5.4-2.5-8.3-2.5c-5.1,0-9.5,2.8-11.9,4.6
		c-2.1-0.9-4.8-1.7-7.8-1.7c-5,0-10.9,2-16.4,8.1c-10.8,12.3-6.1,26.2-4.6,29.9c-0.5,6.2-2.2,35.1,7.1,45.2c2.4,2.5,5.3,3.8,8.4,3.8
		c3.3,0,6.3-1.3,8.8-4c7.9-8.2,9.4-27.7,9.5-38c2.5,1.2,4.9,1.6,7.1,1.6c4.1,0,7.5-1.6,9.9-3.4c4.5,2.7,8.8,4,12.9,4
		c1.6,0,3.1-0.2,4.5-0.6c6.1-1.7,9.6-6.3,11.1-8.6c14-4.4,17.5-14.4,17.4-20.2c9-11.1,4.9-22,0.5-28c4-7.5,2.1-14.5-0.3-18.6
		c4.6-7.4,2.9-13.6,0.1-17.1c5-7.1,3.8-14.6,1.7-19.3C184.3,44.8,186.6,40.8,186.9,36.3z M182,35.9c-0.3,3.2-1.9,5.8-5,8.2
		c-1.9,1.4-2.5,3.9-1.5,6.1c1,2.3,3,8.2-1.3,14.3c-1.3,1.8-1.2,4.2,0.1,5.9c1.1,1.4,3.3,5.4-0.4,11.4c-1,1.6-1,3.6-0.1,5.2
		c1.2,2,3.5,7.4,0.2,13.8c-0.9,1.7-0.7,3.7,0.4,5.3c2.5,3.4,7.4,12.3-0.4,21.9c-0.7,0.9-1.1,2.1-1.1,3.3c0,1.1-0.1,11-13.9,15.3
		c-1.1,0.3-2.1,1.1-2.7,2.1c-1.2,1.9-3.9,5.3-8.2,6.5c-1,0.3-2.1,0.4-3.2,0.4c-3.1,0-6.6-1.1-10.3-3.3c-0.8-0.5-1.7-0.7-2.6-0.7
		c-1.1,0-2.1,0.3-3,1c-0.9,0.7-3.5,2.4-6.9,2.4c-1.7,0-3.3-0.4-5-1.2c-0.7-0.3-1.4-0.5-2.1-0.5c-0.9,0-1.8,0.3-2.7,0.8
		c-1.4,0.9-2.3,2.5-2.3,4.2c-0.2,16.6-3.2,29.6-8.1,34.6c-1.5,1.6-3.2,2.4-5.2,2.4c-1.8,0-3.4-0.8-4.8-2.2
		c-5.9-6.4-7.1-25.9-5.8-41.4c0.1-0.8,0-1.5-0.3-2.3c-1.7-4.3-4.7-15.3,3.7-24.8c3.8-4.3,8.1-6.5,12.7-6.5c2,0,4,0.4,5.8,1.2
		c0.7,0.3,1.4,0.4,2.1,0.4c1.1,0,2.2-0.4,3.1-1.1c2.1-1.6,5.3-3.6,8.8-3.6c2,0,3.8,0.6,5.6,1.7c0.8,0.5,1.8,0.8,2.7,0.8
		c0.4,0,0.8,0,1.1-0.1c1.3-0.3,2.4-1.1,3.1-2.1c0.1-0.1,0.3-0.2,0.4-0.4c0.2-0.1,0.5-0.3,0.8-0.4c1.9-1,3-3,2.7-5.2
		c-0.2-1.4-0.1-2.7,0.3-3.6c0,0,0-0.1,0.1-0.1c0.3-0.6,0.6-1.2,1-1.5c1.9-1.6,2.3-4.4,0.9-6.4c-3.5-5.5-1.1-9.3-0.3-10.6
		c1-1.5,1-3.5,0.2-5.1c-1.6-2.9-2.2-5.4-1.8-7.7c0,0,0-0.1,0-0.1c0.2-1.4,0.9-2.7,2-3.8c1.6-1.6,1.9-4.2,0.7-6.2l-0.2-0.3
		c-0.5-0.8-1-1.6-1.3-2.4c-0.5-1.4-1.6-2.5-3-3c-0.6-0.2-1.1-0.3-1.7-0.3c-0.9,0-1.7,0.2-2.5,0.7c-1.1,0.6-2.3,0.9-3.6,0.9
		c-1,0-2.1-0.2-3.2-0.6c-0.5-0.2-1-0.2-1.5-0.2c-1.7,0-3.3,0.9-4.2,2.4c-0.5,0.8-1.9,2.8-4.2,3.4c0,0,0,0-0.1,0
		c-0.6,0.2-1.2,0.3-1.8,0.3c-1.8,0-3.8-0.7-5.9-2.1c-0.8-0.5-1.8-0.8-2.7-0.8c-0.8,0-1.6,0.2-2.3,0.6c-2.6,1.4-5.1,2.1-7.4,2.1
		c-0.5,0-1,0-1.4-0.1C91.4,64,89,62.5,87,60.1c-1-1.1-2.4-1.8-3.8-1.8c-0.5,0-0.9,0.1-1.4,0.2c-1.4,0.4-2.9,0.6-4.3,0.6
		c-3.1,0-6-0.9-8.6-2.7C68,55.9,67,55.6,66,55.6c-0.7,0-1.5,0.2-2.2,0.5c-1.6,0.8-2.7,2.4-2.8,4.2c-0.1,1.6-0.6,3.2-1.3,4.6
		c-1,1.8-0.8,4.1,0.6,5.7c1.3,1.5,3.9,6-0.2,14.4c-0.6,1.1-0.7,2.4-0.3,3.6c0.7,2.4,4,14.7-1.7,22.7c-3.5,4.9-9.7,7.4-18.6,7.4
		c-8.6,0-14.6-2.4-18.1-7.3c-5.8-8.1-2.8-20.9-1.8-24.6c0.4-1.3,0.2-2.6-0.4-3.8c-1.2-2.1-4.6-9.6-0.2-15.9c1.1-1.5,1.2-3.5,0.4-5.1
		c-1.4-2.7-4-9.7,1.4-15.8c1.2-1.4,1.6-3.2,1-4.9c-0.5-1.4-1.5-4.9-0.2-8.3c0.8-2,2.2-3.5,4.3-4.7c1.9-1,2.9-3.2,2.5-5.3
		c-0.3-1.7-0.6-5,1-7.7c0,0,0,0,0,0c1.3-2.3,3.8-3.7,7.7-4.4c1-0.2,1.8-0.6,2.5-1.3c1.8-1.7,5.5-4.5,10.2-4.7c0,0,0,0,0.1,0
		c0.2,0,0.4,0,0.6,0c3.4,0,6.7,1.4,10.1,4.4c0.9,0.8,2.1,1.2,3.2,1.2c0.3,0,0.7,0,1-0.1c0.5-0.1,1.5-0.3,2.8-0.3
		c1.5,0,3.8,0.2,5.9,1.3c1.8,1.1,3.2,2.7,4.1,4.7c0.8,1.7,2.6,2.8,4.5,2.8c0.2,0,0.3,0,0.5,0c0.6-0.1,1.2-0.1,1.7-0.1
		c1.8,0,3.3,0.4,4.5,1.1c1.2,0.7,2.1,1.7,2.9,3.1c0.9,1.7,2.6,2.7,4.4,2.7c0.5,0,1-0.1,1.5-0.2c0.7-0.2,1.7-0.4,2.8-0.4
		c0.7,0,1.4,0.1,2.1,0.3c0,0,0.1,0,0.1,0c0.7,0.2,1.4,0.6,1.8,1c0.9,0.8,2.1,1.2,3.3,1.2c1.3,0,2.6-0.5,3.5-1.5
		c0.4-0.4,1.3-1.2,2.4-1.6c0.5-0.2,1.1-0.3,1.6-0.3c0.6,0,1.2,0.1,1.8,0.3c0.5,0.1,0.9,0.2,1.4,0.2c2,0,3.9-1.2,4.7-3.2
		c0.4-0.9,1.5-3.3,3.8-4.9c1.5-0.9,3.2-1.4,5.2-1.4c1.3,0,2.6,0.2,4.1,0.6c0.4,0.1,0.8,0.2,1.2,0.2c1.6,0,3.1-0.7,4-2.1
		c1.6-2.2,5.1-6.1,10.2-7.6c1.2-0.3,2.5-0.5,3.7-0.5c2.6,0,5.3,0.7,7.9,2.2c0.5,0.3,1,0.4,1.5,0.5c1.7,0.3,6.8,1.2,9.6,4.7
		c0,0,0,0,0,0.1c1.7,2.1,2.4,4.8,2.2,8.3c-0.1,1.3,0.3,2.5,1,3.5C179.4,26.5,182.4,30.9,182,35.9z"/>
	<linearGradient id="SVGID_2_" gradientUnits="userSpaceOnUse" x1="46" y1="3.314834e-02" x2="46" y2="195.0334">
		<stop  offset="0" style="stop-color:#224FC4"/>
		<stop  offset="2.072120e-02" style="stop-color:#2553C7"/>
		<stop  offset="0.2069" style="stop-color:#3A75DA"/>
		<stop  offset="0.397" style="stop-color:#4B90EA"/>
		<stop  offset="0.5902" style="stop-color:#57A3F5"/>
		<stop  offset="0.7887" style="stop-color:#5FAEFC"/>
		<stop  offset="1" style="stop-color:#61B2FE"/>
	</linearGradient>
	<circle style="opacity:0.2;fill:url(#SVGID_2_);" cx="46" cy="23" r="5"/>
	<linearGradient id="SVGID_3_" gradientUnits="userSpaceOnUse" x1="160" y1="3.314834e-02" x2="160" y2="195.0334">
		<stop  offset="0" style="stop-color:#224FC4"/>
		<stop  offset="2.072120e-02" style="stop-color:#2553C7"/>
		<stop  offset="0.2069" style="stop-color:#3A75DA"/>
		<stop  offset="0.397" style="stop-color:#4B90EA"/>
		<stop  offset="0.5902" style="stop-color:#57A3F5"/>
		<stop  offset="0.7887" style="stop-color:#5FAEFC"/>
		<stop  offset="1" style="stop-color:#61B2FE"/>
	</linearGradient>
	<circle style="opacity:0.2;fill:url(#SVGID_3_);" cx="160" cy="128" r="5"/>
	<linearGradient id="SVGID_4_" gradientUnits="userSpaceOnUse" x1="95" y1="3.314834e-02" x2="95" y2="195.0334">
		<stop  offset="0" style="stop-color:#224FC4"/>
		<stop  offset="2.072120e-02" style="stop-color:#2553C7"/>
		<stop  offset="0.2069" style="stop-color:#3A75DA"/>
		<stop  offset="0.397" style="stop-color:#4B90EA"/>
		<stop  offset="0.5902" style="stop-color:#57A3F5"/>
		<stop  offset="0.7887" style="stop-color:#5FAEFC"/>
		<stop  offset="1" style="stop-color:#61B2FE"/>
	</linearGradient>
	<circle style="opacity:0.2;fill:url(#SVGID_4_);" cx="95" cy="144" r="5"/>
	<linearGradient id="SVGID_5_" gradientUnits="userSpaceOnUse" x1="152" y1="3.314834e-02" x2="152" y2="195.0334">
		<stop  offset="0" style="stop-color:#224FC4"/>
		<stop  offset="2.072120e-02" style="stop-color:#2553C7"/>
		<stop  offset="0.2069" style="stop-color:#3A75DA"/>
		<stop  offset="0.397" style="stop-color:#4B90EA"/>
		<stop  offset="0.5902" style="stop-color:#57A3F5"/>
		<stop  offset="0.7887" style="stop-color:#5FAEFC"/>
		<stop  offset="1" style="stop-color:#61B2FE"/>
	</linearGradient>
	<circle style="opacity:0.2;fill:url(#SVGID_5_);" cx="152" cy="23" r="5"/>
	<linearGradient id="SVGID_6_" gradientUnits="userSpaceOnUse" x1="35" y1="3.314834e-02" x2="35" y2="195.0334">
		<stop  offset="0" style="stop-color:#224FC4"/>
		<stop  offset="2.072120e-02" style="stop-color:#2553C7"/>
		<stop  offset="0.2069" style="stop-color:#3A75DA"/>
		<stop  offset="0.397" style="stop-color:#4B90EA"/>
		<stop  offset="0.5902" style="stop-color:#57A3F5"/>
		<stop  offset="0.7887" style="stop-color:#5FAEFC"/>
		<stop  offset="1" style="stop-color:#61B2FE"/>
	</linearGradient>
	<circle class="st7" cx="35" cy="54" r="3"/>
	<linearGradient id="SVGID_7_" gradientUnits="userSpaceOnUse" x1="105" y1="3.314834e-02" x2="105" y2="195.0334">
		<stop  offset="0" style="stop-color:#224FC4"/>
		<stop  offset="2.072120e-02" style="stop-color:#2553C7"/>
		<stop  offset="0.2069" style="stop-color:#3A75DA"/>
		<stop  offset="0.397" style="stop-color:#4B90EA"/>
		<stop  offset="0.5902" style="stop-color:#57A3F5"/>
		<stop  offset="0.7887" style="stop-color:#5FAEFC"/>
		<stop  offset="1" style="stop-color:#61B2FE"/>
	</linearGradient>
	<circle class="st8" cx="105" cy="126" r="3"/>
	<linearGradient id="SVGID_8_" gradientUnits="userSpaceOnUse" x1="103" y1="3.314834e-02" x2="103" y2="195.0334">
		<stop  offset="0" style="stop-color:#224FC4"/>
		<stop  offset="2.072120e-02" style="stop-color:#2553C7"/>
		<stop  offset="0.2069" style="stop-color:#3A75DA"/>
		<stop  offset="0.397" style="stop-color:#4B90EA"/>
		<stop  offset="0.5902" style="stop-color:#57A3F5"/>
		<stop  offset="0.7887" style="stop-color:#5FAEFC"/>
		<stop  offset="1" style="stop-color:#61B2FE"/>
	</linearGradient>
	<circle style="opacity:0.2;fill:url(#SVGID_8_);" cx="103" cy="159" r="3"/>
	<linearGradient id="SVGID_9_" gradientUnits="userSpaceOnUse" x1="135" y1="3.314834e-02" x2="135" y2="195.0334">
		<stop  offset="0" style="stop-color:#224FC4"/>
		<stop  offset="2.072120e-02" style="stop-color:#2553C7"/>
		<stop  offset="0.2069" style="stop-color:#3A75DA"/>
		<stop  offset="0.397" style="stop-color:#4B90EA"/>
		<stop  offset="0.5902" style="stop-color:#57A3F5"/>
		<stop  offset="0.7887" style="stop-color:#5FAEFC"/>
		<stop  offset="1" style="stop-color:#61B2FE"/>
	</linearGradient>
	<circle style="opacity:0.2;fill:url(#SVGID_9_);" cx="135" cy="45" r="3"/>
	<linearGradient id="SVGID_10_" gradientUnits="userSpaceOnUse" x1="163" y1="3.314834e-02" x2="163" y2="195.0334">
		<stop  offset="0" style="stop-color:#224FC4"/>
		<stop  offset="2.072120e-02" style="stop-color:#2553C7"/>
		<stop  offset="0.2069" style="stop-color:#3A75DA"/>
		<stop  offset="0.397" style="stop-color:#4B90EA"/>
		<stop  offset="0.5902" style="stop-color:#57A3F5"/>
		<stop  offset="0.7887" style="stop-color:#5FAEFC"/>
		<stop  offset="1" style="stop-color:#61B2FE"/>
	</linearGradient>
	<circle class="st11" cx="163" cy="74" r="3"/>
	<linearGradient id="SVGID_11_" gradientUnits="userSpaceOnUse" x1="146" y1="3.314834e-02" x2="146" y2="195.0334">
		<stop  offset="0" style="stop-color:#224FC4"/>
		<stop  offset="2.072120e-02" style="stop-color:#2553C7"/>
		<stop  offset="0.2069" style="stop-color:#3A75DA"/>
		<stop  offset="0.397" style="stop-color:#4B90EA"/>
		<stop  offset="0.5902" style="stop-color:#57A3F5"/>
		<stop  offset="0.7887" style="stop-color:#5FAEFC"/>
		<stop  offset="1" style="stop-color:#61B2FE"/>
	</linearGradient>
	<circle style="opacity:0.2;fill:url(#SVGID_11_);" cx="146" cy="112" r="3"/>
	<linearGradient id="SVGID_12_" gradientUnits="userSpaceOnUse" x1="145" y1="3.314834e-02" x2="145" y2="195.0334">
		<stop  offset="0" style="stop-color:#224FC4"/>
		<stop  offset="2.072120e-02" style="stop-color:#2553C7"/>
		<stop  offset="0.2069" style="stop-color:#3A75DA"/>
		<stop  offset="0.397" style="stop-color:#4B90EA"/>
		<stop  offset="0.5902" style="stop-color:#57A3F5"/>
		<stop  offset="0.7887" style="stop-color:#5FAEFC"/>
		<stop  offset="1" style="stop-color:#61B2FE"/>
	</linearGradient>
	<path style="opacity:0.2;fill:url(#SVGID_12_);" d="M145,141c-1.7,0-3,1.3-3,3c0,1.7,1.3,3,3,3s3-1.3,3-3
		C148,142.3,146.7,141,145,141z"/>
	<linearGradient id="SVGID_13_" gradientUnits="userSpaceOnUse" x1="85" y1="3.314834e-02" x2="85" y2="195.0334">
		<stop  offset="0" style="stop-color:#224FC4"/>
		<stop  offset="2.072120e-02" style="stop-color:#2553C7"/>
		<stop  offset="0.2069" style="stop-color:#3A75DA"/>
		<stop  offset="0.397" style="stop-color:#4B90EA"/>
		<stop  offset="0.5902" style="stop-color:#57A3F5"/>
		<stop  offset="0.7887" style="stop-color:#5FAEFC"/>
		<stop  offset="1" style="stop-color:#61B2FE"/>
	</linearGradient>
	<circle style="opacity:0.2;fill:url(#SVGID_13_);" cx="85" cy="36" r="3"/>
	<linearGradient id="SVGID_14_" gradientUnits="userSpaceOnUse" x1="69" y1="3.314834e-02" x2="69" y2="195.0334">
		<stop  offset="0" style="stop-color:#224FC4"/>
		<stop  offset="2.072120e-02" style="stop-color:#2553C7"/>
		<stop  offset="0.2069" style="stop-color:#3A75DA"/>
		<stop  offset="0.397" style="stop-color:#4B90EA"/>
		<stop  offset="0.5902" style="stop-color:#57A3F5"/>
		<stop  offset="0.7887" style="stop-color:#5FAEFC"/>
		<stop  offset="1" style="stop-color:#61B2FE"/>
	</linearGradient>
	<circle style="opacity:0.2;fill:url(#SVGID_14_);" cx="69" cy="26" r="3"/>
	<linearGradient id="SVGID_15_" gradientUnits="userSpaceOnUse" x1="88" y1="3.314834e-02" x2="88" y2="195.0334">
		<stop  offset="0" style="stop-color:#224FC4"/>
		<stop  offset="2.072120e-02" style="stop-color:#2553C7"/>
		<stop  offset="0.2069" style="stop-color:#3A75DA"/>
		<stop  offset="0.397" style="stop-color:#4B90EA"/>
		<stop  offset="0.5902" style="stop-color:#57A3F5"/>
		<stop  offset="0.7887" style="stop-color:#5FAEFC"/>
		<stop  offset="1" style="stop-color:#61B2FE"/>
	</linearGradient>
	<circle class="st16" cx="88" cy="52" r="3"/>
	<linearGradient id="SVGID_16_" gradientUnits="userSpaceOnUse" x1="38.5" y1="3.314834e-02" x2="38.5" y2="195.0334">
		<stop  offset="0" style="stop-color:#224FC4"/>
		<stop  offset="2.072120e-02" style="stop-color:#2553C7"/>
		<stop  offset="0.2069" style="stop-color:#3A75DA"/>
		<stop  offset="0.397" style="stop-color:#4B90EA"/>
		<stop  offset="0.5902" style="stop-color:#57A3F5"/>
		<stop  offset="0.7887" style="stop-color:#5FAEFC"/>
		<stop  offset="1" style="stop-color:#61B2FE"/>
	</linearGradient>
	<circle style="opacity:0.2;fill:url(#SVGID_16_);" cx="38.5" cy="86.5" r="3.5"/>
	<linearGradient id="SVGID_17_" gradientUnits="userSpaceOnUse" x1="51" y1="3.314834e-02" x2="51" y2="195.0334">
		<stop  offset="0" style="stop-color:#224FC4"/>
		<stop  offset="2.072120e-02" style="stop-color:#2553C7"/>
		<stop  offset="0.2069" style="stop-color:#3A75DA"/>
		<stop  offset="0.397" style="stop-color:#4B90EA"/>
		<stop  offset="0.5902" style="stop-color:#57A3F5"/>
		<stop  offset="0.7887" style="stop-color:#5FAEFC"/>
		<stop  offset="1" style="stop-color:#61B2FE"/>
	</linearGradient>
	<circle class="st18" cx="51" cy="100" r="3"/>
	<linearGradient id="SVGID_18_" gradientUnits="userSpaceOnUse" x1="27" y1="3.314834e-02" x2="27" y2="195.0334">
		<stop  offset="0" style="stop-color:#224FC4"/>
		<stop  offset="2.072120e-02" style="stop-color:#2553C7"/>
		<stop  offset="0.2069" style="stop-color:#3A75DA"/>
		<stop  offset="0.397" style="stop-color:#4B90EA"/>
		<stop  offset="0.5902" style="stop-color:#57A3F5"/>
		<stop  offset="0.7887" style="stop-color:#5FAEFC"/>
		<stop  offset="1" style="stop-color:#61B2FE"/>
	</linearGradient>
	<circle style="opacity:0.2;fill:url(#SVGID_18_);" cx="27" cy="74" r="3"/>
	<linearGradient id="SVGID_19_" gradientUnits="userSpaceOnUse" x1="120" y1="3.314834e-02" x2="120" y2="195.0334">
		<stop  offset="0" style="stop-color:#224FC4"/>
		<stop  offset="2.072120e-02" style="stop-color:#2553C7"/>
		<stop  offset="0.2069" style="stop-color:#3A75DA"/>
		<stop  offset="0.397" style="stop-color:#4B90EA"/>
		<stop  offset="0.5902" style="stop-color:#57A3F5"/>
		<stop  offset="0.7887" style="stop-color:#5FAEFC"/>
		<stop  offset="1" style="stop-color:#61B2FE"/>
	</linearGradient>
	<circle class="st20" cx="120" cy="147" r="3"/>
	<linearGradient id="SVGID_20_" gradientUnits="userSpaceOnUse" x1="51" y1="3.314834e-02" x2="51" y2="195.0334">
		<stop  offset="0" style="stop-color:#224FC4"/>
		<stop  offset="2.072120e-02" style="stop-color:#2553C7"/>
		<stop  offset="0.2069" style="stop-color:#3A75DA"/>
		<stop  offset="0.397" style="stop-color:#4B90EA"/>
		<stop  offset="0.5902" style="stop-color:#57A3F5"/>
		<stop  offset="0.7887" style="stop-color:#5FAEFC"/>
		<stop  offset="1" style="stop-color:#61B2FE"/>
	</linearGradient>
	<circle class="st21" cx="51" cy="75" r="3"/>
	<linearGradient id="SVGID_21_" gradientUnits="userSpaceOnUse" x1="32" y1="3.314834e-02" x2="32" y2="195.0334">
		<stop  offset="0" style="stop-color:#224FC4"/>
		<stop  offset="2.072120e-02" style="stop-color:#2553C7"/>
		<stop  offset="0.2069" style="stop-color:#3A75DA"/>
		<stop  offset="0.397" style="stop-color:#4B90EA"/>
		<stop  offset="0.5902" style="stop-color:#57A3F5"/>
		<stop  offset="0.7887" style="stop-color:#5FAEFC"/>
		<stop  offset="1" style="stop-color:#61B2FE"/>
	</linearGradient>
	<circle class="st22" cx="32" cy="109" r="3"/>
	<linearGradient id="SVGID_22_" gradientUnits="userSpaceOnUse" x1="150" y1="3.314834e-02" x2="150" y2="195.0334">
		<stop  offset="0" style="stop-color:#224FC4"/>
		<stop  offset="2.072120e-02" style="stop-color:#2553C7"/>
		<stop  offset="0.2069" style="stop-color:#3A75DA"/>
		<stop  offset="0.397" style="stop-color:#4B90EA"/>
		<stop  offset="0.5902" style="stop-color:#57A3F5"/>
		<stop  offset="0.7887" style="stop-color:#5FAEFC"/>
		<stop  offset="1" style="stop-color:#61B2FE"/>
	</linearGradient>
	<circle class="st23" cx="150" cy="83" r="3"/>
	<linearGradient id="SVGID_23_" gradientUnits="userSpaceOnUse" x1="153" y1="3.314834e-02" x2="153" y2="195.0334">
		<stop  offset="0" style="stop-color:#224FC4"/>
		<stop  offset="2.072120e-02" style="stop-color:#2553C7"/>
		<stop  offset="0.2069" style="stop-color:#3A75DA"/>
		<stop  offset="0.397" style="stop-color:#4B90EA"/>
		<stop  offset="0.5902" style="stop-color:#57A3F5"/>
		<stop  offset="0.7887" style="stop-color:#5FAEFC"/>
		<stop  offset="1" style="stop-color:#61B2FE"/>
	</linearGradient>
	<circle style="fill:url(#SVGID_23_);" cx="153" cy="55" r="3"/>
	<linearGradient id="SVGID_24_" gradientUnits="userSpaceOnUse" x1="164" y1="3.314834e-02" x2="164" y2="195.0334">
		<stop  offset="0" style="stop-color:#224FC4"/>
		<stop  offset="2.072120e-02" style="stop-color:#2553C7"/>
		<stop  offset="0.2069" style="stop-color:#3A75DA"/>
		<stop  offset="0.397" style="stop-color:#4B90EA"/>
		<stop  offset="0.5902" style="stop-color:#57A3F5"/>
		<stop  offset="0.7887" style="stop-color:#5FAEFC"/>
		<stop  offset="1" style="stop-color:#61B2FE"/>
	</linearGradient>
	<circle class="st25" cx="164" cy="42" r="3"/>
	<linearGradient id="SVGID_25_" gradientUnits="userSpaceOnUse" x1="57" y1="3.314834e-02" x2="57" y2="195.0334">
		<stop  offset="0" style="stop-color:#224FC4"/>
		<stop  offset="2.072120e-02" style="stop-color:#2553C7"/>
		<stop  offset="0.2069" style="stop-color:#3A75DA"/>
		<stop  offset="0.397" style="stop-color:#4B90EA"/>
		<stop  offset="0.5902" style="stop-color:#57A3F5"/>
		<stop  offset="0.7887" style="stop-color:#5FAEFC"/>
		<stop  offset="1" style="stop-color:#61B2FE"/>
	</linearGradient>
	<circle style="fill:url(#SVGID_25_);" cx="57" cy="43" r="3"/>
	<linearGradient id="SVGID_26_" gradientUnits="userSpaceOnUse" x1="131" y1="3.314834e-02" x2="131" y2="195.0334">
		<stop  offset="0" style="stop-color:#224FC4"/>
		<stop  offset="2.072120e-02" style="stop-color:#2553C7"/>
		<stop  offset="0.2069" style="stop-color:#3A75DA"/>
		<stop  offset="0.397" style="stop-color:#4B90EA"/>
		<stop  offset="0.5902" style="stop-color:#57A3F5"/>
		<stop  offset="0.7887" style="stop-color:#5FAEFC"/>
		<stop  offset="1" style="stop-color:#61B2FE"/>
	</linearGradient>
	<circle class="st27" cx="131" cy="131" r="3"/>
	<linearGradient id="SVGID_27_" gradientUnits="userSpaceOnUse" x1="120" y1="3.314834e-02" x2="120" y2="195.0334">
		<stop  offset="0" style="stop-color:#224FC4"/>
		<stop  offset="2.072120e-02" style="stop-color:#2553C7"/>
		<stop  offset="0.2069" style="stop-color:#3A75DA"/>
		<stop  offset="0.397" style="stop-color:#4B90EA"/>
		<stop  offset="0.5902" style="stop-color:#57A3F5"/>
		<stop  offset="0.7887" style="stop-color:#5FAEFC"/>
		<stop  offset="1" style="stop-color:#61B2FE"/>
	</linearGradient>
	<circle class="st28" cx="120" cy="52" r="3"/>
	<linearGradient id="SVGID_28_" gradientUnits="userSpaceOnUse" x1="163" y1="3.314834e-02" x2="163" y2="195.0334">
		<stop  offset="0" style="stop-color:#224FC4"/>
		<stop  offset="2.072120e-02" style="stop-color:#2553C7"/>
		<stop  offset="0.2069" style="stop-color:#3A75DA"/>
		<stop  offset="0.397" style="stop-color:#4B90EA"/>
		<stop  offset="0.5902" style="stop-color:#57A3F5"/>
		<stop  offset="0.7887" style="stop-color:#5FAEFC"/>
		<stop  offset="1" style="stop-color:#61B2FE"/>
	</linearGradient>
	<circle style="opacity:0.2;fill:url(#SVGID_28_);" cx="163" cy="106" r="3"/>
	<linearGradient id="SVGID_29_" gradientUnits="userSpaceOnUse" x1="108" y1="3.314834e-02" x2="108" y2="195.0334">
		<stop  offset="0" style="stop-color:#224FC4"/>
		<stop  offset="2.072120e-02" style="stop-color:#2553C7"/>
		<stop  offset="0.2069" style="stop-color:#3A75DA"/>
		<stop  offset="0.397" style="stop-color:#4B90EA"/>
		<stop  offset="0.5902" style="stop-color:#57A3F5"/>
		<stop  offset="0.7887" style="stop-color:#5FAEFC"/>
		<stop  offset="1" style="stop-color:#61B2FE"/>
	</linearGradient>
	<circle style="fill:url(#SVGID_29_);" cx="108" cy="40" r="3"/>
	<linearGradient id="SVGID_30_" gradientUnits="userSpaceOnUse" x1="131" y1="3.314834e-02" x2="131" y2="195.0334">
		<stop  offset="0" style="stop-color:#224FC4"/>
		<stop  offset="2.072120e-02" style="stop-color:#2553C7"/>
		<stop  offset="0.2069" style="stop-color:#3A75DA"/>
		<stop  offset="0.397" style="stop-color:#4B90EA"/>
		<stop  offset="0.5902" style="stop-color:#57A3F5"/>
		<stop  offset="0.7887" style="stop-color:#5FAEFC"/>
		<stop  offset="1" style="stop-color:#61B2FE"/>
	</linearGradient>
	<circle style="fill:url(#SVGID_30_);" cx="131" cy="26" r="3"/>
</g>
</svg>
