<?xml version="1.0" encoding="utf-8"?>
<!-- Generator: Adobe Illustrator 22.0.1, SVG Export Plug-In . SVG Version: 6.00 Build 0)  -->
<svg version="1.1" id="Layer_1" xmlns="http://www.w3.org/2000/svg" xmlns:xlink="http://www.w3.org/1999/xlink" x="0px" y="0px"
	 viewBox="0 0 200 200" style="enable-background:new 0 0 200 200;" xml:space="preserve">
<style type="text/css">
	.st0{fill:none;stroke:#000000;stroke-width:5;stroke-miterlimit:10;}
	.st1{fill:none;stroke:#000000;stroke-width:5;stroke-linecap:round;stroke-miterlimit:10;}
	.st2{fill:url(#SVGID_1_);}
	.st3{fill:url(#SVGID_2_);}
	.st4{fill:url(#SVGID_3_);}
	.st5{fill:url(#SVGID_4_);}
	.st6{fill:url(#SVGID_5_);}
	.st7{fill:url(#SVGID_6_);}
	.st8{fill:url(#SVGID_7_);}
	.st9{fill:url(#SVGID_8_);}
	.st10{fill:url(#SVGID_9_);}
	.st11{fill:url(#SVGID_10_);}
	.st12{fill:url(#SVGID_11_);}
	.st13{fill:url(#SVGID_12_);}
	.st14{fill:url(#SVGID_13_);}
	.st15{fill:url(#SVGID_14_);}
	.st16{fill:url(#SVGID_15_);}
	.st17{fill:url(#SVGID_16_);}
	.st18{fill:url(#SVGID_17_);}
	.st19{fill:url(#SVGID_18_);}
	.st20{fill:url(#SVGID_19_);}
	.st21{fill:url(#SVGID_20_);}
	.st22{fill:url(#SVGID_21_);}
	.st23{fill:url(#SVGID_22_);}
	.st24{opacity:0.2;fill:url(#SVGID_23_);}
	.st25{opacity:0.2;fill:url(#SVGID_24_);}
	.st26{opacity:0.2;fill:url(#SVGID_25_);}
	.st27{opacity:0.2;fill:url(#SVGID_26_);}
	.st28{fill:url(#SVGID_27_);}
	.st29{fill:url(#SVGID_28_);}
	.st30{opacity:0.2;fill:url(#SVGID_29_);}
	.st31{opacity:0.2;fill:url(#SVGID_30_);}
	.st32{fill:url(#SVGID_31_);}
	.st33{opacity:0.2;fill:url(#SVGID_32_);}
	.st34{opacity:0.2;fill:url(#SVGID_33_);}
	.st35{opacity:0.2;fill:url(#SVGID_34_);}
	.st36{opacity:0.2;fill:url(#SVGID_35_);}
	.st37{fill:url(#SVGID_36_);}
	.st38{opacity:0.2;fill:url(#SVGID_37_);}
	.st39{fill:url(#SVGID_38_);}
	.st40{opacity:0.2;fill:url(#SVGID_39_);}
	.st41{fill:url(#SVGID_40_);}
	.st42{fill:url(#SVGID_41_);}
	.st43{fill:url(#SVGID_42_);}
	.st44{fill:url(#SVGID_43_);}
	.st45{fill:url(#SVGID_44_);}
	.st46{opacity:0.2;fill:url(#SVGID_45_);}
	.st47{fill:url(#SVGID_46_);}
	.st48{opacity:0.2;fill:url(#SVGID_47_);}
	.st49{fill:url(#SVGID_48_);}
	.st50{opacity:0.2;fill:url(#SVGID_49_);}
	.st51{fill:url(#SVGID_50_);}
	.st52{fill:url(#SVGID_51_);}
	.st53{fill:url(#SVGID_52_);}
	.st54{fill:url(#SVGID_53_);}
	.st55{fill:url(#SVGID_54_);}
	.st56{fill:url(#SVGID_55_);}
	.st57{fill:url(#SVGID_56_);}
	.st58{fill:url(#SVGID_57_);}
	.st59{fill:url(#SVGID_58_);}
	.st60{fill:url(#SVGID_59_);}
	.st61{fill:url(#SVGID_60_);}
	.st62{fill:url(#SVGID_61_);}
	.st63{fill:url(#SVGID_62_);}
	.st64{fill:url(#SVGID_63_);}
	.st65{fill:url(#SVGID_64_);}
	.st66{fill:url(#SVGID_65_);}
	.st67{fill:url(#SVGID_66_);}
	.st68{fill:url(#SVGID_67_);}
	.st69{fill:url(#SVGID_68_);}
	.st70{fill:url(#SVGID_69_);}
	.st71{fill:url(#SVGID_70_);}
	.st72{fill:url(#SVGID_71_);}
	.st73{fill:url(#SVGID_72_);}
	.st74{fill:url(#SVGID_73_);}
	.st75{fill:url(#SVGID_74_);}
	.st76{fill:url(#SVGID_75_);}
	.st77{fill:url(#SVGID_76_);}
	.st78{fill:url(#SVGID_77_);}
	.st79{fill:url(#SVGID_78_);}
	.st80{fill:url(#SVGID_79_);}
	.st81{fill:url(#SVGID_80_);}
	.st82{fill:url(#SVGID_81_);}
	.st83{fill:url(#SVGID_82_);}
	.st84{fill:url(#SVGID_83_);}
	.st85{fill:url(#SVGID_84_);}
	.st86{fill:url(#SVGID_85_);}
	.st87{fill:url(#SVGID_86_);}
	.st88{fill:url(#SVGID_87_);}
	.st89{fill:url(#SVGID_88_);}
	.st90{fill:url(#SVGID_89_);}
	.st91{fill:url(#SVGID_90_);}
	.st92{fill:url(#SVGID_91_);}
	.st93{fill:url(#SVGID_92_);}
	.st94{fill:url(#SVGID_93_);}
	.st95{fill:url(#SVGID_94_);}
	.st96{fill:url(#SVGID_95_);}
	.st97{fill:url(#SVGID_96_);}
	.st98{fill:url(#SVGID_97_);}
	.st99{fill:url(#SVGID_98_);}
	.st100{fill:url(#SVGID_99_);}
	.st101{fill:url(#SVGID_100_);}
	.st102{fill:url(#SVGID_101_);}
	.st103{fill:url(#SVGID_102_);}
	.st104{fill:url(#SVGID_103_);}
	.st105{fill:url(#SVGID_104_);}
	.st106{fill:url(#SVGID_105_);}
	.st107{fill:url(#SVGID_106_);}
	.st108{fill:url(#SVGID_107_);}
	.st109{fill:url(#SVGID_108_);}
	.st110{fill:url(#SVGID_109_);}
	.st111{fill:url(#SVGID_110_);}
	.st112{fill:url(#SVGID_111_);}
	.st113{fill:url(#SVGID_112_);}
	.st114{fill:url(#SVGID_113_);}
	.st115{fill:url(#SVGID_114_);}
	.st116{fill:url(#SVGID_115_);}
	.st117{fill:url(#SVGID_116_);}
	.st118{fill:url(#SVGID_117_);}
	.st119{fill:url(#SVGID_118_);}
	.st120{fill:url(#SVGID_119_);}
	.st121{fill:url(#SVGID_120_);}
	.st122{fill:url(#SVGID_121_);}
	.st123{fill:url(#SVGID_122_);}
	.st124{fill:url(#SVGID_123_);}
	.st125{display:none;}
	.st126{fill:url(#SVGID_124_);}
	.st127{fill:url(#SVGID_125_);}
	.st128{fill:url(#SVGID_126_);}
	.st129{fill:url(#SVGID_127_);}
	.st130{fill:url(#SVGID_128_);}
	.st131{fill:url(#SVGID_129_);}
	.st132{fill:url(#SVGID_130_);}
	.st133{fill:url(#SVGID_131_);}
	.st134{fill:url(#SVGID_132_);}
	.st135{fill:url(#SVGID_133_);}
	.st136{fill:url(#SVGID_134_);}
	.st137{fill:url(#SVGID_135_);}
	.st138{fill:url(#SVGID_136_);}
	.st139{fill:url(#SVGID_137_);}
	.st140{fill:url(#SVGID_138_);}
	.st141{fill:url(#SVGID_139_);}
	.st142{fill:url(#SVGID_140_);}
	.st143{fill:url(#SVGID_141_);}
	.st144{fill:url(#SVGID_142_);}
	.st145{fill:url(#SVGID_143_);}
	.st146{fill:url(#SVGID_144_);}
	.st147{fill:url(#SVGID_145_);}
	.st148{fill:url(#SVGID_146_);}
</style>
<g>
	<g>
		<linearGradient id="SVGID_1_" gradientUnits="userSpaceOnUse" x1="100.0925" y1="41" x2="100.0925" y2="191.0408">
			<stop  offset="0" style="stop-color:#224FC4"/>
			<stop  offset="2.072120e-02" style="stop-color:#2553C7"/>
			<stop  offset="0.2069" style="stop-color:#3A75DA"/>
			<stop  offset="0.397" style="stop-color:#4B90EA"/>
			<stop  offset="0.5902" style="stop-color:#57A3F5"/>
			<stop  offset="0.7887" style="stop-color:#5FAEFC"/>
			<stop  offset="1" style="stop-color:#61B2FE"/>
		</linearGradient>
		<path class="st2" d="M140,109.1h-14.1c1.2-3,1.8-6.3,1.8-9.8c0-1.9-0.2-3.8-0.6-5.6c4.9,3.1,10.7,4.9,16.9,4.9
			c17.5,0,31.7-14.2,31.7-31.7S161.4,35.3,144,35.3c-17.5,0-31.7,14.2-31.7,31.7c0,2.8,0.4,5.6,1.1,8.2c-4-2.2-8.6-3.5-13.4-3.5
			c-4.8,0-9.4,1.2-13.3,3.4c0.7-2.6,1.1-5.3,1.1-8.1c0-17.5-14.2-31.7-31.7-31.7c-17.5,0-31.7,14.2-31.7,31.7S38.6,98.6,56,98.6
			c6.2,0,11.9-1.8,16.8-4.9c-0.4,1.8-0.6,3.7-0.6,5.6c0,3.4,0.6,6.7,1.8,9.8H60.2C27.6,109.1,1,135.7,1,168.3c0,1.4,1.1,2.5,2.5,2.5
			s2.5-1.1,2.5-2.5c0-29.9,24.3-54.2,54.2-54.2h16.4c4.9,7.8,13.6,12.9,23.4,12.9s18.5-5.2,23.4-12.9H140
			c29.9,0,54.2,24.3,54.2,54.2c0,1.4,1.1,2.5,2.5,2.5s2.5-1.1,2.5-2.5C199.2,135.7,172.6,109.1,140,109.1z M144,40.3
			c14.7,0,26.7,12,26.7,26.7s-12,26.7-26.7,26.7c-14.7,0-26.7-12-26.7-26.7S129.3,40.3,144,40.3z M29.4,67c0-14.7,12-26.7,26.7-26.7
			c14.7,0,26.7,12,26.7,26.7S70.7,93.6,56,93.6C41.3,93.6,29.4,81.7,29.4,67z M100,122c-12.5,0-22.7-10.2-22.7-22.7
			c0-12.5,10.2-22.7,22.7-22.7s22.7,10.2,22.7,22.7C122.7,111.9,112.5,122,100,122z"/>
		<linearGradient id="SVGID_2_" gradientUnits="userSpaceOnUse" x1="99.9072" y1="41" x2="99.9072" y2="191.0408">
			<stop  offset="0" style="stop-color:#224FC4"/>
			<stop  offset="2.072120e-02" style="stop-color:#2553C7"/>
			<stop  offset="0.2069" style="stop-color:#3A75DA"/>
			<stop  offset="0.397" style="stop-color:#4B90EA"/>
			<stop  offset="0.5902" style="stop-color:#57A3F5"/>
			<stop  offset="0.7887" style="stop-color:#5FAEFC"/>
			<stop  offset="1" style="stop-color:#61B2FE"/>
		</linearGradient>
		<path class="st3" d="M106.7,130.1H93.1c-20.3,0-36.8,16.5-36.8,36.8c0,1.4,1.1,2.5,2.5,2.5s2.5-1.1,2.5-2.5
			c0-17.5,14.2-31.8,31.8-31.8h13.5c17.5,0,31.8,14.2,31.8,31.8c0,1.4,1.1,2.5,2.5,2.5s2.5-1.1,2.5-2.5
			C143.4,146.6,126.9,130.1,106.7,130.1z"/>
	</g>
	<path class="st125" d="M6.4,167.5c1.4-29.5,25.8-53.1,55.6-53.1H76c1.4,6.6,5.3,12.1,10.8,15.7c-17.4,4-30.5,19.1-31.4,37.5h6.4
		c1.1-17.8,16-32.1,34.1-32.1h8.3c18.1,0,33,14.3,34.1,32.1h6.4c-0.9-18.3-14-33.5-31.4-37.5c5.5-3.5,9.4-9.1,10.8-15.7h13.9
		c29.9,0,54.3,23.6,55.6,53.1h6.4c-1.4-33.1-28.7-59.6-62.1-59.6h-13.4c-0.8-12.9-11.4-23.1-24.5-23.1S76.3,95.1,75.5,108H62.1
		C28.7,108,1.4,134.5,0,167.5H6.4z"/>
</g>
</svg>
