<svg xmlns="http://www.w3.org/2000/svg" viewBox="0 0 52 72"><path d="M40.8 38.9c-3.6-4.6-7.1-8-7.3-8.2l-1.4-1.3-1.4 1.3c-.1.1-3.7 3.5-7.3 8.2-5 6.4-7.5 12-7.5 16.5 0 8.9 7.2 16.1 16.1 16.1s16.1-7.2 16.1-16.1c.2-4.5-2.3-10-7.3-16.5zm-8.6 28.7c-6.7 0-12.2-5.5-12.2-12.2 0-3.6 2.3-8.4 6.6-14.1 2.1-2.7 4.2-5 5.5-6.4 1.3 1.4 3.4 3.7 5.5 6.4 4.3 5.6 6.6 10.5 6.6 14.1.2 6.8-5.3 12.2-12 12.2zM19.6 10.4c-2.7-3.6-5.4-6.1-5.6-6.2l-1.4-1.3-1.4 1.3c-.1.1-2.8 2.7-5.6 6.2C1.9 15.3 0 19.7 0 23.2c0 7 5.7 12.7 12.7 12.7 7 0 12.7-5.7 12.7-12.7 0-3.5-2-7.9-5.8-12.8zm-6.9 21.5C7.9 31.9 4 28 4 23.2c0-4.7 5.4-11.3 8.7-14.8 3.3 3.5 8.7 10.1 8.7 14.8 0 4.8-3.9 8.7-8.7 8.7zM47.3 5.8C45.2 3.1 43.1 1.1 43 1l-1.1-1-1.1 1c-.1.1-2.2 2.1-4.3 4.8-2.9 3.8-4.4 7.1-4.4 9.9 0 5.4 4.4 9.8 9.8 9.8s9.8-4.4 9.8-9.8c0-2.8-1.5-6.1-4.4-9.9zm-5.4 16.6c-3.7 0-6.7-3-6.7-6.7 0-3.6 4.2-8.7 6.7-11.4 2.5 2.7 6.7 7.8 6.7 11.4.1 3.7-3 6.7-6.7 6.7z" fill="#aa2528"/></svg>