<svg xmlns="http://www.w3.org/2000/svg" viewBox="0 0 69 73"><g fill="#aa2528"><path d="M44.6 37.5c.8-.2 2.7-.8 3.5-3.3l1.8-5.2.7.2c.3.1.7-.1.8-.4l1-2.8c.1-.3-.1-.7-.4-.8l-23.1-7.9c-.3-.1-.7.1-.8.4l-1 2.8c-.1.3.1.7.4.8l.7.2-1.8 5.5c-.9 2.5-.3 3.4.8 4.7l4.7 5.6-.5 1.5c-1.8.4-6.5 1.4-7.1 1.6-.8.2-2.7.8-3.5 3.3l-1.5 4.5-.7-.2c-.3-.1-.7.1-.8.4l-1 2.8c-.1.3.1.7.4.8l23.1 7.9c.3.1.7-.1.8-.4l1-2.8c.1-.3-.1-.7-.4-.8l-.7-.2 1.6-4.6c.9-2.5.3-3.4-.8-4.7L37 40.7l.5-1.5c1.8-.5 6.4-1.5 7.1-1.7zm-9.8 4.1l5.1 6.1c.4.5.6.7.7 1 .1.3 0 .8-.3 1.5l-1.6 4.6-17.4-5.9 1.5-4.5c.5-1.4 1.4-1.7 2-1.9.5-.1 4.8-1.1 7.6-1.7.4-.1.7-.4.8-.7l.9-2.7c.1-.4.1-.8-.2-1.1l-5.1-6.1c-.4-.5-.6-.7-.7-1-.1-.3 0-.8.3-1.5l1.8-5.3 17.4 5.9-1.8 5.2c-.5 1.4-1.4 1.7-2 1.9-.5.1-4.8 1.1-7.6 1.7-.4.1-.7.4-.8.7l-.9 2.7c0 .4.1.8.3 1.1z"/><path d="M36.1 36.3c1-.1 7.3-1.4 7.3-1.4s.5-.2-.1-.3c-1.5-.2-4.2.3-7.2-.4-3-.8-3.6-3.4-5.6-3.6-.4 0-.5.1-.1.6.4.4 3.8 4.2 4.2 4.7.5.4.8.5 1.5.4zm-11.6 12c-.6.3-1 .5.1.9.9.3 10.2 3.5 11.3 3.9 1.2.4.9-.2.5-.9-.7-1.4-2.2-3.5-4.9-4.5-2.8-.9-5.5 0-7 .6z"/><ellipse transform="rotate(-71.21 34.833 37.677)" cx="34.8" cy="37.7" rx=".4" ry=".3"/><ellipse transform="rotate(-71.222 34.33 39.158)" cx="34.3" cy="39.2" rx=".4" ry=".3"/><ellipse transform="rotate(-71.222 33.827 40.64)" cx="33.8" cy="40.6" rx=".4" ry=".3"/><ellipse transform="rotate(-71.222 33.325 42.123)" cx="33.3" cy="42.1" rx=".4" ry=".3"/><ellipse transform="rotate(-71.205 32.819 43.605)" cx="32.8" cy="43.6" rx=".4" ry=".3"/><ellipse transform="rotate(-71.21 32.316 45.09)" cx="32.3" cy="45.1" rx=".4" ry=".3"/><ellipse transform="rotate(-71.228 31.813 46.572)" cx="31.8" cy="46.6" rx=".4" ry=".3"/><path d="M48.5 63.3c-.5.3-1 .6-1.6.8-.1 0-.2.1-.2.1-.1 0-.2.1-.3.1-2.3 1.1-4.6 1.8-7.1 2.2h-.1c-.6.1-1.2.2-1.7.3-1.1.1-2.1.2-3.2.2-12.5 0-23.2-8-27.2-19.2 0-.2-.1-.4-.1-.5-.9-2.9-1.5-5.9-1.5-9.1C5.5 35 6 32 7 29.1c0-.1 0-.1.1-.2.1-.2.1-.3.2-.5 0-.1.1-.2.1-.2 3.3-8.9 10.8-15.7 20.1-18 .1 0 .3-.1.4-.1 2-.5 4.1-.7 6.3-.7v3c0 .9.6 1.2 1.3.6l6.3-5.3c.7-.6.7-1.6 0-2.1L35.5.4c-.7-.6-1.3-.3-1.3.6v3c-9.2-.1-17.7 3.5-24.1 9.9-.6.6-1.2 1.3-1.8 2 0 0 0 .1-.1.1C3.1 21.9.2 29.3 0 37.2v2.4c.3 7.2 2.8 13.9 7.1 19.5v.1c.4.5.9 1.1 1.3 1.6l.1.1c.5.5.9 1 1.4 1.5 5.1 5.1 11.5 8.4 18.5 9.6h.1c1.9.3 3.8.5 5.7.5 5.1 0 9.9-1.1 14.5-3.2.1 0 .2-.1.3-.2.1 0 .2-.1.3-.1.6-.3 1.2-.6 1.9-1 1.3-.8 1.8-2.4 1-3.8-.7-1.2-2.3-1.7-3.7-.9zm9.7-41.2c.5.8 1.4 1.2 2.3 1.2.5 0 1.1-.2 1.5-.5 1.3-.9 1.6-2.6.8-3.8-.4-.6-.8-1.1-1.2-1.7-.9-1.2-2.7-1.4-3.9-.5-1.2.9-1.4 2.7-.5 3.9.4.5.7.9 1 1.4zm3.6 7.3c.2.6.3 1.1.5 1.7.3 1.2 1.4 2.1 2.7 2.1.2 0 .5 0 .7-.1 1.5-.4 2.4-1.9 2-3.4-.2-.7-.4-1.3-.6-2-.5-1.5-2-2.3-3.5-1.8-1.5.5-2.3 2-1.8 3.5zM60 56.8c-1.2-1-2.9-.9-3.9.3-.4.4-.8.9-1.2 1.3-1.1 1.1-1 2.8 0 3.9.5.5 1.2.8 1.9.8s1.4-.3 2-.8c.5-.5 1-1 1.4-1.5 1.1-1.3.9-3-.2-4zm6-20.4c-1.5 0-2.8 1.2-2.8 2.7 0 .6-.1 1.2-.1 1.8-.1 1.5 1 2.9 2.5 3h.3c1.4 0 2.6-1.1 2.7-2.5.1-.7.1-1.4.1-2.1 0-1.6-1.2-2.9-2.7-2.9zm-1.3 10.7c-1.4-.6-3 .1-3.6 1.6-.2.5-.4 1.1-.7 1.6-.6 1.4 0 3 1.3 3.7.4.2.8.3 1.2.3 1 0 2-.6 2.5-1.6.3-.6.6-1.3.8-1.9.7-1.5 0-3.1-1.5-3.7zm-9.4-32.6c.9-1.2.6-3-.6-3.9-.6-.4-1.1-.8-1.7-1.2-1.3-.8-3-.5-3.8.8-.8 1.3-.5 3 .8 3.8.5.3 1 .7 1.4 1 .5.4 1.1.5 1.6.5 1 .1 1.8-.3 2.3-1z"/></g></svg>