<svg id="logo_1_" xmlns="http://www.w3.org/2000/svg" viewBox="0 0 148.1 20.3"><style>.st0{fill:#455b68}</style><path class="st0" d="M8.6 1.9h3.3l6.9 16.3h-3.7l-1.5-3.6H6.8l-1.5 3.6H1.7L8.6 1.9zm3.7 9.6l-2.1-5.2L8 11.5h4.3zm5.9-1.4c0-4.6 3.6-8.4 8.5-8.4 2.9 0 4.7.8 6.4 2.2l-2.2 2.7c-1.2-1-2.4-1.6-4.2-1.6-2.6 0-4.6 2.3-4.6 5.1 0 3 2 5.1 4.9 5.1 1.3 0 2.4-.3 3.4-1V12h-3.6V8.9h7v7c-1.7 1.4-4 2.6-6.9 2.6-5.3 0-8.7-3.5-8.7-8.4zM35.6 2h12.2v3.2h-8.7v3.3h7.6v3.2h-7.6v3.4h8.8v3.2H35.6V2zm14.6 0h3.3L61 12V2h3.5v16.2h-3L53.7 7.9v10.3h-3.5V2zm16.6 8.1c0-4.6 3.5-8.4 8.4-8.4 3.1 0 4.8 1.2 6.3 2.6l-2.1 2.4c-1.2-1.1-2.3-1.8-4.2-1.8-2.7 0-4.7 2.3-4.7 5.1s1.9 5.1 4.7 5.1c1.8 0 3-.7 4.3-1.9l2.3 2.4c-1.7 1.8-3.5 2.7-6.6 2.7-4.9.2-8.4-3.5-8.4-8.2zm21.1 1.7L81.7 2h4.2l3.9 6.5L93.7 2h4l-6.2 9.7v6.4h-3.6v-6.3zM115.3 6c0-2.2-1.7-4-5.5-4h-6.3l-3.4 12.5-1 3.6h7.9c4.5 0 7-2 7-4.9 0-1.7-.9-2.7-2.3-3.3 2.2-.3 3.6-1.7 3.6-3.9zm-7.6 9.1h-4.2l1-3.6h3.9c1.5 0 2.2.6 2.2 1.5-.1 1.3-1.2 2.1-2.9 2.1zm1.1-6.5h-3.6l.9-3.4h3.4c1.6 0 2.2.6 2.2 1.5 0 1.3-1.1 1.9-2.9 1.9zM119.1 2h12.1l-.9 3.2h-8.5l-.9 3.3h7.5l-.9 3.1H120l-.9 3.4h8.7l-.9 3.2h-12.2L119.1 2zm18 3.3h-4.9L133 2h13.4l-.9 3.3h-4.9l-3.5 12.9h-3.6l3.6-12.9z" id="logo"/></svg>