<svg id="aim" xmlns="http://www.w3.org/2000/svg" viewBox="0 0 314 314"><style>.st0{fill:none;stroke:#fff;stroke-width:2;stroke-linecap:round;stroke-linejoin:round;stroke-miterlimit:10}.st1{fill:url(#SVGID_1_)}</style><g id="cont"><g id="lines-a"><circle class="st0" cx="157.4" cy="156.2" r="26.4"/><circle class="st0" cx="157.4" cy="156.2" r="19.7"/><path class="st0" d="M157.5 140.5v-27.2m15.7 42.8h27.3m-43.1 15.8v27.5m-15.9-43.2h-27.1"/></g><g id="wheel"><linearGradient id="SVGID_1_" gradientUnits="userSpaceOnUse" x1="157" y1=".623" x2="157" y2="313.377"><stop offset="0" stop-color="#00b140"/><stop offset=".795" stop-color="#00b140"/><stop offset=".862" stop-color="#00a83c"/><stop offset=".968" stop-color="#009132"/><stop offset="1" stop-color="#00892e"/></linearGradient><path class="st1" d="M157 1.6c85.8 0 155.4 69.6 155.4 155.4S242.8 312.4 157 312.4 1.6 242.8 1.6 157 71.2 1.6 157 1.6m0-1C115.2.6 76 16.9 46.4 46.4 16.9 76 .6 115.2.6 157s16.3 81 45.8 110.6c29.5 29.5 68.8 45.8 110.6 45.8s81-16.3 110.6-45.8 45.8-68.8 45.8-110.6-16.3-81-45.8-110.6C238 16.9 198.8.6 157 .6z"/></g></g></svg>