<svg xmlns="http://www.w3.org/2000/svg" viewBox="0 0 216.3 38.4"><path d="M24.6 17.1l-1.8.9H2.7l-.9-.9V3.8l.9-.9h12.6c7.9 0 11.8 3.3 11.8 8.4.1 2.8-1.1 4.8-2.5 5.8zM2.7 35.5l-.9-.9V20.3l.9-.9H23l2.2.9c1.4 1 2.8 3 2.8 6.1 0 5.6-4.5 9.1-12.1 9.1H2.7zm7.8-20.3h4.4c2.5 0 3.6-.8 3.6-2.7 0-1.8-1-2.7-3.4-2.7h-4.7v5.4zm0 13.2h4.6c2.7 0 3.8-.8 3.8-2.8 0-2.1-1.2-2.9-4-2.9h-4.4v5.7zm39.9 1.1H39.7l-1.3 5.1-1.2.9H30l-.7-.9 4.4-14.3 1.2-.9h6.4l.7.9-.7 2.8h7.4l-.7-2.8.7-.9h6.6l1.2.9L61 34.6l-.7.9h-7.5l-1.2-.9-1.2-5.1zm5.2-12.4l-.7.9h-6.5l-1.2-.9-1.6-6.3h-1L43 17.1l-1.2.9h-6.3l-.7-.9 4.1-13.4 1.2-.9h10.1l1.2.9 4.2 13.4zM64 27.9l6.4-7.7 1.5-.7h8.6l.3.7-5.3 6.4v1h13.1l.9.9v6.1l-.9.9H64.9l-.9-.9v-6.7zm19.2-10.6l-1.5.7h-8.6l-.3-.7 4.6-5.5v-1H65.5l-.9-.9V3.8l.9-.9h22.4l.9.9v6.7l-5.6 6.8zm29.9 12.2h-10.7l-1.3 5.1-1.2.9h-7.3l-.6-.9 4.4-14.3 1.2-.9h6.4l.7.9-.7 2.8h7.4l-.7-2.8.7-.9h6.6l1.2.9 4.5 14.3-.7.9h-7.5l-1.2-.9-1.2-5.1zm5.2-12.4l-.7.9h-6.5l-1.2-.9-1.6-6.3h-1l-1.6 6.3-1.2.9h-6.3l-.7-.9 4.1-13.4 1.2-.9h10.1l1.2.9 4.2 13.4zm32.1 0l-1.8.9h-20.1l-.9-.9V3.8l.9-.9h12.6c7.9 0 11.8 3.3 11.8 8.4 0 2.8-1.1 4.8-2.5 5.8zm-21.9 18.4l-.9-.9V20.3l.9-.9h20.3l2.2.9c1.4 1 2.8 3 2.8 6.1 0 5.6-4.5 9.1-12.1 9.1h-13.2zm7.8-20.3h4.4c2.5 0 3.6-.8 3.6-2.7 0-1.8-1-2.7-3.4-2.7h-4.7v5.4zm0 13.2h4.6c2.7 0 3.8-.8 3.8-2.8 0-2.1-1.2-2.9-4-2.9h-4.4v5.7zm23.9-25.5h21.5l.9.9v6.1l-.9.9h-13.6v3.5h12.6l.9.9v1.9l-.9.9h-20.6l-.9-.9V3.8l1-.9zm-.9 31.7V20.3l.9-.9h20.6l.9.9v1.9l-.9.9h-12.6v4.4h13.6l.9.9v6.1l-.9.9h-21.5l-1-.8zm45.6-23.8v6.3l-.9.9h-7l-.9-.9v-6.3h-8.8l-.9-.9V3.8l.9-.9h26.4l.9.9v6.1l-.9.9h-8.8zM196 34.6V20.3l.9-.9h7l.9.9v14.2l-.9.9h-7l-.9-.8z"/></svg>