<?xml version="1.0" encoding="utf-8"?>
<!-- Generator: Adobe Illustrator 20.1.0, SVG Export Plug-In . SVG Version: 6.00 Build 0)  -->
<svg version="1.1" xmlns="http://www.w3.org/2000/svg" xmlns:xlink="http://www.w3.org/1999/xlink" x="0px" y="0px"
	 viewBox="0 0 216.3 38.4" style="enable-background:new 0 0 216.3 38.4;" xml:space="preserve">
<g id="_x2E_logo-bazabet_5_">
	<g>
		<g id="_x2E_logo-bazabet_11_">
			<path d="M24.6,17.1L22.8,18H2.7l-0.9-0.9V3.8l0.9-0.9h12.6c7.9,0,11.8,3.3,11.8,8.4
				C27.2,14.1,26,16.1,24.6,17.1z M2.7,35.5l-0.9-0.9V20.3l0.9-0.9H23l2.2,0.9c1.4,1,2.8,3,2.8,6.1c0,5.6-4.5,9.1-12.1,9.1H2.7z
				 M10.5,15.2h4.4c2.5,0,3.6-0.8,3.6-2.7c0-1.8-1-2.7-3.4-2.7h-4.7V15.2z M10.5,28.4h4.6c2.7,0,3.8-0.8,3.8-2.8
				c0-2.1-1.2-2.9-4-2.9h-4.4V28.4z"/>
			<path d="M50.4,29.5H39.7l-1.3,5.1l-1.2,0.9H30l-0.7-0.9l4.4-14.3l1.2-0.9h6.4l0.7,0.9l-0.7,2.8h7.4
				l-0.7-2.8l0.7-0.9h6.6l1.2,0.9L61,34.6l-0.7,0.9h-7.5l-1.2-0.9L50.4,29.5z M55.6,17.1L54.9,18h-6.5l-1.2-0.9l-1.6-6.3h-1
				l-1.6,6.3L41.8,18h-6.3l-0.7-0.9l4.1-13.4l1.2-0.9h10.1l1.2,0.9L55.6,17.1z"/>
			<path d="M64,27.9l6.4-7.7l1.5-0.7h8.6l0.3,0.7l-5.3,6.4v1h13.1l0.9,0.9v6.1l-0.9,0.9H64.9L64,34.6V27.9z
				 M83.2,17.3L81.7,18h-8.6l-0.3-0.7l4.6-5.5v-1H65.5l-0.9-0.9V3.8l0.9-0.9h22.4l0.9,0.9v6.7L83.2,17.3z"/>
			<path d="M113.1,29.5h-10.7l-1.3,5.1l-1.2,0.9h-7.3L92,34.6l4.4-14.3l1.2-0.9h6.4l0.7,0.9l-0.7,2.8h7.4
				l-0.7-2.8l0.7-0.9h6.6l1.2,0.9l4.5,14.3l-0.7,0.9h-7.5l-1.2-0.9L113.1,29.5z M118.3,17.1l-0.7,0.9h-6.5l-1.2-0.9l-1.6-6.3h-1
				l-1.6,6.3l-1.2,0.9h-6.3l-0.7-0.9l4.1-13.4l1.2-0.9h10.1l1.2,0.9L118.3,17.1z"/>
			<path d="M150.4,17.1l-1.8,0.9h-20.1l-0.9-0.9V3.8l0.9-0.9h12.6c7.9,0,11.8,3.3,11.8,8.4
				C152.9,14.1,151.8,16.1,150.4,17.1z M128.5,35.5l-0.9-0.9V20.3l0.9-0.9h20.3l2.2,0.9c1.4,1,2.8,3,2.8,6.1c0,5.6-4.5,9.1-12.1,9.1
				H128.5z M136.3,15.2h4.4c2.5,0,3.6-0.8,3.6-2.7c0-1.8-1-2.7-3.4-2.7h-4.7V15.2z M136.3,28.4h4.6c2.7,0,3.8-0.8,3.8-2.8
				c0-2.1-1.2-2.9-4-2.9h-4.4V28.4z"/>
			<path d="M160.2,2.9h21.5l0.9,0.9v6.1l-0.9,0.9h-13.6v3.5h12.6l0.9,0.9v1.9l-0.9,0.9h-20.6l-0.9-0.9V3.8
				L160.2,2.9z M159.3,34.6V20.3l0.9-0.9h20.6l0.9,0.9v1.9l-0.9,0.9h-12.6v4.4h13.6l0.9,0.9v6.1l-0.9,0.9h-21.5L159.3,34.6z"/>
			<path d="M204.9,10.8v6.3L204,18h-7l-0.9-0.9v-6.3h-8.8l-0.9-0.9V3.8l0.9-0.9h26.4l0.9,0.9v6.1l-0.9,0.9
				H204.9z M196,34.6V20.3l0.9-0.9h7l0.9,0.9v14.2l-0.9,0.9h-7L196,34.6z"/>
		</g>
	</g>
</g>
</svg>
