<svg xmlns="http://www.w3.org/2000/svg" viewBox="0 0 52 52"><path d="M26 28.8h.7c1.5.1 2.9.8 4.1 1.8l.2.2.1.1.1.1c1.4 1.4 2.1 3.2 2.1 5.1 0 4-3.3 7.3-7.3 7.3s-7.3-3.3-7.3-7.3c0-1.9.7-3.7 2.1-5.1l.1-.1.1-.1.2-.2c1.2-1 2.6-1.7 4.1-1.8h.7m0-1.1h-.9c-1.8.2-3.5 1-4.7 2.1-.1.1-.2.1-.2.2-.1.1-.2.1-.2.2-1.5 1.5-2.4 3.6-2.4 5.9 0 4.7 3.8 8.5 8.5 8.5s8.5-3.8 8.5-8.5c0-2.3-.9-4.4-2.4-5.9-.2-.1-.3-.2-.4-.2-.1-.1-.2-.1-.2-.2-1.3-1.1-2.9-1.9-4.8-2.1H26zm-5.4-.7c-.2 0-.3 0-.5-.1-.5-.1-.8-.5-1-.9l-5.6-13c-.1-.3 0-.6.3-.8.3-.1.6 0 .8.3l5.6 13.1c.1.1.2.2.3.2h.3c.9-.6 1.9-1 2.9-1.3.1 0 .2-.1.3-.2 0-.1.1-.2 0-.3L18.3 8.2l.5-.8h11.8c.3 0 .6.3.6.6s-.3.6-.6.6h-11l5.4 15c.2.4.1.9-.1 1.3s-.6.7-1 .8c-.9.2-1.8.6-2.5 1.1-.2.1-.5.2-.8.2zm10.8 0c-.3 0-.6-.1-.8-.2-.8-.5-1.6-.9-2.5-1.1-.5-.1-.8-.4-1-.8-.2-.4-.2-.9-.1-1.3l5.7-15.8c.1-.3.4-.5.7-.3.3.1.5.4.3.7L28 24c-.1.1 0 .3 0 .3.1.1.2.2.3.2 1 .3 2 .7 2.9 1.2.1.1.3.1.3 0 .1 0 .2-.1.3-.2l5.6-13c.1-.3.5-.4.8-.3.3.1.4.5.3.8l-5.6 13c-.2.4-.6.8-1 .9-.2.1-.3.1-.5.1z" fill="#ffcc29"/></svg>