<?xml version="1.0" encoding="utf-8"?>
<!-- Generator: Adobe Illustrator 20.1.0, SVG Export Plug-In . SVG Version: 6.00 Build 0)  -->
<svg version="1.1" xmlns="http://www.w3.org/2000/svg" xmlns:xlink="http://www.w3.org/1999/xlink" x="0px" y="0px"
	 viewBox="0 0 52 52" style="enable-background:new 0 0 52 52;" xml:space="preserve">
<g id="medal-ic_27_">
	<path style="fill:#FFCC29;" d="M26,28.8L26,28.8c0.1,0,0.1,0,0.2,0c0,0,0,0,0,0c0.1,0,0.1,0,0.2,0l0.1,0l0.1,0c0,0,0.1,0,0.1,0
		c1.5,0.1,2.9,0.8,4.1,1.8c0.1,0.1,0.1,0.1,0.2,0.2l0.1,0.1c0,0,0.1,0.1,0.1,0.1c1.4,1.4,2.1,3.2,2.1,5.1c0,4-3.3,7.3-7.3,7.3
		c-4,0-7.3-3.3-7.3-7.3c0-1.9,0.7-3.7,2.1-5.1l0.1-0.1l0.1-0.1c0.1-0.1,0.1-0.1,0.2-0.2c1.2-1,2.6-1.7,4.1-1.8l0.1,0l0.2,0
		c0.1,0,0.2,0,0.2,0L26,28.8L26,28.8 M26,27.7c-0.1,0-0.2,0-0.3,0c-0.1,0-0.2,0-0.3,0c-0.1,0-0.2,0-0.3,0c-1.8,0.2-3.5,1-4.7,2.1
		c-0.1,0.1-0.2,0.1-0.2,0.2c-0.1,0.1-0.2,0.1-0.2,0.2c-1.5,1.5-2.4,3.6-2.4,5.9c0,4.7,3.8,8.5,8.5,8.5c4.7,0,8.5-3.8,8.5-8.5
		c0-2.3-0.9-4.4-2.4-5.9C32,30.1,31.9,30,31.8,30c-0.1-0.1-0.2-0.1-0.2-0.2c-1.3-1.1-2.9-1.9-4.8-2.1c-0.1,0-0.2,0-0.3,0
		c-0.1,0-0.2,0-0.3,0C26.2,27.7,26.1,27.7,26,27.7L26,27.7z"/>
	<g>
		<path style="fill:#FFCC29;" d="M20.6,27c-0.2,0-0.3,0-0.5-0.1c-0.5-0.1-0.8-0.5-1-0.9L13.5,13c-0.1-0.3,0-0.6,0.3-0.8
			c0.3-0.1,0.6,0,0.8,0.3l5.6,13.1c0.1,0.1,0.2,0.2,0.3,0.2c0.1,0,0.2,0,0.3,0c0.9-0.6,1.9-1,2.9-1.3c0.1,0,0.2-0.1,0.3-0.2
			c0-0.1,0.1-0.2,0-0.3L18.3,8.2l0.5-0.8h11.8c0.3,0,0.6,0.3,0.6,0.6s-0.3,0.6-0.6,0.6h-11l5.4,15c0.2,0.4,0.1,0.9-0.1,1.3
			c-0.2,0.4-0.6,0.7-1,0.8c-0.9,0.2-1.8,0.6-2.5,1.1C21.2,26.9,20.9,27,20.6,27z"/>
	</g>
	<g>
		<path style="fill:#FFCC29;" d="M31.4,27c-0.3,0-0.6-0.1-0.8-0.2c-0.8-0.5-1.6-0.9-2.5-1.1c-0.5-0.1-0.8-0.4-1-0.8
			c-0.2-0.4-0.2-0.9-0.1-1.3l5.7-15.8c0.1-0.3,0.4-0.5,0.7-0.3c0.3,0.1,0.5,0.4,0.3,0.7L28,24c-0.1,0.1,0,0.3,0,0.3
			c0.1,0.1,0.2,0.2,0.3,0.2c1,0.3,2,0.7,2.9,1.2c0.1,0.1,0.3,0.1,0.3,0c0.1,0,0.2-0.1,0.3-0.2l5.6-13c0.1-0.3,0.5-0.4,0.8-0.3
			c0.3,0.1,0.4,0.5,0.3,0.8l-5.6,13c-0.2,0.4-0.6,0.8-1,0.9C31.7,27,31.6,27,31.4,27z"/>
	</g>
</g>
</svg>
