<?xml version="1.0" encoding="utf-8"?>
<!-- Generator: Adobe Illustrator 20.1.0, SVG Export Plug-In . SVG Version: 6.00 Build 0)  -->
<svg version="1.1" id="_x2E_footer-ic" xmlns="http://www.w3.org/2000/svg" xmlns:xlink="http://www.w3.org/1999/xlink" x="0px"
	 y="0px" viewBox="0 0 57 57" style="enable-background:new 0 0 57 57;" xml:space="preserve">
<style type="text/css">
	.st0{fill:#00B339;}
</style>
<g id="youtube-active">
	<g>
		<path class="st0" d="M38.1,17.8c3.2,0,5.9,2.6,5.9,5.9v9.6c0,3.2-2.6,5.9-5.9,5.9H18.9c-3.2,0-5.9-2.6-5.9-5.9v-9.6
			c0-3.2,2.6-5.9,5.9-5.9H38.1 M24.3,34.3c0.2,0,0.4,0,0.6-0.1l9-4.3c0.5-0.2,0.8-0.7,0.8-1.2s-0.3-1-0.7-1.2l-9-4.6
			c-0.2-0.1-0.4-0.1-0.6-0.1c-0.8,0-1.4,0.6-1.4,1.4v8.9C23,33.7,23.6,34.3,24.3,34.3 M38.1,16.8H18.9c-3.8,0-6.9,3.1-6.9,6.9v9.6
			c0,3.8,3.1,6.9,6.9,6.9h19.3c3.8,0,6.9-3.1,6.9-6.9v-9.6C45,19.9,41.9,16.8,38.1,16.8L38.1,16.8z M24.3,33.3
			c-0.2,0-0.4-0.2-0.4-0.4v-8.9c0-0.2,0.2-0.4,0.4-0.4c0.1,0,0.1,0,0.2,0l9,4.6c0.3,0.1,0.3,0.5,0,0.7l-9,4.3
			C24.4,33.3,24.4,33.3,24.3,33.3L24.3,33.3z"/>
	</g>
	<g>
		<path class="st0" d="M49.9,2C51,2,52,2.4,52.8,3.2l1.1,1.1C54.6,5,55,6,55,7.1v42.9c0,1.1-0.4,2.1-1.2,2.8l-1.1,1.1
			C52,54.6,51,55,49.9,55H7.1C6,55,5,54.6,4.2,53.8l-1.1-1.1C2.4,52,2,51,2,49.9V7.1C2,6,2.4,5,3.2,4.2l1.1-1.1C5,2.4,6,2,7.1,2
			H49.9 M49.9,1H7.1C5.7,1,4.5,1.5,3.5,2.5L2.5,3.5C1.5,4.5,1,5.7,1,7.1v42.9c0,1.3,0.5,2.6,1.5,3.5l1.1,1.1C4.5,55.5,5.7,56,7.1,56
			h42.9c1.3,0,2.6-0.5,3.5-1.5l1.1-1.1c0.9-0.9,1.5-2.2,1.5-3.5V7.1c0-1.3-0.5-2.6-1.5-3.5l-1.1-1.1C52.5,1.5,51.3,1,49.9,1L49.9,1z
			"/>
	</g>
</g>
</svg>
