<svg id="_x2E_footer-ic" xmlns="http://www.w3.org/2000/svg" viewBox="0 0 57 57"><style>.st0{fill:none;stroke:#00b339;stroke-miterlimit:10}.st1{fill:#00b339}</style><g id="insta-in_1_"><g id="insta-in"><path class="st0" d="M35.5 12.9h-14c-4.8 0-8.6 3.9-8.6 8.6v14c0 4.8 3.9 8.6 8.6 8.6h14c4.8 0 8.6-3.9 8.6-8.6v-14c0-4.8-3.8-8.6-8.6-8.6zm5.9 22.6"/><path class="st0" d="M28.5 20.4c-4.4 0-8.1 3.6-8.1 8.1 0 4.4 3.6 8.1 8.1 8.1 4.4 0 8.1-3.6 8.1-8.1 0-4.4-3.7-8.1-8.1-8.1zm8.4-2.3c-.5 0-1.1.2-1.4.6-.4.4-.6.9-.6 1.4 0 .5.2 1.1.6 1.4.4.4.9.6 1.4.6.5 0 1.1-.2 1.4-.6.4-.4.6-.9.6-1.4 0-.5-.2-1.1-.6-1.4-.3-.4-.9-.6-1.4-.6zm0 0"/></g><path class="st1" d="M49.9 2c1.1 0 2.1.4 2.9 1.2l1.1 1.1C54.6 5 55 6 55 7.1V50c0 1.1-.4 2.1-1.2 2.8l-1.1 1.1c-.7.7-1.7 1.1-2.8 1.1H7.1C6 55 5 54.6 4.2 53.8l-1.1-1.1C2.4 52 2 51 2 49.9V7.1C2 6 2.4 5 3.2 4.2l1.1-1.1C5 2.4 6 2 7.1 2h42.8m0-1H7.1c-1.4 0-2.6.5-3.6 1.5l-1 1C1.5 4.5 1 5.7 1 7.1V50c0 1.3.5 2.6 1.5 3.5l1.1 1.1c.9.9 2.1 1.4 3.5 1.4H50c1.3 0 2.6-.5 3.5-1.5l1.1-1.1c.9-.9 1.5-2.2 1.5-3.5V7.1c0-1.3-.5-2.6-1.5-3.5l-1.1-1.1c-1-1-2.2-1.5-3.6-1.5z"/></g></svg>