<svg id="_x2E_footer-ic" xmlns="http://www.w3.org/2000/svg" viewBox="0 0 57 57"><style>.st0{fill:none;stroke:#00b339;stroke-miterlimit:10}.st1{fill:#00b339}</style><g id="facebook-in"><path class="st1" d="M24.2 18.7v4.4H21v5.4h3.2v16.1h6.7V28.5h4.5s.4-2.6.6-5.4h-5.1v-3.7c0-.6.7-1.3 1.4-1.3H36v-5.6h-4.9c-7-.1-6.9 5.3-6.9 6.2zm0 0"/><path class="st1" d="M49.9 2c1.1 0 2.1.4 2.9 1.2l1.1 1.1C54.6 5 55 6 55 7.1V50c0 1.1-.4 2.1-1.2 2.8l-1.1 1.1c-.7.7-1.7 1.1-2.8 1.1H7.1C6 55 5 54.6 4.2 53.8l-1.1-1.1C2.4 52 2 51 2 49.9V7.1C2 6 2.4 5 3.2 4.2l1.1-1.1C5 2.4 6 2 7.1 2h42.8m0-1H7.1c-1.4 0-2.6.5-3.6 1.5l-1 1C1.5 4.5 1 5.7 1 7.1V50c0 1.3.5 2.6 1.5 3.5l1.1 1.1c.9.9 2.1 1.4 3.5 1.4H50c1.3 0 2.6-.5 3.5-1.5l1.1-1.1c.9-.9 1.5-2.2 1.5-3.5V7.1c0-1.3-.5-2.6-1.5-3.5l-1.1-1.1c-1-1-2.2-1.5-3.6-1.5z"/></g></svg>