<svg id="_x2E_footer-ic" xmlns="http://www.w3.org/2000/svg" viewBox="0 0 57 57"><style>.st0{fill:#00b339}</style><g id="youtube-active"><path class="st0" d="M38.1 17.8c3.2 0 5.9 2.6 5.9 5.9v9.6c0 3.2-2.6 5.9-5.9 5.9H18.9c-3.2 0-5.9-2.6-5.9-5.9v-9.6c0-3.2 2.6-5.9 5.9-5.9h19.2M24.3 34.3c.2 0 .4 0 .6-.1l9-4.3c.5-.2.8-.7.8-1.2s-.3-1-.7-1.2l-9-4.6c-.2-.1-.4-.1-.6-.1-.8 0-1.4.6-1.4 1.4v8.9c0 .6.6 1.2 1.3 1.2m13.8-17.5H18.9c-3.8 0-6.9 3.1-6.9 6.9v9.6c0 3.8 3.1 6.9 6.9 6.9h19.3c3.8 0 6.9-3.1 6.9-6.9v-9.6c-.1-3.8-3.2-6.9-7-6.9zM24.3 33.3c-.2 0-.4-.2-.4-.4V24c0-.2.2-.4.4-.4h.2l9 4.6c.3.1.3.5 0 .7l-9 4.3c-.1.1-.1.1-.2.1z"/><path class="st0" d="M49.9 2c1.1 0 2.1.4 2.9 1.2l1.1 1.1C54.6 5 55 6 55 7.1V50c0 1.1-.4 2.1-1.2 2.8l-1.1 1.1c-.7.7-1.7 1.1-2.8 1.1H7.1C6 55 5 54.6 4.2 53.8l-1.1-1.1C2.4 52 2 51 2 49.9V7.1C2 6 2.4 5 3.2 4.2l1.1-1.1C5 2.4 6 2 7.1 2h42.8m0-1H7.1c-1.4 0-2.6.5-3.6 1.5l-1 1C1.5 4.5 1 5.7 1 7.1V50c0 1.3.5 2.6 1.5 3.5l1.1 1.1c.9.9 2.1 1.4 3.5 1.4H50c1.3 0 2.6-.5 3.5-1.5l1.1-1.1c.9-.9 1.5-2.2 1.5-3.5V7.1c0-1.3-.5-2.6-1.5-3.5l-1.1-1.1c-1-1-2.2-1.5-3.6-1.5z"/></g></svg>