<?xml version="1.0" encoding="utf-8"?>
<!-- Generator: Adobe Illustrator 20.1.0, SVG Export Plug-In . SVG Version: 6.00 Build 0)  -->
<svg version="1.1" id="_x2E_footer-ic" xmlns="http://www.w3.org/2000/svg" xmlns:xlink="http://www.w3.org/1999/xlink" x="0px"
	 y="0px" viewBox="0 0 57 57" style="enable-background:new 0 0 57 57;" xml:space="preserve">
<style type="text/css">
	.st0{fill:none;stroke:#00B339;stroke-miterlimit:10;}
	.st1{fill:#00B339;}
</style>
<g id="insta-in_1_">
	<g id="insta-in">
		<path class="st0" d="M35.5,12.9h-14c-4.8,0-8.6,3.9-8.6,8.6v14c0,4.8,3.9,8.6,8.6,8.6h14c4.8,0,8.6-3.9,8.6-8.6v-14
			C44.1,16.7,40.3,12.9,35.5,12.9L35.5,12.9z M41.4,35.5"/>
		<path class="st0" d="M28.5,20.4c-4.4,0-8.1,3.6-8.1,8.1c0,4.4,3.6,8.1,8.1,8.1c4.4,0,8.1-3.6,8.1-8.1
			C36.6,24.1,32.9,20.4,28.5,20.4L28.5,20.4z M28.5,33.8"/>
		<path class="st0" d="M36.9,18.1c-0.5,0-1.1,0.2-1.4,0.6c-0.4,0.4-0.6,0.9-0.6,1.4c0,0.5,0.2,1.1,0.6,1.4c0.4,0.4,0.9,0.6,1.4,0.6
			c0.5,0,1.1-0.2,1.4-0.6c0.4-0.4,0.6-0.9,0.6-1.4c0-0.5-0.2-1.1-0.6-1.4C38,18.3,37.4,18.1,36.9,18.1L36.9,18.1z M36.9,18.1"/>
	</g>
	<g>
		<path class="st1" d="M49.9,2C51,2,52,2.4,52.8,3.2l1.1,1.1C54.6,5,55,6,55,7.1v42.9c0,1.1-0.4,2.1-1.2,2.8l-1.1,1.1
			C52,54.6,51,55,49.9,55H7.1C6,55,5,54.6,4.2,53.8l-1.1-1.1C2.4,52,2,51,2,49.9V7.1C2,6,2.4,5,3.2,4.2l1.1-1.1C5,2.4,6,2,7.1,2
			H49.9 M49.9,1H7.1C5.7,1,4.5,1.5,3.5,2.5L2.5,3.5C1.5,4.5,1,5.7,1,7.1v42.9c0,1.3,0.5,2.6,1.5,3.5l1.1,1.1C4.5,55.5,5.7,56,7.1,56
			h42.9c1.3,0,2.6-0.5,3.5-1.5l1.1-1.1c0.9-0.9,1.5-2.2,1.5-3.5V7.1c0-1.3-0.5-2.6-1.5-3.5l-1.1-1.1C52.5,1.5,51.3,1,49.9,1L49.9,1z
			"/>
	</g>
</g>
</svg>
