<?xml version="1.0" encoding="utf-8"?>
<!-- Generator: Adobe Illustrator 22.0.1, SVG Export Plug-In . SVG Version: 6.00 Build 0)  -->
<svg version="1.1" id="Layer_1" xmlns="http://www.w3.org/2000/svg" xmlns:xlink="http://www.w3.org/1999/xlink" x="0px" y="0px"
	 viewBox="0 0 14 14" style="enable-background:new 0 0 14 14;" xml:space="preserve">
<style type="text/css">
	.st0{fill:#1859DD;}
</style>
<g>
	<path class="st0" d="M11.5,14h-9C1.1,14,0,12.9,0,11.5v-9C0,1.1,1.1,0,2.5,0h9C12.9,0,14,1.1,14,2.5v9C14,12.9,12.9,14,11.5,14z
		 M2.5,1C1.7,1,1,1.7,1,2.5v9C1,12.3,1.7,13,2.5,13h9c0.8,0,1.5-0.7,1.5-1.5v-9C13,1.7,12.3,1,11.5,1H2.5z"/>
</g>
<polygon class="st0" points="7.2,8.3 4.4,5.6 3,6.9 5.8,9.6 7.2,11 8.5,9.6 15,3.3 13.6,2 "/>
</svg>
