<?xml version="1.0" encoding="utf-8"?>
<!-- Generator: Adobe Illustrator 22.0.1, SVG Export Plug-In . SVG Version: 6.00 Build 0)  -->
<svg version="1.1" id="Layer_1" xmlns="http://www.w3.org/2000/svg" xmlns:xlink="http://www.w3.org/1999/xlink" x="0px" y="0px"
	 viewBox="0 0 20 20" style="enable-background:new 0 0 20 20;" xml:space="preserve">
<path style="fill:#FFFFFF;" d="M5.1,19.9l6-4.2h7.3c1.2,0,1.7-0.4,1.7-1.7v0V1.7C20,0.4,19.6,0,18.3,0H1.9C0.7,0,0,0.4,0,1.7v0v12.4
	c0,1.3,0.4,1.7,1.7,1.7h2.7v3.8c0,0.3,0.2,0.5,0.4,0.5C4.9,20,5,20,5.1,19.9z M5.8,3.9h8.4c0.5,0,0.8,0.4,0.8,0.9
	c0,0.5-0.4,0.9-0.8,0.9c0,0,0,0,0,0H5.8c-0.5,0-0.8-0.4-0.8-0.9C4.9,4.3,5.3,3.9,5.8,3.9C5.8,3.9,5.8,3.9,5.8,3.9z M5.8,7h8.4
	c0.5,0,0.8,0.4,0.8,0.9c0,0.5-0.4,0.9-0.8,0.9c0,0,0,0,0,0H5.8c-0.5,0-0.8-0.4-0.8-0.9C4.9,7.4,5.3,7,5.8,7z M5.8,10.1h5.3
	c0.5,0,0.8,0.4,0.8,0.9c0,0.5-0.4,0.9-0.8,0.9H5.8c-0.5,0-0.8-0.4-0.8-0.9C4.9,10.5,5.3,10.1,5.8,10.1z"/>
</svg>
