<svg id="Layer_1" xmlns="http://www.w3.org/2000/svg" viewBox="0 0 100 100"><style>.st0{fill:#e34c2f}</style><path class="st0" d="M50 952.4c-27.6 0-50 22.4-50 50s22.4 50 50 50 50-22.4 50-50-22.4-50-50-50zm0 5.5c24.6 0 44.4 19.9 44.4 44.4 0 24.6-19.9 44.4-44.4 44.4s-44.4-19.9-44.4-44.4 19.8-44.4 44.4-44.4zm-.3 16.6c-1.4.2-2.5 1.4-2.5 2.8v38.9c0 1.5 1.2 2.8 2.7 2.8 1.5 0 2.8-1.2 2.8-2.7v-39c0-1.5-1.2-2.8-2.7-2.8h-.3zm.3 48.7c-2.3 0-4.2 1.9-4.2 4.2 0 2.3 1.9 4.2 4.2 4.2s4.2-1.9 4.2-4.2c0-2.3-1.9-4.2-4.2-4.2z" transform="translate(0 -952.362)"/></svg>