<?xml version="1.0" encoding="utf-8"?>
<!-- Generator: Adobe Illustrator 22.0.1, SVG Export Plug-In . SVG Version: 6.00 Build 0)  -->
<svg version="1.1" id="Layer_1" xmlns="http://www.w3.org/2000/svg" xmlns:xlink="http://www.w3.org/1999/xlink" x="0px" y="0px"
	 viewBox="0 0 15 15" style="enable-background:new 0 0 15 15;" xml:space="preserve">
<style type="text/css">
	.st0{fill:#939EAB;}
</style>
<path class="st0" d="M15,0.8v13.3c0,0.5-0.4,0.8-0.8,0.8h-3.8V9.2h1.9l0.3-2.3h-2.2V5.5c0-0.7,0.2-1.1,1.1-1.1h1.2v-2
	c-0.2,0-0.9-0.1-1.7-0.1C9.2,2.3,8,3.3,8,5.3v1.7h-2v2.3h2V15H0.8C0.4,15,0,14.6,0,14.2V0.8C0,0.4,0.4,0,0.8,0h13.3
	C14.6,0,15,0.4,15,0.8z"/>
</svg>
