<svg id="Layer_1" xmlns="http://www.w3.org/2000/svg" viewBox="0 0 50 50"><style>.st0{fill:#ecbdb6}.st1{fill:#e34c2f}</style><path class="st0" d="M1.5 5.8h47.6L48.4.6 29 .4H1.5z"/><path class="st1" d="M1.1 952.4c-.6 0-1.1.6-1.1 1.1v4.5c0 .6.5 1.1 1.1 1.1h1.1v29.5c0 .6.5 1.1 1.1 1.1H15s-5.9 10.8-5.9 10.9-.1.3-.1.4c0 .6.5 1.1 1.1 1.1.4 0 .7-.2.9-.5 0-.1 6.6-12 6.6-12h6.1v11.4c0 .6.6 1.1 1.1 1.1s1.1-.5 1.1-1.1v-11.4h6.2s6.5 12 6.6 12c.2.3.5.5.9.5.6 0 1.1-.5 1.1-1.1 0-.1 0-.3-.1-.4-.1-.1-5.9-10.9-5.9-10.9h11.7c.6 0 1.1-.5 1.1-1.1v-29.5h1.1c.6 0 1.1-.5 1.1-1.1v-4.5c0-.6-.5-1.1-1.1-1.1H1.1zm1.2 2.2h45.5v2.3H2.3v-2.3zm2.2 4.6h40.9v28.4H4.5v-28.4zm23.3 7.9c0 .5.5 1.1 1.1 1.1h5.3L25 978l-4.9-4.9c-.4-.4-1.1-.4-1.6 0l-6.3 5.7c-.5.4-.5 1.2-.1 1.6s1.2.5 1.6.1l5.5-4.9 4.9 4.9c.4.4 1.2.4 1.6 0l10-10.5v5.1c0 .6.5 1.2 1.1 1.2s1.1-.5 1.1-1.2v-8c0-.6-.5-1.1-1.1-1.1h-8c-.5 0-1 .6-1 1.1z" transform="translate(0 -952.362)"/></svg>