<?xml version="1.0" encoding="utf-8"?>
<!-- Generator: Adobe Illustrator 22.0.1, SVG Export Plug-In . SVG Version: 6.00 Build 0)  -->
<svg version="1.1" id="Layer_1" xmlns="http://www.w3.org/2000/svg" xmlns:xlink="http://www.w3.org/1999/xlink" x="0px" y="0px"
	 viewBox="0 0 50 50" style="enable-background:new 0 0 50 50;" xml:space="preserve">
<style type="text/css">
	.st0{fill:#D0ACEA;}
	.st1{fill:#921AD8;}
</style>
<polygon class="st0" points="1.1,7.6 7.3,7.6 7.3,42.4 32.6,42.4 32,49.3 1.1,48.9 "/>
<polygon class="st0" points="43,7.6 48.7,7.6 49.3,42.2 43,42.2 "/>
<path class="st1" d="M45.8,0c-2.3,0-4.2,1.8-4.2,4.1v40.3c0,0.3,0.1,0.6,0.3,0.8l2.6,4c0.3,0.5,0.8,0.8,1.3,0.8
	c0.5,0,1.1-0.3,1.3-0.8l2.6-4c0.2-0.3,0.3-0.5,0.3-0.9V4.1C50,1.8,48.1,0,45.8,0z M43.6,8.2h4.5v33.5h-4.5V8.2z M45.8,1.9
	c1.3,0,2.2,1,2.2,2.2v2.2h-4.5V4.1C43.6,2.9,44.6,1.9,45.8,1.9z M45.8,47.8l-2.2-3.5v-0.7h4.5v0.7L45.8,47.8z"/>
<path class="st1" d="M18.3,9.5h-5.8c-0.5,0-1-0.4-1-0.9c0-0.5,0.4-0.9,1-0.9h5.8c0.5,0,1,0.4,1,0.9C19.2,9.1,18.8,9.5,18.3,9.5z"/>
<path class="st1" d="M33.7,9.5H22.8c-0.5,0-1-0.4-1-0.9c0-0.5,0.4-0.9,1-0.9h10.9c0.5,0,1,0.4,1,0.9C34.6,9.1,34.2,9.5,33.7,9.5z"/>
<path class="st1" d="M18.3,14.5h-5.8c-0.5,0-1-0.4-1-0.9c0-0.5,0.4-0.9,1-0.9h5.8c0.5,0,1,0.4,1,0.9C19.2,14.1,18.8,14.5,18.3,14.5z
	"/>
<path class="st1" d="M33.7,14.5H22.8c-0.5,0-1-0.4-1-0.9c0-0.5,0.4-0.9,1-0.9h10.9c0.5,0,1,0.4,1,0.9C34.6,14.1,34.2,14.5,33.7,14.5
	z"/>
<path class="st1" d="M18.3,24.7h-5.8c-0.5,0-1-0.4-1-0.9s0.4-0.9,1-0.9h5.8c0.5,0,1,0.4,1,0.9S18.8,24.7,18.3,24.7z"/>
<path class="st1" d="M33.7,24.7H22.8c-0.5,0-1-0.4-1-0.9s0.4-0.9,1-0.9h10.9c0.5,0,1,0.4,1,0.9S34.2,24.7,33.7,24.7z"/>
<path class="st1" d="M18.3,29.7h-5.8c-0.5,0-1-0.4-1-0.9c0-0.5,0.4-0.9,1-0.9h5.8c0.5,0,1,0.4,1,0.9C19.2,29.3,18.8,29.7,18.3,29.7z
	"/>
<path class="st1" d="M33.7,29.7H22.8c-0.5,0-1-0.4-1-0.9c0-0.5,0.4-0.9,1-0.9h10.9c0.5,0,1,0.4,1,0.9C34.6,29.3,34.2,29.7,33.7,29.7
	z"/>
<path class="st1" d="M38.8,0H7.4c-0.5,0-1,0.4-1,0.9v5.4H1c-0.5,0-1,0.4-1,0.9V49c0,0.5,0.4,0.9,1,0.9h31.4c0.5,0,1-0.4,1-0.9v-5.4
	h5.4c0.5,0,1-0.4,1-0.9V1C39.7,0.4,39.3,0,38.8,0z M31.4,48H1.9V8.2h4.5v34.5c0,0.5,0.4,0.9,1,0.9h24V48z M37.8,41.7
	c-6.6,0-23.8,0-29.5,0c0-5,0-36,0-39.8h29.5V41.7z"/>
</svg>
