<?xml version="1.0" encoding="utf-8"?>
<!-- Generator: Adobe Illustrator 22.0.1, SVG Export Plug-In . SVG Version: 6.00 Build 0)  -->
<svg version="1.1" id="Capa_1" xmlns="http://www.w3.org/2000/svg" xmlns:xlink="http://www.w3.org/1999/xlink" x="0px" y="0px"
	 viewBox="0 0 15 11" style="enable-background:new 0 0 15 11;" xml:space="preserve">
<style type="text/css">
	.st0{fill:#939EAB;}
</style>
<g>
	<path class="st0" d="M14.7,4.6l-2.6-3.7c-0.3-0.5-1-0.9-1.6-0.9H1C0.4,0,0,0.4,0,1v9c0,0.6,0.4,1,1,1h9.6c0.6,0,1.3-0.4,1.6-0.9
		l2.6-3.7C15.1,5.9,15.1,5.1,14.7,4.6z M14.1,5.9l-2.6,3.6c-0.2,0.3-0.6,0.5-0.9,0.5H1.3C1.1,10,1,9.9,1,9.7V1.3C1,1.1,1.1,1,1.3,1
		h9.3c0.3,0,0.7,0.2,0.9,0.5l2.6,3.6C14.2,5.3,14.2,5.7,14.1,5.9z"/>
</g>
</svg>
