<?xml version="1.0" encoding="utf-8"?>
<!-- Generator: Adobe Illustrator 22.0.1, SVG Export Plug-In . SVG Version: 6.00 Build 0)  -->
<svg version="1.1" id="Layer_1" xmlns="http://www.w3.org/2000/svg" xmlns:xlink="http://www.w3.org/1999/xlink" x="0px" y="0px"
	 viewBox="0 0 50 50" style="enable-background:new 0 0 50 50;" xml:space="preserve">
<style type="text/css">
	.st0{fill:#939EAB;}
</style>
<path class="st0" d="M25,50c-3.4,0-6.4-2.4-7.1-5.8l-0.1-0.3H7.2C4.9,43.9,3,42,3,39.7c0-1.4,0.7-2.7,1.8-3.4
	c1.6-1,4.2-4.4,4.2-15.7c0-6.9,1.6-8.7,2.6-9.7c0.2-0.2,0.4-0.4,0.5-0.6c1.7-2.4,4.3-4.1,7.5-5.3c0.6-0.2,1.4-0.5,2.3-0.7
	C23,4.1,24,4,25,4c1,0,2,0.1,3,0.3l0.6,0.1l0.1-0.3C30,1.6,32.6,0,35.5,0c4.2,0,7.7,3.4,7.7,7.6c0,2.4-1.2,4.7-3.1,6.1l-0.2,0.2
	l0.1,0.3c0.7,1.9,1,4.1,1,6.4c0,10.6,2.3,14.4,4.2,15.7c1.2,0.8,1.9,2.1,1.9,3.5c0,2.3-1.9,4.2-4.2,4.2H32.2l-0.1,0.3
	C31.4,47.6,28.4,50,25,50z M19.6,44.5c0.7,2.3,3,3.9,5.4,3.9s4.6-1.6,5.4-3.9l0.2-0.5H19.5L19.6,44.5z M5.5,37.9
	c-0.6,0.5-0.9,1.2-0.9,1.9c0,1.4,1.2,2.5,2.6,2.5h35.6c1.4,0,2.5-1.1,2.7-2.5c0-0.7-0.3-1.4-0.9-1.9l-0.1-0.1H5.6L5.5,37.9z M21.6,6
	c-5,1.4-10.9,5-10.9,14.6c0,6.8-1,11.9-3,15l-0.4,0.6h35.3l-0.4-0.6c-2-2.9-2.9-7.9-2.9-14.9c0-2.1-0.3-3.9-0.8-5.6l-0.1-0.4
	L38,14.8c-0.8,0.3-1.6,0.4-2.4,0.4c-4.2,0-7.7-3.4-7.7-7.6c0-0.4,0-0.8,0.1-1.2L28,6l-0.4-0.1c-0.8-0.2-1.7-0.3-2.6-0.3
	c-1.7,0-3,0.3-3.3,0.4L21.6,6z M35.5,1.6c-2.1,0-4.1,1.1-5.2,2.9c-0.5,0.8-0.8,1.6-0.9,2.5c0,0.2,0,0.4,0,0.6c0,3.3,2.7,6,6.1,6
	c0.6,0,1.2-0.1,1.7-0.3c0.9-0.3,1.6-0.7,2.3-1.3c1.3-1.1,2.1-2.8,2.1-4.5C41.6,4.3,38.9,1.6,35.5,1.6z"/>
</svg>
