<svg id="Layer_1" xmlns="http://www.w3.org/2000/svg" viewBox="0 0 24 14"><style>.st0{fill:#d7deea}</style><title>Artboard 5</title><path class="st0" d="M12 14C5.5 14 .3 7.5.1 7.2c-.1-.1-.1-.3 0-.5C.3 6.5 5.5 0 12 0s11.7 6.5 11.9 6.7c.1.1.1.3 0 .5-.2.3-5.4 6.8-11.9 6.8zM.8 7c1 1.2 5.7 6.3 11.2 6.3S22.2 8.2 23.2 7C22.2 5.8 17.5.8 12 .8 6.5.8 1.9 5.8.8 7z"/><path class="st0" d="M15 4.8c.2.6 0 1.2-.6 1.4-.5.2-1.1 0-1.4-.6-.2-.6 0-1.2.6-1.4.3-.2.7-.1 1 .1-1.5-1.5-3.8-1.6-5.3-.1s-1.5 4-.1 5.5c1.5 1.5 3.8 1.6 5.3.1 1.4-1.3 1.6-3.5.5-5z"/></svg>