<?xml version="1.0" encoding="utf-8"?>
<!-- Generator: Adobe Illustrator 22.0.1, SVG Export Plug-In . SVG Version: 6.00 Build 0)  -->
<svg version="1.1" id="Layer_1" xmlns="http://www.w3.org/2000/svg" xmlns:xlink="http://www.w3.org/1999/xlink" x="0px" y="0px"
	 viewBox="0 0 15 15" style="enable-background:new 0 0 15 15;" xml:space="preserve">
<style type="text/css">
	.st0{fill:#E1E6ED;}
	.st1{fill:#929EAB;}
</style>
<path class="st0" d="M7.5,0.8c-3.7,0-6.7,3-6.7,6.7c0,1.9,0.8,3.7,2.2,4.9c0.2-2,1.5-3.5,3.1-3.5h2.5c1.6,0,3,1.6,3.1,3.7
	c1.4-1.2,2.4-3.1,2.4-5.1C14.2,3.8,11.2,0.8,7.5,0.8z M7.4,8.3c-1.5,0-2.7-1.2-2.7-2.7c0-1.5,1.2-2.7,2.7-2.7c1.5,0,2.7,1.2,2.7,2.7
	C10.1,7.1,8.9,8.3,7.4,8.3z"/>
<path class="st1" d="M7.4,8.4c-1.5,0-2.8-1.3-2.8-2.8s1.3-2.8,2.8-2.8c1.5,0,2.8,1.3,2.8,2.8S8.9,8.4,7.4,8.4z M7.4,3.7
	c-1,0-1.9,0.8-1.9,1.9s0.8,1.9,1.9,1.9s1.9-0.8,1.9-1.9S8.4,3.7,7.4,3.7z"/>
<path class="st1" d="M7.5,15C3.4,15,0,11.6,0,7.5S3.4,0,7.5,0c2,0,3.9,0.8,5.3,2.2C14.2,3.6,15,5.5,15,7.5C15,11.6,11.6,15,7.5,15z
	 M6.1,9.8c-1.2,0-2.3,1.5-2.3,3.2c1.1,0.7,2.3,1.1,3.7,1.1c1.2,0,2.4-0.3,3.5-1c0-1.9-1.1-3.3-2.3-3.3H6.1z M8.7,8.8
	c1.6,0,3,1.5,3.2,3.6c1.4-1.2,2.2-3,2.2-4.9c0-3.6-2.9-6.6-6.6-6.6S0.9,3.9,0.9,7.5c0,1.8,0.7,3.5,2,4.7c0.3-2,1.6-3.4,3.2-3.4H8.7z
	"/>
</svg>
