<svg id="Layer_1" xmlns="http://www.w3.org/2000/svg" viewBox="0 0 50 50"><style>.st0{fill:#d0acea}.st1{fill:#921ad8}</style><path class="st0" d="M1.1 7.6h6.2v34.8h25.3l-.6 6.9-30.9-.4zm41.9 0h5.7l.6 34.6H43z"/><path class="st1" d="M45.8 0c-2.3 0-4.2 1.8-4.2 4.1v40.3c0 .3.1.6.3.8l2.6 4c.3.5.8.8 1.3.8s1.1-.3 1.3-.8l2.6-4c.2-.3.3-.5.3-.9V4.1C50 1.8 48.1 0 45.8 0zm-2.2 8.2h4.5v33.5h-4.5V8.2zm2.2-6.3c1.3 0 2.2 1 2.2 2.2v2.2h-4.5V4.1c.1-1.2 1.1-2.2 2.3-2.2zm0 45.9l-2.2-3.5v-.7h4.5v.7l-2.3 3.5zM18.3 9.5h-5.8c-.5 0-1-.4-1-.9s.4-.9 1-.9h5.8c.5 0 1 .4 1 .9-.1.5-.5.9-1 .9zm15.4 0H22.8c-.5 0-1-.4-1-.9s.4-.9 1-.9h10.9c.5 0 1 .4 1 .9-.1.5-.5.9-1 .9zm-15.4 5h-5.8c-.5 0-1-.4-1-.9s.4-.9 1-.9h5.8c.5 0 1 .4 1 .9-.1.5-.5.9-1 .9zm15.4 0H22.8c-.5 0-1-.4-1-.9s.4-.9 1-.9h10.9c.5 0 1 .4 1 .9-.1.5-.5.9-1 .9zM18.3 24.7h-5.8c-.5 0-1-.4-1-.9s.4-.9 1-.9h5.8c.5 0 1 .4 1 .9s-.5.9-1 .9zm15.4 0H22.8c-.5 0-1-.4-1-.9s.4-.9 1-.9h10.9c.5 0 1 .4 1 .9s-.5.9-1 .9zm-15.4 5h-5.8c-.5 0-1-.4-1-.9s.4-.9 1-.9h5.8c.5 0 1 .4 1 .9-.1.5-.5.9-1 .9zm15.4 0H22.8c-.5 0-1-.4-1-.9s.4-.9 1-.9h10.9c.5 0 1 .4 1 .9-.1.5-.5.9-1 .9z"/><path class="st1" d="M38.8 0H7.4c-.5 0-1 .4-1 .9v5.4H1c-.5 0-1 .4-1 .9V49c0 .5.4.9 1 .9h31.4c.5 0 1-.4 1-.9v-5.4h5.4c.5 0 1-.4 1-.9V1c-.1-.6-.5-1-1-1zm-7.4 48H1.9V8.2h4.5v34.5c0 .5.4.9 1 .9h24V48zm6.4-6.3H8.3V1.9h29.5v39.8z"/></svg>