<svg id="Layer_1" xmlns="http://www.w3.org/2000/svg" viewBox="0 0 15 15"><style>.st0{fill:#e1e6ed}.st1{fill:#929eab}</style><path class="st0" d="M7.5.8C3.8.8.8 3.8.8 7.5c0 1.9.8 3.7 2.2 4.9.2-2 1.5-3.5 3.1-3.5h2.5c1.6 0 3 1.6 3.1 3.7 1.4-1.2 2.4-3.1 2.4-5.1.1-3.7-2.9-6.7-6.6-6.7zm-.1 7.5c-1.5 0-2.7-1.2-2.7-2.7 0-1.5 1.2-2.7 2.7-2.7 1.5 0 2.7 1.2 2.7 2.7 0 1.5-1.2 2.7-2.7 2.7z"/><path class="st1" d="M7.4 8.4c-1.5 0-2.8-1.3-2.8-2.8s1.3-2.8 2.8-2.8c1.5 0 2.8 1.3 2.8 2.8S8.9 8.4 7.4 8.4zm0-4.7c-1 0-1.9.8-1.9 1.9s.8 1.9 1.9 1.9 1.9-.8 1.9-1.9-.9-1.9-1.9-1.9z"/><path class="st1" d="M7.5 15C3.4 15 0 11.6 0 7.5S3.4 0 7.5 0c2 0 3.9.8 5.3 2.2C14.2 3.6 15 5.5 15 7.5c0 4.1-3.4 7.5-7.5 7.5zM6.1 9.8c-1.2 0-2.3 1.5-2.3 3.2 1.1.7 2.3 1.1 3.7 1.1 1.2 0 2.4-.3 3.5-1 0-1.9-1.1-3.3-2.3-3.3H6.1zm2.6-1c1.6 0 3 1.5 3.2 3.6 1.4-1.2 2.2-3 2.2-4.9 0-3.6-2.9-6.6-6.6-6.6S.9 3.9.9 7.5c0 1.8.7 3.5 2 4.7.3-2 1.6-3.4 3.2-3.4h2.6z"/></svg>