<svg id="Layer_1" xmlns="http://www.w3.org/2000/svg" viewBox="0 0 50 50"><style>.st0{fill:#9cb9e8}.st1{fill:#1859dd}</style><title>21</title><path class="st0" d="M18.1 32.8l4.2-1.3 2.6-3.4 2.7 3.5 4.3 1.2-1.1 1.9-1.7 2.1.2 2.4.1 1.4h-1.8l-1.6-.7h-2.2l-2.7 1.2-1-.8.9-3.5-2.5-1.8zM10.5 1.2l7.1 16.6 14.8.3 7.1-16.9H29.3L25.1 8l-4.2-6.8z"/><path class="st1" d="M31.8 17.1h-2.6l-3.2-7L29.7 2h8.9l-6.8 15.1zm-5.7 3c0 .6-.5 1.1-1.1 1.1s-1-.5-1-1.1c0-.6.5-1.1 1.1-1.1.5 0 1 .5 1 1.1zm6.4 7.9c.2.2.5.3.7.3s.5-.1.7-.3l.6-.6c1.7 2 2.8 4.4 3 7.1h-.8c-.6 0-1 .5-1 1 0 .6.5 1 1 1h.8c-.2 2.7-1.3 5.2-3 7.2l-.7-.7c-.4-.4-1-.4-1.4 0-.4.4-.4 1 0 1.4l.6.6c-2 1.7-4.4 2.8-7.1 3v-.9c0-.6-.5-1-1-1-.6 0-1 .5-1 1v.9c-2.7-.2-5.2-1.3-7.1-3l.6-.6c.4-.4.4-1 0-1.4-.4-.4-1-.4-1.4 0l-.6.6c-1.7-2-2.8-4.4-3-7.2h.8c.6 0 1-.5 1-1 0-.6-.5-1-1-1h-.8c.2-2.7 1.3-5.2 3-7.1l.6.6c.2.2.5.3.7.3.3 0 .5-.1.7-.3.4-.4.4-1 0-1.4l-.6-.5c2-1.7 4.4-2.8 7.1-3v.8c0 .6.5 1 1 1 .6 0 1-.5 1-1V23c2.7.2 5.2 1.3 7.1 3l-.6.6c-.3.4-.3 1 .1 1.4zM11.4 2h8.9l3.8 8.5 3 6.6h-8.9L11.4 2zM40.9.5c-.2-.3-.5-.5-.8-.5H29c-.4 0-.8.2-.9.6l-3.1 7L21.8.5c-.1-.3-.5-.5-.9-.5h-11c-.3 0-.6.2-.8.5-.2.3-.2.7-.1 1l7 15.7h-.6c-.6-.1-1 .4-1 1s.5 1 1 1h6.7c-.1.4-.2.7-.2 1.1 0 .5.1.9.3 1.3-6.7 1.3-11.7 7.2-11.7 14.2 0 8 6.5 14.4 14.4 14.4s14.4-6.5 14.4-14.4c0-7-5.1-12.9-11.7-14.2.2-.4.3-.9.3-1.3s-.1-.8-.2-1.1h6.7c.6 0 1-.5 1-1 0-.6-.5-1-1-1h-.6l7-15.7c.3-.4.3-.8.1-1z"/><path class="st1" d="M32.2 34.9c.6-.6.8-1.4.6-2.2-.3-.8-.9-1.3-1.7-1.4l-2.8-.4c-.1 0-.1-.1-.1-.1l-1.3-2.5c-.4-.7-1.1-1.2-1.9-1.2s-1.5.5-1.9 1.2l-1.3 2.5c0 .1-.1.1-.1.1l-2.7.4c-.8.1-1.5.7-1.7 1.4-.3.8-.1 1.6.6 2.2l2 2c.1.1.1.1.1.2l-.5 2.8c-.2.8.2 1.6.9 2.1s1.5.6 2.2.2l2.5-1.3h.2l2.5 1.3c.3.2.7.3 1 .3.5 0 .9-.2 1.2-.4.7-.5 1-1.3.9-2.1l-.8-3c0-.1 0-.1.1-.2l2-1.9zm-3.4.6c-.5.5-.7 1.2-.6 1.9l.5 2.8s0 .1-.1.2-.2 0-.2 0L26 39c-.3-.2-.7-.3-1-.3-.4 0-.7.1-1 .3l-2.5 1.3c-.1 0-.1.1-.2 0s-.1-.1-.1-.2l.5-2.8c.1-.7-.1-1.4-.6-1.9l-2-2s-.1-.1-.1-.2l.1-.1 2.8-.4c.7-.1 1.3-.5 1.6-1.2l1.3-2.6s.1-.1.2-.1.1.1.2.1l1.3 2.6c.3.6.9 1.1 1.6 1.2l2.8.4s.1 0 .1.1c.1.1 0 .2-.1.2l-2.1 2.1z"/></svg>