<?xml version="1.0" encoding="utf-8"?>
<!-- Generator: Adobe Illustrator 22.0.1, SVG Export Plug-In . SVG Version: 6.00 Build 0)  -->
<svg version="1.1" id="Layer_1" xmlns="http://www.w3.org/2000/svg" xmlns:xlink="http://www.w3.org/1999/xlink" x="0px" y="0px"
	 viewBox="0 0 12 12" style="enable-background:new 0 0 12 12;" xml:space="preserve">
<style type="text/css">
	.st0{fill:#939EAB;}
</style>
<path class="st0" d="M11.6,0.6L9.1,0C8.9,0,8.6,0.1,8.5,0.3L7.4,3c-0.1,0.2,0,0.5,0.2,0.7l1.4,1.2C8.1,6.6,6.6,8.1,4.8,8.9L3.6,7.5
	C3.5,7.3,3.2,7.3,3,7.4L0.3,8.5C0.1,8.6,0,8.9,0,9.1l0.6,2.4C0.6,11.8,0.9,12,1.1,12C7.1,12,12,7.1,12,1.1C12,0.9,11.8,0.6,11.6,0.6
	z"/>
</svg>
