<?xml version="1.0" encoding="utf-8"?>
<!-- Generator: Adobe Illustrator 22.0.1, SVG Export Plug-In . SVG Version: 6.00 Build 0)  -->
<svg version="1.1"
	 id="Layer_1" xmlns:cc="http://creativecommons.org/ns#" xmlns:dc="http://purl.org/dc/elements/1.1/" xmlns:inkscape="http://www.inkscape.org/namespaces/inkscape" xmlns:rdf="http://www.w3.org/1999/02/22-rdf-syntax-ns#" xmlns:sodipodi="http://sodipodi.sourceforge.net/DTD/sodipodi-0.dtd" xmlns:svg="http://www.w3.org/2000/svg"
	 xmlns="http://www.w3.org/2000/svg" xmlns:xlink="http://www.w3.org/1999/xlink" x="0px" y="0px" viewBox="0 0 50 50"
	 style="enable-background:new 0 0 50 50;" xml:space="preserve">
<style type="text/css">
	.st0{fill:#ECBDB6;}
	.st1{fill:#E34C2F;}
</style>
<polygon class="st0" points="1.5,5.8 49.1,5.8 48.4,0.6 29,0.4 1.5,0.4 "/>
<g transform="translate(0,-952.36218)">
	<path class="st1" d="M1.1,952.4c-0.6,0-1.1,0.6-1.1,1.1v4.5c0,0.6,0.5,1.1,1.1,1.1h1.1v29.5c0,0.6,0.5,1.1,1.1,1.1h11.7
		c0,0-5.9,10.8-5.9,10.9s-0.1,0.3-0.1,0.4c0,0.6,0.5,1.1,1.1,1.1c0.4,0,0.7-0.2,0.9-0.5c0-0.1,6.6-12,6.6-12h6.1v11.4
		c0,0.6,0.6,1.1,1.1,1.1s1.1-0.5,1.1-1.1v-11.4h6.2c0,0,6.5,12,6.6,12c0.2,0.3,0.5,0.5,0.9,0.5c0.6,0,1.1-0.5,1.1-1.1
		c0-0.1,0-0.3-0.1-0.4c-0.1-0.1-5.9-10.9-5.9-10.9h11.7c0.6,0,1.1-0.5,1.1-1.1v-29.5h1.1c0.6,0,1.1-0.5,1.1-1.1v-4.5
		c0-0.6-0.5-1.1-1.1-1.1H1.1z M2.3,954.6h45.5v2.3H2.3V954.6z M4.5,959.2h40.9v28.4H4.5V959.2z M27.8,967.1c0,0.5,0.5,1.1,1.1,1.1
		c1.8,0,5.3,0,5.3,0L25,978l-4.9-4.9c-0.4-0.4-1.1-0.4-1.6,0l-6.3,5.7c-0.5,0.4-0.5,1.2-0.1,1.6s1.2,0.5,1.6,0.1l5.5-4.9l4.9,4.9
		c0.4,0.4,1.2,0.4,1.6,0l10-10.5v5.1c0,0.6,0.5,1.2,1.1,1.2s1.1-0.5,1.1-1.2v-8c0-0.6-0.5-1.1-1.1-1.1h-8
		C28.3,966,27.8,966.6,27.8,967.1z"/>
</g>
</svg>
