<?xml version="1.0" encoding="utf-8"?>
<!-- Generator: Adobe Illustrator 22.0.1, SVG Export Plug-In . SVG Version: 6.00 Build 0)  -->
<svg version="1.1" xmlns="http://www.w3.org/2000/svg" xmlns:xlink="http://www.w3.org/1999/xlink" x="0px" y="0px"
	 viewBox="0 0 15 15" style="enable-background:new 0 0 15 15;" xml:space="preserve">
<g>
	<g>
		<path style="fill:#939EAB" d="M7.5,0C3.4,0,0,3.4,0,7.5C0,11.6,3.4,15,7.5,15c4.1,0,7.5-3.4,7.5-7.5C15,3.4,11.6,0,7.5,0z M7.5,13.8
			C4,13.8,1.2,11,1.2,7.5C1.2,4,4,1.2,7.5,1.2s6.3,2.8,6.3,6.3C13.8,11,11,13.8,7.5,13.8z"/>
		<path style="fill:#939EAB" d="M8.1,7.3V3c0-0.3-0.3-0.6-0.6-0.6C7.2,2.4,6.9,2.7,6.9,3v4.5C6.9,7.7,7,7.9,7.1,8c0,0,0,0,0,0l2.3,2.6
			c0.1,0.1,0.3,0.2,0.5,0.2c0.1,0,0.3-0.1,0.4-0.2c0.3-0.2,0.3-0.6,0.1-0.9L8.1,7.3z"/>
	</g>
</g>
</svg>
