<?xml version="1.0" encoding="utf-8"?>
<!-- Generator: Adobe Illustrator 22.0.1, SVG Export Plug-In . SVG Version: 6.00 Build 0)  -->
<svg version="1.1" id="Layer_1" xmlns="http://www.w3.org/2000/svg" xmlns:xlink="http://www.w3.org/1999/xlink" x="0px" y="0px"
	 viewBox="0 0 15 15" style="enable-background:new 0 0 15 15;" xml:space="preserve">
<style type="text/css">
	.st0{fill:#939EAB;}
</style>
<path class="st0" d="M13.5,4.4c0,0.1,0,0.3,0,0.4c0,4.1-3.1,8.7-8.7,8.7c-1.7,0-3.4-0.5-4.7-1.4c0.2,0,0.5,0,0.7,0
	c1.4,0,2.8-0.5,3.8-1.3c-1.4,0-2.5-0.9-2.9-2.1c0.2,0,0.4,0,0.6,0c0.3,0,0.6,0,0.8-0.1c-1.4-0.3-2.5-1.5-2.5-3v0
	C1,5.9,1.5,6.1,2,6.1C1.2,5.5,0.6,4.6,0.6,3.5C0.6,3,0.8,2.4,1,2c1.5,1.9,3.8,3.1,6.3,3.2c0-0.2-0.1-0.5-0.1-0.7
	c0-1.7,1.4-3.1,3.1-3.1c0.9,0,1.7,0.4,2.2,1c0.7-0.1,1.4-0.4,2-0.7c-0.2,0.7-0.7,1.3-1.4,1.7c0.6-0.1,1.2-0.2,1.8-0.5
	C14.6,3.5,14.1,4,13.5,4.4L13.5,4.4z"/>
</svg>
