<?xml version="1.0" encoding="utf-8"?>
<!-- Generator: Adobe Illustrator 22.0.1, SVG Export Plug-In . SVG Version: 6.00 Build 0)  -->
<svg version="1.1" id="Layer_1" xmlns="http://www.w3.org/2000/svg" xmlns:xlink="http://www.w3.org/1999/xlink" x="0px" y="0px"
	 viewBox="0 0 14 14" style="enable-background:new 0 0 14 14;" xml:space="preserve">
<style type="text/css">
	.st0{fill:#929EAB;}
</style>
<path class="st0" d="M13.2,14C13.2,14,13.2,14,13.2,14l-3.6-3.6l-0.3,0.2c-1.1,0.7-2.2,1.1-3.4,1.1c-3.3,0-6-2.7-6-5.9
	C0,2.7,2.7,0,5.8,0c3.2,0,5.8,2.7,5.8,5.8c0,1.3-0.4,2.4-1.1,3.3l-0.2,0.3l3.6,3.5c0,0,0.1,0.2,0,0.3L13.2,14L13.2,14z M5.8,1.3
	c-2.6,0-4.7,2.1-4.7,4.6c0,2.6,2.1,4.6,4.7,4.6s4.7-2.1,4.7-4.6C10.5,3.4,8.4,1.3,5.8,1.3z"/>
</svg>
