<?xml version="1.0" encoding="utf-8"?>
<!-- Generator: Adobe Illustrator 22.0.1, SVG Export Plug-In . SVG Version: 6.00 Build 0)  -->
<svg version="1.1" id="Layer_1" xmlns="http://www.w3.org/2000/svg" xmlns:xlink="http://www.w3.org/1999/xlink" x="0px" y="0px"
	 viewBox="0 0 15 15" style="enable-background:new 0 0 15 15;" xml:space="preserve">
<style type="text/css">
	.st0{fill:#939EAB;}
</style>
<path class="st0" d="M14.2,9c0.1-0.5,0.2-1,0.2-1.5c0-3.8-3.1-6.9-6.9-6.9C7,0.6,6.5,0.7,6,0.8C5.4,0.3,4.6,0,3.8,0
	C1.7,0,0,1.7,0,3.8C0,4.6,0.3,5.4,0.8,6C0.7,6.5,0.6,7,0.6,7.5c0,3.8,3.1,6.9,6.9,6.9c0.5,0,1-0.1,1.5-0.2c0.6,0.5,1.4,0.8,2.3,0.8
	c2.1,0,3.8-1.7,3.8-3.8C15,10.4,14.7,9.6,14.2,9L14.2,9z M7.7,12c-2.2,0-4-1-4-2.2c0-0.5,0.3-1,1-1c1,0,1.1,1.5,3,1.5
	C8.5,10.3,9,10,9,9.5c0-0.6-0.5-0.7-1.4-0.9C5.5,8,3.7,7.8,3.7,5.6c0-2,2-2.7,3.7-2.7c1.8,0,3.7,0.7,3.7,1.9c0,0.6-0.4,1.1-1,1.1
	c-0.9,0-1-1.1-2.5-1.1c-0.9,0-1.4,0.2-1.4,0.8c0,0.7,0.7,0.7,2.3,1.1c1.4,0.3,3,0.9,3,2.6C11.5,11.1,9.5,12,7.7,12L7.7,12z"/>
</svg>
