<?xml version="1.0" encoding="utf-8"?>
<!-- Generator: Adobe Illustrator 22.0.1, SVG Export Plug-In . SVG Version: 6.00 Build 0)  -->
<svg version="1.1" id="Layer_1" xmlns="http://www.w3.org/2000/svg" xmlns:xlink="http://www.w3.org/1999/xlink" x="0px" y="0px"
	 viewBox="0 0 50 50" style="enable-background:new 0 0 50 50;" xml:space="preserve">
<style type="text/css">
	.st0{fill:#9CB9E8;}
	.st1{fill:#1859DD;}
</style>
<title>21</title>
<polygon class="st0" points="18.1,32.8 22.3,31.5 24.9,28.1 27.6,31.6 31.9,32.8 30.8,34.7 29.1,36.8 29.3,39.2 29.4,40.6 
	27.6,40.6 26,39.9 23.8,39.9 21.1,41.1 20.1,40.3 21,36.8 18.5,35 "/>
<polygon class="st0" points="10.5,1.2 17.6,17.8 32.4,18.1 39.5,1.2 29.3,1.2 25.1,8 20.9,1.2 "/>
<path class="st1" d="M31.8,17.1h-2.6l-3.2-7L29.7,2h8.9L31.8,17.1z M26.1,20.1c0,0.6-0.5,1.1-1.1,1.1S24,20.7,24,20.1
	c0-0.6,0.5-1.1,1.1-1.1C25.6,19,26.1,19.5,26.1,20.1L26.1,20.1z M32.5,28c0.2,0.2,0.5,0.3,0.7,0.3s0.5-0.1,0.7-0.3l0.6-0.6
	c1.7,2,2.8,4.4,3,7.1h-0.8c-0.6,0-1,0.5-1,1c0,0.6,0.5,1,1,1h0.8c-0.2,2.7-1.3,5.2-3,7.2L33.8,43c-0.4-0.4-1-0.4-1.4,0
	c-0.4,0.4-0.4,1,0,1.4l0.6,0.6c-2,1.7-4.4,2.8-7.1,3v-0.9c0-0.6-0.5-1-1-1c-0.6,0-1,0.5-1,1V48c-2.7-0.2-5.2-1.3-7.1-3l0.6-0.6
	c0.4-0.4,0.4-1,0-1.4c-0.4-0.4-1-0.4-1.4,0l-0.6,0.6c-1.7-2-2.8-4.4-3-7.2h0.8c0.6,0,1-0.5,1-1c0-0.6-0.5-1-1-1h-0.8
	c0.2-2.7,1.3-5.2,3-7.1l0.6,0.6c0.2,0.2,0.5,0.3,0.7,0.3c0.3,0,0.5-0.1,0.7-0.3c0.4-0.4,0.4-1,0-1.4l-0.6-0.5c2-1.7,4.4-2.8,7.1-3
	v0.8c0,0.6,0.5,1,1,1c0.6,0,1-0.5,1-1v-0.8c2.7,0.2,5.2,1.3,7.1,3l-0.6,0.6C32.1,27,32.1,27.6,32.5,28L32.5,28z M11.4,2h8.9l3.8,8.5
	l0,0l3,6.6h-8.9L11.4,2z M40.9,0.5C40.7,0.2,40.4,0,40.1,0H29c-0.4,0-0.8,0.2-0.9,0.6L25,7.6l-3.2-7.1C21.7,0.2,21.3,0,20.9,0h-11
	C9.6,0,9.3,0.2,9.1,0.5c-0.2,0.3-0.2,0.7-0.1,1l7,15.7h-0.6c-0.6-0.1-1,0.4-1,1s0.5,1,1,1h2.1h4.6c-0.1,0.4-0.2,0.7-0.2,1.1
	c0,0.5,0.1,0.9,0.3,1.3c-6.7,1.3-11.7,7.2-11.7,14.2c0,8,6.5,14.4,14.4,14.4s14.4-6.5,14.4-14.4c0-7-5.1-12.9-11.7-14.2
	c0.2-0.4,0.3-0.9,0.3-1.3c0-0.4-0.1-0.8-0.2-1.1h0.8h3.8h2.1c0.6,0,1-0.5,1-1c0-0.6-0.5-1-1-1h-0.6l7-15.7
	C41.1,1.1,41.1,0.7,40.9,0.5L40.9,0.5z"/>
<path class="st1" d="M32.2,34.9c0.6-0.6,0.8-1.4,0.6-2.2c-0.3-0.8-0.9-1.3-1.7-1.4l-2.8-0.4c-0.1,0-0.1-0.1-0.1-0.1l-1.3-2.5
	c-0.4-0.7-1.1-1.2-1.9-1.2s-1.5,0.5-1.9,1.2l-1.3,2.5c0,0.1-0.1,0.1-0.1,0.1L19,31.3c-0.8,0.1-1.5,0.7-1.7,1.4
	c-0.3,0.8-0.1,1.6,0.6,2.2l2,2c0.1,0.1,0.1,0.1,0.1,0.2l-0.5,2.8c-0.2,0.8,0.2,1.6,0.9,2.1c0.7,0.5,1.5,0.6,2.2,0.2l2.5-1.3
	c0.1,0,0.1,0,0.2,0l2.5,1.3c0.3,0.2,0.7,0.3,1,0.3c0.5,0,0.9-0.2,1.2-0.4c0.7-0.5,1-1.3,0.9-2.1L30.1,37c0-0.1,0-0.1,0.1-0.2
	L32.2,34.9z M28.8,35.5c-0.5,0.5-0.7,1.2-0.6,1.9l0.5,2.8c0,0,0,0.1-0.1,0.2c-0.1,0.1-0.2,0-0.2,0L26,39c-0.3-0.2-0.7-0.3-1-0.3
	c-0.4,0-0.7,0.1-1,0.3l-2.5,1.3c-0.1,0-0.1,0.1-0.2,0c-0.1-0.1-0.1-0.1-0.1-0.2l0.5-2.8c0.1-0.7-0.1-1.4-0.6-1.9l-2-2
	c0,0-0.1-0.1-0.1-0.2c0.1-0.1,0.1-0.1,0.1-0.1l2.8-0.4c0.7-0.1,1.3-0.5,1.6-1.2l1.3-2.6c0,0,0.1-0.1,0.2-0.1s0.1,0.1,0.2,0.1
	l1.3,2.6c0.3,0.6,0.9,1.1,1.6,1.2l2.8,0.4c0,0,0.1,0,0.1,0.1c0.1,0.1,0,0.2-0.1,0.2L28.8,35.5z"/>
</svg>
