<?xml version="1.0" encoding="utf-8"?>
<!-- Generator: Adobe Illustrator 22.0.1, SVG Export Plug-In . SVG Version: 6.00 Build 0)  -->
<svg version="1.1" id="Capa_1" xmlns="http://www.w3.org/2000/svg" xmlns:xlink="http://www.w3.org/1999/xlink" x="0px" y="0px"
	 viewBox="0 0 105.5 75" style="enable-background:new 0 0 105.5 75;" xml:space="preserve">
<style type="text/css">
	.st0{fill:#76C234;}
</style>
<path class="st0" d="M97,0H8.5C3.8,0,0,3.8,0,8.5v58C0,71.2,3.8,75,8.5,75H97c4.7,0,8.5-3.8,8.5-8.5v-58C105.5,3.8,101.7,0,97,0z
	 M97,3.4c0.9,0,1.7,0.2,2.4,0.6L56.8,41.2c-2.2,1.9-5.8,1.9-8,0L6.1,4c0.7-0.4,1.5-0.6,2.4-0.6H97z M102.1,66.5
	c0,2.8-2.3,5.1-5.1,5.1H8.5c-2.8,0-5.1-2.3-5.1-5.1v-58c0-0.7,0.1-1.4,0.4-2l34.6,30.2L18.9,55c-0.7,0.6-0.7,1.7-0.1,2.4
	c0.3,0.4,0.8,0.5,1.2,0.5c0.4,0,0.8-0.2,1.2-0.5l19.6-18.4c0,0,0.1-0.1,0.1-0.1l5.6,4.8c1.7,1.5,4,2.3,6.2,2.3s4.5-0.8,6.2-2.3
	l5.6-4.8c0,0.1,0.1,0.1,0.1,0.2l19.6,18.4c0.3,0.3,0.7,0.5,1.2,0.5c0.5,0,0.9-0.2,1.2-0.5c0.6-0.7,0.6-1.8-0.1-2.4L67.1,36.7
	l34.6-30.2c0.3,0.6,0.4,1.3,0.4,2V66.5z"/>
</svg>
