<svg id="Capa_1" xmlns="http://www.w3.org/2000/svg" viewBox="0 0 105.5 75"><style>.st0{fill:#76c234}</style><path class="st0" d="M97 0H8.5C3.8 0 0 3.8 0 8.5v58C0 71.2 3.8 75 8.5 75H97c4.7 0 8.5-3.8 8.5-8.5v-58c0-4.7-3.8-8.5-8.5-8.5zm0 3.4c.9 0 1.7.2 2.4.6L56.8 41.2c-2.2 1.9-5.8 1.9-8 0L6.1 4c.7-.4 1.5-.6 2.4-.6H97zm5.1 63.1c0 2.8-2.3 5.1-5.1 5.1H8.5c-2.8 0-5.1-2.3-5.1-5.1v-58c0-.7.1-1.4.4-2l34.6 30.2L18.9 55c-.7.6-.7 1.7-.1 2.4.3.4.8.5 1.2.5.4 0 .8-.2 1.2-.5L40.8 39l.1-.1 5.6 4.8c1.7 1.5 4 2.3 6.2 2.3s4.5-.8 6.2-2.3l5.6-4.8c0 .1.1.1.1.2l19.6 18.4c.3.3.7.5 1.2.5s.9-.2 1.2-.5c.6-.7.6-1.8-.1-2.4L67.1 36.7l34.6-30.2c.3.6.4 1.3.4 2v58z"/></svg>