<?xml version="1.0" encoding="utf-8"?>
<!-- Generator: Adobe Illustrator 22.0.1, SVG Export Plug-In . SVG Version: 6.00 Build 0)  -->
<svg version="1.1" id="Layer_1" xmlns="http://www.w3.org/2000/svg" xmlns:xlink="http://www.w3.org/1999/xlink" x="0px" y="0px"
	 viewBox="0 0 22 26" style="enable-background:new 0 0 22 26;" xml:space="preserve">
<style type="text/css">
	.st0{fill:#939EAB;}
	.st1{fill:#E34C2F;}
	.st2{fill:#FFFFFF;}
</style>
<g id="notification">
	<path class="st0" d="M8.4,2.7C7.2,3.1,5.6,3.9,4.6,5.5C4.1,6.1,3,6.6,3,10.8c0,5.5-1.2,7.2-2,7.8c-0.6,0.4-1,1.2-1,2
		c0,1.3,1.1,2.3,2.3,2.3h5C7.7,24.7,9.2,26,11,26s3.3-1.3,3.7-3h5c1.2,0,2.3-1.1,2.3-2.3c0-0.8-0.4-1.5-1-2c-0.8-0.5-2-2.2-2-7.8
		c0-5.2-3.1-7.2-5.4-8.1c-0.3-0.1-0.7-0.3-1.1-0.4c-1.4-0.3-2.6-0.1-3,0C9,2.5,8.6,2.6,8.4,2.7z M4.2,10.8c0-4.7,2.8-6.5,5.2-7.1
		l0,0c0,0,0.7-0.2,1.6-0.2c0.4,0,1,0.1,1.6,0.3l0,0c2.4,0.7,5.2,2.5,5.2,7.1c0,3.6,0.4,6.2,1.5,7.7H2.7C3.7,17,4.2,14.4,4.2,10.8z
		 M11,24.7c-1.1,0-2.1-0.8-2.5-1.8h4.9C13.1,23.9,12.1,24.7,11,24.7z M19.7,21.6H2.3c-0.6,0-1.1-0.5-1.1-1.1c0-0.3,0.1-0.6,0.4-0.8
		h18.9c0.2,0.2,0.4,0.5,0.4,0.8C20.8,21.1,20.3,21.6,19.7,21.6z"/>
</g>
<g id="alert_1_">
	<g id="icon-alert">
		<ellipse class="st1" cx="15.8" cy="4.6" rx="4" ry="4.1"/>
		<path class="st2" d="M15.8,1.1c1.9,0,3.4,1.6,3.4,3.6s-1.6,3.6-3.4,3.6s-3.5-1.6-3.5-3.6S13.9,1.1,15.8,1.1 M15.8,0
			c-2.5,0-4.6,2.1-4.6,4.6s2,4.6,4.6,4.6s4.6-2.1,4.6-4.6S18.3,0,15.8,0L15.8,0z"/>
	</g>
</g>
</svg>
