<svg id="Layer_1" xmlns="http://www.w3.org/2000/svg" viewBox="0 0 22 26"><style>.st0{fill:#939eab}.st1{fill:#e34c2f}.st2{fill:#fff}</style><path class="st0" d="M8.4 2.7c-1.2.4-2.8 1.2-3.8 2.8-.5.6-1.6 1.1-1.6 5.3 0 5.5-1.2 7.2-2 7.8-.6.4-1 1.2-1 2 0 1.3 1.1 2.3 2.3 2.3h5C7.7 24.7 9.2 26 11 26s3.3-1.3 3.7-3h5c1.2 0 2.3-1.1 2.3-2.3 0-.8-.4-1.5-1-2-.8-.5-2-2.2-2-7.8 0-5.2-3.1-7.2-5.4-8.1-.3-.1-.7-.3-1.1-.4-1.4-.3-2.6-.1-3 0-.5.1-.9.2-1.1.3zm-4.2 8.1c0-4.7 2.8-6.5 5.2-7.1 0 0 .7-.2 1.6-.2.4 0 1 .1 1.6.3 2.4.7 5.2 2.5 5.2 7.1 0 3.6.4 6.2 1.5 7.7H2.7c1-1.6 1.5-4.2 1.5-7.8zM11 24.7c-1.1 0-2.1-.8-2.5-1.8h4.9c-.3 1-1.3 1.8-2.4 1.8zm8.7-3.1H2.3c-.6 0-1.1-.5-1.1-1.1 0-.3.1-.6.4-.8h18.9c.2.2.4.5.4.8-.1.6-.6 1.1-1.2 1.1z" id="notification"/><g id="alert_1_"><g id="icon-alert"><ellipse class="st1" cx="15.8" cy="4.6" rx="4" ry="4.1"/><path class="st2" d="M15.8 1.1c1.9 0 3.4 1.6 3.4 3.6s-1.6 3.6-3.4 3.6-3.5-1.6-3.5-3.6 1.6-3.6 3.5-3.6m0-1.1c-2.5 0-4.6 2.1-4.6 4.6s2 4.6 4.6 4.6 4.6-2.1 4.6-4.6S18.3 0 15.8 0z"/></g></g></svg>