<?xml version="1.0" encoding="utf-8"?>
<!-- Generator: Adobe Illustrator 22.0.1, SVG Export Plug-In . SVG Version: 6.00 Build 0)  -->
<svg version="1.1" id="Layer_1" xmlns="http://www.w3.org/2000/svg" xmlns:xlink="http://www.w3.org/1999/xlink" x="0px" y="0px"
	 viewBox="0 0 18 18" style="enable-background:new 0 0 18 18;" xml:space="preserve">
<style type="text/css">
	.st0{fill:#939EAB;}
</style>
<title>grid</title>
<g>
	<path class="st0" d="M2,0h4c1.1,0,2,0.9,2,2v4c0,1.1-0.9,2-2,2H2C0.9,8,0,7.1,0,6V2C0,0.9,0.9,0,2,0z"/>
	<path class="st0" d="M2,10h4c1.1,0,2,0.9,2,2v4c0,1.1-0.9,2-2,2H2c-1.1,0-2-0.9-2-2v-4C0,10.9,0.9,10,2,10z"/>
	<path class="st0" d="M12,0h4c1.1,0,2,0.9,2,2v4c0,1.1-0.9,2-2,2h-4c-1.1,0-2-0.9-2-2V2C10,0.9,10.9,0,12,0z"/>
	<path class="st0" d="M12,10h4c1.1,0,2,0.9,2,2v4c0,1.1-0.9,2-2,2h-4c-1.1,0-2-0.9-2-2v-4C10,10.9,10.9,10,12,10z"/>
</g>
</svg>
