<svg id="Layer_1" xmlns="http://www.w3.org/2000/svg" viewBox="0 0 18 18"><style>.st0{fill:#939eab}</style><path class="st0" d="M3.9.4c.5-.5-4-.5-3.5 0-.5-.5-.5 4 0 3.5-.5.5 4 .5 3.5 0 .5.5.5-4 0-3.5zm0 6.9c.5-.5-4-.5-3.5 0-.5-.5-.5 4 0 3.5-.5.5 4 .5 3.5 0 .5.5.5-4.1 0-3.5zm0 6.8c.5-.5-4-.5-3.5 0-.5-.5-.5 4 0 3.5-.5.5 4 .5 3.5 0 .5.5.5-4 0-3.5zM10.8.4c.5-.5-4-.5-3.5 0-.5-.5-.5 4 0 3.5-.5.5 4 .5 3.5 0 .5.5.5-4 0-3.5zm0 6.9c.5-.5-4-.5-3.5 0-.5-.5-.5 4 0 3.5-.5.5 4 .5 3.5 0 .5.5.5-4.1 0-3.5zm0 6.8c.5-.5-4-.5-3.5 0-.5-.5-.5 4 0 3.5-.5.5 4 .5 3.5 0 .5.5.5-4 0-3.5zM17.6.4c.5-.5-4-.5-3.5 0-.5-.5-.5 4 0 3.5-.5.5 4 .5 3.5 0 .5.5.5-4 0-3.5zm0 6.9c.5-.5-4-.5-3.5 0-.5-.5-.5 4 0 3.5-.5.5 4 .5 3.5 0 .5.5.5-4.1 0-3.5zm0 6.8c.5-.5-4-.5-3.5 0-.5-.5-.5 4 0 3.5-.5.5 4 .5 3.5 0 .5.5.5-4 0-3.5z"/></svg>