<?xml version="1.0" encoding="utf-8"?>
<!-- Generator: Adobe Illustrator 22.0.1, SVG Export Plug-In . SVG Version: 6.00 Build 0)  -->
<svg version="1.1" id="Layer_1" xmlns="http://www.w3.org/2000/svg" xmlns:xlink="http://www.w3.org/1999/xlink" x="0px" y="0px"
	 viewBox="0 0 18 18" style="enable-background:new 0 0 18 18;" xml:space="preserve">
<style type="text/css">
	.st0{fill:#939EAB;}
</style>
<g>
	<path class="st0" d="M3.9,0.4c0.5-0.5-4-0.5-3.5,0c-0.5-0.5-0.5,4,0,3.5c-0.5,0.5,4,0.5,3.5,0C4.4,4.4,4.4-0.1,3.9,0.4z"/>
	<path class="st0" d="M3.9,7.3c0.5-0.5-4-0.5-3.5,0c-0.5-0.5-0.5,4,0,3.5c-0.5,0.5,4,0.5,3.5,0C4.4,11.3,4.4,6.7,3.9,7.3z"/>
	<path class="st0" d="M3.9,14.1c0.5-0.5-4-0.5-3.5,0c-0.5-0.5-0.5,4,0,3.5c-0.5,0.5,4,0.5,3.5,0C4.4,18.1,4.4,13.6,3.9,14.1z"/>
	<path class="st0" d="M10.8,0.4c0.5-0.5-4-0.5-3.5,0c-0.5-0.5-0.5,4,0,3.5c-0.5,0.5,4,0.5,3.5,0C11.3,4.4,11.3-0.1,10.8,0.4z"/>
	<path class="st0" d="M10.8,7.3c0.5-0.5-4-0.5-3.5,0c-0.5-0.5-0.5,4,0,3.5c-0.5,0.5,4,0.5,3.5,0C11.3,11.3,11.3,6.7,10.8,7.3z"/>
	<path class="st0" d="M10.8,14.1c0.5-0.5-4-0.5-3.5,0c-0.5-0.5-0.5,4,0,3.5c-0.5,0.5,4,0.5,3.5,0C11.3,18.1,11.3,13.6,10.8,14.1z"/>
	<path class="st0" d="M17.6,0.4c0.5-0.5-4-0.5-3.5,0c-0.5-0.5-0.5,4,0,3.5c-0.5,0.5,4,0.5,3.5,0C18.1,4.4,18.1-0.1,17.6,0.4z"/>
	<path class="st0" d="M17.6,7.3c0.5-0.5-4-0.5-3.5,0c-0.5-0.5-0.5,4,0,3.5c-0.5,0.5,4,0.5,3.5,0C18.1,11.3,18.1,6.7,17.6,7.3z"/>
	<path class="st0" d="M17.6,14.1c0.5-0.5-4-0.5-3.5,0c-0.5-0.5-0.5,4,0,3.5c-0.5,0.5,4,0.5,3.5,0C18.1,18.1,18.1,13.6,17.6,14.1z"/>
</g>
</svg>
