<svg xmlns="http://www.w3.org/2000/svg" viewBox="0 0 258 58"><path d="M1.3 4.5V1.2h13.8v6h-3.3V4.5H6.5v6.8h5.2l4.1 4.4v8.4l-4.2 4.1H3.2V5.5l1.3-.8v-.2H1.3zm5.2 10.1v10.3h3.9l2.2-2.2V17l-2.2-2.4H6.5zm28 9.4l-4.1 4.3h-5.2l-4-4.3V5L25.3.9h5.1L34.5 5v19zm-3.2-1.3V6.3l-2.2-2.2h-2.4l-2.2 2.2v16.4l2.2 2.3h2.4l2.2-2.3zm9.2 5.5V1.3h3.3v11.9h6.1V1.3h3.3v26.9h-3.3V16.3h-6.1v11.9h-3.3zm24.3-14.1l1.9-6.8 2.1-6.2h3.5l-8.8 27H60l3-9.4-6.2-17.5h3.6l2 6.2 2.4 6.7zm20.9-7.7l-2.1-2.1h-2.3l-2 2.1v16.4l2.1 2.3h2.3l2.1-2.3v-3h3.3V24l-3.9 4.4h-5.1L76 24V5.1L80 1h5.1L89 5.1v4.1h-3.3V6.4zm19.4-1.9l-.3 6.4h5.1l3.7 4.4v8.9l-3.7 4.1h-5l-3.7-4.1v-4.8h3.3V23l1.9 2.1h2.1l1.9-2.1v-6.4l-1.9-2.3h-7l.5-13.1h10.7v3.3h-7.6zm23.3 23.8h-5.3L119 24V5.2l4.1-4.1h5.2l4.1 4.1V24l-4 4.3zm.1-22.4L127 4.4h-2.5l-2.2 2.2v12.3l6.2-13zM123 23.4l1.5 1.7h2.4l2.3-2.4V10.4l-6.2 13zm24.6 4.9h-5.3l-4.1-4.4V5.2l4.1-4.1h5.2l4.1 4.1V24l-4 4.3zm.2-22.4l-1.5-1.5h-2.5l-2.2 2.2v12.3l6.2-13zm-5.6 17.5l1.5 1.7h2.4l2.3-2.4V10.4l-6.2 13zm23.3 4.8h-1.8V13.3h6.1v1.8h-4.3v13.1zm13.7-12.7v5.4l-2.3 2.4H174v4.9h-1.8v-15h4.7l2.3 2.3zm-3.1 5.9l1.2-1.3v-3.9l-1.2-1.2H174v6.4h2.1zm6.2 6.8v-15h1.8v6.6h3.4v-6.6h1.8v14.9h-1.8v-6.6h-3.4v6.6h-1.8zM5.8 45.7l5.2 8.8h-.6l-5-8.5H4v8.6h-.5V38.1H4v7.4h1.4l4.6-7.4h.6l-4.8 7.6zm13.6-7.5h6.7v16.4h-.5v-16h-5.7v16h-.5V38.2zm11.6.4v7.6h4.8v.5H31v7.4h5.5v.5h-6V38.1h5.7v.5H31zm10.2 16h-.5V38.1h4.5l2.1 2.1v5.6l-2.2 2.3h-3.9v6.5zm0-7h3.7l1.9-2v-5.2l-1.9-1.9h-3.7v9.1zm14.3-9.5l2.2 2.2V44L56 46.1l2.1 2.1v4L56 54.6h-4.6V38.1h4.1zm.2 7.9l1.6-2v-3.4l-1.9-1.9H52V46h3.7zm-3.8 8.1h3.9l1.9-1.9v-3.6l-2.1-2.1h-3.7v7.6zm15.5.6h-2.7l-2.2-2.4V40.2l2.2-2.2h2.7l2.2 2.2v12.1l-2.2 2.4zm1.8-14.3l-1.9-1.9H65l-2 1.9v11.7l1.9 2.1h2.3l1.9-2.1V40.4zm14.7-1.9h-.7l-3.5 15.3h-1.1l-3.4-15.3h-.7v16.1H74V38.1h1.7L79 53.3h.4l3.4-15.2h1.6v16.5h-.5V38.5zm6.5 16.1h-.5l2.3-6.6-4.2-9.9h.5l3.9 9.3 3.3-9.4h.5l-5.8 16.6zm13.7 0l-.2 2.6h-.4l.1-2.9h1.6l3.1-16h4v16h1.4l.1 2.9h-.4l-.2-2.6h-9.1zm7.7-16h-3.1l-3 15.6h6.1V38.6zm5.8 0v7.6h4.8v.5h-4.8v7.4h5.5v.5h-6V38.1h5.7v.5h-5.2zm9.7-.4h6.7v16.4h-.5v-16h-5.7v16h-.5V38.2zm15.9 16.5h-2.7l-2.2-2.4V40.2l2.2-2.2h2.7l2.2 2.2v12.1l-2.2 2.4zm1.7-14.3l-1.9-1.9h-2.3l-1.9 1.9v11.7l1.9 2.1h2.3l1.9-2.1V40.4zm10.8 11.7v-3.8l-2.1-2.1h-2.1v-.4h2.1l1.6-2.1v-3.3l-1.6-1.8h-2l-1.7 1.7-.1 1.7h-.4v-1.8l1.9-2h2.4l1.9 2.1V44l-1.7 2.1 2.1 2.2v4.2l-2.1 2.3h-2.7l-2.1-2.3v-2.3h.4v2.1l1.9 2h2.3l2-2.2zm4.8 2.5V38.2h.5v16l5.4-16.1h1.2v16.4h-.5v-16h-.4l-5.4 16h-.8zm14.2-16.1H171v-.4h8v.4h-3.7v16.1h-.5V38.5zm9.3 16.1h-.5l2.3-6.6-4.1-9.9h.5l3.8 9.3 3.3-9.4h.5L184 54.6z" fill="#fff"/><g fill="#fad025"><path d="M255.9 17.4h-11.7c2.1-.3 4-.5 4.7-.8 1-.4 1.8-1.2 2.2-2.3.4-1 .4-2.2 0-3.2s-1.2-1.8-2.3-2.2c-1-.4-2.2-.4-3.2 0-1.2.5-5.1 3.8-7.6 5.9 1-3.2 2.5-8 2.5-9.3 0-2.3-1.9-4.2-4.2-4.2s-4.2 1.9-4.2 4.2c0 1.3 1.5 6.2 2.5 9.3-2.5-2.2-6.3-5.4-7.6-5.9-2.1-.9-4.6.1-5.5 2.2-.9 2.1.1 4.6 2.2 5.5.7.3 2.6.6 4.7.8H217c-.4 0-.8.4-.8.8v10.1c0 .4.4.8.8.8h1.7v3.5h-6.9c-.4 0-.8.4-.8.8s.4.8.8.8h22.9c.5 0 .9.4.9.9v17.8c0 .5-.4.9-.9.9h-29.6c-.5 0-.9-.4-.9-.9V35.1c0-.5.4-.9.9-.9h3.3c.4 0 .8-.4.8-.8s-.4-.8-.8-.8h-3.3c-1.4 0-2.5 1.1-2.5 2.5v17.8c0 1.4 1.1 2.5 2.5 2.5h29.6c1.4 0 2.5-1.1 2.5-2.5v-1.7h16.1c.4 0 .8-.4.8-.8V29.1h1.7c.4 0 .8-.4.8-.8V18.1c.1-.4-.3-.7-.7-.7zm-9.7-7.1c1.3-.6 2.8.1 3.4 1.4.6 1.3-.1 2.8-1.4 3.4-1 .4-5.7.9-9.6 1.3 3-2.6 6.7-5.7 7.6-6.1zm-9.8-7.4c1.4 0 2.6 1.2 2.6 2.6 0 1-1.4 5.6-2.6 9.3-1.2-3.7-2.6-8.3-2.6-9.3 0-1.5 1.1-2.6 2.6-2.6zm-13.3 8.8c.4-1 1.4-1.6 2.4-1.6.3 0 .7.1 1 .2 1 .4 4.6 3.5 7.6 6-3.9-.3-8.6-.9-9.6-1.3-1.4-.5-2-2-1.4-3.3zm-5.3 7.2h13.6v8.6h-13.6v-8.6zm2.5 10.2h11.1v3.5h-11.1v-3.5zm32.3 20.4h-11.1v-4.3c0-.4-.4-.8-.8-.8s-.8.4-.8.8v4.3h-2.6V35.1c0-1.4-1.1-2.5-2.5-2.5H233V18.9h6.9V42c0 .4.4.8.8.8s.8-.4.8-.8V29.1h11.1v20.4zm2.5-22h-13.6v-8.6h13.6v8.6z"/><path d="M209.2 47.1l.8-1c.6.6 1.2.9 2 .9.9 0 1.5-.5 1.5-1.3s-.7-1.3-1.6-1.3c-.5 0-1 .2-1.4.3l-.8-.5.2-3.7h4.5v1.2H211l-.1 1.8c.4-.1.7-.2 1.2-.2 1.5 0 2.6.8 2.6 2.4 0 1.6-1.1 2.6-2.8 2.6-1.1 0-2-.5-2.7-1.2zm7.4-2.7c0-2.2 1.3-3.9 3.3-3.9 2 0 3.3 1.7 3.3 3.9s-1.3 3.9-3.3 3.9c-2 0-3.3-1.7-3.3-3.9zm5.3 0c0-1.5-.8-2.7-1.9-2.7s-1.9 1.2-1.9 2.7c0 1.5.8 2.7 1.9 2.7 1.1 0 1.9-1.2 1.9-2.7zm3.2 0c0-2.2 1.3-3.9 3.3-3.9 2 0 3.3 1.7 3.3 3.9s-1.3 3.9-3.3 3.9c-2 0-3.3-1.7-3.3-3.9zm5.2 0c0-1.5-.8-2.7-1.9-2.7-1.2 0-1.9 1.2-1.9 2.7 0 1.5.8 2.7 1.9 2.7s1.9-1.2 1.9-2.7z"/></g></svg>