<svg xmlns="http://www.w3.org/2000/svg" viewBox="0 0 56 56"><path d="M28 55.8C12.7 55.8.2 43.3.2 28S12.7.2 28 .2 55.8 12.7 55.8 28 43.3 55.8 28 55.8zm0-54.6C13.2 1.2 1.2 13.2 1.2 28s12 26.8 26.8 26.8 26.8-12 26.8-26.8S42.8 1.2 28 1.2z" fill="#fed900"/><path d="M30.6 48.7h-8.7V30.1h-3.7v-7.6h3.7v-3.7c0-4 2.2-8.3 8.3-8.3h6.2v7.4h-4.7c-.7 0-1.1.4-1.1 1.3v3.3h5.8l-.8 7.6h-5v18.6zm-7.7-1h6.7V29h5.1l.6-5.5h-5.7v-4.4c0-1.7 1.2-2.3 2.1-2.3h3.6v-5.3h-5.2c-6.7 0-7.3 5.6-7.3 7.3v4.8h-3.7V29h3.7v18.7z" fill="#fed900"/></svg>