<svg xmlns="http://www.w3.org/2000/svg" xmlns:xlink="http://www.w3.org/1999/xlink" viewBox="0 0 146 58"><path d="M20.7 46.3l-.9-.9h-1l-.9.9v7.3l.9 1h1l.9-1v-1.3h1.5v1.9L20.4 56h-2.3l-1.7-1.9v-8.4l1.7-1.8h2.3l1.7 1.8v1.8h-1.5v-1.2zm3.4-1V44h6.5v12h-1.5V45.4h-2.7V56h-1.5V45.8l.6-.4v-.1h-1.4zm15.1 8.8L37.4 56h-2.3l-1.8-1.9v-8.5l1.8-1.8h2.3l1.8 1.8v8.5zm-1.5-.6v-7.3l-1-1h-1.1l-1 1v7.3l1 1h1.1l1-1zm3.5-9.5h2.3v5.3h2.7V44h1.5v12h-1.5v-5.3h-2.7V56H42V46l.6-.4v-.1h-1.4V44zm13.5 2.3l-.9-.9h-1l-.9.9v7.3l.9 1h1l.9-1v-1.3h1.5v1.9L54.4 56h-2.3l-1.7-1.9v-8.4l1.7-1.8h2.3l1.7 1.8v1.8h-1.5v-1.2zm9.9 7.8L62.8 56h-2.3l-1.8-1.9v-8.5l1.8-1.8h2.3l1.8 1.8v8.5zm-1.4-.6v-7.3l-1-1h-1.1l-1 1v7.3l1 1h1.1l1-1zm9.9-7.7v4.3L71.3 52H69v4h-1.5V45.9l.6-.4v-.1h-1.5V44h4.6l1.9 1.8zm-2.4 4.8l1-1.1v-3.1l-1-1H69v5.1h1.7zm7.7-5.3V44h6.5v12h-1.5V45.4h-2.7V56h-1.5V45.8l.6-.4v-.1h-1.4zm14.9.5v4.3L91.5 52h-2.3v4h-1.5V45.9l.6-.4v-.1h-1.5V44h4.6l1.9 1.8zm-2.4 4.8l1-1.1v-3.1l-1-1h-1.7v5.1h1.7zm10.9 3.5L100 56h-2.3l-1.8-1.9v-8.5l1.8-1.8h2.3l1.8 1.8v8.5zm-1.5-.6v-7.3l-1-1h-1.1l-1 1v7.3l1 1h1.1l1-1zm8.5-4.2v1.5h-2.7v3.7h2.1v-1.2h1.5V56h-5.1V45.9l.6-.4v-.1h-1.5V44h5.8v2.8H108v-1.4h-2v3.9h2.8zm5.1-.5h.8L117 44h1.6l-2.6 5.6 3 6.4h-1.6l-2.7-5.7h-.8V56h-1.5V46l.6-.4v-.1h-1.5V44h2.3v4.8zm8.5-3.5h-1.2v1.3h-1.3V44h6.6v2.6h-1.3v-1.3h-1.3V56h-1.5V45.3zm6.3-1.3h3.8l1.8 12h-1.5l-.5-3.1h-2.5l-.5 3.1h-1.5l1.5-10.1.6-.4v-.1h-1.2V44zm2.5 1.4h-.3l-.9 6h2.1l-.9-6z" fill="#ffd900"/><path d="M11.9 2H6.4c-.5 0-.8.3-.9.7l-3.2 14v.2c0 .3.2.5.5.5h4.6c.2 0 .4-.1.5-.3v-.2l.9-4.1h2.6c3.1 0 5.4-2 5.9-5.1.5-3.9-1.8-5.7-5.4-5.7m.6 5.5c-.2 1.2-1.3 1.4-2.3 1.4h-.5l.6-2.7h.5c.9 0 1.9.1 1.7 1.3zm16.9 9.2l-2-14.1v-.1c0-.3-.2-.5-.5-.5H22c-.2 0-.4.2-.5.3l-.1.2-7.2 13.9-.2.4v.1c0 .3.2.5.5.5H19c.1 0 .3-.1.4-.2l.1-.3.6-1.4h3.8l.1 1.2v.4c.1.2.2.3.4.3h4.5c.3 0 .5-.2.5-.5v-.2zm-7.8-4.9l1.8-4.2h.1c.1 1.7.2 4.2.2 4.2h-2.1zM40.2 2h-5.4c-.4 0-.7.3-.8.7v.1l-3.2 13.9v.2c0 .3.2.5.5.5h4.5c.2 0 .4-.2.5-.4v-.1l1-4.4h.1c.2 0 .9 3.2 1.2 4.4v.2c.1.2.2.3.4.3h4.5c.3 0 .5-.2.5-.5v-.3c-.4-1.6-1.5-5-2.1-5.3 2.2-.7 3.7-1.6 4.1-3.9.6-3.9-2.3-5.5-5.8-5.4m.8 5.4c-.2 1.1-1.3 1.4-2.4 1.3h-.4l.6-2.7h.5c1.1.1 1.9.3 1.7 1.4zM53.7 2h-4.3c-.4 0-.7.3-.9.6v.1l-3.2 13.9v.2c0 .3.2.5.5.5h4.4c.3 0 .5-.2.7-.5l.1-.4 3.2-13.8v-.2c0-.1-.2-.4-.5-.4" fill="#fff"/><defs><path id="a" d="M74.9 17.4H54.3c-.3 0-.5-.2-.5-.5v-.2L57 2.8v-.1c.1-.2.2-.4.4-.6.1 0 .1-.1.2-.1h25.7c.1 0 .1 0 .2.1s.2.3.2.4v.1l-3.2 14v.2c0 .1-.1.2-.2.3-.2.2-.4.3-.6.3h-4.8z"/></defs><clipPath id="b"><use xlink:href="#a" overflow="visible"/></clipPath><linearGradient id="c" gradientUnits="userSpaceOnUse" x1="-323.07" y1="327.356" x2="-322.569" y2="327.356" gradientTransform="matrix(59.8808 0 0 30.9044 19399.35 -10107.058)"><stop offset="0" stop-color="#ffd900"/><stop offset="1" stop-color="#f8af00"/></linearGradient><path clip-path="url(#b)" fill="url(#c)" d="M53.7 2h30v15.4h-30z"/><defs><path id="d" d="M64.3 19.9H38.8c-.4.1-.7.3-.7.7v.1l-3.2 13.9v.2c0 .3.2.5.5.5h25.5c.3-.1.6-.3.7-.6v-.2l3.2-14v-.1c0-.1 0-.2-.1-.3 0-.1-.1-.1-.2-.2 0 .1-.1 0-.2 0"/></defs><clipPath id="e"><use xlink:href="#d" overflow="visible"/></clipPath><linearGradient id="f" gradientUnits="userSpaceOnUse" x1="-322.756" y1="326.779" x2="-322.255" y2="326.779" gradientTransform="matrix(59.8884 0 0 30.8818 19364.203 -10063.893)"><stop offset="0" stop-color="#ffd900"/><stop offset="1" stop-color="#f8af00"/></linearGradient><path clip-path="url(#e)" fill="url(#f)" d="M34.9 19.9h30v15.4h-30z"/><path d="M85.1 19.9h-6c-.3 0-.6.1-.7.4 0 .1-.1.1-.1.2-.9 1.8-3.5 6.8-3.8 7.5h-.1l-.4-7.5v-.2c-.1-.2-.2-.4-.5-.4h-5c-.4 0-.7.2-.8.6l-.1.2-3.2 13.9v.2c0 .3.2.5.5.5h3.7c.3 0 .5-.2.5-.4l1.8-8c-.1.5.3 6 .4 7.8v.2c.1.2.3.4.5.4h2.6c.2 0 .3-.1.4-.2 0 0 0-.1.1-.1.8-1.6 3.9-7.6 4.1-8.1h.1l-1.8 7.8v.2c0 .3.2.5.5.5h3.9c.2 0 .4-.1.5-.3v-.2l3.3-14.2v-.2c.1-.3-.1-.5-.4-.6m27 0h-11.6c-.4 0-.7.3-.8.7l-.8 3.5v.2c0 .3.2.5.5.5h3.1l-2.3 9.8v.2c0 .3.2.5.4.5h4.3c.4 0 .7-.2.8-.6l.1-.2 2.2-9.7h2.8c.4 0 .8-.3.9-.7V24l.8-3.4v-.2c.2-.2-.1-.5-.4-.5M99 34.7l-2-14.2v-.2c-.1-.2-.2-.4-.5-.4h-4.8c-.3 0-.5.2-.7.4l-.1.2-7.2 14v.2c0 .3.2.5.5.5h4.4c.2 0 .4-.1.5-.3l.7-1.6h3.8l.1 1.3v.1c0 .2.2.4.5.4h4.4c.3 0 .5-.2.5-.5l-.1.1zm-7.8-4.9l1.8-4.2h.1c.1 1.7.2 4.2.2 4.2h-2.1zm35.8-5.7c-.1-1.6-.8-4.7-5.7-4.9-5.6-.2-9 3.5-9.5 8.7-.5 4.4 1.8 7.7 7.1 7.6 5-.1 6.5-3.2 6.9-5v-.2c0-.5-.4-.9-.9-.9h-4.2c-.2 0-.3.1-.4.2v.1c-.4.6-1.1 1-1.7.9-1.2-.2-1.2-1.5-1.1-2.6.1-.9 1.2-3.6 2.7-3.6.6 0 .9.2 1.1.5v.1c.1.1.2.2.4.2h4.3c.6-.1 1-.5 1-1.1 0 .1 0 .1 0 0m16.3-4.1H139c-.4 0-.7.3-.8.7l-1 4.5h-3.4l1-4.4c0-.1.1-.1.1-.2 0-.3-.2-.5-.5-.5h-4.3c-.4 0-.7.2-.8.5 0 .1-.1.2-.1.3L126 34.7v.2c0 .3.2.5.5.5h4.2c.4 0 .7-.2.8-.6v-.2l1-4.5h3.5l-1.1 4.6v.2c0 .3.2.5.5.5h4.2c.4 0 .8-.3.9-.7v-.1l3.2-13.9v-.2c.1-.3-.1-.5-.4-.5" fill="#fff"/></svg>