<svg xmlns="http://www.w3.org/2000/svg" viewBox="0 0 56 56"><g fill="#fff"><path d="M30.4 16.6c-.5-.3-1.1-.3-1.6 0 0 0-.1 0-.1.1L21.9 23c-.1 0-.2.1-.2.1h-4.3c-.9 0-1.6.7-1.6 1.6v6.6c0 .9.7 1.6 1.6 1.6h4.3c.1 0 .2 0 .2.1l6.8 6.4.1.1c.3.1.5.2.8.2.3 0 .5-.1.8-.2.5-.3.8-.8.8-1.4V18c0-.6-.3-1.1-.8-1.4zM30.2 38c0 .3-.2.4-.3.5-.1 0-.3.1-.5 0l-6.8-6.4s-.1 0-.1-.1c-.2-.1-.5-.2-.8-.2h-4.3c-.3 0-.6-.3-.6-.6v-6.6c0-.3.3-.6.6-.6h4.3c.3 0 .6-.1.8-.2 0 0 .1 0 .1-.1l6.8-6.4c.2-.1.4 0 .5 0 .1 0 .3.2.3.5V38zM35 21.7c-.2-.2-.5-.2-.7 0-.2.2-.2.5 0 .7 3.2 3.2 3.2 8.5 0 11.7-.2.2-.2.5 0 .7.1.1.2.2.4.2.1 0 .3-.1.4-.2 3.5-3.6 3.5-9.5-.1-13.1zm0 0"/><path d="M33.1 23.2c-.2-.2-.5-.2-.7 0-.2.2-.2.5 0 .7 2.2 2.2 2.2 5.8 0 8-.2.2-.2.5 0 .7.1.1.2.2.4.2.1 0 .3-.1.4-.2 2.6-2.5 2.6-6.7-.1-9.4zm0 0"/><path d="M36.5 19.1c-.2-.2-.5-.2-.7 0-.2.2-.2.5 0 .7 2.2 2.2 3.5 5.2 3.5 8.4s-1.2 6.2-3.5 8.4c-.2.2-.2.5 0 .7.1.1.2.2.4.2.1 0 .3-.1.4-.2 2.4-2.4 3.8-5.7 3.8-9.1-.1-3.4-1.5-6.6-3.9-9.1zm0 0"/></g><path d="M28 2c14.3 0 26 11.7 26 26S42.3 54 28 54 2 42.3 2 28 13.7 2 28 2m0-1C13.1 1 1 13.1 1 28s12.1 27 27 27 27-12.1 27-27S42.9 1 28 1z" fill="#ffd900"/></svg>