<svg xmlns="http://www.w3.org/2000/svg" viewBox="0 0 56 56"><path d="M30.4 16.6c-.5-.3-1.1-.3-1.6 0 0 0-.1 0-.1.1L21.9 23c-.1 0-.2.1-.2.1h-4.3c-.9 0-1.6.7-1.6 1.6v6.6c0 .9.7 1.6 1.6 1.6h4.3c.1 0 .2 0 .2.1l6.8 6.4.1.1c.3.1.5.2.8.2.3 0 .5-.1.8-.2.5-.3.8-.8.8-1.4V18c0-.6-.3-1.1-.8-1.4zM30.2 38c0 .3-.2.4-.3.5-.1 0-.3.1-.5 0l-6.8-6.4s-.1 0-.1-.1c-.2-.1-.5-.2-.8-.2h-4.3c-.3 0-.6-.3-.6-.6v-6.6c0-.3.3-.6.6-.6h4.3c.3 0 .6-.1.8-.2 0 0 .1 0 .1-.1l6.8-6.4c.2-.1.4 0 .5 0 .1 0 .3.2.3.5V38zm0 0" fill="#fff" opacity=".3"/><path d="M28 1C13.1 1 1 13.1 1 28s12.1 27 27 27 27-12.1 27-27S42.9 1 28 1zm26 27c0 7-2.8 13.3-7.3 18L10 9.3C14.7 4.8 21 2 28 2c14.3 0 26 11.7 26 26zM2 28c0-7 2.8-13.3 7.3-18L46 46.7C41.3 51.2 35 54 28 54 13.7 54 2 42.3 2 28z" opacity=".3" fill="#ffd900"/></svg>