<svg id="Layer_1" xmlns="http://www.w3.org/2000/svg" viewBox="0 0 55 77"><style>.st0{fill:#fff}</style><path class="st0" d="M6.2 20.2c.5.2 1.1-.1 1.2-.7C10.3 9.7 19.5 2.8 29.8 2.8c1.6 0 3.3.2 4.9.5 0 1.4.6 2.4 1 3 .1.2.3.4.3.4 0 3.5-.7 4-.7 4-1.6 0-4.2 1.4-5.1 3.2-.6 1.1-.5 2.3.1 3.3.5.7.9 1.5 1.3 2.2.8 1.6 1.7 3.4 3.2 3.4.3 0 .6-.1 1-.3 1.1-.6 1.9-2.2 2.7-3.7.3-.7.9-1.7 1.2-2 1 .1 1.5 1 2.1 2.4.5 1 1 2.1 1.9 2.6 1.6.8 7 0 10-1.3.4-.2.7-.7.6-1.1-2-7.5-7.6-13.8-14.8-16.7-.5-.2-1.1 0-1.3.5-.2.5 0 1.1.5 1.3C45 7.1 50 12.6 52 19.1c-3 1.1-6.9 1.4-7.6 1-.4-.2-.7-1-1.1-1.7-.7-1.5-1.6-3.5-4-3.6-1.2-.1-1.9 1.3-2.8 3.1-.5 1-1.3 2.6-1.9 2.9-.4-.1-1.1-1.5-1.5-2.3-.4-.8-.8-1.6-1.4-2.4-.3-.4-.3-.8 0-1.3.7-1.2 2.7-2.2 3.4-2.2 1.8 0 2.6-2 2.6-6 0-.6-.3-1-.6-1.5-.4-.7-.8-1.3-.6-2.5.1-.5-.2-1-.7-1.1-2-.5-4.1-.8-6.2-.8C18.7.8 8.7 8.3 5.6 19c-.2.5.1 1.1.6 1.2zm35.2 6.4c-.3.1-.7.2-.8.2-1.3 0-2.2 1-2.8 1.8-.2.3-.7.8-.9.8-.4-.3-.9-.4-1.4-.4-1.1 0-2.1.7-2.4 1.6-.2.7.1 1.6 1.2 2.1 1.6.8 3.2 1.6 3.9 2.3.5.5 1.4.8 2.4.8 1.5 0 3.6-.7 4.3-2.8.3-.8.9-1.5 1.6-2.1.7-.7 1.4-1.4 1.4-2.3 0-.6-.2-1.1-.7-1.6-.7-.7-1.6-1-2.8-1-1.1 0-2.2.3-3 .6zm4.6 2c0 .2-.5.7-.8 1-.7.7-1.6 1.6-2.1 2.9-.5 1.4-2.1 1.5-2.4 1.5-.6 0-.9-.1-1-.2-.9-.9-2.6-1.8-4.4-2.7.2-.1.5-.1.8.1.3.2.6.2 1 .2 1.1 0 1.8-.8 2.3-1.6.4-.5.9-1.1 1.3-1.1.3 0 .7-.1 1.3-.3.7-.2 1.6-.5 2.5-.5.6 0 1.1.2 1.4.5.1.1.1.2.1.2zm0 0"/><path class="st0" d="M54.8 22.6c-.1-.5-.6-.9-1.1-.8-.5.1-.9.6-.8 1.1.1 1.1.2 2.2.2 3.2 0 12.7-10.3 23.1-23 23.3-3.4-2.2-6.7-4.9-5.2-8.3 2.6-6 .2-8.3-.8-9.2l-.2-.2c-.3-.3-.6-.5-.9-.7-.7-.4-.9-.5-.5-1.7.3-.8.6-1.1 1-1.5.9-.9 1.6-1.9 1.6-4.6 0-1.6-.8-2.9-2.2-3.5-1.6-.7-3.7-.5-4.9.6-.7.6-.9 1.5-.7 2.4.7 2.1-.9 5.1-3.8 7.3-.8.6-1 .3-1.2.2-.9-1-.8-3.8-.1-4.5.5-.5.6-1.1.4-1.6-.8-1.8-5.8-1.6-6.8-1.6-.5 0-.9.4-.9.9-.1 1-.2 1.9-.2 2.9 0 11.6 7.9 21.7 19.1 24.5.5.1 1-.2 1.2-.7.1-.5-.2-1-.7-1.2C13.8 46.1 6.5 36.8 6.5 26.1c0-.7 0-1.3.1-1.9 1.6 0 3 .2 3.7.4-1.1 1.7-1 5.1.4 6.7 1 1.1 2.4 1.2 3.8.1 3.7-2.8 5.5-6.5 4.5-9.4 0-.1-.1-.2.1-.3.5-.5 1.8-.7 2.8-.2.7.3 1.1.9 1.1 1.7 0 2.2-.4 2.7-1.1 3.3-.5.5-1 1.1-1.4 2.2-.9 2.6.5 3.5 1.4 4 .2.1.4.3.5.4.1.1.2.1.2.2.9.8 2.4 2.3.4 7.1-2.3 5.4 3.7 9.2 6.2 10.8.2.1.3.1.5.1C43.7 51.3 55 40 55 26.1c0-1.2-.1-2.4-.2-3.5zm0 0"/><path class="st0" d="M46 47.8c-4.7 3.5-10.3 5.4-16.2 5.4-15 0-27.1-12.2-27.1-27.1 0-.5-.4-1-1-1-.5 0-1 .4-1 1 0 15.7 12.5 28.5 28.1 29.1V76c0 .5.4 1 1 1 .5 0 1-.4 1-1V55.1c6-.2 11.6-2.1 16.4-5.7.4-.3.5-.9.2-1.4-.4-.4-1-.5-1.4-.2zm0 0"/><path class="st0" d="M30.5 40.1c-1.2 0-2.6 1.4-3.1 2.6-.4 1-.3 1.9.3 2.5.6.6 1.4.9 2.4.9.9 0 1.8-.3 2.4-.9.6-.6.8-1.6.4-2.7-.2-.7-.7-1.5-1.3-2.1-.3-.1-.7-.3-1.1-.3zm.6 3.8c-.4.4-1.5.4-2 0 0 0 0-.3.2-.7.3-.6.8-.9 1.1-1.1.3.3.5.7.6 1.1.1.3.2.6.1.7zm0 0"/></svg>