<svg id="Layer_1" xmlns="http://www.w3.org/2000/svg" viewBox="0 0 50 44"><style>.st0{fill:#fff}</style><path class="st0" d="M24 27c-2.4 0-4.3-1.9-4.3-4.3s1.9-4.3 4.3-4.3 4.3 1.9 4.3 4.3S26.4 27 24 27zm0-6.9c-1.5 0-2.6 1.1-2.6 2.6s1.1 2.6 2.6 2.6 2.6-1.1 2.6-2.6c0-1.4-1.1-2.6-2.6-2.6z" transform="translate(1 1)"/><path class="st0" d="M24 33.9c-6.2 0-11.2-5-11.2-11.2s5-11.2 11.2-11.2 11.2 5 11.2 11.2-5 11.2-11.2 11.2zm0-20.7c-5.3 0-9.5 4.2-9.5 9.5s4.2 9.5 9.5 9.5 9.5-4.2 9.5-9.5-4.2-9.5-9.5-9.5z" transform="translate(1 1)"/><path class="st0" d="M26.8 21.5c-.3 0-.5-.1-.7-.3-.5-.7-1.3-1-2.1-1s-1.6.3-2.1 1c-.2.3-.5.4-.9.3-2.5-.6-4.7-1.8-6.2-3.4-5-5.3-5-13.6-.1-18.4.3-.3.9-.3 1.2 0 .3.3.3.9 0 1.2-4.3 4.1-4.2 11.3.1 15.9 1.2 1.3 2.9 2.3 4.8 2.8.8-.9 1.9-1.3 3-1.3 1.2 0 2.2.4 3 1.3 1.8-.5 3.5-1.5 4.8-2.8 2.2-2.2 3.3-4.9 3.4-7.9 0-3-1.1-5.9-3.3-7.9-.3-.3-.3-.9 0-1.2s.9-.3 1.2 0c2.6 2.3 4 5.6 3.9 9.1 0 3.4-1.4 6.7-3.8 9.1-1.7 1.7-3.9 2.8-6.2 3.4v.1z" transform="translate(1 1)"/><path class="st0" d="M36.1 42.6c-7.2 0-12.9-5.6-12.9-12.8 0-1.4.2-2.7.6-4 .1-.3.3-.5.7-.6 1.3-.2 2.2-1.2 2.2-2.5 0-.3-.1-.5-.2-.9-.1-.3 0-.6.2-.9 2.6-2.8 6-4.3 9.5-4.3 7.2 0 12.9 5.8 12.9 12.9 0 .5-.3.9-.9.9-.5 0-.9-.3-.9-.9 0-6.2-5-11.2-11.2-11.2-2.8 0-5.7 1.2-7.8 3.4.1.3.1.6.1.9 0 1.9-1.3 3.5-3 4.1-.3.9-.4 2-.4 3 0 6.1 4.9 10.9 11.2 10.9.5 0 .9.3.9.9-.2.7-.5 1.1-1 1.1z" transform="translate(1 1)"/><path class="st0" d="M11.9 42.6c-.5 0-.9-.3-.9-.9 0-.5.3-.9.9-.9 6.3 0 11.2-4.8 11.2-11 0-1-.2-2-.4-3-1.7-.5-3-2.2-3-4.1 0-.3 0-.6.1-.9-2.2-2.2-5-3.4-7.8-3.4-6.2 0-11.2 5-11.2 11.2 0 .5-.3.9-.9.9s-.9-.4-.9-.9c0-7.2 5.8-12.9 12.9-12.9 3.4 0 6.9 1.6 9.5 4.3.3.3.3.6.2.9-.1.3-.2.6-.2.9 0 1.3.9 2.3 2.2 2.5.3.1.6.3.7.6.4 1.3.6 2.6.6 4 0 7-5.7 12.7-13 12.7z" transform="translate(1 1)"/></svg>