<svg id="Layer_1" xmlns="http://www.w3.org/2000/svg" viewBox="0 0 72 52"><style>.st0{fill:#fff}</style><path class="st0" d="M30 14.1c-.3.2-.3.6-.1.9 0 0 3.2 4 3.9 16.4 0 .3.3.6.6.6s.6-.3.6-.6c-.8-12.8-4-17-4.2-17.1-.1-.4-.5-.4-.8-.2zm6-6.7s4.8-.1 7.4 3.2c.1.1.3.2.5.2.1 0 .3 0 .4-.1.3-.2.3-.6.1-.9-3-3.7-8-3.6-8.4-3.6-.3 0-5.4 0-8.4 3.6-.2.3-.2.6.1.9.1.1.2.1.4.1s.4-.1.5-.2C31.2 7.4 36 7.4 36 7.4zm6 6.7c-.3-.2-.6-.2-.9.1-.1.2-3.4 4.3-4.2 17.1 0 .3.2.6.6.6.3 0 .6-.2.6-.6.8-12.2 3.9-16.3 4-16.3.2-.3.1-.7-.1-.9zm0 0"/><path class="st0" d="M69.3 4.6c-2-1.7-4.5-2.5-7.3-2.2-2.3.3-4.7 1.3-6.8 2.8-2.6 1.9-5.4 3.3-8.5-.5C42.8 0 36.4 0 36 0c-.4 0-6.8 0-10.7 4.6-3.1 3.8-5.9 2.4-8.5.5-2.1-1.5-4.5-2.5-6.8-2.8-2.7-.2-5.3.5-7.3 2.3C.9 6.2.2 8.6.8 11.3c.7 3.1 2.9 5.8 5.4 6.5 2.1.6 4.5.3 5.1.2 1.6 2.2 3.7 2.9 6.1 2.1.7-.2 1-.4 1.9-.9.4-.2.9-.6 1.7-1 1.1-.6 2.2-1.2 3.1-1.7 1.1-.5 1.5-.5 1.6-.4.2.4 2 5 3.6 7.1 1.2 1.5 1 2.1.4 3.8-.1.3-.2.7-.3 1.1-.9 2.9-.5 4.7-.1 6 0 .1.1.3.1.4.4 1.2.8 2.4.7 4.3 0 1.2.4 3 .9 5 .4 1.9.9 3.8.8 4.9-.1 1.7-.3 2.3-.4 2.4-.2.2-.2.6.1.8.2.2.6.2.8 0 .8-.7 2.3-1.1 3.7-1.1 1.4 0 2.9.5 3.7 1.1.1.1.3.2.4.2.1 0 .3-.1.4-.2.2-.2.3-.5.1-.8 0-.1-.2-.7-.4-2.4-.1-1 .4-3 .8-4.9.5-2 .9-3.8.9-5-.1-2 .3-3.1.7-4.3 0-.1.1-.3.1-.4.4-1.3.8-3.1-.1-6-.1-.4-.2-.8-.3-1.1-.6-1.8-.8-2.4.4-3.8 1.6-2 3.4-6.6 3.6-7.1.1 0 .4-.1 1.6.4.9.4 2 1 3.1 1.7.8.4 1.3.8 1.7 1 .9.5 1.2.7 1.9.9 2.5.8 4.5.1 6.1-2.1.3.1 1.2.2 2.3.2.9 0 1.9-.1 2.8-.4 2.5-.7 4.7-3.4 5.4-6.5.6-2.7-.1-5.1-1.9-6.7zm-58.2 8.2c-2.6 0-5.3-2.1-5.5-3.8-.1-.8.4-1.3 1.5-1.6 4.4-1.2 6.8 1.2 8.9 3.2.9.9 1.7 1.7 2.6 2.1 2.4 1.2 3.9.4 5-.1.4-.2.7-.3.9-.4.2 0 .3-.1.3 0v.1c-2.3 2.1-5.2 2.3-6 1.7-2.4-1.4-4.1-1.9-5.4-1.9-1.1.1-1.9.4-2.3.7zm42.1 1.3c-.9.5-3.8.4-6-1.7 0 0-.1-.1 0-.1h.3c.3.1.6.2.9.4 1.1.6 2.7 1.3 5 .1.9-.5 1.7-1.3 2.6-2.1 2.1-2.1 4.4-4.4 8.9-3.2 1.1.2 1.6.7 1.5 1.5-.2 1.7-2.9 3.7-5.5 3.8-1-.6-3.3-1.4-7.7 1.3zm7.1-.2c.4.3.7 1.4-.3 2.9-.9 1.4-2.3 3.1-5.1 2.2-.6-.2-.8-.3-1.7-.8-.4-.2-1-.6-1.7-1-2.8-1.6-4.5-2.6-5.6-2.2-.3.1-.6.3-.7.7 0 0-1.9 4.8-3.4 6.8s-1.2 3.1-.6 5c.1.3.2.7.3 1.1.8 2.6.5 4.1.1 5.3 0 .1-.1.3-.1.4-.4 1.3-.9 2.6-.8 4.8 0 1-.4 2.9-.8 4.7-.2.9-.4 1.7-.5 2.5h-4c-.3 0-.6.3-.6.6s.3.6.6.6h3.8c-.2.2-.2.8-.2 1.2 0 .5.1 1 .1 1.4-.9-.4-2.1-.6-3.2-.6s-2.2.2-3.2.6c.1-.4.1-.8.1-1.4.1-1.2-.4-3.1-.8-5.2h4c.3 0 .6-.3.6-.6s-.3-.6-.6-.6h-4.2c-.2-1.1-.4-2.1-.5-2.9h3.4c.3 0 .6-.3.6-.6s-.3-.6-.6-.6h-3.5c0-1.9-.4-3.1-.8-4.2 0-.1-.1-.3-.1-.4-.4-1.2-.7-2.7.1-5.3.1-.4.2-.8.3-1.1.6-1.8 1-3-.6-5-1.5-2-3.4-6.7-3.4-6.8-.1-.3-.4-.6-.7-.7-1.1-.4-2.8.6-5.6 2.2-.8.5-1.3.8-1.7 1-.9.5-1.1.6-1.7.8-2.8.9-4.2-.8-5.1-2.2-.9-1.5-.6-2.6-.3-2.9 1-.7 3.2-.7 6.5 1.2 1.4.8 4.9.5 7.5-1.9.4-.4.5-1.1.3-1.6-.1-.3-.6-.8-1.7-.5-.4.1-.8.3-1.2.5-1 .5-2.1 1.1-3.9.1-.7-.4-1.5-1.1-2.3-1.9-2.1-2.1-4.9-4.9-10-3.6-2.4.7-2.5 2.3-2.4 3 .3 2 2.8 4.3 5.8 4.7-.3.8-.2 1.8.4 2.9-.9.5-2.6.6-4.1.1-2-.6-3.9-2.9-4.5-5.6-.3-1.3-.5-3.7 1.5-5.5 3.9-3.4 9.2-1.7 12.6.7 2 1.4 6 4.3 10.2-.7 3.5-4.3 9.6-4.2 9.7-4.2.1 0 6.2-.1 9.7 4.2 1.7 2.1 3.5 2.9 5.1 2.9 2.1 0 4-1.3 5.1-2.1 3.4-2.4 8.7-4.1 12.6-.7 2 1.8 1.8 4.2 1.5 5.6-.6 2.6-2.5 5-4.5 5.6-1.5.4-3.2.3-4.1.2.6-1.1.6-2.2.4-2.9 3-.4 5.5-2.7 5.8-4.7.1-.7.1-2.3-2.4-3-5.1-1.4-8 1.5-10 3.6-.8.8-1.5 1.6-2.3 1.9-1.8.9-2.9.4-3.9-.1-.4-.2-.8-.4-1.2-.5-1.1-.3-1.5.3-1.7.5-.3.5-.2 1.2.3 1.6 2.6 2.4 6.1 2.7 7.5 1.9 3.2-2.2 5.5-2.1 6.4-1.4zm0 0"/></svg>