<svg id="Layer_1" xmlns="http://www.w3.org/2000/svg" viewBox="0 0 54 52"><style>.st0{fill:#fff}.st1{fill:#05a1b0}</style><path class="st0" d="M52.6 44.6c-2.1-5.2-7-8.8-12.5-9.3-1.2-2.2-3-4.1-5.2-5.5-2.1-1.3-4.5-2.1-7-2.3v-5.7H32c8.2 0 15-6.7 15-15V1.7c0-.6-.5-1-1-1h-5.1C34.6.7 29.2 4.6 27 10.2 24.8 4.6 19.4.7 13 .7H7.9c-.6 0-1 .5-1 1v5.1c0 8.2 6.7 15 15 15H26v5.7c-2.5.2-4.9.9-7 2.3-2.2 1.4-3.9 3.3-5.2 5.5-5.5.5-10.4 4.1-12.5 9.3-.6 1.5-.4 3.2.5 4.5.9 1.4 2.4 2.2 4.1 2.2h42.2c1.6 0 3.1-.8 4.1-2.2.8-1.3 1-3 .4-4.5zM40.9 2.8H45v4.1c0 7.1-5.8 12.9-12.9 12.9h-2.6L40.8 8.5c.4-.4.4-1.1 0-1.5-.4-.4-1.1-.4-1.5 0L28 18.3v-2.6c0-7.1 5.8-12.9 12.9-12.9zm-32 4.1V2.8H13c7.1 0 12.9 5.8 12.9 12.9v2.6L14.6 7c-.4-.4-1.1-.4-1.5 0-.4.4-.4 1.1 0 1.5l11.3 11.3h-2.6C14.7 19.8 8.9 14 8.9 6.9zm30.5 30.5c5 .3 9.4 3.4 11.3 8 .3.9.2 1.8-.3 2.6s-1.4 1.2-2.3 1.2H5.8c-1 0-1.8-.5-2.3-1.2-.5-.8-.6-1.7-.3-2.6 1.9-4.6 6.3-7.8 11.3-8 .4 0 .7-.2.9-.6 2.2-4.4 6.6-7.2 11.6-7.2 4.4 0 8.3 2.1 10.7 5.7-1.1.1-2.1.3-3.2.6-.5.2-.9.7-.7 1.3.1.5.5.7 1 .7h.3c1.2-.3 2.4-.5 3.6-.5h.7z"/><path class="st0" d="M30.6 37.6c-.2.1-.3.2-.5.3-.5.3-.6 1-.3 1.4.2.3.5.4.8.4.2 0 .4-.1.6-.2.1-.1.3-.2.4-.3.5-.3.6-1 .3-1.4-.2-.3-.8-.5-1.3-.2z"/></svg>