<svg id="Layer_1" xmlns="http://www.w3.org/2000/svg" viewBox="0 0 195 109.8"><style>.st0{opacity:.2;fill:#fff}</style><path class="st0" d="M192.8 13.8c-5.9-10.4-52.2 0-63-3.7C119.1 6.4 119.5.2 97.4.2 80.2.2 75.8 6.4 65 10.1 54.3 13.8 8 3.4 2 13.8c-4.6 8-.3 15.7 3.7 20.2-.6.9-1 2-1 3.2-.1 1.1.3 2.4.8 3.4.7 1.3 1.8 2.2 3.1 2.8v.2c-.1 3.7 2.9 7.1 6.7 7.1 1.6 0 3.2-.6 4.4-1.5 1.2 2.2 3.5 3.8 6.1 3.8 3.9 0 7.2-3 7.3-6.9.1-1.8-.7-3.6-1.8-4.9.5-.5.9-1 1.3-1.6.8-1.4 1.3-2.8 1.4-4.4 0-1.5-.3-3-1-4.3l-.1-.2c-1.2-2.7-4.4-4.5-7.4-4.6-.9 0-1.7.1-2.5.3-1.5-1.3-3.6-2.1-5.5-2.2-1.5 0-3 .3-4.3 1l-1.7 1.2c-1.8-2.2-2.6-4.8.3-6.6 6.3-4.1 45.2-.4 50.7 2.2 5.6 2.6 3.3 29.3 17.8 37.4 0 0 5.9 7.3-1.9 20.3-7.8 13 7.4 30.2 7.4 30.2H109s15.2-17.3 7.4-30.2c-7.8-13-1.9-19.8-1.9-19.8 14.4-8.1 12.2-35.1 17.8-37.7 5.6-2.6 44.4-6.4 50.7-2.4 3.5 2.3 1.5 5.5-1 8-.3-.5-.7-.9-1.2-1.4l-1.8-1.3c-1.4-.7-2.8-1.1-4.3-1-1.9.1-4 .8-5.5 2.2-.8-.2-1.6-.3-2.5-.3-2.9.1-6.1 1.8-7.4 4.6l-.1.2c-.7 1.4-1.1 2.8-1 4.3.1 1.6.5 3.1 1.4 4.4.4.6.8 1.1 1.3 1.6-1.2 1.3-1.9 3.1-1.8 4.9.1 4 3.4 6.9 7.3 6.9 2.6 0 4.9-1.6 6.1-3.8 1.2.9 2.7 1.5 4.4 1.5 3.7 0 6.8-3.4 6.7-7.1v-.2c1.3-.6 2.4-1.5 3.1-2.8.5-1 .8-2.2.8-3.4 0-.5-.1-.9-.2-1.3 4.4-3.9 10.8-12.8 5.5-22z"/></svg>