<svg id="Layer_1" xmlns="http://www.w3.org/2000/svg" viewBox="0 0 300 126"><style>.st0,.st1{fill:#fff}.st1{opacity:.2}</style><path class="st0" d="M75.8 6h5.5c1.2 0 2.1.3 2.9.8.8.5 1.1 1.3 1.1 2.4 0 .7-.2 1.3-.6 1.8-.4.5-1 .9-1.6 1 .8.2 1.4.5 2 1s.8 1.2.8 2.1c0 1.2-.4 2.1-1.2 2.7-.8.6-1.9.9-3.1.9h-5.7V6zM77 7v4.6h4.1c.9 0 1.6-.2 2.2-.5s.9-.9.9-1.8c0-.5-.1-.9-.3-1.2-.2-.3-.5-.6-.8-.7-.3-.2-.7-.3-1.1-.3-.3 0-.8-.1-1.2-.1H77zm0 5.7v5.1h3.8c.5 0 1 0 1.4-.1s.8-.2 1.2-.4.7-.4.9-.8.3-.8.3-1.4c0-.5-.1-1-.3-1.3-.2-.4-.5-.6-.9-.8s-.8-.3-1.2-.3c-.4-.1-.8-.1-1.3-.1H77zM91.4 6h1.3l4.2 8.5 4.2-8.5h1.3l-5.1 10.6c-.5 1-1 1.7-1.4 2-.5.3-1.1.5-1.8.5-.4 0-.9-.1-1.3-.3v-1c.3.2.8.3 1.4.3.7 0 1.3-.6 1.9-1.8l.2-.3-4.9-10zm15.1 7.2l4.2 5.7h-1.4l-3.6-4.9-1.9 1.7v3.1h-1.1V9.6h1.1v4.7l5.1-4.7h1.5l-3.9 3.6zm6.2-3.6v1.8c.7-1.4 1.8-2.1 3.3-2.1 1.3 0 2.3.5 3 1.4s1.1 2.1 1.1 3.6-.4 2.6-1.1 3.5c-.8.9-1.8 1.3-3 1.3-1.6 0-2.7-.7-3.3-2v5.2h-1.1V9.6h1.1zm5.5 1.7c-.6-.7-1.3-1.1-2.3-1.1s-1.7.4-2.3 1.1c-.6.7-.8 1.7-.8 2.9s.3 2.2.9 2.9 1.3 1.1 2.3 1.1c.9 0 1.7-.4 2.3-1.1.6-.7.9-1.7.9-2.9-.1-1.2-.4-2.2-1-2.9zm11.9 6.6v.9c-.3.1-.6.1-.9.1-.5 0-.8-.1-1-.4-.2-.3-.2-.7-.2-1.2-.8 1.2-1.9 1.9-3.5 1.9-.9 0-1.7-.2-2.2-.7-.5-.5-.8-1.1-.8-1.9 0-1.7 1.1-2.6 3.4-2.9h1.8c.1 0 .2 0 .3-.1.1 0 .2 0 .3-.1.1 0 .1-.1.2-.1s.1-.1.2-.1c.2-.1.3-.4.3-.9 0-.7-.2-1.2-.6-1.5-.4-.3-1-.4-1.8-.4s-1.4.2-1.8.5c-.4.4-.7.9-.7 1.6H122c0-1 .4-1.8 1-2.3.6-.5 1.5-.8 2.7-.8 1.1 0 1.9.2 2.5.7.6.5.9 1.1.9 2v5.5c0 .1.1.2.2.3s.2.1.4.1c.1-.1.3-.2.4-.2zm-2.2-4.1c-.1.1-.3.2-.5.3-.2.1-.5.1-.7.2-.2 0-.6.1-1 .1h-.3c-.4 0-.7.1-.9.2-.2.1-.5.2-.8.3-.3.1-.6.3-.7.6s-.2.5-.2.9c0 .5.2 1 .6 1.3.4.3.9.5 1.5.5.9 0 1.6-.3 2.2-.8s.9-1.2.9-2.1v-1.5zm10.9 5h-1.1v-7.9l-5 7.9h-1.4V9.6h1.1v7.9l5-7.9h1.4v9.2zm9.7 0h-1.1v-4.4h-5.3v4.4H141V9.6h1.1v3.9h5.3V9.6h1.1v9.2zm9.9-3c-.2 1-.6 1.9-1.3 2.5-.7.6-1.6.9-2.6.9-1.3 0-2.3-.4-3.1-1.3-.8-.9-1.2-2-1.2-3.5s.4-2.7 1.2-3.6c.8-.9 1.8-1.4 3.1-1.4s2.3.5 3 1.4c.7.9 1.1 2.1 1.1 3.4v.3h-7.1c0 1.1.3 2 .8 2.7.5.7 1.3 1.1 2.3 1.1 1.5 0 2.5-.8 2.8-2.4h1zm-1.1-2.3c-.1-1-.4-1.8-.9-2.4-.5-.6-1.2-.9-2.1-.9-.9 0-1.6.3-2.1.9-.5.6-.8 1.4-.9 2.4h6zm15.2 5.3h-1.1v-4.4h-5.3v4.4H165V9.6h1.1v3.9h5.3V9.6h1.1v9.2zm10.3-.9v.9c-.3.1-.6.1-.9.1-.5 0-.8-.1-1-.4-.2-.3-.2-.7-.2-1.2-.8 1.2-1.9 1.9-3.5 1.9-.9 0-1.7-.2-2.2-.7-.5-.5-.8-1.1-.8-1.9 0-1.7 1.1-2.6 3.4-2.9h1.8c.1 0 .2 0 .3-.1.1 0 .2 0 .3-.1.1 0 .1-.1.2-.1s.1-.1.2-.1c.2-.1.3-.4.3-.9 0-.7-.2-1.2-.6-1.5-.4-.3-1-.4-1.8-.4s-1.4.2-1.8.5c-.4.4-.7.9-.7 1.6h-1.1c0-1 .4-1.8 1-2.3.6-.5 1.5-.8 2.7-.8 1.1 0 1.9.2 2.5.7.6.5.9 1.1.9 2v5.5c0 .1.1.2.2.3s.2.1.4.1c.1-.1.3-.2.4-.2zm-2.2-4.1c-.1.1-.3.2-.5.3-.2.1-.5.1-.7.2-.2 0-.6.1-1 .1h-.3c-.4 0-.7.1-.9.2-.2.1-.5.2-.8.3-.3.1-.6.3-.7.6s-.2.5-.2.9c0 .5.2 1 .6 1.3.4.3.9.5 1.5.5.9 0 1.6-.3 2.2-.8s.9-1.2.9-2.1v-1.5zm15.6-4.2l-3.6 9.6c-.5 1.2-.9 2.1-1.2 2.5-.3.4-.9.7-1.5.7-.3 0-.6 0-1-.1v-1c.3.1.6.1.8.1.5 0 .8-.2 1-.5.2-.3.5-.9.8-1.7.1-.2.1-.3.1-.4l-3.7-9.2h1.2l2.5 6.4c.1.3.3.8.6 1.6.3-1 .5-1.6.6-1.8l2.3-6.2h1.1zm6.9 4.8c-1 .4-2.1.6-3.2.6-1 0-1.7-.2-2.2-.7S197 13 197 12V9.6h1.1v2.5c0 .4.1.8.2 1 .1.3.3.5.5.6.2.1.4.2.6.2h.7c1 0 2-.2 2.9-.6V9.6h1.1v9.3H203v-4.5zm11 1.4c-.2 1-.6 1.9-1.3 2.5-.7.6-1.6.9-2.6.9-1.3 0-2.3-.4-3.1-1.3-.8-.9-1.2-2-1.2-3.5s.4-2.7 1.2-3.6c.8-.9 1.8-1.4 3.1-1.4s2.3.5 3 1.4c.7.9 1.1 2.1 1.1 3.4v.3H207c0 1.1.3 2 .8 2.7.5.7 1.3 1.1 2.3 1.1 1.5 0 2.5-.8 2.8-2.4h1.2zm-1.1-2.3c-.1-1-.4-1.8-.9-2.4-.5-.6-1.2-.9-2.1-.9-.9 0-1.6.3-2.1.9-.5.6-.8 1.4-.9 2.4h6zm9.3-3h-3.4v8.3h-1.1v-8.3h-3.4v-1h8v1zm8.4 5.3c-.2 1-.6 1.9-1.3 2.5-.7.6-1.6.9-2.6.9-1.3 0-2.3-.4-3.1-1.3-.8-.9-1.2-2-1.2-3.5s.4-2.7 1.2-3.6c.8-.9 1.8-1.4 3.1-1.4s2.3.5 3 1.4c.7.9 1.1 2.1 1.1 3.4v.3h-7.1c0 1.1.3 2 .8 2.7.5.7 1.3 1.1 2.3 1.1 1.5 0 2.5-.8 2.8-2.4h1zm-1-2.3c-.1-1-.4-1.8-.9-2.4-.5-.6-1.2-.9-2.1-.9-.9 0-1.6.3-2.1.9-.5.6-.8 1.4-.9 2.4h6zm15.4 2c-.2 1.1-.6 1.9-1.3 2.6-.7.7-1.6 1-2.7 1-1.3 0-2.3-.4-3.1-1.3-.8-.9-1.2-2-1.2-3.5s.4-2.7 1.2-3.6c.8-.9 1.8-1.4 3.1-1.4 1.1 0 1.9.3 2.6.8s1.1 1.3 1.2 2.3h-1.2c-.3-1.5-1.2-2.3-2.6-2.3-1 0-1.7.4-2.3 1.1-.6.7-.9 1.7-.9 2.9s.3 2.2.8 2.9c.6.7 1.3 1.1 2.2 1.1.8 0 1.4-.2 1.9-.7s.8-1.1.9-2h1.4zm5.6-6.2c1.3 0 2.4.4 3.2 1.3.8.9 1.2 2.1 1.2 3.6s-.4 2.7-1.2 3.6c-.8.9-1.8 1.3-3.2 1.3-1.3 0-2.4-.4-3.2-1.3-.8-.9-1.2-2.1-1.2-3.6s.4-2.7 1.2-3.6 1.8-1.3 3.2-1.3zm2.3 2c-.6-.7-1.4-1.1-2.4-1.1s-1.8.4-2.4 1.1c-.6.7-.9 1.7-.9 2.9s.3 2.2.9 2.9 1.4 1.1 2.4 1.1 1.8-.4 2.3-1.1.9-1.7.9-2.9-.2-2.2-.8-2.9zm11.5 4.2c-.2 1.1-.6 1.9-1.3 2.6-.7.7-1.6 1-2.7 1-1.3 0-2.3-.4-3.1-1.3-.8-.9-1.2-2-1.2-3.5s.4-2.7 1.2-3.6c.8-.9 1.8-1.4 3.1-1.4 1.1 0 1.9.3 2.6.8s1.1 1.3 1.2 2.3h-1.2c-.3-1.5-1.2-2.3-2.6-2.3-1 0-1.7.4-2.3 1.1-.6.7-.9 1.7-.9 2.9s.3 2.2.8 2.9c.6.7 1.3 1.1 2.2 1.1.8 0 1.4-.2 1.9-.7s.8-1.1.9-2h1.4zm8.5-5h-3.4v8.3h-1.1v-8.3H265v-1h8v1zm4.7-1.2c1.3 0 2.4.4 3.2 1.3.8.9 1.2 2.1 1.2 3.6s-.4 2.7-1.2 3.6c-.8.9-1.8 1.3-3.2 1.3-1.3 0-2.4-.4-3.2-1.3-.8-.9-1.2-2.1-1.2-3.6s.4-2.7 1.2-3.6 1.8-1.3 3.2-1.3zm2.3 2c-.6-.7-1.4-1.1-2.4-1.1s-1.8.4-2.4 1.1c-.6.7-.9 1.7-.9 2.9s.3 2.2.9 2.9 1.4 1.1 2.4 1.1 1.8-.4 2.3-1.1.9-1.7.9-2.9-.2-2.2-.8-2.9zm10.9 7.5h-1.1v-3.9h-2.3l-3.3 3.9h-1.5l3.4-3.9c-.8-.1-1.5-.3-2-.8s-.7-1.1-.7-1.9c0-.8.3-1.5.8-1.9.5-.5 1.2-.7 2-.7h4.7v9.2zm-1.1-8.3h-3.3c-.6 0-1.1.2-1.4.5-.3.3-.5.7-.5 1.3s.2 1 .5 1.3c.3.3.8.5 1.4.5h3.3v-3.6zm10.2 0h-3.4v8.3h-1.1v-8.3H292v-1h8v1zM18.2 43.4h-4.9c-.5-1.9-1.6-2.8-3.4-2.8-2.8 0-4.4 2.5-4.8 7.5 1.4-1.9 3.3-2.8 5.6-2.8s4.2.8 5.7 2.3c1.5 1.6 2.2 3.6 2.2 6 0 2.6-.8 4.8-2.5 6.4-1.7 1.7-3.8 2.5-6.5 2.5-3 0-5.3-1.1-7-3.3C1 57 .2 53.9.2 50c0-4.2.9-7.4 2.6-9.8 1.8-2.4 4.2-3.5 7.2-3.5 2.3 0 4.1.6 5.6 1.8 1.4 1.1 2.2 2.7 2.6 4.9zM9.6 49c-1.2 0-2.1.4-2.8 1.3-.7.9-1.1 2-1.1 3.3-.1 1.4.3 2.5 1 3.4.7.9 1.7 1.3 2.9 1.3s2.1-.4 2.9-1.3c.8-.9 1.2-2 1.2-3.3 0-1.3-.4-2.5-1.2-3.3-.8-1-1.7-1.4-2.9-1.4zm19.8-12.3c1.4 0 2.6.3 3.7.8s2 1.2 2.6 2.1c.7.8 1.2 1.8 1.7 3 .4 1.2.8 2.3.9 3.5.2 1.2.3 2.4.3 3.6 0 4-.8 7.2-2.4 9.4-1.6 2.3-3.9 3.4-6.7 3.4-2.9 0-5.2-1.1-6.9-3.4-1.6-2.3-2.5-5.4-2.5-9.4 0-1.6.2-3.1.5-4.6.3-1.4.8-2.8 1.5-4.1.7-1.3 1.6-2.3 2.9-3.1 1.2-.8 2.6-1.2 4.4-1.2zm-.1 4.2c-.7 0-1.3.1-1.8.4-.5.3-.9.7-1.2 1.3-.3.6-.5 1.1-.7 1.6-.2.5-.3 1.2-.4 2-.1.8-.1 1.5-.1 1.9v1.7c0 5.6 1.4 8.5 4.2 8.5 2.8 0 4.2-2.9 4.2-8.7 0-3-.3-5.2-1-6.6-.7-1.4-1.7-2.1-3.2-2.1zm30.1-4.2c1.4 0 2.6.3 3.7.8s2 1.2 2.6 2.1c.7.8 1.2 1.8 1.7 3 .4 1.2.8 2.3.9 3.5.2 1.2.3 2.4.3 3.6 0 4-.8 7.2-2.4 9.4-1.6 2.3-3.9 3.4-6.7 3.4-2.9 0-5.2-1.1-6.9-3.4-1.6-2.3-2.5-5.4-2.5-9.4 0-1.6.2-3.1.5-4.6.3-1.4.8-2.8 1.5-4.1.7-1.3 1.6-2.3 2.9-3.1 1.2-.8 2.7-1.2 4.4-1.2zm-.1 4.2c-.7 0-1.3.1-1.8.4-.5.3-.9.7-1.2 1.3-.3.6-.5 1.1-.7 1.6-.2.5-.3 1.2-.4 2-.1.8-.1 1.5-.1 1.9v1.7c0 5.6 1.4 8.5 4.2 8.5 2.8 0 4.2-2.9 4.2-8.7 0-3-.3-5.2-1-6.6-.6-1.4-1.7-2.1-3.2-2.1zm20.1-4.2c1.4 0 2.6.3 3.7.8s2 1.2 2.6 2.1c.7.8 1.2 1.8 1.7 3 .4 1.2.8 2.3.9 3.5.2 1.2.3 2.4.3 3.6 0 4-.8 7.2-2.4 9.4-1.6 2.3-3.9 3.4-6.7 3.4-2.9 0-5.2-1.1-6.9-3.4-1.6-2.3-2.5-5.4-2.5-9.4 0-1.6.2-3.1.5-4.6.3-1.4.8-2.8 1.5-4.1.7-1.3 1.6-2.3 2.9-3.1 1.2-.8 2.7-1.2 4.4-1.2zm0 4.2c-.7 0-1.3.1-1.8.4-.5.3-.9.7-1.2 1.3-.3.6-.5 1.1-.7 1.6-.2.5-.3 1.2-.4 2-.1.8-.1 1.5-.1 1.9v1.7c0 5.6 1.4 8.5 4.2 8.5 2.8 0 4.2-2.9 4.2-8.7 0-3-.3-5.2-1-6.6-.7-1.4-1.8-2.1-3.2-2.1zm20-4.2c1.4 0 2.6.3 3.7.8s2 1.2 2.6 2.1c.7.8 1.2 1.8 1.7 3 .4 1.2.8 2.3.9 3.5.2 1.2.3 2.4.3 3.6 0 4-.8 7.2-2.4 9.4-1.6 2.3-3.9 3.4-6.7 3.4-2.9 0-5.2-1.1-6.9-3.4-1.6-2.3-2.5-5.4-2.5-9.4 0-1.6.2-3.1.5-4.6.3-1.4.8-2.8 1.5-4.1.7-1.3 1.6-2.3 2.9-3.1 1.2-.8 2.7-1.2 4.4-1.2zm0 4.2c-.7 0-1.3.1-1.8.4-.5.3-.9.7-1.2 1.3-.3.6-.5 1.1-.7 1.6-.2.5-.3 1.2-.4 2-.1.8-.1 1.5-.1 1.9v1.7c0 5.6 1.4 8.5 4.2 8.5 2.8 0 4.2-2.9 4.2-8.7 0-3-.3-5.2-1-6.6-.7-1.4-1.8-2.1-3.2-2.1zm33.5 10L126 62h-6.9l10.3-15.2-9.4-10.4h6.8l8.9 10.5V36.4h5.4v10.5l8.9-10.5h6.8l-9.3 10.5L157.7 62h-7l-6.8-11.2-2.8 3.1v8h-5.4v-8l-2.8-3zM179 36.4V41h-13.6v5.6h12.5V51h-12.5v6.3h13.9V62h-19.5V36.4H179zm25.9 0V62h-5.6V51h-10.5v11h-5.6V36.4h5.6V46h10.5v-9.6h5.6zm41.6 32.2h-5.4V62h-31.3V36.4h5.6v20.8h8.5V36.4h5.6v20.8h8.5V36.4h5.6v20.8h2.8v11.4zm24.3-32.2V62h-5.6V44.2h-.1L255.5 62h-6.3V36.4h5.6v17.7h.1l9.6-17.7h6.3zm26.7 0V62h-5.6V51h-10.5v11h-5.6V36.4h5.6V46h10.5v-9.6h5.6zM36.4 77.9c.9 1 1.3 2.3 1.3 4 0 1.7-.5 3.1-1.4 4.1s-2.1 1.5-3.6 1.5c-1 0-1.8-.2-2.4-.5-.7-.4-1.2-.9-1.6-1.5-.4-.6-.6-1.3-.8-2.1s-.2-1.5-.2-2.4c0-2.8.4-4.9 1.3-6.3.5-.7 1.1-1.3 1.7-1.6.7-.3 1.6-.5 2.6-.6l1-.1c.5 0 .9-.1 1.1-.2s.4-.2.4-.4h1.5c-.1.6-.4 1-.8 1.3s-1.1.4-2.1.5l-1.6.1c-1.2.1-2.2.5-2.8 1.3-.7.8-1.1 2-1.3 3.7h.1c.4-.7.9-1.3 1.6-1.8.7-.4 1.5-.7 2.4-.7 1.5.2 2.7.7 3.6 1.7zm0 4c0-1.3-.3-2.4-1-3.2s-1.6-1.2-2.6-1.2c-1.1 0-2 .4-2.7 1.2s-1 1.9-1 3.2c0 1.3.3 2.4 1 3.3s1.6 1.3 2.7 1.3 2-.4 2.7-1.3c.6-.9.9-2 .9-3.3zm7.9-5.8c1.6 0 2.8.5 3.7 1.6.9 1 1.4 2.4 1.4 4.2 0 1.8-.5 3.1-1.4 4.1-.9 1-2.1 1.5-3.7 1.5s-2.8-.5-3.7-1.5-1.4-2.4-1.4-4.2c0-1.7.5-3.1 1.4-4.2.9-1 2.2-1.5 3.7-1.5zm2.8 2.4c-.7-.8-1.6-1.2-2.8-1.2-1.1 0-2.1.4-2.8 1.2-.7.8-1 2-1 3.3 0 1.4.3 2.6 1 3.4.7.8 1.6 1.2 2.8 1.2 1.1 0 2.1-.4 2.7-1.2.7-.8 1-1.9 1-3.4s-.2-2.5-.9-3.3zm12.6 8.7h-1.3v-9.7H54l-.2 5.5c-.1 1.6-.3 2.7-.8 3.4s-1.1 1.1-2 1.1c-.4 0-.8-.1-1.2-.2v-1.1c.3.1.6.2 1.2.2.9 0 1.4-1.1 1.5-3.4l.2-6.5h7v10.7zm2.5-10.8h1.3v4.2h4.1c1 0 1.9.3 2.5.9.6.6.9 1.4.9 2.4s-.3 1.8-.9 2.4c-.6.6-1.4.9-2.5.9h-5.4V76.4zm7.5 7.5c0-.7-.2-1.2-.6-1.6s-1-.6-1.8-.6h-3.8V86h3.8c.8 0 1.4-.2 1.8-.6s.6-.8.6-1.5zm11.8 3.3h-1.3v-5.1H74v5.1h-1.3V76.4H74V81h6.2v-4.6h1.3v10.8zm2.4-10.8h1.3v4.2h3.5c1 0 1.9.3 2.5.9.6.6.9 1.4.9 2.4s-.3 1.8-.9 2.4c-.6.6-1.4.9-2.5.9h-4.8V76.4zm6.9 7.5c0-.7-.2-1.2-.6-1.6s-1-.6-1.8-.6h-3.2V86h3.2c.8 0 1.4-.2 1.8-.6s.6-.8.6-1.5zm3.4-7.5h1.3v10.8h-1.3V76.4zm12.2 0l-3.8 5 4.3 5.8h-1.7l-2.9-3.9c0-.1-.1-.1-.2-.2s-.1-.2-.2-.3c-.1-.1-.1-.2-.2-.3-.2.3-.3.5-.5.8l-2.9 4h-1.6l4.2-5.7-3.9-5.1h1.7l2.3 3.2c.1.1.2.3.3.5.1.2.3.4.3.5.4-.6.6-.9.7-1l2.4-3.2h1.7zm8.8 0v2.1c.8-1.6 2.1-2.4 3.9-2.4 1.5 0 2.6.5 3.5 1.6.9 1.1 1.3 2.4 1.3 4.2 0 1.7-.4 3.1-1.3 4.1-.9 1-2.1 1.6-3.5 1.6-1.8 0-3.1-.8-3.8-2.3v6H114V76.4h1.2zm6.4 2.1c-.7-.8-1.6-1.3-2.7-1.3s-2 .4-2.7 1.2c-.7.8-1 2-1 3.4s.3 2.5 1 3.4c.7.8 1.6 1.2 2.7 1.2s2-.4 2.7-1.3 1-1.9 1-3.3-.4-2.5-1-3.3zm13.8 7.6v1c-.3.1-.7.2-1.1.2-.6 0-1-.2-1.1-.5s-.2-.8-.2-1.5c-.9 1.4-2.3 2.2-4.1 2.2-1.1 0-2-.3-2.6-.8s-.9-1.3-.9-2.2c0-1.9 1.3-3.1 4-3.3.1 0 .3 0 .6-.1.3 0 .4 0 .6-.1s.3 0 .5-.1c.2 0 .3 0 .4-.1.1 0 .2 0 .3-.1.1 0 .2-.1.3-.1s.2-.1.2-.1l.2-.1c.3-.2.4-.5.4-1 0-.9-.2-1.5-.7-1.8-.5-.3-1.2-.5-2.1-.5-.9 0-1.6.2-2.1.6-.5.4-.8 1.1-.9 1.9h-1.3c.1-1.2.5-2.1 1.2-2.7.8-.6 1.8-.9 3.1-.9 1.2 0 2.2.3 2.9.8.7.5 1.1 1.3 1.1 2.3v6.5c0 .1.1.2.2.3.1.1.3.2.5.2.3.1.5.1.6 0zm-2.5-4.8c-.1.1-.3.3-.6.3-.3.1-.5.2-.8.2s-.6.1-1.2.2h-.3c-.4.1-.8.1-1.1.2-.3.1-.6.2-1 .3-.4.2-.7.4-.8.7-.2.3-.3.6-.3 1.1 0 .6.2 1.1.7 1.5.4.4 1 .6 1.8.6 1 0 1.9-.3 2.6-.9.7-.6 1.1-1.4 1.1-2.4v-1.8zm8.5-.7l4.9 6.6h-1.7l-4.2-5.7-2.2 2v3.7h-1.3V76.4h1.3v5.5l6-5.5h1.8l-4.6 4.2zm10.6-4.5c1.6 0 2.8.5 3.7 1.6.9 1 1.4 2.4 1.4 4.2 0 1.8-.5 3.1-1.4 4.1-.9 1-2.1 1.5-3.7 1.5s-2.8-.5-3.7-1.5-1.4-2.4-1.4-4.2c0-1.7.5-3.1 1.4-4.2.9-1 2.1-1.5 3.7-1.5zm2.7 2.4c-.7-.8-1.6-1.2-2.8-1.2-1.1 0-2.1.4-2.8 1.2-.7.8-1 2-1 3.3 0 1.4.3 2.6 1 3.4.7.8 1.6 1.2 2.8 1.2 1.1 0 2.1-.4 2.7-1.2.7-.8 1-1.9 1-3.4s-.2-2.5-.9-3.3zm15.9 8.7h-1.3v-8.9h-.1l-3.8 8.9h-1.2l-3.8-8.9h-.1v8.9H159V76.4h1.8l4 9.3 4-9.3h1.8v10.8zm8.3 0V76.4h1.3v9.7h5.1v-9.7h1.3v9.7h5.1v-9.7h1.3v10.8h-14.1zm25.5-3.5c-.2 1.2-.8 2.2-1.6 2.9s-1.8 1-3.1 1c-1.5 0-2.7-.5-3.6-1.5s-1.4-2.4-1.4-4.1c0-1.7.5-3.1 1.4-4.2.9-1.1 2.1-1.6 3.6-1.6s2.7.5 3.5 1.6c.8 1.1 1.2 2.4 1.2 4v.4h-8.3c0 1.2.3 2.3.9 3.1.6.8 1.5 1.3 2.7 1.3 1.8 0 2.9-.9 3.3-2.8h1.4zm-1.2-2.6c-.1-1.2-.4-2.1-1-2.8-.6-.7-1.4-1-2.4-1-1.1 0-1.9.4-2.5 1.1-.6.7-.9 1.6-1.1 2.8h7zm11.9 6.1h-1.3V78l-5.8 9.2h-1.6V76.4h1.3v9.2l5.8-9.2h1.6v10.8zm-7.4-15h.8c.1.5.3 1 .7 1.3.4.3.9.5 1.5.5s1.1-.2 1.5-.5c.4-.3.6-.7.7-1.3h.8c-.3 1.8-1.3 2.7-3.1 2.7-.9 0-1.6-.2-2-.7-.4-.4-.7-1.1-.9-2zm14.4 8.4l4.9 6.6h-1.7l-4.2-5.7-2.2 2v3.7h-1.3V76.4h1.3v5.5l6-5.5h1.8l-4.6 4.2zm14.8 6.6h-1.3V78l-5.8 9.2h-1.6V76.4h1.3v9.2l5.8-9.2h1.6v10.8zm19.9 0h-1.3v-8.9h-.1l-3.8 8.9h-1.2l-3.8-8.9h-.1v8.9h-1.3V76.4h1.8l4 9.3 4-9.3h1.8v10.8zm11.9-1.1v1c-.3.1-.7.2-1.1.2-.6 0-1-.2-1.1-.5s-.3-.8-.3-1.4c-.9 1.4-2.3 2.2-4.1 2.2-1.1 0-2-.3-2.6-.8s-.9-1.3-.9-2.2c0-1.9 1.3-3.1 4-3.3.1 0 .3 0 .6-.1.3 0 .4 0 .6-.1s.3 0 .5-.1c.2 0 .3 0 .4-.1.1 0 .2 0 .3-.1.1 0 .2-.1.3-.1s.2-.1.2-.1l.2-.1c.3-.2.4-.5.4-1 0-.9-.2-1.5-.7-1.8-.5-.3-1.2-.5-2.1-.5-.9 0-1.6.2-2.1.6-.5.4-.8 1.1-.9 1.9H259c.1-1.2.5-2.1 1.2-2.7.8-.6 1.8-.9 3.1-.9 1.2 0 2.2.3 2.9.8.7.5 1.1 1.3 1.1 2.3v6.5c0 .1.1.2.2.3.1.1.3.2.5.2.4 0 .6 0 .7-.1zm-2.5-4.8c-.1.1-.3.3-.6.3-.3.1-.5.2-.8.2s-.6.1-1.2.2h-.3c-.4.1-.8.1-1.1.2-.3.1-.6.2-1 .3-.4.2-.7.4-.8.7-.2.3-.3.6-.3 1.1 0 .6.2 1.1.7 1.5.4.4 1 .6 1.8.6 1 0 1.9-.3 2.6-.9.7-.6 1.1-1.4 1.1-2.4v-1.8zm12-3.8h-4v9.7h-1.3v-9.7h-4v-1.1h9.3v1.1zm5.8 3.1l4.9 6.6h-1.7l-4.2-5.7-2.2 2v3.7h-1.3V76.4h1.3v5.5l6-5.5h1.8l-4.6 4.2zm14.8 6.6h-1.3V78l-5.8 9.2H290V76.4h1.3v9.2l5.8-9.2h1.6v10.8z"/><path class="st1" d="M71 64.2v-2c0-2.1 1.9-3.7 2.4-5.8.3-1.1 1-2.1 2.3-2.4.4-.1 1-.4.9-.8-.5-1.4.3-2.8-.2-4.1-1.1-3 .4-5.2 2.3-7.2 2.5-2.7 5.1-5.4 7.6-8.2.5-.6 1.2-.8 1.8-1 2-.7 2.6-1.9 1.8-3.8-.5-1.2-1.2-2.3-.1-3.6.5-.6.1-1.3-.5-1.7-1.3-.9-1.7-2.2-2.2-3.6-.5-1.6-1-3.1-1.7-4.6-.5-.9-.6-2 .1-2.8.8-.8 1.8-.9 2.9-.5 1.9.6 2.6.3 3.7-1.4 1.2-2.1 2.9-3.4 5.5-2.9.8.1 1.5-.2 2.2-.5 1.5-.5 3-.6 4.5-.1 1.3.4 2.5.5 3.9.3 1.9-.3 3.6-.2 5.4.8 2.6 1.4 5.6 1.9 8.5 2 1 0 1.7.3 2.4 1.1 1.3 1.7 3.3 1.4 5.1 1.3.7-.1 1.5-.4 2.2-.1 1.1.5 1.8-.8 2.7-.7 1 .1 1.2 1.4 2.3 1.6 2.1.3 4 .3 6-.5 1.7-.6 2.2-.3 2.8 1.4.4 1.2 1.1 1.3 2.3 1 2.4-.6 4.8-.4 7.3-.3.7 0 .9.8 1.2 1.3.2.3.4.7.9.6.5 0 .7-.4.9-.9.2-.5.3-1.1.2-1.6-.2-1.9.6-3.4 1.7-4.8.9-1.1 1.6-2.2 1.9-3.6.2-.6.4-1.3 1.1-1.2 2.1.1 4-1 6.2-.8 1.5.1 3.1.2 4.5.6 1.3.4 2.2.1 2.7-1.2.6-1.7 1.7-2.9 3.7-2.7.4 0 .9-.1 1.2.3 1 .8 2 .8 3.2.3 1.5-.6 3-1 4.7-.5 1.1.3 2.3-.5 3.4-.5h.3c1.3 1 2.3 1.3 3.1 2.4.6.8 1 1.5 1 2.5 0 1.1.5 2 1.7 2.3 1.6.4 1.4 1.9 1.7 3 .2 1-.2 1.5-1.1 1.9-.7.3-.9.9-.7 1.6.1.4.2.9.3 1.3.6 3.2 2.1 4.3 5.3 3.8.6-.1 1.2-.3 1.8-.2.7.1 1.2.3 1.3 1 .2 1.1.8 1.6 2 1.4.6-.1.9.4 1 .9.6 2.7.9 5.4 1.2 8.1.2 1.8.9 2.5 2.6 2 1.7-.5 3.1-.6 4.7.9 1.3 1.2 3.5 1.9 5.6.7.9-.5 2-.9 3.1-.9.3 0 .7 0 1-.2 2.1-1.4 3.6-.7 4.7 1.4.3.5.7.9.7 1.6 0 1.9 1.2 2.8 2.7 3.6.8.4 1.3.3 1.7-.6.6-1.2 1.4-1.4 2.4-.5 1.5 1.5 3.8 1.5 5.3 3 .5.5 1.3.3 1.9 0 1-.5 1.8-.3 2.4.7.5.9 1.2 1.2 2.2 1.2.9 0 1.6.2 2 1.2.4 1.1 1.3 1.4 2.4 1.2.5-.1 1-.1 1.5-.1.9 0 1.3.6 1 1.4-.6 1.4.5 2.7.5 4v1.3c-1 1.3-1.7 2.5-2.7 3.7 2.3 1.3 2.3 2.3.3 3.9-1.7 1.4-1.7 1.6-.7 3.5 1.4 2.4 2 4.9.3 7.4-.5.7-.5 1.5-.6 2.4-.2 1.9-1.4 2.9-3.2 2.4-2-.5-4-.4-6-.3-.7 0-1.3.3-1.6 1-.5 1.4-1.6 1.9-3 2.2-1.8.4-2.4 1.1-1.8 2.8.8 2.2-.6 3.8-1.3 5.5-.4 1-1.4 1.5-2.6 1.1-.5-.2-1.1-.2-1.6-.4-1.9-.5-3.5-.4-4.4 1.6-.3.6-.8.9-1.5.7-1.5-.3-2.5.4-3.5 1.4-.4.5-1 .9-1.4 1.4-.8.9-1.5 1.2-2.5.2-.8-.7-1.6-.4-2.1.4-1 1.3-1.9 1.7-3.5.8-1.1-.7-2.2-.2-3.2.6-.6.5-1.3 1-2 1.3-1.3.5-1.8.2-2.2-1.3v.3c.2.8 1.5 1.4.9 2.3-1.1 1.5-1.4 3.5-3.3 4.4-.5.2-1 .8-1.6.2-.6-.6-.6-1.4-.1-2.1.4-.5.9-1 1.5-1.4-.6.6-1.3 1.2-2.1 1.6-2.5 1.7-2.7 4.3-.2 6 1.8 1.2 3 2.4 3.1 4.6 0 .8.8 1.1 1.5 1.1 1.3-.1 2.7 0 3.7-1 .7-.7 1.5-1.1 2.5-.7.5.2 1 0 1.4-.1 1.4-.4 2.7-.1 4 .3 1.2.4 1.8 1.7 1.2 2.9-.3.6-.6 1.2-.8 1.8-.6 2.2-.9 2.5-3.1 2.6-1 .1-2 0-2.9.3-.9.3-1.5-.4-2.2-.9-.5-.3-1-.8-1.5-.4-.6.5.2.8.4 1.2.4.9.1 1.7-.9 1.8-1.5.1-2.9.2-4.2 1.1-.3.2-.7.1-1.1 0-2.1-.4-4.1.1-5.3 1.9-1.8 2.6-4 3.9-7.1 3.9h-1c-1.2-1-2.3-1.4-3.3-2.1-1.3-.9-1.3-1.6-.3-2.8.7-.9 1.3-1.7 1.6-2.9.3-1.7-.5-2.8-2.2-2.9-2.1-.2-3.2-1.6-4.2-3.5-.5.1-1 .5-1.6.7-1.4.4-2.9-.2-3.3-1.4-.3-.8.6-2.3 1.9-2.7.9-.3 1.6-.7 2.1-1.5.4-.6 1.1-.9 1.7-1.2 1.6-.8 3.2-1.6 4.9-2.4.3-.2.8-.3.8-.7 0-.6-.5-.4-.9-.5-3-1.4-5.9-1.1-8.9-.2-1.5.5-3-.2-4.1-1.3-1-1-2.1-1.7-3.5-2-.6-.1-1.3-.3-1.2-1 0-.8.7-1.3 1.3-1.5.7-.2 1.4-.1 1.6-1 .2-.4.2-.8.2-1.2-.2-.6-.8-.9-1.3-.7-1.3.5-2.7-.1-4 .2-1.1.2-1.1-.3-.8-1.1-.4 1.4-1.5 1.7-2.8 1.7-3.1-.1-3.3.3-4.5 3.1-1.4 3.4-3 6.7-6.9 8.1-1.1.4-1.9 1.2-2.9 1.8-.8.5-.8 1.3-.3 2 1 1.3.5 2.7.3 4.1-.1.6-.5 1.1-1.2 1.1-.6.1-.8-.5-1.1-.9-1.9-3-2.7-3.1-5.4-.7-2.2 2-3.6 2.2-6.3.9-1.1-.5-2.1-1.1-3.1-1.9-1.8-1.5-1.6-3.2.6-3.9 1.1-.4 1.9-.8 2.1-2 .1-.5.5-.7.9-.9.6-.5 1.1-1.1 1.4-1.8.8-2 2.8-3.6 1.9-6.2-.3-.8.4-1.9 1-2.7 1-1.4 1.6-1.5 3.1-.6 1.1.7 2.4.7 3.7.7 1 0 2 0 3.1.5-.8-1.1-.7-2.1-.2-3.1.4-.8.2-1.7-.7-1.9-2.3-.8-3.4-3-4-4.7-.8-2.3-2.5-3.6-3.7-5.4-.7-1-.8-2-.4-3.1.7-2.4.4-3-1.9-4-.5-.2-1-.4-1.3-.9-.3-.4-.7-.8-1.1-.9-2.2-.4-3.9-1.9-5.4-3.3-2.3-2.1-5-2-7.7-1.6-1.3.2-2.8.4-4 .9-2.1 1-4.1 2.4-6.4 3.1-.1 0-.3.2-.3.3-1.3 2.7-3.8 2.9-6.2 3.2-2.3.3-4.6.5-6.5 2.3-.9.9-2.4 1-3.3 0-2.6-2.5-6-2.6-9.2-3.2-.3 0-.6-.1-.8-.1-2 .5-3.9.4-5.5-1.1-.4-.4-1-.2-1.5.2l-.6.6c-1.9 1.3-2.9 1.1-4-1-.3-.7-.8-1.2-1.5-1.5-.9-.4-1.6-1.1-2.5-1.6-1.7-1.1-1.4-2.8-2.4-4z"/></svg>