<svg xmlns="http://www.w3.org/2000/svg" viewBox="0 0 512 512"><path d="M290.4 432l-109-168.5V128c0-5.9-4.8-10.7-10.7-10.7h-53.3c-5.9 0-10.7 4.8-10.7 10.7v135.8l-99.4 169C2.5 440.8 0 450 0 459.4c0 29 23.5 52.6 52.6 52.6h194.2c10 0 19.8-2.9 28.1-8.3 24.1-15.6 31-47.7 15.5-71.7zm-43.6 58.7H52.6c-5.6 0-11.1-1.5-15.9-4.3-14.9-8.8-19.8-27.9-11.1-42.8l100.9-171.5c1-1.6 1.5-3.5 1.5-5.4v-128h32v128c0 2.1.6 4.1 1.7 5.8l110.7 171.1c3.2 4.9 4.9 10.7 4.9 16.6 0 16.8-13.6 30.5-30.5 30.5z" fill="#f1592a"/><path d="M153.7 310.1l-18.4-10.8-90.6 154c-1 1.6-1.5 3.5-1.5 5.4 0 5.9 4.8 10.7 10.7 10.7H128V448H72.5l81.2-137.9zm332.6-64.8H320c-23.6 0-42.7 19.1-42.7 42.7v170.7c0 29.4 23.9 53.3 53.3 53.3h96c29.4 0 53.3-23.9 53.3-53.3v-145l24.5-24.5c4.8-4.8 7.5-11.4 7.5-18.2.1-14.1-11.4-25.7-25.6-25.7zm3.1 28.9l-27.6 27.6c-2 2-3.1 4.7-3.1 7.5v149.3c0 17.7-14.3 32-32 32h-96c-17.7 0-32-14.3-32-32V288c0-11.8 9.6-21.3 21.3-21.3h166.3c1.2 0 2.3.5 3.1 1.3 1.7 1.7 1.7 4.5 0 6.2z" fill="#f1592a"/><path d="M416 309.3V448h-32v21.3h42.7c5.9 0 10.7-4.8 10.7-10.7V309.3H416zM298.7 154.5V10.7C298.7 4.8 293.9 0 288 0h-74.7c-5.9 0-10.7 4.8-10.7 10.7v146.9c-13 4-25.5 9.5-37.3 16.3l10.7 18.5c12.5-7.2 26-12.7 40-16.4 4.7-1.2 8-5.5 8-10.3V21.3h53.3v141.8c0 5.1 3.6 9.5 8.7 10.5 37.4 7.1 71 27.4 94.9 57.1l16.6-13.4c-25.1-31.3-59.9-53.3-98.8-62.8zm154.6-5.2c-20.6 0-37.3 16.7-37.3 37.3 0 20.6 16.7 37.3 37.3 37.3 20.6 0 37.3-16.7 37.3-37.3.1-20.6-16.6-37.3-37.3-37.3zm0 53.4c-8.8 0-16-7.2-16-16s7.2-16 16-16 16 7.2 16 16-7.1 16-16 16zM416 74.7c-17.7 0-32 14.3-32 32s14.3 32 32 32 32-14.3 32-32-14.3-32-32-32zm0 42.6c-5.9 0-10.7-4.8-10.7-10.7S410.1 96 416 96c5.9 0 10.7 4.8 10.7 10.7s-4.8 10.6-10.7 10.6zm-378.7-32C16.7 85.3 0 102 0 122.7 0 143.3 16.7 160 37.3 160s37.3-16.7 37.3-37.3C74.7 102 58 85.3 37.3 85.3zm0 53.4c-8.8 0-16-7.2-16-16s7.2-16 16-16 16 7.2 16 16-7.1 16-16 16zm48-128c-17.7 0-32 14.3-32 32s14.3 32 32 32 32-14.3 32-32-14.3-32-32-32zm0 42.6c-5.9 0-10.7-4.8-10.7-10.7 0-5.9 4.8-10.7 10.7-10.7S96 36.8 96 42.7s-4.8 10.6-10.7 10.6zm234.7 256h32v21.3h-32zm0 42.7h21.3v21.3H320zm0 42.7h32V416h-32zm0 42.6h21.3v21.3H320zM21.3 192h21.3v21.3H21.3zm32 53.3h21.3v21.3H53.3zM234.7 288H256v21.3h-21.3zm-21.4-42.7h21.3v21.3h-21.3zm-10.6-42.6H224V224h-21.3zm10.6 234.6h21.3v21.3h-21.3zm-32-42.6h21.3V416h-21.3z" fill="#f1592a"/></svg>