<svg id="Capa_1" xmlns="http://www.w3.org/2000/svg" viewBox="0 0 512 512"><style>.st0{fill:#f1592a}</style><path class="st0" d="M286 382c-5.5 0-10 4.5-10 10s4.5 10 10 10 10-4.5 10-10-4.5-10-10-10z"/><path class="st0" d="M426.5 422l-8.2-24.6c24.3-26 37.7-59.7 37.7-95.4 0-63-42.1-118-101.2-135.3l24.5-42.5c2.8-4.8 1.1-10.9-3.7-13.7l-8.7-5 10-17.3 8.7 5c4.8 2.8 10.9 1.1 13.7-3.7l20-34.6c2.8-4.8 1.1-10.9-3.7-13.7l-69.3-40c-4.8-2.8-10.9-1.1-13.7 3.7l-20 34.6c-2.8 4.8-1.1 10.9 3.7 13.7l8.7 5-10 17.3-8.7-5c-4.8-2.8-10.9-1.1-13.7 3.7l-75 129.9-8.7-5c-4.8-2.8-10.9-1.1-13.7 3.7l-20 34.6c-2.8 4.8-1.1 10.9 3.7 13.7l103.9 60c4.8 2.7 10.9 1.2 13.7-3.7l20-34.6c2.8-4.8 1.1-10.9-3.7-13.7l-8.7-5 7.4-12.8c34.9-2.5 64.3 25.5 64.3 60.6 0 10.7-2.8 20.9-8 30-13-6.6-27.3-10-42-10-20.9 0-41.3 7.1-57.7 20h-97.6c-19.1 0-36.2 10.6-44.7 27.6l-8.9 17.9c-1.5 3.1-1.4 6.8.4 9.7 1.8 2.9 5 4.7 8.5 4.7h106.1l-6.7 20H86c-16.5 0-30 13.5-30 30v50c0 5.5 4.5 10 10 10h380c5.5 0 10-4.5 10-10v-50c0-16.2-13.2-29.5-29.5-29.8zM345 23.7l52 30L387 71c-11.6-6.7-38.5-22.2-52-30l10-17.3zm-2.7 44.6l17.3 10-10 17.3-17.3-10 10-17.3zm-58 220.5l-86.6-50 10-17.3c9.2 5.3 65.8 38 77.9 45l8.7 5-10 17.3zm2.7-44.6l-52-30L305 93c20.4 11.8 32.3 18.6 38.9 22.5-1.5-.9-2.7-1.6-2.8-1.6.3.1 4.2 2.4 15.9 9.2-10.4 17.7-61.3 105.9-70 121.1zm36.1-22.6l21.3-36.9C397.9 197.7 436 246 436 302c0 27.1-9 52.9-25.5 73.9-6-12.8-14.8-24.1-25.7-33 7.4-12.3 11.2-26.3 11.2-40.9 0-42.1-32.1-76.8-72.9-80.4zM326 342c31.9 0 59.6 20.5 69.5 50.1l10 29.9h-159l10-29.9c10.1-30.2 38.3-50.1 69.5-50.1zm-183.8 40c.7-.8 7.1-20.1 28.5-20.1h78.7c-4.3 6.2-7.9 13-10.6 20.1h-96.6zM436 492H76v-40c0-5.5 4.5-10 10-10h340c5.5 0 10 4.5 10 10v40z"/><path class="st0" d="M345.1 116.1c.6.3 1.2.7 1.7 1-.6-.4-1.1-.7-1.7-1zm0 0zm-1.2-.7c.1 0 .1 0 0 0 .1 0 .1 0 0 0zm.1.1c.4.2.7.4 1.1.6-.4-.2-.7-.4-1.1-.6zm2.8 1.6c.1.1.2.1.3.2-.1-.1-.2-.2-.3-.2zm4.1 2.4c.1 0 .1 0 0 0 .1 0 .1 0 0 0zm-.2-.2c.1.1.2.1.3.1-.1 0-.2 0-.3-.1zm.3.2c.1.1.1.1 0 0zm-1.7-1c.1 0 .1.1.2.1-.1 0-.1-.1-.2-.1zm.2.1c.5.3.9.5 1.2.7-.3-.1-.6-.4-1.2-.7zm-.5-.3c.1.1.2.1.3.2-.1-.1-.2-.1-.3-.2zm-1.9-1.1c.7.4 1.4.8 1.9 1.1-.6-.3-1.3-.7-1.9-1.1zM366 382h-40c-5.5 0-10 4.5-10 10s4.5 10 10 10h40c5.5 0 10-4.5 10-10s-4.5-10-10-10z"/></svg>