<svg xmlns="http://www.w3.org/2000/svg" viewBox="0 0 512 512"><path d="M454.9 430.4l-8.4-3.4c42.3-47 65.5-107.5 65.5-171 0-52-15.7-102-44.3-144-.3-.7-.8-1.3-1.3-1.8-12.5-18.1-27.5-34.7-44.6-49.2-3.4-2.9-8.5-2.5-11.4.9-2.9 3.4-2.5 8.5.9 11.4 13.7 11.7 26 24.8 36.6 38.9-17.1 6.7-37.7 12.4-60.6 16.8-6.3-18.9-14.1-36.4-23.3-52.3-12.3-21.4-26.5-38.6-42-51.3 24.1 6.9 47 17.5 68 31.7 3.7 2.5 8.7 1.5 11.2-2.2s1.5-8.7-2.2-11.2C356.8 15.1 307.3 0 256 0 187.6 0 123.3 26.6 75 75 26.6 123.3 0 187.6 0 256c0 63.6 23.3 124.1 65.6 171.1l-8.3 3.3c-3.1 1.1-29.1 11.5-29.1 44.6v29c0 4.5 3.6 8.1 8.1 8.1h119c.4 0 .8 0 1.1-.1.4.1.8.1 1.1.1h32.9c4.5 0 8.1-3.6 8.1-8.1s-3.6-8.1-8.1-8.1h-24.8v-28.2c0-29.7 23.3-38.2 24.3-38.6.1 0 .2-.1.4-.1l39.4-15.4.3.3 20.9 20.4c1.5 1.5 3.5 2.3 5.6 2.3h.1c2.2 0 4.2-.9 5.7-2.5l20.1-20.8 39.3 15.8c.1.1.2.1.4.1 1 .3 24.3 8.9 24.3 38.6V496H215.7c-4.5 0-8.1 3.6-8.1 8.1s3.6 8.1 8.1 8.1h260c4.5 0 8.1-3.7 8.1-8.1v-28.9c.1-33.2-25.7-43.6-28.9-44.8zm-24.5-9.8l-8-3.2v-4.6c8.8-5.2 15.6-13.4 18.8-23.3 11.8-.9 21.1-10.8 21.1-22.8 0-7.1-3.3-13.5-8.4-17.7v-14.4c0-27.7-20.8-50.6-47.6-54 .3-5.5.5-11 .6-16.5h88.8c-2 58.5-24.9 113.8-65.3 156.5zm-29.2-18.2h-7.4c-14.3 0-25.9-11.6-25.9-25.9v-21.4c10.5-1.1 29.2-4.8 43.6-16.8 3.2 5.5 8.2 11.5 15.6 15v23.2c0 14.3-11.6 25.9-25.9 25.9zm5.1 15.8v4.5l-9 9.3-8.5-8.2v-5.6c1.7.2 3.3.3 5 .3h7.4c1.8.1 3.4-.1 5.1-.3zm-46.4-78.7h-1.2c-.2 0-.4 0-.5.1-.1 0-.2.1-.4.1-.1 0-.3.1-.4.1-.1 0-.2.1-.3.1v-5.3c0-21.1 17.2-38.3 38.3-38.3h3.9c21.1 0 38.3 17.2 38.3 38.3v5.2c-.2 0-.3-.1-.5-.1-.1 0-.1 0-.2-.1-11.3-2.6-15-17.6-15-17.7-.7-3.1-3.2-5.5-6.3-6.1-3.1-.6-6.3.6-8.2 3.2-14.4 20.2-47.1 20.5-47.5 20.5zm83.4 32.7v-10.9c1.7 1.2 2.8 3.2 2.8 5.4s-1.1 4.3-2.8 5.5zm14.1-246.5c23.4 36.2 36.8 78.3 38.3 122.2h-88.8c-.7-36.4-5.7-71.5-14.8-103.4 24.9-5 47-11.3 65.3-18.8zm-66.7 122.2H308c-11-12.2-26.5-20.2-43.9-21.6v-69.5c39.7-.4 78-3.7 112.1-9.4 8.9 30.9 13.9 65 14.5 100.5zm-71.3 84.4c0 4.8-3.2 8.8-7.6 10v-20c4.4 1.3 7.6 5.3 7.6 10zM264.1 16.6c32.2 3.4 62.4 27.3 86 68.1 8.3 14.3 15.3 30.1 21.2 47.1-32.6 5.3-69.2 8.4-107.2 8.8v-124zM259 242.3c27.5 0 49.9 22.4 49.9 49.9v9.9c-.1 0-.1-.1-.2-.1-.1-.1-.2-.2-.4-.3-.1-.1-.2-.1-.3-.2-.1-.1-.2-.2-.4-.2-.1-.1-.2-.1-.4-.2-.1-.1-.2-.1-.3-.2-.1-.1-.3-.1-.4-.2-.1 0-.2-.1-.3-.1-.2-.1-.3-.1-.5-.1-.1 0-.1 0-.2-.1-15.4-3.5-20.2-23.5-20.3-23.7-.7-3.1-3.2-5.5-6.3-6.1-3.1-.6-6.3.6-8.2 3.2-18.9 26.2-60.8 26.4-61.3 26.4h-1.1c-.2 0-.4 0-.5.1-.1 0-.2.1-.3.1-.1 0-.3.1-.4.1-.1 0-.3.1-.4.1-.1 0-.2.1-.4.1-.1.1-.3.1-.4.2-.1 0-.2.1-.3.1-.1.1-.3.2-.4.3-.1.1-.2.1-.2.1-.1.1-.3.2-.4.3-.1.1-.2.1-.2.2l-.2.2V292c0-27.5 22.4-49.9 49.9-49.9l4.9.2zm-137.7 5.6c.7-35.5 5.7-69.6 14.6-100.6 34.2 5.7 72.5 9 112.1 9.4v69.6c-17 1.7-32.1 9.7-42.9 21.7-.3 0-.6-.1-.9-.1h-82.9zm80.1 74.4v20.2c-4.5-1.1-7.9-5.2-7.9-10.1 0-4.9 3.4-9 7.9-10.1zm46.5-305.7v124c-37.9-.4-74.5-3.5-107.1-8.8 5.8-17 12.9-32.8 21.2-47.1 23.5-40.8 53.7-64.6 85.9-68.1zm-58.1 8.9c-15.4 12.7-29.6 29.9-41.9 51.2-9.1 15.9-16.9 33.4-23.2 52.3-22.9-4.5-43.4-10.1-60.5-16.8 31-41.2 74.9-72.1 125.6-86.7zM54.7 125.8c18.2 7.4 40.4 13.7 65.2 18.7-9.1 32-14.2 67.1-14.8 103.5H16.3c1.5-45 15.4-86.8 38.4-122.2zm52.1 292.4c1.7.2 3.3.3 5.1.3h7.4c1.7 0 3.4-.1 5-.3v4.5l-9 9.3-8.5-8.2v-5.6zm12.4-15.8h-7.4c-14.3 0-25.9-11.6-25.9-25.9v-21.4c10.5-1.1 29.2-4.8 43.6-16.8 3.2 5.5 8.2 11.5 15.6 15v23.2c0 14.3-11.6 25.9-25.9 25.9zm20.8-80.5c-.7-3.1-3.2-5.5-6.3-6.1-3.1-.6-6.3.6-8.2 3.2-14.7 20.2-47.3 20.5-47.7 20.5h-1.1c-.2 0-.4 0-.5.1-.1 0-.2.1-.3.1-.1 0-.3.1-.4.1-.1 0-.2.1-.3.1v-5.3c0-21.1 17.2-38.3 38.3-38.3h3.9c21.1 0 38.3 17.2 38.3 38.3v5.2c-.2-.1-.3-.1-.5-.1-.1 0-.1 0-.2-.1-11.3-2.5-15-17.5-15-17.7zM16.3 264.1h88.8c.1 5.6.3 11.1.6 16.6-26.4 3.8-46.7 26.5-46.7 53.9v14.3c-5.2 4.2-8.5 10.6-8.5 17.8 0 12.1 9.4 22 21.3 22.8 3.2 9.9 10 18.1 18.8 23.3v4.6l-8.8 3.5c-40.5-42.8-63.5-98.2-65.5-156.8zm53.5 97v11.3c-1.8-1.2-3.1-3.3-3.1-5.6 0-2.4 1.2-4.5 3.1-5.7zm79.7 106.6v28.2H44.4V475c0-22.5 17.6-29.1 18.3-29.3.1 0 .3-.1.4-.1l30.5-11.9 16.2 15.8c1.5 1.5 3.5 2.3 5.6 2.3h.1c2.2 0 4.2-.9 5.7-2.5l15.3-15.9 18.9 7.6c-3.5 7.2-5.9 16.1-5.9 26.7zm78-70.7l-42.9 16.8c-5.5 1.9-13 6.2-19.7 13.4l-24.5-9.8v-4.6c8.8-5.2 15.6-13.4 18.8-23.3 11.8-.9 21.1-10.8 21.1-22.8 0-7.1-3.3-13.5-8.4-17.7v-14.4c0-28.5-22-52-50-54.3-.3-5.4-.5-10.8-.6-16.3h73.1c-4 8.5-6.3 18.1-6.3 28.1V311c-6.5 4.9-10.6 12.6-10.6 21.3 0 14.5 11.7 26.3 26.2 26.6 3.8 12.8 12.5 23.5 24 29.9l-.2 8.2zm-66.2-24.8v-10.9c1.7 1.2 2.8 3.2 2.8 5.5s-1.1 4.2-2.8 5.4zm108.3 30.5v.5l-13.2 13.7-12.7-12.3v-10.2c2.7.5 5.5.7 8.3.7h9.2c2.8 0 5.6-.2 8.3-.7v8.3zm-8.3-23.7H252c-19 0-34.4-15.4-34.4-34.4V316c12.9-1.2 38.4-5.7 57-22.4 3.9 7.4 10.5 16.1 21 20.6v30.4c.1 18.9-15.4 34.4-34.3 34.4zm86 48.3c-6.7-7.2-14.3-11.5-19.8-13.4l-41.8-16.8v-8.3c11.5-6.4 20.2-17.1 24-29.9 14.3-.4 25.8-12.1 25.8-26.5 0-8.6-4.1-16.3-10.5-21.2v-18.9c0-10.1-2.3-19.6-6.3-28.1h72c-.1 5.5-.3 10.9-.6 16.4-27.5 2.7-49.1 26-49.1 54.2V349c-5.2 4.2-8.5 10.6-8.5 17.8 0 12.1 9.4 22 21.3 22.8 3.2 9.9 10 18.1 18.8 23.3v4.6l-25.3 9.8zm4.5-66.2v11.3c-1.9-1.2-3.1-3.3-3.1-5.6 0-2.4 1.2-4.5 3.1-5.7zm116 134.7H362.7v-28.2c0-10.6-2.3-19.4-5.9-26.7l18.9-7.4 16.2 15.8c1.5 1.5 3.5 2.3 5.6 2.3h.1c2.2 0 4.2-.9 5.7-2.5l15.3-15.9 30.4 12.2c.1.1.2.1.4.1.8.3 18.4 6.8 18.4 29.3v21z" fill="#f1592a"/></svg>