<svg xmlns="http://www.w3.org/2000/svg" viewBox="0 0 279.09 56.56"><defs><style>.cls-1,.cls-2{fill:#006737;stroke:#262161;stroke-miterlimit:10;stroke-width:.5px}.cls-2{fill:#f15a28;stroke:#ed1b23}</style></defs><title>Asset 1</title><g id="Layer_2" data-name="Layer 2"><g id="Layer_1-2" data-name="Layer 1"><path class="cls-1" d="M19.81 55.63H5.86q-3 0-4.32-1.17a4.82 4.82 0 0 1-1.29-3.73V21a4.74 4.74 0 0 1 1.32-3.76 6.48 6.48 0 0 1 4.29-1.15h14.8a40.37 40.37 0 0 1 5.67.35 13.63 13.63 0 0 1 4.3 1.35 10.91 10.91 0 0 1 2.86 2.12 8.92 8.92 0 0 1 1.9 2.83 8.24 8.24 0 0 1 .66 3.26q0 5.94-6.86 8.68 9 2.49 9 9.65a9.82 9.82 0 0 1-2 6 11.52 11.52 0 0 1-5.29 3.92 21 21 0 0 1-4.8 1.06 55.77 55.77 0 0 1-6.29.32zM9.5 22.12v10.22H18a19.41 19.41 0 0 0 5.34-.57 4.89 4.89 0 0 0 2.88-2.15 4.38 4.38 0 0 0 .78-2.54 3.85 3.85 0 0 0-2.46-4 21.33 21.33 0 0 0-7.51-1zm9.63 16H9.5v11.5h9.94q9.38 0 9.38-5.85a4.6 4.6 0 0 0-2.43-4.34q-2.39-1.35-7.26-1.35zm24.7 1.18v-19a4.83 4.83 0 0 1 1.27-3.64 4.57 4.57 0 0 1 3.32-1.21 4.72 4.72 0 0 1 3.41 1.21 4.83 4.83 0 0 1 1.26 3.64v19.43a15.59 15.59 0 0 0 .85 5.54 6.67 6.67 0 0 0 3 3.45 12.57 12.57 0 0 0 6.11 1.22c3.61 0 6.17-.83 7.66-2.49S73 43.27 73 39.89v-19.6a4.86 4.86 0 0 1 1.24-3.65 4.6 4.6 0 0 1 3.34-1.2 4.79 4.79 0 0 1 3.42 1.2 4.76 4.76 0 0 1 1.29 3.65v19a24.65 24.65 0 0 1-1 7.73 11.87 11.87 0 0 1-3.95 5.45 16 16 0 0 1-5.79 2.91 29.1 29.1 0 0 1-7.73.92 36.25 36.25 0 0 1-9.06-1 15.14 15.14 0 0 1-6.2-3A12 12 0 0 1 45 47a23.35 23.35 0 0 1-1.17-7.7zm57.49-19.01v28.77h18.75a5.44 5.44 0 0 1 3.44.94 2.9 2.9 0 0 1 1.2 2.37 2.82 2.82 0 0 1-1.18 2.36 5.64 5.64 0 0 1-3.46.9H97.73c-2 0-3.46-.38-4.34-1.16a4.7 4.7 0 0 1-1.33-3.74V20.29a4.83 4.83 0 0 1 1.26-3.64 4.6 4.6 0 0 1 3.32-1.21 4.77 4.77 0 0 1 3.38 1.2 4.76 4.76 0 0 1 1.3 3.65zm57.85 30.87l-2.18-5h-18.57l-2.18 5.07a16.94 16.94 0 0 1-2.18 4 3.74 3.74 0 0 1-3 1A4.73 4.73 0 0 1 128 55.2a3.22 3.22 0 0 1-1.34-2.51A4.93 4.93 0 0 1 127 51c.2-.57.55-1.37 1-2.4L139.7 23l1.2-2.66a12.45 12.45 0 0 1 1.49-2.57 5.88 5.88 0 0 1 2.09-1.66 7.25 7.25 0 0 1 3.19-.63 7.35 7.35 0 0 1 3.23.63 5.91 5.91 0 0 1 2.1 1.59 10.89 10.89 0 0 1 1.34 2.15c.37.76.83 1.78 1.39 3.06l11.93 25.5a11.38 11.38 0 0 1 1.4 4.23 3.31 3.31 0 0 1-1.32 2.52 5.1 5.1 0 0 1-5.06.81 3.78 3.78 0 0 1-1.31-.92 8.34 8.34 0 0 1-1.14-1.78c-.42-.8-.77-1.5-1.06-2.11zm-18.32-11h13.65l-6.89-16.31zm47.42-1.43H185v12.7a4.82 4.82 0 0 1-1.28 3.69 4.7 4.7 0 0 1-3.33 1.19 4.6 4.6 0 0 1-3.39-1.24 5 5 0 0 1-1.22-3.64V21a4.72 4.72 0 0 1 1.34-3.75 6.6 6.6 0 0 1 4.33-1.16h15.05c2.08 0 3.85.08 5.33.23a15 15 0 0 1 4 .93 11.78 11.78 0 0 1 3.8 2.24A9.74 9.74 0 0 1 213 27a9.12 9.12 0 0 1-2.91 7q-2.88 2.64-8.74 3.75a16.73 16.73 0 0 1 4.71 3.34 34.68 34.68 0 0 1 4 4.7 33.84 33.84 0 0 1 2.74 4.51 7.83 7.83 0 0 1 1 2.76 2.58 2.58 0 0 1-.57 1.55 3.89 3.89 0 0 1-1.58 1.21 5.52 5.52 0 0 1-2.3.45 5 5 0 0 1-2.62-.64 6.48 6.48 0 0 1-1.82-1.6c-.51-.65-1.2-1.6-2.07-2.86l-3.71-5.34a29.31 29.31 0 0 0-3.57-4.47 8.63 8.63 0 0 0-3.19-2.1 12.45 12.45 0 0 0-4.1-.53zm5.29-16.61H185V33h8.28a26.78 26.78 0 0 0 5.61-.5 6.86 6.86 0 0 0 3.48-1.7 4.46 4.46 0 0 0 1.2-3.3 4.65 4.65 0 0 0-1-2.9 5.69 5.69 0 0 0-2.57-1.88 21.89 21.89 0 0 0-6.44-.6zm33.9-6.01h12.06a37 37 0 0 1 8.07.76 15.57 15.57 0 0 1 6.1 2.83q7.14 5.28 7.14 16.06a27.29 27.29 0 0 1-.72 6.5 17.81 17.81 0 0 1-2.21 5.3 17.32 17.32 0 0 1-3.83 4.22 16.66 16.66 0 0 1-4 2.29 20.55 20.55 0 0 1-4.69 1.21 40.22 40.22 0 0 1-5.66.35h-12a8.52 8.52 0 0 1-3.8-.66 3.16 3.16 0 0 1-1.67-1.86 10.3 10.3 0 0 1-.39-3.11V21a4.72 4.72 0 0 1 1.34-3.75 6.58 6.58 0 0 1 4.26-1.14zm3.54 6.34v26.82h7c1.54 0 2.74 0 3.62-.11a12.62 12.62 0 0 0 2.71-.54 7.69 7.69 0 0 0 2.43-1.21q4.63-3.39 4.64-11.7 0-5.85-2-8.76a8.9 8.9 0 0 0-5-3.71 28.57 28.57 0 0 0-7.23-.79zm38.33 28.98V20.29a4.8 4.8 0 0 1 1.28-3.64 4.58 4.58 0 0 1 3.3-1.21 4.77 4.77 0 0 1 3.38 1.2 4.76 4.76 0 0 1 1.29 3.65v31.14a4.8 4.8 0 0 1-1.29 3.66 4.74 4.74 0 0 1-3.38 1.22 4.6 4.6 0 0 1-3.29-1.23 4.82 4.82 0 0 1-1.29-3.65z"/><path class="cls-2" d="M236.25 7.27v4.42a2.07 2.07 0 0 1-.55 1.57 2 2 0 0 1-1.47.52 2 2 0 0 1-1.43-.52 2.07 2.07 0 0 1-.55-1.57v-5.3a13.88 13.88 0 0 0-.1-1.94 1.91 1.91 0 0 0-.54-1.14 1.87 1.87 0 0 0-1.39-.44A2.6 2.6 0 0 0 227.7 4a6.89 6.89 0 0 0-.6 3.21v4.49a2 2 0 0 1-.55 1.56 2 2 0 0 1-1.44.53 1.89 1.89 0 0 1-2-2.09V2.18a1.92 1.92 0 0 1 .5-1.42 1.87 1.87 0 0 1 1.34-.49 2 2 0 0 1 1.33.46A1.6 1.6 0 0 1 226.8 2v.32A6.62 6.62 0 0 1 229 .79a6.47 6.47 0 0 1 2.53-.49 5.93 5.93 0 0 1 2.52.5 4.19 4.19 0 0 1 1.73 1.51 6.59 6.59 0 0 1 2.11-1.52 6.11 6.11 0 0 1 2.49-.49 6.61 6.61 0 0 1 2.75.53 3.71 3.71 0 0 1 1.72 1.54 6.11 6.11 0 0 1 .5 2.83v6.49a2.07 2.07 0 0 1-.56 1.57 2 2 0 0 1-3.47-1.57V6.1a11 11 0 0 0-.11-1.71 1.9 1.9 0 0 0-.57-1.09 2.06 2.06 0 0 0-1.43-.43 2.93 2.93 0 0 0-1.46.39 2.81 2.81 0 0 0-1.07 1 7.1 7.1 0 0 0-.43 3.01zm22.69 4.64a12.65 12.65 0 0 1-2.73 1.4 8.78 8.78 0 0 1-2.95.47 6.31 6.31 0 0 1-2.62-.51 4.12 4.12 0 0 1-1.75-1.36 3.17 3.17 0 0 1-.61-1.88 3.09 3.09 0 0 1 1-2.32 5.34 5.34 0 0 1 2.78-1.29l1.83-.33c1-.17 1.82-.33 2.51-.47s1.46-.31 2.27-.52a3.08 3.08 0 0 0-.61-1.92 3.09 3.09 0 0 0-2.28-.62 5.52 5.52 0 0 0-2.22.35A3.43 3.43 0 0 0 252.29 4a11.38 11.38 0 0 1-.76.93 1.37 1.37 0 0 1-.94.23 1.85 1.85 0 0 1-1.14-.36 1.12 1.12 0 0 1-.47-.92 2.58 2.58 0 0 1 .72-1.7A5.23 5.23 0 0 1 252 .79a11.63 11.63 0 0 1 3.82-.54 12.34 12.34 0 0 1 4 .52 3.55 3.55 0 0 1 2.07 1.63 6.19 6.19 0 0 1 .61 3v3.81a5.86 5.86 0 0 0 .36 1.95 5.16 5.16 0 0 1 .37 1.31 1.17 1.17 0 0 1-.57.93 2 2 0 0 1-1.27.42 1.85 1.85 0 0 1-1.18-.48 7.71 7.71 0 0 1-1.27-1.43zm-.26-4.81a21.26 21.26 0 0 1-2.48.57c-1.09.2-1.84.34-2.25.43a3.42 3.42 0 0 0-1.2.55 1.32 1.32 0 0 0-.57 1.14 1.57 1.57 0 0 0 .67 1.28 2.69 2.69 0 0 0 1.75.53 5.17 5.17 0 0 0 2.13-.43 3.31 3.31 0 0 0 1.43-1.11 4.49 4.49 0 0 0 .52-2.48zm16.19 5.31l-2.82-3.55-2.89 3.55a6.37 6.37 0 0 1-1.06 1.05 1.84 1.84 0 0 1-1.1.32 2 2 0 0 1-1.26-.4 1.11 1.11 0 0 1-.52-.9A2.87 2.87 0 0 1 266 11l3.51-4.31-3.12-3.59a2.49 2.49 0 0 1-.81-1.54 1.09 1.09 0 0 1 .49-.89 2 2 0 0 1 1.26-.38 1.88 1.88 0 0 1 1.14.33 6.71 6.71 0 0 1 1 1l2.52 2.94 2.45-2.94a6 6 0 0 1 1.06-1 1.9 1.9 0 0 1 1.12-.32 2.06 2.06 0 0 1 1.38.35 1.07 1.07 0 0 1 .51.89 1.37 1.37 0 0 1-.21.72 5.17 5.17 0 0 1-.63.82l-3.17 3.59L278 11a2.93 2.93 0 0 1 .82 1.52 1.1 1.1 0 0 1-.51.9 2.08 2.08 0 0 1-1.27.38 1.91 1.91 0 0 1-1.13-.33 6.3 6.3 0 0 1-1.04-1.06z"/></g></g></svg>