<svg id="Layer_1" xmlns="http://www.w3.org/2000/svg" viewBox="0 0 388 102"><style>.st0,.st1{fill:none;stroke:#d8dfea;stroke-width:2;stroke-linecap:round}.st1{stroke-dasharray:.9948,3.9792}.st2{fill:#fff}.st3{fill:#f1592a}</style><path class="st0" d="M387.2 97.5l.4.3"/><path class="st1" d="M4.2 1.1h253l126.8 94"/><path class="st0" d="M1.7 1.1h.5"/><path class="st2" d="M300 22.8h47.8v50.8H300z"/><path class="st3" d="M323.7 27.5c-.7 0-1.3.6-1.3 1.3s.6 1.3 1.3 1.3c10.7 0 19.4 8.7 19.4 19.4s-8.7 19.4-19.4 19.4-19.4-8.7-19.4-19.4c0-5.2 2.2-10.2 5.9-13.8v2.2c0 .7.6 1.3 1.3 1.3.7 0 1.3-.6 1.3-1.3v-5.2c0-.7-.6-1.3-1.3-1.3h-5.2c-.7 0-1.3.6-1.3 1.3 0 .7.6 1.3 1.3 1.3h1.9c-4.2 4.2-6.5 9.7-6.5 15.5 0 12.1 9.9 22 22 22s22-9.9 22-22-9.9-22-22-22z"/><path class="st3" d="M323.7 35.3c-7.8 0-14.2 6.4-14.2 14.2s6.4 14.2 14.2 14.2c7.8 0 14.2-6.4 14.2-14.2s-6.4-14.2-14.2-14.2zm9.1 21.4l-.9-.9c-.5-.5-1.3-.5-1.8 0s-.5 1.3 0 1.8l.9.9c-1.7 1.3-3.7 2.2-5.9 2.5v-1.2c0-.7-.6-1.3-1.3-1.3s-1.3.6-1.3 1.3V61c-2.2-.2-4.3-1.1-5.9-2.5l.9-.9c.5-.5.5-1.3 0-1.8s-1.3-.5-1.8 0l-.9.9c-1.3-1.7-2.2-3.7-2.5-5.9h1.2c.7 0 1.3-.6 1.3-1.3s-.6-1.3-1.3-1.3h-1.2c.2-2.2 1.1-4.3 2.5-5.9l.7.8c.5.5 1.3.5 1.8 0s.5-1.3 0-1.8l-.8-.9c1.7-1.3 3.7-2.2 5.9-2.5v1.2c0 .7.6 1.3 1.3 1.3.7 0 1.3-.6 1.3-1.3v-1.2c2.2.2 4.3 1.1 5.9 2.5l-.9.9c-.5.5-.5 1.3 0 1.8s1.3.5 1.8 0l.9-.9c1.3 1.7 2.2 3.7 2.5 5.9H334c-.7 0-1.3.6-1.3 1.3s.6 1.3 1.3 1.3h1.2c-.2 2.3-1.1 4.4-2.4 6z"/><path class="st3" d="M327.2 51.2L325 49v-4.6c0-.7-.6-1.3-1.3-1.3-.7 0-1.3.6-1.3 1.3v5.2c0 .3.1.7.4.9l2.6 2.6c.5.5 1.3.5 1.8 0 .5-.6.5-1.4 0-1.9z"/></svg>