<svg id="content" xmlns="http://www.w3.org/2000/svg" viewBox="0 0 138 138"><defs><style>.cls-1{fill:none;stroke:#00b140;stroke-miterlimit:10;stroke-width:1.4px}</style></defs><title>number-5</title><path id="_5" data-name="5" class="cls-1" d="M111 85.4c0 24.32-17.6 40.6-41.44 40.6-26.24 0-41.28-15.48-42.56-36.12h23c1.28 10.24 7.84 15.68 18.72 15.68 12 0 19.2-7.84 19.2-19.84 0-13.28-8-20-19-20-7.52 0-13.44 2.56-17.76 8.32H29.72l5-62.08h69.08v19.36H52.6L50.84 54.2H55c4.48-3.36 9.44-6.56 20.16-6.56 20.48 0 35.84 15.2 35.84 37.76z"/></svg>