<svg id="content" xmlns="http://www.w3.org/2000/svg" viewBox="0 0 138 138"><defs><style>.cls-1{fill:none;stroke:#00b140;stroke-miterlimit:10;stroke-width:1.4px}</style></defs><title>number-8</title><path id="_8" data-name="8" class="cls-1" d="M95.56 67.8c7.2 3 16.64 11 16.64 25.76 0 18.08-15 33.6-43.2 33.6s-43.2-15.52-43.2-33.6c0-14.72 9.44-22.72 16.64-25.76v-4.16c-5.76-3-13-9.76-13-22.72 0-16.8 14.72-30.08 39.52-30.08s39.52 13.28 39.52 30.08c0 12.64-7.52 19.84-13 22.72zm-6.24 23.52c0-9-6.88-16.64-20.32-16.64-13.6 0-20.32 7.68-20.32 16.64C48.68 100.44 55.4 108 69 108c13.44 0 20.32-7.56 20.32-16.68zm-37.6-48c0 8.8 6.88 14.88 17.28 14.88 10.72 0 17.28-6.08 17.28-14.88C86.28 35 79.72 28.6 69 28.6c-10.4 0-17.28 6.4-17.28 14.72z"/></svg>