<svg id="content" xmlns="http://www.w3.org/2000/svg" viewBox="0 0 138 138"><defs><style>.cls-1{fill:none;stroke:#00b140;stroke-miterlimit:10;stroke-width:1.4px}</style></defs><title>number-6</title><path id="_6" data-name="6" class="cls-1" d="M111.88 87.48c0 21.76-16 39.68-41.12 39.68-25.6 0-44.64-14.88-44.64-56 0-34.88 14.08-60.32 45.28-60.32 20.32 0 35.52 13.12 37.6 29.6H86.12c-1.76-6.24-6.24-10.56-15.2-10.56-12.8 0-21.6 9.6-22.72 29.6h4.16c3.52-4 10.24-8.8 23.36-8.8 20.16 0 36.16 15.04 36.16 36.8zm-23.2.8c0-12.8-7.68-19.36-18.56-19.36s-18.56 6.4-18.56 19.2S59.4 108 70.28 108s18.4-6.92 18.4-19.72z"/></svg>