<svg xmlns="http://www.w3.org/2000/svg" viewBox="0 0 197.73 36.65"><defs><style>.cls-1{fill:#2e333a}.cls-2{fill:#1859dd}</style></defs><title>7x11Asset 1</title><g id="Layer_2" data-name="Layer 2"><g id="Capa_1" data-name="Capa 1"><path class="cls-1" d="M0 1.48h27.77v8.14H9.47v5.23h16.58v7.55H9.47v5.47H28V36H0zm30.93 21.21c0-8.68 5.43-14 11.74-14a10.19 10.19 0 0 1 8.19 3.85V0h9.38v36h-9.38v-3.54a9.88 9.88 0 0 1-8.14 4.14c-6.31 0-11.79-5.27-11.79-13.91zm20.07-.1c0-3.5-2.42-6-5.43-6s-5.46 2.41-5.46 6.1 2.47 6.07 5.47 6.07S51 26.24 51 22.59zm14.12 4.2V9.32h9.37v14.46c0 2.91 1.53 4.49 3.8 4.49s3.9-1.58 3.9-4.49V9.32h9.37V36h-9.37v-3.64a9.82 9.82 0 0 1-8 4.24c-5.66 0-9.07-3.75-9.07-9.81z"/><path class="cls-2" d="M97.19 1.48h10.11l8.24 13.37 8.24-13.37h10.11V36h-9.52V16.18l-8.83 13.52h-.2l-8.78-13.42V36h-9.37zm41.24 21.21c0-7.79 5.58-14 13.47-14 9.23 0 13.47 6.76 13.47 14.6 0 .6 0 1.29-.05 1.93h-17.86a5.51 5.51 0 0 0 5.77 4.39 8.06 8.06 0 0 0 5.92-2.71l5.18 4.29a14 14 0 0 1-11.59 5.42c-8.39.04-14.31-5.53-14.31-13.92zm18.16-2.22c-.35-3-2.08-4.83-4.64-4.83s-4.14 1.92-4.64 4.83zm11.84 2.22c0-8.68 5.42-14 11.74-14a10.22 10.22 0 0 1 8.19 3.85V0h9.37v36h-9.37v-3.54c-1.83 2.22-4.15 4.14-8.14 4.14-6.32 0-11.79-5.27-11.79-13.91zm20.08-.1c0-3.5-2.42-6-5.43-6s-5.48 2.41-5.48 6.1 2.47 6.07 5.48 6.07 5.43-2.52 5.43-6.17z"/></g></g></svg>