<svg id="Capa_1" xmlns="http://www.w3.org/2000/svg" width="31" height="31" viewBox="0 0 31 31"><style>.st0{fill:#1859dd}</style><path class="st0" d="M28.5 4.5h-26C1.1 4.5 0 5.6 0 7v17c0 1.4 1.1 2.5 2.5 2.5h26c1.4 0 2.5-1.1 2.5-2.5V7c0-1.4-1.1-2.5-2.5-2.5zm0 1c.3 0 .5.1.7.2L16.7 16.6c-.6.6-1.7.6-2.4 0L1.8 5.7c.2-.1.4-.2.7-.2h26zM30 24c0 .8-.7 1.5-1.5 1.5h-26c-.8 0-1.5-.6-1.5-1.5V7c0-.2 0-.4.1-.6l10.2 8.9-5.7 5.4c-.2.2-.2.5 0 .7.1.1.2.2.4.2.1 0 .2 0 .3-.1L12 16l1.6 1.4c.5.4 1.2.7 1.8.7.7 0 1.3-.2 1.8-.7l1.6-1.4 5.8 5.4c.1.1.2.1.3.1.1 0 .3-.1.4-.2.2-.2.2-.5 0-.7l-5.7-5.4 10.2-8.9c.2.3.2.5.2.7v17z"/></svg>