<svg id="Capa_1" xmlns="http://www.w3.org/2000/svg" width="60" height="60" viewBox="0 0 60 60"><style>.st0{fill:#1859dd}</style><path class="st0" d="M30 26c3.9 0 7-3.1 7-7s-3.1-7-7-7-7 3.1-7 7 3.1 7 7 7zm0-12c2.8 0 5 2.2 5 5s-2.2 5-5 5-5-2.2-5-5 2.2-5 5-5z"/><path class="st0" d="M29.8 54.8l15.3-22.2c5.8-7.7 4.9-20.3-1.8-27C39.8 2 34.9 0 29.8 0s-9.9 2-13.6 5.6c-6.7 6.7-7.5 19.3-1.8 27l15.4 22.2zM17.7 7c3.2-3.2 7.6-5 12.1-5S38.7 3.8 42 7c6 6 6.8 17.4 1.6 24.4L29.8 51.2 16.1 31.4c-5.2-6.9-4.5-18.3 1.6-24.4z"/><path class="st0" d="M42.1 43c-.5-.1-1 .3-1.1.9s.3 1 .9 1.1C52.4 46.2 58 49.6 58 51.5c0 2.7-10.7 6.5-28 6.5S2 54.2 2 51.5c0-1.9 5.6-5.3 16.1-6.5.5-.1.9-.6.9-1.1-.1-.5-.6-.9-1.1-.9C7.4 44.2 0 47.7 0 51.5 0 55.7 10.3 60 30 60s30-4.3 30-8.5c0-3.8-7.4-7.3-17.9-8.5z"/></svg>