<svg id="Capa_1" xmlns="http://www.w3.org/2000/svg" width="29.7" height="29.7" viewBox="0 0 29.7 29.7"><style>.st0{fill:#1859dd}</style><path class="st0" d="M23.9 29.7c-1.2 0-2.7-.3-4.4-.9-3.6-1.4-7.5-4-11-7.6-3.5-3.5-6.2-7.4-7.6-11C-.3 6.9-.3 4.2.9 3c.2-.2.4-.4.5-.6C2.6 1.3 3.9-.1 5.5 0c1.2 0 2.3.8 3.4 2.2 3.4 4.2 1.9 5.7.1 7.5l-.2.3c-.3.3-.8 1.6 4.3 6.7 1.7 1.7 3.1 2.9 4.2 3.6.7.5 2 1.2 2.5.6l.3-.3c1.7-1.8 3.3-3.3 7.5.1 1.4 1.1 2.1 2.3 2.2 3.4.1 1.7-1.3 3-2.5 4.1-.2.2-.4.4-.6.5-.6.7-1.6 1-2.8 1zM5.4 1C4.2 1 3.1 2.1 2.2 3.1l-.6.6c-.9.9-.8 3.3.3 6.2 1.3 3.5 3.9 7.3 7.3 10.7 3.4 3.4 7.2 6 10.7 7.3 2.8 1.1 5.2 1.2 6.1.2l.6-.6c1-1 2.2-2.1 2.1-3.3 0-.8-.6-1.8-1.8-2.7-3.5-2.8-4.5-1.8-6.1-.2l-.3.3c-.8.8-2 .6-3.8-.5-1.2-.8-2.7-2-4.4-3.8-4.2-4.1-5.6-6.7-4.3-8l.4-.3C10 7.3 11 6.3 8.2 2.8 7.2 1.7 6.3 1 5.4 1c.1 0 0 0 0 0z"/></svg>