<?xml version="1.0" encoding="utf-8"?>
<!-- Generator: Adobe Illustrator 18.1.0, SVG Export Plug-In . SVG Version: 6.00 Build 0)  -->
<svg version="1.1" id="ic-edit" xmlns="http://www.w3.org/2000/svg" xmlns:xlink="http://www.w3.org/1999/xlink" x="0px" y="0px"
	 viewBox="0 0 38 38" style="enable-background:new 0 0 38 38;" xml:space="preserve">
<path id="ic" style="fill:#FFFFFF;" d="M22.4,11.1l4.4,4.4c0.2,0.2,0.2,0.5,0,0.7L14.6,28.3c-0.2,0.2-0.5,0.2-0.7,0l-4.3-4.4
	c-0.2-0.2-0.2-0.5,0-0.7l12.1-12.1C21.9,10.9,22.2,10.9,22.4,11.1z M30.9,9.5l-2.3-2.3c-0.9-0.9-2.3-0.9-3.2,0l-1.8,1.8
	c-0.2,0.2-0.2,0.5,0,0.7l4.4,4.4c0.2,0.2,0.5,0.2,0.7,0l2.2-2.2C31.6,11.3,31.6,10.2,30.9,9.5L30.9,9.5z M6.6,30.7
	c-0.1,0.4,0.3,0.8,0.7,0.7l4.8-1.2c0.4-0.1,0.5-0.6,0.2-0.8l-3.8-3.8c-0.3-0.3-0.8-0.1-0.8,0.2L6.6,30.7z M6.6,30.7"/>
</svg>
