<?xml version="1.0" encoding="utf-8"?>
<!-- Generator: Adobe Illustrator 20.1.0, SVG Export Plug-In . SVG Version: 6.00 Build 0)  -->
<svg version="1.1" id="Layer_16" xmlns="http://www.w3.org/2000/svg" xmlns:xlink="http://www.w3.org/1999/xlink" x="0px" y="0px"
	 viewBox="0 0 100 100" style="enable-background:new 0 0 100 100;" xml:space="preserve">
<g id="mirror">
	<g>
		<g>
			<g>
				<path style="fill:#F7D523;" d="M50.3,30.5c-0.3,0-0.5-0.2-0.5-0.5v-1.5c0-0.3,0.2-0.5,0.5-0.5s0.5,0.2,0.5,0.5V30
					C50.8,30.3,50.6,30.5,50.3,30.5z"/>
			</g>
			<g>
				<path style="fill:#F7D523;" d="M50.3,67.4c-0.3,0-0.5-0.2-0.5-0.5v-3.1c0-0.3,0.2-0.5,0.5-0.5s0.5,0.2,0.5,0.5v3.1
					C50.8,67.2,50.6,67.4,50.3,67.4z M50.3,61.3c-0.3,0-0.5-0.2-0.5-0.5v-3.1c0-0.3,0.2-0.5,0.5-0.5s0.5,0.2,0.5,0.5v3.1
					C50.8,61,50.6,61.3,50.3,61.3z M50.3,55.1c-0.3,0-0.5-0.2-0.5-0.5v-3.1c0-0.3,0.2-0.5,0.5-0.5s0.5,0.2,0.5,0.5v3.1
					C50.8,54.9,50.6,55.1,50.3,55.1z M50.3,49c-0.3,0-0.5-0.2-0.5-0.5v-3.1c0-0.3,0.2-0.5,0.5-0.5s0.5,0.2,0.5,0.5v3.1
					C50.8,48.7,50.6,49,50.3,49z M50.3,42.8c-0.3,0-0.5-0.2-0.5-0.5v-3.1c0-0.3,0.2-0.5,0.5-0.5s0.5,0.2,0.5,0.5v3.1
					C50.8,42.6,50.6,42.8,50.3,42.8z M50.3,36.7c-0.3,0-0.5-0.2-0.5-0.5v-3.1c0-0.3,0.2-0.5,0.5-0.5s0.5,0.2,0.5,0.5v3.1
					C50.8,36.4,50.6,36.7,50.3,36.7z"/>
			</g>
			<g>
				<path style="fill:#F7D523;" d="M50.3,72c-0.3,0-0.5-0.2-0.5-0.5V70c0-0.3,0.2-0.5,0.5-0.5s0.5,0.2,0.5,0.5v1.5
					C50.8,71.8,50.6,72,50.3,72z"/>
			</g>
		</g>
	</g>
	<g>
		<path style="fill:#F7D523;" d="M69.9,63.6c-0.1,0-0.2,0-0.3-0.1l0.4-0.4l-0.4,0.4l-2.1-2.1c-0.2-0.2-0.2-0.5,0-0.7s0.5-0.2,0.7,0
			l2.1,2.1c0.2,0.2,0.2,0.5,0,0.7C70.1,63.6,70,63.6,69.9,63.6z M70.2,61c-0.3,0-0.5-0.2-0.5-0.5v-2.9c0-0.3,0.2-0.5,0.5-0.5
			s0.5,0.2,0.5,0.5v2.9C70.7,60.8,70.5,61,70.2,61z M65.8,59.5c-0.1,0-0.3,0-0.4-0.1l-2.1-2.1c-0.2-0.2-0.2-0.5,0-0.7s0.5-0.2,0.7,0
			l2.1,2.1c0.2,0.2,0.2,0.5,0,0.7C66,59.5,65.9,59.5,65.8,59.5z M61.7,55.4c-0.1,0-0.3,0-0.4-0.1l-2.1-2.1c-0.2-0.2-0.2-0.5,0-0.7
			s0.5-0.2,0.7,0l2.1,2.1c0.2,0.2,0.2,0.5,0,0.7C61.9,55.4,61.8,55.4,61.7,55.4z M70.2,55.2c-0.3,0-0.5-0.2-0.5-0.5v-2.9
			c0-0.3,0.2-0.5,0.5-0.5s0.5,0.2,0.5,0.5v2.9C70.7,55,70.5,55.2,70.2,55.2z M57.6,51.3c-0.1,0-0.3,0-0.4-0.1l-0.7-0.7
			c-0.1-0.1-0.2-0.3-0.2-0.5c0-0.2,0.1-0.4,0.2-0.5l1.2-1.2c0.2-0.2,0.5-0.2,0.7,0s0.2,0.5,0,0.7l-1,1l0.4,0.4
			c0.2,0.2,0.2,0.5,0,0.7C57.8,51.3,57.7,51.3,57.6,51.3z M70.2,49.4c-0.3,0-0.5-0.2-0.5-0.5V46c0-0.3,0.2-0.5,0.5-0.5
			s0.5,0.2,0.5,0.5v2.9C70.7,49.2,70.5,49.4,70.2,49.4z M60.1,47.2c-0.1,0-0.3,0-0.4-0.1c-0.2-0.2-0.2-0.5,0-0.7l2.1-2.1
			c0.2-0.2,0.5-0.2,0.7,0s0.2,0.5,0,0.7L60.5,47C60.4,47.1,60.3,47.2,60.1,47.2z M70.2,43.6c-0.3,0-0.5-0.2-0.5-0.5v-2.9
			c0-0.3,0.2-0.5,0.5-0.5s0.5,0.2,0.5,0.5v2.9C70.7,43.4,70.5,43.6,70.2,43.6z M64.2,43.1c-0.1,0-0.3,0-0.4-0.1
			c-0.2-0.2-0.2-0.5,0-0.7l2.1-2.1c0.2-0.2,0.5-0.2,0.7,0s0.2,0.5,0,0.7l-2.1,2.1C64.5,43,64.4,43.1,64.2,43.1z M68.4,39
			c-0.1,0-0.3,0-0.4-0.1c-0.2-0.2-0.2-0.5,0-0.7l1.5-1.5c0.1-0.1,0.3-0.2,0.5-0.2c0.4,0,0.7,0.3,0.7,0.7v0.3c0,0.3-0.2,0.5-0.5,0.5
			c-0.1,0-0.3-0.1-0.4-0.2l-1.1,1.1C68.6,38.9,68.5,39,68.4,39z"/>
	</g>
	<g>
		<path style="fill:#F7D523;" d="M30,63.7c-0.1,0-0.2,0-0.3-0.1c-0.3-0.1-0.4-0.4-0.4-0.6V37.1c0-0.3,0.2-0.5,0.4-0.6
			c0.3-0.1,0.6,0,0.8,0.2l13,13c0.3,0.3,0.3,0.7,0,1l-13,13C30.3,63.6,30.2,63.7,30,63.7z M29.8,62.8C29.8,62.8,29.8,62.8,29.8,62.8
			L29.8,62.8z M30.3,37.8v24.5L42.5,50L30.3,37.8z M29.8,37.3C29.8,37.3,29.8,37.3,29.8,37.3L29.8,37.3z"/>
	</g>
</g>
</svg>
