<?xml version="1.0" encoding="utf-8"?>
<!-- Generator: Adobe Illustrator 20.1.0, SVG Export Plug-In . SVG Version: 6.00 Build 0)  -->
<svg version="1.1" id="Layer_1" xmlns="http://www.w3.org/2000/svg" xmlns:xlink="http://www.w3.org/1999/xlink" x="0px" y="0px"
	 viewBox="0 0 100 100" style="enable-background:new 0 0 100 100;" xml:space="preserve">
<g id="photo">
	<g id="icon-camera">
		<g>
			<path style="fill:#F7D523;" d="M50,78.5c-15.7,0-28.5-12.8-28.5-28.5S34.3,21.5,50,21.5S78.5,34.3,78.5,50S65.7,78.5,50,78.5z
				 M50,22.5c-15.2,0-27.5,12.3-27.5,27.5c0,15.2,12.3,27.5,27.5,27.5c15.2,0,27.5-12.3,27.5-27.5C77.5,34.8,65.2,22.5,50,22.5z"/>
		</g>
		<g>
			<path style="fill:#F7D523;" d="M50,62.5c-6.9,0-12.5-5.6-12.5-12.5S43.1,37.5,50,37.5S62.5,43.1,62.5,50S56.9,62.5,50,62.5z
				 M50,38.5c-6.3,0-11.5,5.2-11.5,11.5c0,6.3,5.2,11.5,11.5,11.5c6.3,0,11.5-5.2,11.5-11.5C61.5,43.7,56.3,38.5,50,38.5z"/>
		</g>
		<g>
			<path style="fill:#F7D523;" d="M58,50.5c-0.3,0-0.5-0.2-0.5-0.5c0-4.1-3.4-7.5-7.5-7.5c-0.3,0-0.5-0.2-0.5-0.5s0.2-0.5,0.5-0.5
				c4.7,0,8.5,3.8,8.5,8.5C58.5,50.3,58.3,50.5,58,50.5z"/>
		</g>
	</g>
</g>
</svg>
