<?xml version="1.0" encoding="utf-8"?>
<!-- Generator: Adobe Illustrator 21.1.0, SVG Export Plug-In . SVG Version: 6.00 Build 0)  -->
<svg version="1.1" class="registration__close" xmlns="http://www.w3.org/2000/svg" xmlns:xlink="http://www.w3.org/1999/xlink" x="0px" y="0px"
	 viewBox="0 0 24 24" style="enable-background:new 0 0 24 24;" xml:space="preserve">
<path style="opacity:0.2;fill:#FFFFFF;" d="M14.1,12l7-7c0.6-0.6,0.6-1.5,0-2.1c-0.6-0.6-1.5-0.6-2.1,0l-7,7l-7-7
	c-0.6-0.6-1.5-0.6-2.1,0C2.3,3.5,2.3,4.4,2.9,5l7,7l-7,7c-0.3,0.3-0.4,0.7-0.4,1.1s0.1,0.8,0.4,1.1c0.6,0.6,1.5,0.6,2.1,0l7-7l7,7
	c0.3,0.3,0.7,0.4,1.1,0.4s0.8-0.1,1.1-0.4c0.6-0.6,0.6-1.5,0-2.1L14.1,12z"/>
</svg>
