<?xml version="1.0" encoding="utf-8"?>
<!-- Generator: Adobe Illustrator 20.1.0, SVG Export Plug-In . SVG Version: 6.00 Build 0)  -->
<svg version="1.1" id="Layer_1" xmlns="http://www.w3.org/2000/svg" xmlns:xlink="http://www.w3.org/1999/xlink" x="0px" y="0px"
	 viewBox="0 0 100 100" style="enable-background:new 0 0 100 100;" xml:space="preserve">
<g>
	<path style="fill:#BFBFBF;" d="M80.1,77.3H19.9c-1.3,0-2.3,1-2.3,2.3c0,1.2,1,2.3,2.3,2.3h60.3c1.3,0,2.3-1,2.3-2.3
		C82.5,78.4,81.4,77.3,80.1,77.3L80.1,77.3z M80.1,77.3"/>
	<path style="fill:#BFBFBF;" d="M17.6,57.3l-0.1,10.7c0,0.6,0.2,1.2,0.7,1.7c0.4,0.4,1,0.7,1.6,0.7l10.7-0.1c0.6,0,1.2-0.2,1.6-0.7
		L69,32.8c0.9-0.9,0.9-2.3,0-3.3L58.4,18.8c-0.9-0.9-2.3-0.9-3.2,0l-7.4,7.4L18.3,55.7C17.9,56.2,17.6,56.7,17.6,57.3L17.6,57.3z
		 M56.8,23.7l7.4,7.4l-4.2,4.2l-7.4-7.4L56.8,23.7z M22.2,58.3l27.2-27.2l7.4,7.4L29.6,65.7l-7.5,0.1L22.2,58.3z M22.2,58.3"/>
</g>
</svg>
