<?xml version="1.0" encoding="utf-8"?>
<!-- Generator: Adobe Illustrator 20.1.0, SVG Export Plug-In . SVG Version: 6.00 Build 0)  -->
<svg version="1.1" class="s-1__leon-logo" xmlns="http://www.w3.org/2000/svg" xmlns:xlink="http://www.w3.org/1999/xlink" x="0px" y="0px"
	 viewBox="0 0 354 120" style="enable-background:new 0 0 354 120;" xml:space="preserve">
<g id="logo_6_">
	<g>
		<polygon style="fill:#FDC000;" points="352.5,57.6 350.5,77.3 348.4,98.4 2.4,118.1 6.5,77.3 		"/>
		<g>
			<path d="M46.9,89L42,89.2l-1.6,14.1l-2,0.1L40,89.3l-4.9,0.3l0.2-1.7l11.7-0.7L46.9,89z"/>
			<path d="M47.1,102.9l1.8-15.8l4.6-0.3c1.6-0.1,2.8,0.2,3.6,0.9s1.2,1.6,1.2,2.9c0,1.5-0.9,2.7-2.6,3.5c0.7,0.2,1.3,0.7,1.7,1.3
				s0.6,1.4,0.5,2.2c0,1.4-0.5,2.6-1.5,3.4c-1,0.9-2.3,1.4-3.9,1.5L47.1,102.9z M49.9,95.4l-0.7,5.7l3.2-0.2c1-0.1,1.8-0.4,2.4-0.9
				c0.6-0.6,1-1.3,1-2.2c0.1-0.8-0.1-1.5-0.6-1.9c-0.4-0.4-1.1-0.7-1.9-0.6L49.9,95.4z M50.1,93.8l2.9-0.2c0.9-0.1,1.7-0.3,2.3-0.8
				c0.6-0.5,0.9-1.2,1-2c0-0.8-0.1-1.3-0.5-1.7c-0.4-0.4-1.1-0.5-2-0.5l-3.1,0.2L50.1,93.8z"/>
			<path d="M65.6,102.1c-1,0-1.9-0.2-2.6-0.6c-0.8-0.4-1.4-1.1-1.8-1.9c-0.5-0.9-0.8-1.9-0.9-3c-0.1-0.9-0.1-1.9,0.1-3.2
				s0.5-2.5,1-3.5c0.5-1.1,1.2-1.9,2-2.6c1.1-0.9,2.3-1.4,3.8-1.4c1.5-0.1,2.8,0.4,3.7,1.4c0.9,1,1.5,2.3,1.7,4.1
				c0.1,0.7,0,1.7-0.1,2.9c-0.1,1.2-0.4,2.3-0.8,3.3c-0.4,1-1,1.9-1.6,2.6C68.8,101.3,67.4,102,65.6,102.1z M70.5,91.9
				c0-1.4-0.3-2.5-0.9-3.2c-0.6-0.7-1.4-1.1-2.5-1.1c-1,0-1.8,0.3-2.5,0.9c-0.7,0.6-1.3,1.4-1.7,2.5c-0.4,1.1-0.6,2.5-0.7,4.2l0,0.7
				c0,1.4,0.4,2.5,0.9,3.2c0.6,0.8,1.4,1.1,2.4,1.1c1.4,0,2.4-0.6,3.3-1.7c0.8-1.1,1.3-2.5,1.5-4.4C70.5,93.4,70.6,92.6,70.5,91.9z"
				/>
			<path d="M85.4,85l2.1-0.1l-1.8,15.8l-2,0.1l1.4-12l-8.8,12.4l-2.1,0.1L76,85.6l2-0.1l-1.4,12L85.4,85z M85.3,81.1
				c0,0.9-0.3,1.6-0.9,2.2c-0.6,0.6-1.3,0.9-2.2,0.9c-0.9,0-1.6-0.2-2.2-0.7s-0.9-1.2-0.9-2.1l1.6-0.1c0,1,0.5,1.6,1.4,1.5
				c0.5,0,0.9-0.2,1.2-0.5c0.3-0.3,0.4-0.7,0.5-1.2L85.3,81.1z"/>
			<path d="M111.7,83.5l-1.8,15.8l-3.2,0.2l0.8-6c-0.9,0.3-1.8,0.4-2.9,0.5c-1.8,0.1-3.1-0.3-4.1-1.2c-1-0.9-1.4-2.1-1.3-3.7
				l0.5-4.9l3.1-0.2l-0.5,4.9c-0.1,0.9,0.1,1.5,0.4,1.9c0.4,0.4,1,0.6,1.9,0.5c0.8,0,1.8-0.2,3.1-0.4l0.9-7.2L111.7,83.5z"/>
			<path d="M122,91.8l-6,0.3l-0.5,4.2l7-0.4l-0.3,2.6l-10.2,0.6l1.8-15.8l10.2-0.6l-0.3,2.6l-7,0.4l-0.4,3.8l6-0.3L122,91.8z"/>
			<path d="M136.5,92.5c-0.1,1.1-0.4,2.1-0.9,2.9c-0.6,0.9-1.3,1.6-2.3,2.1c-1,0.5-2,0.8-3.2,0.8c-1,0-1.9-0.1-2.7-0.6
				c-0.8-0.4-1.4-1-1.9-1.9c-0.5-0.8-0.8-1.8-0.9-2.9c-0.1-0.9-0.1-2,0.1-3.3s0.5-2.5,1-3.6c0.5-1,1.2-1.9,2-2.5
				c1.1-0.9,2.4-1.4,3.9-1.4c1.6-0.1,2.9,0.4,3.9,1.3c1,0.9,1.6,2.2,1.8,3.9l-3.1,0.2c-0.1-1-0.3-1.7-0.7-2.1
				c-0.4-0.4-1-0.6-1.9-0.6c-1.1,0-1.9,0.5-2.6,1.3c-0.6,0.8-1,2-1.2,3.6c-0.1,1.5-0.2,2.6-0.1,3.4c0.1,0.9,0.3,1.6,0.8,2
				c0.4,0.4,1,0.6,1.7,0.6c1,0,1.7-0.3,2.3-0.8c0.5-0.5,0.9-1.2,1-2.2L136.5,92.5z"/>
			<path d="M150.6,83.9l-4.6,0.3l-1.5,13.1l-3.1,0.2l1.5-13.1l-4.6,0.3l0.3-2.6l12.4-0.7L150.6,83.9z"/>
			<path d="M163.6,96.2l-3.1,0.2l0.8-6.8l-6.1,0.3l-0.8,6.8l-3.1,0.2l1.8-15.8l3.1-0.2l-0.7,6.4l6.1-0.3l0.7-6.4l3.1-0.2L163.6,96.2
				z"/>
			<path d="M170.7,85.8l2-0.1c1.7-0.1,3.1,0.3,4.1,1.1c1,0.8,1.5,2,1.5,3.4c0,1.6-0.6,2.8-1.7,3.8c-1.1,1-2.6,1.6-4.5,1.7l-5.8,0.3
				l1.8-15.8l3.2-0.2L170.7,85.8z M170.4,88.4l-0.6,4.9l2.3-0.1c0.8,0,1.5-0.3,2.1-0.8c0.6-0.5,0.9-1.2,1-2c0.1-0.7-0.1-1.2-0.5-1.5
				c-0.4-0.4-0.9-0.6-1.7-0.5L170.4,88.4z M182.2,95.1l-3.1,0.2l1.8-15.8l3.1-0.2L182.2,95.1z"/>
			<path d="M195.7,78.7l3.3-0.2l-1.8,15.8l-3.2,0.2l1.2-10.3L188,94.8l-3.3,0.2l1.8-15.8l3.1-0.2l-1.2,10.3L195.7,78.7z M196.8,74.5
				c0,1-0.3,1.8-1,2.4c-0.7,0.6-1.5,1-2.6,1c-1,0-1.8-0.2-2.5-0.7s-1-1.3-1.1-2.3l2.1-0.1c0,0.9,0.5,1.4,1.3,1.4
				c0.5,0,0.8-0.2,1.1-0.4c0.3-0.3,0.4-0.6,0.5-1.1L196.8,74.5z"/>
			<path d="M220,79.9l-6.8,0.4l-0.4,3.1l2-0.1c1.7-0.1,3.1,0.3,4.1,1.1c1,0.8,1.5,2,1.5,3.4c0,1.6-0.6,2.8-1.7,3.8
				c-1.1,1-2.6,1.6-4.5,1.7l-5.8,0.3l1.8-15.8l9.9-0.6L220,79.9z M212.6,86l-0.6,4.9l2.3-0.1c0.8,0,1.5-0.3,2.1-0.8
				c0.6-0.5,0.9-1.2,1-2c0.1-0.7-0.1-1.2-0.5-1.5s-0.9-0.6-1.7-0.5L212.6,86z"/>
			<path d="M227.9,84.2l3.6-7.6l3.5-0.2l-6.6,13c-0.6,1.2-1.2,2.1-1.9,2.7c-0.7,0.6-1.5,0.9-2.5,0.9l-1.2,0l0.1-2.6l0.8,0
				c0.5,0,0.9-0.2,1.2-0.4s0.6-0.6,0.9-1.2l0.4-0.7l-4-10.9l3.2-0.2L227.9,84.2z"/>
			<path d="M240.6,85.4l-1.9,0.1l-0.7,6.4l-3.1,0.2l1.8-15.8l3.1-0.2l-0.7,6.3l1.3-0.1l4.4-6.5l4-0.2l-5.7,7.9l4.2,7.8l-3.6,0.2
				L240.6,85.4z"/>
			<path d="M254.8,75.3l2.6,11.2l5.2-11.6l4.2-0.2l-1.8,15.8l-3.2,0.2l0.5-4.5l1.1-7l-5.3,11.7l-2.2,0.1l-2.8-11.7l-0.6,7.7
				l-0.5,4.1l-3.1,0.2l1.8-15.8L254.8,75.3z"/>
			<path d="M277.6,82.8l-6,0.3l-0.5,4.2l7-0.4l-0.3,2.6l-10.2,0.6l1.8-15.8l10.2-0.6l-0.3,2.6l-7,0.4l-0.4,3.8l6-0.3L277.6,82.8z"/>
			<path d="M285.9,82.7l-1.9,0.1l-0.7,6.4l-3.1,0.2l1.8-15.8l3.1-0.2l-0.7,6.3l1.3-0.1l4.4-6.5l4-0.2l-5.7,7.9l4.2,7.9L289,89
				L285.9,82.7z"/>
			<path d="M303.7,81.3l-6,0.3l-0.5,4.2l7-0.4l-0.3,2.6l-10.2,0.6l1.8-15.8l10.2-0.6l-0.3,2.6l-7,0.4l-0.4,3.8l6-0.3L303.7,81.3z"/>
			<path d="M310,82.2l-0.6,5.6l-3.1,0.2l1.8-15.8l5.5-0.3c1.7-0.1,3,0.3,4.1,1.2c1,0.9,1.5,2.1,1.5,3.6c0,1.5-0.6,2.8-1.7,3.8
				c-1.1,1-2.6,1.5-4.4,1.6L310,82.2z M310.3,79.6l2.6-0.1c0.8,0,1.5-0.3,2.1-0.8c0.5-0.5,0.8-1.1,0.9-1.8c0.1-0.7-0.1-1.3-0.5-1.8
				s-0.9-0.6-1.6-0.6l-3,0.2L310.3,79.6z"/>
		</g>
	</g>
	<g>
		<g id="logo_7_">
			<g id="logo-leon_5_">
				<path style="fill:#FFFFFF;" d="M161.3,8.9c2.4-0.5,4.9-0.6,7.3-0.4c2.3,3.6,4.3,7.3,6.6,10.7c3.9,0.7,7.9,1,11.8,1.5l0.1,0
					c1.2,2.2,2.1,4.6,2.6,7.1l-7.5,9.1c0.6,4,1.5,7.8,2,11.7c-1.7,2-3.7,3.7-5.9,5c-3.8-1.6-7.6-3-11.4-4.5c-3.5,2-7.2,3.9-10.8,6
					c-2.2-1-4.2-2.3-6.1-3.8c0.2-4.2,0.5-8.3,0.7-12.5c-3.1-2.9-6.1-5.8-9.2-8.6c0.2-2.3,0.8-4.6,1.7-6.7c4.2-1,8.3-2,12.5-3.2
					L161.3,8.9z"/>
				<path style="fill:#D71015;" d="M143.4,23.4c3-7.4,9.9-13.2,17.8-14.5l-5.3,11.3C151.8,21.4,147.6,22.4,143.4,23.4z M168.6,8.6
					c7.6,0.8,14.8,5.4,18.4,12.1c-3.9-0.5-7.8-0.9-11.8-1.5C172.9,15.8,170.8,12.1,168.6,8.6L168.6,8.6z"/>
				<path style="fill:#FFFFFF;" d="M61,15.6l0.4-0.2l11.7-0.7c0.6-0.1,1.2,0.3,1.3,0.9c0,0.3,0,0.5-0.1,0.8
					c-2.2,10.5-4.3,21.1-6.5,31.5c-0.2,0.5,0,1.1,0.6,1.3c0.1,0.1,0.3,0.1,0.4,0.1L91.2,48c0.9-0.2,1.7,0.8,1.3,1.7
					c-0.5,2.1-1,4.3-1.4,6.4c-0.2,0.6-0.8,1.1-1.5,1l-36.3,2.1c-0.6,0-1.4-0.6-1.2-1.3l8.4-40.2C60.6,17,60.5,16.2,61,15.6L61,15.6z
					 M104,14.6c0-1,0.8-1.8,1.8-1.9l34.3-2c1.3-0.1,1.7,1.7,1,2.6c-1.5,2-2.8,4.2-3.9,6.5l-0.4,0.2l-19.2,1.1
					c-0.7-0.1-1.4,0.3-1.5,1.1c-0.3,2-0.8,4-1.2,5.9c-0.2,0.6,0.6,1.3,1.2,1.3l16.9-1c0.8-0.2,1.6,0.2,1.9,1c0,0.1,0,0.1,0.1,0.2
					l-1.4,6.7c-0.1,0.7-1,1-1.6,1l-18.6,1.1l-0.6,0.5c-0.7,2.4-1.1,4.8-1.5,7.2l0.9,1c7.8-0.4,15.7-0.9,23.5-1.4
					c0.8-0.2,1.4,0.4,1.7,1c-0.4,2.2-1,4.5-1.4,6.8c-0.1,0.7-0.8,1.1-1.5,1.1c-12.7,0.7-25.4,1.6-38.1,2.2l-0.7-0.8
					C98.2,42.2,101.2,28.5,104,14.6L104,14.6z M199.3,8.6c0.1-0.8,0.8-1.4,1.6-1.4c3.2-0.1,6.4-0.4,9.5-0.5l0.7,0.5
					c4.6,7.3,8.9,14.9,13.5,22.3l0.4-0.3c1.8-7.8,3.4-15.8,5.1-23.6c4.1-0.2,8.2-0.7,12.3-0.7l0.6,0.7c-2.8,13.9-5.7,27.8-8.5,41.7
					c-0.1,0.9-0.9,1.6-1.8,1.5l-9,0.5c-0.9,0.1-1.3-0.8-1.7-1.5c-4.4-6.9-8.8-13.7-13.3-20.4l-0.4,0.5c-1.7,7.6-2.9,15.1-4.6,22.4
					l-0.5,0.3c-4.1,0.2-8.2,0.5-12.3,0.6l-0.7-0.7c4.7-6.7,6.8-15.3,5.1-23.4L199.3,8.6L199.3,8.6z M296.6,2
					c-13.5,0.8-27,1.4-40.5,2.5c-2.9,0.8-5.1,3.2-5.6,6.1c-1.3,7.8-2.8,15.5-4.2,23.2c-0.2,2.3,1.5,4.4,3.8,4.6c0.2,0,0.5,0,0.7,0
					l39.1-2.3c3.5-0.2,6.5-3,7-6.4c1.3-7.8,2.8-15.5,4.1-23.2c0.2-2.3-1.5-4.4-3.8-4.6C297.1,1.9,296.9,1.9,296.6,2L296.6,2z
					 M273.5,16.6c0.1,2.5-1.7,4.5-3.8,5.4c0.8,2,1.6,4,2.3,6l-4.7,0.3c-0.6-1.8-1.1-3.7-1.8-5.5l-2.8,0.2l-1,5.6l-4.4,0.3l2.8-15.5
					l9.2-0.5C271.3,12.9,273.5,14.5,273.5,16.6L273.5,16.6z M289.7,22.7c-0.6,2.6-3.1,4.1-5.5,4.6c-2.4,0.5-5.2,0.6-7.4-0.8
					c-1.4-0.8-2.2-2.4-1.9-4c0.6-3.3,1.3-6.6,1.8-9.9c1.4-0.5,3-0.3,4.4-0.4c-0.5,3.2-1.2,6.4-1.8,9.6c-0.2,0.8,0,1.8,0.7,2.2
					c2,1,4.9,0.2,5.4-2.1c0.7-3.3,1.3-6.7,1.9-10.1l4.4-0.3L289.7,22.7L289.7,22.7z"/>
				<path style="fill:#FFFFFF;" d="M268.2,16.2c-1.4-0.2-2.9,0.2-4.4,0.2c-0.2,1.1-0.3,2.2-0.6,3.4c1.6,0,3.1,0,4.6-0.4
					C269.1,19,269.8,16.5,268.2,16.2z"/>
				<path style="fill:#D71015;" d="M158.5,24.2c4.4-0.5,8.9-0.5,13.3-0.9l0.3,0.2c1.6,4.1,3.1,8.2,4.8,12.2c-3.2,3.1-7,5.8-10.4,8.8
					c-3.8-2.4-7.8-4.8-11.4-7.4C156.4,32.8,157.4,28.5,158.5,24.2L158.5,24.2z M141.7,30.3c3.1,2.8,6.1,5.7,9.1,8.6l-0.7,12.5
					C144.1,46.4,140.7,38.2,141.7,30.3L141.7,30.3z M182.2,37.1l7.5-9.2c1.7,7.2-0.4,15.4-5.5,20.9C183.8,44.8,182.9,41,182.2,37.1
					L182.2,37.1z M156.2,55.2c3.6-2.1,7.2-4,10.8-6c3.8,1.5,7.6,2.9,11.4,4.5C171.8,57.8,163.3,58.3,156.2,55.2L156.2,55.2z"/>
			</g>
		</g>
	</g>
</g>
</svg>
