<svg class="s-1__leon-logo" xmlns="http://www.w3.org/2000/svg" viewBox="0 0 354 120"><path fill="#fdc000" d="M352.5 57.6l-2 19.7-2.1 21.1-346 19.7 4.1-40.8z"/><path d="M46.9 89l-4.9.2-1.6 14.1-2 .1L40 89.3l-4.9.3.2-1.7 11.7-.7-.1 1.8zm.2 13.9l1.8-15.8 4.6-.3c1.6-.1 2.8.2 3.6.9s1.2 1.6 1.2 2.9c0 1.5-.9 2.7-2.6 3.5.7.2 1.3.7 1.7 1.3s.6 1.4.5 2.2c0 1.4-.5 2.6-1.5 3.4-1 .9-2.3 1.4-3.9 1.5l-5.4.4zm2.8-7.5l-.7 5.7 3.2-.2c1-.1 1.8-.4 2.4-.9.6-.6 1-1.3 1-2.2.1-.8-.1-1.5-.6-1.9-.4-.4-1.1-.7-1.9-.6l-3.4.1zm.2-1.6l2.9-.2c.9-.1 1.7-.3 2.3-.8.6-.5.9-1.2 1-2 0-.8-.1-1.3-.5-1.7-.4-.4-1.1-.5-2-.5l-3.1.2-.6 5zm15.5 8.3c-1 0-1.9-.2-2.6-.6-.8-.4-1.4-1.1-1.8-1.9-.5-.9-.8-1.9-.9-3-.1-.9-.1-1.9.1-3.2s.5-2.5 1-3.5c.5-1.1 1.2-1.9 2-2.6 1.1-.9 2.3-1.4 3.8-1.4 1.5-.1 2.8.4 3.7 1.4.9 1 1.5 2.3 1.7 4.1.1.7 0 1.7-.1 2.9s-.4 2.3-.8 3.3-1 1.9-1.6 2.6c-1.3 1.1-2.7 1.8-4.5 1.9zm4.9-10.2c0-1.4-.3-2.5-.9-3.2-.6-.7-1.4-1.1-2.5-1.1-1 0-1.8.3-2.5.9-.7.6-1.3 1.4-1.7 2.5-.4 1.1-.6 2.5-.7 4.2v.7c0 1.4.4 2.5.9 3.2.6.8 1.4 1.1 2.4 1.1 1.4 0 2.4-.6 3.3-1.7.8-1.1 1.3-2.5 1.5-4.4.2-.7.3-1.5.2-2.2zM85.4 85l2.1-.1-1.8 15.8-2 .1 1.4-12-8.8 12.4-2.1.1L76 85.6l2-.1-1.4 12L85.4 85zm-.1-3.9c0 .9-.3 1.6-.9 2.2-.6.6-1.3.9-2.2.9-.9 0-1.6-.2-2.2-.7s-.9-1.2-.9-2.1l1.6-.1c0 1 .5 1.6 1.4 1.5.5 0 .9-.2 1.2-.5.3-.3.4-.7.5-1.2h1.5zm26.4 2.4l-1.8 15.8-3.2.2.8-6c-.9.3-1.8.4-2.9.5-1.8.1-3.1-.3-4.1-1.2-1-.9-1.4-2.1-1.3-3.7l.5-4.9 3.1-.2-.5 4.9c-.1.9.1 1.5.4 1.9.4.4 1 .6 1.9.5.8 0 1.8-.2 3.1-.4l.9-7.2 3.1-.2zm10.3 8.3l-6 .3-.5 4.2 7-.4-.3 2.6-10.2.6 1.8-15.8 10.2-.6-.3 2.6-7 .4-.4 3.8 6-.3-.3 2.6zm14.5.7c-.1 1.1-.4 2.1-.9 2.9-.6.9-1.3 1.6-2.3 2.1-1 .5-2 .8-3.2.8-1 0-1.9-.1-2.7-.6-.8-.4-1.4-1-1.9-1.9-.5-.8-.8-1.8-.9-2.9-.1-.9-.1-2 .1-3.3s.5-2.5 1-3.6c.5-1 1.2-1.9 2-2.5 1.1-.9 2.4-1.4 3.9-1.4 1.6-.1 2.9.4 3.9 1.3s1.6 2.2 1.8 3.9l-3.1.2c-.1-1-.3-1.7-.7-2.1-.4-.4-1-.6-1.9-.6-1.1 0-1.9.5-2.6 1.3-.6.8-1 2-1.2 3.6-.1 1.5-.2 2.6-.1 3.4.1.9.3 1.6.8 2 .4.4 1 .6 1.7.6 1 0 1.7-.3 2.3-.8.5-.5.9-1.2 1-2.2l3-.2zm14.1-8.6l-4.6.3-1.5 13.1-3.1.2 1.5-13.1-4.6.3.3-2.6 12.4-.7-.4 2.5zm13 12.3l-3.1.2.8-6.8-6.1.3-.8 6.8-3.1.2 1.8-15.8 3.1-.2-.7 6.4 6.1-.3.7-6.4 3.1-.2-1.8 15.8zm7.1-10.4l2-.1c1.7-.1 3.1.3 4.1 1.1 1 .8 1.5 2 1.5 3.4 0 1.6-.6 2.8-1.7 3.8s-2.6 1.6-4.5 1.7l-5.8.3 1.8-15.8 3.2-.2-.6 5.8zm-.3 2.6l-.6 4.9 2.3-.1c.8 0 1.5-.3 2.1-.8.6-.5.9-1.2 1-2 .1-.7-.1-1.2-.5-1.5-.4-.4-.9-.6-1.7-.5h-2.6zm11.8 6.7l-3.1.2 1.8-15.8 3.1-.2-1.8 15.8zm13.5-16.4l3.3-.2-1.8 15.8-3.2.2 1.2-10.3-7.2 10.6-3.3.2 1.8-15.8 3.1-.2-1.2 10.3 7.3-10.6zm1.1-4.2c0 1-.3 1.8-1 2.4-.7.6-1.5 1-2.6 1-1 0-1.8-.2-2.5-.7s-1-1.3-1.1-2.3l2.1-.1c0 .9.5 1.4 1.3 1.4.5 0 .8-.2 1.1-.4.3-.3.4-.6.5-1.1l2.2-.2zm23.2 5.4l-6.8.4-.4 3.1 2-.1c1.7-.1 3.1.3 4.1 1.1 1 .8 1.5 2 1.5 3.4 0 1.6-.6 2.8-1.7 3.8s-2.6 1.6-4.5 1.7l-5.8.3 1.8-15.8 9.9-.6-.1 2.7zm-7.4 6.1l-.6 4.9 2.3-.1c.8 0 1.5-.3 2.1-.8.6-.5.9-1.2 1-2 .1-.7-.1-1.2-.5-1.5s-.9-.6-1.7-.5h-2.6zm15.3-1.8l3.6-7.6 3.5-.2-6.6 13c-.6 1.2-1.2 2.1-1.9 2.7-.7.6-1.5.9-2.5.9h-1.2l.1-2.6h.8c.5 0 .9-.2 1.2-.4s.6-.6.9-1.2l.4-.7-4-10.9 3.2-.2 2.5 7.2zm12.7 1.2l-1.9.1-.7 6.4-3.1.2 1.8-15.8 3.1-.2-.7 6.3 1.3-.1 4.4-6.5 4-.2-5.7 7.9 4.2 7.8-3.6.2-3.1-6.1zm14.2-10.1l2.6 11.2 5.2-11.6 4.2-.2-1.8 15.8-3.2.2.5-4.5 1.1-7-5.3 11.7-2.2.1-2.8-11.7-.6 7.7-.5 4.1-3.1.2 1.8-15.8 4.1-.2zm22.8 7.5l-6 .3-.5 4.2 7-.4-.3 2.6-10.2.6 1.8-15.8 10.2-.6-.3 2.6-7 .4-.4 3.8 6-.3-.3 2.6zm8.3-.1l-1.9.1-.7 6.4-3.1.2 1.8-15.8 3.1-.2-.7 6.3 1.3-.1 4.4-6.5 4-.2-5.7 7.9 4.2 7.9-3.6.3-3.1-6.3zm17.8-1.4l-6 .3-.5 4.2 7-.4-.3 2.6-10.2.6 1.8-15.8 10.2-.6-.3 2.6-7 .4-.4 3.8 6-.3-.3 2.6zm6.3.9l-.6 5.6-3.1.2 1.8-15.8 5.5-.3c1.7-.1 3 .3 4.1 1.2 1 .9 1.5 2.1 1.5 3.6s-.6 2.8-1.7 3.8-2.6 1.5-4.4 1.6l-3.1.1zm.3-2.6l2.6-.1c.8 0 1.5-.3 2.1-.8.5-.5.8-1.1.9-1.8.1-.7-.1-1.3-.5-1.8s-.9-.6-1.6-.6l-3 .2-.5 4.9z"/><path d="M161.3 8.9c2.4-.5 4.9-.6 7.3-.4 2.3 3.6 4.3 7.3 6.6 10.7 3.9.7 7.9 1 11.8 1.5h.1c1.2 2.2 2.1 4.6 2.6 7.1l-7.5 9.1c.6 4 1.5 7.8 2 11.7-1.7 2-3.7 3.7-5.9 5-3.8-1.6-7.6-3-11.4-4.5-3.5 2-7.2 3.9-10.8 6-2.2-1-4.2-2.3-6.1-3.8.2-4.2.5-8.3.7-12.5-3.1-2.9-6.1-5.8-9.2-8.6.2-2.3.8-4.6 1.7-6.7 4.2-1 8.3-2 12.5-3.2l5.6-11.4z" fill="#fff"/><path d="M143.4 23.4c3-7.4 9.9-13.2 17.8-14.5l-5.3 11.3c-4.1 1.2-8.3 2.2-12.5 3.2zm25.2-14.8c7.6.8 14.8 5.4 18.4 12.1-3.9-.5-7.8-.9-11.8-1.5-2.3-3.4-4.4-7.1-6.6-10.6z" fill="#d71015"/><path d="M61 15.6l.4-.2 11.7-.7c.6-.1 1.2.3 1.3.9 0 .3 0 .5-.1.8-2.2 10.5-4.3 21.1-6.5 31.5-.2.5 0 1.1.6 1.3.1.1.3.1.4.1L91.2 48c.9-.2 1.7.8 1.3 1.7-.5 2.1-1 4.3-1.4 6.4-.2.6-.8 1.1-1.5 1l-36.3 2.1c-.6 0-1.4-.6-1.2-1.3l8.4-40.2c.1-.7 0-1.5.5-2.1zm43-1c0-1 .8-1.8 1.8-1.9l34.3-2c1.3-.1 1.7 1.7 1 2.6-1.5 2-2.8 4.2-3.9 6.5l-.4.2-19.2 1.1c-.7-.1-1.4.3-1.5 1.1-.3 2-.8 4-1.2 5.9-.2.6.6 1.3 1.2 1.3l16.9-1c.8-.2 1.6.2 1.9 1 0 .1 0 .1.1.2l-1.4 6.7c-.1.7-1 1-1.6 1l-18.6 1.1-.6.5c-.7 2.4-1.1 4.8-1.5 7.2l.9 1c7.8-.4 15.7-.9 23.5-1.4.8-.2 1.4.4 1.7 1-.4 2.2-1 4.5-1.4 6.8-.1.7-.8 1.1-1.5 1.1-12.7.7-25.4 1.6-38.1 2.2l-.7-.8c2.5-13.8 5.5-27.5 8.3-41.4zm95.3-6c.1-.8.8-1.4 1.6-1.4 3.2-.1 6.4-.4 9.5-.5l.7.5c4.6 7.3 8.9 14.9 13.5 22.3l.4-.3c1.8-7.8 3.4-15.8 5.1-23.6 4.1-.2 8.2-.7 12.3-.7l.6.7c-2.8 13.9-5.7 27.8-8.5 41.7-.1.9-.9 1.6-1.8 1.5l-9 .5c-.9.1-1.3-.8-1.7-1.5-4.4-6.9-8.8-13.7-13.3-20.4l-.4.5c-1.7 7.6-2.9 15.1-4.6 22.4l-.5.3c-4.1.2-8.2.5-12.3.6l-.7-.7c4.7-6.7 6.8-15.3 5.1-23.4l4-18.5zM296.6 2c-13.5.8-27 1.4-40.5 2.5-2.9.8-5.1 3.2-5.6 6.1-1.3 7.8-2.8 15.5-4.2 23.2-.2 2.3 1.5 4.4 3.8 4.6h.7l39.1-2.3c3.5-.2 6.5-3 7-6.4 1.3-7.8 2.8-15.5 4.1-23.2.2-2.3-1.5-4.4-3.8-4.6-.1 0-.3 0-.6.1zm-23.1 14.6c.1 2.5-1.7 4.5-3.8 5.4.8 2 1.6 4 2.3 6l-4.7.3c-.6-1.8-1.1-3.7-1.8-5.5l-2.8.2-1 5.6-4.4.3 2.8-15.5 9.2-.5c2 0 4.2 1.6 4.2 3.7zm16.2 6.1c-.6 2.6-3.1 4.1-5.5 4.6s-5.2.6-7.4-.8c-1.4-.8-2.2-2.4-1.9-4 .6-3.3 1.3-6.6 1.8-9.9 1.4-.5 3-.3 4.4-.4-.5 3.2-1.2 6.4-1.8 9.6-.2.8 0 1.8.7 2.2 2 1 4.9.2 5.4-2.1.7-3.3 1.3-6.7 1.9-10.1l4.4-.3-2 11.2z" fill="#fff"/><path d="M268.2 16.2c-1.4-.2-2.9.2-4.4.2-.2 1.1-.3 2.2-.6 3.4 1.6 0 3.1 0 4.6-.4 1.3-.4 2-2.9.4-3.2z" fill="#fff"/><path d="M158.5 24.2c4.4-.5 8.9-.5 13.3-.9l.3.2c1.6 4.1 3.1 8.2 4.8 12.2-3.2 3.1-7 5.8-10.4 8.8-3.8-2.4-7.8-4.8-11.4-7.4 1.3-4.3 2.3-8.6 3.4-12.9zm-16.8 6.1c3.1 2.8 6.1 5.7 9.1 8.6l-.7 12.5c-6-5-9.4-13.2-8.4-21.1zm40.5 6.8l7.5-9.2c1.7 7.2-.4 15.4-5.5 20.9-.4-4-1.3-7.8-2-11.7zm-26 18.1c3.6-2.1 7.2-4 10.8-6 3.8 1.5 7.6 2.9 11.4 4.5-6.6 4.1-15.1 4.6-22.2 1.5z" fill="#d71015"/></svg>