<svg xmlns="http://www.w3.org/2000/svg" xmlns:xlink="http://www.w3.org/1999/xlink" viewBox="0 0 550 108"><defs><path id="a" d="M533 165H-4L13-7l538-4z"/></defs><clipPath id="b"><use xlink:href="#a" overflow="visible"/></clipPath><g clip-path="url(#b)"><path fill="#d71015" d="M603.4 68.1L-71.3 107l10.9-66.7L614.3 1.4z"/></g><defs><path id="c" d="M523 165H-64L-47-7l588-4z"/></defs><clipPath id="d"><use xlink:href="#c" overflow="visible"/></clipPath><g clip-path="url(#d)"><g opacity=".15"><path d="M62 52.5l-4 33.9-10.3.6 3-25.7-7.9.5-3 25.7-10.3.5 4-33.9L62 52.5zm10.7 24.1l-1 9-10.3.6 4-33.9L87.9 51l5.1 5-1.7 14.3-6.4 5.7-12.2.6zm8.7-17l-6.7.4-1 8.5 6.7-.4 1.1-1 .7-6.5-.8-1zm19.8 17.6l-2.9 6.9-10.5.6 14.7-34.5 13.4-.8 6.8 33.3-10.5.6-1.4-6.7-9.6.6zm3.6-8.4l4.3-.2-1.3-7.4-3 7.6zm51.6-2l-.9 8-7.2 6.4-22.8 1.3 4-33.9 21.3-1.2 5.8 5.7-.9 7.5-2.9 2.6 3.6 3.6zm-10.8 5.4l.3-2.4-1.7-1.6-6.7.4-.6 5.1 7.7-.4 1-1.1zm-.5-16.3l-6.2.4-.6 4.6 5.8-.3 1.6-1.3.2-2.4-.8-1zm31 23.7l1.8-15.5h-.2l-10.7 16-9.6.6 4-33.9 10.3-.6-1.8 15.5h.2l10.7-16 9.6-.6-4 33.9-10.3.6zm24.6-35.1l24.9-1.4-4 33.9-10.3.6 3-25.7-5 .3-3.6 20.4-6.9 6.2-9.1.5 1-8.2 2.4-.1 3.4-2.8 4.2-23.7zM238 69.3l-2.9 6.9-10.6.6 14.7-34.5 13.4-.8 6.8 33.3-10.5.6-1.4-6.7-9.5.6zm3.6-8.4l4.3-.2-1.3-7.4-3 7.6zm45.5 12.3l-10.3.6 4-33.9 10.3-.6-1.6 12.8h.7l8.7-13.2 11-.6-11.5 17 8.5 16.8-11 .6-6-12.4-1.4.1-1.4 12.8z"/><path d="M334.2 36.3l5.6 5.4L337 65l-6.9 6.2-17.3 1-5.6-5.4 2.7-23.2 6.9-6.2 17.4-1.1zm-14.3 10L318 62.8l.9.9 7.2-.4 1-1 1.9-16.5-.8-.9-7.2.4-1.1 1zm29.5 23.3l-10.3.6 4-33.9 10.3-.6-1.5 12.8 7.9-.5 1.5-12.8 10.3-.6-4 33.9-10.3.6 1.5-12.8-7.9.5-1.5 12.8zm30.9-1.8l-10.3.6 4-33.9 10.3-.6-1.5 12.8h.7l8.7-13.2 11-.6-11.5 17 8.5 16.8-11 .6-6-12.4-1.4.1-1.5 12.8zm55.9-36.9l-15.7 34.6-10.3.6 3.5-7.4-3.6.2-6.5-26.1 10.3-.6 3.9 17.3h.2l7.8-18 10.4-.6zm8.8 24.3l-1 9-10.3.6 4-33.9 22.5-1.3 5.1 5-1.7 14.3-6.4 5.7-12.2.6zm8.7-17.1l-6.7.4-1 8.5 6.7-.4 1.1-1 .7-6.6-.8-.9zM490 61.5l-19.6 1.1-5.6-5.5 2.6-22.3 6.9-6.2 19.6-1.1-1 8.2-14.6.8-1.1 1-1.7 15.7.8.9 14.6-.8-.9 8.2zm15.6-7.7l-2.9 6.9-10.5.6 14.7-34.5 13.4-.8 6.8 33.3-10.5.6-1.4-6.7-9.6.6zm3.6-8.3l4.3-.2-1.3-7.4-3 7.6z"/></g><g fill="#fff"><path d="M59 49.5l-4 33.9-10.3.6 3-25.7-7.9.5-3 25.7-10.3.5 4-33.9L59 49.5zm10.7 24.1l-1 9-10.3.6 4-33.9L84.9 48l5.1 5-1.7 14.3-6.4 5.7-12.2.6zm8.7-17l-6.7.4-1 8.5 6.7-.4 1.1-1 .7-6.5-.8-1zm19.8 17.6l-2.9 6.9-10.5.6 14.7-34.5 13.4-.8 6.8 33.3-10.5.6-1.4-6.7-9.6.6zm3.6-8.4l4.3-.2-1.3-7.4-3 7.6zm51.6-2l-.9 8-7.2 6.4-22.8 1.3 4-33.9 21.3-1.2 5.8 5.7-.9 7.5-2.9 2.6 3.6 3.6zm-10.8 5.4l.3-2.4-1.7-1.6-6.7.4-.6 5.1 7.7-.4 1-1.1zm-.5-16.3l-6.2.4-.6 4.6 5.8-.3 1.6-1.3.2-2.4-.8-1zm31 23.7l1.8-15.5h-.2l-10.7 16-9.6.6 4-33.9 10.3-.6-1.8 15.5h.2l10.7-16 9.6-.6-4 33.9-10.3.6zm24.6-35.1l24.9-1.4-4 33.9-10.3.6 3-25.7-5 .3-3.6 20.4-6.9 6.2-9.1.5 1-8.2 2.4-.1 3.4-2.8 4.2-23.7zM235 66.3l-2.9 6.9-10.6.6 14.7-34.5 13.4-.8 6.8 33.3-10.5.6-1.4-6.7-9.5.6zm3.6-8.4l4.3-.2-1.3-7.4-3 7.6zm45.5 12.3l-10.3.6 4-33.9 10.3-.6-1.6 12.8h.7l8.7-13.2 11-.6-11.5 17 8.5 16.8-11 .6-6-12.4-1.4.1-1.4 12.8z"/><path d="M331.2 33.3l5.6 5.4L334 62l-6.9 6.2-17.3 1-5.6-5.4 2.7-23.2 6.9-6.2 17.4-1.1zm-14.3 10L315 59.8l.9.9 7.2-.4 1-1 1.9-16.5-.8-.9-7.2.4-1.1 1zm29.5 23.3l-10.3.6 4-33.9 10.3-.6-1.5 12.8 7.9-.5 1.5-12.8 10.3-.6-4 33.9-10.3.6 1.5-12.8-7.9.5-1.5 12.8zm30.9-1.8l-10.3.6 4-33.9 10.3-.6-1.5 12.8h.7l8.7-13.2 11-.6-11.5 17 8.5 16.8-11 .6-6-12.4-1.4.1-1.5 12.8zm55.9-36.9l-15.7 34.6-10.3.6 3.5-7.4-3.6.2-6.5-26.1 10.3-.6 3.9 17.3h.2l7.8-18 10.4-.6zm8.8 24.3l-1 9-10.3.6 4-33.9 22.5-1.3 5.1 5-1.7 14.3-6.4 5.7-12.2.6zm8.7-17.1l-6.7.4-1 8.5 6.7-.4 1.1-1 .7-6.6-.8-.9zM487 58.5l-19.6 1.1-5.6-5.5 2.6-22.3 6.9-6.2 19.6-1.1-1 8.2-14.6.8-1.1 1-1.7 15.7.8.9 14.6-.8-.9 8.2zm15.6-7.7l-2.9 6.9-10.5.6 14.7-34.5 13.4-.8 6.8 33.3-10.5.6-1.4-6.7-9.6.6zm3.6-8.3l4.3-.2-1.3-7.4-3 7.6z"/></g></g></svg>