<?xml version="1.0" encoding="utf-8"?>
<!-- Generator: Adobe Illustrator 21.1.0, SVG Export Plug-In . SVG Version: 6.00 Build 0)  -->
<svg version="1.1" id="Layer_1" xmlns="http://www.w3.org/2000/svg" xmlns:xlink="http://www.w3.org/1999/xlink" x="0px" y="0px"
	 viewBox="0 0 550 108" style="enable-background:new 0 0 550 108;" xml:space="preserve">
<g id="title_17_">
	<g>
		<defs>
			<polygon id="SVGID_1_23" points="533,165 -4,165 13,-7 551,-11"/>
		</defs>
		<clipPath id="SVGID_2_23">
			<use xlink:href="#SVGID_1_23"  style="overflow:visible;"/>
		</clipPath>
		<g style="clip-path:url(#SVGID_2_23);">
			<polygon style="fill:#D71015;" points="603.4,68.1 -71.3,107 -60.4,40.3 614.3,1.4"/>
		</g>
	</g>
	<g>
		<defs>
			<polygon id="SVGID_3_23" points="523,165 -64,165 -47,-7 541,-11"/>
		</defs>
		<clipPath id="SVGID_4_23">
			<use xlink:href="#SVGID_3_23"  style="overflow:visible;"/>
		</clipPath>
		<g style="clip-path:url(#SVGID_4_23);">
			<g style="opacity:0.15;">
				<path d="M62,52.5l-4,33.9L47.7,87l3-25.7l-7.9,0.5l-3,25.7L29.5,88l4-33.9L62,52.5z"/>
				<path d="M72.7,76.6l-1,9l-10.3,0.6l4-33.9L87.9,51l5.1,5l-1.7,14.3L84.9,76L72.7,76.6z M81.4,59.6L74.7,60l-1,8.5l6.7-0.4l1.1-1
					l0.7-6.5L81.4,59.6z"/>
				<path d="M101.2,77.2l-2.9,6.9l-10.5,0.6l14.7-34.5l13.4-0.8l6.8,33.3l-10.5,0.6l-1.4-6.7L101.2,77.2z M104.8,68.8l4.3-0.2
					l-1.3-7.4L104.8,68.8z"/>
				<path d="M156.4,66.8l-0.9,8l-7.2,6.4l-22.8,1.3l4-33.9l21.3-1.2l5.8,5.7l-0.9,7.5l-2.9,2.6L156.4,66.8z M145.6,72.2l0.3-2.4
					l-1.7-1.6l-6.7,0.4l-0.6,5.1l7.7-0.4L145.6,72.2z M145.1,55.9l-6.2,0.4l-0.6,4.6l5.8-0.3l1.6-1.3l0.2-2.4L145.1,55.9z"/>
				<path d="M176.1,79.6l1.8-15.5h-0.2l-10.7,16l-9.6,0.6l4-33.9l10.3-0.6l-1.8,15.5h0.2l10.7-16l9.6-0.6l-4,33.9L176.1,79.6z"/>
				<path d="M200.7,44.5l24.9-1.4l-4,33.9l-10.3,0.6l3-25.7l-5,0.3l-3.6,20.4l-6.9,6.2l-9.1,0.5l1-8.2l2.4-0.1l3.4-2.8L200.7,44.5z"
					/>
				<path d="M238,69.3l-2.9,6.9l-10.6,0.6l14.7-34.5l13.4-0.8l6.8,33.3l-10.5,0.6l-1.4-6.7L238,69.3z M241.6,60.9l4.3-0.2l-1.3-7.4
					L241.6,60.9z"/>
				<path d="M287.1,73.2l-10.3,0.6l4-33.9l10.3-0.6l-1.6,12.8h0.7l8.7-13.2l11-0.6l-11.5,17l8.5,16.8l-11,0.6l-6-12.4l-1.4,0.1
					L287.1,73.2z"/>
				<path d="M334.2,36.3l5.6,5.4L337,65l-6.9,6.2l-17.3,1l-5.6-5.4l2.7-23.2l6.9-6.2L334.2,36.3z M319.9,46.3L318,62.8l0.9,0.9
					l7.2-0.4l1-1l1.9-16.5l-0.8-0.9l-7.2,0.4L319.9,46.3z"/>
				<path d="M349.4,69.6l-10.3,0.6l4-33.9l10.3-0.6l-1.5,12.8l7.9-0.5l1.5-12.8l10.3-0.6l-4,33.9l-10.3,0.6l1.5-12.8l-7.9,0.5
					L349.4,69.6z"/>
				<path d="M380.3,67.8L370,68.4l4-33.9l10.3-0.6l-1.5,12.8h0.7l8.7-13.2l11-0.6l-11.5,17l8.5,16.8l-11,0.6l-6-12.4l-1.4,0.1
					L380.3,67.8z"/>
				<path d="M436.2,30.9l-15.7,34.6l-10.3,0.6l3.5-7.4l-3.6,0.2l-6.5-26.1l10.3-0.6l3.9,17.3h0.2l7.8-18L436.2,30.9z"/>
				<path d="M445,55.2l-1,9l-10.3,0.6l4-33.9l22.5-1.3l5.1,5l-1.7,14.3l-6.4,5.7L445,55.2z M453.7,38.1l-6.7,0.4l-1,8.5l6.7-0.4
					l1.1-1l0.7-6.6L453.7,38.1z"/>
				<path d="M490,61.5l-19.6,1.1l-5.6-5.5l2.6-22.3l6.9-6.2l19.6-1.1l-1,8.2l-14.6,0.8l-1.1,1l-1.7,15.7l0.8,0.9l14.6-0.8L490,61.5z
					"/>
				<path d="M505.6,53.8l-2.9,6.9l-10.5,0.6l14.7-34.5l13.4-0.8l6.8,33.3l-10.5,0.6l-1.4-6.7L505.6,53.8z M509.2,45.5l4.3-0.2
					l-1.3-7.4L509.2,45.5z"/>
			</g>
			<g>
				<g>
					<path style="fill:#FFFFFF;" d="M59,49.5l-4,33.9L44.7,84l3-25.7l-7.9,0.5l-3,25.7L26.5,85l4-33.9L59,49.5z"/>
					<path style="fill:#FFFFFF;" d="M69.7,73.6l-1,9l-10.3,0.6l4-33.9L84.9,48l5.1,5l-1.7,14.3L81.9,73L69.7,73.6z M78.4,56.6
						L71.7,57l-1,8.5l6.7-0.4l1.1-1l0.7-6.5L78.4,56.6z"/>
					<path style="fill:#FFFFFF;" d="M98.2,74.2l-2.9,6.9l-10.5,0.6l14.7-34.5l13.4-0.8l6.8,33.3l-10.5,0.6l-1.4-6.7L98.2,74.2z
						 M101.8,65.8l4.3-0.2l-1.3-7.4L101.8,65.8z"/>
					<path style="fill:#FFFFFF;" d="M153.4,63.8l-0.9,8l-7.2,6.4l-22.8,1.3l4-33.9l21.3-1.2l5.8,5.7l-0.9,7.5l-2.9,2.6L153.4,63.8z
						 M142.6,69.2l0.3-2.4l-1.7-1.6l-6.7,0.4l-0.6,5.1l7.7-0.4L142.6,69.2z M142.1,52.9l-6.2,0.4l-0.6,4.6l5.8-0.3l1.6-1.3l0.2-2.4
						L142.1,52.9z"/>
					<path style="fill:#FFFFFF;" d="M173.1,76.6l1.8-15.5h-0.2l-10.7,16l-9.6,0.6l4-33.9l10.3-0.6l-1.8,15.5h0.2l10.7-16l9.6-0.6
						l-4,33.9L173.1,76.6z"/>
					<path style="fill:#FFFFFF;" d="M197.7,41.5l24.9-1.4l-4,33.9l-10.3,0.6l3-25.7l-5,0.3l-3.6,20.4l-6.9,6.2l-9.1,0.5l1-8.2
						l2.4-0.1l3.4-2.8L197.7,41.5z"/>
					<path style="fill:#FFFFFF;" d="M235,66.3l-2.9,6.9l-10.6,0.6l14.7-34.5l13.4-0.8l6.8,33.3l-10.5,0.6l-1.4-6.7L235,66.3z
						 M238.6,57.9l4.3-0.2l-1.3-7.4L238.6,57.9z"/>
					<path style="fill:#FFFFFF;" d="M284.1,70.2l-10.3,0.6l4-33.9l10.3-0.6l-1.6,12.8h0.7l8.7-13.2l11-0.6l-11.5,17l8.5,16.8
						l-11,0.6l-6-12.4l-1.4,0.1L284.1,70.2z"/>
					<path style="fill:#FFFFFF;" d="M331.2,33.3l5.6,5.4L334,62l-6.9,6.2l-17.3,1l-5.6-5.4l2.7-23.2l6.9-6.2L331.2,33.3z
						 M316.9,43.3L315,59.8l0.9,0.9l7.2-0.4l1-1l1.9-16.5l-0.8-0.9l-7.2,0.4L316.9,43.3z"/>
					<path style="fill:#FFFFFF;" d="M346.4,66.6l-10.3,0.6l4-33.9l10.3-0.6l-1.5,12.8l7.9-0.5l1.5-12.8l10.3-0.6l-4,33.9l-10.3,0.6
						l1.5-12.8l-7.9,0.5L346.4,66.6z"/>
					<path style="fill:#FFFFFF;" d="M377.3,64.8L367,65.4l4-33.9l10.3-0.6l-1.5,12.8h0.7l8.7-13.2l11-0.6l-11.5,17l8.5,16.8l-11,0.6
						l-6-12.4l-1.4,0.1L377.3,64.8z"/>
					<path style="fill:#FFFFFF;" d="M433.2,27.9l-15.7,34.6l-10.3,0.6l3.5-7.4l-3.6,0.2l-6.5-26.1l10.3-0.6l3.9,17.3h0.2l7.8-18
						L433.2,27.9z"/>
					<path style="fill:#FFFFFF;" d="M442,52.2l-1,9l-10.3,0.6l4-33.9l22.5-1.3l5.1,5l-1.7,14.3l-6.4,5.7L442,52.2z M450.7,35.1
						l-6.7,0.4l-1,8.5l6.7-0.4l1.1-1l0.7-6.6L450.7,35.1z"/>
					<path style="fill:#FFFFFF;" d="M487,58.5l-19.6,1.1l-5.6-5.5l2.6-22.3l6.9-6.2l19.6-1.1l-1,8.2l-14.6,0.8l-1.1,1l-1.7,15.7
						l0.8,0.9l14.6-0.8L487,58.5z"/>
					<path style="fill:#FFFFFF;" d="M502.6,50.8l-2.9,6.9l-10.5,0.6l14.7-34.5l13.4-0.8l6.8,33.3l-10.5,0.6l-1.4-6.7L502.6,50.8z
						 M506.2,42.5l4.3-0.2l-1.3-7.4L506.2,42.5z"/>
				</g>
			</g>
		</g>
	</g>
</g>
</svg>
