<?xml version="1.0" encoding="utf-8"?>
<!-- Generator: Adobe Illustrator 20.1.0, SVG Export Plug-In . SVG Version: 6.00 Build 0)  -->
<svg version="1.1" id="Layer_1" xmlns="http://www.w3.org/2000/svg" xmlns:xlink="http://www.w3.org/1999/xlink" x="0px" y="0px"
	 viewBox="0 0 34 34" style="enable-background:new 0 0 34 34;" xml:space="preserve">
<g>
	<path style="fill:#FFD800;" d="M14.1,24.3c-0.3,0-0.5-0.1-0.7-0.3c-0.4-0.4-0.4-1,0-1.4l5.4-5.4L13,11.4c-0.4-0.4-0.4-1,0-1.4
		s1-0.4,1.4,0l6.5,6.5c0.2,0.2,0.3,0.4,0.3,0.7s-0.1,0.5-0.3,0.7L14.8,24C14.6,24.2,14.4,24.3,14.1,24.3z"/>
</g>
<g>
	<path style="fill:#FFD800;" d="M17,34C7.6,34,0,26.4,0,17S7.6,0,17,0s17,7.6,17,17S26.4,34,17,34z M17,2C8.7,2,2,8.7,2,17
		c0,8.3,6.7,15,15,15c8.3,0,15-6.7,15-15C32,8.7,25.3,2,17,2z"/>
</g>
</svg>
