<?xml version="1.0" encoding="utf-8"?>
<!-- Generator: Adobe Illustrator 20.1.0, SVG Export Plug-In . SVG Version: 6.00 Build 0)  -->
<svg version="1.1" id="Layer_1" xmlns="http://www.w3.org/2000/svg" xmlns:xlink="http://www.w3.org/1999/xlink" x="0px" y="0px"
	 viewBox="0 0 238.3 62.9" style="enable-background:new 0 0 238.3 62.9;" xml:space="preserve">
<g>
	<g>
		<g>
			<path style="fill:#FFD800;" d="M43.8,15.4c1-1.1,1.6-2.5,1.6-4.1c0-3.3-2.7-6-5.9-6c-2.5,0-8.1,3.7-10.4,7
				c-2.3-3.3-8-6.9-10.3-6.9c-3.2,0-5.9,2.7-5.9,6c0,1.5,0.6,2.9,1.5,4H3v14.4h3.1v27.9h46.1V29.8h3.1V15.4H43.8z M39.5,7.5
				c2,0,3.7,1.7,3.7,3.9c0,1.9-1.3,3.5-3,3.8h-9c-0.6-0.2-0.8-0.4-0.8-0.5C30.4,12.9,37.1,7.5,39.5,7.5L39.5,7.5z M18.8,7.5
				c2.3,0,9.1,5.3,9.1,7.2c0,0.2-0.4,0.4-0.7,0.5h-9.1c-1.7-0.3-3-2-3-3.8C15.1,9.3,16.8,7.5,18.8,7.5L18.8,7.5z M22.5,55.4H8.3
				V29.8h14.2V55.4z M22.5,27.7H5.2v-10h17.3L22.5,27.7L22.5,27.7z M33.6,55.4h-8.9V17.6h8.9V55.4z M50,55.4H35.8V29.8H50V55.4z
				 M53.1,27.7H35.8v-10h17.3L53.1,27.7L53.1,27.7z M53.1,27.7"/>
		</g>
	</g>
	<g>
		<path style="fill:#FFFFFF;" d="M85.7,27c0.9,0.7,1.3,1.7,1.3,3c0,1.4-0.5,2.5-1.4,3.2c-0.9,0.7-2.2,1.1-3.7,1.1h-4.3v-13h7.9
			l-0.3,2.1h-4.8V26h1.5C83.6,26,84.8,26.4,85.7,27z M83.5,31.8c0.4-0.3,0.6-0.9,0.6-1.7c0-0.7-0.2-1.3-0.6-1.6
			c-0.4-0.4-1-0.5-1.8-0.5h-1.3v4.3h1.4C82.6,32.3,83.1,32.1,83.5,31.8z"/>
		<path style="fill:#FFFFFF;" d="M97.6,21.8c0.9,0.5,1.5,1.3,2,2.3c0.5,1,0.7,2.2,0.7,3.7c0,1.4-0.2,2.6-0.7,3.7
			c-0.5,1-1.1,1.8-2,2.3c-0.9,0.5-1.9,0.8-3.1,0.8c-1.2,0-2.2-0.3-3.1-0.8c-0.9-0.5-1.5-1.3-2-2.3c-0.5-1-0.7-2.3-0.7-3.7
			c0-1.4,0.2-2.6,0.7-3.6c0.5-1,1.1-1.8,2-2.4c0.9-0.5,1.9-0.8,3.1-0.8C95.7,21,96.8,21.3,97.6,21.8z M92.4,24.2
			c-0.5,0.8-0.7,2-0.7,3.6c0,1.7,0.2,2.9,0.7,3.6c0.5,0.8,1.2,1.1,2.1,1.1c1,0,1.7-0.4,2.1-1.1c0.5-0.7,0.7-2,0.7-3.6
			c0-1.7-0.2-2.9-0.7-3.6c-0.5-0.7-1.2-1.1-2.1-1.1C93.6,23.1,92.9,23.5,92.4,24.2z"/>
		<path style="fill:#FFFFFF;" d="M110.1,34.4v-5.7h-4.3v5.7H103v-13h2.8v5.1h4.3v-5.1h2.8v13H110.1z"/>
		<path style="fill:#FFFFFF;" d="M122.2,30.5c-0.4,1-0.8,1.8-1.3,2.3c-0.5,0.6-1,1-1.6,1.2c-0.6,0.3-1.4,0.5-2.4,0.6l-0.4-1.9
			c0.8-0.1,1.5-0.3,1.9-0.6c0.4-0.3,0.8-0.7,1.1-1.3h-0.9l-4-9.6h2.8l2.9,8l2.6-8h2.8L122.2,30.5z"/>
		<path style="fill:#FFFFFF;" d="M134.5,21.4c0.6,0.2,1.2,0.6,1.8,1.1l-1.4,1.6c-0.8-0.6-1.5-0.9-2.4-0.9c-0.9,0-1.7,0.4-2.2,1.1
			c-0.5,0.8-0.8,2-0.8,3.6c0,1.6,0.3,2.8,0.8,3.5c0.5,0.8,1.3,1.1,2.2,1.1c0.5,0,0.9-0.1,1.3-0.3c0.4-0.2,0.8-0.4,1.3-0.8l1.3,1.6
			c-0.5,0.5-1,0.9-1.7,1.2c-0.7,0.3-1.4,0.5-2.3,0.5c-1.2,0-2.2-0.3-3.1-0.8c-0.9-0.5-1.6-1.3-2.1-2.3c-0.5-1-0.7-2.3-0.7-3.7
			c0-1.4,0.3-2.6,0.8-3.7c0.5-1,1.2-1.8,2.1-2.3c0.9-0.5,1.9-0.8,3-0.8C133.2,21,133.9,21.1,134.5,21.4z"/>
		<path style="fill:#FFD800;" d="M152.8,10.7v23.7h-2.1V13l-5.8,3.6l-1-1.5l7.1-4.4H152.8z"/>
		<path style="fill:#FFD800;" d="M173.5,13.4c1.3,2.1,1.9,5.1,1.9,9.1c0,4-0.6,7-1.9,9.1c-1.3,2.1-3.1,3.1-5.5,3.1
			c-2.4,0-4.3-1-5.6-3.1c-1.3-2.1-1.9-5.1-1.9-9.1s0.6-7.1,1.9-9.1c1.3-2.1,3.1-3.1,5.6-3.1C170.4,10.3,172.2,11.3,173.5,13.4z
			 M162.6,22.5c0,7,1.8,10.5,5.3,10.5c1.7,0,3-0.9,3.9-2.6c0.9-1.7,1.3-4.4,1.3-7.9c0-3.6-0.4-6.2-1.3-8c-0.9-1.7-2.2-2.6-3.9-2.6
			C164.4,12,162.6,15.5,162.6,22.5z"/>
		<path style="fill:#FFD800;" d="M194.1,13.4c1.3,2.1,1.9,5.1,1.9,9.1c0,4-0.6,7-1.9,9.1c-1.3,2.1-3.1,3.1-5.5,3.1
			c-2.4,0-4.3-1-5.6-3.1c-1.3-2.1-1.9-5.1-1.9-9.1s0.6-7.1,1.9-9.1c1.3-2.1,3.1-3.1,5.6-3.1C191,10.3,192.9,11.3,194.1,13.4z
			 M183.3,22.5c0,7,1.8,10.5,5.3,10.5c1.7,0,3-0.9,3.9-2.6c0.9-1.7,1.3-4.4,1.3-7.9c0-3.6-0.4-6.2-1.3-8c-0.9-1.7-2.2-2.6-3.9-2.6
			C185,12,183.3,15.5,183.3,22.5z"/>
		<path style="fill:#FFD800;" d="M210.5,11.8c1,1,1.5,2.4,1.5,4.2c0,1.8-0.5,3.2-1.4,4.2c-1,1.1-2.2,1.6-3.9,1.6
			c-1.6,0-2.9-0.5-3.9-1.6c-1-1-1.5-2.4-1.5-4.2c0-1.8,0.5-3.2,1.5-4.2c1-1.1,2.3-1.6,3.9-1.6C208.3,10.3,209.5,10.8,210.5,11.8z
			 M204.1,13c-0.5,0.8-0.8,1.8-0.8,3.1c0,1.2,0.3,2.3,0.8,3.1c0.5,0.8,1.4,1.2,2.6,1.2c1.2,0,2-0.4,2.6-1.2c0.5-0.8,0.8-1.8,0.8-3.1
			c0-1.2-0.3-2.3-0.8-3.1c-0.5-0.8-1.4-1.2-2.6-1.2C205.5,11.8,204.6,12.2,204.1,13z M221.2,9.3l1.5,1l-16.5,24.9l-1.5-1L221.2,9.3z
			 M224.3,24.7c1,1,1.5,2.4,1.5,4.2c0,1.8-0.5,3.2-1.5,4.3c-1,1.1-2.3,1.6-3.9,1.6c-1.6,0-2.8-0.5-3.8-1.6c-1-1.1-1.5-2.5-1.5-4.2
			c0-1.8,0.5-3.2,1.4-4.2c1-1,2.2-1.6,3.9-1.6C222,23.2,223.3,23.7,224.3,24.7z M217.9,25.9c-0.5,0.8-0.8,1.8-0.8,3.1
			c0,1.2,0.3,2.3,0.8,3.1c0.5,0.8,1.4,1.2,2.6,1.2c1.2,0,2.1-0.4,2.6-1.2c0.5-0.8,0.8-1.9,0.8-3.1c0-1.2-0.3-2.2-0.8-3
			c-0.5-0.8-1.4-1.2-2.6-1.2C219.3,24.7,218.4,25.1,217.9,25.9z"/>
		<path style="fill:#FFFFFF;" d="M84.9,44.1l-2.7,4.7l2.9,5.5H83l-2.4-4.6h-1.2v4.6h-1.9V44.1h1.9v4.1h1.2l2.3-4.1H84.9z"/>
		<path style="fill:#FFFFFF;" d="M98.4,44.1v10.1h-1.9v-8.6h-3.6v8.6h-1.9V44.1H98.4z"/>
		<path style="fill:#FFFFFF;" d="M107.1,44.1l-0.2,1.4h-3.7v2.8h3.3v1.4h-3.3v3h4v1.5h-5.9V44.1H107.1z"/>
		<path style="fill:#FFFFFF;" d="M115.4,44.9c0.7,0.5,1.1,1.3,1.1,2.4c0,1.1-0.4,2-1.1,2.5c-0.7,0.6-1.7,0.8-2.9,0.8h-1.2v3.5h-1.9
			V44.1h3C113.7,44.1,114.7,44.4,115.4,44.9z M113.9,48.8c0.4-0.3,0.5-0.8,0.5-1.5c0-1.2-0.7-1.8-2.1-1.8h-1v3.7h1
			C113.1,49.3,113.6,49.1,113.9,48.8z"/>
		<path style="fill:#FFFFFF;" d="M125.1,49.6c0.4,0.4,0.6,0.9,0.6,1.7c0,1.1-0.4,1.8-1.1,2.3c-0.7,0.4-1.8,0.7-3.1,0.7h-3V44.1h2.7
			c2.8,0,4.2,0.9,4.2,2.6c0,0.6-0.2,1.1-0.5,1.5c-0.4,0.4-0.8,0.6-1.3,0.7C124.2,49,124.7,49.3,125.1,49.6z M120.4,45.5v2.7h1.2
			c0.5,0,1-0.1,1.3-0.4c0.3-0.2,0.5-0.6,0.5-1.1c0-0.5-0.2-0.8-0.5-1c-0.3-0.2-0.8-0.3-1.5-0.3H120.4z M123.2,52.5
			c0.4-0.2,0.6-0.6,0.6-1.2c0-0.6-0.2-1-0.5-1.2c-0.4-0.3-0.8-0.4-1.5-0.4h-1.3v3.2h1.1C122.3,52.8,122.8,52.7,123.2,52.5z"/>
		<path style="fill:#FFFFFF;" d="M134.2,44.5c0.7,0.4,1.2,1,1.5,1.8c0.4,0.8,0.5,1.7,0.5,2.9c0,1.1-0.2,2.1-0.5,2.8
			c-0.4,0.8-0.9,1.4-1.5,1.8c-0.7,0.4-1.4,0.6-2.3,0.6c-0.9,0-1.7-0.2-2.4-0.6c-0.7-0.4-1.2-1-1.5-1.8c-0.4-0.8-0.5-1.7-0.5-2.9
			c0-1.1,0.2-2,0.5-2.8c0.4-0.8,0.9-1.4,1.5-1.8c0.7-0.4,1.5-0.6,2.4-0.6C132.7,43.9,133.5,44.1,134.2,44.5z M130,46.3
			c-0.4,0.6-0.6,1.6-0.6,2.9c0,2.5,0.8,3.8,2.4,3.8c0.8,0,1.4-0.3,1.8-0.9c0.4-0.6,0.6-1.6,0.6-2.9c0-1.3-0.2-2.3-0.6-2.9
			c-0.4-0.6-1-0.9-1.8-0.9C131,45.4,130.4,45.7,130,46.3z"/>
		<path style="fill:#FFFFFF;" d="M148,54.3h-1.9l-0.3-4.2c-0.1-1.5-0.1-2.7-0.1-3.6v-0.5l-1.8,7.3H142l-2-7.3c0,0.6,0,1.1,0,1.5
			c0,0.9,0,1.8-0.1,2.7l-0.2,4.2h-1.9l0.8-10.1h2.5l1.8,7.1l1.7-7.1h2.5L148,54.3z"/>
		<path style="fill:#FFFFFF;" d="M154.7,51.4c-0.3,0.7-0.6,1.3-0.9,1.7c-0.3,0.4-0.7,0.7-1.2,0.9c-0.5,0.2-1.1,0.4-1.8,0.4l-0.3-1.3
			c0.7-0.1,1.2-0.3,1.5-0.5c0.3-0.2,0.6-0.6,0.8-1.1h-0.6l-3.2-7.4h2l2.4,6.3l2.1-6.3h2L154.7,51.4z"/>
		<path style="fill:#FFFFFF;" d="M170.6,52.7v3.8h-1.4l-0.2-2.3h-5.6l-0.2,2.3h-1.4v-3.8h0.7c0.2-0.2,0.4-0.6,0.6-0.9
			c0.1-0.4,0.3-0.9,0.4-1.6c0.1-0.7,0.3-1.7,0.4-3l0.4-3.1h5.6v8.6H170.6z M167.8,45.6h-2l-0.2,1.5c-0.1,1.3-0.3,2.3-0.4,3
			c-0.1,0.7-0.3,1.3-0.5,1.7c-0.2,0.4-0.4,0.7-0.8,1h3.8V45.6z"/>
		<path style="fill:#FFFFFF;" d="M178.5,44.1l-0.2,1.4h-3.7v2.8h3.3v1.4h-3.3v3h4v1.5h-5.9V44.1H178.5z"/>
		<path style="fill:#FFFFFF;" d="M188.2,44.1v10.1h-1.9v-8.6h-3.6v8.6h-1.9V44.1H188.2z"/>
		<path style="fill:#FFFFFF;" d="M197.3,44.5c0.7,0.4,1.2,1,1.5,1.8c0.4,0.8,0.5,1.7,0.5,2.9c0,1.1-0.2,2.1-0.5,2.8
			c-0.4,0.8-0.9,1.4-1.5,1.8c-0.7,0.4-1.4,0.6-2.3,0.6c-0.9,0-1.7-0.2-2.4-0.6c-0.7-0.4-1.2-1-1.5-1.8c-0.4-0.8-0.5-1.7-0.5-2.9
			c0-1.1,0.2-2,0.5-2.8c0.4-0.8,0.9-1.4,1.5-1.8c0.7-0.4,1.5-0.6,2.4-0.6C195.9,43.9,196.6,44.1,197.3,44.5z M193.2,46.3
			c-0.4,0.6-0.6,1.6-0.6,2.9c0,2.5,0.8,3.8,2.4,3.8c0.8,0,1.4-0.3,1.8-0.9c0.4-0.6,0.6-1.6,0.6-2.9c0-1.3-0.2-2.3-0.6-2.9
			c-0.4-0.6-1-0.9-1.8-0.9C194.2,45.4,193.6,45.7,193.2,46.3z"/>
		<path style="fill:#FFFFFF;" d="M200.2,53.1l1.1-1c0.3,0.3,0.6,0.5,1,0.7c0.4,0.2,0.7,0.2,1.2,0.2c0.6,0,1.1-0.1,1.4-0.4
			c0.3-0.3,0.5-0.7,0.5-1.2s-0.2-0.9-0.5-1.2c-0.3-0.3-0.8-0.4-1.5-0.4h-1l0.2-1.5h0.8c0.5,0,0.9-0.1,1.2-0.4
			c0.3-0.3,0.5-0.6,0.5-1.1c0-0.4-0.1-0.7-0.4-1c-0.2-0.3-0.6-0.4-1.1-0.4c-0.7,0-1.5,0.3-2.2,0.9l-0.9-1c0.9-0.9,2.1-1.3,3.3-1.3
			c0.7,0,1.3,0.1,1.8,0.3c0.5,0.2,0.9,0.5,1.1,0.9c0.3,0.4,0.4,0.8,0.4,1.3c0,0.6-0.2,1.1-0.6,1.5c-0.4,0.4-0.9,0.7-1.6,0.8
			c0.7,0.1,1.3,0.3,1.8,0.8c0.5,0.4,0.7,1,0.7,1.8c0,0.6-0.2,1.2-0.5,1.6c-0.3,0.5-0.8,0.8-1.4,1.1c-0.6,0.3-1.2,0.4-2,0.4
			C202.2,54.5,201.1,54,200.2,53.1z"/>
		<path style="fill:#FFFFFF;" d="M217.1,54.3h-1.9v-4.3c0-1.3,0.1-2.5,0.3-3.8l-3.4,8.1h-2.4V44.1h1.9v4.4c0,0.8,0,1.5-0.1,2
			c0,0.5-0.1,1.1-0.2,1.8l3.5-8.1h2.3V54.3z"/>
		<path style="fill:#FFFFFF;" d="M226.4,44.1l-0.2,1.5h-2.6v8.6h-1.9v-8.6h-2.7v-1.5H226.4z"/>
		<path style="fill:#FFFFFF;" d="M232.5,51.4c-0.3,0.7-0.6,1.3-0.9,1.7c-0.3,0.4-0.7,0.7-1.2,0.9c-0.5,0.2-1.1,0.4-1.8,0.4l-0.3-1.3
			c0.7-0.1,1.2-0.3,1.5-0.5c0.3-0.2,0.6-0.6,0.8-1.1H230l-3.2-7.4h2l2.4,6.3l2.1-6.3h2L232.5,51.4z"/>
	</g>
</g>
</svg>
