<?xml version="1.0" encoding="utf-8"?>
<!-- Generator: Adobe Illustrator 20.1.0, SVG Export Plug-In . SVG Version: 6.00 Build 0)  -->
<svg version="1.1" id="Layer_1" xmlns="http://www.w3.org/2000/svg" xmlns:xlink="http://www.w3.org/1999/xlink" x="0px" y="0px"
	 viewBox="0 0 36 36" style="enable-background:new 0 0 36 36;" xml:space="preserve">
<linearGradient id="SVGID_1_" gradientUnits="userSpaceOnUse" x1="-33.2243" y1="18" x2="31.4707" y2="18">
	<stop  offset="0" style="stop-color:#F7AE00"/>
	<stop  offset="1" style="stop-color:#FFD800"/>
</linearGradient>
<path style="fill:url(#SVGID_1_);" d="M26.1,1.8l-4.2,0c-4.7,0-7.8,3.1-7.8,8v3.7H9.9c-0.4,0-0.7,0.3-0.7,0.7v5.3
	c0,0.4,0.3,0.7,0.7,0.7h4.2v13.5c0,0.4,0.3,0.7,0.7,0.7h5.5c0.4,0,0.7-0.3,0.7-0.7V20.1h5c0.4,0,0.7-0.3,0.7-0.7l0-5.3
	c0-0.2-0.1-0.3-0.2-0.5c-0.1-0.1-0.3-0.2-0.5-0.2h-5v-3.1C21,8.8,21.3,8,23.3,8l2.8,0c0.4,0,0.7-0.3,0.7-0.7v-5
	C26.8,2.1,26.5,1.8,26.1,1.8L26.1,1.8z M26.1,1.8"/>
</svg>
