<?xml version="1.0" encoding="utf-8"?>
<!-- Generator: Adobe Illustrator 20.1.0, SVG Export Plug-In . SVG Version: 6.00 Build 0)  -->
<svg version="1.1" id="Layer_1" xmlns="http://www.w3.org/2000/svg" xmlns:xlink="http://www.w3.org/1999/xlink" x="0px" y="0px"
	 viewBox="0 0 64 64" style="enable-background:new 0 0 64 64;" xml:space="preserve">
<g>
	<g>
		<g style="opacity:0.3;">
			<path style="fill:#FFFFFF;" d="M32,63C14.9,63,1,49.1,1,32S14.9,1,32,1s31,13.9,31,31S49.1,63,32,63z M32,3C16,3,3,16,3,32
				s13,29,29,29s29-13,29-29S48,3,32,3z"/>
		</g>
	</g>
</g>
<g>
	<g>
		
			<path style="opacity:0.3;fill:none;stroke:#FFFFFF;stroke-width:2;stroke-linecap:round;stroke-linejoin:round;stroke-miterlimit:10;" d="
			M32.3,7.5L32.3,7.5c20.7,9.8,20.3,39.7-0.6,49C11,46.7,11.4,16.8,32.3,7.5L32.3,7.5z M32.3,9.9c-20,8.1-20.2,35.7-0.5,44.3
			C51.7,46.1,52,18.4,32.3,9.9L32.3,9.9z M32.3,9.9"/>
		
			<path style="opacity:0.3;fill:none;stroke:#FFFFFF;stroke-width:2;stroke-linecap:round;stroke-linejoin:round;stroke-miterlimit:10;" d="
			M43.9,39.8c-1.6,5.1-5.6,8.8-12.1,11.4c-5.4-2.3-10.2-5.8-11.9-11.7C28.1,42,35.9,42.4,43.9,39.8L43.9,39.8z M43.9,39.8"/>
		
			<path style="opacity:0.3;fill:none;stroke:#FFFFFF;stroke-width:2;stroke-linecap:round;stroke-linejoin:round;stroke-miterlimit:10;" d="
			M43.1,22.3c1.6,3.7,2.4,7.2,2.3,10.4c-7.3,3.1-19.6,2.9-26.8-0.3c0-3.2,0.8-6.6,2.6-10.3C21.2,28,26,32.8,32,32.9
			C38,33,42.9,28.2,43.1,22.3L43.1,22.3z M43.1,22.3"/>
		
			<path style="opacity:0.3;fill:none;stroke:#FFFFFF;stroke-width:2;stroke-linecap:round;stroke-linejoin:round;stroke-miterlimit:10;" d="
			M32.2,13.1c6.4,3.7,7.5,13.2,1.3,17.5c2.7-5.6,2.3-10.2-1.4-13.9c-3.7,3.6-4.3,8.2-1.7,13.8C24.4,26.1,25.8,16.6,32.2,13.1
			L32.2,13.1z M32.2,13.1"/>
		
			<path style="opacity:0.3;fill:none;stroke:#FFFFFF;stroke-width:2;stroke-linecap:round;stroke-linejoin:round;stroke-miterlimit:10;" d="
			M32.1,31.9c5,0,9.1-4.1,9.2-9.1c0-4.1-2.6-7.6-6.2-8.8c2.2,1.8,3.6,4.8,3.6,8.4C38.6,27.1,35.8,31.1,32.1,31.9L32.1,31.9z
			 M31.9,31.9c-5-0.1-9-4.3-8.9-9.3c0-4.1,2.7-7.5,6.4-8.7c-2.2,1.7-3.8,4.8-3.8,8.3C25.5,27,28.2,31,31.9,31.9L31.9,31.9z M32,31.7
			c3.1-4.3,2.9-10.4,0.2-13.5C29.3,21.2,29,27.3,32,31.7L32,31.7z M32,31.7"/>
	</g>
</g>
</svg>
