<?xml version="1.0" encoding="utf-8"?>
<!-- Generator: Adobe Illustrator 20.1.0, SVG Export Plug-In . SVG Version: 6.00 Build 0)  -->
<svg version="1.1" id="Layer_1" xmlns="http://www.w3.org/2000/svg" xmlns:xlink="http://www.w3.org/1999/xlink" x="0px" y="0px"
	 viewBox="0 0 64 64" style="enable-background:new 0 0 64 64;" xml:space="preserve">
<g>
	<g>
		<path style="opacity:0.3;fill:#FFFFFF;" d="M45.5,17.9 M39.2,18.6c1.1-2.1,2.3-6.3-0.8-6.9c-1.5-0.2-4.6,0.2-7.2,5.3
			c-2.9,0.1-6.6,0.5-9.9,3.3c-5.9,5-3.2,11,0.6,11.3c2,0.2,4.1-0.2,4.8-2.8c-3.9-1.3-3.2-4.2-2.5-5.4c2-3.7,4.9-4.1,6.3-3.8
			l-0.7,3.8l-2.8,1.1l-0.2,2.3l2.8-0.5c0.1,5.1-2,13.2-3.6,14.6c-4-2.5-7-2.1-8.4-1.1c-0.8,1.1,0,3.2,2.8,4.3
			c1.5,0.6,3.8,0.8,6.4,0.1c1.3,0.5,2.4,1,3.8,1.5c13.5,3.9,20.9-12,15.1-21.4C44.7,23,42.7,20.4,39.2,18.6L39.2,18.6z M33.9,17.1
			c0.2-0.8,1.6-2.3,2.7-2.4c1.3-0.1,1,2.1,0,2.9C35.9,17.4,34.8,17.1,33.9,17.1L33.9,17.1z M33.1,19.3c0.5,0.1,1.6,0.2,1.8,0.5
			c-0.6,0.7-1.2,1.5-2,2C32.7,20.9,33,19.6,33.1,19.3L33.1,19.3z M33,24.5c1.4-1.3,2.9-2.5,4.3-3.8c3.1,0.9,4.8,6.4,4.4,9.8
			c-0.1,4.9-5.3,15.1-12.8,11.7c3.8-4.4,6.3-8.9,8-13.5C35.7,28.1,33.1,26.9,33,24.5L33,24.5z M22.6,43.7c-0.3,0-0.5,0-0.8-0.1
			c-0.8-0.1-1.8-0.5-2.3-1.2c-0.3-0.4-0.3-0.8-0.3-1c0-0.3,0.2-0.7,0.7-1c0.7-0.4,1.7-0.6,2.6-0.3l0,0c0.8,0.2,2.8,0.9,2.6,2.2
			c0,0.2-0.2,0.6-0.5,0.8C24.1,43.5,23.4,43.7,22.6,43.7z M23.2,43.6l0-2h0V43.6z"/>
		<g style="opacity:0.3;">
			<path style="fill:#FFFFFF;" d="M32,63C14.9,63,1,49.1,1,32S14.9,1,32,1s31,13.9,31,31S49.1,63,32,63z M32,3C16,3,3,16,3,32
				s13,29,29,29s29-13,29-29S48,3,32,3z"/>
		</g>
	</g>
</g>
</svg>
