<?xml version="1.0" encoding="utf-8"?>
<!-- Generator: Adobe Illustrator 20.1.0, SVG Export Plug-In . SVG Version: 6.00 Build 0)  -->
<svg version="1.1" id="Layer_1" xmlns="http://www.w3.org/2000/svg" xmlns:xlink="http://www.w3.org/1999/xlink" x="0px" y="0px"
	 viewBox="0 0 39 64" style="enable-background:new 0 0 39 64;" xml:space="preserve">
<g>
	<path style="fill-rule:evenodd;clip-rule:evenodd;fill:#0F6CB5;" d="M20.9,61.4c-0.6,0.8-2.1,0.8-2.6,0L2.4,39
		c-0.6-0.8-0.6-2.1,0-3l15.6-23.1c0.6-0.8,2.2-1,2.8-0.1l16,23.3c0.6,0.8,0.6,2.1,0,3L20.9,61.4z"/>
	<g>
		<path style="fill:#FFFFFF;" d="M19.6,61.4c-0.5,0-1-0.3-1.3-0.8L3,39.2c-0.6-0.9-0.7-2.4,0-3.3l15-22.3c0.3-0.5,0.8-0.8,1.3-0.8
			c0.5,0,1,0.3,1.3,0.8L36,35.9c0.6,0.9,0.6,2.4,0,3.3l-15,21.4C20.6,61.1,20.1,61.4,19.6,61.4z M19.3,13.7c-0.2,0-0.4,0.1-0.6,0.4
			l-15,22.3c-0.4,0.6-0.4,1.7,0,2.3L19,60.1c0.2,0.2,0.4,0.4,0.6,0.4c0.2,0,0.4-0.1,0.6-0.4l15-21.4c0.4-0.6,0.4-1.6,0-2.3
			L19.9,14.1C19.7,13.9,19.5,13.7,19.3,13.7z"/>
	</g>
	<path style="fill-rule:evenodd;clip-rule:evenodd;fill:#FFFFFF;" d="M21.6,26.8c0.5-1.5,0.8-4.3-1.3-4.4c-1,0-2.9,0.6-4.1,4.2
		c-1.8,0.3-4.2,1-6.1,3.2C7,33.6,9.3,37.2,11.8,37c1.3-0.1,2.6-0.6,2.8-2.3c-2.6-0.4-2.5-2.4-2.2-3.2c0.9-2.6,2.8-3.2,3.6-3.1l0,2.5
		l-1.7,1l0.1,1.5l1.7-0.6c0.6,3.3,0.1,8.7-0.8,9.8c-2.8-1.2-4.7-0.6-5.5,0.2c-0.4,0.8,0.3,2.1,2.3,2.4c1,0.2,2.5,0.1,4.1-0.6
		c0.9,0.2,1.7,0.4,2.6,0.6c9.1,1.1,12.2-10,7.5-15.4C25.7,29.1,24.1,27.6,21.6,26.8L21.6,26.8z M18.1,26.4c0.1-0.5,0.8-1.7,1.5-1.8
		c0.9-0.2,0.9,1.3,0.3,1.9C19.4,26.4,18.6,26.3,18.1,26.4L18.1,26.4z M17.8,27.9c0.3,0,1-0.1,1.2,0.1c-0.3,0.5-0.6,1.1-1.1,1.5
		C17.7,28.9,17.7,28.1,17.8,27.9L17.8,27.9z M18.3,31.3c0.8-1,1.6-1.9,2.4-2.9c2.1,0.2,3.8,3.6,3.8,5.9c0.5,3.2-1.9,10.3-7,8.9
		c2-3.3,3.1-6.4,3.7-9.5C20.4,33.3,18.6,32.8,18.3,31.3L18.3,31.3z M13.1,43.1c-0.7-0.1-1.3,0.3-1.3,0.5s0.6,0.5,1.2,0.5
		c0.7,0,1.3-0.3,1.3-0.5C14.4,43.4,13.8,43.2,13.1,43.1L13.1,43.1z"/>
	<path style="fill-rule:evenodd;clip-rule:evenodd;fill:#FFFFFF;" d="M15,49.7l1-1.2h0.8l-1.2,1.4l1.3,1.6H16l-1-1.4v1.4h-0.7v-2.9
		H15V49.7L15,49.7z M17.8,50.3l1.2-1.9h0.7v2.9H19v-1.9l-1.2,1.9h-0.7v-2.9h0.7V50.3L17.8,50.3z M20.4,48.5h0.7v2.9h-0.7V48.5
		L20.4,48.5z M20.1,48.2v-0.5h0.5v0.5H20.1L20.1,48.2z M20.9,48.2v-0.5h0.5v0.5H20.9L20.9,48.2z M21.8,48.4h1.4
		c0.2,0,0.4,0.1,0.5,0.1c0.1,0.1,0.2,0.2,0.3,0.3c0.1,0.1,0.1,0.2,0.1,0.3c0,0.1,0,0.2,0,0.3c0,0.1-0.1,0.2-0.2,0.2
		c0,0.1-0.2,0.1-0.2,0.1c0,0,0.2,0,0.2,0.1c0.1,0,0.2,0.1,0.3,0.2c0.1,0.1,0.1,0.3,0.1,0.4c0,0.2,0,0.4-0.2,0.5
		c-0.1,0.1-0.3,0.2-0.4,0.2c-0.2,0-0.3,0.1-0.5,0.1h-1.4V48.4L21.8,48.4z M22.5,49v0.6h0.6c0.1,0,0.2,0,0.3-0.1
		c0.1,0,0.1-0.1,0.1-0.2c0-0.1,0-0.1-0.1-0.2c0-0.1-0.2-0.1-0.3-0.1H22.5L22.5,49z M22.5,50.1v0.7h0.7c0.1,0,0.2,0,0.3-0.1
		c0.1,0,0.1-0.1,0.1-0.2c0-0.1,0-0.2-0.1-0.2c0-0.1-0.2-0.1-0.3-0.1c0,0,0,0-0.1,0c0,0,0,0-0.1,0H22.5L22.5,50.1z"/>
	<polygon style="fill-rule:evenodd;clip-rule:evenodd;fill:#E9D700;" points="10.4,4.7 13.3,4.7 14.2,2 15.1,4.7 18,4.7 15.6,6.5 
		16.5,9.3 14.2,7.5 11.8,9.3 12.7,6.5 10.4,4.7 	"/>
	<polygon style="fill-rule:evenodd;clip-rule:evenodd;fill:#E9D700;" points="20.4,4.7 23.3,4.7 24.2,2 25.1,4.7 28,4.7 25.6,6.5 
		26.5,9.3 24.2,7.5 21.8,9.3 22.7,6.5 20.4,4.7 	"/>
</g>
</svg>
