<?xml version="1.0" encoding="utf-8"?>
<!-- Generator: Adobe Illustrator 20.1.0, SVG Export Plug-In . SVG Version: 6.00 Build 0)  -->
<svg version="1.1" id="Layer_1" xmlns="http://www.w3.org/2000/svg" xmlns:xlink="http://www.w3.org/1999/xlink" x="0px" y="0px"
	 viewBox="0 0 39 64" style="enable-background:new 0 0 39 64;" xml:space="preserve">
<g>
	<g>
		<path style="fill:#FFFFFF;" d="M19.5,6.3c-23.1,9.7-23,41.8,0,51.5C42.6,48.1,42.5,15.9,19.5,6.3L19.5,6.3z M19.5,6.3"/>
		<path style="fill:#1F211D;" d="M19.5,3.5L19.5,3.5c24.2,11.2,24.2,45.8,0,57C-4.7,49.4-4.7,14.7,19.5,3.5L19.5,3.5z M19.5,6.3
			c-23.1,9.7-23,41.8,0,51.5C42.6,48.1,42.5,15.9,19.5,6.3L19.5,6.3z M19.5,6.3"/>
	</g>
	<path style="fill:#1F211D;" d="M33.5,40.9c-1.8,6-6.4,10.3-14,13.4c-6.3-2.6-11.9-6.6-14-13.4C15.1,43.7,24.2,44,33.5,40.9
		L33.5,40.9z M33.5,40.9"/>
	<path style="fill:#EB6E2C;" d="M32.2,20.6c2,4.3,2.9,8.3,2.8,12c-8.4,3.7-22.7,3.7-31.1,0c-0.1-3.7,0.9-7.7,2.8-12
		c0.1,6.9,5.7,12.4,12.7,12.4C26.5,33.1,32.1,27.5,32.2,20.6L32.2,20.6z M32.2,20.6"/>
	<path style="fill:#1F211D;" d="M19.5,10c7.5,4.2,8.9,15.3,1.8,20.4c3.1-6.5,2.5-11.9-1.8-16.1c-4.3,4.2-4.9,9.6-1.8,16.1
		C10.6,25.3,12,14.1,19.5,10L19.5,10z M19.5,10"/>
	<path style="fill:#EB6E2C;" d="M19.7,31.9c5.8-0.1,10.5-4.8,10.5-10.7c0-4.7-3.1-8.8-7.4-10.2c2.6,2,4.3,5.6,4.3,9.7
		C27.1,26.2,23.9,30.9,19.7,31.9L19.7,31.9z M19.3,31.9C13.5,31.8,8.8,27,8.8,21.2c0-4.7,3.1-8.8,7.4-10.2c-2.6,2-4.3,5.6-4.3,9.7
		C11.9,26.2,15.1,30.9,19.3,31.9L19.3,31.9z M19.5,31.6c3.6-5.1,3.3-12.2,0-15.7C16.2,19.4,15.9,26.5,19.5,31.6L19.5,31.6z
		 M19.5,31.6"/>
	<path style="fill:#FFFFFF;" d="M17.9,46.9L17.9,46.9c-0.2,0-0.3,0-0.5,0c-0.2,0-0.4,0-0.6,0l0,0v-0.1l0,0c0.1,0,0.1,0,0.1,0
		c0.1,0,0.1,0,0.2,0c0,0,0,0,0-0.1c0,0,0-0.2,0-0.6v-0.4c0-0.1,0-0.3,0-0.4l0-0.1c0,0,0-0.1,0-0.1c0,0,0,0-0.1,0
		c-0.1,0.1-0.3,0.1-0.3,0.2l0,0c0-0.1,0-0.1,0-0.2l0,0c0.3-0.1,0.6-0.2,0.9-0.3l0,0c0,0.1,0,0.1,0,0.3c0,0,0,0.2,0,0.3l0,0.6
		c0,0.4,0,0.6,0,0.7c0,0,0,0,0,0c0,0,0.1,0,0.3,0L17.9,46.9L17.9,46.9z M19.4,45.7c0,0.3,0,0.5-0.1,0.6c-0.1,0.2-0.2,0.3-0.4,0.4
		c-0.2,0.1-0.4,0.2-0.6,0.2l-0.1-0.1l0-0.1c0,0,0.1,0,0.1,0c0.2,0,0.3-0.1,0.4-0.2c0,0,0.1-0.1,0.1-0.2c0.1-0.1,0.1-0.3,0.1-0.5
		c-0.1,0.1-0.2,0.2-0.2,0.2c-0.1,0-0.1,0-0.2,0c-0.1,0-0.2,0-0.3-0.1c-0.1-0.1-0.1-0.2-0.1-0.4c0-0.3,0.1-0.5,0.3-0.6
		c0.1-0.1,0.2-0.1,0.4-0.1c0.3,0,0.5,0.1,0.6,0.4C19.4,45.3,19.4,45.5,19.4,45.7L19.4,45.7z M19,45.5c0-0.2,0-0.3-0.1-0.4
		c-0.1-0.1-0.1-0.1-0.2-0.1c-0.1,0-0.2,0.1-0.2,0.2c0,0.1,0,0.1,0,0.2c0,0.2,0,0.3,0.1,0.4c0.1,0.1,0.1,0.1,0.2,0.1
		c0.1,0,0.2-0.1,0.2-0.2C19,45.7,19,45.6,19,45.5L19,45.5z M20.9,46.2c0,0.2-0.1,0.4-0.3,0.5c-0.2,0.1-0.4,0.2-0.6,0.2
		c-0.1,0-0.2,0-0.4-0.1c0-0.2,0-0.3-0.1-0.4l0,0l0.1,0l0,0c0.1,0.2,0.3,0.4,0.5,0.4c0.1,0,0.2,0,0.3-0.1c0.1-0.1,0.1-0.2,0.1-0.3
		c0-0.1,0-0.2-0.1-0.3C20.4,46,20.3,46,20.2,46c-0.1,0-0.1,0-0.2,0l0,0c0-0.1,0-0.1,0.1-0.2h0.1c0.1,0,0.2,0,0.2-0.1
		c0.1-0.1,0.1-0.1,0.1-0.2c0-0.1,0-0.1-0.1-0.2c-0.1-0.1-0.1-0.1-0.2-0.1c-0.1,0-0.2,0-0.3,0.1c0,0,0,0.1-0.1,0.1l0,0l0,0l-0.1,0
		l0,0l0.1-0.2c0-0.1,0-0.1,0-0.2c0.1-0.1,0.3-0.1,0.5-0.1c0.2,0,0.3,0,0.4,0.1c0.1,0.1,0.1,0.2,0.1,0.3c0,0.2-0.1,0.3-0.3,0.4
		c0.1,0,0.2,0,0.3,0.1C20.9,45.9,20.9,46,20.9,46.2L20.9,46.2z M22.5,46.2c0,0.3-0.1,0.5-0.3,0.6c-0.1,0.1-0.2,0.1-0.4,0.1
		c-0.2,0-0.4-0.1-0.5-0.2c-0.1-0.1-0.2-0.4-0.2-0.6c0-0.3,0-0.5,0.1-0.6c0.1-0.2,0.2-0.3,0.4-0.4c0.2-0.1,0.4-0.2,0.6-0.2l0.1,0.1
		l0,0.1c0,0-0.1,0-0.1,0c-0.2,0-0.3,0.1-0.4,0.2c-0.1,0-0.1,0.1-0.1,0.2c-0.1,0.1-0.1,0.3-0.1,0.5c0.1-0.1,0.2-0.2,0.2-0.2
		c0.1,0,0.1,0,0.2,0c0.1,0,0.2,0,0.3,0.1C22.4,45.9,22.5,46,22.5,46.2L22.5,46.2z M22.1,46.4c0-0.2,0-0.3-0.1-0.4
		c-0.1-0.1-0.1-0.1-0.2-0.1c-0.1,0-0.2,0.1-0.2,0.2c0,0,0,0.1,0,0.2c0,0.2,0,0.4,0.1,0.5c0,0.1,0.1,0.1,0.2,0.1
		C22,46.8,22.1,46.6,22.1,46.4L22.1,46.4z M22.1,46.4"/>
	<path style="fill:#FFFFFF;" d="M21.1,51.7l-1.2-1.3l0.9-0.9l0.8,0.8l0.1-0.9L21.2,49l0.1-0.1c0.1-0.1,0.1-0.2,0-0.3l-0.1-0.1
		c-0.1-0.1-0.2-0.1-0.3,0l-0.1,0.1L20.2,48l-0.5,0.5l0.6,0.6L19.5,50l-0.8-0.9l0.6-0.6L18.8,48l-0.6,0.6L18,48.5
		c-0.1-0.1-0.2-0.1-0.3,0l-0.1,0.1c-0.1,0.1-0.1,0.2,0,0.3l0.1,0.1l-0.6,0.6l0.5,0.5l0.6-0.6l0.9,0.9l-1.2,1.3
		c-0.1,0.1-0.1,0.2,0,0.3l0.1,0.1c0.1,0.1,0.2,0.1,0.3,0l1.2-1.2l1.2,1.2c0.1,0.1,0.2,0.1,0.3,0l0.1-0.1
		C21.2,51.9,21.2,51.8,21.1,51.7L21.1,51.7z M21.1,51.7"/>
	<path style="fill:#2C2C2B;" d="M31.6,40.3l-0.9,0.2l0.3-5.2l2.1-0.5c0.6-0.1,1-0.1,1.3,0.2c0.3,0.2,0.4,0.6,0.4,1
		c0,0.5-0.2,0.9-0.5,1.3c-0.3,0.4-0.7,0.6-1.2,0.7l-1.3,0.3L31.6,40.3z M31.8,37.5l1.1-0.2c0.3-0.1,0.5-0.2,0.7-0.4
		c0.2-0.2,0.2-0.4,0.3-0.6c0-0.2,0-0.4-0.2-0.5c-0.1-0.1-0.4-0.1-0.7-0.1l-1,0.2L31.8,37.5z M31.8,37.5"/>
	<path style="fill:#2C2C2B;" d="M30.1,40.7l-1,0.2l-0.3-1.2l-2.1,0.3l-0.5,1.3l-0.8,0.1l2.3-5.5l1.2-0.2L30.1,40.7z M28.6,39
		L28,36.8l-1,2.4L28.6,39z M28.6,39"/>
	<path style="fill:#2C2C2B;" d="M24.2,41.6l-1.1,0.1l0.3-4.3L22,37.3l0-0.8l4-0.2l0,0.8l-1.5,0.1L24.2,41.6z M24.2,41.6"/>
	<path style="fill:#2C2C2B;" d="M21.6,41.8h-1.1l-1.2-2l-1.3,2H17l1.7-2.7l-1.5-2.5h1.1l1,1.7l1.1-1.7h0.9L19.9,39L21.6,41.8z
		 M21.6,41.8"/>
	<path style="fill:#2C2C2B;" d="M16.9,41.7l-1.1-0.1l-0.5-1.3l-2.1-0.2l-0.3,1.2L12,41.3l1.5-5.2l1.2,0.1L16.9,41.7z M15.1,39.5
		l-1-2.5l-0.6,2.3L15.1,39.5z M15.1,39.5"/>
	<path style="fill:#2C2C2B;" d="M5.4,39.9l-0.6-5.4l1,0.2l0.5,4.6l1.7,0.3L7.4,35l1,0.2l0.5,4.6l1.7,0.3L10,35.6l1,0.2l0.6,5.4
		L5.4,39.9z M5.4,39.9"/>
</g>
</svg>
