<?xml version="1.0" encoding="utf-8"?>
<!-- Generator: Adobe Illustrator 20.1.0, SVG Export Plug-In . SVG Version: 6.00 Build 0)  -->
<svg version="1.1" id="Layer_1" xmlns="http://www.w3.org/2000/svg" xmlns:xlink="http://www.w3.org/1999/xlink" x="0px" y="0px"
	 viewBox="0 0 238.3 62.9" style="enable-background:new 0 0 238.3 62.9;" xml:space="preserve">
<g>
	<g style="opacity:0.4;">
		<g>
			<path style="fill:#FFFFFF;" d="M9.7,51.2l-1,1c-0.5-0.4-1.1-0.6-1.7-0.6c-2.3,0-3,2.9-3,4.8c0,1.8,0.8,2.5,1.9,2.5
				c0.9,0,1.5-0.4,2.1-0.8l0.8,1.2C8,59.8,7,60.4,5.6,60.4c-2.2,0-3.6-1.4-3.6-4c0-2.7,1.4-6.2,4.9-6.2C8.1,50.1,9,50.5,9.7,51.2z"
				/>
			<path style="fill:#FFFFFF;" d="M17.5,60.1h-1.9l1.2-8.3h-3.4l-1.2,8.3h-1.9l1.4-9.8h7.1L17.5,60.1z"/>
			<path style="fill:#FFFFFF;" d="M28.9,54.1c0,2.6-1.2,6.3-5,6.3c-2.3,0-3.7-1.4-3.7-4c0-2.6,1.2-6.3,5-6.3
				C27.5,50.1,28.9,51.5,28.9,54.1z M22.2,56.5c0,1.8,0.7,2.4,1.8,2.4c2.4,0,3-3.2,3-5c0-1.7-0.7-2.4-1.8-2.4
				C22.8,51.5,22.2,54.7,22.2,56.5z"/>
			<path style="fill:#FFFFFF;" d="M30.3,60.1l1.4-9.8h1.9L33,54.3h3.5l0.6-3.9h1.9l-1.4,9.8h-1.9l0.6-4.4h-3.4l-0.6,4.4H30.3z"/>
			<path style="fill:#FFFFFF;" d="M48,51.2l-1,1c-0.5-0.4-1.1-0.6-1.7-0.6c-2.3,0-3,2.9-3,4.8c0,1.8,0.8,2.5,1.9,2.5
				c0.9,0,1.5-0.4,2.1-0.8l0.8,1.2c-0.7,0.6-1.7,1.2-3.1,1.2c-2.2,0-3.6-1.4-3.6-4c0-2.7,1.4-6.2,4.9-6.2
				C46.4,50.1,47.3,50.5,48,51.2z"/>
			<path style="fill:#FFFFFF;" d="M57.1,54.1c0,2.6-1.2,6.3-5,6.3c-2.3,0-3.7-1.4-3.7-4c0-2.6,1.2-6.3,5-6.3
				C55.7,50.1,57.1,51.5,57.1,54.1z M50.3,56.5c0,1.8,0.7,2.4,1.8,2.4c2.4,0,3-3.2,3-5c0-1.7-0.7-2.4-1.8-2.4
				C50.9,51.5,50.3,54.7,50.3,56.5z"/>
			<path style="fill:#FFFFFF;" d="M66.2,53c0,1.8-1.1,3.7-4.3,3.7h-1.2l-0.5,3.4h-1.9l1.4-9.8h2.8C64.9,50.3,66.2,51.2,66.2,53z
				 M64.3,53c0-1-0.7-1.4-1.8-1.4h-1L61,55.3h1C63.8,55.3,64.3,54.1,64.3,53z"/>
			<path style="fill:#FFFFFF;" d="M75.6,57.4c-1.1,2.1-2.1,2.8-4.2,3l-0.1-1.3c1.3-0.2,1.9-0.6,2.4-1.6h-0.6l-2-7.2H73l1.5,6.1
				l2.9-6.1h1.9L75.6,57.4z"/>
			<path style="fill:#FFFFFF;" d="M87.9,51.4c-0.7,0.2-1,0.3-1.7,1.4L84.6,55l2.2,5.2h-1.9l-1.8-4.4h-1.2l-0.6,4.4h-1.9l1.4-9.8h1.9
				l-0.6,4h1.2l1.6-2.3c0.9-1.3,1.4-1.6,2.7-1.9L87.9,51.4z"/>
			<path style="fill:#FFFFFF;" d="M96.2,53c0,1.8-1.1,3.7-4.3,3.7h-1.2l-0.5,3.4h-1.9l1.4-9.8h2.8C94.9,50.3,96.2,51.2,96.2,53z
				 M94.2,53c0-1-0.7-1.4-1.8-1.4h-1l-0.5,3.6h1C93.8,55.3,94.2,54.1,94.2,53z"/>
			<path style="fill:#FFFFFF;" d="M101.1,57.9h-3.2L97,60.1H95l4.4-9.8h2.3l1.6,9.8h-2L101.1,57.9z M101,56.4l-0.6-4.8l-1.9,4.8H101
				z"/>
			<path style="fill:#FFFFFF;" d="M112,60.1h-1.8l0.6-4.2c0.2-1.6,0.5-2.8,0.8-3.9l-4.4,8.1h-2.3l1.4-9.8h1.8l-0.6,4.2
				c-0.3,1.8-0.5,2.8-0.8,3.9l4.5-8.1h2.3L112,60.1z"/>
			<path style="fill:#FFFFFF;" d="M114.7,60.1l1.4-9.8h1.9l-0.6,3.9h3.5l0.6-3.9h1.9l-1.4,9.8h-1.9l0.6-4.4h-3.4l-0.6,4.4H114.7z"/>
			<path style="fill:#FFFFFF;" d="M132.4,51.2l-1,1c-0.5-0.4-1.1-0.6-1.7-0.6c-2.3,0-3,2.9-3,4.8c0,1.8,0.8,2.5,1.9,2.5
				c0.9,0,1.5-0.4,2.1-0.8l0.8,1.2c-0.7,0.6-1.7,1.2-3.1,1.2c-2.2,0-3.6-1.4-3.6-4c0-2.7,1.4-6.2,4.9-6.2
				C130.8,50.1,131.7,50.5,132.4,51.2z"/>
			<path style="fill:#FFFFFF;" d="M141.6,51.4c-0.7,0.2-1,0.3-1.7,1.4l-1.5,2.1l2.2,5.2h-1.9l-1.8-4.4h-1.2l-0.6,4.4H133l1.4-9.8
				h1.9l-0.6,4h1.2l1.6-2.3c0.9-1.3,1.4-1.6,2.7-1.9L141.6,51.4z"/>
			<path style="fill:#FFFFFF;" d="M150.6,54.1c0,2.6-1.2,6.3-5,6.3c-2.3,0-3.7-1.4-3.7-4c0-2.6,1.2-6.3,5-6.3
				C149.3,50.1,150.6,51.5,150.6,54.1z M143.9,56.5c0,1.8,0.7,2.4,1.8,2.4c2.4,0,3-3.2,3-5c0-1.7-0.7-2.4-1.8-2.4
				C144.5,51.5,143.9,54.7,143.9,56.5z"/>
			<path style="fill:#FFFFFF;" d="M158.9,51.8H155l-1.2,8.3H152l1.4-9.8h6L158.9,51.8z"/>
			<path style="fill:#FFFFFF;" d="M167.5,54.1c0,2.6-1.2,6.3-5,6.3c-2.3,0-3.7-1.4-3.7-4c0-2.6,1.2-6.3,5-6.3
				C166.1,50.1,167.5,51.5,167.5,54.1z M160.7,56.5c0,1.8,0.7,2.4,1.8,2.4c2.4,0,3-3.2,3-5c0-1.7-0.7-2.4-1.8-2.4
				C161.3,51.5,160.7,54.7,160.7,56.5z"/>
			<path style="fill:#FFFFFF;" d="M178.5,59.5l-0.2,1.1h-1.8l0.2-1.2c-2.5-0.1-4-1.4-4-3.6c0-2.4,1.2-5,5.2-5.1l0.1-1h1.8l-0.1,1.1
				c2.5,0.1,4,1.4,4,3.6C183.7,56.7,182.5,59.4,178.5,59.5z M176.9,58.3l0.9-6.2c-2.7,0.2-3.2,2.4-3.2,3.9
				C174.6,57.4,175.4,58.2,176.9,58.3z M181.9,54.4c0-1.4-0.8-2.2-2.4-2.3l-0.9,6.2C181.4,58.1,181.9,55.9,181.9,54.4z"/>
			<path style="fill:#FFFFFF;" d="M189.4,57.4c-1.1,2.1-2.1,2.8-4.2,3l-0.1-1.3c1.3-0.2,1.9-0.6,2.4-1.6H187l-2-7.2h1.9l1.5,6.1
				l2.9-6.1h1.9L189.4,57.4z"/>
			<path style="fill:#FFFFFF;" d="M200.3,51.8h-2.5l-1.2,8.3h-1.9l1.2-8.3h-2.6l0.2-1.5h7.2L200.3,51.8z"/>
			<path style="fill:#FFFFFF;" d="M208.3,56.6c0,1.7-1,3.6-4.3,3.6h-3l1.4-9.8h5.7l-0.4,1.5H204l-0.3,2.1h1.1
				C207,53.9,208.3,54.8,208.3,56.6z M206.3,56.6c0-1-0.6-1.4-1.7-1.4h-1.1l-0.5,3.5h1.1C205.8,58.7,206.3,57.7,206.3,56.6z"/>
			<path style="fill:#FFFFFF;" d="M218.4,54.1c0,2.6-1.2,6.3-5,6.3c-2.3,0-3.7-1.4-3.7-4c0-2.6,1.2-6.3,5-6.3
				C217.1,50.1,218.4,51.5,218.4,54.1z M211.7,56.5c0,1.8,0.7,2.4,1.8,2.4c2.4,0,3-3.2,3-5c0-1.7-0.7-2.4-1.8-2.4
				C212.3,51.5,211.7,54.7,211.7,56.5z"/>
			<path style="fill:#FFFFFF;" d="M226.4,60.1h-1.9l1.2-8.4h-2.4l-0.6,2.5c-1.2,4.8-1.7,5.6-3.7,6l-0.3-1.5c0.9-0.3,1.2-0.5,2.2-4.5
				l1.1-4.1h5.9L226.4,60.1z"/>
			<path style="fill:#FFFFFF;" d="M234,57.9h-3.2l-0.9,2.3h-1.9l4.4-9.8h2.3l1.6,9.8h-2L234,57.9z M233.8,56.4l-0.6-4.8l-1.9,4.8
				H233.8z"/>
		</g>
	</g>
	<g>
		<path style="fill:#FFFFFF;" d="M17.2,2.3h-5.8c-0.5,0-0.8,0.3-0.9,0.8h0L7.1,17.8l0,0.1c0,0,0,0,0,0.1c0,0.3,0.3,0.6,0.6,0.6h4.8
			c0.2,0,0.4-0.1,0.5-0.3l0-0.2l1-4.4h2.7c3.3,0,5.7-2.1,6.3-5.4C23.5,4.2,21,2.3,17.2,2.3 M17.9,8c-0.2,1.3-1.4,1.5-2.4,1.5h-0.6
			l0.6-2.8h0.6C17.1,6.7,18.1,6.8,17.9,8z"/>
		<path style="fill:#FFFFFF;" d="M35.8,17.8l-2.1-15l0-0.2c-0.1-0.2-0.3-0.4-0.5-0.4h-5.2c-0.2,0-0.4,0.2-0.6,0.4l-0.1,0.3
			l-7.6,14.7l-0.2,0.3c0,0,0,0.1,0,0.1c0,0.3,0.3,0.6,0.6,0.6h0l4.6,0h0.1c0.2,0,0.3-0.1,0.4-0.2l0.1-0.3l0.6-1.5l4,0l0.1,1.3l0,0.4
			c0.1,0.2,0.3,0.3,0.5,0.3h4.8c0.3,0,0.5-0.2,0.5-0.5L35.8,17.8z M27.6,12.7l1.9-4.4l0.1,0c0.1,1.9,0.2,4.4,0.2,4.4H27.6z"/>
		<path style="fill:#FFFFFF;" d="M47.2,2.3h-5.7c-0.4,0-0.8,0.3-0.9,0.7l0,0.1l-3.4,14.7L37.2,18c0,0,0,0,0,0c0,0.3,0.2,0.6,0.5,0.6
			h4.8c0.3,0,0.5-0.2,0.5-0.4l0-0.1l1.1-4.7c0,0,0,0,0.1,0c0.2,0,0.9,3.4,1.2,4.7c0,0.1,0,0.1,0,0.2c0.1,0.2,0.2,0.3,0.4,0.3h4.7
			c0.3,0,0.6-0.3,0.6-0.6c0,0,0,0,0-0.1c0-0.1,0-0.1-0.1-0.2c-0.5-1.7-1.5-5.3-2.2-5.6c2.3-0.7,4-1.7,4.3-4.1
			C54,3.9,50.9,2.2,47.2,2.3 M48.1,8c-0.2,1.2-1.4,1.5-2.6,1.4h-0.4l0.7-2.8h0.5C47.5,6.6,48.3,6.8,48.1,8z"/>
		<path style="fill:#FFFFFF;" d="M61.6,2.3H57c-0.4,0-0.8,0.3-0.9,0.7l0,0.1l-3.4,14.7l0,0.2c0,0,0,0,0,0c0,0.3,0.2,0.5,0.5,0.6h4.7
			c0.3,0,0.6-0.2,0.7-0.5l0.1-0.4L62,3l0-0.1c0,0,0-0.1,0-0.1C62.1,2.5,61.8,2.3,61.6,2.3"/>
		<g>
			<defs>
				<path id="SVGID_1_" d="M84,18.6h-0.2l-21.8,0h0c-0.3,0-0.6-0.3-0.6-0.6c0,0,0,0,0,0l0.1-0.2L64.9,3L65,3
					c0.1-0.3,0.2-0.5,0.5-0.6h0v0c0.1,0,0.1-0.1,0.2-0.1h0.1v0c0,0,0.1,0,0.2,0h26.9c0.1,0,0.1,0,0.2,0v0h0c0.1,0,0.1,0,0.2,0.1v0h0
					c0.1,0.1,0.2,0.3,0.2,0.5v0c0,0,0,0.1,0,0.1l0,0l-3.4,14.8L89.8,18c0,0.1-0.1,0.2-0.2,0.3h0v0c-0.2,0.2-0.4,0.3-0.6,0.3h-0.1
					L84,18.6z"/>
			</defs>
			<clipPath id="SVGID_2_">
				<use xlink:href="#SVGID_1_"  style="overflow:visible;"/>
			</clipPath>
			
				<linearGradient id="SVGID_3_" gradientUnits="userSpaceOnUse" x1="-279.4276" y1="330.5244" x2="-278.8967" y2="330.5244" gradientTransform="matrix(59.8808 0 0 30.9044 16793.875 -10204.2471)">
				<stop  offset="0" style="stop-color:#FFD900"/>
				<stop  offset="1" style="stop-color:#F8AF00"/>
			</linearGradient>
			<rect x="61.5" y="2.3" style="clip-path:url(#SVGID_2_);fill:url(#SVGID_3_);" width="31.8" height="16.3"/>
		</g>
		<g>
			<defs>
				<path id="SVGID_4_" d="M72.8,21.3H45.9c0,0-0.1,0-0.1,0v0h0c-0.4,0.1-0.7,0.3-0.8,0.7l0,0.1l-3.4,14.7l0,0.2c0,0,0,0,0,0
					c0,0.3,0.3,0.6,0.6,0.6h0l26.8,0H69c0,0,0.1,0,0.1,0v0h0c0.3-0.1,0.6-0.3,0.7-0.6l0.1-0.2L73.3,22l0,0c0,0,0-0.1,0-0.1v0
					c0-0.1,0-0.2-0.1-0.3h0v0c0-0.1-0.1-0.1-0.2-0.2h0v0C73,21.3,72.9,21.3,72.8,21.3"/>
			</defs>
			<clipPath id="SVGID_5_">
				<use xlink:href="#SVGID_4_"  style="overflow:visible;"/>
			</clipPath>
			
				<linearGradient id="SVGID_6_" gradientUnits="userSpaceOnUse" x1="-279.1328" y1="329.9817" x2="-278.602" y2="329.9817" gradientTransform="matrix(59.8884 0 0 30.8818 16758.3906 -10161.0088)">
				<stop  offset="0" style="stop-color:#FFD900"/>
				<stop  offset="1" style="stop-color:#F8AF00"/>
			</linearGradient>
			<rect x="41.6" y="21.3" style="clip-path:url(#SVGID_5_);fill:url(#SVGID_6_);" width="31.8" height="16.3"/>
		</g>
		<path style="fill:#FFFFFF;" d="M94.8,21.3h-6.4c-0.3,0-0.6,0.2-0.8,0.4c0,0.1-0.1,0.2-0.1,0.2c-1,1.9-3.7,7.2-4,7.9h-0.1L83,21.9
			l0-0.2c-0.1-0.2-0.2-0.4-0.5-0.4h-5.3c-0.4,0-0.7,0.3-0.9,0.6l-0.1,0.2l-3.4,14.7l0,0.1c0,0,0,0.1,0,0.1c0,0.3,0.3,0.6,0.6,0.6
			h3.9c0.3,0,0.5-0.2,0.6-0.4l0-0.1l1.9-8.5c-0.1,0.6,0.3,6.4,0.4,8.3c0,0.1,0,0.1,0,0.2c0.1,0.3,0.3,0.4,0.6,0.4h2.8
			c0.2,0,0.4-0.1,0.5-0.2c0,0,0-0.1,0.1-0.1c0.9-1.6,4.2-8.1,4.4-8.6l0.1,0l-1.9,8.2l0,0.1c0,0,0,0.1,0,0.1c0,0.3,0.2,0.5,0.5,0.6
			h4.2c0.2,0,0.4-0.2,0.5-0.4l0-0.2l3.4-15l0-0.1c0,0,0,0,0-0.1C95.3,21.5,95.1,21.3,94.8,21.3"/>
		<path style="fill:#FFFFFF;" d="M123.5,21.3L123.5,21.3l-12.1,0h-0.1c-0.4,0-0.8,0.3-0.9,0.7l0,0l-0.8,3.7l0,0.1c0,0,0,0.1,0,0.1
			c0,0.3,0.2,0.5,0.5,0.6h0.1l3.2,0l-2.4,10.3l0,0.2c0,0,0,0,0,0c0,0.3,0.2,0.5,0.5,0.6h4.6c0.4,0,0.8-0.3,0.9-0.6l0.1-0.2l2.4-10.3
			l3,0h0c0.4,0,0.8-0.3,0.9-0.7l0-0.1L124,22l0-0.1c0,0,0-0.1,0-0.1C124.1,21.5,123.8,21.3,123.5,21.3"/>
		<path style="fill:#FFFFFF;" d="M109.5,36.9l-2.1-15l0-0.2c-0.1-0.2-0.3-0.4-0.5-0.4h-5.1c-0.3,0-0.6,0.2-0.7,0.4l-0.1,0.2
			l-7.7,14.9l0,0c0,0.1,0,0.1,0,0.2c0,0.3,0.3,0.6,0.6,0.6h0l4.6,0h0.1c0.2,0,0.4-0.1,0.5-0.3l0,0l0.7-1.7l4,0l0.1,1.4l0,0.1
			c0,0.3,0.3,0.5,0.5,0.5h4.7c0.3,0,0.6-0.3,0.6-0.6L109.5,36.9z M101.3,31.7l1.9-4.4l0.1,0c0.1,1.9,0.2,4.4,0.2,4.4H101.3z"/>
		<path style="fill:#FFFFFF;" d="M139.3,25.7c-0.1-1.7-0.8-4.9-6.1-5.2c-5.9-0.2-9.5,3.8-10.1,9.2c-0.5,4.7,1.9,8.2,7.5,8
			c5.3-0.1,6.9-3.4,7.4-5.3c0,0,0-0.1,0-0.1c0,0,0-0.1,0-0.1c0-0.5-0.4-0.9-0.9-0.9H137l-4.3,0h0c-0.2,0-0.4,0.1-0.5,0.2
			c0,0,0,0,0,0.1c-0.4,0.7-1.2,1-1.8,0.9c-1.3-0.2-1.3-1.6-1.2-2.8c0.1-1,1.3-3.9,2.9-3.9c0.6,0,1,0.2,1.1,0.5c0,0,0,0.1,0,0.1
			c0.1,0.1,0.2,0.2,0.4,0.2h4.6C138.8,26.7,139.3,26.3,139.3,25.7C139.3,25.8,139.3,25.7,139.3,25.7"/>
		<path style="fill:#FFFFFF;" d="M156.5,21.3c0,0-0.1,0-0.1,0H152c0,0-0.1,0-0.1,0c-0.4,0-0.8,0.3-0.9,0.7l0,0l-1.1,4.7h-3.6l1-4.7
			c0-0.1,0.1-0.2,0.1-0.2v0c0-0.3-0.2-0.5-0.5-0.6c0,0-0.1,0-0.1,0c0,0-0.1,0-0.1,0h-4.4c-0.4,0-0.7,0.2-0.9,0.6
			c0,0.1-0.1,0.2-0.1,0.3l-3.3,14.6L138,37c0,0,0,0,0,0c0,0.3,0.3,0.6,0.6,0.6h4.5c0.4,0,0.8-0.3,0.9-0.6l0-0.2l1.1-4.8l3.7,0
			l-1.1,4.9c0,0,0,0.1,0,0.2c0,0.3,0.3,0.6,0.6,0.6h4.5c0.4,0,0.8-0.3,0.9-0.7l0-0.1L157,22l0-0.1c0,0,0-0.1,0-0.1
			C157,21.6,156.8,21.3,156.5,21.3"/>
	</g>
</g>
</svg>
