<?xml version="1.0" encoding="utf-8"?>
<!-- Generator: Adobe Illustrator 20.1.0, SVG Export Plug-In . SVG Version: 6.00 Build 0)  -->
<svg version="1.1" id="Layer_1" xmlns="http://www.w3.org/2000/svg" xmlns:xlink="http://www.w3.org/1999/xlink" x="0px" y="0px"
	 viewBox="0 0 64 64" style="enable-background:new 0 0 64 64;" xml:space="preserve">
<g>
	<g style="opacity:0.3;">
		<path style="fill:#FFFFFF;" d="M32,51.4c-5.1,0-10.3-1.9-14.2-5.8c-7.6-7.6-7.8-19.8-0.6-27.7l-1.3-1.3c-0.5-0.5-0.6-1.2-0.4-1.8
			c0.3-0.6,0.9-1,1.5-1l7.7,0c0.9,0,1.7,0.7,1.7,1.7l0,7.8c0,0.7-0.4,1.3-1,1.5c-0.6,0.3-1.3,0.1-1.8-0.4L22.4,23
			c-2,2.4-3.1,5.3-3.1,8.3c0,3.4,1.3,6.6,3.7,9c5,5,13,5,18,0c2.4-2.4,3.7-5.6,3.7-9c0-3.4-1.3-6.6-3.7-9c-0.8-0.8-1.8-1.6-3-2.2
			c-0.5-0.3-0.9-0.9-0.9-1.5v-4.4c0-0.6,0.3-1.1,0.7-1.4c0.5-0.3,1-0.4,1.5-0.2c2.5,1,4.8,2.5,6.8,4.5l0,0C49.9,21,52,26,52,31.4
			c0,5.3-2.1,10.4-5.9,14.2C42.3,49.4,37.1,51.4,32,51.4z M17.9,15.7l1.5,1.5c0.3,0.3,0.4,0.9,0.1,1.3c-0.1,0.1-0.1,0.2-0.2,0.2
			c-7,7-7,18.5,0,25.5c7,7,18.5,7,25.5,0c7-7,7-18.5,0-25.5c0,0,0,0,0,0c-1.6-1.6-3.5-2.9-5.6-3.8v3.7c1.3,0.7,2.4,1.5,3.3,2.5
			c2.8,2.8,4.3,6.5,4.3,10.4c0,3.9-1.5,7.6-4.3,10.4c-5.7,5.7-15.1,5.7-20.8,0c-2.8-2.8-4.3-6.5-4.3-10.4c0-3.9,1.5-7.6,4.3-10.4
			c0,0,0.1-0.1,0.1-0.1c0.4-0.3,1-0.3,1.4,0l1.5,1.5l0-6.7L17.9,15.7z M38.9,18.4C38.9,18.4,38.9,18.4,38.9,18.4
			C38.9,18.4,38.9,18.4,38.9,18.4z"/>
	</g>
	<g style="opacity:0.3;">
		<path style="fill:#FFFFFF;" d="M32,63C14.9,63,1,49.1,1,32S14.9,1,32,1s31,13.9,31,31S49.1,63,32,63z M32,3C16,3,3,16,3,32
			s13,29,29,29s29-13,29-29S48,3,32,3z"/>
	</g>
</g>
</svg>
