<svg xmlns="http://www.w3.org/2000/svg" xmlns:xlink="http://www.w3.org/1999/xlink" viewBox="0 0 192 43.3"><defs><path id="a" d="M3.3 2.2h185.5v39H3.3z"/></defs><clipPath id="b"><use xlink:href="#a" overflow="visible"/></clipPath><path d="M28.7 3.1l-1.2 6.2c-.9-.3-1.7-.5-2.5-.7-.8-.2-1.5-.3-2.3-.4-.7-.1-1.4-.1-2-.1-1.3 0-2.6.2-3.8.6-1.2.4-2.3 1.1-3.3 1.9-1 .8-1.7 1.8-2.2 3-.5 1.1-.8 2.4-.8 3.7s.3 2.5.9 3.6c.6 1.1 1.4 1.9 2.4 2.5 1 .6 2.2.9 3.5.9 3.2 0 6.6-1.2 10.1-3.7l-1.3 7.6c-.7.3-1.4.6-2.2.9-.8.3-1.5.5-2.1.7-.6.2-1.3.3-2.2.5-.9.1-1.8.2-2.7.2-1.9 0-3.6-.3-5.2-.8s-3.1-1.3-4.4-2.4c-1.3-1.1-2.3-2.4-3.1-4S3.2 20 3.2 18c0-1.6.3-3.3.8-5.1.6-1.8 1.5-3.5 2.8-5.1 1.3-1.6 3.1-3 5.5-4 2.3-1.1 5.2-1.6 8.6-1.6 1.4 0 2.6.1 3.6.2s2.5.4 4.2.7m38.6 15.8c0-1.2-.3-2.2-1-2.9-.7-.7-1.5-1-2.5-1-1.1 0-1.9.3-2.6.9-.7.6-1.2 1.4-1.5 2.3-.3.9-.5 1.7-.5 2.5 0 1.1.3 2 1 2.8.7.8 1.5 1.1 2.6 1.1.9 0 1.6-.3 2.3-.8.7-.6 1.2-1.3 1.6-2.2.4-.9.6-1.8.6-2.7m6.8.1c0 1.6-.3 3.1-.9 4.5-.6 1.4-1.4 2.6-2.4 3.6s-2.2 1.8-3.6 2.3c-1.4.6-2.9.8-4.4.8-1.8 0-3.5-.4-5.1-1.2-1.6-.8-2.8-2-3.8-3.5-.9-1.5-1.4-3.2-1.4-5.2 0-1.5.3-2.9.9-4.3s1.4-2.6 2.5-3.6 2.3-1.9 3.8-2.4 3-.9 4.6-.9c1.7 0 3.3.4 4.8 1.1 1.5.7 2.7 1.8 3.7 3.3.8 1.6 1.3 3.4 1.3 5.5m79.7-4.8h-1.2c-1.2 0-2.3.3-3.3 1s-1.8 1.6-2.3 2.8c-.6 1.2-.8 2.4-.8 3.8 0 .9.2 1.7.7 2.3s1.1 1 2 1c.4 0 .9-.1 1.4-.3.5-.2 1.2-.6 2.1-1.1l1.4-9.5zm7.2-4.3L157.9 30h-6.6l.3-1.8c-.8.7-1.5 1.2-2.2 1.6-.7.4-1.7.6-2.8.6-1.4 0-2.7-.4-3.8-1.2-1.1-.8-2-1.9-2.6-3.2-.6-1.3-.9-2.8-.9-4.4 0-1.3.2-2.7.6-4 .4-1.4 1.2-2.7 2.3-4s2.7-2.3 4.7-3.1c2-.8 4.5-1.2 7.5-1.2 1.3 0 2.3 0 3.1.1.9.1 2 .3 3.5.5m18.4 8.7c0-1.3-.3-2.4-.9-3.3-.6-.9-1.7-1.3-3.1-1.3-.5 0-1 .1-1.5.2l-1.6 10.6c.5.1 1 .2 1.6.2 1.4 0 2.5-.3 3.3-1 .8-.6 1.4-1.5 1.8-2.4.3-1 .4-1.9.4-3m7 .1c0 2.1-.5 4-1.4 5.8-.9 1.8-2.2 3.2-3.9 4.2-1.7 1-3.7 1.6-5.9 1.6-.7 0-1.3-.1-1.8-.2-.6-.1-1.2-.3-1.8-.5l-1.5 9.6h-6.6l3.2-21.2-2.8 3.3c-.3.3-.4.5-.6.6-.1.1-.3.2-.4.2-.4 0-.6-.3-.6-.8 0-.6.2-1.4.7-2.4.5-1 1-1.8 1.6-2.6.6-.8 1.5-1.7 2.8-2.9l1.1-7.5h6.6l-.5 3.6c.5-.1.9-.2 1.4-.2.5-.1 1-.1 1.4-.1 1.5 0 2.8.2 3.9.7 1.1.5 2.1 1.2 2.8 2 .8.9 1.3 1.9 1.7 3 .4 1.3.6 2.5.6 3.8M52 9.7l-.8 5.6h-7.3L41.8 30h-7.1l2.2-14.7h-7.3l.9-5.6zM134 30h-6.7l3.4-20.4h6.6zM86.4 9.6h13.8L96.7 30H90l2.7-14.4h-7.3L82.8 30h-6.4l3.4-20.4zm29.3 15.1l-.8-8.3-4.2 8.3h5zm6.7.4h1.9l.6 7.4H117l-.4-2.7h-9l-1.7 2.7h-7.6l3.7-7.4h1.2l9.1-15.7h7.5l2.6 15.7zM86.8 37.4h2.3v-1.8h.9v4.9h-.9v-2.2h-2.3v2.2h-1v-4.9h1zm5.5-1.8h.9v4.9h-.9zm6.3 6.6v-2c-.3.3-.7.4-1.1.4-1 0-1.9-.9-1.9-2.6 0-1.6.9-2.6 1.9-2.6.4 0 .8.1 1.1.4v-2h.8v2c.3-.3.7-.4 1.1-.4 1 0 1.9.9 1.9 2.6 0 1.6-.9 2.6-1.9 2.6-.4 0-.8-.1-1.1-.4v2h-.8zM96.5 38c0 1.1.6 1.7 1.2 1.7.3 0 .9-.2.9-1v-1.4c0-.7-.6-1-1-1-.6 0-1.1.6-1.1 1.7m3.8 1.7c.6 0 1.2-.6 1.2-1.7s-.5-1.7-1.1-1.7c-.4 0-1 .3-1 1v1.4c0 .8.6 1 .9 1m5.8-.5l1.7-3.6h.8l-3.1 6.8h-.9l1-2.2-2.1-4.6h.9zm9.3-1.2c0 1.4-1.1 2.5-2.5 2.5-.6 0-1.1-.2-1.6-.5v2.2h-.9v-6.7h.9v.5c.4-.3 1-.5 1.6-.5 1.4 0 2.5 1.1 2.5 2.5m-2.5 1.7c.9 0 1.7-.7 1.7-1.7 0-.9-.7-1.7-1.7-1.7-.9 0-1.7.7-1.7 1.7 0 .9.8 1.7 1.7 1.7m6.6.9c-1.4 0-2.5-1.1-2.5-2.5s1.1-2.5 2.5-2.5 2.5 1.1 2.5 2.5c0 1.3-1.1 2.5-2.5 2.5m0-.9c.9 0 1.7-.7 1.7-1.7 0-.9-.7-1.7-1.7-1.7-.9 0-1.7.7-1.7 1.7.1.9.8 1.7 1.7 1.7m5.5-2.5l1.6-1.6h1.1l-1.9 1.9 2.3 3H127l-2-2.7v2.7h-1v-4.9h1zm5 .8c0 .9.6 1.7 1.6 1.7.8 0 1.3-.4 1.5-.7l.2.9c-.3.2-.9.6-1.7.6-1.7 0-2.5-1.2-2.5-2.5 0-1.4.9-2.5 2.5-2.5 1 0 1.5.3 1.7.6l-.2.9c-.3-.3-.7-.7-1.5-.7-1 0-1.6.8-1.6 1.7m8.4 2.5v-.2c-.3.2-.6.3-1.1.3-1 0-1.9-.7-1.9-1.9 0-.8.6-1.8 2-1.8.4 0 .9.1 1.1.3 0-.5-.2-1-1-1-.6 0-.9.1-.9.3l-.7-.3c.2-.4.6-.8 1.7-.8 1.2 0 1.9.6 1.9 1.7v3.3h-1.1zm-1.1-2.8c-.7 0-1 .5-1 1s.3 1 1.1 1c.7 0 1.1-.5 1.1-1-.1-.5-.4-1-1.2-1m4.3-1.5c.3-.4.7-.8 1.7-.8 1.1 0 1.6.6 1.6 1.4 0 .7-.4 1-.8 1.1.4.1.9.5.9 1.1 0 1-.7 1.5-1.7 1.5-.9 0-1.3-.4-1.7-.8l.6-.6c.3.3.6.5 1.1.5.5 0 .8-.2.8-.7 0-.5-.4-.7-.8-.7h-.8v-.8h.8c.5 0 .8-.2.8-.7 0-.4-.3-.6-.8-.6-.6 0-1 .3-1.1.5l-.6-.4zm9.7 4.3h-.9v-3.4l-2.1 3.4h-1.1v-4.9h1V39l2.1-3.4h1zm2.4 1.3h-.7v-2.2h.7l1.5-4.1h1.3l1.5 4.1h.7v2.2h-.7v-1.3h-4.3v1.3zm3.4-2.2l-1.2-3.3h-.2l-1.2 3.3h2.6z" clip-path="url(#b)" fill="#c6171d"/></svg>