<svg xmlns="http://www.w3.org/2000/svg" viewBox="0 0 202.3 87"><path d="M109.7 69.3c-1.2 0-1.3.4-1.4 2-.1 2.4-.1 2.9-.1 5.1.3.1.6 0 1.2 0 1.1 0 3.8-.2 3.8-3.4 0-1.7-.7-3.7-3.5-3.7m-5 14.7c1-.3 1.3-.5 1.5-1.3.1-.7.2-6.4.2-7.7 0-3.2 0-3.8-.1-4.3-.1-1.1-1-1.1-1.5-1.2l.1-.6h1.9c.3 0 .7-.1 1.4-.1.8-.1 1.6-.2 1.8-.2 3.7 0 5.1 2.3 5.1 4.2 0 1.8-1.7 3.3-3.5 4 2.5 5.3 3.9 7.8 7 7.9v.6c-2.2 0-5.4 0-9.1-8.2-.6 0-.8 0-1.4-.1v2.4c0 .8 0 3.3.3 3.8s1.2.7 1.5.8l-.1.6c-.7-.1-1.1-.1-1.5-.1h-1.4c-.9 0-.7 0-2.4.2V84zm16.6 0c.6-.1 1.4-.2 1.6-.6.3-.7.3-3.9.3-4.9 0-.9 0-4.5-.3-5.1-.1-.2-.2-.5-1.6-.5v-.5h1.6c.7 0 1.3.1 1.3.1.4 0 2-.1 2.5-.1v.6c-.9 0-1.1.1-1.3.3-.4.5-.4 3.9-.4 4.8 0 .9 0 4.6.1 5.1.1.6.2.7 1.6.8v.5h-5.4V84m18.9.1c-1.7.5-3.3.5-3.5.5-3.4 0-6-2.6-6-6.3 0-4.2 3.1-6.2 6.4-6.2.7 0 1.4.1 2.2.4.2.1.5.2.7.2.2 0 .3-.1.5-.2l.2.1c-.1.4-.4 2.2-.5 2.6l-.3-.1c-.1-.8-.1-1.1-.4-1.3-.3-.3-1.3-1.1-2.8-1.1-3.9 0-3.9 4.4-3.9 5.4 0 5.3 3.5 5.7 4.2 5.7 1.6 0 2.9-.9 3.4-2.6l.4.1c0 .3 0 .4-.1.9 0 .1-.2.8-.2.9l-.3 1m7.4-3.1c0 .4 0 2.2.1 2.4.2.4.7.6 1.2.7v.4c-.5 0-2.7-.1-2.9-.1-.5 0-1 0-1.5.1l-.2-.4c1.2-.2 1.2-.5 1.3-.9.2-1.5.3-5.2.3-7 0-3.2-.2-3.4-1.2-3.4v-.5h2.1c.7 0 1.3.1 1.6.1h.8v.5c-.2 0-.8.2-1 .2-.2.1-.3.2-.4.9-.2 1.3-.2 2.1-.2 3.8 1.2 0 4.1.1 5.3.1.6 0 .8 0 1.2-.1v-1.9c0-2.8-.1-2.9-1.4-3.2l.1-.4c.2 0 .5.1.9.1h1.4c1.2 0 1.7-.1 2.1-.1v.4c-.4.1-.8.1-1 .7-.2.8-.2 6.5-.2 7.8 0 2.5.1 2.8 1.2 2.9v.4c-.4-.1-1.1-.1-2.2-.1-.7 0-1.3 0-2.1.1v-.4c.7-.1 1-.3 1.1-.7.2-.8.2-2.8.2-4.6-1.4-.1-6.3-.1-6.5-.1l-.1 2.3m23.4-7.2c-.6-.5-1.9-.5-2.6-.5-.7 0-.8 0-1.1.1-.1 1.7-.1 5-.1 8.3 0 2.1.2 2.1 1 2.3.6.1.7.1.9.1l-.1.5c-.3 0-1.5-.1-1.7-.1-1.7 0-1.9 0-3.7.3l-.2-.5c.3-.1 1.6-.4 1.7-.7.2-.3.2-4.3.2-4.9 0-1.8 0-4.5-.2-5.3-.5 0-.7-.1-1.6-.1-2.2 0-2.4.4-2.7 1.1l-.4-.1c.4-1.2.6-1.8.7-2.2h.3c.1.1.5.2.7.2.7.1 3.3.1 4.2.1 1.3 0 3.9 0 5-.1.2 0 .3 0 .4-.1l.3.2c-.1.4-.4 1.2-.5 2l-.5.1v-.7m12 6.5h-.4c-.2-1.7-.2-1.7-3-1.7-.7 0-1 0-1.4.1 0 .3-.1 2.5-.1 2.6 0 1.1.1 1.8.2 2.3.6.1 1.4.3 2.4.3 2.6 0 3.1-1.5 3.4-2.2h.4c-.1 1.1-.2 1.7-.8 3-2.3-.2-3-.2-4.6-.2-1.6 0-2.4 0-4.1.2l.1-.5c.6-.1 1-.2 1.1-.9.2-1.1.2-4.4.2-5.7 0-.5-.1-2.9-.1-3.4-.1-1.1-.2-1.2-.9-1.3-.1 0-.2 0-.2-.1v-.3h5.6c1.2 0 1.8 0 3-.1.1 1.3-.2 2.6-.4 2.6-.1 0-.2 0-.4-.1 0-.2.1-.5.1-.8 0-.7-.7-1.1-2.5-1.1-.7 0-1.5.1-2.2.2-.1 1.2-.2 1.9-.2 3v1.7c.4 0 1 .1 1.6.1 1.2 0 2.2-.1 2.3-.2.3-.1.5-1.1.5-1.1h.4v3.6m9.3-7.5c-.9 0-.9.3-1 1.5-.1 1.8-.1 2.1-.1 3.8.3.1.3.1.8.1.8 0 2.7 0 2.7-2.5.1-.8-.2-2.9-2.4-2.9m-4.1 11.3c.8-.3 1-.4 1.2-1 .1-.5.2-5 .2-6 0-2.5 0-2.9-.1-3.4-.1-.9-.8-.9-1.2-.9l.1-.5h1.5c.2 0 .8 0 1.4-.1.6-.1 1.2-.1 1.4-.1 2.9 0 4 1.8 4 3.2 0 1.4-1 2.6-2.4 3.1 2 4.1 3.3 5.9 5.1 6.1v.5c-1.7 0-4.2 0-7.1-6.3-.5 0-.6 0-1.1-.1v1.9c0 .6 0 2.6.2 3 .2.4.9.5 1.2.6l-.1.5c-.6-.1-.9-.1-1.2-.1h-1.1c-.7 0-.9 0-2.2.1v-.5zM15 72.6c-.3-.8-1.1-3.3-4.6-3.3-3.2 0-5.9 2.8-5.9 7.4 0 4.6 3 7.2 6.1 7.2 1.3 0 2.4-.5 2.7-1.3.2-.4.2-1.3.2-1.7 0-3.4-.1-3.4-2.5-3.4l.1-.7c.6 0 3.3-.1 3.9-.1l1.3-.1v.7c-.8.2-.9.4-.9 3.2 0 2.6.2 2.7.5 3v.4c-1.2.3-4.1.8-5.6.8-6.3 0-8.2-4.7-8.2-7.9 0-5.6 4.6-8 8.5-8 1.3 0 2.1.3 3.1.5.4.1.4 0 .9-.5h.4c.1 2.3.3 3.2.4 4H15m13.4 7.5H28c-.2-1.7-.2-1.7-3-1.7-.7 0-1 0-1.4.1 0 .3-.1 2.5-.1 2.6 0 1.1.1 1.8.2 2.3.6.1 1.4.3 2.4.3 2.6 0 3.1-1.5 3.4-2.2h.4c-.1 1.1-.2 1.7-.8 3-2.3-.2-3-.2-4.6-.2-1.6 0-2.4 0-4.1.2l.1-.5c.6-.1 1-.2 1.1-.9.2-1.1.2-4.4.2-5.7 0-.5-.1-2.9-.1-3.4-.1-1.1-.2-1.2-.9-1.3-.1 0-.2 0-.2-.1v-.3h5.6c1.2 0 1.9 0 3-.1.1 1.3-.2 2.6-.4 2.6-.1 0-.3 0-.4-.1.1-.2.1-.5.1-.8 0-.7-.7-1.1-2.5-1.1-.7 0-1.5.1-2.2.2-.1 1.2-.2 1.9-.2 3v1.7c.4 0 1 .1 1.6.1 1.2 0 2.2-.1 2.3-.2.3-.1.5-1.1.5-1.1h.4v3.6M39 72.9c-.4 0-1.1 0-1.8.4-.2 1.2-.2 2.3-.2 4.6 0 .9 0 3.8.1 5.4.6.2 1.4.5 2.3.5 2.3 0 4.2-2.2 4.2-5.5-.1-4-2.7-5.4-4.6-5.4m-3.8 6.7c0-.7 0-3.7-.1-4.7-.1-1.6-.1-1.8-1.1-1.9v-.5l2.7-.1c.7 0 2.1-.2 2.7-.2 3.7 0 6.4 2.5 6.4 6 0 2.7-1.7 6.2-6.6 6.2-.4 0-2.3-.1-2.7-.1H34v-.5c1.1-.1 1.3-.1 1.3-3.1v-1.1zm22.1.7h-.4c-.2-1.7-.2-1.7-3-1.7-.7 0-1 0-1.4.1 0 .3-.1 2.5-.1 2.6 0 1.1.1 1.8.2 2.3.6.1 1.4.3 2.4.3 2.6 0 3.1-1.5 3.3-2.2h.4c-.1 1.1-.2 1.7-.8 3-2.3-.2-3-.2-4.6-.2-1.6 0-2.4 0-4.1.2l.1-.5c.6-.1 1-.2 1.1-.9.2-1.1.2-4.4.2-5.7 0-.5-.1-2.9-.1-3.4-.1-1.1-.2-1.2-.9-1.3-.1 0-.2 0-.2-.1v-.3H55c1.2 0 1.9 0 3-.1 0 1.3-.2 2.6-.4 2.6-.1 0-.2 0-.4-.1.1-.2.1-.5.1-.8 0-.7-.7-1.1-2.5-1.1-.7 0-1.5.1-2.2.2-.1 1.2-.2 1.9-.2 3v1.7c.4 0 1 .1 1.6.1 1.2 0 2.1-.1 2.3-.2.3-.1.5-1.1.5-1.1h.4v3.6m11.6 3.8c1.1 0 3.5-.8 3.5-4.3 0-2.5-1.1-6.8-4.3-6.8-.8 0-3.5.4-3.5 4.4.1 3.1 1.5 6.7 4.3 6.7m-.2-11.9c3.2 0 5.8 2.8 5.8 6.3 0 3.3-2.3 6.3-5.9 6.3-3.7 0-5.9-3-5.9-6.4-.1-3.8 2.9-6.2 6-6.2m20 8.9c0-.6.1-3.3.1-3.9 0-4.1-.1-4.3-1.8-4.5l.2-.4h.4c.1 0 .5 0 .9.1s.8.1 1 .1h1.4v.5c-.2 0-.7 0-1 .4-.3.7-.4 4-.4 5 0 .7-.1 3.5-.1 4.1 0 .2 0 1 .1 1.6v.7H89c-.6-1.2-1.5-2.2-2.5-3.2l-5.4-5.7c-.2-.3-.5-.5-.7-.7v1.7l-.1 4.5c0 1.8 0 2.5 1.9 2.8.1.2 0 .4 0 .5-.2 0-.4-.1-.7-.1h-1c-.4 0-2.1.1-2.5.1v-.5c1.1 0 1.2-.7 1.3-2.3l.1-5.7c0-1.6 0-2.9-1.5-3.2v-.6c.1 0 .5 0 .8.1h1.7c1.1 1.4 1.2 1.4 4.1 4.6.8.9 1.6 1.7 2.5 2.6l1.6 1.4" fill="#fff"/><g fill="#fff"><path d="M100.8 49.4c12 0 21.7-9.7 21.7-21.7S112.8 6 100.8 6s-21.7 9.7-21.7 21.7 9.7 21.7 21.7 21.7M76.4 27.7c0-13.5 10.9-24.4 24.4-24.4 13.5 0 24.4 10.9 24.4 24.4 0 13.5-10.9 24.4-24.4 24.4-13.5.1-24.4-10.9-24.4-24.4"/><path d="M112.9 33.6c0 3.9-3.2 7.1-7.1 7.1-3.9 0-7.1-3.2-7.1-7.1 0-1.6.5-3 1.4-4.2l-2.9-4h-2.9v4.9H91V16.1h7.8c2.6 0 4.7 2.1 4.7 4.7 0 1.9-1.1 3.5-2.8 4.3l1.7 2.3c1-.5 2.1-.8 3.3-.8 2.2 0 4.2 1 5.5 2.5l-2.3 2c-.7-.9-1.9-1.5-3.1-1.5-2.2 0-4.1 1.8-4.1 4.1s1.8 4.1 4.1 4.1c1.6 0 3-.9 3.6-2.3h-3.3v-2.7h6.8v.8M100.8 8.7c-10.5 0-19 8.5-19 19s8.5 19 19 19 19-8.5 19-19-8.5-19-19-19"/><path d="M98.4 18.8h-4.3v3.9h4.3c1.1 0 1.9-.9 1.9-2 .1-1-.8-1.9-1.9-1.9"/></g></svg>