<svg xmlns="http://www.w3.org/2000/svg" viewBox="0 0 45 45"><defs><style>.cls-1{fill:#fff}</style></defs><title>7x11Asset 14</title><g id="Layer_2" data-name="Layer 2"><g id="Landing"><g id="ПРИМЕНЕНИЕ"><path class="cls-1" d="M41.79 5.36h-3.22V2.14A2.14 2.14 0 0 0 36.43 0h-4.29A2.14 2.14 0 0 0 30 2.14v3.22H15V2.14A2.14 2.14 0 0 0 12.86 0H8.57a2.14 2.14 0 0 0-2.14 2.14v3.22H3.21A3.21 3.21 0 0 0 0 8.57v33.22A3.21 3.21 0 0 0 3.21 45h38.58A3.21 3.21 0 0 0 45 41.79V8.57a3.21 3.21 0 0 0-3.21-3.21zm-9.65-3.22h4.29v6.43h-4.29zm-23.57 0h4.29v6.43H8.57zm34.29 39.65a1.07 1.07 0 0 1-1.07 1.07H3.21a1.07 1.07 0 0 1-1.07-1.07V18.21h40.72zm0-25.72H2.14v-7.5A1.07 1.07 0 0 1 3.21 7.5h3.22v3.21H15V7.5h15v3.21h8.57V7.5h3.22a1.07 1.07 0 0 1 1.07 1.07v7.5z"/><path class="cls-1" d="M24.95 23.57h4.29v2.14h-4.29zm8.58 0h4.29v2.14h-4.29zm-17.15 5.36h4.29v2.14h-4.29zm8.57 0h4.29v2.14h-4.29zm8.58 0h4.29v2.14h-4.29zm-17.15 5.36h4.29v2.14h-4.29zm8.57 0h4.29v2.14h-4.29zm8.58 0h4.29v2.14h-4.29z"/></g></g></g></svg>