<svg xmlns="http://www.w3.org/2000/svg" viewBox="0 0 47 43.01"><defs><style>.cls-1{fill:#fff}</style></defs><title>7x11Asset 13</title><g id="Layer_2" data-name="Layer 2"><g id="Landing"><g id="ПРИМЕНЕНИЕ"><path class="cls-1" d="M43.82 6.17h-1.24a3.1 3.1 0 0 0-3.11-2.54h-2.18a3 3 0 0 0-3.1 2.54h-1.62A1.09 1.09 0 0 1 31.4 5V3.18A3.09 3.09 0 0 0 28.22 0h-9.44a3.08 3.08 0 0 0-3.17 3.18V5a1.09 1.09 0 0 1-1.18 1.18h-1.61a3.09 3.09 0 0 0-3.11-2.55H7.53a3 3 0 0 0-3.1 2.54H3.18A3.09 3.09 0 0 0 0 9.35v30.48A3.09 3.09 0 0 0 3.18 43h40.64A3.09 3.09 0 0 0 47 39.83V9.35a3.09 3.09 0 0 0-3.18-3.18zm-6.53-.54h2.17a1.17 1.17 0 0 1 1 .54h-4.19a1.05 1.05 0 0 1 1.02-.54zM17.61 5V3.19A1.08 1.08 0 0 1 18.78 2h9.44a1.1 1.1 0 0 1 1.18 1.18V5a3.31 3.31 0 0 0 .21 1.18H17.39A3.31 3.31 0 0 0 17.61 5zm-10.08.63H9.7a1.16 1.16 0 0 1 1 .54H6.51a1 1 0 0 1 1.02-.54zM45 39.83A1.09 1.09 0 0 1 43.82 41H3.18A1.09 1.09 0 0 1 2 39.82V9.35a1.09 1.09 0 0 1 1.18-1.18h40.64A1.09 1.09 0 0 1 45 9.35z"/><path class="cls-1" d="M26.92 13.81h-6.84v7.36h-7.36V28h7.36v7.36h6.84V28h7.36v-6.83h-7.36zm6.23 8.48v4.6H25.8v7.35h-4.6v-7.35h-7.35v-4.6h7.35v-7.35h4.6v7.35z"/></g></g></g></svg>