<svg xmlns="http://www.w3.org/2000/svg" viewBox="0 0 394.38 432.63"><defs><style>.cls-1{mask:url(#mask)}.cls-2{fill:#fff;opacity:.3}.cls-3{filter:url(#luminosity-noclip)}</style><filter id="luminosity-noclip" x="-28.98" y="-14.24" width="456.69" height="463.84" filterUnits="userSpaceOnUse" color-interpolation-filters="sRGB"><feFlood flood-color="#fff" result="bg"/><feBlend in="SourceGraphic" in2="bg"/></filter></defs><title>7x11Asset 15</title><g id="Layer_2" data-name="Layer 2"><g id="Landing"><g class="cls-1" id="СНИМАЕТ_БОЛЬ" data-name="СНИМАЕТ БОЛЬ"><path class="cls-2" d="M35 206.72c8.23 4.75 22.07 7.8 38.31 9.69-16.26 1.89-30.11 4.94-38.31 9.69-33.89 19.56-45.1 63.57-25 98.3s63.77 47 97.65 27.48c8.36-4.83 18.1-15.57 28-29-6.7 15.38-11.15 29.24-11.15 38.92 0 39.12 32.51 70.83 72.62 70.83s72.62-31.71 72.62-70.83c0-9.66-4.43-23.46-11.1-38.77 10 13.5 19.77 24.3 28.16 29.15 33.88 19.56 77.6 7.26 97.65-27.48s8.85-78.74-25-98.3c-8.48-4.89-22.91-8-39.79-9.85 16.88-1.89 31.32-5 39.79-9.87 33.88-19.56 45.08-63.57 25-98.3s-63.77-47-97.65-27.47c-8.53 4.92-18.5 16-28.64 29.82 6.93-15.76 11.58-30 11.58-39.9C269.72 31.71 237.2 0 197.1 0s-72.62 31.71-72.62 70.83c0 9.78 4.55 23.82 11.36 39.38-10-13.56-19.84-24.4-28.24-29.21C73.72 61.39 30 73.69 10 108.42s-8.89 78.74 25 98.3zm71.9 143.94c-33.15 19.14-76.1 7-95.73-27s-8.64-77.24 24.51-96.39c5.17-3 12.64-5.27 21.56-7a57.33 57.33 0 0 0-14.1 5.31C11 244.17.32 286 19.36 319s60.58 44.68 92.76 26.1a57.32 57.32 0 0 0 11.65-9.57c-5.98 6.82-11.71 12.15-16.87 15.13zm4.52-6.81C80 362 39.21 350.54 20.58 318.27S12.38 245 43.84 226.8c4.56-2.63 11-4.7 18.7-6.32a51.65 51.65 0 0 0-11.86 4.63C20.06 242.79 9.93 282.56 28.06 314s57.63 42.5 88.24 24.83a52.29 52.29 0 0 0 9.94-8c-5.24 5.84-10.24 10.39-14.82 13.02zm4.18-6.29c-29.9 17.26-68.6 6.35-86.33-24.31s-7.79-69.66 22.11-86.92c4.31-2.49 10.41-4.46 17.7-6a48.15 48.15 0 0 0-10.94 4.3C29.07 241.42 19.46 279.18 36.66 309s54.71 40.35 83.78 23.57a48.36 48.36 0 0 0 9.2-7.33c-4.97 5.53-9.72 9.83-14.04 12.32zm4.13-6.23c-28.34 16.37-65.06 6-81.85-23.05s-7.39-66 21-82.42A52 52 0 0 1 72 221a40.19 40.19 0 0 0-7.57 3.25c-27.75 16-36.93 52.07-20.51 80.52s52.24 38.53 80 22.51a40.62 40.62 0 0 0 6.59-4.94 52 52 0 0 1-10.78 8.99zm3.51-5.27c-27 15.61-62.06 5.74-78.07-22s-7.05-63 20-78.61c4.2-2.42 10.27-4.29 17.53-5.72a44.38 44.38 0 0 0-10.36 4c-26.11 15.08-34.75 49-19.3 75.78s49.16 36.25 75.27 21.17a44.61 44.61 0 0 0 8.66-7c-4.88 5.63-9.53 9.96-13.73 12.38zm73.86 67.31c32.85 0 59.48-26 59.48-58a40.47 40.47 0 0 0-1-8.18A52 52 0 0 1 258 341c0 32.73-27.32 59.36-60.9 59.36s-60.9-26.61-60.9-59.36a52 52 0 0 1 2.39-13.85 40.47 40.47 0 0 0-1 8.18c.03 32.06 26.66 58.04 59.51 58.04zm0-325.27c-27.52 0-49.84 21.77-49.84 48.61a34.57 34.57 0 0 0 .9 7.22 46.9 46.9 0 0 1-2.47-13.23c0-27.63 23.06-50.11 51.41-50.11s51.41 22.48 51.41 50.11a46.9 46.9 0 0 1-2.51 13.23 34.5 34.5 0 0 0 .89-7.22c.04-26.84-22.27-48.61-49.79-48.61zm0 267.06c22.1 0 40-17.47 40-39a26.18 26.18 0 0 0-.5-4.72 37.22 37.22 0 0 1 1.9 10.38c0 22.25-18.57 40.35-41.41 40.35s-41.41-18.1-41.41-40.35a37.22 37.22 0 0 1 1.9-10.38 26.18 26.18 0 0 0-.5 4.72c.01 21.53 17.92 39 40.02 39zm0-171.58a17.69 17.69 0 0 0-17.89 17.08l-1.1-2a15.85 15.85 0 0 1-.6-3.86c0-10.51 8.79-19.07 19.59-19.07s19.59 8.56 19.59 19.07a17.32 17.32 0 0 1-.84 4.69l-.85 1.58a17.68 17.68 0 0 0-17.9-17.49zm0 1.4A16.29 16.29 0 0 1 213.59 181a14.52 14.52 0 0 1-.7 3.92l-1.37 2.57a14.45 14.45 0 0 0-28.82-.39l-1.6-3a12.84 12.84 0 0 1-.49-3.12A16.29 16.29 0 0 1 197.1 165zm-8.1 50.26l-1.6-.09a1.87 1.87 0 0 1-.28-.13 3.74 3.74 0 0 1 3.74-6.48 5.78 5.78 0 0 1 1.33 1.37 8.15 8.15 0 0 1 1.8-1.07c-.07-.15-.15-.29-.22-.44a5.76 5.76 0 0 1-.4-1.68 3.74 3.74 0 0 1 7.48 0 6.27 6.27 0 0 1-.61 2.05 8 8 0 0 1 1.91 1.1 6.63 6.63 0 0 1 1.39-1.37 3.74 3.74 0 0 1 3.74 6.48 5.92 5.92 0 0 1-2 .49 7.89 7.89 0 0 1 .05.84 8.29 8.29 0 0 1-.11 1.24 6.58 6.58 0 0 1 2.05.56 3.74 3.74 0 0 1-3.74 6.47 6.34 6.34 0 0 1-1.47-1.55.86.86 0 0 1-.07-.1 8.17 8.17 0 0 1-1.68 1c.05.11.1.23.14.34a4.82 4.82 0 0 1 .42 1.73 3.74 3.74 0 0 1-7.48 0 6.3 6.3 0 0 1 .64-2.11 8 8 0 0 1-1.68-1l-.15.19a5.27 5.27 0 0 1-1.32 1.27 3.74 3.74 0 0 1-3.74-6.48 3.65 3.65 0 0 1 .53-.21l1.4-.08zm1.53-13.19a5.55 5.55 0 0 1-.26-1.49 6.8 6.8 0 0 1 13.59 0 11.63 11.63 0 0 1-1.23 4l-.52 1a5.17 5.17 0 0 0-9.92-.3c-.53-1-1.09-2.08-1.67-3.21zm.21 28.18c.51-1 1-2 1.47-2.88a5.16 5.16 0 0 0 9.79.08c.56 1.08 1.15 2.24 1.77 3.45a5.3 5.3 0 0 1 .18 1.18 6.8 6.8 0 0 1-13.59 0 6.33 6.33 0 0 1 .37-1.83zm6.42 9.83a8.15 8.15 0 0 0 8-6.43c.48.94 1 1.91 1.51 2.91a6.91 6.91 0 0 1 .23 1.62 9.82 9.82 0 0 1-19.64 0 7.71 7.71 0 0 1 .27-1.8l1.53-2.94a8.13 8.13 0 0 0 8.09 6.64zM206 229l-1.75-2.7a5.16 5.16 0 0 0 4.86-8.57l3.38.17a6.21 6.21 0 0 1 1.72.59 6.8 6.8 0 0 1-6.8 11.77A6.87 6.87 0 0 1 206 229zm8.16-14.5a9.09 9.09 0 0 1-2.87.79l-2.27.11a5.16 5.16 0 0 0-5-8.59l1.5-2.31a7.93 7.93 0 0 1 1.86-1.77 6.8 6.8 0 0 1 6.8 11.77zm-7.83-17l-1.11 2.13a8.21 8.21 0 0 0-16.17-.5l-1.41-2.72a7.52 7.52 0 0 1-.31-1.92 9.82 9.82 0 0 1 19.64 0 10.17 10.17 0 0 1-.69 2.99zM189 204.79l1.34 2.06A5.17 5.17 0 0 0 185 215l-4.43-.22a3 3 0 0 1-.36-.17 6.8 6.8 0 0 1 6.8-11.77 8.48 8.48 0 0 1 1.99 1.95zm-8.74 13.49a3.83 3.83 0 0 1 .83-.35l4-.2a5.17 5.17 0 0 0 5 8.31l-2.09 3.28a5.24 5.24 0 0 1-.9.73 6.8 6.8 0 0 1-6.8-11.77zm16.84 30.82a11.12 11.12 0 0 0 11.13-9.62l1.62 3.07a9.13 9.13 0 0 1 .29 2.09 13 13 0 0 1-26.08 0 9.47 9.47 0 0 1 .34-2.27l1.56-3a11.12 11.12 0 0 0 11.14 9.73zm12.57-14.27l-1.78-2.83a8.23 8.23 0 0 0 8.1-14l2.88.13a8.54 8.54 0 0 1 2 .75 9.82 9.82 0 0 1-9.82 17 7.32 7.32 0 0 1-1.38-1.05zm8.88-19.83l-2.82.13a8.21 8.21 0 0 0-8-14.06l1.32-2.08a9.29 9.29 0 0 1 2.08-1.83 9.82 9.82 0 0 1 9.82 17 8.52 8.52 0 0 1-2.4.84zm-9.05-23.62l-1.22 2.31a11.24 11.24 0 0 0-22.33-.38l-1.52-2.87a9.77 9.77 0 0 1-.37-2.41 13 13 0 0 1 26.08 0 12.07 12.07 0 0 1-.64 3.3zm-24.4 7.38l1.57 2.44a8.23 8.23 0 0 0-8.67 13.48l-3.77-.16a5.53 5.53 0 0 1-.77-.36 9.82 9.82 0 0 1 9.82-17 8.53 8.53 0 0 1 1.82 1.55zm-10.68 19.52l3.81-.16a8.22 8.22 0 0 0 8.09 13.83l-1.78 2.78a7.21 7.21 0 0 1-1.26 1 9.82 9.82 0 0 1-9.82-17 6.23 6.23 0 0 1 .96-.5zm22.68 40.5a14.29 14.29 0 0 0 14.39-13.09c.56 1 1.12 2.08 1.69 3.15a12.2 12.2 0 0 1 .41 2.81 16.5 16.5 0 0 1-33 0 12.51 12.51 0 0 1 .42-2.93c.57-1 1.13-2.09 1.67-3.11a14.29 14.29 0 0 0 14.42 13.12zm16.2-18.16l-1.78-2.82a11.26 11.26 0 0 0 11-19.39l3.1.12a10.4 10.4 0 0 1 2.48.94 13 13 0 0 1-13 22.59 10 10 0 0 1-1.8-1.49zm12.11-25.9l-2.94.12a11.24 11.24 0 0 0-11.25-19.31c.49-.77 1-1.56 1.48-2.36a11.4 11.4 0 0 1 2.41-2 13 13 0 0 1 13 22.59 10.86 10.86 0 0 1-2.7.91zm-44-21.76c.55.86 1.08 1.72 1.61 2.55a11.25 11.25 0 0 0-11.68 18.94l-3.93-.15a7.07 7.07 0 0 1-1.2-.54 13 13 0 0 1 13-22.59 10.38 10.38 0 0 1 2.22 1.74zm-13.77 25.54l3.8-.14a11.25 11.25 0 0 0 11.33 19.12l-1.85 3a8.93 8.93 0 0 1-1.65 1.27 13 13 0 0 1-13-22.58 8.14 8.14 0 0 1 1.37-.67zm29.46 50.55a17.69 17.69 0 0 0 17.9-16.93l1.19 2.19a15 15 0 0 1 .52 3.52c0 10.52-8.79 19.08-19.59 19.08s-19.59-8.56-19.59-19.08a15.19 15.19 0 0 1 .56-3.69q.59-1 1.14-2.1a17.7 17.7 0 0 0 17.87 17.01zm18.12-25.42a14.45 14.45 0 0 0 14.27-25l3.28.11a13.09 13.09 0 0 1 3.13 1.18 16.5 16.5 0 0 1-16.5 28.57 12.93 12.93 0 0 1-2.33-1.84c-.62-1.04-1.24-2.03-1.85-3.02zm17.38-29.2l-3.21.1a14.44 14.44 0 0 0-14.49-24.92l1.57-2.52a14.14 14.14 0 0 1 2.93-2.48 16.5 16.5 0 0 1 16.5 28.57 13.92 13.92 0 0 1-3.3 1.25zm-35.5-60.12a20.74 20.74 0 0 0-21 20.48v.21c-.43-.77-.86-1.56-1.3-2.34a19.19 19.19 0 0 1-.82-4.93c0-12.41 10.36-22.5 23.1-22.5s23.1 10.09 23.1 22.5a21 21 0 0 1-1 5.74l-1.09 2v-.65a20.74 20.74 0 0 0-20.99-20.51zm-19.47 32.5l1.72 2.78a14.47 14.47 0 0 0-15 24.56c-1.3 0-2.63-.09-4-.12a11 11 0 0 1-1.87-.81A16.5 16.5 0 0 1 175 184.65a13.83 13.83 0 0 1 2.63 2.16zm-17.13 31.93l3.93-.13a14.47 14.47 0 0 0 14.64 24.77l-1.89 3.05a12.78 12.78 0 0 1-2.2 1.74 16.5 16.5 0 0 1-16.5-28.57 11 11 0 0 1 2.02-.86zm36.6 59.57a20.74 20.74 0 0 0 21-20.48l1.39 2.5a18.51 18.51 0 0 1 .72 4.59c0 12.41-10.36 22.5-23.1 22.5S174 277.31 174 264.9a18.77 18.77 0 0 1 .77-4.75c.45-.81.9-1.62 1.34-2.43v.11a20.74 20.74 0 0 0 20.99 20.48zm22-28.41a17.91 17.91 0 0 0 17.74-31.07l2.19.06a15.76 15.76 0 0 1 3.83 1.45c9.11 5.26 12.12 17.15 6.72 26.51a19.35 19.35 0 0 1-26.31 7.42 14.88 14.88 0 0 1-2.93-2.34zm19.71-35.64l-2.06.05a17.9 17.9 0 0 0-18-30.94l1-1.65a17 17 0 0 1 3.49-2.91 19.35 19.35 0 0 1 26.31 7.43c5.4 9.36 2.39 21.24-6.72 26.5a16.55 16.55 0 0 1-4.03 1.52zm-17.3-45a13.65 13.65 0 0 0 .1-1.51c0-13.2-11-23.9-24.5-23.9s-24.5 10.7-24.5 23.9v1c-.13-.25-.27-.49-.41-.74a22.17 22.17 0 0 1-1-6c0-13.91 11.62-25.23 25.91-25.23S223 148.16 223 162.07a24 24 0 0 1-1.29 6.77zm-47.14 12.27l1.12 1.82A17.91 17.91 0 0 0 157 213.93l-2.9-.07a13.19 13.19 0 0 1-2.54-1.08c-9.11-5.25-12.12-17.14-6.72-26.5s17.2-12.69 26.31-7.43a16 16 0 0 1 3.21 2.66zm-20.1 37.39l2.79-.07a17.92 17.92 0 0 0 18.15 30.81l-1.3 2.14a14.69 14.69 0 0 1-2.78 2.19 19.35 19.35 0 0 1-26.31-7.43c-5.4-9.35-2.39-21.24 6.72-26.5a14.12 14.12 0 0 1 2.72-1.16zM172.63 264v.91c0 13.2 11 23.9 24.5 23.9s24.5-10.7 24.5-23.9v-.83l.51.9a21.64 21.64 0 0 1 .93 5.59c0 13.91-11.62 25.23-25.91 25.23s-25.91-11.32-25.91-25.23a21.94 21.94 0 0 1 1-5.75zm49.83-8.56l.1.06c9.79 5.66 22.43 2.1 28.23-7.94a20.73 20.73 0 0 0-7.24-28.42l-.26-.15 2.58.05a19.6 19.6 0 0 1 4.85 1.81c10.75 6.2 14.31 20.22 7.94 31.25s-20.29 15-31 8.76a19.32 19.32 0 0 1-3.74-3.06zm23.2-41.32h-2.47c.12-.06.25-.12.36-.19a20.74 20.74 0 0 0 7.24-28.42c-5.8-10-18.44-13.6-28.23-7.95l-.45.28 1.21-2a20.47 20.47 0 0 1 4.3-3.62c10.75-6.2 24.67-2.28 31 8.76s2.81 25.05-7.94 31.25a20 20 0 0 1-5.02 1.88zm-21.44-49.7a16.59 16.59 0 0 0 .19-2.34c0-14.71-12.23-26.64-27.31-26.64s-27.31 11.93-27.31 26.64a15.47 15.47 0 0 0 .13 1.86l-.57-1a26.32 26.32 0 0 1-1.33-7.25c0-15.62 13-28.33 29.08-28.33s29.08 12.71 29.08 28.33a27.83 27.83 0 0 1-1.59 8.06zm-53.42 11.22l1.32 2.18-.3-.18c-9.79-5.66-22.43-2.1-28.23 7.94a20.76 20.76 0 0 0 6.89 28.21c-1.09 0-2.19 0-3.29-.06a17.11 17.11 0 0 1-3.53-1.44c-10.75-6.2-14.3-20.22-7.94-31.25s20.29-15 31-8.76a19.94 19.94 0 0 1 4.08 3.36zM147.36 219q1.62 0 3.21-.06a21 21 0 0 0 21.25 36.21c-.49.81-1 1.64-1.48 2.46a18.32 18.32 0 0 1-3.59 2.9c-10.75 6.21-24.67 2.28-31-8.75s-2.81-25 7.94-31.26a17.55 17.55 0 0 1 3.67-1.5zm22.54 49.79a15.31 15.31 0 0 0-.11 1.73c0 14.71 12.23 26.64 27.31 26.64s27.31-11.93 27.31-26.64a13.31 13.31 0 0 0-.1-1.63l.66 1.15a25.39 25.39 0 0 1 1.21 6.86c0 15.62-13.05 28.32-29.08 28.32S168 292.56 168 276.94a25.67 25.67 0 0 1 1.26-7zm56.24-7.26c.26.18.53.34.78.49 11.43 6.6 26.19 2.45 33-9.27s3-26.57-8.44-33.17c-.32-.18-.66-.35-1-.52h.76a22.79 22.79 0 0 1 5.86 2.12c12.05 7 16 22.68 8.9 35.06s-22.76 16.77-34.81 9.82a21.75 21.75 0 0 1-4.5-3.74zM251 214h-.68a12.11 12.11 0 0 0 1.14-.57c11.43-6.6 15.21-21.45 8.44-33.17s-21.52-15.87-33-9.27a14 14 0 0 0-1.17.78c.1-.16.2-.32.29-.48a23.39 23.39 0 0 1 5.08-4.34c12-7 27.66-2.55 34.81 9.82s3.15 28.1-8.9 35A23 23 0 0 1 251 214zm-23.76-54.85a18.85 18.85 0 0 0 .37-3.48c0-16.42-13.65-29.73-30.48-29.73s-30.48 13.31-30.48 29.73a18 18 0 0 0 .27 3c-.13-.22-.25-.44-.38-.65a30.72 30.72 0 0 1-1.7-8.79c0-17.34 14.48-31.46 32.29-31.46s32.29 14.12 32.29 31.46a32.14 32.14 0 0 1-2 9.6zm-59.14 11.9c.12.22.25.43.38.64-.34-.24-.67-.46-1-.65-11.43-6.6-26.18-2.44-33 9.27s-3 26.58 8.45 33.18l.31.16h-1.44a19.1 19.1 0 0 1-4.47-1.76c-12.05-6.95-16.05-22.68-8.9-35s22.75-16.78 34.8-9.82a23.1 23.1 0 0 1 4.84 4zM142 219.12h1.35c-.13.08-.28.14-.4.22-11.44 6.6-15.22 21.45-8.45 33.17s21.52 15.87 33 9.27c.23-.13.46-.28.69-.44l-.53.9a21.31 21.31 0 0 1-4.36 3.58c-12 7-27.66 2.55-34.8-9.82s-3.15-28.09 8.9-35a19.79 19.79 0 0 1 4.6-1.88zm24.86 55a18.15 18.15 0 0 0-.25 2.81c0 16.42 13.65 29.73 30.48 29.73s30.48-13.31 30.48-29.73a17.91 17.91 0 0 0-.23-2.71l.46.8a29.73 29.73 0 0 1 1.58 8.38c0 17.35-14.48 31.46-32.29 31.46s-32.29-14.11-32.29-31.46a30 30 0 0 1 1.63-8.53c.15-.24.29-.49.44-.74zm62.1-7.78a13.09 13.09 0 0 0 1.45 1c12.74 7.36 29.18 2.73 36.72-10.33s3.33-29.62-9.41-37a14.77 14.77 0 0 0-1.78-.86H257a26.55 26.55 0 0 1 7.13 2.51c13.52 7.81 18 25.46 10 39.34s-25.54 18.83-39.07 11a25.65 25.65 0 0 1-5.46-4.61zM256.81 214h-1a15.87 15.87 0 0 0 1.89-.9c12.74-7.36 16.95-23.91 9.41-37s-24-17.69-36.72-10.34a15.87 15.87 0 0 0-1.85 1.28l.43-.74a27.79 27.79 0 0 1 6.06-5.26c13.53-7.81 31.05-2.86 39.07 11s3.53 31.54-10 39.35a27.58 27.58 0 0 1-7.29 2.61zm-26.57-60v.07a23.45 23.45 0 0 0 .6-4.82c0-18.15-15.09-32.86-33.7-32.86s-33.7 14.71-33.7 32.86a22.67 22.67 0 0 0 .49 4.3 4 4 0 0 0-.2-.35 35.46 35.46 0 0 1-2.18-10.58c0-19.12 16-34.67 35.59-34.67s35.58 15.55 35.58 34.67a37.28 37.28 0 0 1-2.48 11.38zm-65.15 12c.17.3.35.6.53.9a17.44 17.44 0 0 0-1.62-1.1c-12.75-7.35-29.19-2.72-36.73 10.34s-3.33 29.61 9.41 37c.31.18.64.34 1 .51h-1.7a23.88 23.88 0 0 1-5.7-2.16c-13.52-7.81-18-25.46-10-39.35s25.54-18.82 39.07-11a26.7 26.7 0 0 1 5.74 4.86zm-29 53.14h1.63c-.39.18-.75.36-1.09.55-12.74 7.36-17 23.91-9.41 37s24 17.69 36.73 10.34c.43-.26.89-.56 1.34-.89l-.67 1.15a25.57 25.57 0 0 1-5.32 4.46c-13.53 7.81-31 2.86-39.07-11s-3.53-31.54 10-39.34a23.84 23.84 0 0 1 5.88-2.24zm27.75 60.13a22.07 22.07 0 0 0-.46 4.11c0 18.15 15.09 32.87 33.7 32.87s33.7-14.72 33.7-32.87a21.5 21.5 0 0 0-.44-4l.3.5a34.48 34.48 0 0 1 2 10.14c0 19.11-16 34.67-35.58 34.67s-35.59-15.56-35.59-34.67a35.2 35.2 0 0 1 2.08-10.3zm68.6-6.94l-.42-.73a18.72 18.72 0 0 0 2.32 1.63c14.22 8.21 32.57 3 41-11.54s3.71-33.05-10.51-41.26a19 19 0 0 0-2.81-1.28h.7a30.67 30.67 0 0 1 8.62 2.95c15 8.68 20 28.28 11.1 43.7s-28.37 20.91-43.39 12.23a30.26 30.26 0 0 1-6.59-5.67zm30.1-58.33h-.62a19 19 0 0 0 2.92-1.33c14.22-8.21 18.92-26.68 10.51-41.26s-26.77-19.74-41-11.53a19 19 0 0 0-2.74 2c.08-.15.17-.29.25-.43a31.91 31.91 0 0 1 7.19-6.36c15-8.67 34.49-3.18 43.39 12.24s3.93 35-11.1 43.69a31.61 31.61 0 0 1-8.8 2.98zm-29-66.49a24.34 24.34 0 0 0 .57-4.88c0-19.92-16.56-36.08-37-36.08s-37 16.16-37 36.08a24.34 24.34 0 0 0 .57 4.88 37.4 37.4 0 0 1-2.19-11c0-20.75 17.32-37.63 38.61-37.63s38.61 16.88 38.61 37.63a37.4 37.4 0 0 1-2.19 10.95zm-71.32 13.6l.34.6a18.21 18.21 0 0 0-2.52-1.79c-14.22-8.21-32.57-3.05-41 11.53s-3.72 33 10.5 41.26a15.24 15.24 0 0 0 1.94.94h-1.31A27.81 27.81 0 0 1 123 211c-15-8.67-20-28.27-11.1-43.69s28.37-20.91 43.39-12.24a30.82 30.82 0 0 1 6.91 5.99zm-31.87 58.12h1.25a17.66 17.66 0 0 0-2 1c-14.22 8.21-18.92 26.68-10.5 41.26S145.8 281.16 160 273a17.32 17.32 0 0 0 2.22-1.55l-.46.81a29.89 29.89 0 0 1-6.46 5.55c-15 8.67-34.49 3.19-43.39-12.24s-3.92-35 11.1-43.69a27.81 27.81 0 0 1 7.32-2.7zm30.35 66a24.52 24.52 0 0 0-.57 4.89c0 19.92 16.56 36.07 37 36.07s37-16.15 37-36.07a24.52 24.52 0 0 0-.57-4.89 37.52 37.52 0 0 1 2.19 11c0 20.75-17.32 37.62-38.61 37.62s-38.61-16.87-38.61-37.62a37.52 37.52 0 0 1 2.15-11.07zm74.58-7.9l-.25-.44a22.74 22.74 0 0 0 3.35 2.46c15.72 9.07 36 3.37 45.31-12.75s4.1-36.54-11.62-45.61a22.08 22.08 0 0 0-4.06-1.76h.34a35.74 35.74 0 0 1 10.41 3.44c16.56 9.56 22.05 31.16 12.24 48.15s-31.26 23-47.82 13.48a35 35 0 0 1-7.92-7.04zM268.15 214h-.27a22.7 22.7 0 0 0 4.17-1.79c15.72-9.08 20.92-29.5 11.62-45.61s-29.59-21.83-45.31-12.75a22.86 22.86 0 0 0-3.78 2.84c0-.05 0-.1.08-.14a37 37 0 0 1 8.5-7.66c16.56-9.56 38-3.51 47.82 13.48s4.32 38.6-12.24 48.16a36 36 0 0 1-10.59 3.47zm-31.54-72.74a26.18 26.18 0 0 0 .5-4.72c0-21.56-17.91-39-40-39s-40 17.47-40 39a26.18 26.18 0 0 0 .5 4.72 37.34 37.34 0 0 1-1.9-10.38c0-22.25 18.57-40.36 41.41-40.36s41.41 18.11 41.41 40.36a37.34 37.34 0 0 1-1.92 10.34zm-77.21 15l.17.31a21.36 21.36 0 0 0-3.55-2.64c-15.72-9.08-36-3.37-45.31 12.75s-4.1 36.53 11.62 45.61a19.94 19.94 0 0 0 3.1 1.42h-.92a32.8 32.8 0 0 1-8.87-3.11c-16.56-9.56-22-31.16-12.24-48.15s31.27-23 47.82-13.49a36 36 0 0 1 8.18 7.22zm-34.74 63h.87a20.39 20.39 0 0 0-3.2 1.45c-15.72 9.08-20.92 29.5-11.62 45.62S140.3 288.05 156 279a20.76 20.76 0 0 0 3.24-2.36l-.29.52a34.66 34.66 0 0 1-7.75 6.8c-16.55 9.56-38 3.51-47.82-13.48s-4.32-38.6 12.24-48.16a32.9 32.9 0 0 1 9.04-3.17zm-9.72 1.93c-17.26 10-23 32.38-12.75 50.07s32.48 24 49.74 14a24.51 24.51 0 0 0 3.94-2.93 37.41 37.41 0 0 1-8.41 7.38C129.5 300 106.22 293.4 95.58 275s-4.69-41.87 13.28-52.24a37.34 37.34 0 0 1 10.59-3.59 24.13 24.13 0 0 0-4.51 1.91zm40.47 73a32.92 32.92 0 0 0-1.13 7.73c0 23.06 19.17 41.76 42.82 41.76s42.82-18.7 42.82-41.76a32.92 32.92 0 0 0-1.13-7.73c2 5.76 3.23 10.85 3.23 14.79 0 24.14-20.15 43.78-44.92 43.78s-44.92-19.76-44.92-43.91c0-3.94 1.21-9.03 3.23-14.79zm83.1-11.55a25.28 25.28 0 0 0 4 2.94c17.25 10 39.52 3.69 49.73-14s4.51-40.11-12.75-50.07a24.5 24.5 0 0 0-4.51-1.95 37.34 37.34 0 0 1 10.54 3.44c18 10.37 23.93 33.81 13.28 52.25s-33.92 25-51.88 14.62a37.15 37.15 0 0 1-8.41-7.36zm40.93-70.81c17.26-10 23-32.38 12.75-50.07s-32.48-23.95-49.73-14a25.17 25.17 0 0 0-4 2.93 37.66 37.66 0 0 1 8.41-7.38c18-10.37 41.24-3.81 51.88 14.63s4.69 41.87-13.28 52.24a37.34 37.34 0 0 1-10.59 3.59 23.84 23.84 0 0 0 4.56-2.07zm-40.65-73.13a32.92 32.92 0 0 0 1.13-7.73c0-23.06-19.17-41.76-42.82-41.76s-42.82 18.7-42.82 41.76a32.92 32.92 0 0 0 1.13 7.73c-2-5.76-3.23-10.85-3.23-14.79 0-24.27 20.15-43.91 44.92-43.91S242 99.64 242 123.78c0 3.94-1.19 9.03-3.21 14.79zm-82.92 12a25.13 25.13 0 0 0-3.94-2.93c-17.26-10-39.53-3.7-49.74 14s-4.51 40.11 12.75 50.08a25.52 25.52 0 0 0 4.51 1.95 37.32 37.32 0 0 1-10.59-3.6c-18-10.37-23.93-33.81-13.28-52.24s33.92-25 51.88-14.63a37.66 37.66 0 0 1 8.41 7.28zm-7.7-8.59c-18.67-10.78-42.76-4-53.81 15.14s-4.87 43.38 13.79 54.16a26.09 26.09 0 0 0 4.35 1.93 37.41 37.41 0 0 1-9.94-3.54c-19.28-11.13-25.67-36.27-14.25-56.05S124.7 126.85 144 138a37 37 0 0 1 8 6.84 26.07 26.07 0 0 0-3.83-2.84zm-40 79.48c-18.66 10.78-24.84 35-13.79 54.17s35.14 25.91 53.81 15.13A26 26 0 0 0 152 288a37.6 37.6 0 0 1-8 6.84c-19.3 11.16-44.27 4.1-55.69-15.68s-5-44.92 14.25-56.05a37.43 37.43 0 0 1 9.94-3.53 25.31 25.31 0 0 0-4.35 1.92zm43.91 78.74a36 36 0 0 0-1.29 8.61c0 25 20.74 45.19 46.33 45.19s46.33-20.23 46.33-45.19a36 36 0 0 0-1.29-8.61c2.12 6.1 3.39 11.49 3.39 15.68 0 26-21.73 47.2-48.43 47.2s-48.43-21.17-48.43-47.2c-.02-4.28 1.25-9.67 3.37-15.77zm90.32-11.93a25.56 25.56 0 0 0 3.84 2.8c18.66 10.77 42.75 4 53.8-15.14s4.87-43.39-13.79-54.16a26.09 26.09 0 0 0-4.35-1.93 37.06 37.06 0 0 1 9.94 3.54c19.28 11.12 25.67 36.27 14.25 56s-36.39 26.82-55.66 15.69a37.05 37.05 0 0 1-8.05-6.89zm43.85-77c18.66-10.78 24.84-35 13.79-54.16S264.88 131.2 246.22 142a26.16 26.16 0 0 0-3.84 2.79 37 37 0 0 1 8-6.83c19.27-11.13 44.24-4.09 55.66 15.68s5 44.92-14.25 56a37.41 37.41 0 0 1-9.94 3.54 26.09 26.09 0 0 0 4.38-1.9zm-44.09-78.89a36.11 36.11 0 0 0 1.29-8.61c0-25-20.74-45.19-46.33-45.19s-46.33 20.23-46.33 45.19a36.11 36.11 0 0 0 1.29 8.61c-2.12-6.1-3.39-11.49-3.39-15.68 0-26 21.72-47.2 48.43-47.2s48.43 21.17 48.43 47.2c-.02 4.07-1.29 9.46-3.41 15.56zm-91.36 9.09a33 33 0 0 0-6.13-4.84c-20-11.53-45.75-4.28-57.57 16.2s-5.22 46.43 14.76 58a32.54 32.54 0 0 0 7.25 2.89c-6-1.13-11-2.63-14.43-4.6-20.9-12.07-27.84-39.34-15.45-60.79s39.47-29.09 60.38-17c3.39 1.92 7.21 5.54 11.19 10.14zm-48.94 80.3c-20 11.53-26.59 37.48-14.76 58s37.6 27.73 57.57 16.2a32.57 32.57 0 0 0 6.13-4.84c-4 4.63-7.78 8.23-11.19 10.2-20.91 12.07-48 4.44-60.38-17s-5.45-48.72 15.45-60.79c3.42-2 8.43-3.47 14.43-4.6a32.54 32.54 0 0 0-7.25 2.83zm95.24 142.62c27.52 0 49.83-21.76 49.83-48.6a34.5 34.5 0 0 0-.89-7.22 46.9 46.9 0 0 1 2.47 13.22c0 27.64-23.06 50.12-51.41 50.12s-51.41-22.48-51.41-50.12a46.9 46.9 0 0 1 2.47-13.22 34.57 34.57 0 0 0-.9 7.22c0 26.84 22.32 48.6 49.84 48.6zm46.48-73a32.48 32.48 0 0 0 6.13 4.83c20 11.54 45.75 4.28 57.57-16.2s5.22-46.43-14.75-58a32.85 32.85 0 0 0-7.26-2.88c6 1.12 11 2.62 14.43 4.59 20.9 12.07 27.84 39.35 15.45 60.8s-39.47 29.08-60.38 17c-3.41-1.91-7.21-5.5-11.19-10.13zm48.95-80.65c20-11.53 26.58-37.48 14.75-58s-37.6-27.73-57.57-16.2a33 33 0 0 0-6.13 4.84c4-4.63 7.78-8.22 11.19-10.2 20.91-12.07 48-4.43 60.38 17s5.45 48.72-15.45 60.79c-3.42 2-8.43 3.47-14.43 4.6a32.83 32.83 0 0 0 7.26-2.82zm7.87-.49c21.61-12.48 28.76-40.56 16-62.71s-40.69-30-62.3-17.53a35.83 35.83 0 0 0-6.81 5.42c4.22-4.89 8.25-8.68 11.88-10.78 22.54-13 51.74-4.78 65.1 18.34s5.87 52.53-16.67 65.55c-3.63 2.09-8.93 3.69-15.27 4.9a36 36 0 0 0 8.07-3.18zM197.1 59.19c-29.17 0-52.82 23.06-52.82 51.51a38.38 38.38 0 0 0 1.18 8.65c-1.85-5.78-2.93-10.9-2.93-15 0-29.35 24.47-53.2 54.57-53.2s54.57 23.85 54.57 53.19c0 4.11-1.08 9.23-2.93 15a39 39 0 0 0 1.18-8.65c0-28.44-23.65-51.5-52.82-51.5zm-50 76.42a35.83 35.83 0 0 0-6.81-5.42c-21.61-12.48-49.5-4.63-62.3 17.53S72.37 198 94 210.43a36 36 0 0 0 8.1 3.19c-6.34-1.21-11.64-2.81-15.27-4.9-22.54-13-30-42.42-16.66-65.55s42.55-31.35 65.09-18.34c3.61 2.1 7.64 5.89 11.86 10.78zM94 222.39C72.37 234.87 65.22 263 78 285.11s40.69 30 62.3 17.52a35.83 35.83 0 0 0 6.81-5.42c-4.22 4.89-8.25 8.69-11.88 10.78-22.54 13-51.74 4.79-65.09-18.34s-5.88-52.53 16.66-65.55c3.63-2.09 8.93-3.69 15.27-4.9a36 36 0 0 0-8.07 3.19zm103.1 151.05c29.17 0 52.82-23.06 52.82-51.52a39 39 0 0 0-1.18-8.65c1.85 5.78 2.93 10.91 2.93 15 0 29.33-24.48 53.2-54.57 53.2s-54.57-23.87-54.57-53.2c0-4.1 1.08-9.23 2.93-15a38.46 38.46 0 0 0-1.18 8.65c0 28.46 23.65 51.52 52.82 51.52zm50.16-75.92a36.23 36.23 0 0 0 6.81 5.42c21.61 12.47 49.5 4.63 62.3-17.53s5.64-50.24-16-62.71a36 36 0 0 0-8.1-3.2c6.34 1.21 11.64 2.81 15.27 4.91 22.54 13 30 42.41 16.67 65.54s-42.56 31.36-65.1 18.34c-3.6-2.09-7.63-5.88-11.85-10.77zm11.18 12c23.25 13.42 53.25 5 67-18.86s6.07-54-17.18-67.46a34.86 34.86 0 0 0-6.69-2.83 46.73 46.73 0 0 1 12.68 4.47c23.93 13.81 31.87 45 17.7 69.58s-45.18 33.28-69.11 19.47a46.78 46.78 0 0 1-10.22-8.76 35 35 0 0 0 5.82 4.38zm49.83-99.62c23.25-13.42 30.94-43.62 17.18-67.46s-43.76-32.28-67-18.85a34.4 34.4 0 0 0-5.81 4.38 47 47 0 0 1 10.22-8.75c23.93-13.82 54.93-5.09 69.11 19.47s6.23 55.76-17.7 69.58a47.07 47.07 0 0 1-12.68 4.47 34.22 34.22 0 0 0 6.68-2.85zm-56.9-94.56a44.37 44.37 0 0 0 1.7-11c0-30.15-25.06-54.59-56-54.59s-56 24.44-56 54.59a44.43 44.43 0 0 0 1.71 11c-2.39-7-3.81-13.2-3.81-18 0-31.22 26-56.62 58.08-56.62s58.08 25.4 58.08 56.62c.05 4.79-1.37 10.98-3.76 17.99zm-115.43 8.29c-23.25-13.42-53.25-5-67 18.85s-6.07 54 17.18 67.46a34.07 34.07 0 0 0 6.7 2.84 47 47 0 0 1-12.69-4.47c-23.93-13.82-31.87-45-17.69-69.58s45.17-33.29 69.1-19.47a47 47 0 0 1 10.21 8.74 34.4 34.4 0 0 0-5.81-4.38zm-49.83 99.26c-23.25 13.42-30.94 43.62-17.18 67.46s43.76 32.28 67 18.85a34.4 34.4 0 0 0 5.81-4.38 47 47 0 0 1-10.22 8.75c-23.93 13.82-54.93 5.09-69.1-19.46s-6.24-55.77 17.69-69.59a47 47 0 0 1 12.69-4.47 34.07 34.07 0 0 0-6.69 2.84zm56.72 94.41a44.42 44.42 0 0 0-1.71 11c0 30.16 25.07 54.6 56 54.6s56-24.44 56-54.6a44.36 44.36 0 0 0-1.7-11c2.39 7 3.81 13.2 3.81 18.05 0 31.22-26.05 56.61-58.08 56.61S139 366.57 139 335.35c0-4.85 1.44-11.05 3.83-18.05zm112.42-7.55a38.27 38.27 0 0 0 6.9 5.34c24.64 14.23 56.44 5.28 71-20s6.44-57.27-18.2-71.5a39 39 0 0 0-8.08-3.3c5.93 1.28 10.91 2.91 14.46 5 25.4 14.67 33.83 47.8 18.78 73.86s-47.95 35.33-73.35 20.66c-3.53-2.07-7.43-5.57-11.51-10.06zM315 209.47c24.64-14.22 32.79-46.23 18.2-71.5s-46.38-34.2-71-20a38.36 38.36 0 0 0-6.9 5.35c4.08-4.5 8-8 11.53-10 25.4-14.66 58.31-5.39 73.35 20.67s6.62 59.19-18.78 73.85c-3.55 2.05-8.53 3.68-14.46 5a39 39 0 0 0 8.06-3.37zM197.1 39.26c-32.85 0-59.48 26-59.48 58a40.63 40.63 0 0 0 1 8.18 52 52 0 0 1-2.39-13.85c0-32.73 27.32-59.36 60.9-59.36S258 58.88 258 91.61a52 52 0 0 1-2.39 13.85 40.63 40.63 0 0 0 1-8.18c-.03-32.04-26.61-58.02-59.51-58.02zm-58 84.12a38.36 38.36 0 0 0-6.9-5.35c-24.64-14.22-56.44-5.28-71 20s-6.43 57.27 18.21 71.49a38 38 0 0 0 8.08 3.31c-5.94-1.29-10.92-2.92-14.47-5C47.63 193.19 39.2 160.06 54.25 134s48-35.33 73.35-20.67c3.55 2.05 7.45 5.55 11.53 10.05zm-59.68 99.93c-24.64 14.22-32.8 46.24-18.21 71.5s46.38 34.21 71 20a37.91 37.91 0 0 0 6.9-5.35c-4.08 4.5-8 8-11.53 10.05-25.4 14.66-58.3 5.39-73.35-20.66S47.63 239.63 73 225c3.55-2.05 8.53-3.68 14.47-5a38.55 38.55 0 0 0-8.05 3.31zM268.31 361.8c0 38.28-31.94 69.42-71.21 69.42s-71.21-31.14-71.21-69.42c0-6 1.74-13.58 4.69-22.18a57.15 57.15 0 0 0-2.46 14.86c0 37.16 30.88 67.28 69 67.28s69-30.12 69-67.28a57.28 57.28 0 0 0-2.46-14.87c2.91 8.61 4.65 16.23 4.65 22.19zm-3.63-7.32c0 36.32-30.32 65.88-67.58 65.88s-67.58-29.56-67.58-65.88c0-5.26 1.43-11.88 3.88-19.35a51.46 51.46 0 0 0-1.92 12.59c0 35.35 29.38 64 65.62 64s65.62-28.65 65.62-64a51.46 51.46 0 0 0-1.92-12.59c2.45 7.47 3.88 14.09 3.88 19.35zm-3.36-6.76c0 34.52-28.81 62.6-64.22 62.6s-64.22-28.08-64.22-62.6c0-5 1.35-11.25 3.66-18.33A48.59 48.59 0 0 0 134.8 341c0 33.56 27.89 60.76 62.3 60.76s62.3-27.2 62.3-60.76a48.45 48.45 0 0 0-1.74-11.63c2.34 7.09 3.66 13.36 3.66 18.35zm97.38-120.1c33.15 19.14 44.15 62.38 24.51 96.38s-62.57 46.1-95.73 27c-5.16-3-10.88-8.3-16.86-15.15a57.14 57.14 0 0 0 11.64 9.56C314.44 364 356 352.26 375 319.27s8.4-74.8-23.78-93.38a57.28 57.28 0 0 0-14.11-5.3c8.95 1.75 16.42 4.05 21.59 7.03zm-8.16-.51c31.46 18.16 41.89 59.19 23.26 91.46s-59.38 43.75-90.8 25.58c-4.56-2.63-9.57-7.17-14.82-13a51.51 51.51 0 0 0 9.94 8c30.62 17.68 70.12 6.56 88.25-24.83s8-71.16-22.62-88.83a51.56 51.56 0 0 0-11.86-4.63c7.65 1.55 14.11 3.62 18.65 6.25zm-7.54-.48c29.9 17.26 39.82 56.25 22.11 86.92s-56.43 41.57-86.33 24.31c-4.31-2.49-9.06-6.79-14-12.33a48.32 48.32 0 0 0 9.19 7.32c29.07 16.78 66.57 6.23 83.78-23.57s7.59-67.55-21.48-84.33a48.13 48.13 0 0 0-10.94-4.31c7.25 1.54 13.36 3.5 17.67 5.99zm-7.46-.47c28.35 16.37 37.75 53.34 21 82.42S303 348 274.65 331.64a52 52 0 0 1-10.8-9 40.52 40.52 0 0 0 6.59 4.93c27.75 16 63.56 5.95 80-22.51s7.25-64.5-20.5-80.52a40.78 40.78 0 0 0-7.57-3.24 51.7 51.7 0 0 1 13.17 4.86zm-6.32-.39c27 15.61 36 50.87 20 78.6s-51 37.6-78.07 22c-4.2-2.42-8.85-6.75-13.72-12.32a44.33 44.33 0 0 0 8.66 7c26.11 15.07 59.81 5.59 75.27-21.18s6.81-60.7-19.3-75.77a44.37 44.37 0 0 0-10.36-4c7.3 1.37 13.3 3.24 17.52 5.67zM287.48 82.12c33.16-19.14 76.1-7 95.73 27s8.64 77.25-24.51 96.39c-5.17 3-12.64 5.27-21.56 7a57.35 57.35 0 0 0 14.1-5.3c32.18-18.58 42.83-60.39 23.78-93.39s-60.58-44.67-92.76-26.09a57.44 57.44 0 0 0-11.65 9.56c5.99-6.86 11.71-12.19 16.87-15.17zM283 88.93c31.46-18.16 72.21-6.68 90.84 25.59s8.2 73.3-23.26 91.46c-4.56 2.63-11 4.7-18.69 6.32a52 52 0 0 0 11.86-4.63c30.61-17.68 40.74-57.45 22.62-88.84S308.7 76.33 278.08 94a52.29 52.29 0 0 0-9.94 8c5.25-5.89 10.26-10.44 14.86-13.07zm-4.18 6.29c29.9-17.26 68.62-6.35 86.33 24.31s7.79 69.66-22.11 86.92c-4.31 2.5-10.41 4.46-17.69 6a48.24 48.24 0 0 0 10.93-4.3c29.07-16.78 38.68-54.54 21.48-84.34S303 83.45 274 100.23a48.08 48.08 0 0 0-9.21 7.33c4.92-5.56 9.68-9.85 13.99-12.34zm-4.13 6.23c28.34-16.37 65.06-6 81.85 23s7.39 66.06-21 82.42a52.06 52.06 0 0 1-13.18 4.86 40.77 40.77 0 0 0 7.57-3.25c27.75-16 36.93-52.07 20.5-80.52s-52.24-38.53-80-22.5a39.94 39.94 0 0 0-6.59 4.93 52 52 0 0 1 10.81-8.94zm-3.51 5.27c27-15.61 62.06-5.74 78.07 22s7.05 63-20 78.61c-4.2 2.42-10.27 4.29-17.53 5.73a44.81 44.81 0 0 0 10.36-4c26.11-15.08 34.75-49 19.3-75.78s-49.19-36.28-75.3-21.2a44.61 44.61 0 0 0-8.66 7c4.87-5.61 9.52-9.93 13.72-12.36zM125.89 70.83c0-38.28 31.94-69.43 71.21-69.43s71.21 31.15 71.21 69.43c0 6-1.74 13.58-4.69 22.18a57.21 57.21 0 0 0 2.46-14.86c0-37.16-30.88-67.28-69-67.28s-69 30.12-69 67.28a57.28 57.28 0 0 0 2.5 14.85c-2.95-8.59-4.69-16.21-4.69-22.17zm3.63 7.32c0-36.33 30.32-65.88 67.58-65.88s67.58 29.55 67.58 65.88c0 5.26-1.43 11.88-3.88 19.35a51.46 51.46 0 0 0 1.92-12.59c0-35.35-29.38-64-65.62-64s-65.62 28.65-65.62 64a51.46 51.46 0 0 0 1.92 12.59c-2.4-7.5-3.88-14.09-3.88-19.35zm3.36 6.76c0-34.52 28.81-62.6 64.22-62.6s64.22 28.08 64.22 62.6c0 5-1.35 11.25-3.66 18.32a48.44 48.44 0 0 0 1.74-11.62c0-33.56-27.89-60.77-62.3-60.77s-62.3 27.21-62.3 60.77a48.59 48.59 0 0 0 1.74 11.63c-2.31-7.08-3.66-13.34-3.66-18.33zm4.12 34.17a44.61 44.61 0 0 0-8.66-7C102.19 97 68.49 106.52 53 133.3s-6.78 60.7 19.33 75.77a44.37 44.37 0 0 0 10.36 4c-7.26-1.44-13.33-3.31-17.53-5.73-27-15.61-36-50.87-20-78.61s51-37.6 78.07-22c4.21 2.46 8.86 6.78 13.77 12.35zm-13-13.53c-27.75-16-63.56-6-80 22.5s-7.24 64.5 20.51 80.52a40.19 40.19 0 0 0 7.49 3.25A52 52 0 0 1 58.84 207c-28.35-16.36-37.75-53.34-21-82.41s53.51-39.43 81.85-23.06a52 52 0 0 1 10.8 9 39.94 39.94 0 0 0-6.55-4.98zm-3.5-5.28c-29.07-16.78-66.57-6.22-83.78 23.57s-7.59 67.56 21.48 84.34a48.6 48.6 0 0 0 10.94 4.31c-7.28-1.54-13.38-3.5-17.7-6-29.9-17.26-39.81-56.25-22.11-86.91S85.7 78 115.6 95.26c4.31 2.49 9.06 6.79 14 12.33a48.32 48.32 0 0 0-9.16-7.32zm-4.14-6.22c-30.61-17.68-70.12-6.56-88.24 24.82s-8 71.16 22.62 88.84a51.74 51.74 0 0 0 11.85 4.63c-7.69-1.62-14.13-3.69-18.69-6.32-31.52-18.16-41.9-59.19-23.32-91.46S80 70.81 111.42 89c4.56 2.63 9.57 7.18 14.82 13a51.81 51.81 0 0 0-9.94-7.95zM11.17 109.12c19.63-34 62.58-46.1 95.73-27 5.16 3 10.88 8.3 16.86 15.16a57.14 57.14 0 0 0-11.64-9.56c-32.18-18.58-73.71-6.9-92.76 26.1s-8.4 74.8 23.78 93.38a57.44 57.44 0 0 0 14.11 5.3c-8.93-1.75-16.4-4-21.57-7-33.15-19.13-44.15-62.37-24.51-96.38z"/></g></g></g></svg>