<svg xmlns="http://www.w3.org/2000/svg" viewBox="0 0 221.97 29.32"><title>Asset 6</title><g data-name="Layer 2"><g data-name="Landing"><g data-name="ЖИВОКОСТ"><path d="M43.24 28.85h-10l-3.44-7.4a12.94 12.94 0 0 0-1.91-3.28 2.66 2.66 0 0 0-1.89-.65v11.33h-8.79V17.52a2.7 2.7 0 0 0-1.92.65 13.09 13.09 0 0 0-1.89 3.28l-3.4 7.4H0L3.89 21a20.13 20.13 0 0 1 3-4.8 7.86 7.86 0 0 1 3.31-2.14A5.7 5.7 0 0 1 8 12.57 9.31 9.31 0 0 1 6.51 9.7a6.1 6.1 0 0 0-1.78-2.79 5.43 5.43 0 0 0-3.36-.86H.92V0a36.27 36.27 0 0 1 7.17.51 5.91 5.91 0 0 1 3.29 1.67A13.23 13.23 0 0 1 13.4 6a19.76 19.76 0 0 0 2 4.37 2.42 2.42 0 0 0 1.82.82V.21H26v11a2.39 2.39 0 0 0 1.79-.82 19.93 19.93 0 0 0 2-4.37 12.76 12.76 0 0 1 2-3.84A5.91 5.91 0 0 1 35.16.51 36.09 36.09 0 0 1 42.32 0v6.05h-.44a5.39 5.39 0 0 0-3.36.86 6.2 6.2 0 0 0-1.8 2.79 9.53 9.53 0 0 1-1.51 2.87A5.78 5.78 0 0 1 33 14.08a7.91 7.91 0 0 1 3.32 2.16 20.47 20.47 0 0 1 3 4.78zm25.84 0h-7.52V18.64l-7.8 10.21h-7.57V8.11h7.52v10.34l7.88-10.34h7.49zM89.8 17.81a6.14 6.14 0 0 1 3.76 1.57A4.63 4.63 0 0 1 95 22.93a5.21 5.21 0 0 1-2 4.44q-2 1.48-7 1.48H74.16V8.11H87a8.93 8.93 0 0 1 5.31 1.33 4.33 4.33 0 0 1 1.82 3.71 4.1 4.1 0 0 1-1.19 2.93 5.81 5.81 0 0 1-3.09 1.65zM82.11 16h2c1.33 0 2-.61 2-1.83 0-1-.7-1.48-2.11-1.48h-1.89zm0 7.94h2.62a2.59 2.59 0 0 0 1.58-.44 1.54 1.54 0 0 0 .6-1.31c0-1.25-.73-1.88-2.18-1.88h-2.62zm15.68-5.4a10.37 10.37 0 0 1 3.21-7.83 12 12 0 0 1 8.65-3.07q6.22 0 9.41 3.61a10.45 10.45 0 0 1 2.56 7.17 10.43 10.43 0 0 1-3.17 7.84q-3.18 3.06-8.78 3.06a12.34 12.34 0 0 1-8.09-2.54 10.22 10.22 0 0 1-3.79-8.24zm8 0a6.33 6.33 0 0 0 1.12 4.1 3.68 3.68 0 0 0 5.65 0 6.54 6.54 0 0 0 1.1-4.2 6.14 6.14 0 0 0-1.11-4 3.45 3.45 0 0 0-2.75-1.31 3.62 3.62 0 0 0-2.88 1.33 6.25 6.25 0 0 0-1.16 4.06zm42.75 10.31h-9l-3-5.73a3.82 3.82 0 0 0-1.42-1.71 3.67 3.67 0 0 0-1.71-.36v7.8h-8V8.11h8v7.5a2.08 2.08 0 0 0 1.44-.65 12 12 0 0 0 1.36-2.4 14.14 14.14 0 0 1 1.59-2.72 4.38 4.38 0 0 1 1.8-1.29 9.68 9.68 0 0 1 2.72-.55q1.65-.12 4.89-.12v5.65h-.35a18.69 18.69 0 0 0-2.45.12 2.78 2.78 0 0 0-1.34.54 5.6 5.6 0 0 0-1.18 1.68 9.89 9.89 0 0 1-1.1 1.77 2.31 2.31 0 0 1-1.3.67 5.93 5.93 0 0 1 2.56.71 12.51 12.51 0 0 1 2.72 3.59zm1.62-10.31a10.37 10.37 0 0 1 3.2-7.83A12 12 0 0 1 162 7.64c4.16 0 7.29 1.2 9.42 3.61a10.49 10.49 0 0 1 2.58 7.17 10.39 10.39 0 0 1-3.17 7.84c-2.12 2-5 3.06-8.78 3.06a12.31 12.31 0 0 1-8.05-2.54 10.19 10.19 0 0 1-3.84-8.24zm8 0a6.27 6.27 0 0 0 1.12 4.1 3.56 3.56 0 0 0 2.79 1.36 3.52 3.52 0 0 0 2.82-1.31 6.48 6.48 0 0 0 1.11-4.2 6.08 6.08 0 0 0-1.12-4 3.45 3.45 0 0 0-2.75-1.31 3.59 3.59 0 0 0-2.87 1.33 6.19 6.19 0 0 0-1.13 4.01zm35.12 2.18l7.56.86a10.59 10.59 0 0 1-2.05 4.09 9.52 9.52 0 0 1-3.64 2.69 14.29 14.29 0 0 1-5.64 1 20.79 20.79 0 0 1-5.5-.62 9.66 9.66 0 0 1-3.78-2 10.12 10.12 0 0 1-2.48-3.23 11.33 11.33 0 0 1-.89-4.92 11.56 11.56 0 0 1 1.14-5.35 9.43 9.43 0 0 1 2.19-2.8A10.05 10.05 0 0 1 183 8.59a16 16 0 0 1 6-1q5.07 0 7.74 1.81a9.6 9.6 0 0 1 3.74 5.32l-7.48 1a3.5 3.5 0 0 0-1.28-2 4.15 4.15 0 0 0-2.49-.67A4 4 0 0 0 186 14.5a6.38 6.38 0 0 0-1.22 4.28 5.57 5.57 0 0 0 1.22 3.88 4 4 0 0 0 3.06 1.34 4.22 4.22 0 0 0 2.63-.8 4.72 4.72 0 0 0 1.59-2.48zM222 13.91h-5.76v14.94h-8V13.91h-5.76v-5.8H222z" data-name="menu" fill="#fff"/></g></g></g></svg>