<svg class="s-1__title-svg--tablet" xmlns="http://www.w3.org/2000/svg" xmlns:xlink="http://www.w3.org/1999/xlink" viewBox="0 0 438 200"><path fill="#1c1f21" d="M436.3 90.1l-2.4 23.6-6.2 61.5-.8.1-411.5 23.5h-.8l8.6-85.1h.8l411.5-23.5z"/><path d="M55.6 131.6l1.9 8.5 3.9-8.8 3.2-.2-1.3 11.9-2.4.1.4-3.4.8-5.3-4 8.9-1.6.1-2.1-8.8-.4 5.9-.4 3.1-2.4.1 1.4-11.9 3-.2zm13.5 3.5l1.6-.1c1.3-.1 2.3.2 3.1.8.8.6 1.2 1.5 1.1 2.6 0 1.2-.5 2.2-1.3 2.9-.9.8-2 1.2-3.4 1.3l-4.4.3 1.4-11.9 2.4-.1-.5 4.2zm-.2 2l-.4 3.7 1.7-.1c.6 0 1.2-.2 1.6-.6.4-.4.7-.9.7-1.5 0-.5-.1-.9-.4-1.2s-.7-.4-1.3-.4l-1.9.1zm8.9 5.1l-2.4.1 1.4-11.9 2.4-.1-1.4 11.9zm17.4 1.9l-2.2.1.3-2.9-6.9.4-.3 2.9-2.3.1.4-4.9h.7c1-.7 1.7-2 2.1-3.8l.1-.7 1-5.6 7.5-.4-1.1 10 1.3-.1-.6 4.9zm-7.4-4.4l4.4-.3.9-8-2.9.2-.7 4.1c-.3 1.7-.9 3.1-1.7 4zm16.6-1.5l-4.1.2-1.1 2.5-2.6.2 5.6-12.2 2.2-.1 2.9 11.7-2.4.1-.5-2.4zm-3.3-1.8l2.9-.2-.9-4.4-2 4.6zm15.3-1.6l-4.5.3-.4 3.2 5.3-.3-.2 2-7.7.4 1.4-11.9 7.7-.4-.2 2-5.3.3-.3 2.8 4.5-.3-.3 1.9zm6.5-7.1l1.9 8.5 3.9-8.8 3.2-.2-1.4 11.9-2.4.1.4-3.4.8-5.3-4 8.9-1.6.1-2.1-8.8-.4 5.9-.4 3.1-2.4.1 1.4-11.9 3.1-.2zm22.5 10.6l-7.9.5.2-1.7 4-4.2c.8-.9 1.3-1.5 1.6-2.1.3-.5.3-1 .2-1.5-.2-.7-.6-1-1.2-1-.5 0-.9.2-1.3.6-.3.4-.5.9-.6 1.5l-2.3.1c0-.7.2-1.4.5-2 .4-.6.9-1.1 1.5-1.5s1.3-.6 2.1-.6c1.1 0 2 .2 2.6.8.6.6 1 1.3.9 2.3 0 1.1-.6 2.3-1.8 3.6l-1.1 1.2-2.3 2.3 4.9-.3v2zm5.8-.2c-1 0-1.8-.3-2.4-.9-.6-.6-.9-1.6-1-2.8v-1.2l.2-2.2c.2-1.6.6-2.9 1.4-3.8.7-.9 1.7-1.3 2.9-1.4 1 0 1.8.3 2.4.9.6.6.9 1.6 1 2.7v1.2l-.2 2.2c-.2 1.6-.6 2.9-1.4 3.8-.7 1-1.7 1.5-2.9 1.5zm2.2-8.7c-.1-1.1-.5-1.6-1.2-1.6-1.1 0-1.7.9-1.9 2.6l-.2 2.8c-.1.6-.1 1.1 0 1.4 0 1.1.4 1.6 1.2 1.6 1.1 0 1.8-.9 1.9-2.7l.3-2.9c-.1-.4 0-.8-.1-1.2zm7.5 8.2c-1 0-1.8-.3-2.4-.9-.6-.6-.9-1.6-1-2.8v-1.2l.2-2.2c.2-1.6.6-2.9 1.4-3.8.7-.9 1.7-1.3 2.9-1.4 1 0 1.8.3 2.4.9.6.6.9 1.6 1 2.7v1.2l-.2 2.2c-.2 1.6-.6 2.9-1.4 3.8-.7 1-1.6 1.4-2.9 1.5zm2.3-8.8c-.1-1.1-.5-1.6-1.2-1.6-1.1 0-1.7.9-1.9 2.6l-.2 2.8c-.1.6-.1 1.1 0 1.4 0 1.1.4 1.6 1.2 1.6 1.1 0 1.8-.9 1.9-2.7l.3-2.9c-.1-.4-.1-.8-.1-1.2zm11.1 3.7l-.5 4.2-2.4.1 1.4-11.9 4.1-.2c1.3-.1 2.3.2 3.1.9.8.7 1.1 1.6 1.1 2.7 0 1.2-.5 2.1-1.3 2.9-.8.7-1.9 1.2-3.3 1.2l-2.2.1zm.2-2l2-.1c.6 0 1.2-.2 1.6-.6.4-.4.6-.8.7-1.4 0-.6-.1-1-.4-1.3-.3-.3-.7-.5-1.2-.5l-2.2.1-.5 3.8zm12.8-.9l2.7-5.8 2.7-.2-5 9.8c-.4.9-.9 1.6-1.5 2-.5.4-1.2.7-1.9.7h-.9l.1-2h.6c.4 0 .7-.1.9-.3.3-.2.5-.5.7-.9l.3-.5-3-8.3 2.4-.1 1.9 5.6zm14.4-4.4l-5.1.3-.3 2.3 1.6-.1c1.3-.1 2.3.2 3.1.8.8.6 1.2 1.5 1.1 2.6 0 1.2-.5 2.2-1.3 2.9-.9.8-2 1.2-3.4 1.3l-4.4.3 1.4-11.9 7.5-.4-.2 1.9zm-5.7 4.6l-.4 3.7 1.7-.1c.6 0 1.2-.2 1.6-.6.4-.4.7-.9.7-1.5 0-.5-.1-.9-.4-1.2-.3-.3-.7-.4-1.3-.4l-1.9.1zm18.3-7.3l-1.4 11.9-2.4.1 1.1-10-3 .2-.8 5.3c-.3 1.6-.8 2.9-1.4 3.6-.6.8-1.5 1.2-2.6 1.3l-1 .1.2-2 .4-.1c.6-.1 1.2-.5 1.5-1.1s.6-1.6.8-2.9l.1-.9.8-5.2 7.7-.3zm8.7 6.2l-4.5.3-.4 3.2 5.3-.3-.2 2-7.7.4 1.4-11.9 7.7-.4-.2 2-5.3.3-.3 2.8 4.5-.3-.3 1.9zm10.3-7.3l2.5-.1-1.4 11.9-2.4.1.9-7.8-5.4 8-2.5.1 1.4-11.9 2.4-.1-.9 7.8 5.4-8zm.8-3.2c0 .8-.2 1.4-.8 1.8s-1.2.7-2 .7c-.7 0-1.4-.2-1.9-.6s-.8-1-.8-1.7l1.6-.1c0 .7.4 1.1 1 1 .4 0 .6-.1.8-.3.2-.2.3-.5.4-.8h1.7zm16.2 14.1l-1 .1.7-5.7-6.5.4-.7 5.7-1 .1 1.4-11.9 1-.1-.6 5.4 6.5-.4.6-5.4 1-.1-1.4 11.9zm10.2-4l-5.2.3-1.6 3.4-1.1.1 5.7-12.2.9-.1 3 11.7-1 .1-.7-3.3zm-4.8-.5l4.6-.3-1.5-6.3-3.1 6.6zm21.7 2.9l-1 .1 1.3-11.1-6.5.4-1.3 11.1-1 .1 1.4-11.9 8.4-.5-1.3 11.8zm10.4-6.3l-5.4.3-.6 4.9 6.2-.4-.1.9-7.2.4 1.4-11.9 7.1-.4-.1.9-6.1.4-.5 4.5 5.4-.3-.1.7zm4.2.6l-.6 4.9-1 .1 1.4-11.9 3.9-.2c1.1 0 2 .2 2.6.8s.9 1.4.9 2.4c0 1.1-.4 2-1.2 2.7-.7.7-1.8 1-3 1.1l-3 .1zm.1-.8l2.9-.2c.9-.1 1.7-.3 2.3-.8.6-.5.9-1.2.9-2s-.2-1.4-.6-1.9c-.5-.4-1.1-.6-1.9-.6l-3 .2-.6 5.3zm8.8 5.1l1.4-11.9 3.3-.2c1.1 0 2 .2 2.6.7s.9 1.2.9 2.2c0 .6-.2 1.2-.6 1.7s-.9.9-1.5 1.1c.6.1 1 .5 1.4.9.3.5.5 1.1.5 1.7 0 1-.4 1.9-1.1 2.5-.7.7-1.7 1-2.9 1.1l-4 .2zm1.7-5.7l-.6 4.9 2.8-.2c.9 0 1.6-.3 2.1-.8.6-.5.9-1.1.9-1.9 0-.7-.2-1.2-.6-1.6s-1-.6-1.7-.6l-2.9.2zm0-.9l2.6-.1c.8-.1 1.5-.3 2-.8.5-.4.8-1 .8-1.7.1-1.4-.8-2-2.4-2l-2.5.1-.5 4.5zm12.9 1.5l4.1-7.8 1.2-.1-5.5 10.2c-.4.9-.9 1.5-1.4 1.8-.5.4-1 .6-1.7.6-.2 0-.5 0-.8-.1l.1-.8h.7c.4 0 .7-.2 1.1-.4.3-.2.6-.7 1-1.3l.5-1-3.3-8.5 1.1-.1 2.9 7.5zm14.1 3.7c-1.1 0-2-.3-2.7-1s-1.1-1.7-1.2-2.9v-1.6l-2.1.1-.6 5.6-1 .1 1.4-11.9 1-.1-.6 5.5 2.1-.1v-.4c.1-1 .4-2 .9-2.8.5-.9 1.1-1.5 1.8-1.9.7-.4 1.5-.7 2.3-.7.7 0 1.4.1 1.9.4s1 .8 1.4 1.4c.3.6.5 1.3.6 2.1v1.4l-.1 1.3c-.1 1.1-.4 2.1-.9 3s-1 1.5-1.8 2c-.7.2-1.5.4-2.4.5zm4.2-8.1c0-.7-.2-1.3-.4-1.8s-.6-.9-1-1.2c-.4-.3-.9-.4-1.5-.4-1.1 0-2 .5-2.7 1.3s-1.2 2-1.3 3.3c-.1 1.1-.2 1.9-.1 2.5.1 1.1.4 1.9.9 2.5s1.2.9 2.1.8c1.1 0 2-.5 2.7-1.3.7-.9 1.1-2 1.3-3.3v-2.4zm16.1 3c-.2 1.2-.7 2.2-1.5 3-.8.7-1.8 1.1-3 1.2-1.1 0-1.9-.3-2.6-1s-1.1-1.7-1.2-2.9v-1.3l.1-1.4c.1-1.1.4-2.1.8-3 .5-.9 1-1.5 1.7-2s1.5-.7 2.4-.7c1.1 0 2 .3 2.7.9.7.7 1 1.6 1.1 2.7h-1c-.1-.9-.3-1.7-.8-2.2s-1.2-.7-2-.7c-1.1 0-2 .5-2.7 1.4s-1.1 2-1.3 3.5l-.1 1.6v.7c0 .6.2 1.2.4 1.8.2.5.5.9 1 1.2.4.3.9.4 1.4.4.9 0 1.7-.3 2.3-.8s1-1.3 1.3-2.4h1zm11.3-7.9l-3.9.2-1.3 11.1-1 .1 1.3-11.1-3.9.2.1-.9 8.8-.5-.1.9zm7 7.2l-5.2.3-1.6 3.4-1.1.1 5.7-12.2 1-.1 3 11.7-1 .1-.8-3.3zm-4.8-.5l4.6-.3-1.5-6.3-3.1 6.6zm8.8 3.6l1.4-11.9 3.3-.2c1.1 0 2 .2 2.6.7s.9 1.2.9 2.2c0 .6-.2 1.2-.6 1.7s-.9.9-1.5 1.1c.6.1 1 .5 1.4.9.3.5.5 1.1.5 1.7 0 1-.4 1.9-1.1 2.5-.7.7-1.7 1-2.9 1.1l-4 .2zm1.7-5.8l-.6 4.9 2.8-.2c.9 0 1.6-.3 2.1-.8.6-.5.9-1.1.9-1.9 0-.7-.2-1.2-.6-1.6s-1-.6-1.7-.6l-2.9.2zm0-.8l2.6-.1c.8-.1 1.5-.3 2-.8.5-.4.8-1 .8-1.7.1-1.4-.8-2-2.4-2l-2.5.1-.5 4.5zm12 .3l-1.6.1-.6 5.6-1 .1 1.4-11.9 1-.1-.6 5.5 1.5-.1 5.1-5.7 1.3-.1-5.4 6.2 4.3 5.7-1.1.1-4.3-5.4zm11.8.6l4.1-7.8 1.2-.1-5.5 10.2c-.4.9-.9 1.5-1.4 1.8-.5.4-1 .6-1.7.6-.2 0-.5 0-.8-.1l.1-.8h.7c.4 0 .7-.2 1.1-.4.3-.3.6-.7 1-1.3l.5-1-3.3-8.5 1.1-.1 2.9 7.5z" fill="#fff"/><path d="M63.4 159l-5.6.3-1.8 15.9-3.8.2 1.8-15.9-5.5.3.4-3.2 15-.9-.5 3.3zm6 3.3l2.5-.1c2.1-.1 3.7.3 5 1.3 1.2 1 1.8 2.4 1.8 4.2 0 1.9-.7 3.4-2.1 4.7s-3.2 1.9-5.4 2l-7 .4 2.2-19.1 3.8-.2-.8 6.8zm-.4 3.2l-.7 5.9 2.8-.1c1-.1 1.9-.4 2.5-1 .7-.6 1.1-1.4 1.2-2.4.1-.8-.1-1.4-.6-1.9s-1.1-.7-2-.7l-3.2.2zm14.3 8.1l-3.8.2 2.2-19.1 3.8-.2-2.2 19.1zm17.9-12.2c1-.1 1.7-.4 2.3-.9.6-.5.9-1.2.9-2 0-.7-.2-1.2-.6-1.6-.5-.4-1.1-.5-1.9-.5s-1.5.3-2 .7c-.6.4-.9 1-1 1.7l-3.8.2c0-1.1.3-2 .9-2.9s1.4-1.5 2.5-2.1c1.1-.5 2.2-.8 3.5-.9 1.3-.1 2.4.1 3.4.5s1.8 1 2.3 1.7c.5.8.7 1.7.7 2.7 0 1.8-1.1 3.3-3.3 4.5.9.4 1.5.9 2 1.6.4.7.7 1.5.6 2.5 0 1.2-.3 2.2-.9 3.1-.6.9-1.5 1.6-2.7 2.1s-2.4.8-3.8.9c-1.2.1-2.3-.1-3.3-.5s-1.8-1-2.3-1.8c-.6-.8-.9-1.7-.9-2.8l3.8-.2c0 .7.3 1.3.8 1.7s1.2.6 2 .6c1 0 1.8-.3 2.5-.8s1.1-1.2 1.1-2c.1-.9-.1-1.6-.6-2s-1.1-.6-2-.6l-2.5.1.4-3.1 1.9.1zm19.8 6.2l-6.6.4-1.7 4-4.2.2 9-19.5 3.5-.2 4.7 18.7-3.9.2-.8-3.8zm-5.2-2.9l4.6-.3-1.5-7-3.1 7.3zm26-10.2l-8.2.5-.4 3.7 2.5-.1c2.1-.1 3.7.3 5 1.3 1.2 1 1.8 2.4 1.8 4.2 0 1.9-.7 3.4-2.1 4.7-1.4 1.2-3.2 1.9-5.4 2l-7 .4 2.2-19.1 12-.7-.4 3.1zm-9 7.3l-.7 5.9 2.8-.1c1-.1 1.9-.4 2.5-1 .7-.6 1.1-1.4 1.2-2.4.1-.8-.1-1.4-.6-1.9s-1.1-.7-2-.7l-3.2.2zm24.8-11.4l4-.2-2.2 19.1-3.8.2 1.4-12.4-8.6 12.9-3.9.2 2.2-19.1 3.8-.2-1.4 12.5 8.5-13zm10 11.7l-.8 6.7-3.8.2 2.2-19.1 6.6-.4c2-.1 3.7.4 4.9 1.4 1.2 1.1 1.8 2.5 1.8 4.4s-.7 3.4-2.1 4.6-3.1 1.8-5.3 2l-3.5.2zm.3-3.2l3.2-.2c1-.1 1.9-.4 2.5-.9.6-.6 1-1.3 1.1-2.2s-.1-1.6-.6-2.1-1.1-.8-1.9-.8l-3.6.2-.7 6zm20.7 4.8l-6.6.3-1.7 4-4.2.2 9-19.5 3.5-.2 4.7 18.7-3.9.2-.8-3.7zm-5.2-2.9l4.6-.3-1.5-7-3.1 7.3zm24.1-2.6l-7.3.4-.6 5.1 8.5-.5-.4 3.2-12.3.7 2.2-19.1 12.3-.7-.4 3.2-8.5.5-.5 4.6 7.3-.4-.3 3zm8.9-11.2l-1.8 15.9 5.1-.3 1.8-15.9 3.8-.2-1.8 15.9 5-.3 1.8-15.9 3.8-.2-2.2 19.1-21.5 1.2 2.2-19.1 3.8-.2zm24.3 5.4l2.5-.1c2.1-.1 3.7.3 5 1.3 1.2 1 1.8 2.4 1.8 4.2 0 1.9-.7 3.4-2.1 4.7-1.4 1.2-3.2 1.9-5.4 2l-7 .4 2.2-19.1 3.8-.2-.8 6.8zm-.3 3.2l-.7 5.9 2.8-.1c1-.1 1.9-.4 2.5-1 .7-.6 1.1-1.4 1.2-2.4.1-.8-.1-1.4-.6-1.9s-1.1-.7-2-.7l-3.2.2zm18.5 7.9l2.2-19.1 5.9-.3c2.2-.1 3.9.2 5 1.1 1.2.8 1.7 2 1.7 3.6 0 1.9-1 3.4-3.1 4.4.8.2 1.4.7 1.8 1.4.5.7.7 1.5.7 2.5 0 1.8-.6 3.2-1.9 4.3-1.2 1.1-2.9 1.7-5.1 1.8l-7.2.3zm4.8-8.5l-.6 5.2 3-.2c.9-.1 1.7-.3 2.3-.8s.9-1.1 1-1.9c.1-.8-.1-1.4-.4-1.8-.4-.4-.9-.6-1.7-.6l-3.6.1zm.3-2.8l2.6-.1c1-.1 1.7-.3 2.3-.8.6-.5.9-1.1 1-1.9.1-1.5-.7-2.3-2.5-2.2l-2.8.1-.6 4.9zm17.1-2.1l2.5-.1c2.1-.1 3.7.3 5 1.3 1.2 1 1.8 2.4 1.8 4.2 0 1.9-.7 3.4-2.1 4.7-1.4 1.2-3.2 1.9-5.4 2l-7 .4 2.2-19.1 3.8-.2-.8 6.8zm-.4 3.2l-.7 5.9 2.8-.1c1-.1 1.9-.4 2.5-1 .7-.6 1.1-1.4 1.2-2.4.1-.8-.1-1.4-.6-1.9s-1.1-.7-2-.7l-3.2.2zm14.3 8.1l-3.8.2 2.2-19.1 3.8-.2-2.2 19.1zm16.8-19.9l4-.2-2.2 19.1-3.8.2 1.4-12.4-8.6 12.9-3.9.2 2.2-19.1 3.8-.2-1.4 12.5 8.5-13zm19.2 2.1l-8.2.5L321 160l-3.8.2 2.2-19.1 12-.7-.4 3.2zm5.5 8.8l-.8 6.7-3.8.2 2.2-19.1 6.6-.4c2-.1 3.7.4 4.9 1.4 1.2 1.1 1.8 2.5 1.8 4.4s-.7 3.4-2.1 4.6c-1.3 1.2-3.1 1.8-5.3 2l-3.5.2zm.4-3.2l3.2-.2c1-.1 1.9-.4 2.5-.9.6-.6 1-1.3 1.1-2.2s-.1-1.6-.6-2.1-1.1-.8-1.9-.8l-3.6.2-.7 6zm17.4-3.3l2.5-.1c2.1-.1 3.7.3 5 1.3 1.2 1 1.8 2.4 1.8 4.2 0 1.9-.7 3.4-2.1 4.7s-3.2 1.9-5.4 2l-7 .4 2.2-19.1 3.8-.2-.8 6.8zm-.4 3.2l-.7 5.9 2.8-.1c1-.1 1.9-.4 2.5-1 .7-.6 1.1-1.4 1.2-2.4.1-.8-.1-1.4-.6-1.9s-1.1-.7-2-.7l-3.2.2zm14.3 8.1l-3.8.2 2.2-19.1 3.8-.2-2.2 19.1zm9.7-19.5l-1.8 15.9 5.1-.3 1.8-15.9 3.8-.2-1.8 15.9 5-.3 1.8-15.9 3.8-.2-2.2 19.1-21.5 1.2 2.2-19.1 3.8-.2zm19.3 16.1c-.1-.6.1-1.1.5-1.5s.8-.6 1.4-.7c.6 0 1 .1 1.5.4.4.3.7.8.7 1.4.1.6-.1 1.1-.5 1.5s-.8.7-1.4.7-1.1-.1-1.5-.5c-.5-.3-.7-.7-.7-1.3zm4-4.3l-3.1.2 1.1-13.2 3.9-.2-1.9 13.2z" fill="#fdc000"/><defs><path id="a" d="M434.6 140.4H-.5L15.4-15h435.1z"/></defs><clipPath id="b"><use xlink:href="#a" overflow="visible"/></clipPath><path clip-path="url(#b)" fill="#d71015" d="M387.5 37l-131.3 7.4 4.2-42.1h-.7L7 16.7l-17.4 43.7 9.3-.5-5.7 56.9 388.5-21.9h.6l5.9-58z"/><path d="M22.1 96.4l3.3-2.9L29 73.7l21.4-1.2L47.7 95l3.1-.2-1.6 13.6-9 .5.8-6.4-12 .7-.8 6.4-9 .5 1.5-13.6 1.4-.1zm9.7-.6l6.9-.4 1.8-15.3-4 .2-2.4 13.4-2.3 2.1zm46.1-24.9l-.9 7.2-13.2.8-.5 4.2 9.4-.5-.8 6.8-9.4.5-.5 4.2 13.6-.8-.8 7.2-22.6 1.3 3.5-29.7 22.2-1.2zm8.2 29l-9 .5 3.5-29.7 9-.5-1.3 11.2 6.9-.4 1.3-11.2 9-.5-3.4 29.7-9 .5 1.3-11.2-6.9.4-1.4 11.2zm40.1-22.5l4.5 4.4-1.3 11-5.6 4.9-19.3 1.1 3.5-29.7 9-.5-1 9.4 10.2-.6zm-5.4 12.5l.5-4.2-.8-.8-5.5.3-.7 5.9 5.5-.3 1-.9zm34.8-23.5l-.9 7.2-12.2.7-2.5 22.5-9 .5 3.5-29.7 21.1-1.2zM171 95l1.6-13.6h-.2l-9.3 14-8.4.5 3.5-29.7 9-.5-1.6 13.6h.2l9.3-14 8.4-.5-3.5 29.7-9 .5zm36.8-13.9l.8-6.8 6.9-.4 1.8-1.6.2-1.5-.7-.8-12.4.7.9-7.2 17.8-1 3.9 3.8-.9 7.8-2.8 2.5 2.8 2.8-1 8.5-4.8 4.3-18.9 1.1.8-7.2 13.4-.8 1-.9.3-2.3-1.3-1.4-7.8.4zm29.1 4.3l-2.6 6-9.2.5L238 61.7l11.7-.7 6 29.1-9.2.5-1.2-5.8-8.4.6zm3.2-7.4l3.8-.2-1.1-6.5-2.7 6.7zM257 90.1l3.5-29.7 23.3-1.3-.9 7.2-14.3.8-.4 3.4 11.3-.6 4.5 4.4-1.1 9.7-5.6 4.9-20.3 1.2zm17.3-9l.4-3.4-.7-.8-6.5.4-.6 5.1 6.5-.4.9-.9zm19.9-.9l-.9 7.8-9 .5 3.5-29.7 19.7-1.1 4.5 4.4-1.5 12.5-5.6 5-10.7.6zm7.6-15l-5.9.3-.9 7.5 5.9-.3 1-.9.6-5.7-.7-.9zm16.9 15.5l-2.6 6-9.2.5L319.8 57l11.7-.7 6 29.1-9.2.5-1.2-5.8-8.4.6zm3.1-7.3l3.8-.2-1.1-6.5-2.7 6.7zm26.5-18l21.8-1.2-3.5 29.7-9 .5 2.6-22.5-4.4.3-3.1 17.8-6 5.4-8 .5.9-7.2 2.1-.1 3-2.5 3.6-20.7z" opacity=".15"/><path d="M19.1 93.4l3.3-2.9L26 70.7l21.4-1.2L44.7 92l3.1-.2-1.6 13.6-9 .5.8-6.4-12 .7-.8 6.4-9 .5 1.5-13.6 1.4-.1zm9.7-.6l6.9-.4 1.8-15.3-4 .2-2.4 13.4-2.3 2.1zm46.1-24.9l-.9 7.2-13.2.8-.5 4.2 9.4-.5-.8 6.8-9.4.5-.5 4.2 13.6-.8-.8 7.2-22.6 1.3 3.5-29.7 22.2-1.2zm8.2 29l-9 .5 3.5-29.7 9-.5-1.3 11.2 6.9-.4 1.3-11.2 9-.5L99.1 96l-9 .5 1.3-11.2-6.9.4-1.4 11.2zm40.1-22.5l4.5 4.4-1.3 11-5.6 4.9-19.3 1.1 3.5-29.7 9-.5-1 9.4 10.2-.6zm-5.4 12.5l.5-4.2-.8-.8-5.5.3-.7 5.9 5.5-.3 1-.9zm34.8-23.5l-.9 7.2-12.2.7-2.5 22.5-9 .5 3.5-29.7 21.1-1.2zM168 92l1.6-13.6h-.2l-9.3 14-8.4.5 3.5-29.7 9-.5-1.6 13.6h.2l9.3-14 8.4-.5-3.5 29.7-9 .5zm36.8-13.9l.8-6.8 6.9-.4 1.8-1.6.2-1.5-.7-.8-12.4.7.9-7.2 17.8-1 3.9 3.8-.9 7.8-2.8 2.5 2.8 2.8-1 8.5-4.8 4.3-18.9 1.1.8-7.2 13.4-.8 1-.9.3-2.3-1.3-1.4-7.8.4zm29.1 4.3l-2.6 6-9.2.5L235 58.7l11.7-.7 6 29.1-9.2.5-1.2-5.8-8.4.6zm3.2-7.4l3.8-.2-1.1-6.5-2.7 6.7zM254 87.1l3.5-29.7 23.3-1.3-.9 7.2-14.3.8-.4 3.4 11.3-.6 4.5 4.4-1.1 9.7-5.6 4.9-20.3 1.2zm17.3-9l.4-3.4-.7-.8-6.5.4-.6 5.1 6.5-.4.9-.9zm19.9-.9l-.9 7.8-9 .5 3.5-29.7 19.7-1.1 4.5 4.4-1.5 12.5-5.6 5-10.7.6zm7.6-15l-5.9.3-.9 7.5 5.9-.3 1-.9.6-5.7-.7-.9zm16.9 15.5l-2.6 6-9.2.5L316.8 54l11.7-.7 6 29.1-9.2.5-1.2-5.8-8.4.6zm3.1-7.3l3.8-.2-1.1-6.5-2.7 6.7zm26.5-18l21.8-1.2-3.5 29.7-9 .5 2.6-22.5-4.4.3-3.1 17.8-6 5.4-8 .5.9-7.2 2.1-.1 3-2.5 3.6-20.7z" fill="#fff"/><g opacity=".15"><path d="M36.8 42.9l-.4 3.9-4.6.2 1.7-14.8 9.9-.6 2.3 2.2L45 40l-2.8 2.5-5.4.4zm3.8-7.5l-2.9.2-.4 3.7 2.9-.2.5-.4.3-2.9-.4-.4zm18.1-4.6l-.4 3.6-6.6.4-.3 2.1 4.7-.3-.3 3.4-4.8.3-.3 2.1 6.8-.4-.4 3.6-11.3.6 1.7-14.8 11.2-.6zm3.1 8.6l.4-3.4 3.5-.2.9-.8.1-.7-.4-.4-6.2.4.4-3.6 8.9-.5 2 1.9-.5 3.9-1.4 1.2 1.4 1.4-.5 4.2L68 45l-9.4.5.4-3.6 6.7-.4.5-.4.1-1.2-.7-.7-3.8.2zm24.6-10.2l-6.9 15.1-4.5.3 1.5-3.2H75L72.1 30l4.5-.3 1.7 7.6h.1l3.4-7.9 4.6-.2zm1.8-.1l10.9-.6-1.7 14.8-4.5.3 1.3-11.2-2.2.1-1.6 8.9-3 2.7-4 .2.4-3.6 1-.1 1.5-1.2 1.9-10.3zm22.3 3.4l2.2 2.2-.7 5.5-2.8 2.5-9.6.6 1.7-14.8 4.5-.3-.6 4.7 5.3-.4zm-2.7 6.2l.3-2.1-.4-.4-2.7.2-.4 3 2.7-.2.5-.5z"/><path d="M114.2 42.3l1.3-11.2-3.5.2.4-3.6 11.4-.7-.4 3.6-3.5.2-1.3 11.2-4.4.3zm12.4-3.6l-1.3 3-4.6.3 6.5-15.1 5.9-.3 3 14.6-4.6.3-.6-2.9-4.3.1zm1.6-3.7l1.9-.1-.6-3.2-1.3 3.3zm9.8 6l1.3-11.2-3.5.2.4-3.6 11.4-.7-.4 3.6-3.5.2-1.3 11.2-4.4.3zm32.8-16.6l-6.9 15.1-4.5.3 1.5-3.2-1.6.1-2.8-11.4 4.5-.3 1.7 7.6h.1l3.4-7.9 4.6-.3zm12-.7l-.4 3.6-6.1.3-1.3 11.3-4.5.3 1.7-14.8 10.6-.7zm2.1 11.7l-1.3 3-4.6.3 6.5-15.1 5.9-.3 3 14.6-4.6.3-.6-2.9-4.3.1zm1.6-3.7l1.9-.1-.6-3.2-1.3 3.3zm9.9 2.4l1.6-1.5 1.8-9.9 10.7-.6-1.3 11.2 1.6-.1-.8 6.8-4.5.3.4-3.2-6 .3-.4 3.2-4.5.3.8-6.8h.6zm4.8-.3l3.5-.2.9-7.6-2 .1-1.2 6.7-1.2 1zm16.1-.3l-1.3 3-4.6.3 6.5-15.1 5.9-.3 3 14.6-4.6.3-.6-2.9-4.3.1zm1.6-3.7l1.9-.1-.6-3.2-1.3 3.3zm13.4-8.9l10.9-.6-1.7 14.8-4.5.3 1.3-11.2-2.2.1-1.6 8.9-3 2.7-4 .2.4-3.6 1-.1 1.5-1.2 1.9-10.3z"/></g><g fill="#fff"><path d="M33.8 39.9l-.4 3.9-4.6.2 1.7-14.8 9.9-.6 2.3 2.2L42 37l-2.8 2.5-5.4.4zm3.8-7.5l-2.9.2-.4 3.7 2.9-.2.5-.4.3-2.9-.4-.4zm18.1-4.6l-.4 3.6-6.6.4-.3 2.1 4.7-.3-.3 3.4-4.8.3-.3 2.1 6.8-.4-.4 3.6-11.3.6 1.7-14.8 11.2-.6zm3.1 8.6l.4-3.4 3.5-.2.9-.8.1-.7-.4-.4-6.2.4.4-3.6 8.9-.5 2 1.9-.5 3.9-1.4 1.2 1.4 1.4-.5 4.2L65 42l-9.4.5.4-3.6 6.7-.4.5-.4.1-1.2-.7-.7-3.8.2zm24.6-10.2l-6.9 15.1-4.5.3 1.5-3.2H72L69.1 27l4.5-.3 1.7 7.6h.1l3.4-7.9 4.6-.2zm1.8-.1l10.9-.6-1.7 14.8-4.5.3 1.3-11.2-2.2.1-1.6 8.9-3 2.7-4 .2.4-3.6 1-.1 1.5-1.2 1.9-10.3zm22.3 3.4l2.2 2.2-.7 5.5-2.8 2.5-9.6.6 1.7-14.8 4.5-.3-.6 4.7 5.3-.4zm-2.7 6.2l.3-2.1-.4-.4-2.7.2-.4 3 2.7-.2.5-.5z"/><path d="M111.2 39.3l1.3-11.2-3.5.2.4-3.6 11.4-.7-.4 3.6-3.5.2-1.3 11.2-4.4.3zm12.4-3.6l-1.3 3-4.6.3 6.5-15.1 5.9-.3 3 14.6-4.6.3-.6-2.9-4.3.1zm1.6-3.7l1.9-.1-.6-3.2-1.3 3.3zm9.8 6l1.3-11.2-3.5.2.4-3.6 11.4-.7-.4 3.6-3.5.2-1.3 11.2-4.4.3zm32.8-16.6l-6.9 15.1-4.5.3 1.5-3.2-1.6.1-2.8-11.4 4.5-.3 1.7 7.6h.1l3.4-7.9 4.6-.3zm12-.7l-.4 3.6-6.1.3-1.3 11.3-4.5.3 1.7-14.8 10.6-.7zm2.1 11.7l-1.3 3-4.6.3 6.5-15.1 5.9-.3 3 14.6-4.6.3-.6-2.9-4.3.1zm1.6-3.7l1.9-.1-.6-3.2-1.3 3.3zm9.9 2.4l1.6-1.5 1.8-9.9 10.7-.6-1.3 11.2 1.6-.1-.8 6.8-4.5.3.4-3.2-6 .3-.4 3.2-4.5.3.8-6.8h.6zm4.8-.3l3.5-.2.9-7.6-2 .1-1.2 6.7-1.2 1zm16.1-.3l-1.3 3-4.6.3 6.5-15.1 5.9-.3 3 14.6-4.6.3-.6-2.9-4.3.1zm1.6-3.7l1.9-.1-.6-3.2-1.3 3.3zm13.4-8.9l10.9-.6-1.7 14.8-4.5.3 1.3-11.2-2.2.1-1.6 8.9-3 2.7-4 .2.4-3.6 1-.1 1.5-1.2 1.9-10.3z"/></g></svg>