<?xml version="1.0" encoding="utf-8"?>
<!-- Generator: Adobe Illustrator 20.1.0, SVG Export Plug-In . SVG Version: 6.00 Build 0)  -->
<svg version="1.1" class="s-1__title-svg" xmlns="http://www.w3.org/2000/svg" xmlns:xlink="http://www.w3.org/1999/xlink" x="0px" y="0px"
	 viewBox="0 0 670 264" style="enable-background:new 0 0 670 264;" xml:space="preserve">
<g id="content-3__x28_bets_x29__768-412">
</g>
<g id="content-1__x28_main_x29__768-412">
</g>
<g id="content-2__x28_rules_x29__768-412">
</g>
<g id="P_l_regestration-popup_x27_s__x28_all_steps_x29__3_">
	<g id="_x2D_--_copy">
	</g>
</g>
<g id="_x2D_-----------------------------_3_" style="display:none;">
</g>
<g id="content-3__x28_bets_x29__1000-768">
</g>
<g id="content-1__x28_main_x29__1000-768">
</g>
<g id="content-2__x28_rules_x29__1000-768">
</g>
<g id="P_l_regestration-popup_x27_s__x28_all_steps_x29__2_">
	<g id="_x2D_--_2_">
	</g>
</g>
<g id="_x2D_-----------------------------_2_" style="display:none;">
</g>
<g id="content-3__x28_bets_x29__1366-1000">
</g>
<g id="content-1__x28_main_x29__1366-1000">
</g>
<g id="content-2__x28_rules_x29__1366-1000">
</g>
<g id="P_l_regestration-popup_x27_s__x28_all_steps_x29__1_">
	<g id="_x2D_--_1_">
	</g>
</g>
<g id="_x2D_-----------------------------" style="display:none;">
</g>
<g id="content-1__x28_main_x29__1920-1366">
	<g>
		<g>
			<g>
				<polygon style="fill:#1C1F21;" points="666.6,129.9 663.7,158.2 656.3,232.1 655.3,232.1 161.4,260.3 160.4,260.4 170.7,158.3 
					171.7,158.2 665.6,130 				"/>
			</g>
		</g>
		<g>
			<path style="fill:#FFFFFF;" d="M209.7,179.8l2.3,10.2l4.7-10.6l3.8-0.2l-1.6,14.3l-2.9,0.2l0.5-4.1l1-6.4l-4.8,10.7l-2,0.1
				l-2.5-10.6l-0.5,7l-0.4,3.8l-2.9,0.2L206,180L209.7,179.8z"/>
			<path style="fill:#FFFFFF;" d="M225.9,184l1.9-0.1c1.6-0.1,2.8,0.2,3.7,1s1.4,1.8,1.4,3.1c0,1.4-0.5,2.6-1.6,3.5
				c-1,0.9-2.4,1.4-4.1,1.5l-5.3,0.3l1.6-14.3l2.9-0.2L225.9,184z M225.6,186.3l-0.5,4.4l2.1-0.1c0.8,0,1.4-0.3,1.9-0.8
				c0.5-0.5,0.8-1,0.9-1.8c0.1-0.6-0.1-1.1-0.4-1.4c-0.3-0.3-0.8-0.5-1.5-0.5L225.6,186.3z M236.3,192.5l-2.9,0.2l1.6-14.3l2.9-0.2
				L236.3,192.5z"/>
			<path style="fill:#FFFFFF;" d="M257.2,194.8l-2.7,0.2l0.4-3.5l-8.3,0.5l-0.4,3.5l-2.7,0.2l0.5-5.9l0.9,0c1.2-0.9,2-2.4,2.5-4.6
				l0.2-0.8l1.2-6.7l9.1-0.5l-1.4,12l1.6-0.1L257.2,194.8z M248.4,189.5l5.3-0.4l1.1-9.6l-3.5,0.2l-0.9,4.9
				C250,186.7,249.3,188.3,248.4,189.5z"/>
			<path style="fill:#FFFFFF;" d="M268.2,187.7l-5,0.3l-1.3,3l-3.1,0.2l6.8-14.6l2.6-0.2l3.5,14l-2.9,0.2L268.2,187.7z M264.3,185.5
				l3.4-0.2l-1.1-5.2L264.3,185.5z"/>
			<path style="fill:#FFFFFF;" d="M282.7,183.6l-5.4,0.3l-0.4,3.9l6.4-0.4l-0.3,2.4l-9.3,0.5l1.6-14.3l9.2-0.5l-0.3,2.4l-6.4,0.4
				l-0.4,3.4l5.5-0.3L282.7,183.6z"/>
			<path style="fill:#FFFFFF;" d="M290.5,175.1l2.3,10.2l4.7-10.6l3.8-0.2l-1.6,14.3l-2.9,0.2l0.5-4.1l1-6.4l-4.8,10.7l-2,0.1
				l-2.5-10.6l-0.5,7l-0.4,3.8l-2.9,0.2l1.6-14.3L290.5,175.1z"/>
			<path style="fill:#FFFFFF;" d="M317.4,187.8l-9.5,0.5l0.2-2.1l4.8-5c1-1,1.6-1.9,1.9-2.5c0.3-0.6,0.4-1.2,0.3-1.8
				c-0.2-0.8-0.7-1.2-1.5-1.2c-0.6,0-1.1,0.3-1.5,0.7s-0.6,1.1-0.7,1.8l-2.7,0.2c0-0.9,0.2-1.7,0.7-2.5s1-1.4,1.8-1.8
				c0.8-0.4,1.6-0.7,2.5-0.7c1.3-0.1,2.4,0.3,3.1,0.9c0.8,0.7,1.2,1.6,1.1,2.8c0,1.3-0.7,2.8-2.1,4.3l-1.3,1.4l-2.8,2.8l5.9-0.3
				L317.4,187.8z"/>
			<path style="fill:#FFFFFF;" d="M324.4,187.6c-1.2,0-2.2-0.3-2.9-1.1c-0.7-0.8-1.1-1.9-1.2-3.3c0-0.5,0-1,0-1.4l0.2-2.7
				c0.2-2,0.8-3.5,1.6-4.5c0.9-1.1,2-1.6,3.5-1.7c1.2,0,2.2,0.3,2.9,1.1c0.7,0.8,1.1,1.9,1.2,3.3c0,0.5,0,1,0,1.5l-0.3,2.7
				c-0.2,2-0.8,3.5-1.6,4.5C327,187,325.9,187.5,324.4,187.6z M327.1,177.1c-0.1-1.3-0.6-1.9-1.5-1.9c-1.3,0-2.1,1.1-2.3,3.1
				l-0.3,3.3c-0.1,0.7-0.1,1.3-0.1,1.7c0,1.3,0.5,2,1.5,2c1.3,0,2.1-1.1,2.3-3.2l0.3-3.5C327.1,178,327.1,177.5,327.1,177.1z"/>
			<path style="fill:#FFFFFF;" d="M336.1,186.9c-1.2,0-2.2-0.3-2.9-1.1c-0.7-0.8-1.1-1.9-1.2-3.3c0-0.5,0-1,0-1.4l0.2-2.7
				c0.2-2,0.7-3.5,1.6-4.5c0.9-1.1,2-1.6,3.5-1.7c1.2,0,2.2,0.3,2.9,1.1s1.1,1.9,1.2,3.3c0,0.5,0,1,0,1.5l-0.3,2.7
				c-0.2,2-0.8,3.5-1.6,4.5S337.6,186.9,336.1,186.9z M338.8,176.4c-0.1-1.3-0.6-1.9-1.5-1.9c-1.3,0-2.1,1.1-2.3,3.1l-0.3,3.3
				c-0.1,0.7-0.1,1.3-0.1,1.7c0,1.3,0.5,2,1.5,2c1.3,0,2.1-1.1,2.3-3.2l0.3-3.5C338.8,177.3,338.8,176.8,338.8,176.4z"/>
			<path style="fill:#FFFFFF;" d="M352.1,180.8l-0.6,5.1l-2.9,0.2l1.6-14.3l5-0.3c1.5-0.1,2.8,0.3,3.7,1.1c0.9,0.8,1.4,1.9,1.3,3.3
				c0,1.4-0.5,2.5-1.5,3.4c-1,0.9-2.3,1.4-4,1.5L352.1,180.8z M352.4,178.4l2.4-0.1c0.8,0,1.4-0.3,1.9-0.7c0.5-0.4,0.8-1,0.8-1.7
				c0.1-0.7-0.1-1.2-0.4-1.6s-0.8-0.6-1.4-0.6l-2.7,0.1L352.4,178.4z"/>
			<path style="fill:#FFFFFF;" d="M367.8,177.4l3.3-6.9l3.2-0.2l-6,11.8c-0.5,1.1-1.1,1.9-1.7,2.4c-0.6,0.5-1.4,0.8-2.3,0.8l-1.1,0
				l0.1-2.4l0.7,0c0.4,0,0.8-0.1,1.1-0.4c0.3-0.2,0.6-0.6,0.8-1.1l0.3-0.6l-3.6-9.9l2.9-0.2L367.8,177.4z"/>
			<path style="fill:#FFFFFF;" d="M385,172l-6.1,0.4l-0.3,2.8l1.9-0.1c1.6-0.1,2.8,0.2,3.7,1s1.4,1.8,1.4,3.1c0,1.4-0.5,2.6-1.6,3.5
				c-1,0.9-2.4,1.4-4.1,1.5l-5.3,0.3l1.6-14.3l9-0.5L385,172z M378.2,177.5l-0.5,4.4l2.1-0.1c0.8,0,1.4-0.3,1.9-0.8
				c0.5-0.5,0.8-1,0.9-1.8c0-0.6-0.1-1.1-0.4-1.4c-0.3-0.3-0.8-0.5-1.5-0.5L378.2,177.5z"/>
			<path style="fill:#FFFFFF;" d="M400.2,168.8l-1.6,14.3l-2.9,0.2l1.4-11.9l-3.6,0.2l-1,6.3c-0.3,2-0.9,3.4-1.7,4.3
				c-0.8,0.9-1.8,1.4-3.1,1.5l-1.2,0.1l0.2-2.4l0.4-0.1c0.8-0.1,1.4-0.6,1.9-1.3c0.5-0.7,0.8-1.9,0.9-3.4l0.1-1l0.9-6.3L400.2,168.8
				z"/>
			<path style="fill:#FFFFFF;" d="M410.6,176.2l-5.4,0.3l-0.4,3.9l6.4-0.4l-0.3,2.4l-9.3,0.5l1.6-14.3l9.2-0.5l-0.3,2.4l-6.4,0.4
				l-0.4,3.4l5.5-0.3L410.6,176.2z"/>
			<path style="fill:#FFFFFF;" d="M422.9,167.5l3-0.2l-1.6,14.3l-2.9,0.2l1.1-9.3l-6.5,9.6l-3,0.2l1.6-14.3l2.9-0.2l-1.1,9.3
				L422.9,167.5z M423.9,163.6c0,0.9-0.3,1.6-0.9,2.2c-0.6,0.6-1.4,0.9-2.4,0.9c-0.9,0-1.6-0.2-2.2-0.7c-0.6-0.5-0.9-1.2-1-2.1
				l1.9-0.1c0,0.9,0.4,1.3,1.2,1.2c0.4,0,0.8-0.1,1-0.4c0.2-0.3,0.4-0.6,0.4-1L423.9,163.6z"/>
			<path style="fill:#FFFFFF;" d="M443.4,180.5l-1.2,0.1l0.8-6.9l-7.8,0.5l-0.8,6.9l-1.2,0.1l1.6-14.3l1.2-0.1l-0.7,6.4l7.8-0.5
				l0.7-6.4l1.2-0.1L443.4,180.5z"/>
			<path style="fill:#FFFFFF;" d="M455.6,175.8l-6.2,0.4l-1.9,4.1l-1.3,0.1l6.9-14.6l1.1-0.1l3.6,14l-1.2,0.1L455.6,175.8z
				 M449.9,175.1l5.5-0.3l-1.8-7.6L449.9,175.1z"/>
			<path style="fill:#FFFFFF;" d="M475.9,178.7l-1.2,0.1l1.5-13.3l-7.8,0.4l-1.5,13.3l-1.2,0.1l1.6-14.3l10.1-0.6L475.9,178.7z"/>
			<path style="fill:#FFFFFF;" d="M488.4,171.1l-6.4,0.4l-0.7,5.8l7.4-0.4l-0.1,1l-8.6,0.5l1.6-14.3l8.6-0.5l-0.1,1l-7.4,0.4
				l-0.6,5.4l6.4-0.4L488.4,171.1z"/>
			<path style="fill:#FFFFFF;" d="M493.5,171.8l-0.7,5.8l-1.2,0.1l1.6-14.3l4.6-0.3c1.3,0,2.4,0.3,3.1,1c0.8,0.7,1.1,1.7,1.1,2.9
				c-0.1,1.3-0.5,2.4-1.4,3.2c-0.9,0.8-2.1,1.3-3.6,1.3L493.5,171.8z M493.6,170.8l3.5-0.2c1.1-0.1,2-0.4,2.7-1s1.1-1.4,1.1-2.4
				c0-1-0.2-1.7-0.8-2.2c-0.5-0.5-1.3-0.8-2.3-0.7l-3.6,0.2L493.6,170.8z"/>
			<path style="fill:#FFFFFF;" d="M504.1,177l1.6-14.3l4-0.2c1.4,0,2.4,0.2,3.1,0.8c0.7,0.6,1.1,1.5,1,2.6c0,0.7-0.3,1.4-0.7,2
				c-0.4,0.6-1,1-1.8,1.4c0.7,0.2,1.2,0.5,1.6,1.1s0.6,1.3,0.6,2c0,1.2-0.5,2.3-1.3,3c-0.9,0.8-2,1.2-3.5,1.3L504.1,177z
				 M506.1,170.1l-0.7,5.8l3.4-0.2c1-0.1,1.9-0.4,2.5-1c0.7-0.6,1-1.3,1.1-2.3c0-0.8-0.2-1.5-0.7-1.9c-0.5-0.5-1.2-0.7-2-0.7
				L506.1,170.1z M506.2,169l3.1-0.2c1-0.1,1.8-0.4,2.4-0.9c0.6-0.5,0.9-1.2,1-2.1c0.1-1.7-0.9-2.5-2.9-2.4l-3,0.2L506.2,169z"/>
			<path style="fill:#FFFFFF;" d="M521.6,170.9l5-9.4l1.5-0.1l-6.6,12.2c-0.5,1-1.1,1.8-1.6,2.2s-1.2,0.7-2,0.7c-0.3,0-0.6,0-1-0.1
				l0.2-1c0.3,0,0.5,0,0.8,0c0.5,0,0.9-0.2,1.3-0.5c0.4-0.3,0.8-0.8,1.2-1.6l0.6-1.2l-4-10.2l1.3-0.1L521.6,170.9z"/>
			<path style="fill:#FFFFFF;" d="M538.6,175.2c-1.3,0.1-2.4-0.3-3.2-1.2c-0.8-0.8-1.3-2-1.5-3.5c-0.1-0.5-0.1-1.2,0-1.9l-2.5,0.1
				l-0.8,6.8l-1.2,0.1l1.6-14.3l1.2-0.1l-0.8,6.6l2.5-0.1l0.1-0.5c0.2-1.3,0.5-2.4,1.1-3.4s1.3-1.8,2.1-2.3c0.8-0.5,1.8-0.8,2.8-0.9
				c0.9,0,1.6,0.1,2.3,0.5c0.7,0.4,1.2,0.9,1.6,1.7c0.4,0.8,0.7,1.6,0.7,2.5c0.1,0.6,0.1,1.1,0,1.6l-0.1,1.5
				c-0.1,1.4-0.5,2.5-1.1,3.6s-1.3,1.8-2.1,2.4C540.6,174.9,539.7,175.2,538.6,175.2z M543.6,165.6c0-0.8-0.2-1.5-0.5-2.1
				c-0.3-0.6-0.7-1.1-1.2-1.4c-0.5-0.3-1.1-0.5-1.8-0.4c-1.3,0-2.4,0.6-3.2,1.6c-0.9,1-1.4,2.4-1.6,4c-0.2,1.3-0.2,2.3-0.2,3
				c0.1,1.3,0.4,2.3,1,3c0.6,0.7,1.5,1,2.5,1c1.3,0,2.4-0.6,3.3-1.6c0.8-1,1.4-2.4,1.6-4C543.6,167.2,543.6,166.2,543.6,165.6z"/>
			<path style="fill:#FFFFFF;" d="M563,169.2c-0.2,1.5-0.9,2.7-1.8,3.6s-2.2,1.4-3.6,1.4c-1.3,0-2.3-0.3-3.1-1.2
				c-0.8-0.8-1.3-2-1.4-3.5c0-0.5-0.1-1,0-1.5l0.2-1.7c0.1-1.3,0.5-2.5,1-3.5c0.5-1,1.2-1.8,2.1-2.4c0.8-0.6,1.8-0.9,2.8-0.9
				c1.4-0.1,2.4,0.3,3.2,1.1c0.8,0.8,1.2,1.9,1.3,3.3l-1.2,0.1c-0.1-1.1-0.4-2-1-2.6c-0.6-0.6-1.4-0.9-2.4-0.8
				c-1.3,0-2.4,0.6-3.2,1.6c-0.8,1-1.4,2.4-1.5,4.2l-0.2,2l0,0.9c0,0.8,0.2,1.5,0.5,2.1c0.3,0.6,0.7,1.1,1.2,1.4
				c0.5,0.3,1.1,0.5,1.7,0.4c1.1,0,2.1-0.4,2.8-1c0.7-0.7,1.2-1.6,1.5-2.8L563,169.2z"/>
			<path style="fill:#FFFFFF;" d="M576.5,159.6l-4.7,0.3l-1.5,13.3l-1.2,0.1l1.5-13.3l-4.7,0.3l0.1-1l10.6-0.6L576.5,159.6z"/>
			<path style="fill:#FFFFFF;" d="M584.9,168.4l-6.2,0.4l-1.9,4.1l-1.3,0.1l6.9-14.6l1.1-0.1l3.6,14l-1.2,0.1L584.9,168.4z
				 M579.2,167.7l5.5-0.3l-1.8-7.6L579.2,167.7z"/>
			<path style="fill:#FFFFFF;" d="M589.7,172.1l1.6-14.3l4-0.2c1.4,0,2.4,0.2,3.1,0.8c0.7,0.6,1.1,1.5,1,2.6c0,0.7-0.3,1.4-0.7,2
				c-0.4,0.6-1,1-1.8,1.4c0.7,0.2,1.2,0.5,1.6,1.1c0.4,0.6,0.6,1.3,0.6,2c0,1.2-0.5,2.3-1.3,3c-0.9,0.8-2,1.2-3.5,1.3L589.7,172.1z
				 M591.7,165.1L591,171l3.4-0.2c1-0.1,1.9-0.4,2.5-1c0.7-0.6,1-1.3,1.1-2.3c0-0.8-0.2-1.5-0.7-1.9c-0.5-0.5-1.2-0.7-2-0.7
				L591.7,165.1z M591.8,164.1l3.1-0.2c1-0.1,1.8-0.4,2.4-0.9c0.6-0.5,0.9-1.2,1-2.1c0.1-1.7-0.9-2.5-2.9-2.4l-3,0.2L591.8,164.1z"
				/>
			<path style="fill:#FFFFFF;" d="M606.1,164.5l-1.9,0.1l-0.8,6.7l-1.2,0.1l1.6-14.3l1.2-0.1l-0.8,6.6l1.8-0.1l6.1-6.9l1.6-0.1
				l-6.5,7.4l5.2,6.9l-1.4,0.1L606.1,164.5z"/>
			<path style="fill:#FFFFFF;" d="M620.3,165.2l5-9.4l1.5-0.1l-6.6,12.2c-0.5,1-1.1,1.8-1.6,2.2s-1.2,0.7-2,0.7c-0.3,0-0.6,0-1-0.1
				l0.2-1c0.3,0,0.5,0,0.8,0c0.5,0,0.9-0.2,1.3-0.5c0.4-0.3,0.8-0.8,1.2-1.6l0.6-1.2l-4-10.2l1.3-0.1L620.3,165.2z"/>
		</g>
		<g>
			<path style="fill:#FDC000;" d="M219,212.6l-6.7,0.4l-2.2,19.1l-4.6,0.3l2.2-19.1l-6.7,0.4l0.5-3.8l18-1L219,212.6z"/>
			<path style="fill:#FDC000;" d="M226.2,216.6l3-0.2c2.5-0.1,4.5,0.4,6,1.6s2.2,2.9,2.2,5c0,2.3-0.9,4.1-2.5,5.6
				c-1.6,1.5-3.8,2.3-6.5,2.4l-8.4,0.5l2.6-22.9l4.6-0.3L226.2,216.6z M225.8,220.4l-0.8,7.1l3.3-0.2c1.2-0.1,2.2-0.5,3.1-1.2
				c0.8-0.7,1.3-1.7,1.4-2.8c0.1-1-0.2-1.7-0.7-2.3c-0.6-0.5-1.4-0.8-2.4-0.8L225.8,220.4z M243,230.2l-4.6,0.3l2.6-22.9l4.6-0.3
				L243,230.2z"/>
			<path style="fill:#FDC000;" d="M264.4,215.5c1.2-0.1,2.1-0.4,2.7-1.1c0.7-0.6,1.1-1.4,1.1-2.4c0.1-0.8-0.2-1.4-0.8-1.9
				c-0.6-0.4-1.3-0.6-2.3-0.6c-0.9,0-1.8,0.3-2.5,0.8c-0.7,0.5-1.1,1.2-1.2,2.1l-4.6,0.3c0-1.3,0.4-2.5,1.1-3.5s1.7-1.8,3-2.5
				c1.3-0.6,2.7-1,4.1-1c1.5-0.1,2.9,0.1,4.1,0.6s2.1,1.2,2.7,2.1c0.6,0.9,0.9,2,0.9,3.2c0,2.2-1.3,4-4,5.4c1,0.4,1.8,1.1,2.3,1.9
				c0.5,0.9,0.8,1.9,0.8,3c0,1.4-0.4,2.6-1.1,3.7c-0.7,1.1-1.8,1.9-3.2,2.6c-1.4,0.6-2.9,1-4.6,1.1c-1.5,0.1-2.8-0.1-4-0.6
				c-1.2-0.5-2.1-1.2-2.8-2.1c-0.7-0.9-1-2.1-1.1-3.4l4.6-0.3c0,0.9,0.3,1.5,0.9,2s1.4,0.7,2.4,0.7c1.2,0,2.2-0.4,3-1
				c0.8-0.6,1.3-1.4,1.4-2.4c0.1-1.1-0.1-1.9-0.7-2.4c-0.5-0.5-1.3-0.7-2.4-0.7l-3,0.2l0.4-3.7L264.4,215.5z"/>
			<path style="fill:#FDC000;" d="M288.2,222.9l-7.9,0.5l-2.1,4.8l-5,0.3L284,205l4.2-0.2l5.6,22.5l-4.7,0.3L288.2,222.9z
				 M282,219.5l5.5-0.3l-1.8-8.4L282,219.5z"/>
			<path style="fill:#FDC000;" d="M313.1,207.2l-9.8,0.6l-0.5,4.4l3-0.2c2.5-0.1,4.5,0.4,6,1.6s2.2,2.9,2.2,5c0,2.3-0.9,4.1-2.5,5.6
				c-1.6,1.5-3.8,2.3-6.5,2.4l-8.4,0.5l2.6-22.9l14.4-0.8L313.1,207.2z M302.3,216l-0.8,7.1l3.3-0.2c1.2-0.1,2.2-0.5,3.1-1.2
				c0.8-0.7,1.3-1.7,1.4-2.8c0.1-1-0.2-1.7-0.7-2.3c-0.6-0.5-1.4-0.8-2.4-0.8L302.3,216z"/>
			<path style="fill:#FDC000;" d="M332.1,202.3l4.7-0.3l-2.6,22.9l-4.6,0.3l1.7-14.9l-10.4,15.4l-4.7,0.3l2.6-22.9l4.6-0.3l-1.7,15
				L332.1,202.3z"/>
			<path style="fill:#FDC000;" d="M344.1,216.3l-0.9,8.1l-4.6,0.3l2.6-22.9l8-0.4c2.5-0.1,4.4,0.4,5.9,1.7s2.2,3,2.1,5.2
				c0,2.2-0.9,4.1-2.5,5.5c-1.6,1.4-3.7,2.2-6.4,2.4L344.1,216.3z M344.5,212.5l3.8-0.2c1.2-0.1,2.2-0.4,3-1.1
				c0.8-0.7,1.2-1.6,1.3-2.7c0.1-1.1-0.1-1.9-0.7-2.6c-0.5-0.6-1.3-0.9-2.3-0.9l-4.3,0.2L344.5,212.5z"/>
			<path style="fill:#FDC000;" d="M369.3,218.2l-7.9,0.5l-2.1,4.8l-5,0.3l10.8-23.4l4.2-0.2l5.6,22.5l-4.7,0.3L369.3,218.2z
				 M363,214.8l5.5-0.3l-1.8-8.4L363,214.8z"/>
			<path style="fill:#FDC000;" d="M392,211.7l-8.7,0.5l-0.7,6.2l10.2-0.6l-0.4,3.8l-14.8,0.9l2.6-22.9l14.8-0.9l-0.5,3.8l-10.2,0.6
				l-0.6,5.5l8.7-0.5L392,211.7z"/>
			<path style="fill:#FDC000;" d="M402.7,198.2l-2.2,19.1l6.1-0.4l2.2-19.1l4.6-0.3l-2.2,19.1l6-0.3l2.2-19.1l4.6-0.3l-2.6,22.9
				l-25.8,1.5l2.6-22.9L402.7,198.2z"/>
			<path style="fill:#FDC000;" d="M431.9,204.7l3-0.2c2.5-0.1,4.5,0.4,6,1.6c1.5,1.2,2.2,2.9,2.2,5c0,2.3-0.9,4.1-2.5,5.6
				c-1.6,1.5-3.8,2.3-6.5,2.4l-8.4,0.5l2.6-22.9l4.6-0.3L431.9,204.7z M431.5,208.6l-0.8,7.1l3.3-0.2c1.2-0.1,2.2-0.5,3.1-1.2
				c0.8-0.7,1.3-1.7,1.4-2.8c0.1-1-0.2-1.7-0.7-2.3c-0.6-0.5-1.4-0.8-2.4-0.8L431.5,208.6z"/>
			<path style="fill:#FDC000;" d="M453.7,218.1l2.6-22.9l7.1-0.4c2.6-0.1,4.6,0.3,6,1.3c1.4,1,2.1,2.4,2.1,4.4
				c0,2.3-1.2,4.1-3.7,5.3c0.9,0.3,1.7,0.8,2.2,1.6c0.5,0.8,0.8,1.8,0.8,3c0,2.2-0.8,3.9-2.2,5.1c-1.5,1.3-3.5,2-6.2,2.1
				L453.7,218.1z M459.4,207.8l-0.7,6.2l3.6-0.2c1.1-0.1,2-0.4,2.8-1c0.7-0.6,1.1-1.4,1.2-2.3c0.1-0.9-0.1-1.7-0.5-2.2
				c-0.4-0.5-1.1-0.7-2.1-0.7L459.4,207.8z M459.8,204.5l3.1-0.1c1.2-0.1,2.1-0.4,2.8-1c0.7-0.6,1.1-1.3,1.2-2.2
				c0.2-1.8-0.9-2.7-3-2.6l-3.4,0.2L459.8,204.5z"/>
			<path style="fill:#FDC000;" d="M480.3,201.9l3-0.2c2.5-0.1,4.5,0.4,6,1.6c1.5,1.2,2.2,2.9,2.2,5c0,2.3-0.9,4.1-2.5,5.6
				c-1.6,1.5-3.8,2.3-6.5,2.4l-8.4,0.5l2.6-22.9l4.6-0.3L480.3,201.9z M479.9,205.8l-0.8,7.1l3.3-0.2c1.2-0.1,2.2-0.5,3.1-1.2
				c0.8-0.7,1.3-1.7,1.4-2.8c0.1-1-0.2-1.7-0.7-2.3c-0.6-0.5-1.4-0.8-2.4-0.8L479.9,205.8z M497,215.6l-4.6,0.3l2.6-22.9l4.6-0.3
				L497,215.6z"/>
			<path style="fill:#FDC000;" d="M517.1,191.6l4.7-0.3l-2.6,22.9l-4.6,0.3l1.7-14.9L506,215l-4.7,0.3l2.6-22.9l4.6-0.3l-1.7,15
				L517.1,191.6z"/>
			<path style="fill:#FDC000;" d="M540.3,194.1l-9.9,0.6l-2.2,19.1l-4.6,0.3l2.6-22.9l14.4-0.8L540.3,194.1z"/>
			<path style="fill:#FDC000;" d="M546.9,204.7l-0.9,8.1l-4.6,0.3l2.6-22.9l8-0.4c2.5-0.1,4.4,0.4,5.9,1.7c1.5,1.3,2.2,3,2.1,5.2
				c0,2.2-0.9,4.1-2.5,5.5c-1.6,1.4-3.7,2.2-6.4,2.4L546.9,204.7z M547.3,200.8l3.8-0.2c1.2-0.1,2.2-0.4,3-1.1
				c0.8-0.7,1.2-1.6,1.3-2.7c0.1-1.1-0.1-1.9-0.7-2.6c-0.5-0.6-1.3-0.9-2.3-0.9l-4.3,0.2L547.3,200.8z"/>
			<path style="fill:#FDC000;" d="M568.1,196.9l3-0.2c2.5-0.1,4.5,0.4,6,1.6c1.5,1.2,2.2,2.9,2.2,5c0,2.3-0.9,4.1-2.5,5.6
				c-1.6,1.5-3.8,2.3-6.5,2.4l-8.4,0.5l2.6-22.9l4.6-0.3L568.1,196.9z M567.7,200.7l-0.8,7.1l3.3-0.2c1.2-0.1,2.2-0.5,3.1-1.2
				c0.8-0.7,1.3-1.7,1.4-2.8c0.1-1-0.2-1.7-0.7-2.3c-0.6-0.5-1.4-0.8-2.4-0.8L567.7,200.7z M584.9,210.5l-4.6,0.3l2.6-22.9l4.6-0.3
				L584.9,210.5z"/>
			<path style="fill:#FDC000;" d="M596.5,187l-2.2,19.1l6.1-0.4l2.2-19.1l4.6-0.3l-2.2,19.1l6-0.3l2.2-19.1l4.6-0.3l-2.6,22.9
				l-25.8,1.5l2.6-22.9L596.5,187z"/>
			<path style="fill:#FDC000;" d="M619.7,206.4c-0.1-0.7,0.1-1.3,0.6-1.8c0.4-0.5,1-0.8,1.7-0.8c0.7-0.1,1.3,0.1,1.8,0.5
				c0.5,0.4,0.8,1,0.9,1.6c0.1,0.7-0.1,1.3-0.6,1.8c-0.4,0.5-1,0.8-1.7,0.9c-0.7,0-1.3-0.2-1.8-0.6
				C620,207.6,619.7,207.1,619.7,206.4z M624.5,201.2l-3.7,0.2l1.3-15.9l4.7-0.3L624.5,201.2z"/>
		</g>
	</g>
	<polygon style="fill:#D71015;" points="587.8,55.5 578.9,143.1 577.9,143.2 3.7,175.6 2.6,175.6 17.9,24.6 18.9,24.6 393.5,3.2 
		394.5,3.1 388.1,66.8 586.8,55.6 	"/>
	<g>
		<g style="opacity:0.15;">
			<path d="M32.8,144.2l5-4.5l5.5-30.1l32.6-1.9l-4.1,34.2l4.8-0.3l-2.4,20.6l-13.7,0.8l1.2-9.7l-18.2,1l-1.2,9.7l-13.7,0.8
				l2.3-20.6L32.8,144.2z M47.5,143.3l10.5-0.6l2.8-23.2l-6.1,0.3L51,140.2L47.5,143.3z"/>
			<path d="M117.7,105.3l-1.3,11l-20.1,1.1l-0.8,6.5l14.4-0.8l-1.2,10.3l-14.4,0.8l-0.8,6.5l20.8-1.2l-1.2,11l-34.5,2l5.3-45.2
				L117.7,105.3z"/>
			<path d="M130.2,149.5l-13.7,0.8l5.3-45.2l13.7-0.8l-2,17.1l10.5-0.6l2-17.1l13.7-0.8l-5.3,45.2l-13.7,0.8l2-17.1l-10.5,0.6
				L130.2,149.5z"/>
			<path d="M191.4,115.2l6.9,6.7l-2,16.8l-8.5,7.5l-29.4,1.7l5.3-45.2l13.7-0.8l-1.7,14.2L191.4,115.2z M183.1,134.3l0.8-6.5
				l-1.2-1.2l-8.3,0.5l-1.1,9l8.3-0.5L183.1,134.3z"/>
			<path d="M236.2,98.6l-1.3,11l-18.5,1.1l-4,34.2l-13.7,0.8l5.3-45.2L236.2,98.6z"/>
			<path d="M259.6,142.1l2.4-20.6l-0.3,0l-14.2,21.3l-12.8,0.7l5.3-45.2l13.7-0.8l-2.4,20.6l0.3,0l14.2-21.3l12.8-0.7l-5.3,45.2
				L259.6,142.1z"/>
			<path d="M315.7,121l1.2-10.3l10.5-0.6l2.8-2.4l0.3-2.3l-1.1-1.2l-18.8,1.1l1.3-11l27.2-1.6l6,5.7l-1.4,11.9l-4.3,3.8l4.3,4.2
				l-1.6,12.9l-7.4,6.5l-28.8,1.6l1.2-11l20.4-1.2l1.5-1.4l0.4-3.6l-2-2.1L315.7,121z"/>
			<path d="M360,127.4l-3.9,9.2l-14.1,0.8l19.7-46l17.9-1l9.1,44.4l-14.1,0.8l-1.9-8.9L360,127.4z M364.8,116.2l5.8-0.3l-1.7-9.8
				L364.8,116.2z"/>
			<path d="M390.6,134.6l5.3-45.2l35.5-2l-1.3,11l-21.7,1.2l-0.6,5.2l17.3-1l6.8,6.7l-1.7,14.8l-8.5,7.5L390.6,134.6z M416.9,120.9
				l0.6-5.2l-1.1-1.2l-9.9,0.6l-1,7.7l9.9-0.6L416.9,120.9z"/>
			<path d="M447.3,119.5l-1.4,11.9l-13.7,0.8l5.3-45.2l30-1.7l6.9,6.7l-2.2,19l-8.5,7.5L447.3,119.5z M458.8,96.8l-8.9,0.5
				l-1.3,11.3l8.9-0.5l1.5-1.4l1-8.7L458.8,96.8z"/>
			<path d="M484.6,120.3l-3.9,9.2l-14.1,0.8l19.7-46l17.9-1l9.1,44.4l-14.1,0.8l-1.9-8.9L484.6,120.3z M489.4,109.1l5.8-0.3
				l-1.7-9.8L489.4,109.1z"/>
			<path d="M529.8,81.8l33.2-1.9l-5.3,45.2l-13.7,0.8l4-34.2l-6.7,0.4l-4.8,27.2l-9.2,8.2l-12.1,0.7l1.3-11l3.2-0.2l4.5-3.8
				L529.8,81.8z"/>
		</g>
		<g>
			<g>
				<path style="fill:#FFFFFF;" d="M29.8,141.2l5-4.5l5.5-30.1l32.6-1.9l-4.1,34.2l4.8-0.3l-2.4,20.6l-13.7,0.8l1.2-9.7l-18.2,1
					l-1.2,9.7l-13.7,0.8l2.3-20.6L29.8,141.2z M44.5,140.3l10.5-0.6l2.8-23.2l-6.1,0.3L48,137.2L44.5,140.3z"/>
				<path style="fill:#FFFFFF;" d="M114.7,102.3l-1.3,11l-20.1,1.1l-0.8,6.5l14.4-0.8l-1.2,10.3l-14.4,0.8l-0.8,6.5l20.8-1.2
					l-1.2,11l-34.5,2l5.3-45.2L114.7,102.3z"/>
				<path style="fill:#FFFFFF;" d="M127.2,146.5l-13.7,0.8l5.3-45.2l13.7-0.8l-2,17.1l10.5-0.6l2-17.1l13.7-0.8l-5.3,45.2l-13.7,0.8
					l2-17.1l-10.5,0.6L127.2,146.5z"/>
				<path style="fill:#FFFFFF;" d="M188.4,112.2l6.9,6.7l-2,16.8l-8.5,7.5l-29.4,1.7l5.3-45.2l13.7-0.8l-1.7,14.2L188.4,112.2z
					 M180.1,131.3l0.8-6.5l-1.2-1.2l-8.3,0.5l-1.1,9l8.3-0.5L180.1,131.3z"/>
				<path style="fill:#FFFFFF;" d="M233.2,95.6l-1.3,11l-18.5,1.1l-4,34.2l-13.7,0.8l5.3-45.2L233.2,95.6z"/>
				<path style="fill:#FFFFFF;" d="M256.6,139.1l2.4-20.6l-0.3,0l-14.2,21.3l-12.8,0.7l5.3-45.2l13.7-0.8l-2.4,20.6l0.3,0l14.2-21.3
					l12.8-0.7l-5.3,45.2L256.6,139.1z"/>
				<path style="fill:#FFFFFF;" d="M312.7,118l1.2-10.3l10.5-0.6l2.8-2.4l0.3-2.3l-1.1-1.2l-18.8,1.1l1.3-11l27.2-1.6l6,5.7
					l-1.4,11.9l-4.3,3.8l4.3,4.2l-1.6,12.9l-7.4,6.5l-28.8,1.6l1.2-11l20.4-1.2l1.5-1.4l0.4-3.6l-2-2.1L312.7,118z"/>
				<path style="fill:#FFFFFF;" d="M357,124.4l-3.9,9.2l-14.1,0.8l19.7-46l17.9-1l9.1,44.4l-14.1,0.8l-1.9-8.9L357,124.4z
					 M361.8,113.2l5.8-0.3l-1.7-9.8L361.8,113.2z"/>
				<path style="fill:#FFFFFF;" d="M387.6,131.6l5.3-45.2l35.5-2l-1.3,11l-21.7,1.2l-0.6,5.2l17.3-1l6.8,6.7l-1.7,14.8l-8.5,7.5
					L387.6,131.6z M413.9,117.9l0.6-5.2l-1.1-1.2l-9.9,0.6l-1,7.7l9.9-0.6L413.9,117.9z"/>
				<path style="fill:#FFFFFF;" d="M444.3,116.5l-1.4,11.9l-13.7,0.8l5.3-45.2l30-1.7l6.9,6.7l-2.2,19l-8.5,7.5L444.3,116.5z
					 M455.8,93.8l-8.9,0.5l-1.3,11.3l8.9-0.5l1.5-1.4l1-8.7L455.8,93.8z"/>
				<path style="fill:#FFFFFF;" d="M481.6,117.3l-3.9,9.2l-14.1,0.8l19.7-46l17.9-1l9.1,44.4l-14.1,0.8l-1.9-8.9L481.6,117.3z
					 M486.4,106.1l5.8-0.3l-1.7-9.8L486.4,106.1z"/>
				<path style="fill:#FFFFFF;" d="M526.8,78.8l33.2-1.9l-5.3,45.2l-13.7,0.8l4-34.2l-6.7,0.4l-4.8,27.2l-9.2,8.2l-12.1,0.7l1.3-11
					l3.2-0.2l4.5-3.8L526.8,78.8z"/>
			</g>
		</g>
	</g>
	<g>
		<g style="opacity:0.15;">
			<path d="M53.7,63.2l-0.7,6l-6.9,0.4L48.8,47l15-0.9l3.4,3.3L66.1,59l-4.3,3.8L53.7,63.2z M59.5,51.8L55,52.1l-0.7,5.6l4.5-0.3
				l0.7-0.7l0.5-4.4L59.5,51.8z"/>
			<path d="M87.2,44.8l-0.6,5.5l-10.1,0.6L76,54.1l7.2-0.4l-0.6,5.2l-7.2,0.4l-0.4,3.2l10.4-0.6l-0.6,5.5l-17.3,1l2.7-22.6
				L87.2,44.8z"/>
			<path d="M91.8,58l0.6-5.2l5.3-0.3l1.4-1.2l0.1-1.1l-0.5-0.6l-9.4,0.5l0.6-5.5l13.6-0.8l3,2.9l-0.7,6l-2.1,1.9l2.1,2.1l-0.8,6.5
				l-3.7,3.3l-14.4,0.8l0.6-5.5l10.2-0.6l0.7-0.7l0.2-1.8l-1-1.1L91.8,58z"/>
			<path d="M129.3,42.4l-10.5,23l-6.9,0.4l2.3-4.9l-2.4,0.1l-4.3-17.4l6.9-0.4l2.6,11.5l0.2,0l5.2-12L129.3,42.4z"/>
			<path d="M132,42.2l16.6-0.9L146,63.9l-6.9,0.4l2-17.1l-3.4,0.2l-2.4,13.6l-4.6,4.1l-6.1,0.3l0.6-5.5l1.6-0.1l2.3-1.9L132,42.2z"
				/>
			<path d="M166,47.3l3.4,3.3l-1,8.4l-4.2,3.8l-14.7,0.8l2.7-22.6l6.9-0.4l-0.8,7.1L166,47.3z M161.9,56.9l0.4-3.2l-0.6-0.6
				l-4.2,0.2l-0.5,4.5l4.2-0.2L161.9,56.9z"/>
			<path d="M171.7,62.4l2-17.1l-5.3,0.3l0.6-5.5l17.4-1l-0.6,5.5l-5.3,0.3l-2,17.1L171.7,62.4z"/>
			<path d="M190.6,56.8l-1.9,4.6l-7,0.4l9.8-23l8.9-0.5l4.5,22.2l-7,0.4l-0.9-4.4L190.6,56.8z M193,51.2l2.9-0.2l-0.9-4.9L193,51.2z
				"/>
			<path d="M208,60.3l2-17.1l-5.3,0.3l0.6-5.5l17.4-1l-0.6,5.5l-5.3,0.3l-2,17.1L208,60.3z"/>
			<path d="M257.9,35l-10.5,23l-6.9,0.4l2.3-4.9l-2.4,0.1l-4.3-17.4l6.9-0.4l2.6,11.5l0.2,0l5.2-12L257.9,35z"/>
			<path d="M276.3,34l-0.6,5.5l-9.3,0.5l-2,17.1l-6.9,0.4l2.7-22.6L276.3,34z"/>
			<path d="M279.4,51.8l-1.9,4.6l-7,0.4l9.8-23l8.9-0.5l4.5,22.2l-7,0.4l-0.9-4.4L279.4,51.8z M281.8,46.2l2.9-0.2l-0.9-4.9
				L281.8,46.2z"/>
			<path d="M296.9,49.8l2.5-2.2l2.7-15.1l16.3-0.9l-2,17.1l2.4-0.1l-1.2,10.3l-6.9,0.4l0.6-4.8l-9.1,0.5l-0.6,4.8l-6.8,0.4l1.2-10.3
				L296.9,49.8z M304.3,49.4l5.3-0.3l1.4-11.6l-3,0.2L306,47.8L304.3,49.4z"/>
			<path d="M328.8,48.9l-1.9,4.6l-7,0.4l9.8-23l8.9-0.5l4.5,22.2l-7,0.4l-0.9-4.4L328.8,48.9z M331.2,43.3l2.9-0.2l-0.9-4.9
				L331.2,43.3z"/>
			<path d="M351.7,29.7l16.6-0.9l-2.7,22.6l-6.9,0.4l2-17.1l-3.4,0.2L355,48.4l-4.6,4.1l-6.1,0.3l0.6-5.5l1.6-0.1l2.3-1.9
				L351.7,29.7z"/>
		</g>
		<g>
			<g>
				<path style="fill:#FFFFFF;" d="M50.7,60.2l-0.7,6l-6.9,0.4L45.8,44l15-0.9l3.4,3.3L63.1,56l-4.3,3.8L50.7,60.2z M56.5,48.8
					L52,49.1l-0.7,5.6l4.5-0.3l0.7-0.7l0.5-4.4L56.5,48.8z"/>
				<path style="fill:#FFFFFF;" d="M84.2,41.8l-0.6,5.5l-10.1,0.6L73,51.1l7.2-0.4l-0.6,5.2l-7.2,0.4l-0.4,3.2l10.4-0.6l-0.6,5.5
					l-17.3,1l2.7-22.6L84.2,41.8z"/>
				<path style="fill:#FFFFFF;" d="M88.8,55l0.6-5.2l5.3-0.3l1.4-1.2l0.1-1.1l-0.5-0.6l-9.4,0.5l0.6-5.5l13.6-0.8l3,2.9l-0.7,6
					l-2.1,1.9l2.1,2.1l-0.8,6.5l-3.7,3.3l-14.4,0.8l0.6-5.5l10.2-0.6l0.7-0.7l0.2-1.8l-1-1.1L88.8,55z"/>
				<path style="fill:#FFFFFF;" d="M126.3,39.4l-10.5,23l-6.9,0.4l2.3-4.9l-2.4,0.1l-4.3-17.4l6.9-0.4l2.6,11.5l0.2,0l5.2-12
					L126.3,39.4z"/>
				<path style="fill:#FFFFFF;" d="M129,39.2l16.6-0.9L143,60.9l-6.9,0.4l2-17.1l-3.4,0.2l-2.4,13.6l-4.6,4.1l-6.1,0.3l0.6-5.5
					l1.6-0.1l2.3-1.9L129,39.2z"/>
				<path style="fill:#FFFFFF;" d="M163,44.3l3.4,3.3l-1,8.4l-4.2,3.8l-14.7,0.8l2.7-22.6l6.9-0.4l-0.8,7.1L163,44.3z M158.9,53.9
					l0.4-3.2l-0.6-0.6l-4.2,0.2l-0.5,4.5l4.2-0.2L158.9,53.9z"/>
				<path style="fill:#FFFFFF;" d="M168.7,59.4l2-17.1l-5.3,0.3l0.6-5.5l17.4-1l-0.6,5.5l-5.3,0.3l-2,17.1L168.7,59.4z"/>
				<path style="fill:#FFFFFF;" d="M187.6,53.8l-1.9,4.6l-7,0.4l9.8-23l8.9-0.5l4.5,22.2l-7,0.4l-0.9-4.4L187.6,53.8z M190,48.2
					l2.9-0.2l-0.9-4.9L190,48.2z"/>
				<path style="fill:#FFFFFF;" d="M205,57.3l2-17.1l-5.3,0.3l0.6-5.5l17.4-1l-0.6,5.5l-5.3,0.3l-2,17.1L205,57.3z"/>
				<path style="fill:#FFFFFF;" d="M254.9,32l-10.5,23l-6.9,0.4l2.3-4.9l-2.4,0.1l-4.3-17.4l6.9-0.4l2.6,11.5l0.2,0l5.2-12L254.9,32
					z"/>
				<path style="fill:#FFFFFF;" d="M273.3,31l-0.6,5.5l-9.3,0.5l-2,17.1l-6.9,0.4l2.7-22.6L273.3,31z"/>
				<path style="fill:#FFFFFF;" d="M276.4,48.8l-1.9,4.6l-7,0.4l9.8-23l8.9-0.5l4.5,22.2l-7,0.4l-0.9-4.4L276.4,48.8z M278.8,43.2
					l2.9-0.2l-0.9-4.9L278.8,43.2z"/>
				<path style="fill:#FFFFFF;" d="M293.9,46.8l2.5-2.2l2.7-15.1l16.3-0.9l-2,17.1l2.4-0.1l-1.2,10.3l-6.9,0.4l0.6-4.8l-9.1,0.5
					l-0.6,4.8l-6.8,0.4l1.2-10.3L293.9,46.8z M301.3,46.4l5.3-0.3l1.4-11.6l-3,0.2L303,44.8L301.3,46.4z"/>
				<path style="fill:#FFFFFF;" d="M325.8,45.9l-1.9,4.6l-7,0.4l9.8-23l8.9-0.5l4.5,22.2l-7,0.4l-0.9-4.4L325.8,45.9z M328.2,40.3
					l2.9-0.2l-0.9-4.9L328.2,40.3z"/>
				<path style="fill:#FFFFFF;" d="M348.7,26.7l16.6-0.9l-2.7,22.6l-6.9,0.4l2-17.1l-3.4,0.2L352,45.4l-4.6,4.1l-6.1,0.3l0.6-5.5
					l1.6-0.1l2.3-1.9L348.7,26.7z"/>
			</g>
		</g>
	</g>
</g>
<g id="content-3__x28_bets_x29__1920-1366">
</g>
<g id="content-2__x28_rules_x29__1920-1366">
</g>
<g id="P_l_regestration-popup_x27_s__x28_all_steps_x29_" style="display:none;">
	<g id="_x2D_--" style="display:inline;">
	</g>
</g>
<g id="_x2D_-----------------------------_4_" style="display:none;">
</g>
<g id="menu__x28_active_x29_" style="display:none;">
</g>
<g id="_x2D_-----------------------------_1_">
</g>
<g id="lines-GUI_5_">
</g>
<g id="footer_1_">
</g>
<g id="GUI" style="display:none;">
</g>
</svg>
