<svg xmlns="http://www.w3.org/2000/svg" viewBox="0 0 324 124"><path fill="#d71015" d="M321.7 3.7L311.5 105l-1 .1-308 17.7-1 .1L11.8 21.6l1-.1L320.7 3.8z"/><path d="M94.6 41.4L82.8 67.3l-7.7.4 2.6-5.6-2.7.3-4.8-19.6 7.7-.4 2.9 13h.2l5.9-13.5 7.7-.5zm20.6-1.2l-.7 6.2-10.4.6-2.2 19.2-7.7.4 3-25.4 18-1zm5 19.9l-2.2 5.2-7.9.5 11.1-25.9 10.1-.6 5.1 24.9-7.9.5-1-5-7.3.4zm2.7-6.2l3.2-.2-1-5.5-2.2 5.7zm15.6 4.1l2.8-2.5 3.1-16.9 18.3-1.1-2.3 19.2 2.7-.2-1.3 11.6-7.7.4.7-5.4-10.2.6-.7 5.4-7.7.4 1.3-11.6 1 .1zm8.2-.5l5.9-.3 1.6-13.1-3.4.2-2.1 11.5-2 1.7zm26.9-.4l-2.2 5.2-7.9.5 11.1-25.9 10.1-.6 5.1 24.9-7.9.5-1-5-7.3.4zm2.7-6.3l3.2-.2-1-5.5-2.2 5.7zm30.3 9.4l1.3-11.6h-.2l-8 12-7.2.4 3-25.4 7.7-.4-1.3 11.6h.2l8-12 7.2-.4-3 25.4-7.7.4zM203.3 33l-2.7-2.5.5-4 4.9-.3-.2 1.5.8.7 1.4-.1 1-.8.2-1.5 4.9-.3-.5 4-3.4 2.9-6.9.4zm20.6 26.2l2.2-19.2-5.9.3.7-6.2 19.6-1.1-.7 6.2-5.9.3-2.2 19.2-7.8.5zm39.2-27.5l-.7 6.2-11.3.7-.4 3.6 8.1-.5-.7 5.8-8.1.5-.4 3.6 11.7-.7-.7 6.2-19.4 1.1 3-25.4 18.9-1.1zM71.2 99.1l1-9h-.1l-6.2 9.3-5.6.3 2.3-19.8 6-.3-1 9h.1l6.2-9.3 5.6-.3-2.3 19.8-6 .3zm24.9-1.5l-11.5.7-3.2-3.2 1.5-13 4-3.6 11.5-.7-.6 4.8-8.5.5-.6.6-1 9 .5.5 8.5-.5-.6 4.9zm11.4-6.5l-4.3 6.1-6.2.4 7.3-10.4-4.6-9.4 6.1-.4 2.6 5.3h.1l3.9-5.7 6.2-.4-6.9 10.1 5 9.7-6.1.4-2.9-5.7h-.2zm26.3-15.6l3.2 3.2-1.6 13.6-4 3.6-10.1.6-3.2-3.2 1.6-13.6 4-3.6 10.1-.6zm-8.3 5.8l-1.1 9.6.5.5 4.2-.2.6-.6 1.1-9.6-.5-.5-4.2.2-.6.6zm12.5 9.1l2.2-1.9 2.4-13.2 14.3-.8-1.8 15 2.1-.1-1 9-6 .3.5-4.2-8 .5-.5 4.2-6 .3 1-9 .8-.1zm6.4-.3l4.6-.3 1.2-10.2-2.7.2-1.6 8.9-1.5 1.4zm30.8-1l-1.9-4.8h-.1l-1 8.9-6 .3 2.3-19.8 6-.3 3.3 7.8h.1l5.1-8.3 6-.3-2.3 19.8-6 .3 1-8.9h-.1l-3.1 5.1-3.3.2zm21.5-1.2l-1.7 4-6.2.4 8.6-20.1 7.8-.5 4 19.4-6.1.4-.8-3.9-5.6.3zm2.1-4.9l2.5-.1-.8-4.3-1.7 4.4zm14.8 7.8l1.7-15-4.6.3.6-4.8 15.2-.9-.6 4.8-4.6.3-1.7 15-6 .3zm15.2-20.5l6-.3-.9 7.8 1 .9 3.1-.2 1-8.8 6-.3-2.3 19.8-6 .3.7-6.2-7 .4-2.9-2.8 1.3-10.6zm24 14.4l-1.7 4-6.1.4 8.6-20.1 7.8-.5 4 19.4-6.2.4-.8-3.9-5.6.3zm2.1-4.9l2.5-.1-.8-4.3-1.7 4.4zm12.7 7.9l.5-4.8 5.5-.3-.5 4.8-5.5.3zm7-11.9l-1.6 5.1-4.1.2-.4-5 1-8.2 6-.3-.9 8.2z" opacity=".15"/><path d="M91.6 38.4L79.8 64.3l-7.7.4 2.6-5.6-2.7.3-4.8-19.6 7.7-.4 2.9 13h.2l5.9-13.5 7.7-.5zm20.6-1.2l-.7 6.2-10.4.6-2.2 19.2-7.7.4 3-25.4 18-1zm5 19.9l-2.2 5.2-7.9.5 11.1-25.9 10.1-.6 5.1 24.9-7.9.5-1-5-7.3.4zm2.7-6.2l3.2-.2-1-5.5-2.2 5.7zm15.6 4.1l2.8-2.5 3.1-16.9 18.3-1.1-2.3 19.2 2.7-.2-1.3 11.6-7.7.4.7-5.4-10.2.6-.7 5.4-7.7.4 1.3-11.6 1 .1zm8.2-.5l5.9-.3 1.6-13.1-3.4.2-2.1 11.5-2 1.7zm26.9-.4l-2.2 5.2-7.9.5 11.1-25.9 10.1-.6 5.1 24.9-7.9.5-1-5-7.3.4zm2.7-6.3l3.2-.2-1-5.5-2.2 5.7zm30.3 9.4l1.3-11.6h-.2l-8 12-7.2.4 3-25.4 7.7-.4-1.3 11.6h.2l8-12 7.2-.4-3 25.4-7.7.4zM200.3 30l-2.7-2.5.5-4 4.9-.3-.2 1.5.8.7 1.4-.1 1-.8.2-1.5 4.9-.3-.5 4-3.4 2.9-6.9.4zm20.6 26.2l2.2-19.2-5.9.3.7-6.2 19.6-1.1-.7 6.2-5.9.3-2.2 19.2-7.8.5zm39.2-27.5l-.7 6.2-11.3.7-.4 3.6 8.1-.5-.7 5.8-8.1.5-.4 3.6 11.7-.7-.7 6.2-19.4 1.1 3-25.4 18.9-1.1z" fill="#fdc000"/><path d="M68.2 96.1l1-9h-.1l-6.2 9.3-5.6.3 2.3-19.8 6-.3-1 9h.1l6.2-9.3 5.6-.3-2.3 19.8-6 .3zm24.9-1.5l-11.5.7-3.2-3.2 1.5-13 4-3.6 11.5-.7-.6 4.8-8.5.5-.6.6-1 9 .5.5 8.5-.5-.6 4.9zm11.4-6.5l-4.3 6.1-6.2.4 7.3-10.4-4.6-9.4 6.1-.4 2.6 5.3h.1l3.9-5.7 6.2-.4-6.9 10.1 5 9.7-6.1.4-2.9-5.7h-.2zm26.3-15.6l3.2 3.2-1.6 13.6-4 3.6-10.1.6-3.2-3.2 1.6-13.6 4-3.6 10.1-.6zm-8.3 5.8l-1.1 9.6.5.5 4.2-.2.6-.6 1.1-9.6-.5-.5-4.2.2-.6.6zm12.5 9.1l2.2-1.9 2.4-13.2 14.3-.8-1.8 15 2.1-.1-1 9-6 .3.5-4.2-8 .5-.5 4.2-6 .3 1-9 .8-.1zm6.4-.3l4.6-.3 1.2-10.2-2.7.2-1.6 8.9-1.5 1.4zm30.8-1l-1.9-4.8h-.1l-1 8.9-6 .3 2.3-19.8 6-.3 3.3 7.8h.1l5.1-8.3 6-.3-2.3 19.8-6 .3 1-8.9h-.1l-3.1 5.1-3.3.2zm21.5-1.2l-1.7 4-6.2.4 8.6-20.1 7.8-.5 4 19.4-6.1.4-.8-3.9-5.6.3zm2.1-4.9l2.5-.1-.8-4.3-1.7 4.4zm14.8 7.8l1.7-15-4.6.3.6-4.8 15.2-.9-.6 4.8-4.6.3-1.7 15-6 .3zm15.2-20.5l6-.3-.9 7.8 1 .9 3.1-.2 1-8.8 6-.3-2.3 19.8-6 .3.7-6.2-7 .4-2.9-2.8 1.3-10.6zm24 14.4l-1.7 4-6.1.4 8.6-20.1 7.8-.5 4 19.4-6.2.4-.8-3.9-5.6.3zm2.1-4.9l2.5-.1-.8-4.3-1.7 4.4zm12.7 7.9l.5-4.8 5.5-.3-.5 4.8-5.5.3zm7-11.9l-1.6 5.1-4.1.2-.4-5 1-8.2 6-.3-.9 8.2z" fill="#fff"/></svg>