<?xml version="1.0" encoding="utf-8"?>
<!-- Generator: Adobe Illustrator 20.1.0, SVG Export Plug-In . SVG Version: 6.00 Build 0)  -->
<svg version="1.1" id="Layer_1" xmlns="http://www.w3.org/2000/svg" xmlns:xlink="http://www.w3.org/1999/xlink" x="0px" y="0px"
	 viewBox="0 0 670 110" style="enable-background:new 0 0 670 110;" xml:space="preserve">
<g>
	<g>
		<defs>
			<polygon id="SVGID_1_" points="656,136 -2,137 14,-14 671,-14 			"/>
		</defs>
		<clipPath id="SVGID_2_">
			<use xlink:href="#SVGID_1_"  style="overflow:visible;"/>
		</clipPath>
		<polygon style="clip-path:url(#SVGID_2_);fill:#D71015;" points="667.1,70.1 -8.5,109.1 2.4,42.4 678,3.4 		"/>
		<g style="clip-path:url(#SVGID_2_);">
			<g style="opacity:0.15;">
				<path d="M130.1,53.5L114.4,88l-10.3,0.6l3.5-7.4l-3.6,0.2l-6.5-26.1l10.3-0.6l3.9,17.3l0.2,0l7.8-18L130.1,53.5z"/>
				<path d="M157.6,51.9l-1,8.2l-13.9,0.8l-3,25.7l-10.3,0.6l4-33.9L157.6,51.9z"/>
				<path d="M164.2,78.4l-2.9,6.9l-10.5,0.6l14.7-34.5l13.4-0.8l6.8,33.3l-10.5,0.6l-1.4-6.7L164.2,78.4z M167.8,70l4.3-0.2
					l-1.3-7.4L167.8,70z"/>
				<path d="M188.6,75.6l3.8-3.3l4.1-22.6l24.4-1.4l-3,25.7l3.6-0.2l-1.8,15.5l-10.3,0.6l0.9-7.3l-13.7,0.8l-0.9,7.3l-10.3,0.6
					l1.8-15.5L188.6,75.6z M199.6,74.9l7.9-0.5l2.1-17.4l-4.6,0.3l-2.8,15.3L199.6,74.9z"/>
				<path d="M235.4,74.3l-2.9,6.9l-10.5,0.6l14.7-34.5l13.4-0.8l6.8,33.3l-10.5,0.6l-1.4-6.7L235.4,74.3z M239,65.9l4.3-0.2
					l-1.3-7.4L239,65.9z"/>
				<path d="M279.4,78.5l1.8-15.5l-0.2,0l-10.7,16l-9.6,0.6l4-33.9l10.3-0.6l-1.8,15.5l0.2,0l10.7-16l9.6-0.6l-4,33.9L279.4,78.5z
					 M275,42.2l-3.7-3.4l0.6-5.3l6.5-0.4l-0.2,1.9l1.1,0.9l1.9-0.1l1.3-1l0.2-1.9l6.5-0.4l-0.6,5.3l-4.5,3.9L275,42.2z"/>
				<path d="M319.1,72.2l1.3-11.6l-0.2,0l-8,12l-7.2,0.4l3-25.4l7.7-0.4l-1.3,11.6l0.2,0l8-12l7.2-0.4l-3,25.4L319.1,72.2z"/>
				<path d="M351.1,70.4l-14.7,0.8l-4.2-4.1l2-16.7l5.2-4.6l14.7-0.8l-0.7,6.2l-11,0.6l-0.8,0.8l-1.3,11.6l0.6,0.7l11-0.6
					L351.1,70.4z"/>
				<path d="M365.8,62l-5.6,7.9l-7.9,0.5l9.4-13.3l-5.9-12.1l7.9-0.5l3.3,6.8l0.2,0l5-7.3l7.9-0.5l-8.8,12.9l6.4,12.4l-7.9,0.5
					l-3.8-7.4L365.8,62z"/>
				<path d="M399.6,42l4.2,4.1l-2.1,17.4l-5.2,4.6l-12.9,0.7l-4.2-4.1l2.1-17.4l5.2-4.6L399.6,42z M388.9,49.5l-1.5,12.3l0.7,0.7
					l5.4-0.3l0.8-0.8l1.5-12.3l-0.6-0.7l-5.4,0.3L388.9,49.5z"/>
				<path d="M405,61.1l2.8-2.5l3.1-16.9l18.3-1.1l-2.3,19.2l2.7-0.2l-1.3,11.6l-7.7,0.4l0.7-5.4l-10.2,0.6l-0.7,5.4l-7.7,0.4
					l1.3-11.6L405,61.1z M413.2,60.7l5.9-0.3l1.6-13.1l-3.4,0.2l-2.1,11.5L413.2,60.7z"/>
				<path d="M452.8,59.5l-2.5-6.2l-0.2,0l-1.3,11.4l-7.7,0.4l3-25.4l7.7-0.4l4.2,10l0.2,0l6.6-10.7l7.7-0.4l-3,25.4l-7.7,0.4
					l1.3-11.4l-0.2,0l-4,6.5L452.8,59.5z"/>
				<path d="M480.5,57.9l-2.2,5.2l-7.9,0.5l11.1-25.9l10.1-0.6l5.1,24.9l-7.9,0.5l-1-5L480.5,57.9z M483.2,51.6l3.2-0.2l-1-5.5
					L483.2,51.6z"/>
				<path d="M502.2,61.7l2.2-19.2l-5.9,0.3l0.7-6.2l19.6-1.1l-0.7,6.2l-5.9,0.3l-2.2,19.2L502.2,61.7z"/>
				<path d="M521.7,35.3l7.7-0.4l-1.2,10l1.3,1.2l4-0.2l1.3-11.3l7.7-0.4l-3,25.4l-7.7,0.4l0.9-8l-9,0.5l-3.7-3.6L521.7,35.3z"/>
				<path d="M552.6,53.7l-2.2,5.2l-7.9,0.5l11.1-25.9l10.1-0.6l5.1,24.9l-7.9,0.5l-1-5L552.6,53.7z M555.3,47.4l3.2-0.2l-1-5.5
					L555.3,47.4z"/>
				<path d="M571.6,57.7l0.7-6.2l7-0.4l-0.7,6.2L571.6,57.7z M580.7,42.4l-2,6.6l-5.2,0.3l-0.5-6.5l1.2-10.5l7.7-0.4L580.7,42.4z"/>
			</g>
			<g>
				<g>
					<path style="fill:#FDC000;" d="M127.1,50.5L111.4,85l-10.3,0.6l3.5-7.4l-3.6,0.2l-6.5-26.1l10.3-0.6l3.9,17.3l0.2,0l7.8-18
						L127.1,50.5z"/>
					<path style="fill:#FDC000;" d="M154.6,48.9l-1,8.2l-13.9,0.8l-3,25.7l-10.3,0.6l4-33.9L154.6,48.9z"/>
					<path style="fill:#FDC000;" d="M161.2,75.4l-2.9,6.9l-10.5,0.6l14.7-34.5l13.4-0.8l6.8,33.3l-10.5,0.6l-1.4-6.7L161.2,75.4z
						 M164.8,67l4.3-0.2l-1.3-7.4L164.8,67z"/>
					<path style="fill:#FDC000;" d="M185.6,72.6l3.8-3.3l4.1-22.6l24.4-1.4l-3,25.7l3.6-0.2l-1.8,15.5l-10.3,0.6l0.9-7.3l-13.7,0.8
						l-0.9,7.3l-10.3,0.6l1.8-15.5L185.6,72.6z M196.6,71.9l7.9-0.5l2.1-17.4l-4.6,0.3l-2.8,15.3L196.6,71.9z"/>
					<path style="fill:#FDC000;" d="M232.4,71.3l-2.9,6.9l-10.5,0.6l14.7-34.5l13.4-0.8l6.8,33.3l-10.5,0.6l-1.4-6.7L232.4,71.3z
						 M236,62.9l4.3-0.2l-1.3-7.4L236,62.9z"/>
					<path style="fill:#FDC000;" d="M276.4,75.5l1.8-15.5l-0.2,0l-10.7,16l-9.6,0.6l4-33.9l10.3-0.6l-1.8,15.5l0.2,0l10.7-16
						l9.6-0.6l-4,33.9L276.4,75.5z M272,39.2l-3.7-3.4l0.6-5.3l6.5-0.4l-0.2,1.9l1.1,0.9l1.9-0.1l1.3-1l0.2-1.9l6.5-0.4l-0.6,5.3
						l-4.5,3.9L272,39.2z"/>
					<path style="fill:#FFFFFF;" d="M316.1,69.2l1.3-11.6l-0.2,0l-8,12l-7.2,0.4l3-25.4l7.7-0.4l-1.3,11.6l0.2,0l8-12l7.2-0.4
						l-3,25.4L316.1,69.2z"/>
					<path style="fill:#FFFFFF;" d="M348.1,67.4l-14.7,0.8l-4.2-4.1l2-16.7l5.2-4.6l14.7-0.8l-0.7,6.2l-11,0.6l-0.8,0.8l-1.3,11.6
						l0.6,0.7l11-0.6L348.1,67.4z"/>
					<path style="fill:#FFFFFF;" d="M362.8,59l-5.6,7.9l-7.9,0.5l9.4-13.3l-5.9-12.1l7.9-0.5l3.3,6.8l0.2,0l5-7.3l7.9-0.5l-8.8,12.9
						l6.4,12.4l-7.9,0.5l-3.8-7.4L362.8,59z"/>
					<path style="fill:#FFFFFF;" d="M396.6,39l4.2,4.1l-2.1,17.4l-5.2,4.6l-12.9,0.7l-4.2-4.1l2.1-17.4l5.2-4.6L396.6,39z
						 M385.9,46.5l-1.5,12.3l0.7,0.7l5.4-0.3l0.8-0.8l1.5-12.3l-0.6-0.7l-5.4,0.3L385.9,46.5z"/>
					<path style="fill:#FFFFFF;" d="M402,58.1l2.8-2.5l3.1-16.9l18.3-1.1l-2.3,19.2l2.7-0.2l-1.3,11.6l-7.7,0.4l0.7-5.4l-10.2,0.6
						l-0.7,5.4l-7.7,0.4l1.3-11.6L402,58.1z M410.2,57.7l5.9-0.3l1.6-13.1l-3.4,0.2l-2.1,11.5L410.2,57.7z"/>
					<path style="fill:#FFFFFF;" d="M449.8,56.5l-2.5-6.2l-0.2,0l-1.3,11.4l-7.7,0.4l3-25.4l7.7-0.4l4.2,10l0.2,0l6.6-10.7l7.7-0.4
						l-3,25.4l-7.7,0.4l1.3-11.4l-0.2,0l-4,6.5L449.8,56.5z"/>
					<path style="fill:#FFFFFF;" d="M477.5,54.9l-2.2,5.2l-7.9,0.5l11.1-25.9l10.1-0.6l5.1,24.9l-7.9,0.5l-1-5L477.5,54.9z
						 M480.2,48.6l3.2-0.2l-1-5.5L480.2,48.6z"/>
					<path style="fill:#FFFFFF;" d="M499.2,58.7l2.2-19.2l-5.9,0.3l0.7-6.2l19.6-1.1l-0.7,6.2l-5.9,0.3l-2.2,19.2L499.2,58.7z"/>
					<path style="fill:#FFFFFF;" d="M518.7,32.3l7.7-0.4l-1.2,10l1.3,1.2l4-0.2l1.3-11.3l7.7-0.4l-3,25.4l-7.7,0.4l0.9-8l-9,0.5
						l-3.7-3.6L518.7,32.3z"/>
					<path style="fill:#FFFFFF;" d="M549.6,50.7l-2.2,5.2l-7.9,0.5l11.1-25.9l10.1-0.6l5.1,24.9l-7.9,0.5l-1-5L549.6,50.7z
						 M552.3,44.4l3.2-0.2l-1-5.5L552.3,44.4z"/>
					<path style="fill:#FFFFFF;" d="M568.6,54.7l0.7-6.2l7-0.4l-0.7,6.2L568.6,54.7z M577.7,39.4l-2,6.6l-5.2,0.3l-0.5-6.5l1.2-10.5
						l7.7-0.4L577.7,39.4z"/>
				</g>
			</g>
		</g>
	</g>
</g>
</svg>
