<?xml version="1.0" encoding="utf-8"?>
<!-- Generator: Adobe Illustrator 21.1.0, SVG Export Plug-In . SVG Version: 6.00 Build 0)  -->
<svg version="1.1" class="s-1__title-svg--mobile" xmlns="http://www.w3.org/2000/svg" xmlns:xlink="http://www.w3.org/1999/xlink" x="0px" y="0px"
	 viewBox="0 0 400 184" style="enable-background:new 0 0 400 184;" xml:space="preserve">
<g id="title_10_">
	<g>
		<g>
			<polygon style="fill:#1C1F21;" points="398,81.3 395.9,102.8 390.2,159 389.4,159.1 13.5,180.5 12.8,180.6 20.6,102.8 
				21.4,102.8 397.3,81.3 			"/>
		</g>
		<g>
			<path style="fill:#FFFFFF;" d="M50.2,119.2l1.8,7.7l3.6-8l2.9-0.2l-1.3,10.9l-2.2,0.1l0.4-3.1l0.8-4.9l-3.7,8.1L51,130l-1.9-8.1
				l-0.4,5.4l-0.3,2.9l-2.2,0.1l1.3-10.9L50.2,119.2z"/>
			<path style="fill:#FFFFFF;" d="M62.6,122.4l1.4-0.1c1.2-0.1,2.1,0.2,2.8,0.8s1.1,1.4,1,2.4c0,1.1-0.4,2-1.2,2.7
				c-0.8,0.7-1.8,1.1-3.1,1.2l-4,0.2l1.3-10.9l2.2-0.1L62.6,122.4z M62.4,124.2l-0.4,3.4l1.6-0.1c0.6,0,1.1-0.2,1.5-0.6
				c0.4-0.3,0.6-0.8,0.7-1.4c0-0.5-0.1-0.8-0.3-1.1c-0.3-0.3-0.6-0.4-1.1-0.4L62.4,124.2z M70.5,128.9l-2.2,0.1l1.2-10.9l2.2-0.1
				L70.5,128.9z"/>
			<path style="fill:#FFFFFF;" d="M86.4,130.6l-2,0.1l0.3-2.7l-6.3,0.4l-0.3,2.7l-2.1,0.1l0.4-4.5h0.7c0.9-0.7,1.6-1.8,1.9-3.5
				l0.1-0.6l0.9-5.1l6.9-0.4l-1,9.1l1.2-0.1L86.4,130.6z M79.7,126.6l4-0.3l0.8-7.3l-2.6,0.2l-0.7,3.7
				C80.9,124.5,80.4,125.7,79.7,126.6z"/>
			<path style="fill:#FFFFFF;" d="M94.8,125.2l-3.8,0.2l-1,2.3l-2.4,0.1l5.2-11.1l2-0.1l2.7,10.7l-2.2,0.1L94.8,125.2z M91.8,123.6
				l2.6-0.2l-0.8-4L91.8,123.6z"/>
			<path style="fill:#FFFFFF;" d="M105.8,122.1l-4.1,0.2l-0.3,2.9l4.9-0.3l-0.2,1.8l-7,0.4l1.3-10.9l7-0.4l-0.2,1.8l-4.8,0.3
				l-0.3,2.6l4.2-0.2L105.8,122.1z"/>
			<path style="fill:#FFFFFF;" d="M111.7,115.6l1.8,7.7l3.6-8l2.9-0.2l-1.3,10.9l-2.2,0.1l0.4-3.1l0.8-4.9l-3.7,8.1l-1.5,0.1
				l-1.9-8.1l-0.4,5.4l-0.3,2.9l-2.2,0.1l1.3-10.9L111.7,115.6z"/>
			<path style="fill:#FFFFFF;" d="M132.2,125.3l-7.2,0.4l0.2-1.6l3.6-3.8c0.7-0.8,1.2-1.4,1.5-1.9c0.2-0.5,0.3-0.9,0.2-1.4
				c-0.1-0.6-0.5-0.9-1.1-0.9c-0.5,0-0.9,0.2-1.2,0.6s-0.5,0.8-0.5,1.4l-2.1,0.1c0-0.7,0.2-1.3,0.5-1.9s0.8-1,1.4-1.4
				c0.6-0.3,1.2-0.5,1.9-0.6c1,0,1.8,0.2,2.4,0.7c0.6,0.5,0.9,1.2,0.9,2.1c0,1-0.6,2.1-1.6,3.3l-1,1.1l-2.1,2.1l4.5-0.2L132.2,125.3
				z"/>
			<path style="fill:#FFFFFF;" d="M137.6,125.1c-0.9,0-1.7-0.2-2.2-0.8c-0.5-0.6-0.9-1.4-0.9-2.5c0-0.4,0-0.7,0-1.1l0.2-2
				c0.2-1.5,0.6-2.6,1.2-3.4c0.7-0.8,1.6-1.2,2.7-1.3c0.9,0,1.7,0.2,2.2,0.8s0.9,1.4,0.9,2.5c0,0.4,0,0.7,0,1.1l-0.2,2
				c-0.2,1.5-0.6,2.7-1.2,3.5C139.6,124.7,138.7,125.1,137.6,125.1z M139.6,117.2c-0.1-1-0.4-1.5-1.1-1.5c-1,0-1.6,0.8-1.8,2.4
				l-0.2,2.5c0,0.5-0.1,1,0,1.3c0,1,0.4,1.5,1.1,1.5c1,0,1.6-0.8,1.8-2.5l0.2-2.7C139.6,117.9,139.6,117.5,139.6,117.2z"/>
			<path style="fill:#FFFFFF;" d="M146.5,124.6c-0.9,0-1.7-0.2-2.2-0.8c-0.5-0.6-0.9-1.4-0.9-2.5c0-0.4,0-0.7,0-1.1l0.2-2
				c0.2-1.5,0.6-2.6,1.2-3.4c0.7-0.8,1.6-1.2,2.7-1.3c0.9,0,1.7,0.2,2.2,0.8c0.5,0.6,0.9,1.4,0.9,2.5c0,0.4,0,0.7,0,1.1l-0.2,2
				c-0.2,1.5-0.6,2.6-1.2,3.5C148.5,124.2,147.6,124.6,146.5,124.6z M148.5,116.6c-0.1-1-0.4-1.5-1.1-1.5c-1,0-1.6,0.8-1.8,2.4
				l-0.2,2.5c0,0.5-0.1,1,0,1.3c0,1,0.4,1.5,1.1,1.5c1,0,1.6-0.8,1.8-2.5l0.2-2.7C148.5,117.3,148.5,117,148.5,116.6z"/>
			<path style="fill:#FFFFFF;" d="M158.7,120l-0.4,3.8l-2.2,0.1l1.3-10.9l3.8-0.2c1.2-0.1,2.1,0.2,2.8,0.8c0.7,0.6,1,1.4,1,2.5
				s-0.4,1.9-1.2,2.6s-1.8,1.1-3,1.1L158.7,120z M158.9,118.1l1.8-0.1c0.6,0,1.1-0.2,1.4-0.5c0.4-0.3,0.6-0.7,0.6-1.3
				c0-0.5-0.1-0.9-0.3-1.2c-0.3-0.3-0.6-0.4-1.1-0.4l-2,0.1L158.9,118.1z"/>
			<path style="fill:#FFFFFF;" d="M170.6,117.4l2.5-5.3l2.4-0.1l-4.6,9c-0.4,0.8-0.8,1.5-1.3,1.8s-1.1,0.6-1.7,0.6h-0.8l0.1-1.8h0.5
				c0.3,0,0.6-0.1,0.9-0.3c0.2-0.2,0.4-0.4,0.6-0.8l0.3-0.5l-2.8-7.6l2.2-0.1L170.6,117.4z"/>
			<path style="fill:#FFFFFF;" d="M183.7,113.3l-4.7,0.3l-0.2,2.1l1.4-0.1c1.2-0.1,2.1,0.2,2.8,0.8c0.7,0.6,1.1,1.4,1,2.4
				c0,1.1-0.4,2-1.2,2.7s-1.8,1.1-3.1,1.2l-4,0.2L177,112l6.9-0.4L183.7,113.3z M178.5,117.5l-0.4,3.4l1.6-0.1
				c0.6,0,1.1-0.2,1.5-0.6c0.4-0.3,0.6-0.8,0.7-1.4c0-0.5-0.1-0.8-0.3-1.1c-0.3-0.3-0.6-0.4-1.1-0.4L178.5,117.5z"/>
			<path style="fill:#FFFFFF;" d="M195.3,110.8l-1.2,10.9l-2.2,0.1l1-9.1l-2.8,0.2l-0.7,4.8c-0.3,1.5-0.7,2.6-1.3,3.3
				c-0.6,0.7-1.4,1.1-2.3,1.2l-0.9,0.1l0.2-1.8h0.3c0.6-0.1,1.1-0.4,1.4-1c0.4-0.6,0.6-1.4,0.7-2.6l0.1-0.8l0.7-4.8L195.3,110.8z"/>
			<path style="fill:#FFFFFF;" d="M203.2,116.5l-4.1,0.2l-0.3,2.9l4.9-0.3l-0.2,1.8l-7,0.4l1.3-10.9l7-0.4l-0.2,1.8l-4.8,0.3
				l-0.3,2.6l4.2-0.2L203.2,116.5z"/>
			<path style="fill:#FFFFFF;" d="M212.5,109.8l2.3-0.1l-1.3,10.9l-2.2,0.1l0.8-7.1l-4.9,7.3L205,121l1.3-10.9l2.2-0.1l-0.8,7.1
				L212.5,109.8z M213.3,106.9c0,0.7-0.2,1.3-0.7,1.7c-0.5,0.4-1.1,0.7-1.8,0.7s-1.3-0.1-1.7-0.5c-0.5-0.4-0.7-0.9-0.8-1.6l1.5-0.1
				c0,0.6,0.3,1,0.9,0.9c0.3,0,0.6-0.1,0.8-0.3c0.2-0.2,0.3-0.4,0.3-0.8L213.3,106.9z"/>
			<path style="fill:#FFFFFF;" d="M228.2,119.8l-0.9,0.1l0.6-5.2l-6,0.3l-0.6,5.2l-0.9,0.1l1.3-10.9l0.9-0.1l-0.6,4.9l6-0.3l0.6-4.9
				l0.9-0.1L228.2,119.8z"/>
			<path style="fill:#FFFFFF;" d="M237.4,116.2l-4.7,0.3l-1.4,3.1l-1,0.1l5.2-11.1h0.9l2.7,10.7l-0.9,0.1L237.4,116.2z M233,115.7
				l4.2-0.2l-1.4-5.8L233,115.7z"/>
			<path style="fill:#FFFFFF;" d="M252.9,118.3l-0.9,0.1l1.2-10.1l-5.9,0.3l-1.2,10.1l-0.9,0.1l1.3-10.9l7.7-0.4L252.9,118.3z"/>
			<path style="fill:#FFFFFF;" d="M262.4,112.6l-4.9,0.3l-0.5,4.5l5.6-0.3l-0.1,0.8l-6.5,0.4l1.3-10.9l6.5-0.4l-0.1,0.8L258,108
				l-0.5,4.1l4.9-0.3V112.6z"/>
			<path style="fill:#FFFFFF;" d="M266.2,113.2l-0.5,4.4l-0.9,0.1l1.3-10.9l3.5-0.2c1,0,1.8,0.2,2.4,0.8c0.6,0.5,0.9,1.3,0.8,2.2
				c0,1-0.4,1.8-1.1,2.4s-1.6,1-2.8,1L266.2,113.2z M266.3,112.4l2.6-0.1c0.9,0,1.5-0.3,2.1-0.8c0.5-0.5,0.8-1.1,0.9-1.9
				c0-0.7-0.2-1.3-0.6-1.7c-0.4-0.4-1-0.6-1.7-0.6l-2.7,0.1L266.3,112.4z"/>
			<path style="fill:#FFFFFF;" d="M274.3,117.1l1.3-10.9l3-0.2c1,0,1.8,0.2,2.4,0.6c0.6,0.5,0.8,1.1,0.8,2c0,0.6-0.2,1.1-0.5,1.5
				s-0.8,0.8-1.4,1c0.5,0.1,0.9,0.4,1.3,0.9s0.5,1,0.5,1.6c0,0.9-0.4,1.7-1,2.3c-0.7,0.6-1.5,0.9-2.6,1L274.3,117.1z M275.9,111.8
				l-0.5,4.5l2.6-0.1c0.8,0,1.4-0.3,1.9-0.7c0.5-0.4,0.8-1,0.8-1.8c0-0.6-0.1-1.1-0.5-1.5s-0.9-0.5-1.6-0.5L275.9,111.8z M275.9,111
				l2.4-0.1c0.8-0.1,1.4-0.3,1.8-0.7c0.5-0.4,0.7-0.9,0.7-1.6c0.1-1.3-0.7-1.9-2.2-1.8l-2.2,0.1L275.9,111z"/>
			<path style="fill:#FFFFFF;" d="M287.7,112.4l3.8-7.1l1.1-0.1l-5,9.3c-0.4,0.8-0.8,1.3-1.2,1.7c-0.4,0.3-0.9,0.5-1.5,0.5
				c-0.2,0-0.5,0-0.7-0.1l0.1-0.7c0.2,0,0.4,0,0.6,0c0.4,0,0.7-0.1,1-0.4c0.3-0.2,0.6-0.6,0.9-1.2l0.5-0.9l-3-7.8l1-0.1L287.7,112.4
				z"/>
			<path style="fill:#FFFFFF;" d="M300.6,115.7c-1,0-1.8-0.3-2.5-0.9c-0.6-0.6-1-1.5-1.1-2.7c0-0.4,0-0.9,0-1.5l-1.9,0.1l-0.6,5.1
				l-0.9,0.1l1.3-10.9l0.9-0.1l-0.6,5l1.9-0.1v-0.4c0.1-1,0.4-1.8,0.8-2.6c0.4-0.8,1-1.4,1.6-1.8s1.4-0.6,2.1-0.7
				c0.7,0,1.3,0.1,1.8,0.4s0.9,0.7,1.2,1.3c0.3,0.6,0.5,1.2,0.6,1.9c0,0.4,0,0.8,0,1.3l-0.1,1.2c-0.1,1-0.4,1.9-0.8,2.7
				c-0.4,0.8-1,1.4-1.6,1.8C302.1,115.5,301.4,115.7,300.6,115.7z M304.4,108.4c0-0.6-0.2-1.1-0.4-1.6c-0.2-0.5-0.5-0.8-0.9-1.1
				c-0.4-0.2-0.9-0.4-1.4-0.3c-1,0-1.8,0.4-2.5,1.2c-0.7,0.8-1.1,1.8-1.2,3.1c-0.1,1-0.2,1.8-0.1,2.3c0.1,1,0.3,1.8,0.8,2.3
				s1.1,0.8,1.9,0.8c1,0,1.8-0.4,2.5-1.2c0.6-0.8,1-1.8,1.2-3.1C304.4,109.6,304.4,108.9,304.4,108.4z"/>
			<path style="fill:#FFFFFF;" d="M319.1,111.1c-0.2,1.1-0.7,2-1.4,2.7c-0.7,0.7-1.7,1-2.8,1.1c-1,0-1.8-0.3-2.4-0.9s-1-1.5-1.1-2.6
				c0-0.4,0-0.8,0-1.2l0.1-1.3c0.1-1,0.4-1.9,0.8-2.7s0.9-1.4,1.6-1.8c0.6-0.4,1.4-0.7,2.2-0.7c1,0,1.9,0.2,2.5,0.8
				c0.6,0.6,0.9,1.4,1,2.5h-0.9c0-0.9-0.3-1.5-0.7-2c-0.4-0.5-1.1-0.7-1.8-0.6c-1,0-1.8,0.4-2.4,1.2c-0.6,0.8-1,1.9-1.2,3.2
				l-0.1,1.5v0.7c0,0.6,0.1,1.1,0.4,1.6c0.2,0.5,0.5,0.9,0.9,1.1s0.8,0.4,1.3,0.3c0.9,0,1.6-0.3,2.1-0.8c0.6-0.5,0.9-1.2,1.2-2.2
				L319.1,111.1z"/>
			<path style="fill:#FFFFFF;" d="M329.4,103.9l-3.6,0.2l-1.2,10.1l-0.9,0.1l1.2-10.1l-3.6,0.2l0.1-0.8l8.1-0.5L329.4,103.9z"/>
			<path style="fill:#FFFFFF;" d="M335.9,110.5l-4.7,0.3l-1.4,3.1l-1,0.1l5.2-11.1h0.9l2.7,10.7l-0.9,0.1L335.9,110.5z M331.5,110
				l4.2-0.2l-1.4-5.8L331.5,110z"/>
			<path style="fill:#FFFFFF;" d="M339.5,113.4l1.3-10.9l3-0.2c1,0,1.8,0.2,2.4,0.6c0.6,0.5,0.8,1.1,0.8,2c0,0.6-0.2,1.1-0.5,1.5
				s-0.8,0.8-1.4,1c0.5,0.1,0.9,0.4,1.3,0.9c0.3,0.4,0.5,1,0.5,1.6c0,0.9-0.4,1.7-1,2.3c-0.7,0.6-1.5,0.9-2.6,1L339.5,113.4z
				 M341,108.1l-0.5,4.5l2.6-0.1c0.8,0,1.4-0.3,1.9-0.7c0.5-0.4,0.8-1,0.8-1.8c0-0.6-0.1-1.1-0.5-1.5s-0.9-0.5-1.6-0.5L341,108.1z
				 M341.1,107.3l2.4-0.1c0.8-0.1,1.4-0.3,1.8-0.7c0.5-0.4,0.7-0.9,0.7-1.6c0.1-1.3-0.7-1.9-2.2-1.8l-2.2,0.1L341.1,107.3z"/>
			<path style="fill:#FFFFFF;" d="M352,107.5l-1.5,0.1l-0.6,5.1l-0.9,0.1l1.3-10.9l0.9-0.1l-0.6,5l1.3-0.1l4.6-5.2l1.2-0.1l-5,5.7
				l4,5.2l-1,0.1L352,107.5z"/>
			<path style="fill:#FFFFFF;" d="M362.8,108.1l3.8-7.1l1.1-0.1l-5,9.3c-0.4,0.8-0.8,1.3-1.2,1.7c-0.4,0.3-0.9,0.5-1.5,0.5
				c-0.2,0-0.5,0-0.7-0.1l0.1-0.7c0.2,0,0.4,0,0.6,0c0.4,0,0.7-0.1,1-0.4c0.3-0.2,0.6-0.6,0.9-1.2l0.5-0.9l-3-7.8l1-0.1L362.8,108.1
				z"/>
		</g>
		<g>
			<path style="fill:#FDC000;" d="M57.4,144.2l-5.1,0.3L50.6,159l-3.5,0.2l1.7-14.5l-5.1,0.3l0.3-2.9l13.7-0.8L57.4,144.2z"/>
			<path style="fill:#FDC000;" d="M62.8,147.2l2.3-0.1c1.9-0.1,3.4,0.3,4.5,1.2s1.7,2.2,1.7,3.8c0,1.7-0.7,3.1-1.9,4.3
				c-1.3,1.1-2.9,1.7-4.9,1.8l-6.4,0.4l2-17.5l3.5-0.2L62.8,147.2z M62.5,150.1l-0.6,5.4l2.5-0.1c0.9-0.1,1.7-0.4,2.3-0.9
				c0.6-0.6,1-1.3,1.1-2.2c0.1-0.7-0.1-1.3-0.5-1.7s-1-0.6-1.8-0.6L62.5,150.1z M75.6,157.6l-3.5,0.2l2-17.5l3.5-0.2L75.6,157.6z"/>
			<path style="fill:#FDC000;" d="M91.9,146.4c0.9-0.1,1.6-0.3,2.1-0.8s0.8-1.1,0.9-1.8c0-0.6-0.2-1.1-0.6-1.4
				c-0.4-0.3-1-0.5-1.8-0.5c-0.7,0-1.3,0.2-1.9,0.6c-0.5,0.4-0.8,0.9-0.9,1.6l-3.5,0.2c0-1,0.3-1.9,0.8-2.7s1.3-1.4,2.3-1.9
				s2-0.7,3.2-0.8s2.2,0.1,3.1,0.5s1.6,0.9,2.1,1.6c0.5,0.7,0.7,1.5,0.7,2.5c0,1.7-1,3-3,4.1c0.8,0.3,1.4,0.8,1.8,1.5
				s0.6,1.4,0.6,2.3c0,1.1-0.3,2-0.9,2.8s-1.4,1.5-2.4,2c-1.1,0.5-2.2,0.8-3.5,0.8c-1.1,0.1-2.1-0.1-3-0.5s-1.6-0.9-2.1-1.6
				c-0.5-0.7-0.8-1.6-0.8-2.6l3.5-0.2c0,0.7,0.3,1.2,0.7,1.5c0.4,0.4,1.1,0.5,1.8,0.5c0.9,0,1.7-0.3,2.3-0.8c0.6-0.5,1-1.1,1-1.8
				c0.1-0.8-0.1-1.4-0.5-1.8c-0.4-0.4-1-0.5-1.8-0.5l-2.3,0.1l0.3-2.8L91.9,146.4z"/>
			<path style="fill:#FDC000;" d="M110,152l-6,0.3l-1.6,3.7l-3.8,0.2l8.2-17.8l3.2-0.2l4.3,17.1l-3.6,0.2L110,152z M105.3,149.4
				l4.2-0.2l-1.3-6.4L105.3,149.4z"/>
			<path style="fill:#FDC000;" d="M128.9,140.1l-7.5,0.4l-0.4,3.4l2.3-0.1c1.9-0.1,3.4,0.3,4.5,1.2s1.7,2.2,1.7,3.8
				c0,1.7-0.7,3.1-1.9,4.3c-1.3,1.1-2.9,1.7-4.9,1.8l-6.4,0.4l2-17.5l11-0.6L128.9,140.1z M120.7,146.8l-0.6,5.4l2.5-0.1
				c0.9-0.1,1.7-0.4,2.3-0.9c0.6-0.6,1-1.3,1.1-2.2c0.1-0.7-0.1-1.3-0.5-1.7s-1-0.6-1.8-0.6L120.7,146.8z"/>
			<path style="fill:#FDC000;" d="M143.4,136.3l3.6-0.2l-2,17.5l-3.5,0.2l1.3-11.4l-7.9,11.7l-3.6,0.2l2-17.5l3.5-0.2l-1.3,11.4
				L143.4,136.3z"/>
			<path style="fill:#FDC000;" d="M152.5,147l-0.7,6.2l-3.5,0.2l2-17.5l6.1-0.3c1.9-0.1,3.4,0.3,4.5,1.3s1.7,2.3,1.6,4
				c0,1.7-0.7,3.1-1.9,4.2c-1.2,1.1-2.8,1.7-4.8,1.8L152.5,147z M152.8,144.1l2.9-0.1c0.9-0.1,1.7-0.3,2.3-0.9c0.6-0.5,0.9-1.2,1-2
				s-0.1-1.5-0.5-1.9c-0.4-0.5-1-0.7-1.7-0.7l-3.3,0.2L152.8,144.1z"/>
			<path style="fill:#FDC000;" d="M171.7,148.5l-6,0.3l-1.6,3.7l-3.8,0.2l8.2-17.8l3.2-0.2l4.3,17.1l-3.6,0.2L171.7,148.5z
				 M167,145.8l4.2-0.2l-1.3-6.4L167,145.8z"/>
			<path style="fill:#FDC000;" d="M189,143.5l-6.6,0.4l-0.5,4.7l7.8-0.4l-0.3,2.9l-11.3,0.7l2-17.5l11.2-0.6l-0.3,2.9l-7.8,0.4
				l-0.5,4.2l6.6-0.4L189,143.5z"/>
			<path style="fill:#FDC000;" d="M197.1,133.2l-1.7,14.6l4.6-0.3l1.7-14.6l3.5-0.2l-1.7,14.6l4.6-0.3l1.7-14.6l3.5-0.2l-2,17.5
				l-19.7,1.1l2-17.5L197.1,133.2z"/>
			<path style="fill:#FDC000;" d="M219.4,138.2l2.3-0.1c1.9-0.1,3.4,0.3,4.5,1.2s1.7,2.2,1.7,3.8c0,1.7-0.7,3.1-1.9,4.3
				c-1.3,1.1-2.9,1.7-4.9,1.8l-6.4,0.4l2-17.5l3.5-0.2L219.4,138.2z M219,141.1l-0.6,5.4l2.5-0.1c0.9-0.1,1.7-0.4,2.3-0.9
				c0.6-0.6,1-1.3,1.1-2.2c0.1-0.7-0.1-1.3-0.5-1.7s-1-0.6-1.8-0.6L219,141.1z"/>
			<path style="fill:#FDC000;" d="M236,148.3l2-17.5l5.4-0.3c2-0.1,3.5,0.2,4.6,1s1.6,1.9,1.6,3.3c0,1.8-0.9,3.1-2.8,4
				c0.7,0.2,1.3,0.6,1.7,1.2c0.4,0.6,0.6,1.4,0.6,2.3c0,1.6-0.6,2.9-1.7,3.9c-1.1,1-2.7,1.5-4.7,1.6L236,148.3z M240.3,140.5
				l-0.6,4.7l2.7-0.1c0.9,0,1.6-0.3,2.1-0.8c0.6-0.5,0.9-1,0.9-1.8c0.1-0.7-0.1-1.3-0.4-1.7c-0.3-0.4-0.9-0.6-1.6-0.6L240.3,140.5z
				 M240.6,138l2.4-0.1c0.9-0.1,1.6-0.3,2.1-0.7s0.8-1,0.9-1.7c0.1-1.4-0.7-2.1-2.3-2l-2.6,0.1L240.6,138z"/>
			<path style="fill:#FDC000;" d="M256.2,136.1l2.3-0.1c1.9-0.1,3.4,0.3,4.5,1.2s1.7,2.2,1.7,3.8c0,1.7-0.7,3.1-1.9,4.3
				c-1.3,1.1-2.9,1.7-4.9,1.8l-6.4,0.4l2-17.5l3.5-0.2L256.2,136.1z M255.9,139l-0.6,5.4l2.5-0.1c0.9-0.1,1.7-0.4,2.3-0.9
				c0.6-0.6,1-1.3,1.1-2.2c0.1-0.7-0.1-1.3-0.5-1.7s-1-0.6-1.8-0.6L255.9,139z M269,146.4l-3.5,0.2l2-17.5l3.5-0.2L269,146.4z"/>
			<path style="fill:#FDC000;" d="M284.2,128.2l3.6-0.2l-2,17.5l-3.5,0.2l1.3-11.4l-7.9,11.7l-3.6,0.2l2-17.5l3.5-0.2l-1.3,11.4
				L284.2,128.2z"/>
			<path style="fill:#FDC000;" d="M301.9,130.1l-7.5,0.4l-1.7,14.5l-3.5,0.2l2-17.5l11-0.6L301.9,130.1z"/>
			<path style="fill:#FDC000;" d="M306.9,138.1l-0.7,6.2l-3.5,0.2l2-17.5l6.1-0.3c1.9-0.1,3.4,0.3,4.5,1.3s1.7,2.3,1.6,4
				c0,1.7-0.7,3.1-1.9,4.2c-1.2,1.1-2.8,1.7-4.8,1.8L306.9,138.1z M307.2,135.2l2.9-0.1c0.9-0.1,1.7-0.3,2.3-0.9
				c0.6-0.5,0.9-1.2,1-2s-0.1-1.5-0.5-1.9c-0.4-0.5-1-0.7-1.7-0.7l-3.3,0.2L307.2,135.2z"/>
			<path style="fill:#FDC000;" d="M323.1,132.2l2.3-0.1c1.9-0.1,3.4,0.3,4.5,1.2s1.7,2.2,1.7,3.8c0,1.7-0.7,3.1-1.9,4.3
				c-1.3,1.1-2.9,1.7-4.9,1.8l-6.4,0.4l2-17.5l3.5-0.2L323.1,132.2z M322.7,135.1l-0.6,5.4l2.5-0.1c0.9-0.1,1.7-0.4,2.3-0.9
				c0.6-0.6,1-1.3,1.1-2.2c0.1-0.7-0.1-1.3-0.5-1.7s-1-0.6-1.8-0.6L322.7,135.1z M335.8,142.6l-3.5,0.2l2-17.5l3.5-0.2L335.8,142.6z
				"/>
			<path style="fill:#FDC000;" d="M344.6,124.7l-1.7,14.6l4.6-0.3l1.7-14.6l3.5-0.2l-1.7,14.6l4.6-0.3l1.7-14.6l3.5-0.2l-2,17.5
				l-19.7,1.1l2-17.5L344.6,124.7z"/>
			<path style="fill:#FDC000;" d="M362.3,139.5c0-0.5,0.1-1,0.4-1.4s0.8-0.6,1.3-0.6s1,0.1,1.3,0.4c0.4,0.3,0.6,0.7,0.7,1.3
				c0,0.5-0.1,1-0.4,1.4s-0.8,0.6-1.3,0.6c-0.6,0-1-0.1-1.4-0.4C362.5,140.4,362.3,140,362.3,139.5z M366,135.5l-2.8,0.2l1-12.1
				l3.6-0.2L366,135.5z"/>
		</g>
	</g>
	<g>
		<g>
			<defs>
				<polygon id="SVGID_1_" points="396.5,127.2 -1,127.2 13.5,-14.8 411,-14.8 				"/>
			</defs>
			<clipPath id="SVGID_2_">
				<use xlink:href="#SVGID_1_"  style="overflow:visible;"/>
			</clipPath>
			<polygon style="clip-path:url(#SVGID_2_);fill:#D71015;" points="353.5,32.7 233.5,39.5 237.3,1 236.7,1 5.9,14.2 -10,54.1 
				-1.5,53.6 -6.8,105.7 348.1,85.6 348.7,85.6 354.1,32.7 			"/>
		</g>
	</g>
	<g>
		<g style="opacity:0.15;">
			<path d="M19.9,87.2l3-2.7l3.3-18.1l19.5-1.1l-2.4,20.5l2.9-0.2L44.8,98l-8.2,0.5l0.7-5.8l-10.9,0.6l-0.7,5.8l-8.2,0.5l1.4-12.4
				L19.9,87.2z M28.7,86.7l6.3-0.4l1.7-13.9l-3.6,0.2l-2.2,12.2L28.7,86.7z"/>
			<path d="M70.8,64L70,70.6l-12,0.6l-0.5,3.9l8.6-0.5l-0.7,6.2l-8.6,0.5l-0.5,3.9l12.5-0.7L68,91l-20.7,1.2l3.2-27.1L70.8,64z"/>
			<path d="M78.4,90.4l-8.2,0.5l3.2-27.1l8.2-0.5l-1.2,10.3l6.3-0.4L87.9,63l8.2-0.5l-3.2,27.1l-8.2,0.5l1.2-10.3l-6.3,0.4
				L78.4,90.4z"/>
			<path d="M115,69.9l4.1,4L117.9,84l-5.1,4.5l-17.6,1l3.2-27.1l8.2-0.5l-1,8.5L115,69.9z M110.1,81.3l0.5-3.9l-0.7-0.7l-5,0.3
				l-0.7,5.4l5-0.3L110.1,81.3z"/>
			<path d="M141.9,59.9l-0.8,6.6L130,67.1l-2.4,20.5l-8.2,0.5l3.2-27.1L141.9,59.9z"/>
			<path d="M156,86l1.4-12.4h-0.2l-8.5,12.8l-7.7,0.4l3.2-27.1l8.2-0.5L151,71.7h0.2l8.5-12.8l7.7-0.4l-3.2,27.1L156,86z"/>
			<path d="M189.6,73.3l0.7-6.2l6.3-0.4l1.7-1.4l0.2-1.4l-0.7-0.7l-11.3,0.6l0.8-6.6l16.3-0.9l3.6,3.4l-0.8,7.2l-2.6,2.3l2.6,2.5
				l-0.9,7.7l-4.4,3.9l-17.2,1l0.7-6.6l12.3-0.7l0.9-0.8l0.3-2.1l-1.2-1.3L189.6,73.3z"/>
			<path d="M216.1,77.2l-2.3,5.5l-8.4,0.5l11.8-27.6l10.7-0.6l5.4,26.6l-8.4,0.5l-1.1-5.3L216.1,77.2z M219,70.5l3.4-0.2l-1-5.9
				L219,70.5z"/>
			<path d="M234.5,81.5l3.2-27.1l21.3-1.2l-0.8,6.6l-13,0.7l-0.4,3.1l10.3-0.6l4.1,4l-1,8.9l-5.1,4.5L234.5,81.5z M250.3,73.3
				l0.4-3.1l-0.7-0.7l-5.9,0.3l-0.6,4.6l5.9-0.3L250.3,73.3z"/>
			<path d="M268.4,72.5l-0.8,7.2l-8.2,0.5l3.2-27.1l18-1l4.1,4l-1.3,11.4l-5.1,4.5L268.4,72.5z M275.4,58.8l-5.4,0.3l-0.8,6.8
				l5.4-0.3l0.9-0.8l0.6-5.2L275.4,58.8z"/>
			<path d="M290.8,72.9l-2.3,5.5l-8.4,0.5l11.8-27.6l10.7-0.6l5.4,26.6l-8.4,0.5l-1.1-5.3L290.8,72.9z M293.7,66.2l3.4-0.2l-1-5.9
				L293.7,66.2z"/>
			<path d="M317.9,49.8l19.9-1.1l-3.2,27.1l-8.2,0.5l2.4-20.5l-4,0.2l-2.9,16.3l-5.5,4.9l-7.3,0.4l0.8-6.6l1.9-0.1l2.7-2.3
				L317.9,49.8z"/>
		</g>
		<g>
			<g>
				<path style="fill:#FFFFFF;" d="M16.9,84.2l3-2.7l3.3-18.1l19.5-1.1l-2.4,20.5l2.9-0.2L41.8,95l-8.2,0.5l0.7-5.8l-10.9,0.6
					l-0.7,5.8l-8.2,0.5l1.4-12.4L16.9,84.2z M25.7,83.7l6.3-0.4l1.7-13.9l-3.6,0.2l-2.2,12.2L25.7,83.7z"/>
				<path style="fill:#FFFFFF;" d="M67.8,61L67,67.6l-12,0.6l-0.5,3.9l8.6-0.5l-0.7,6.2l-8.6,0.5l-0.5,3.9l12.5-0.7L65,88l-20.7,1.2
					l3.2-27.1L67.8,61z"/>
				<path style="fill:#FFFFFF;" d="M75.4,87.4l-8.2,0.5l3.2-27.1l8.2-0.5l-1.2,10.3l6.3-0.4L84.9,60l8.2-0.5l-3.2,27.1l-8.2,0.5
					l1.2-10.3l-6.3,0.4L75.4,87.4z"/>
				<path style="fill:#FFFFFF;" d="M112,66.9l4.1,4L114.9,81l-5.1,4.5l-17.6,1l3.2-27.1l8.2-0.5l-1,8.5L112,66.9z M107.1,78.3
					l0.5-3.9l-0.7-0.7l-5,0.3l-0.7,5.4l5-0.3L107.1,78.3z"/>
				<path style="fill:#FFFFFF;" d="M138.9,56.9l-0.8,6.6L127,64.1l-2.4,20.5l-8.2,0.5l3.2-27.1L138.9,56.9z"/>
				<path style="fill:#FFFFFF;" d="M153,83l1.4-12.4h-0.2l-8.5,12.8l-7.7,0.4l3.2-27.1l8.2-0.5L148,68.7h0.2l8.5-12.8l7.7-0.4
					l-3.2,27.1L153,83z"/>
				<path style="fill:#FFFFFF;" d="M186.6,70.3l0.7-6.2l6.3-0.4l1.7-1.4l0.2-1.4l-0.7-0.7l-11.3,0.6l0.8-6.6l16.3-0.9l3.6,3.4
					l-0.8,7.2l-2.6,2.3l2.6,2.5l-0.9,7.7l-4.4,3.9l-17.2,1l0.7-6.6l12.3-0.7l0.9-0.8l0.3-2.1l-1.2-1.3L186.6,70.3z"/>
				<path style="fill:#FFFFFF;" d="M213.1,74.2l-2.3,5.5l-8.4,0.5l11.8-27.6l10.7-0.6l5.4,26.6l-8.4,0.5l-1.1-5.3L213.1,74.2z
					 M216,67.5l3.4-0.2l-1-5.9L216,67.5z"/>
				<path style="fill:#FFFFFF;" d="M231.5,78.5l3.2-27.1l21.3-1.2l-0.8,6.6l-13,0.7l-0.4,3.1l10.3-0.6l4.1,4l-1,8.9l-5.1,4.5
					L231.5,78.5z M247.3,70.3l0.4-3.1l-0.7-0.7l-5.9,0.3l-0.6,4.6l5.9-0.3L247.3,70.3z"/>
				<path style="fill:#FFFFFF;" d="M265.4,69.5l-0.8,7.2l-8.2,0.5l3.2-27.1l18-1l4.1,4l-1.3,11.4l-5.1,4.5L265.4,69.5z M272.4,55.8
					l-5.4,0.3l-0.8,6.8l5.4-0.3l0.9-0.8l0.6-5.2L272.4,55.8z"/>
				<path style="fill:#FFFFFF;" d="M287.8,69.9l-2.3,5.5l-8.4,0.5l11.8-27.6l10.7-0.6l5.4,26.6l-8.4,0.5l-1.1-5.3L287.8,69.9z
					 M290.7,63.2l3.4-0.2l-1-5.9L290.7,63.2z"/>
				<path style="fill:#FFFFFF;" d="M314.9,46.8l19.9-1.1l-3.2,27.1l-8.2,0.5l2.4-20.5l-4,0.2l-2.9,16.3l-5.5,4.9l-7.3,0.4l0.8-6.6
					l1.9-0.1l2.7-2.3L314.9,46.8z"/>
			</g>
		</g>
	</g>
	<g>
		<g style="opacity:0.15;">
			<path d="M33.3,38.4L32.9,42l-4.1,0.2l1.6-13.5l9-0.5l2.1,2l-0.7,5.7l-2.6,2.3L33.3,38.4z M36.8,31.5l-2.7,0.2l-0.4,3.4l2.7-0.2
				l0.4-0.4l0.3-2.6L36.8,31.5z"/>
			<path d="M53.3,27.3L53,30.6l-6,0.3l-0.2,1.9l4.3-0.2l-0.4,3.1L46.3,36l-0.2,1.9l6.2-0.4l-0.4,3.3l-10.3,0.6l1.6-13.5L53.3,27.3z"
				/>
			<path d="M56.1,35.2l0.4-3.1l3.2-0.2l0.8-0.7l0.1-0.7l-0.3-0.4l-5.6,0.3l0.4-3.3l8.1-0.5l1.8,1.7l-0.4,3.6L63.3,33l1.3,1.3l-0.6,4
				l-2.2,2l-8.6,0.5l0.4-3.3l6.1-0.3l0.4-0.4l0.1-1.1L59.7,35L56.1,35.2z"/>
			<path d="M78.6,25.9l-6.3,13.8l-4.1,0.2l1.4-3L68.2,37l-2.6-10.4l4.1-0.2l1.6,6.9h0.1l3.1-7.2L78.6,25.9z"/>
			<path d="M80.3,25.8l10-0.6l-1.6,13.5L84.5,39l1.2-10.3l-2,0.1L82.3,37l-2.8,2.5l-3.6,0.2l0.4-3.3l1-0.1l1.4-1.1L80.3,25.8z"/>
			<path d="M100.6,28.9l2.1,2l-0.6,5l-2.5,2.3l-8.8,0.5l1.6-13.5l4.1-0.2L96,29.3L100.6,28.9z M98.1,34.6l0.2-1.9L98,32.3l-2.5,0.1
				l-0.3,2.7l2.5-0.1L98.1,34.6z"/>
			<path d="M104,37.9l1.2-10.3l-3.2,0.2l0.4-3.3l10.4-0.6l-0.4,3.3l-3.2,0.2L108,37.7L104,37.9z"/>
			<path d="M115.4,34.5l-1.2,2.8l-4.2,0.2l5.9-13.8l5.4-0.3l2.7,13.3l-4.2,0.2l-0.6-2.7L115.4,34.5z M116.8,31.2l1.7-0.1l-0.5-2.9
				L116.8,31.2z"/>
			<path d="M125.8,36.6l1.2-10.3l-3.2,0.2l0.4-3.3l10.4-0.6l-0.4,3.3l-3.2,0.2l-1.2,10.3L125.8,36.6z"/>
			<path d="M155.7,21.5l-6.3,13.8l-4.1,0.2l1.4-3l-1.4,0.1l-2.6-10.4l4.1-0.2l1.6,6.9h0.1l3.1-7.2L155.7,21.5z"/>
			<path d="M166.7,20.9l-0.4,3.3l-5.6,0.3l-1.2,10.3l-4.1,0.2l1.6-13.5L166.7,20.9z"/>
			<path d="M168.6,31.5l-1.2,2.8l-4.2,0.2l5.9-13.8l5.4-0.3l2.7,13.3l-4.2,0.2l-0.6-2.7L168.6,31.5z M170.1,28.2l1.7-0.1l-0.5-2.9
				L170.1,28.2z"/>
			<path d="M179.1,30.3l1.5-1.3l1.6-9l9.8-0.6l-1.2,10.3l1.4-0.1l-0.7,6.2l-4.1,0.2l0.4-2.9l-5.5,0.3l-0.4,2.9l-4.1,0.2l0.7-6.2
				H179.1z M183.5,30.1l3.2-0.2l0.8-7l-1.8,0.1l-1.1,6.1L183.5,30.1z"/>
			<path d="M198.2,29.8l-1.2,2.8l-4.2,0.2l5.9-13.8l5.4-0.3l2.7,13.3l-4.2,0.2l-0.6-2.7L198.2,29.8z M199.6,26.5l1.7-0.1l-0.5-2.9
				L199.6,26.5z"/>
			<path d="M211.9,18.3l10-0.6l-1.6,13.5l-4.1,0.2l1.2-10.3l-2,0.1l-1.4,8.2l-2.8,2.5l-3.6,0.2l0.4-3.3l1-0.1l1.4-1.1L211.9,18.3z"
				/>
		</g>
		<g>
			<g>
				<path style="fill:#FFFFFF;" d="M30.3,35.4L29.9,39l-4.1,0.2l1.6-13.5l9-0.5l2.1,2l-0.7,5.7l-2.6,2.3L30.3,35.4z M33.8,28.5
					l-2.7,0.2l-0.4,3.4l2.7-0.2l0.4-0.4l0.3-2.6L33.8,28.5z"/>
				<path style="fill:#FFFFFF;" d="M50.3,24.3L50,27.6l-6,0.3l-0.2,1.9l4.3-0.2l-0.4,3.1L43.3,33l-0.2,1.9l6.2-0.4l-0.4,3.3
					l-10.3,0.6l1.6-13.5L50.3,24.3z"/>
				<path style="fill:#FFFFFF;" d="M53.1,32.2l0.4-3.1l3.2-0.2l0.8-0.7l0.1-0.7l-0.3-0.4l-5.6,0.3l0.4-3.3l8.1-0.5l1.8,1.7l-0.4,3.6
					L60.3,30l1.3,1.3l-0.6,4l-2.2,2l-8.6,0.5l0.4-3.3l6.1-0.3l0.4-0.4l0.1-1.1L56.7,32L53.1,32.2z"/>
				<path style="fill:#FFFFFF;" d="M75.6,22.9l-6.3,13.8l-4.1,0.2l1.4-3L65.2,34l-2.6-10.4l4.1-0.2l1.6,6.9h0.1l3.1-7.2L75.6,22.9z"
					/>
				<path style="fill:#FFFFFF;" d="M77.3,22.8l10-0.6l-1.6,13.5L81.5,36l1.2-10.3l-2,0.1L79.3,34l-2.8,2.5l-3.6,0.2l0.4-3.3l1-0.1
					l1.4-1.1L77.3,22.8z"/>
				<path style="fill:#FFFFFF;" d="M97.6,25.9l2.1,2l-0.6,5l-2.5,2.3l-8.8,0.5l1.6-13.5l4.1-0.2L93,26.3L97.6,25.9z M95.1,31.6
					l0.2-1.9L95,29.3l-2.5,0.1l-0.3,2.7l2.5-0.1L95.1,31.6z"/>
				<path style="fill:#FFFFFF;" d="M101,34.9l1.2-10.3L99,24.8l0.4-3.3l10.4-0.6l-0.4,3.3l-3.2,0.2L105,34.7L101,34.9z"/>
				<path style="fill:#FFFFFF;" d="M112.4,31.5l-1.2,2.8l-4.2,0.2l5.9-13.8l5.4-0.3l2.7,13.3l-4.2,0.2l-0.6-2.7L112.4,31.5z
					 M113.8,28.2l1.7-0.1l-0.5-2.9L113.8,28.2z"/>
				<path style="fill:#FFFFFF;" d="M122.8,33.6l1.2-10.3l-3.2,0.2l0.4-3.3l10.4-0.6l-0.4,3.3l-3.2,0.2l-1.2,10.3L122.8,33.6z"/>
				<path style="fill:#FFFFFF;" d="M152.7,18.5l-6.3,13.8l-4.1,0.2l1.4-3l-1.4,0.1l-2.6-10.4l4.1-0.2l1.6,6.9h0.1l3.1-7.2
					L152.7,18.5z"/>
				<path style="fill:#FFFFFF;" d="M163.7,17.9l-0.4,3.3l-5.6,0.3l-1.2,10.3l-4.1,0.2l1.6-13.5L163.7,17.9z"/>
				<path style="fill:#FFFFFF;" d="M165.6,28.5l-1.2,2.8l-4.2,0.2l5.9-13.8l5.4-0.3l2.7,13.3l-4.2,0.2l-0.6-2.7L165.6,28.5z
					 M167.1,25.2l1.7-0.1l-0.5-2.9L167.1,25.2z"/>
				<path style="fill:#FFFFFF;" d="M176.1,27.3l1.5-1.3l1.6-9l9.8-0.6l-1.2,10.3l1.4-0.1l-0.7,6.2l-4.1,0.2l0.4-2.9l-5.5,0.3
					l-0.4,2.9l-4.1,0.2l0.7-6.2H176.1z M180.5,27.1l3.2-0.2l0.8-7l-1.8,0.1l-1.1,6.1L180.5,27.1z"/>
				<path style="fill:#FFFFFF;" d="M195.2,26.8l-1.2,2.8l-4.2,0.2l5.9-13.8l5.4-0.3l2.7,13.3l-4.2,0.2l-0.6-2.7L195.2,26.8z
					 M196.6,23.5l1.7-0.1l-0.5-2.9L196.6,23.5z"/>
				<path style="fill:#FFFFFF;" d="M208.9,15.3l10-0.6l-1.6,13.5l-4.1,0.2l1.2-10.3l-2,0.1l-1.4,8.2l-2.8,2.5l-3.6,0.2l0.4-3.3
					l1-0.1l1.4-1.1L208.9,15.3z"/>
			</g>
		</g>
	</g>
</g>
</svg>
