<?xml version="1.0" encoding="utf-8"?>
<!-- Generator: Adobe Illustrator 21.1.0, SVG Export Plug-In . SVG Version: 6.00 Build 0)  -->
<svg version="1.1" class="s-1__title-svg--tablet" xmlns="http://www.w3.org/2000/svg" xmlns:xlink="http://www.w3.org/1999/xlink" x="0px" y="0px"
	 viewBox="0 0 438 200" style="enable-background:new 0 0 438 200;" xml:space="preserve">
<g id="title_8_">
	<g>
		<g>
			<polygon style="fill:#1C1F21;" points="436.3,90.1 433.9,113.7 427.7,175.2 426.9,175.3 15.4,198.8 14.6,198.8 23.2,113.7 
				24,113.7 435.5,90.2 			"/>
		</g>
		<g>
			<path style="fill:#FFFFFF;" d="M55.6,131.6l1.9,8.5l3.9-8.8l3.2-0.2L63.3,143l-2.4,0.1l0.4-3.4l0.8-5.3l-4,8.9l-1.6,0.1l-2.1-8.8
				l-0.4,5.9l-0.4,3.1l-2.4,0.1l1.4-11.9L55.6,131.6z"/>
			<path style="fill:#FFFFFF;" d="M69.1,135.1l1.6-0.1c1.3-0.1,2.3,0.2,3.1,0.8c0.8,0.6,1.2,1.5,1.1,2.6c0,1.2-0.5,2.2-1.3,2.9
				c-0.9,0.8-2,1.2-3.4,1.3l-4.4,0.3l1.4-11.9l2.4-0.1L69.1,135.1z M68.9,137.1l-0.4,3.7l1.7-0.1c0.6,0,1.2-0.2,1.6-0.6
				c0.4-0.4,0.7-0.9,0.7-1.5c0-0.5-0.1-0.9-0.4-1.2s-0.7-0.4-1.3-0.4L68.9,137.1z M77.8,142.2l-2.4,0.1l1.4-11.9l2.4-0.1L77.8,142.2
				z"/>
			<path style="fill:#FFFFFF;" d="M95.2,144.1l-2.2,0.1l0.3-2.9l-6.9,0.4l-0.3,2.9l-2.3,0.1l0.4-4.9h0.7c1-0.7,1.7-2,2.1-3.8
				l0.1-0.7l1-5.6l7.5-0.4l-1.1,10l1.3-0.1L95.2,144.1z M87.8,139.7l4.4-0.3l0.9-8l-2.9,0.2l-0.7,4.1
				C89.2,137.4,88.6,138.8,87.8,139.7z"/>
			<path style="fill:#FFFFFF;" d="M104.4,138.2l-4.1,0.2l-1.1,2.5l-2.6,0.2l5.6-12.2l2.2-0.1l2.9,11.7l-2.4,0.1L104.4,138.2z
				 M101.1,136.4l2.9-0.2l-0.9-4.4L101.1,136.4z"/>
			<path style="fill:#FFFFFF;" d="M116.4,134.8l-4.5,0.3l-0.4,3.2l5.3-0.3l-0.2,2l-7.7,0.4l1.4-11.9l7.7-0.4l-0.2,2l-5.3,0.3
				l-0.3,2.8l4.5-0.3L116.4,134.8z"/>
			<path style="fill:#FFFFFF;" d="M122.9,127.7l1.9,8.5l3.9-8.8l3.2-0.2l-1.4,11.9l-2.4,0.1l0.4-3.4l0.8-5.3l-4,8.9l-1.6,0.1
				l-2.1-8.8l-0.4,5.9l-0.4,3.1l-2.4,0.1l1.4-11.9L122.9,127.7z"/>
			<path style="fill:#FFFFFF;" d="M145.4,138.3l-7.9,0.5l0.2-1.7l4-4.2c0.8-0.9,1.3-1.5,1.6-2.1c0.3-0.5,0.3-1,0.2-1.5
				c-0.2-0.7-0.6-1-1.2-1c-0.5,0-0.9,0.2-1.3,0.6c-0.3,0.4-0.5,0.9-0.6,1.5l-2.3,0.1c0-0.7,0.2-1.4,0.5-2c0.4-0.6,0.9-1.1,1.5-1.5
				s1.3-0.6,2.1-0.6c1.1,0,2,0.2,2.6,0.8c0.6,0.6,1,1.3,0.9,2.3c0,1.1-0.6,2.3-1.8,3.6l-1.1,1.2l-2.3,2.3l4.9-0.3L145.4,138.3z"/>
			<path style="fill:#FFFFFF;" d="M151.2,138.1c-1,0-1.8-0.3-2.4-0.9c-0.6-0.6-0.9-1.6-1-2.8c0-0.4,0-0.8,0-1.2l0.2-2.2
				c0.2-1.6,0.6-2.9,1.4-3.8c0.7-0.9,1.7-1.3,2.9-1.4c1,0,1.8,0.3,2.4,0.9c0.6,0.6,0.9,1.6,1,2.7c0,0.4,0,0.8,0,1.2l-0.2,2.2
				c-0.2,1.6-0.6,2.9-1.4,3.8C153.4,137.6,152.4,138.1,151.2,138.1z M153.4,129.4c-0.1-1.1-0.5-1.6-1.2-1.6c-1.1,0-1.7,0.9-1.9,2.6
				l-0.2,2.8c-0.1,0.6-0.1,1.1,0,1.4c0,1.1,0.4,1.6,1.2,1.6c1.1,0,1.8-0.9,1.9-2.7l0.3-2.9C153.4,130.2,153.5,129.8,153.4,129.4z"/>
			<path style="fill:#FFFFFF;" d="M160.9,137.6c-1,0-1.8-0.3-2.4-0.9c-0.6-0.6-0.9-1.6-1-2.8c0-0.4,0-0.8,0-1.2l0.2-2.2
				c0.2-1.6,0.6-2.9,1.4-3.8c0.7-0.9,1.7-1.3,2.9-1.4c1,0,1.8,0.3,2.4,0.9c0.6,0.6,0.9,1.6,1,2.7c0,0.4,0,0.8,0,1.2l-0.2,2.2
				c-0.2,1.6-0.6,2.9-1.4,3.8C163.1,137.1,162.2,137.5,160.9,137.6z M163.2,128.8c-0.1-1.1-0.5-1.6-1.2-1.6c-1.1,0-1.7,0.9-1.9,2.6
				l-0.2,2.8c-0.1,0.6-0.1,1.1,0,1.4c0,1.1,0.4,1.6,1.2,1.6c1.1,0,1.8-0.9,1.9-2.7l0.3-2.9C163.2,129.6,163.2,129.2,163.2,128.8z"/>
			<path style="fill:#FFFFFF;" d="M174.3,132.5l-0.5,4.2l-2.4,0.1l1.4-11.9l4.1-0.2c1.3-0.1,2.3,0.2,3.1,0.9
				c0.8,0.7,1.1,1.6,1.1,2.7c0,1.2-0.5,2.1-1.3,2.9c-0.8,0.7-1.9,1.2-3.3,1.2L174.3,132.5z M174.5,130.5l2-0.1
				c0.6,0,1.2-0.2,1.6-0.6c0.4-0.4,0.6-0.8,0.7-1.4c0-0.6-0.1-1-0.4-1.3c-0.3-0.3-0.7-0.5-1.2-0.5l-2.2,0.1L174.5,130.5z"/>
			<path style="fill:#FFFFFF;" d="M187.3,129.6l2.7-5.8l2.7-0.2l-5,9.8c-0.4,0.9-0.9,1.6-1.5,2c-0.5,0.4-1.2,0.7-1.9,0.7h-0.9l0.1-2
				h0.6c0.4,0,0.7-0.1,0.9-0.3c0.3-0.2,0.5-0.5,0.7-0.9l0.3-0.5l-3-8.3l2.4-0.1L187.3,129.6z"/>
			<path style="fill:#FFFFFF;" d="M201.7,125.2l-5.1,0.3l-0.3,2.3l1.6-0.1c1.3-0.1,2.3,0.2,3.1,0.8c0.8,0.6,1.2,1.5,1.1,2.6
				c0,1.2-0.5,2.2-1.3,2.9c-0.9,0.8-2,1.2-3.4,1.3l-4.4,0.3l1.4-11.9l7.5-0.4L201.7,125.2z M196,129.8l-0.4,3.7l1.7-0.1
				c0.6,0,1.2-0.2,1.6-0.6c0.4-0.4,0.7-0.9,0.7-1.5c0-0.5-0.1-0.9-0.4-1.2c-0.3-0.3-0.7-0.4-1.3-0.4L196,129.8z"/>
			<path style="fill:#FFFFFF;" d="M214.3,122.5l-1.4,11.9l-2.4,0.1l1.1-10l-3,0.2l-0.8,5.3c-0.3,1.6-0.8,2.9-1.4,3.6
				c-0.6,0.8-1.5,1.2-2.6,1.3l-1,0.1l0.2-2l0.4-0.1c0.6-0.1,1.2-0.5,1.5-1.1s0.6-1.6,0.8-2.9l0.1-0.9l0.8-5.2L214.3,122.5z"/>
			<path style="fill:#FFFFFF;" d="M223,128.7l-4.5,0.3l-0.4,3.2l5.3-0.3l-0.2,2l-7.7,0.4l1.4-11.9l7.7-0.4l-0.2,2l-5.3,0.3l-0.3,2.8
				l4.5-0.3L223,128.7z"/>
			<path style="fill:#FFFFFF;" d="M233.3,121.4l2.5-0.1l-1.4,11.9l-2.4,0.1l0.9-7.8l-5.4,8l-2.5,0.1l1.4-11.9l2.4-0.1l-0.9,7.8
				L233.3,121.4z M234.1,118.2c0,0.8-0.2,1.4-0.8,1.8s-1.2,0.7-2,0.7c-0.7,0-1.4-0.2-1.9-0.6s-0.8-1-0.8-1.7l1.6-0.1
				c0,0.7,0.4,1.1,1,1c0.4,0,0.6-0.1,0.8-0.3c0.2-0.2,0.3-0.5,0.4-0.8H234.1z"/>
			<path style="fill:#FFFFFF;" d="M250.3,132.3l-1,0.1l0.7-5.7l-6.5,0.4l-0.7,5.7l-1,0.1l1.4-11.9l1-0.1l-0.6,5.4l6.5-0.4l0.6-5.4
				l1-0.1L250.3,132.3z"/>
			<path style="fill:#FFFFFF;" d="M260.5,128.3l-5.2,0.3l-1.6,3.4l-1.1,0.1l5.7-12.2l0.9-0.1l3,11.7l-1,0.1L260.5,128.3z
				 M255.7,127.8l4.6-0.3l-1.5-6.3L255.7,127.8z"/>
			<path style="fill:#FFFFFF;" d="M277.4,130.7l-1,0.1l1.3-11.1l-6.5,0.4l-1.3,11.1l-1,0.1l1.4-11.9l8.4-0.5L277.4,130.7z"/>
			<path style="fill:#FFFFFF;" d="M287.8,124.4l-5.4,0.3l-0.6,4.9l6.2-0.4l-0.1,0.9l-7.2,0.4l1.4-11.9l7.1-0.4l-0.1,0.9l-6.1,0.4
				l-0.5,4.5l5.4-0.3L287.8,124.4z"/>
			<path style="fill:#FFFFFF;" d="M292,125l-0.6,4.9l-1,0.1l1.4-11.9l3.9-0.2c1.1,0,2,0.2,2.6,0.8s0.9,1.4,0.9,2.4
				c0,1.1-0.4,2-1.2,2.7c-0.7,0.7-1.8,1-3,1.1L292,125z M292.1,124.2l2.9-0.2c0.9-0.1,1.7-0.3,2.3-0.8c0.6-0.5,0.9-1.2,0.9-2
				s-0.2-1.4-0.6-1.9c-0.5-0.4-1.1-0.6-1.9-0.6l-3,0.2L292.1,124.2z"/>
			<path style="fill:#FFFFFF;" d="M300.9,129.3l1.4-11.9l3.3-0.2c1.1,0,2,0.2,2.6,0.7s0.9,1.2,0.9,2.2c0,0.6-0.2,1.2-0.6,1.7
				s-0.9,0.9-1.5,1.1c0.6,0.1,1,0.5,1.4,0.9c0.3,0.5,0.5,1.1,0.5,1.7c0,1-0.4,1.9-1.1,2.5c-0.7,0.7-1.7,1-2.9,1.1L300.9,129.3z
				 M302.6,123.6l-0.6,4.9l2.8-0.2c0.9,0,1.6-0.3,2.1-0.8c0.6-0.5,0.9-1.1,0.9-1.9c0-0.7-0.2-1.2-0.6-1.6s-1-0.6-1.7-0.6
				L302.6,123.6z M302.6,122.7l2.6-0.1c0.8-0.1,1.5-0.3,2-0.8c0.5-0.4,0.8-1,0.8-1.7c0.1-1.4-0.8-2-2.4-2l-2.5,0.1L302.6,122.7z"/>
			<path style="fill:#FFFFFF;" d="M315.5,124.2l4.1-7.8l1.2-0.1l-5.5,10.2c-0.4,0.9-0.9,1.5-1.4,1.8c-0.5,0.4-1,0.6-1.7,0.6
				c-0.2,0-0.5,0-0.8-0.1l0.1-0.8c0.2,0,0.4,0,0.7,0c0.4,0,0.7-0.2,1.1-0.4c0.3-0.2,0.6-0.7,1-1.3l0.5-1l-3.3-8.5l1.1-0.1
				L315.5,124.2z"/>
			<path style="fill:#FFFFFF;" d="M329.6,127.9c-1.1,0-2-0.3-2.7-1s-1.1-1.7-1.2-2.9c0-0.4,0-1,0-1.6l-2.1,0.1l-0.6,5.6l-1,0.1
				l1.4-11.9l1-0.1l-0.6,5.5l2.1-0.1v-0.4c0.1-1,0.4-2,0.9-2.8c0.5-0.9,1.1-1.5,1.8-1.9c0.7-0.4,1.5-0.7,2.3-0.7
				c0.7,0,1.4,0.1,1.9,0.4s1,0.8,1.4,1.4c0.3,0.6,0.5,1.3,0.6,2.1c0,0.5,0,0.9,0,1.4l-0.1,1.3c-0.1,1.1-0.4,2.1-0.9,3s-1,1.5-1.8,2
				C331.3,127.6,330.5,127.8,329.6,127.9z M333.8,119.8c0-0.7-0.2-1.3-0.4-1.8c-0.2-0.5-0.6-0.9-1-1.2c-0.4-0.3-0.9-0.4-1.5-0.4
				c-1.1,0-2,0.5-2.7,1.3s-1.2,2-1.3,3.3c-0.1,1.1-0.2,1.9-0.1,2.5c0.1,1.1,0.4,1.9,0.9,2.5s1.2,0.9,2.1,0.8c1.1,0,2-0.5,2.7-1.3
				c0.7-0.9,1.1-2,1.3-3.3C333.8,121.2,333.8,120.3,333.8,119.8z"/>
			<path style="fill:#FFFFFF;" d="M349.9,122.8c-0.2,1.2-0.7,2.2-1.5,3c-0.8,0.7-1.8,1.1-3,1.2c-1.1,0-1.9-0.3-2.6-1
				s-1.1-1.7-1.2-2.9c0-0.4,0-0.8,0-1.3l0.1-1.4c0.1-1.1,0.4-2.1,0.8-3c0.5-0.9,1-1.5,1.7-2s1.5-0.7,2.4-0.7c1.1,0,2,0.3,2.7,0.9
				c0.7,0.7,1,1.6,1.1,2.7h-1c-0.1-0.9-0.3-1.7-0.8-2.2s-1.2-0.7-2-0.7c-1.1,0-2,0.5-2.7,1.4s-1.1,2-1.3,3.5l-0.1,1.6v0.7
				c0,0.6,0.2,1.2,0.4,1.8c0.2,0.5,0.5,0.9,1,1.2c0.4,0.3,0.9,0.4,1.4,0.4c0.9,0,1.7-0.3,2.3-0.8s1-1.3,1.3-2.4L349.9,122.8z"/>
			<path style="fill:#FFFFFF;" d="M361.2,114.9l-3.9,0.2l-1.3,11.1l-1,0.1l1.3-11.1l-3.9,0.2l0.1-0.9l8.8-0.5L361.2,114.9z"/>
			<path style="fill:#FFFFFF;" d="M368.2,122.1l-5.2,0.3l-1.6,3.4l-1.1,0.1l5.7-12.2l1-0.1l3,11.7l-1,0.1L368.2,122.1z M363.4,121.6
				l4.6-0.3l-1.5-6.3L363.4,121.6z"/>
			<path style="fill:#FFFFFF;" d="M372.2,125.2l1.4-11.9l3.3-0.2c1.1,0,2,0.2,2.6,0.7s0.9,1.2,0.9,2.2c0,0.6-0.2,1.2-0.6,1.7
				s-0.9,0.9-1.5,1.1c0.6,0.1,1,0.5,1.4,0.9c0.3,0.5,0.5,1.1,0.5,1.7c0,1-0.4,1.9-1.1,2.5c-0.7,0.7-1.7,1-2.9,1.1L372.2,125.2z
				 M373.9,119.4l-0.6,4.9l2.8-0.2c0.9,0,1.6-0.3,2.1-0.8c0.6-0.5,0.9-1.1,0.9-1.9c0-0.7-0.2-1.2-0.6-1.6s-1-0.6-1.7-0.6
				L373.9,119.4z M373.9,118.6l2.6-0.1c0.8-0.1,1.5-0.3,2-0.8c0.5-0.4,0.8-1,0.8-1.7c0.1-1.4-0.8-2-2.4-2l-2.5,0.1L373.9,118.6z"/>
			<path style="fill:#FFFFFF;" d="M385.9,118.9l-1.6,0.1l-0.6,5.6l-1,0.1l1.4-11.9l1-0.1l-0.6,5.5l1.5-0.1l5.1-5.7l1.3-0.1l-5.4,6.2
				l4.3,5.7l-1.1,0.1L385.9,118.9z"/>
			<path style="fill:#FFFFFF;" d="M397.7,119.5l4.1-7.8l1.2-0.1l-5.5,10.2c-0.4,0.9-0.9,1.5-1.4,1.8c-0.5,0.4-1,0.6-1.7,0.6
				c-0.2,0-0.5,0-0.8-0.1l0.1-0.8c0.2,0,0.4,0,0.7,0c0.4,0,0.7-0.2,1.1-0.4c0.3-0.3,0.6-0.7,1-1.3l0.5-1l-3.3-8.5l1.1-0.1
				L397.7,119.5z"/>
		</g>
		<g>
			<path style="fill:#FDC000;" d="M63.4,159l-5.6,0.3L56,175.2l-3.8,0.2l1.8-15.9l-5.5,0.3l0.4-3.2l15-0.9L63.4,159z"/>
			<path style="fill:#FDC000;" d="M69.4,162.3l2.5-0.1c2.1-0.1,3.7,0.3,5,1.3c1.2,1,1.8,2.4,1.8,4.2c0,1.9-0.7,3.4-2.1,4.7
				s-3.2,1.9-5.4,2l-7,0.4l2.2-19.1l3.8-0.2L69.4,162.3z M69,165.5l-0.7,5.9l2.8-0.1c1-0.1,1.9-0.4,2.5-1c0.7-0.6,1.1-1.4,1.2-2.4
				c0.1-0.8-0.1-1.4-0.6-1.9s-1.1-0.7-2-0.7L69,165.5z M83.3,173.6l-3.8,0.2l2.2-19.1l3.8-0.2L83.3,173.6z"/>
			<path style="fill:#FDC000;" d="M101.2,161.4c1-0.1,1.7-0.4,2.3-0.9c0.6-0.5,0.9-1.2,0.9-2c0-0.7-0.2-1.2-0.6-1.6
				c-0.5-0.4-1.1-0.5-1.9-0.5s-1.5,0.3-2,0.7c-0.6,0.4-0.9,1-1,1.7l-3.8,0.2c0-1.1,0.3-2,0.9-2.9s1.4-1.5,2.5-2.1
				c1.1-0.5,2.2-0.8,3.5-0.9c1.3-0.1,2.4,0.1,3.4,0.5s1.8,1,2.3,1.7c0.5,0.8,0.7,1.7,0.7,2.7c0,1.8-1.1,3.3-3.3,4.5
				c0.9,0.4,1.5,0.9,2,1.6c0.4,0.7,0.7,1.5,0.6,2.5c0,1.2-0.3,2.2-0.9,3.1c-0.6,0.9-1.5,1.6-2.7,2.1s-2.4,0.8-3.8,0.9
				c-1.2,0.1-2.3-0.1-3.3-0.5s-1.8-1-2.3-1.8c-0.6-0.8-0.9-1.7-0.9-2.8l3.8-0.2c0,0.7,0.3,1.3,0.8,1.7s1.2,0.6,2,0.6
				c1,0,1.8-0.3,2.5-0.8s1.1-1.2,1.1-2c0.1-0.9-0.1-1.6-0.6-2s-1.1-0.6-2-0.6l-2.5,0.1l0.4-3.1L101.2,161.4z"/>
			<path style="fill:#FDC000;" d="M121,167.6l-6.6,0.4l-1.7,4l-4.2,0.2l9-19.5l3.5-0.2l4.7,18.7l-3.9,0.2L121,167.6z M115.8,164.7
				l4.6-0.3l-1.5-7L115.8,164.7z"/>
			<path style="fill:#FDC000;" d="M141.8,154.5l-8.2,0.5l-0.4,3.7l2.5-0.1c2.1-0.1,3.7,0.3,5,1.3c1.2,1,1.8,2.4,1.8,4.2
				c0,1.9-0.7,3.4-2.1,4.7c-1.4,1.2-3.2,1.9-5.4,2l-7,0.4l2.2-19.1l12-0.7L141.8,154.5z M132.8,161.8l-0.7,5.9l2.8-0.1
				c1-0.1,1.9-0.4,2.5-1c0.7-0.6,1.1-1.4,1.2-2.4c0.1-0.8-0.1-1.4-0.6-1.9s-1.1-0.7-2-0.7L132.8,161.8z"/>
			<path style="fill:#FDC000;" d="M157.6,150.4l4-0.2l-2.2,19.1l-3.8,0.2l1.4-12.4l-8.6,12.9l-3.9,0.2l2.2-19.1l3.8-0.2l-1.4,12.5
				L157.6,150.4z"/>
			<path style="fill:#FDC000;" d="M167.6,162.1l-0.8,6.7L163,169l2.2-19.1l6.6-0.4c2-0.1,3.7,0.4,4.9,1.4c1.2,1.1,1.8,2.5,1.8,4.4
				s-0.7,3.4-2.1,4.6s-3.1,1.8-5.3,2L167.6,162.1z M167.9,158.9l3.2-0.2c1-0.1,1.9-0.4,2.5-0.9c0.6-0.6,1-1.3,1.1-2.2
				s-0.1-1.6-0.6-2.1s-1.1-0.8-1.9-0.8l-3.6,0.2L167.9,158.9z"/>
			<path style="fill:#FDC000;" d="M188.6,163.7L182,164l-1.7,4l-4.2,0.2l9-19.5l3.5-0.2l4.7,18.7l-3.9,0.2L188.6,163.7z
				 M183.4,160.8l4.6-0.3l-1.5-7L183.4,160.8z"/>
			<path style="fill:#FDC000;" d="M207.5,158.2l-7.3,0.4l-0.6,5.1l8.5-0.5l-0.4,3.2l-12.3,0.7l2.2-19.1l12.3-0.7l-0.4,3.2L201,151
				l-0.5,4.6l7.3-0.4L207.5,158.2z"/>
			<path style="fill:#FDC000;" d="M216.4,147l-1.8,15.9l5.1-0.3l1.8-15.9l3.8-0.2l-1.8,15.9l5-0.3l1.8-15.9l3.8-0.2l-2.2,19.1
				l-21.5,1.2l2.2-19.1L216.4,147z"/>
			<path style="fill:#FDC000;" d="M240.7,152.4l2.5-0.1c2.1-0.1,3.7,0.3,5,1.3c1.2,1,1.8,2.4,1.8,4.2c0,1.9-0.7,3.4-2.1,4.7
				c-1.4,1.2-3.2,1.9-5.4,2l-7,0.4l2.2-19.1l3.8-0.2L240.7,152.4z M240.4,155.6l-0.7,5.9l2.8-0.1c1-0.1,1.9-0.4,2.5-1
				c0.7-0.6,1.1-1.4,1.2-2.4c0.1-0.8-0.1-1.4-0.6-1.9s-1.1-0.7-2-0.7L240.4,155.6z"/>
			<path style="fill:#FDC000;" d="M258.9,163.5l2.2-19.1l5.9-0.3c2.2-0.1,3.9,0.2,5,1.1c1.2,0.8,1.7,2,1.7,3.6c0,1.9-1,3.4-3.1,4.4
				c0.8,0.2,1.4,0.7,1.8,1.4c0.5,0.7,0.7,1.5,0.7,2.5c0,1.8-0.6,3.2-1.9,4.3c-1.2,1.1-2.9,1.7-5.1,1.8L258.9,163.5z M263.7,155
				l-0.6,5.2l3-0.2c0.9-0.1,1.7-0.3,2.3-0.8s0.9-1.1,1-1.9c0.1-0.8-0.1-1.4-0.4-1.8c-0.4-0.4-0.9-0.6-1.7-0.6L263.7,155z M264,152.2
				l2.6-0.1c1-0.1,1.7-0.3,2.3-0.8c0.6-0.5,0.9-1.1,1-1.9c0.1-1.5-0.7-2.3-2.5-2.2l-2.8,0.1L264,152.2z"/>
			<path style="fill:#FDC000;" d="M281.1,150.1l2.5-0.1c2.1-0.1,3.7,0.3,5,1.3c1.2,1,1.8,2.4,1.8,4.2c0,1.9-0.7,3.4-2.1,4.7
				c-1.4,1.2-3.2,1.9-5.4,2l-7,0.4l2.2-19.1l3.8-0.2L281.1,150.1z M280.7,153.3l-0.7,5.9l2.8-0.1c1-0.1,1.9-0.4,2.5-1
				c0.7-0.6,1.1-1.4,1.2-2.4c0.1-0.8-0.1-1.4-0.6-1.9s-1.1-0.7-2-0.7L280.7,153.3z M295,161.4l-3.8,0.2l2.2-19.1l3.8-0.2L295,161.4z
				"/>
			<path style="fill:#FDC000;" d="M311.8,141.5l4-0.2l-2.2,19.1l-3.8,0.2l1.4-12.4l-8.6,12.9l-3.9,0.2l2.2-19.1l3.8-0.2l-1.4,12.5
				L311.8,141.5z"/>
			<path style="fill:#FDC000;" d="M331,143.6l-8.2,0.5L321,160l-3.8,0.2l2.2-19.1l12-0.7L331,143.6z"/>
			<path style="fill:#FDC000;" d="M336.5,152.4l-0.8,6.7l-3.8,0.2l2.2-19.1l6.6-0.4c2-0.1,3.7,0.4,4.9,1.4c1.2,1.1,1.8,2.5,1.8,4.4
				s-0.7,3.4-2.1,4.6c-1.3,1.2-3.1,1.8-5.3,2L336.5,152.4z M336.9,149.2l3.2-0.2c1-0.1,1.9-0.4,2.5-0.9c0.6-0.6,1-1.3,1.1-2.2
				s-0.1-1.6-0.6-2.1s-1.1-0.8-1.9-0.8l-3.6,0.2L336.9,149.2z"/>
			<path style="fill:#FDC000;" d="M354.3,145.9l2.5-0.1c2.1-0.1,3.7,0.3,5,1.3c1.2,1,1.8,2.4,1.8,4.2c0,1.9-0.7,3.4-2.1,4.7
				s-3.2,1.9-5.4,2l-7,0.4l2.2-19.1l3.8-0.2L354.3,145.9z M353.9,149.1l-0.7,5.9l2.8-0.1c1-0.1,1.9-0.4,2.5-1
				c0.7-0.6,1.1-1.4,1.2-2.4c0.1-0.8-0.1-1.4-0.6-1.9s-1.1-0.7-2-0.7L353.9,149.1z M368.2,157.2l-3.8,0.2l2.2-19.1l3.8-0.2
				L368.2,157.2z"/>
			<path style="fill:#FDC000;" d="M377.9,137.7l-1.8,15.9l5.1-0.3l1.8-15.9l3.8-0.2l-1.8,15.9l5-0.3l1.8-15.9l3.8-0.2l-2.2,19.1
				l-21.5,1.2l2.2-19.1L377.9,137.7z"/>
			<path style="fill:#FDC000;" d="M397.2,153.8c-0.1-0.6,0.1-1.1,0.5-1.5s0.8-0.6,1.4-0.7c0.6,0,1,0.1,1.5,0.4
				c0.4,0.3,0.7,0.8,0.7,1.4c0.1,0.6-0.1,1.1-0.5,1.5s-0.8,0.7-1.4,0.7s-1.1-0.1-1.5-0.5C397.4,154.8,397.2,154.4,397.2,153.8z
				 M401.2,149.5l-3.1,0.2l1.1-13.2l3.9-0.2L401.2,149.5z"/>
		</g>
	</g>
	<g>
		<g>
			<defs>
				<polygon id="SVGID_1_" points="434.6,140.4 -0.5,140.4 15.4,-15 450.5,-15 				"/>
			</defs>
			<clipPath id="SVGID_2_">
				<use xlink:href="#SVGID_1_"  style="overflow:visible;"/>
			</clipPath>
			<polygon style="clip-path:url(#SVGID_2_);fill:#D71015;" points="387.5,37 256.2,44.4 260.4,2.3 259.7,2.3 7,16.7 -10.4,60.4 
				-1.1,59.9 -6.8,116.8 381.7,94.9 382.3,94.9 388.2,36.9 			"/>
		</g>
	</g>
	<g>
		<g style="opacity:0.15;">
			<path d="M22.1,96.4l3.3-2.9L29,73.7l21.4-1.2L47.7,95l3.1-0.2l-1.6,13.6l-9,0.5l0.8-6.4l-12,0.7l-0.8,6.4l-9,0.5l1.5-13.6
				L22.1,96.4z M31.8,95.8l6.9-0.4l1.8-15.3l-4,0.2l-2.4,13.4L31.8,95.8z"/>
			<path d="M77.9,70.9L77,78.1l-13.2,0.8l-0.5,4.2l9.4-0.5l-0.8,6.8l-9.4,0.5L62,94.1l13.6-0.8l-0.8,7.2l-22.6,1.3l3.5-29.7
				L77.9,70.9z"/>
			<path d="M86.1,99.9l-9,0.5l3.5-29.7l9-0.5l-1.3,11.2l6.9-0.4l1.3-11.2l9-0.5L102.1,99l-9,0.5l1.3-11.2l-6.9,0.4L86.1,99.9z"/>
			<path d="M126.2,77.4l4.5,4.4l-1.3,11l-5.6,4.9l-19.3,1.1l3.5-29.7l9-0.5l-1,9.4L126.2,77.4z M120.8,89.9l0.5-4.2l-0.8-0.8
				l-5.5,0.3l-0.7,5.9l5.5-0.3L120.8,89.9z"/>
			<path d="M155.6,66.4l-0.9,7.2l-12.2,0.7L140,96.8l-9,0.5l3.5-29.7L155.6,66.4z"/>
			<path d="M171,95l1.6-13.6h-0.2l-9.3,14l-8.4,0.5l3.5-29.7l9-0.5l-1.6,13.6h0.2l9.3-14l8.4-0.5L180,94.5L171,95z"/>
			<path d="M207.8,81.1l0.8-6.8l6.9-0.4l1.8-1.6l0.2-1.5l-0.7-0.8l-12.4,0.7l0.9-7.2l17.8-1l3.9,3.8l-0.9,7.8l-2.8,2.5l2.8,2.8
				l-1,8.5l-4.8,4.3l-18.9,1.1l0.8-7.2l13.4-0.8l1-0.9l0.3-2.3l-1.3-1.4L207.8,81.1z"/>
			<path d="M236.9,85.4l-2.6,6l-9.2,0.5L238,61.7l11.7-0.7l6,29.1l-9.2,0.5l-1.2-5.8L236.9,85.4z M240.1,78l3.8-0.2l-1.1-6.5
				L240.1,78z"/>
			<path d="M257,90.1l3.5-29.7l23.3-1.3l-0.9,7.2l-14.3,0.8l-0.4,3.4l11.3-0.6l4.5,4.4l-1.1,9.7l-5.6,4.9L257,90.1z M274.3,81.1
				l0.4-3.4l-0.7-0.8l-6.5,0.4l-0.6,5.1l6.5-0.4L274.3,81.1z"/>
			<path d="M294.2,80.2l-0.9,7.8l-9,0.5l3.5-29.7l19.7-1.1l4.5,4.4l-1.5,12.5l-5.6,5L294.2,80.2z M301.8,65.2l-5.9,0.3L295,73
				l5.9-0.3l1-0.9l0.6-5.7L301.8,65.2z"/>
			<path d="M318.7,80.7l-2.6,6l-9.2,0.5L319.8,57l11.7-0.7l6,29.1l-9.2,0.5l-1.2-5.8L318.7,80.7z M321.8,73.4l3.8-0.2l-1.1-6.5
				L321.8,73.4z"/>
			<path d="M348.3,55.4l21.8-1.2l-3.5,29.7l-9,0.5l2.6-22.5l-4.4,0.3L352.7,80l-6,5.4l-8,0.5l0.9-7.2l2.1-0.1l3-2.5L348.3,55.4z"/>
		</g>
		<g>
			<g>
				<path style="fill:#FFFFFF;" d="M19.1,93.4l3.3-2.9L26,70.7l21.4-1.2L44.7,92l3.1-0.2l-1.6,13.6l-9,0.5l0.8-6.4l-12,0.7l-0.8,6.4
					l-9,0.5l1.5-13.6L19.1,93.4z M28.8,92.8l6.9-0.4l1.8-15.3l-4,0.2l-2.4,13.4L28.8,92.8z"/>
				<path style="fill:#FFFFFF;" d="M74.9,67.9L74,75.1l-13.2,0.8l-0.5,4.2l9.4-0.5l-0.8,6.8l-9.4,0.5L59,91.1l13.6-0.8l-0.8,7.2
					l-22.6,1.3l3.5-29.7L74.9,67.9z"/>
				<path style="fill:#FFFFFF;" d="M83.1,96.9l-9,0.5l3.5-29.7l9-0.5l-1.3,11.2l6.9-0.4l1.3-11.2l9-0.5L99.1,96l-9,0.5l1.3-11.2
					l-6.9,0.4L83.1,96.9z"/>
				<path style="fill:#FFFFFF;" d="M123.2,74.4l4.5,4.4l-1.3,11l-5.6,4.9l-19.3,1.1l3.5-29.7l9-0.5l-1,9.4L123.2,74.4z M117.8,86.9
					l0.5-4.2l-0.8-0.8l-5.5,0.3l-0.7,5.9l5.5-0.3L117.8,86.9z"/>
				<path style="fill:#FFFFFF;" d="M152.6,63.4l-0.9,7.2l-12.2,0.7L137,93.8l-9,0.5l3.5-29.7L152.6,63.4z"/>
				<path style="fill:#FFFFFF;" d="M168,92l1.6-13.6h-0.2l-9.3,14l-8.4,0.5l3.5-29.7l9-0.5l-1.6,13.6h0.2l9.3-14l8.4-0.5L177,91.5
					L168,92z"/>
				<path style="fill:#FFFFFF;" d="M204.8,78.1l0.8-6.8l6.9-0.4l1.8-1.6l0.2-1.5l-0.7-0.8l-12.4,0.7l0.9-7.2l17.8-1l3.9,3.8
					l-0.9,7.8l-2.8,2.5l2.8,2.8l-1,8.5l-4.8,4.3l-18.9,1.1l0.8-7.2l13.4-0.8l1-0.9l0.3-2.3l-1.3-1.4L204.8,78.1z"/>
				<path style="fill:#FFFFFF;" d="M233.9,82.4l-2.6,6l-9.2,0.5L235,58.7l11.7-0.7l6,29.1l-9.2,0.5l-1.2-5.8L233.9,82.4z M237.1,75
					l3.8-0.2l-1.1-6.5L237.1,75z"/>
				<path style="fill:#FFFFFF;" d="M254,87.1l3.5-29.7l23.3-1.3l-0.9,7.2l-14.3,0.8l-0.4,3.4l11.3-0.6l4.5,4.4l-1.1,9.7l-5.6,4.9
					L254,87.1z M271.3,78.1l0.4-3.4l-0.7-0.8l-6.5,0.4l-0.6,5.1l6.5-0.4L271.3,78.1z"/>
				<path style="fill:#FFFFFF;" d="M291.2,77.2l-0.9,7.8l-9,0.5l3.5-29.7l19.7-1.1l4.5,4.4l-1.5,12.5l-5.6,5L291.2,77.2z
					 M298.8,62.2l-5.9,0.3L292,70l5.9-0.3l1-0.9l0.6-5.7L298.8,62.2z"/>
				<path style="fill:#FFFFFF;" d="M315.7,77.7l-2.6,6l-9.2,0.5L316.8,54l11.7-0.7l6,29.1l-9.2,0.5l-1.2-5.8L315.7,77.7z
					 M318.8,70.4l3.8-0.2l-1.1-6.5L318.8,70.4z"/>
				<path style="fill:#FFFFFF;" d="M345.3,52.4l21.8-1.2l-3.5,29.7l-9,0.5l2.6-22.5l-4.4,0.3L349.7,77l-6,5.4l-8,0.5l0.9-7.2
					l2.1-0.1l3-2.5L345.3,52.4z"/>
			</g>
		</g>
	</g>
	<g>
		<g style="opacity:0.15;">
			<path d="M36.8,42.9l-0.4,3.9L31.8,47l1.7-14.8l9.9-0.6l2.3,2.2L45,40l-2.8,2.5L36.8,42.9z M40.6,35.4l-2.9,0.2l-0.4,3.7l2.9-0.2
				l0.5-0.4l0.3-2.9L40.6,35.4z"/>
			<path d="M58.7,30.8l-0.4,3.6l-6.6,0.4l-0.3,2.1l4.7-0.3L55.8,40L51,40.3l-0.3,2.1l6.8-0.4l-0.4,3.6l-11.3,0.6l1.7-14.8L58.7,30.8
				z"/>
			<path d="M61.8,39.4l0.4-3.4l3.5-0.2l0.9-0.8l0.1-0.7l-0.4-0.4l-6.2,0.4l0.4-3.6l8.9-0.5l2,1.9L70.9,36l-1.4,1.2l1.4,1.4l-0.5,4.2
				L68,45l-9.4,0.5l0.4-3.6l6.7-0.4l0.5-0.4l0.1-1.2l-0.7-0.7L61.8,39.4z"/>
			<path d="M86.4,29.2l-6.9,15.1L75,44.6l1.5-3.2l-1.5,0L72.1,30l4.5-0.3l1.7,7.6h0.1l3.4-7.9L86.4,29.2z"/>
			<path d="M88.2,29.1l10.9-0.6l-1.7,14.8l-4.5,0.3l1.3-11.2L92,32.5l-1.6,8.9l-3,2.7l-4,0.2l0.4-3.6l1-0.1l1.5-1.2L88.2,29.1z"/>
			<path d="M110.5,32.5l2.2,2.2l-0.7,5.5l-2.8,2.5l-9.6,0.6l1.7-14.8l4.5-0.3l-0.6,4.7L110.5,32.5z M107.8,38.7l0.3-2.1l-0.4-0.4
				l-2.7,0.2l-0.4,3l2.7-0.2L107.8,38.7z"/>
			<path d="M114.2,42.3l1.3-11.2l-3.5,0.2l0.4-3.6l11.4-0.7l-0.4,3.6l-3.5,0.2L118.6,42L114.2,42.3z"/>
			<path d="M126.6,38.7l-1.3,3l-4.6,0.3l6.5-15.1l5.9-0.3l3,14.6l-4.6,0.3l-0.6-2.9L126.6,38.7z M128.2,35l1.9-0.1l-0.6-3.2
				L128.2,35z"/>
			<path d="M138,41l1.3-11.2l-3.5,0.2l0.4-3.6l11.4-0.7l-0.4,3.6l-3.5,0.2l-1.3,11.2L138,41z"/>
			<path d="M170.8,24.4l-6.9,15.1l-4.5,0.3l1.5-3.2l-1.6,0.1l-2.8-11.4L161,25l1.7,7.6h0.1l3.4-7.9L170.8,24.4z"/>
			<path d="M182.8,23.7l-0.4,3.6l-6.1,0.3L175,38.9l-4.5,0.3l1.7-14.8L182.8,23.7z"/>
			<path d="M184.9,35.4l-1.3,3l-4.6,0.3l6.5-15.1l5.9-0.3l3,14.6l-4.6,0.3l-0.6-2.9L184.9,35.4z M186.5,31.7l1.9-0.1l-0.6-3.2
				L186.5,31.7z"/>
			<path d="M196.4,34.1l1.6-1.5l1.8-9.9l10.7-0.6l-1.3,11.2l1.6-0.1L210,40l-4.5,0.3l0.4-3.2l-6,0.3l-0.4,3.2l-4.5,0.3l0.8-6.8
				H196.4z M201.2,33.8l3.5-0.2l0.9-7.6l-2,0.1l-1.2,6.7L201.2,33.8z"/>
			<path d="M217.3,33.5l-1.3,3l-4.6,0.3l6.5-15.1l5.9-0.3l3,14.6l-4.6,0.3l-0.6-2.9L217.3,33.5z M218.9,29.8l1.9-0.1l-0.6-3.2
				L218.9,29.8z"/>
			<path d="M232.3,20.9l10.9-0.6l-1.7,14.8l-4.5,0.3l1.3-11.2l-2.2,0.1l-1.6,8.9l-3,2.7l-4,0.2l0.4-3.6l1-0.1l1.5-1.2L232.3,20.9z"
				/>
		</g>
		<g>
			<g>
				<path style="fill:#FFFFFF;" d="M33.8,39.9l-0.4,3.9L28.8,44l1.7-14.8l9.9-0.6l2.3,2.2L42,37l-2.8,2.5L33.8,39.9z M37.6,32.4
					l-2.9,0.2l-0.4,3.7l2.9-0.2l0.5-0.4l0.3-2.9L37.6,32.4z"/>
				<path style="fill:#FFFFFF;" d="M55.7,27.8l-0.4,3.6l-6.6,0.4l-0.3,2.1l4.7-0.3L52.8,37L48,37.3l-0.3,2.1l6.8-0.4l-0.4,3.6
					l-11.3,0.6l1.7-14.8L55.7,27.8z"/>
				<path style="fill:#FFFFFF;" d="M58.8,36.4l0.4-3.4l3.5-0.2l0.9-0.8l0.1-0.7l-0.4-0.4l-6.2,0.4l0.4-3.6l8.9-0.5l2,1.9L67.9,33
					l-1.4,1.2l1.4,1.4l-0.5,4.2L65,42l-9.4,0.5l0.4-3.6l6.7-0.4l0.5-0.4l0.1-1.2l-0.7-0.7L58.8,36.4z"/>
				<path style="fill:#FFFFFF;" d="M83.4,26.2l-6.9,15.1L72,41.6l1.5-3.2l-1.5,0L69.1,27l4.5-0.3l1.7,7.6h0.1l3.4-7.9L83.4,26.2z"/>
				<path style="fill:#FFFFFF;" d="M85.2,26.1l10.9-0.6l-1.7,14.8l-4.5,0.3l1.3-11.2L89,29.5l-1.6,8.9l-3,2.7l-4,0.2l0.4-3.6l1-0.1
					l1.5-1.2L85.2,26.1z"/>
				<path style="fill:#FFFFFF;" d="M107.5,29.5l2.2,2.2l-0.7,5.5l-2.8,2.5l-9.6,0.6l1.7-14.8l4.5-0.3l-0.6,4.7L107.5,29.5z
					 M104.8,35.7l0.3-2.1l-0.4-0.4l-2.7,0.2l-0.4,3l2.7-0.2L104.8,35.7z"/>
				<path style="fill:#FFFFFF;" d="M111.2,39.3l1.3-11.2l-3.5,0.2l0.4-3.6l11.4-0.7l-0.4,3.6l-3.5,0.2L115.6,39L111.2,39.3z"/>
				<path style="fill:#FFFFFF;" d="M123.6,35.7l-1.3,3l-4.6,0.3l6.5-15.1l5.9-0.3l3,14.6l-4.6,0.3l-0.6-2.9L123.6,35.7z M125.2,32
					l1.9-0.1l-0.6-3.2L125.2,32z"/>
				<path style="fill:#FFFFFF;" d="M135,38l1.3-11.2l-3.5,0.2l0.4-3.6l11.4-0.7l-0.4,3.6l-3.5,0.2l-1.3,11.2L135,38z"/>
				<path style="fill:#FFFFFF;" d="M167.8,21.4l-6.9,15.1l-4.5,0.3l1.5-3.2l-1.6,0.1l-2.8-11.4L158,22l1.7,7.6h0.1l3.4-7.9
					L167.8,21.4z"/>
				<path style="fill:#FFFFFF;" d="M179.8,20.7l-0.4,3.6l-6.1,0.3L172,35.9l-4.5,0.3l1.7-14.8L179.8,20.7z"/>
				<path style="fill:#FFFFFF;" d="M181.9,32.4l-1.3,3l-4.6,0.3l6.5-15.1l5.9-0.3l3,14.6l-4.6,0.3l-0.6-2.9L181.9,32.4z M183.5,28.7
					l1.9-0.1l-0.6-3.2L183.5,28.7z"/>
				<path style="fill:#FFFFFF;" d="M193.4,31.1l1.6-1.5l1.8-9.9l10.7-0.6l-1.3,11.2l1.6-0.1L207,37l-4.5,0.3l0.4-3.2l-6,0.3
					l-0.4,3.2l-4.5,0.3l0.8-6.8L193.4,31.1z M198.2,30.8l3.5-0.2l0.9-7.6l-2,0.1l-1.2,6.7L198.2,30.8z"/>
				<path style="fill:#FFFFFF;" d="M214.3,30.5l-1.3,3l-4.6,0.3l6.5-15.1l5.9-0.3l3,14.6l-4.6,0.3l-0.6-2.9L214.3,30.5z M215.9,26.8
					l1.9-0.1l-0.6-3.2L215.9,26.8z"/>
				<path style="fill:#FFFFFF;" d="M229.3,17.9l10.9-0.6l-1.7,14.8l-4.5,0.3l1.3-11.2l-2.2,0.1l-1.6,8.9l-3,2.7l-4,0.2l0.4-3.6
					l1-0.1l1.5-1.2L229.3,17.9z"/>
			</g>
		</g>
	</g>
</g>
</svg>
