<svg xmlns="http://www.w3.org/2000/svg" xmlns:xlink="http://www.w3.org/1999/xlink" viewBox="0 0 670 110"><defs><path id="a" d="M656 136l-658 1L14-14h657z"/></defs><clipPath id="b"><use xlink:href="#a" overflow="visible"/></clipPath><path clip-path="url(#b)" fill="#d71015" d="M667.1 70.1l-675.6 39L2.4 42.4 678 3.4z"/><g clip-path="url(#b)"><path d="M130.1 53.5L114.4 88l-10.3.6 3.5-7.4-3.6.2-6.5-26.1 10.3-.6 3.9 17.3h.2l7.8-18 10.4-.5zm27.5-1.6l-1 8.2-13.9.8-3 25.7-10.3.6 4-33.9 24.2-1.4zm6.6 26.5l-2.9 6.9-10.5.6 14.7-34.5 13.4-.8 6.8 33.3-10.5.6-1.4-6.7-9.6.6zm3.6-8.4l4.3-.2-1.3-7.4-3 7.6zm20.8 5.6l3.8-3.3 4.1-22.6 24.4-1.4-3 25.7 3.6-.2-1.8 15.5-10.3.6.9-7.3-13.7.8-.9 7.3-10.3.6 1.8-15.5 1.4-.2zm11-.7l7.9-.5 2.1-17.4-4.6.3-2.8 15.3-2.6 2.3zm35.8-.6l-2.9 6.9-10.5.6 14.7-34.5 13.4-.8 6.8 33.3-10.5.6-1.4-6.7-9.6.6zm3.6-8.4l4.3-.2-1.3-7.4-3 7.6zm40.4 12.6l1.8-15.5h-.2l-10.7 16-9.6.6 4-33.9 10.3-.6-1.8 15.5h.2l10.7-16 9.6-.6-4 33.9-10.3.6zM275 42.2l-3.7-3.4.6-5.3 6.5-.4-.2 1.9 1.1.9 1.9-.1 1.3-1 .2-1.9 6.5-.4-.6 5.3-4.5 3.9-9.1.5zm44.1 30l1.3-11.6h-.2l-8 12-7.2.4 3-25.4 7.7-.4-1.3 11.6h.2l8-12 7.2-.4-3 25.4-7.7.4zm32-1.8l-14.7.8-4.2-4.1 2-16.7 5.2-4.6 14.7-.8-.7 6.2-11 .6-.8.8-1.3 11.6.6.7 11-.6-.8 6.1zm14.7-8.4l-5.6 7.9-7.9.5 9.4-13.3-5.9-12.1 7.9-.5 3.3 6.8h.2l5-7.3 7.9-.5-8.8 12.9 6.4 12.4-7.9.5-3.8-7.4-.2.1zm33.8-20l4.2 4.1-2.1 17.4-5.2 4.6-12.9.7-4.2-4.1 2.1-17.4 5.2-4.6 12.9-.7zm-10.7 7.5l-1.5 12.3.7.7 5.4-.3.8-.8 1.5-12.3-.6-.7-5.4.3-.9.8zM405 61.1l2.8-2.5 3.1-16.9 18.3-1.1-2.3 19.2 2.7-.2-1.3 11.6-7.7.4.7-5.4-10.2.6-.7 5.4-7.7.4L404 61l1 .1zm8.2-.4l5.9-.3 1.6-13.1-3.4.2-2.1 11.5-2 1.7zm39.6-1.2l-2.5-6.2h-.2l-1.3 11.4-7.7.4 3-25.4 7.7-.4 4.2 10h.2l6.6-10.7 7.7-.4-3 25.4-7.7.4 1.3-11.4h-.2l-4 6.5-4.1.4zm27.7-1.6l-2.2 5.2-7.9.5 11.1-25.9 10.1-.6 5.1 24.9-7.9.5-1-5-7.3.4zm2.7-6.3l3.2-.2-1-5.5-2.2 5.7zm19 10.1l2.2-19.2-5.9.3.7-6.2 19.6-1.1-.7 6.2-5.9.3-2.2 19.2-7.8.5zm19.5-26.4l7.7-.4-1.2 10 1.3 1.2 4-.2 1.3-11.3 7.7-.4-3 25.4-7.7.4.9-8-9 .5-3.7-3.6 1.7-13.6zm30.9 18.4l-2.2 5.2-7.9.5 11.1-25.9 10.1-.6 5.1 24.9-7.9.5-1-5-7.3.4zm2.7-6.3l3.2-.2-1-5.5-2.2 5.7zm16.3 10.3l.7-6.2 7-.4-.7 6.2-7 .4zm9.1-15.3l-2 6.6-5.2.3-.5-6.5 1.2-10.5 7.7-.4-1.2 10.5z" opacity=".15"/><path d="M127.1 50.5L111.4 85l-10.3.6 3.5-7.4-3.6.2-6.5-26.1 10.3-.6 3.9 17.3h.2l7.8-18 10.4-.5zm27.5-1.6l-1 8.2-13.9.8-3 25.7-10.3.6 4-33.9 24.2-1.4zm6.6 26.5l-2.9 6.9-10.5.6 14.7-34.5 13.4-.8 6.8 33.3-10.5.6-1.4-6.7-9.6.6zm3.6-8.4l4.3-.2-1.3-7.4-3 7.6zm20.8 5.6l3.8-3.3 4.1-22.6 24.4-1.4-3 25.7 3.6-.2-1.8 15.5-10.3.6.9-7.3-13.7.8-.9 7.3-10.3.6 1.8-15.5 1.4-.2zm11-.7l7.9-.5 2.1-17.4-4.6.3-2.8 15.3-2.6 2.3zm35.8-.6l-2.9 6.9-10.5.6 14.7-34.5 13.4-.8 6.8 33.3-10.5.6-1.4-6.7-9.6.6zm3.6-8.4l4.3-.2-1.3-7.4-3 7.6zm40.4 12.6l1.8-15.5h-.2l-10.7 16-9.6.6 4-33.9 10.3-.6-1.8 15.5h.2l10.7-16 9.6-.6-4 33.9-10.3.6zM272 39.2l-3.7-3.4.6-5.3 6.5-.4-.2 1.9 1.1.9 1.9-.1 1.3-1 .2-1.9 6.5-.4-.6 5.3-4.5 3.9-9.1.5z" fill="#fdc000"/><path d="M316.1 69.2l1.3-11.6h-.2l-8 12-7.2.4 3-25.4 7.7-.4-1.3 11.6h.2l8-12 7.2-.4-3 25.4-7.7.4zm32-1.8l-14.7.8-4.2-4.1 2-16.7 5.2-4.6 14.7-.8-.7 6.2-11 .6-.8.8-1.3 11.6.6.7 11-.6-.8 6.1zm14.7-8.4l-5.6 7.9-7.9.5 9.4-13.3-5.9-12.1 7.9-.5 3.3 6.8h.2l5-7.3 7.9-.5-8.8 12.9 6.4 12.4-7.9.5-3.8-7.4-.2.1zm33.8-20l4.2 4.1-2.1 17.4-5.2 4.6-12.9.7-4.2-4.1 2.1-17.4 5.2-4.6 12.9-.7zm-10.7 7.5l-1.5 12.3.7.7 5.4-.3.8-.8 1.5-12.3-.6-.7-5.4.3-.9.8zM402 58.1l2.8-2.5 3.1-16.9 18.3-1.1-2.3 19.2 2.7-.2-1.3 11.6-7.7.4.7-5.4-10.2.6-.7 5.4-7.7.4L401 58l1 .1zm8.2-.4l5.9-.3 1.6-13.1-3.4.2-2.1 11.5-2 1.7zm39.6-1.2l-2.5-6.2h-.2l-1.3 11.4-7.7.4 3-25.4 7.7-.4 4.2 10h.2l6.6-10.7 7.7-.4-3 25.4-7.7.4 1.3-11.4h-.2l-4 6.5-4.1.4zm27.7-1.6l-2.2 5.2-7.9.5 11.1-25.9 10.1-.6 5.1 24.9-7.9.5-1-5-7.3.4zm2.7-6.3l3.2-.2-1-5.5-2.2 5.7zm19 10.1l2.2-19.2-5.9.3.7-6.2 19.6-1.1-.7 6.2-5.9.3-2.2 19.2-7.8.5zm19.5-26.4l7.7-.4-1.2 10 1.3 1.2 4-.2 1.3-11.3 7.7-.4-3 25.4-7.7.4.9-8-9 .5-3.7-3.6 1.7-13.6zm30.9 18.4l-2.2 5.2-7.9.5 11.1-25.9 10.1-.6 5.1 24.9-7.9.5-1-5-7.3.4zm2.7-6.3l3.2-.2-1-5.5-2.2 5.7zm16.3 10.3l.7-6.2 7-.4-.7 6.2-7 .4zm9.1-15.3l-2 6.6-5.2.3-.5-6.5 1.2-10.5 7.7-.4-1.2 10.5z" fill="#fff"/></g></svg>