<svg xmlns="http://www.w3.org/2000/svg" xmlns:xlink="http://www.w3.org/1999/xlink" viewBox="0 0 670 110"><defs><path id="a" d="M653 166H-4L13-6l658-4z"/></defs><clipPath id="b"><use xlink:href="#a" overflow="visible"/></clipPath><path clip-path="url(#b)" fill="#d71015" d="M663.4 69.1L-11.3 108-.4 41.3 674.3 2.4z"/><g clip-path="url(#b)"><path d="M170.2 50.7l20.4-1.2 4.5 4.3-1 8.5-3.4 3.1 3.4 3.4-1.2 9.7-5.5 4.9-21.6 1.2.9-8.2 15.3-.9 1.1-1 .4-2.9-1.5-1.4-8.4.5.9-7.7 7.7-.4 1.8-1.5.2-1.9-.8-.9-14.2.7 1-8.3zm63.3.8l-3 25.4-7.7.4 2.2-19.2-5.9.3-2.2 19.2-7.7.4 3-25.4 21.3-1.1zm10.9 17.9l-.8 6.7-7.7.4 3-25.4 16.9-1 3.9 3.7-1.3 10.7-4.8 4.2-9.2.7zm6.5-12.8l-5 .3-.8 6.4 5-.3.8-.8.5-4.9-.5-.7zm30.6-8.2l4.2 4.1-2.1 17.4-5.2 4.6-12.9.7-4.2-4.1 2.1-17.4 5.2-4.6 12.9-.7zm-10.7 7.4l-1.5 12.3.7.7 5.4-.3.8-.8 1.5-12.3-.6-.7-5.4.3-.9.8zm36.1 16.7l-14.7.8-4.2-4.1 2-16.7 5.2-4.6 14.7-.8-.7 6.2-11 .6-.8.8-1.4 11.6.6.7 11-.6-.7 6.1zm8.2-.5l2.2-19.2-5.9.3.7-6.2 19.6-1.1-.7 6.2-5.9.3-2.2 19.2-7.8.5zm35.5-19.3l3.9 3.7-1.1 9.4-4.8 4.2-16.2 1 3-25.4 7.7-.4-.9 8 8.4-.5zm-4.7 10.7l.4-3.6-.7-.7-4.3.2-.6 5.1 4.3-.2.9-.8zm17.6 5.8l-7.7.4 3-25.4 7.7-.4-3 25.4zm16-8.5l-5.6 7.9-7.9.5 9.4-13.3-5.9-12.1 7.9-.5 3.3 6.8h.2l5-7.3 7.9-.5-8.8 12.9 6.4 12.4-7.9.5-3.8-7.4-.2.1zm56.7-20.9l-3 25.4-30.7 1.8 3-25.4 7.7-.4-2.3 19.2 3.8-.2L417 41l7.7-.4-2.3 19.2 3.8-.2 2.3-19.2 7.7-.6zm10 19.6l-2.2 5.2-7.9.5 11.1-25.9 10.1-.6 5.1 24.9-7.9.5-1-5-7.3.4zm2.7-6.3l3.2-.2-1-5.5-2.2 5.7zm37.4-16.2l-.7 6.2-10.4.6-2.2 19.2-7.7.4 3-25.4 18-1zm5 19.9l-2.2 5.2-7.9.5 11.1-25.9 10.1-.6 5.1 24.9-7.9.5-1-5-7.3.4zm2.7-6.3l3.2-.2-1-5.5-2.2 5.7z" opacity=".15"/><path d="M167.2 47.7l20.4-1.2 4.5 4.3-1 8.5-3.4 3.1 3.4 3.4-1.2 9.7-5.5 4.9-21.6 1.2.9-8.2 15.3-.9 1.1-1 .4-2.9-1.5-1.4-8.4.5.9-7.7 7.7-.4 1.8-1.5.2-1.9-.8-.9-14.2.7 1-8.3z" fill="#fdc000"/><path d="M230.5 48.5l-3 25.4-7.7.4 2.2-19.2-5.9.3-2.2 19.2-7.7.4 3-25.4 21.3-1.1zm10.9 17.9l-.8 6.7-7.7.4 3-25.4 16.9-1 3.9 3.7-1.3 10.7-4.8 4.2-9.2.7zm6.5-12.8l-5 .3-.8 6.4 5-.3.8-.8.5-4.9-.5-.7zm30.6-8.2l4.2 4.1-2.1 17.4-5.2 4.6-12.9.7-4.2-4.1 2.1-17.4 5.2-4.6 12.9-.7zm-10.7 7.4l-1.5 12.3.7.7 5.4-.3.8-.8 1.5-12.3-.6-.7-5.4.3-.9.8zm36.1 16.7l-14.7.8-4.2-4.1 2-16.7 5.2-4.6 14.7-.8-.7 6.2-11 .6-.8.8-1.4 11.6.6.7 11-.6-.7 6.1zm8.2-.5l2.2-19.2-5.9.3.7-6.2 19.6-1.1-.7 6.2-5.9.3-2.2 19.2-7.8.5zm35.5-19.3l3.9 3.7-1.1 9.4-4.8 4.2-16.2 1 3-25.4 7.7-.4-.9 8 8.4-.5zm-4.7 10.7l.4-3.6-.7-.7-4.3.2-.6 5.1 4.3-.2.9-.8zm17.6 5.8l-7.7.4 3-25.4 7.7-.4-3 25.4zm16-8.5l-5.6 7.9-7.9.5 9.4-13.3-5.9-12.1 7.9-.5 3.3 6.8h.2l5-7.3 7.9-.5-8.8 12.9 6.4 12.4-7.9.5-3.8-7.4-.2.1zm56.7-20.9l-3 25.4-30.7 1.8 3-25.4 7.7-.4-2.3 19.2 3.8-.2L414 38l7.7-.4-2.3 19.2 3.8-.2 2.3-19.2 7.7-.6zm10 19.6l-2.2 5.2-7.9.5 11.1-25.9 10.1-.6 5.1 24.9-7.9.5-1-5-7.3.4zm2.7-6.3l3.2-.2-1-5.5-2.2 5.7zm37.4-16.2l-.7 6.2-10.4.6-2.2 19.2-7.7.4 3-25.4 18-1zm5 19.9l-2.2 5.2-7.9.5 11.1-25.9 10.1-.6 5.1 24.9-7.9.5-1-5-7.3.4zm2.7-6.3l3.2-.2-1-5.5-2.2 5.7z" fill="#fff"/></g></svg>