<svg class="s-1__title-svg" xmlns="http://www.w3.org/2000/svg" viewBox="0 0 670 264"><path fill="#1c1f21" d="M666.6 129.9l-2.9 28.3-7.4 73.9h-1l-493.9 28.2-1 .1 10.3-102.1 1-.1L665.6 130z"/><path d="M209.7 179.8L212 190l4.7-10.6 3.8-.2-1.6 14.3-2.9.2.5-4.1 1-6.4-4.8 10.7-2 .1-2.5-10.6-.5 7-.4 3.8-2.9.2L206 180l3.7-.2zm16.2 4.2l1.9-.1c1.6-.1 2.8.2 3.7 1s1.4 1.8 1.4 3.1c0 1.4-.5 2.6-1.6 3.5-1 .9-2.4 1.4-4.1 1.5l-5.3.3 1.6-14.3 2.9-.2-.5 5.2zm-.3 2.3l-.5 4.4 2.1-.1c.8 0 1.4-.3 1.9-.8s.8-1 .9-1.8c.1-.6-.1-1.1-.4-1.4-.3-.3-.8-.5-1.5-.5l-2.5.2zm10.7 6.2l-2.9.2 1.6-14.3 2.9-.2-1.6 14.3zm20.9 2.3l-2.7.2.4-3.5-8.3.5-.4 3.5-2.7.2.5-5.9h.9c1.2-.9 2-2.4 2.5-4.6l.2-.8 1.2-6.7 9.1-.5-1.4 12 1.6-.1-.9 5.7zm-8.8-5.3l5.3-.4 1.1-9.6-3.5.2-.9 4.9c-.4 2.1-1.1 3.7-2 4.9zm19.8-1.8l-5 .3-1.3 3-3.1.2 6.8-14.6 2.6-.2 3.5 14-2.9.2-.6-2.9zm-3.9-2.2l3.4-.2-1.1-5.2-2.3 5.4zm18.4-1.9l-5.4.3-.4 3.9 6.4-.4-.3 2.4-9.3.5 1.6-14.3 9.2-.5-.3 2.4-6.4.4-.4 3.4 5.5-.3-.2 2.2zm7.8-8.5l2.3 10.2 4.7-10.6 3.8-.2-1.6 14.3-2.9.2.5-4.1 1-6.4-4.8 10.7-2 .1-2.5-10.6-.5 7-.4 3.8-2.9.2 1.6-14.3 3.7-.3zm26.9 12.7l-9.5.5.2-2.1 4.8-5c1-1 1.6-1.9 1.9-2.5.3-.6.4-1.2.3-1.8-.2-.8-.7-1.2-1.5-1.2-.6 0-1.1.3-1.5.7s-.6 1.1-.7 1.8l-2.7.2c0-.9.2-1.7.7-2.5s1-1.4 1.8-1.8c.8-.4 1.6-.7 2.5-.7 1.3-.1 2.4.3 3.1.9.8.7 1.2 1.6 1.1 2.8 0 1.3-.7 2.8-2.1 4.3l-1.3 1.4-2.8 2.8 5.9-.3-.2 2.5zm7-.2c-1.2 0-2.2-.3-2.9-1.1-.7-.8-1.1-1.9-1.2-3.3v-1.4l.2-2.7c.2-2 .8-3.5 1.6-4.5.9-1.1 2-1.6 3.5-1.7 1.2 0 2.2.3 2.9 1.1.7.8 1.1 1.9 1.2 3.3v1.5l-.3 2.7c-.2 2-.8 3.5-1.6 4.5s-1.9 1.5-3.4 1.6zm2.7-10.5c-.1-1.3-.6-1.9-1.5-1.9-1.3 0-2.1 1.1-2.3 3.1l-.3 3.3c-.1.7-.1 1.3-.1 1.7 0 1.3.5 2 1.5 2 1.3 0 2.1-1.1 2.3-3.2l.3-3.5c.1-.6.1-1.1.1-1.5zm9 9.8c-1.2 0-2.2-.3-2.9-1.1-.7-.8-1.1-1.9-1.2-3.3v-1.4l.2-2.7c.2-2 .7-3.5 1.6-4.5.9-1.1 2-1.6 3.5-1.7 1.2 0 2.2.3 2.9 1.1s1.1 1.9 1.2 3.3v1.5l-.3 2.7c-.2 2-.8 3.5-1.6 4.5s-1.9 1.6-3.4 1.6zm2.7-10.5c-.1-1.3-.6-1.9-1.5-1.9-1.3 0-2.1 1.1-2.3 3.1l-.3 3.3c-.1.7-.1 1.3-.1 1.7 0 1.3.5 2 1.5 2 1.3 0 2.1-1.1 2.3-3.2l.3-3.5c.1-.6.1-1.1.1-1.5zm13.3 4.4l-.6 5.1-2.9.2 1.6-14.3 5-.3c1.5-.1 2.8.3 3.7 1.1.9.8 1.4 1.9 1.3 3.3 0 1.4-.5 2.5-1.5 3.4-1 .9-2.3 1.4-4 1.5h-2.6zm.3-2.4l2.4-.1c.8 0 1.4-.3 1.9-.7.5-.4.8-1 .8-1.7.1-.7-.1-1.2-.4-1.6s-.8-.6-1.4-.6l-2.7.1-.6 4.6zm15.4-1l3.3-6.9 3.2-.2-6 11.8c-.5 1.1-1.1 1.9-1.7 2.4-.6.5-1.4.8-2.3.8h-1.1l.1-2.4h.7c.4 0 .8-.1 1.1-.4.3-.2.6-.6.8-1.1l.3-.6-3.6-9.9 2.9-.2 2.3 6.7zM385 172l-6.1.4-.3 2.8 1.9-.1c1.6-.1 2.8.2 3.7 1s1.4 1.8 1.4 3.1c0 1.4-.5 2.6-1.6 3.5-1 .9-2.4 1.4-4.1 1.5l-5.3.3 1.6-14.3 9-.5-.2 2.3zm-6.8 5.5l-.5 4.4 2.1-.1c.8 0 1.4-.3 1.9-.8s.8-1 .9-1.8c0-.6-.1-1.1-.4-1.4-.3-.3-.8-.5-1.5-.5l-2.5.2zm22-8.7l-1.6 14.3-2.9.2 1.4-11.9-3.6.2-1 6.3c-.3 2-.9 3.4-1.7 4.3-.8.9-1.8 1.4-3.1 1.5l-1.2.1.2-2.4.4-.1c.8-.1 1.4-.6 1.9-1.3.5-.7.8-1.9.9-3.4l.1-1 .9-6.3 9.3-.5zm10.4 7.4l-5.4.3-.4 3.9 6.4-.4-.3 2.4-9.3.5 1.6-14.3 9.2-.5-.3 2.4-6.4.4-.4 3.4 5.5-.3-.2 2.2zm12.3-8.7l3-.2-1.6 14.3-2.9.2 1.1-9.3-6.5 9.6-3 .2 1.6-14.3 2.9-.2-1.1 9.3 6.5-9.6zm1-3.9c0 .9-.3 1.6-.9 2.2-.6.6-1.4.9-2.4.9-.9 0-1.6-.2-2.2-.7-.6-.5-.9-1.2-1-2.1l1.9-.1c0 .9.4 1.3 1.2 1.2.4 0 .8-.1 1-.4.2-.3.4-.6.4-1h2zm19.5 16.9l-1.2.1.8-6.9-7.8.5-.8 6.9-1.2.1 1.6-14.3 1.2-.1-.7 6.4 7.8-.5.7-6.4 1.2-.1-1.6 14.3zm12.2-4.7l-6.2.4-1.9 4.1-1.3.1 6.9-14.6 1.1-.1 3.6 14-1.2.1-1-4zm-5.7-.7l5.5-.3-1.8-7.6-3.7 7.9zm26 3.6l-1.2.1 1.5-13.3-7.8.4-1.5 13.3-1.2.1 1.6-14.3 10.1-.6-1.5 14.3zm12.5-7.6l-6.4.4-.7 5.8 7.4-.4-.1 1-8.6.5 1.6-14.3 8.6-.5-.1 1-7.4.4-.6 5.4 6.4-.4-.1 1.1zm5.1.7l-.7 5.8-1.2.1 1.6-14.3 4.6-.3c1.3 0 2.4.3 3.1 1 .8.7 1.1 1.7 1.1 2.9-.1 1.3-.5 2.4-1.4 3.2-.9.8-2.1 1.3-3.6 1.3l-3.5.3zm.1-1l3.5-.2c1.1-.1 2-.4 2.7-1s1.1-1.4 1.1-2.4-.2-1.7-.8-2.2c-.5-.5-1.3-.8-2.3-.7l-3.6.2-.6 6.3zm10.5 6.2l1.6-14.3 4-.2c1.4 0 2.4.2 3.1.8.7.6 1.1 1.5 1 2.6 0 .7-.3 1.4-.7 2-.4.6-1 1-1.8 1.4.7.2 1.2.5 1.6 1.1s.6 1.3.6 2c0 1.2-.5 2.3-1.3 3-.9.8-2 1.2-3.5 1.3l-4.6.3zm2-6.9l-.7 5.8 3.4-.2c1-.1 1.9-.4 2.5-1 .7-.6 1-1.3 1.1-2.3 0-.8-.2-1.5-.7-1.9-.5-.5-1.2-.7-2-.7l-3.6.3zm.1-1.1l3.1-.2c1-.1 1.8-.4 2.4-.9.6-.5.9-1.2 1-2.1.1-1.7-.9-2.5-2.9-2.4l-3 .2-.6 5.4zm15.4 1.9l5-9.4 1.5-.1-6.6 12.2c-.5 1-1.1 1.8-1.6 2.2s-1.2.7-2 .7c-.3 0-.6 0-1-.1l.2-1h.8c.5 0 .9-.2 1.3-.5s.8-.8 1.2-1.6l.6-1.2-4-10.2 1.3-.1 3.3 9.1zm17 4.3c-1.3.1-2.4-.3-3.2-1.2-.8-.8-1.3-2-1.5-3.5-.1-.5-.1-1.2 0-1.9l-2.5.1-.8 6.8-1.2.1 1.6-14.3 1.2-.1-.8 6.6 2.5-.1.1-.5c.2-1.3.5-2.4 1.1-3.4s1.3-1.8 2.1-2.3c.8-.5 1.8-.8 2.8-.9.9 0 1.6.1 2.3.5.7.4 1.2.9 1.6 1.7.4.8.7 1.6.7 2.5.1.6.1 1.1 0 1.6l-.1 1.5c-.1 1.4-.5 2.5-1.1 3.6s-1.3 1.8-2.1 2.4c-.7.5-1.6.8-2.7.8zm5-9.6c0-.8-.2-1.5-.5-2.1-.3-.6-.7-1.1-1.2-1.4-.5-.3-1.1-.5-1.8-.4-1.3 0-2.4.6-3.2 1.6-.9 1-1.4 2.4-1.6 4-.2 1.3-.2 2.3-.2 3 .1 1.3.4 2.3 1 3 .6.7 1.5 1 2.5 1 1.3 0 2.4-.6 3.3-1.6.8-1 1.4-2.4 1.6-4 .1-1.5.1-2.5.1-3.1zm19.4 3.6c-.2 1.5-.9 2.7-1.8 3.6s-2.2 1.4-3.6 1.4c-1.3 0-2.3-.3-3.1-1.2-.8-.8-1.3-2-1.4-3.5 0-.5-.1-1 0-1.5l.2-1.7c.1-1.3.5-2.5 1-3.5s1.2-1.8 2.1-2.4c.8-.6 1.8-.9 2.8-.9 1.4-.1 2.4.3 3.2 1.1.8.8 1.2 1.9 1.3 3.3l-1.2.1c-.1-1.1-.4-2-1-2.6-.6-.6-1.4-.9-2.4-.8-1.3 0-2.4.6-3.2 1.6-.8 1-1.4 2.4-1.5 4.2l-.2 2v.9c0 .8.2 1.5.5 2.1.3.6.7 1.1 1.2 1.4.5.3 1.1.5 1.7.4 1.1 0 2.1-.4 2.8-1 .7-.7 1.2-1.6 1.5-2.8l1.1-.2zm13.5-9.6l-4.7.3-1.5 13.3-1.2.1 1.5-13.3-4.7.3.1-1 10.6-.6-.1.9zm8.4 8.8l-6.2.4-1.9 4.1-1.3.1 6.9-14.6 1.1-.1 3.6 14-1.2.1-1-4zm-5.7-.7l5.5-.3-1.8-7.6-3.7 7.9zm10.5 4.4l1.6-14.3 4-.2c1.4 0 2.4.2 3.1.8.7.6 1.1 1.5 1 2.6 0 .7-.3 1.4-.7 2-.4.6-1 1-1.8 1.4.7.2 1.2.5 1.6 1.1.4.6.6 1.3.6 2 0 1.2-.5 2.3-1.3 3-.9.8-2 1.2-3.5 1.3l-4.6.3zm2-7l-.7 5.9 3.4-.2c1-.1 1.9-.4 2.5-1 .7-.6 1-1.3 1.1-2.3 0-.8-.2-1.5-.7-1.9-.5-.5-1.2-.7-2-.7l-3.6.2zm.1-1l3.1-.2c1-.1 1.8-.4 2.4-.9.6-.5.9-1.2 1-2.1.1-1.7-.9-2.5-2.9-2.4l-3 .2-.6 5.4zm14.3.4l-1.9.1-.8 6.7-1.2.1 1.6-14.3 1.2-.1-.8 6.6 1.8-.1 6.1-6.9 1.6-.1-6.5 7.4 5.2 6.9-1.4.1-4.9-6.4zm14.2.7l5-9.4 1.5-.1-6.6 12.2c-.5 1-1.1 1.8-1.6 2.2s-1.2.7-2 .7c-.3 0-.6 0-1-.1l.2-1h.8c.5 0 .9-.2 1.3-.5s.8-.8 1.2-1.6l.6-1.2-4-10.2 1.3-.1 3.3 9.1z" fill="#fff"/><path d="M219 212.6l-6.7.4-2.2 19.1-4.6.3 2.2-19.1-6.7.4.5-3.8 18-1-.5 3.7zm7.2 4l3-.2c2.5-.1 4.5.4 6 1.6s2.2 2.9 2.2 5c0 2.3-.9 4.1-2.5 5.6s-3.8 2.3-6.5 2.4l-8.4.5 2.6-22.9 4.6-.3-1 8.3zm-.4 3.8l-.8 7.1 3.3-.2c1.2-.1 2.2-.5 3.1-1.2.8-.7 1.3-1.7 1.4-2.8.1-1-.2-1.7-.7-2.3-.6-.5-1.4-.8-2.4-.8l-3.9.2zm17.2 9.8l-4.6.3 2.6-22.9 4.6-.3-2.6 22.9zm21.4-14.7c1.2-.1 2.1-.4 2.7-1.1.7-.6 1.1-1.4 1.1-2.4.1-.8-.2-1.4-.8-1.9-.6-.4-1.3-.6-2.3-.6-.9 0-1.8.3-2.5.8s-1.1 1.2-1.2 2.1l-4.6.3c0-1.3.4-2.5 1.1-3.5s1.7-1.8 3-2.5c1.3-.6 2.7-1 4.1-1 1.5-.1 2.9.1 4.1.6s2.1 1.2 2.7 2.1c.6.9.9 2 .9 3.2 0 2.2-1.3 4-4 5.4 1 .4 1.8 1.1 2.3 1.9.5.9.8 1.9.8 3 0 1.4-.4 2.6-1.1 3.7-.7 1.1-1.8 1.9-3.2 2.6-1.4.6-2.9 1-4.6 1.1-1.5.1-2.8-.1-4-.6-1.2-.5-2.1-1.2-2.8-2.1-.7-.9-1-2.1-1.1-3.4l4.6-.3c0 .9.3 1.5.9 2s1.4.7 2.4.7c1.2 0 2.2-.4 3-1 .8-.6 1.3-1.4 1.4-2.4.1-1.1-.1-1.9-.7-2.4-.5-.5-1.3-.7-2.4-.7l-3 .2.4-3.7 2.8-.1zm23.8 7.4l-7.9.5-2.1 4.8-5 .3L284 205l4.2-.2 5.6 22.5-4.7.3-.9-4.7zm-6.2-3.4l5.5-.3-1.8-8.4-3.7 8.7zm31.1-12.3l-9.8.6-.5 4.4 3-.2c2.5-.1 4.5.4 6 1.6s2.2 2.9 2.2 5c0 2.3-.9 4.1-2.5 5.6s-3.8 2.3-6.5 2.4l-8.4.5 2.6-22.9 14.4-.8-.5 3.8zm-10.8 8.8l-.8 7.1 3.3-.2c1.2-.1 2.2-.5 3.1-1.2.8-.7 1.3-1.7 1.4-2.8.1-1-.2-1.7-.7-2.3-.6-.5-1.4-.8-2.4-.8l-3.9.2zm29.8-13.7l4.7-.3-2.6 22.9-4.6.3 1.7-14.9-10.4 15.4-4.7.3 2.6-22.9 4.6-.3-1.7 15 10.4-15.5zm12 14l-.9 8.1-4.6.3 2.6-22.9 8-.4c2.5-.1 4.4.4 5.9 1.7s2.2 3 2.1 5.2c0 2.2-.9 4.1-2.5 5.5-1.6 1.4-3.7 2.2-6.4 2.4l-4.2.1zm.4-3.8l3.8-.2c1.2-.1 2.2-.4 3-1.1.8-.7 1.2-1.6 1.3-2.7.1-1.1-.1-1.9-.7-2.6-.5-.6-1.3-.9-2.3-.9l-4.3.2-.8 7.3zm24.8 5.7l-7.9.5-2.1 4.8-5 .3 10.8-23.4 4.2-.2 5.6 22.5-4.7.3-.9-4.8zm-6.3-3.4l5.5-.3-1.8-8.4-3.7 8.7zm29-3.1l-8.7.5-.7 6.2 10.2-.6-.4 3.8-14.8.9 2.6-22.9 14.8-.9-.5 3.8-10.2.6-.6 5.5 8.7-.5-.4 3.6zm10.7-13.5l-2.2 19.1 6.1-.4 2.2-19.1 4.6-.3-2.2 19.1 6-.3 2.2-19.1 4.6-.3-2.6 22.9-25.8 1.5 2.6-22.9 4.5-.2zm29.2 6.5l3-.2c2.5-.1 4.5.4 6 1.6 1.5 1.2 2.2 2.9 2.2 5 0 2.3-.9 4.1-2.5 5.6s-3.8 2.3-6.5 2.4l-8.4.5 2.6-22.9 4.6-.3-1 8.3zm-.4 3.9l-.8 7.1 3.3-.2c1.2-.1 2.2-.5 3.1-1.2.8-.7 1.3-1.7 1.4-2.8.1-1-.2-1.7-.7-2.3-.6-.5-1.4-.8-2.4-.8l-3.9.2zm22.2 9.5l2.6-22.9 7.1-.4c2.6-.1 4.6.3 6 1.3 1.4 1 2.1 2.4 2.1 4.4 0 2.3-1.2 4.1-3.7 5.3.9.3 1.7.8 2.2 1.6.5.8.8 1.8.8 3 0 2.2-.8 3.9-2.2 5.1-1.5 1.3-3.5 2-6.2 2.1l-8.7.5zm5.7-10.3l-.7 6.2 3.6-.2c1.1-.1 2-.4 2.8-1 .7-.6 1.1-1.4 1.2-2.3.1-.9-.1-1.7-.5-2.2-.4-.5-1.1-.7-2.1-.7l-4.3.2zm.4-3.3l3.1-.1c1.2-.1 2.1-.4 2.8-1 .7-.6 1.1-1.3 1.2-2.2.2-1.8-.9-2.7-3-2.6l-3.4.2-.7 5.7zm20.5-2.6l3-.2c2.5-.1 4.5.4 6 1.6 1.5 1.2 2.2 2.9 2.2 5 0 2.3-.9 4.1-2.5 5.6s-3.8 2.3-6.5 2.4l-8.4.5 2.6-22.9 4.6-.3-1 8.3zm-.4 3.9l-.8 7.1 3.3-.2c1.2-.1 2.2-.5 3.1-1.2.8-.7 1.3-1.7 1.4-2.8.1-1-.2-1.7-.7-2.3-.6-.5-1.4-.8-2.4-.8l-3.9.2zm17.1 9.8l-4.6.3L495 193l4.6-.3-2.6 22.9zm20.1-24l4.7-.3-2.6 22.9-4.6.3 1.7-14.9L506 215l-4.7.3 2.6-22.9 4.6-.3-1.7 15 10.3-15.5zm23.2 2.5l-9.9.6-2.2 19.1-4.6.3 2.6-22.9 14.4-.8-.3 3.7zm6.6 10.6l-.9 8.1-4.6.3 2.6-22.9 8-.4c2.5-.1 4.4.4 5.9 1.7 1.5 1.3 2.2 3 2.1 5.2 0 2.2-.9 4.1-2.5 5.5-1.6 1.4-3.7 2.2-6.4 2.4l-4.2.1zm.4-3.9l3.8-.2c1.2-.1 2.2-.4 3-1.1.8-.7 1.2-1.6 1.3-2.7.1-1.1-.1-1.9-.7-2.6-.5-.6-1.3-.9-2.3-.9l-4.3.2-.8 7.3zm20.8-3.9l3-.2c2.5-.1 4.5.4 6 1.6 1.5 1.2 2.2 2.9 2.2 5 0 2.3-.9 4.1-2.5 5.6s-3.8 2.3-6.5 2.4l-8.4.5 2.6-22.9 4.6-.3-1 8.3zm-.4 3.8l-.8 7.1 3.3-.2c1.2-.1 2.2-.5 3.1-1.2.8-.7 1.3-1.7 1.4-2.8.1-1-.2-1.7-.7-2.3-.6-.5-1.4-.8-2.4-.8l-3.9.2zm17.2 9.8l-4.6.3 2.6-22.9 4.6-.3-2.6 22.9zm11.6-23.5l-2.2 19.1 6.1-.4 2.2-19.1 4.6-.3-2.2 19.1 6-.3 2.2-19.1 4.6-.3-2.6 22.9-25.8 1.5 2.6-22.9 4.5-.2zm23.2 19.4c-.1-.7.1-1.3.6-1.8.4-.5 1-.8 1.7-.8.7-.1 1.3.1 1.8.5s.8 1 .9 1.6c.1.7-.1 1.3-.6 1.8-.4.5-1 .8-1.7.9-.7 0-1.3-.2-1.8-.6-.6-.4-.9-.9-.9-1.6zm4.8-5.2l-3.7.2 1.3-15.9 4.7-.3-2.3 16z" fill="#fdc000"/><path fill="#d71015" d="M587.8 55.5l-8.9 87.6-1 .1L3.7 175.6H2.6l15.3-151h1L393.5 3.2l1-.1-6.4 63.7 198.7-11.2z"/><path d="M32.8 144.2l5-4.5 5.5-30.1 32.6-1.9-4.1 34.2 4.8-.3-2.4 20.6-13.7.8 1.2-9.7-18.2 1-1.2 9.7-13.7.8 2.3-20.6h1.9zm14.7-.9l10.5-.6 2.8-23.2-6.1.3-3.7 20.4-3.5 3.1zm70.2-38l-1.3 11-20.1 1.1-.8 6.5 14.4-.8-1.2 10.3-14.4.8-.8 6.5 20.8-1.2-1.2 11-34.5 2 5.3-45.2 33.8-2zm12.5 44.2l-13.7.8 5.3-45.2 13.7-.8-2 17.1 10.5-.6 2-17.1 13.7-.8-5.3 45.2-13.7.8 2-17.1-10.5.6-2 17.1zm61.2-34.3l6.9 6.7-2 16.8-8.5 7.5-29.4 1.7 5.3-45.2 13.7-.8-1.7 14.2 15.7-.9zm-8.3 19.1l.8-6.5-1.2-1.2-8.3.5-1.1 9 8.3-.5 1.5-1.3zm53.1-35.7l-1.3 11-18.5 1.1-4 34.2-13.7.8 5.3-45.2 32.2-1.9zm23.4 43.5l2.4-20.6h-.3l-14.2 21.3-12.8.7 5.3-45.2 13.7-.8-2.4 20.6h.3l14.2-21.3 12.8-.7-5.3 45.2-13.7.8zm56.1-21.1l1.2-10.3 10.5-.6 2.8-2.4.3-2.3-1.1-1.2-18.8 1.1 1.3-11 27.2-1.6 6 5.7-1.4 11.9-4.3 3.8 4.3 4.2-1.6 12.9-7.4 6.5-28.8 1.6 1.2-11 20.4-1.2 1.5-1.4.4-3.6-2-2.1-11.7 1zm44.3 6.4l-3.9 9.2-14.1.8 19.7-46 17.9-1 9.1 44.4-14.1.8-1.9-8.9-12.7.7zm4.8-11.2l5.8-.3-1.7-9.8-4.1 10.1zm25.8 18.4l5.3-45.2 35.5-2-1.3 11-21.7 1.2-.6 5.2 17.3-1 6.8 6.7-1.7 14.8-8.5 7.5-31.1 1.8zm26.3-13.7l.6-5.2-1.1-1.2-9.9.6-1 7.7 9.9-.6 1.5-1.3zm30.4-1.4l-1.4 11.9-13.7.8 5.3-45.2 30-1.7 6.9 6.7-2.2 19-8.5 7.5-16.4 1zm11.5-22.7l-8.9.5-1.3 11.3 8.9-.5 1.5-1.4 1-8.7-1.2-1.2zm25.8 23.5l-3.9 9.2-14.1.8 19.7-46 17.9-1 9.1 44.4-14.1.8-1.9-8.9-12.7.7zm4.8-11.2l5.8-.3-1.7-9.8-4.1 10.1zm40.4-27.3l33.2-1.9-5.3 45.2-13.7.8 4-34.2-6.7.4-4.8 27.2-9.2 8.2-12.1.7 1.3-11 3.2-.2 4.5-3.8 5.6-31.4z" opacity=".15"/><path d="M29.8 141.2l5-4.5 5.5-30.1 32.6-1.9-4.1 34.2 4.8-.3-2.4 20.6-13.7.8 1.2-9.7-18.2 1-1.2 9.7-13.7.8 2.3-20.6h1.9zm14.7-.9l10.5-.6 2.8-23.2-6.1.3-3.7 20.4-3.5 3.1zm70.2-38l-1.3 11-20.1 1.1-.8 6.5 14.4-.8-1.2 10.3-14.4.8-.8 6.5 20.8-1.2-1.2 11-34.5 2 5.3-45.2 33.8-2zm12.5 44.2l-13.7.8 5.3-45.2 13.7-.8-2 17.1 10.5-.6 2-17.1 13.7-.8-5.3 45.2-13.7.8 2-17.1-10.5.6-2 17.1zm61.2-34.3l6.9 6.7-2 16.8-8.5 7.5-29.4 1.7 5.3-45.2 13.7-.8-1.7 14.2 15.7-.9zm-8.3 19.1l.8-6.5-1.2-1.2-8.3.5-1.1 9 8.3-.5 1.5-1.3zm53.1-35.7l-1.3 11-18.5 1.1-4 34.2-13.7.8 5.3-45.2 32.2-1.9zm23.4 43.5l2.4-20.6h-.3l-14.2 21.3-12.8.7 5.3-45.2 13.7-.8-2.4 20.6h.3l14.2-21.3 12.8-.7-5.3 45.2-13.7.8zm56.1-21.1l1.2-10.3 10.5-.6 2.8-2.4.3-2.3-1.1-1.2-18.8 1.1 1.3-11 27.2-1.6 6 5.7-1.4 11.9-4.3 3.8 4.3 4.2-1.6 12.9-7.4 6.5-28.8 1.6 1.2-11 20.4-1.2 1.5-1.4.4-3.6-2-2.1-11.7 1zm44.3 6.4l-3.9 9.2-14.1.8 19.7-46 17.9-1 9.1 44.4-14.1.8-1.9-8.9-12.7.7zm4.8-11.2l5.8-.3-1.7-9.8-4.1 10.1zm25.8 18.4l5.3-45.2 35.5-2-1.3 11-21.7 1.2-.6 5.2 17.3-1 6.8 6.7-1.7 14.8-8.5 7.5-31.1 1.8zm26.3-13.7l.6-5.2-1.1-1.2-9.9.6-1 7.7 9.9-.6 1.5-1.3zm30.4-1.4l-1.4 11.9-13.7.8 5.3-45.2 30-1.7 6.9 6.7-2.2 19-8.5 7.5-16.4 1zm11.5-22.7l-8.9.5-1.3 11.3 8.9-.5 1.5-1.4 1-8.7-1.2-1.2zm25.8 23.5l-3.9 9.2-14.1.8 19.7-46 17.9-1 9.1 44.4-14.1.8-1.9-8.9-12.7.7zm4.8-11.2l5.8-.3-1.7-9.8-4.1 10.1zm40.4-27.3l33.2-1.9-5.3 45.2-13.7.8 4-34.2-6.7.4-4.8 27.2-9.2 8.2-12.1.7 1.3-11 3.2-.2 4.5-3.8 5.6-31.4z" fill="#fff"/><g opacity=".15"><path d="M53.7 63.2l-.7 6-6.9.4L48.8 47l15-.9 3.4 3.3-1.1 9.6-4.3 3.8-8.1.4zm5.8-11.4l-4.5.3-.7 5.6 4.5-.3.7-.7.5-4.4-.5-.5zm27.7-7l-.6 5.5-10.1.6-.5 3.2 7.2-.4-.6 5.2-7.2.4-.4 3.2 10.4-.6-.6 5.5-17.3 1 2.7-22.6 17-1zM91.8 58l.6-5.2 5.3-.3 1.4-1.2.1-1.1-.5-.6-9.4.5.6-5.5 13.6-.8 3 2.9-.7 6-2.1 1.9 2.1 2.1-.8 6.5-3.7 3.3-14.4.8.6-5.5 10.2-.6.7-.7.2-1.8-1-1.1-5.8.4zm37.5-15.6l-10.5 23-6.9.4 2.3-4.9-2.4.1-4.3-17.4 6.9-.4 2.6 11.5h.2l5.2-12 6.9-.3zm2.7-.2l16.6-.9-2.6 22.6-6.9.4 2-17.1-3.4.2-2.4 13.6-4.6 4.1-6.1.3.6-5.5 1.6-.1 2.3-1.9 2.9-15.7zm34 5.1l3.4 3.3-1 8.4-4.2 3.8-14.7.8 2.7-22.6 6.9-.4-.8 7.1 7.7-.4zm-4.1 9.6l.4-3.2-.6-.6-4.2.2-.5 4.5 4.2-.2.7-.7z"/><path d="M171.7 62.4l2-17.1-5.3.3.6-5.5 17.4-1-.6 5.5-5.3.3-2 17.1-6.8.4zm18.9-5.6l-1.9 4.6-7 .4 9.8-23 8.9-.5 4.5 22.2-7 .4-.9-4.4-6.4.3zm2.4-5.6l2.9-.2-.9-4.9-2 5.1zm15 9.1l2-17.1-5.3.3.6-5.5 17.4-1-.6 5.5-5.3.3-2 17.1-6.8.4zM257.9 35l-10.5 23-6.9.4 2.3-4.9-2.4.1-4.3-17.4 6.9-.4 2.6 11.5h.2l5.2-12 6.9-.3zm18.4-1l-.6 5.5-9.3.5-2 17.1-6.9.4 2.7-22.6 16.1-.9zm3.1 17.8l-1.9 4.6-7 .4 9.8-23 8.9-.5 4.5 22.2-7 .4-.9-4.4-6.4.3zm2.4-5.6l2.9-.2-.9-4.9-2 5.1zm15.1 3.6l2.5-2.2 2.7-15.1 16.3-.9-2 17.1 2.4-.1-1.2 10.3-6.9.4.6-4.8-9.1.5-.6 4.8-6.8.4 1.2-10.3.9-.1zm7.4-.4l5.3-.3 1.4-11.6-3 .2-2 10.1-1.7 1.6zm24.5-.5l-1.9 4.6-7 .4 9.8-23 8.9-.5 4.5 22.2-7 .4-.9-4.4-6.4.3zm2.4-5.6l2.9-.2-.9-4.9-2 5.1zm20.5-13.6l16.6-.9-2.7 22.6-6.9.4 2-17.1-3.4.2-2.3 13.5-4.6 4.1-6.1.3.6-5.5 1.6-.1 2.3-1.9 2.9-15.6z"/></g><g fill="#fff"><path d="M50.7 60.2l-.7 6-6.9.4L45.8 44l15-.9 3.4 3.3-1.1 9.6-4.3 3.8-8.1.4zm5.8-11.4l-4.5.3-.7 5.6 4.5-.3.7-.7.5-4.4-.5-.5zm27.7-7l-.6 5.5-10.1.6-.5 3.2 7.2-.4-.6 5.2-7.2.4-.4 3.2 10.4-.6-.6 5.5-17.3 1 2.7-22.6 17-1zM88.8 55l.6-5.2 5.3-.3 1.4-1.2.1-1.1-.5-.6-9.4.5.6-5.5 13.6-.8 3 2.9-.7 6-2.1 1.9 2.1 2.1-.8 6.5-3.7 3.3-14.4.8.6-5.5 10.2-.6.7-.7.2-1.8-1-1.1-5.8.4zm37.5-15.6l-10.5 23-6.9.4 2.3-4.9-2.4.1-4.3-17.4 6.9-.4 2.6 11.5h.2l5.2-12 6.9-.3zm2.7-.2l16.6-.9-2.6 22.6-6.9.4 2-17.1-3.4.2-2.4 13.6-4.6 4.1-6.1.3.6-5.5 1.6-.1 2.3-1.9 2.9-15.7zm34 5.1l3.4 3.3-1 8.4-4.2 3.8-14.7.8 2.7-22.6 6.9-.4-.8 7.1 7.7-.4zm-4.1 9.6l.4-3.2-.6-.6-4.2.2-.5 4.5 4.2-.2.7-.7z"/><path d="M168.7 59.4l2-17.1-5.3.3.6-5.5 17.4-1-.6 5.5-5.3.3-2 17.1-6.8.4zm18.9-5.6l-1.9 4.6-7 .4 9.8-23 8.9-.5 4.5 22.2-7 .4-.9-4.4-6.4.3zm2.4-5.6l2.9-.2-.9-4.9-2 5.1zm15 9.1l2-17.1-5.3.3.6-5.5 17.4-1-.6 5.5-5.3.3-2 17.1-6.8.4zM254.9 32l-10.5 23-6.9.4 2.3-4.9-2.4.1-4.3-17.4 6.9-.4 2.6 11.5h.2l5.2-12 6.9-.3zm18.4-1l-.6 5.5-9.3.5-2 17.1-6.9.4 2.7-22.6 16.1-.9zm3.1 17.8l-1.9 4.6-7 .4 9.8-23 8.9-.5 4.5 22.2-7 .4-.9-4.4-6.4.3zm2.4-5.6l2.9-.2-.9-4.9-2 5.1zm15.1 3.6l2.5-2.2 2.7-15.1 16.3-.9-2 17.1 2.4-.1-1.2 10.3-6.9.4.6-4.8-9.1.5-.6 4.8-6.8.4 1.2-10.3.9-.1zm7.4-.4l5.3-.3 1.4-11.6-3 .2-2 10.1-1.7 1.6zm24.5-.5l-1.9 4.6-7 .4 9.8-23 8.9-.5 4.5 22.2-7 .4-.9-4.4-6.4.3zm2.4-5.6l2.9-.2-.9-4.9-2 5.1zm20.5-13.6l16.6-.9-2.7 22.6-6.9.4 2-17.1-3.4.2-2.3 13.5-4.6 4.1-6.1.3.6-5.5 1.6-.1 2.3-1.9 2.9-15.6z"/></g></svg>