<?xml version="1.0" encoding="utf-8"?>
<!-- Generator: Adobe Illustrator 20.1.0, SVG Export Plug-In . SVG Version: 6.00 Build 0)  -->
<svg version="1.1" id="Layer_1" xmlns="http://www.w3.org/2000/svg" xmlns:xlink="http://www.w3.org/1999/xlink" x="0px" y="0px"
	 viewBox="0 0 670 110" style="enable-background:new 0 0 670 110;" xml:space="preserve">
<g id="title_1_">
	<defs>
		<polygon id="SVGID_1_" points="653,166 -4,166 13,-6 671,-10 		"/>
	</defs>
	<clipPath id="SVGID_2_">
		<use xlink:href="#SVGID_1_"  style="overflow:visible;"/>
	</clipPath>
	<polygon style="clip-path:url(#SVGID_2_);fill:#D71015;" points="663.4,69.1 -11.3,108 -0.4,41.3 674.3,2.4 	"/>
	<g style="clip-path:url(#SVGID_2_);">
		<g style="opacity:0.15;">
			<path d="M170.2,50.7l20.4-1.2l4.5,4.3l-1,8.5l-3.4,3.1l3.4,3.4l-1.2,9.7l-5.5,4.9l-21.6,1.2l0.9-8.2l15.3-0.9l1.1-1l0.4-2.9
				l-1.5-1.4l-8.4,0.5l0.9-7.7l7.7-0.4l1.8-1.5l0.2-1.9l-0.8-0.9L169.2,59L170.2,50.7z"/>
			<path d="M233.5,51.5l-3,25.4l-7.7,0.4l2.2-19.2l-5.9,0.3l-2.2,19.2l-7.7,0.4l3-25.4L233.5,51.5z"/>
			<path d="M244.4,69.4l-0.8,6.7l-7.7,0.4l3-25.4l16.9-1l3.9,3.7l-1.3,10.7l-4.8,4.2L244.4,69.4z M250.9,56.6l-5,0.3l-0.8,6.4l5-0.3
				l0.8-0.8l0.5-4.9L250.9,56.6z"/>
			<path d="M281.5,48.4l4.2,4.1l-2.1,17.4l-5.2,4.6l-12.9,0.7l-4.2-4.1l2.1-17.4l5.2-4.6L281.5,48.4z M270.8,55.8l-1.5,12.3l0.7,0.7
				l5.4-0.3l0.8-0.8l1.5-12.3l-0.6-0.7l-5.4,0.3L270.8,55.8z"/>
			<path d="M306.9,72.5l-14.7,0.8l-4.2-4.1l2-16.7l5.2-4.6l14.7-0.8l-0.7,6.2l-11,0.6l-0.8,0.8L296,66.3l0.6,0.7l11-0.6L306.9,72.5z
				"/>
			<path d="M315.1,72l2.2-19.2l-5.9,0.3l0.7-6.2l19.6-1.1L331,52l-5.9,0.3l-2.2,19.2L315.1,72z"/>
			<path d="M350.6,52.7l3.9,3.7l-1.1,9.4l-4.8,4.2L332.4,71l3-25.4l7.7-0.4l-0.9,8L350.6,52.7z M345.9,63.4l0.4-3.6l-0.7-0.7
				l-4.3,0.2l-0.6,5.1l4.3-0.2L345.9,63.4z M363.5,69.2l-7.7,0.4l3-25.4l7.7-0.4L363.5,69.2z"/>
			<path d="M379.5,60.7l-5.6,7.9l-7.9,0.5l9.4-13.3l-5.9-12.1l7.9-0.5l3.3,6.8l0.2,0l5-7.3l7.9-0.5l-8.8,12.9l6.4,12.4l-7.9,0.5
				l-3.8-7.4L379.5,60.7z"/>
			<path d="M436.2,39.8l-3,25.4L402.5,67l3-25.4l7.7-0.4l-2.3,19.2l3.8-0.2l2.3-19.2l7.7-0.4l-2.3,19.2l3.8-0.2l2.3-19.2L436.2,39.8
				z"/>
			<path d="M446.2,59.4l-2.2,5.2l-7.9,0.5l11.1-25.9l10.1-0.6l5.1,24.9l-7.9,0.5l-1-5L446.2,59.4z M448.9,53.1l3.2-0.2l-1-5.5
				L448.9,53.1z"/>
			<path d="M486.3,36.9l-0.7,6.2l-10.4,0.6l-2.2,19.2l-7.7,0.4l3-25.4L486.3,36.9z"/>
			<path d="M491.3,56.8l-2.2,5.2l-7.9,0.5l11.1-25.9l10.1-0.6l5.1,24.9l-7.9,0.5l-1-5L491.3,56.8z M494,50.5l3.2-0.2l-1-5.5
				L494,50.5z"/>
		</g>
		<g>
			<g>
				<path style="fill:#FDC000;" d="M167.2,47.7l20.4-1.2l4.5,4.3l-1,8.5l-3.4,3.1l3.4,3.4l-1.2,9.7l-5.5,4.9l-21.6,1.2l0.9-8.2
					l15.3-0.9l1.1-1l0.4-2.9l-1.5-1.4l-8.4,0.5l0.9-7.7l7.7-0.4l1.8-1.5l0.2-1.9l-0.8-0.9L166.2,56L167.2,47.7z"/>
				<path style="fill:#FFFFFF;" d="M230.5,48.5l-3,25.4l-7.7,0.4l2.2-19.2l-5.9,0.3l-2.2,19.2l-7.7,0.4l3-25.4L230.5,48.5z"/>
				<path style="fill:#FFFFFF;" d="M241.4,66.4l-0.8,6.7l-7.7,0.4l3-25.4l16.9-1l3.9,3.7l-1.3,10.7l-4.8,4.2L241.4,66.4z
					 M247.9,53.6l-5,0.3l-0.8,6.4l5-0.3l0.8-0.8l0.5-4.9L247.9,53.6z"/>
				<path style="fill:#FFFFFF;" d="M278.5,45.4l4.2,4.1l-2.1,17.4l-5.2,4.6l-12.9,0.7l-4.2-4.1l2.1-17.4l5.2-4.6L278.5,45.4z
					 M267.8,52.8l-1.5,12.3l0.7,0.7l5.4-0.3l0.8-0.8l1.5-12.3l-0.6-0.7l-5.4,0.3L267.8,52.8z"/>
				<path style="fill:#FFFFFF;" d="M303.9,69.5l-14.7,0.8l-4.2-4.1l2-16.7l5.2-4.6l14.7-0.8l-0.7,6.2l-11,0.6l-0.8,0.8L293,63.3
					l0.6,0.7l11-0.6L303.9,69.5z"/>
				<path style="fill:#FFFFFF;" d="M312.1,69l2.2-19.2l-5.9,0.3l0.7-6.2l19.6-1.1L328,49l-5.9,0.3l-2.2,19.2L312.1,69z"/>
				<path style="fill:#FFFFFF;" d="M347.6,49.7l3.9,3.7l-1.1,9.4l-4.8,4.2L329.4,68l3-25.4l7.7-0.4l-0.9,8L347.6,49.7z M342.9,60.4
					l0.4-3.6l-0.7-0.7l-4.3,0.2l-0.6,5.1l4.3-0.2L342.9,60.4z M360.5,66.2l-7.7,0.4l3-25.4l7.7-0.4L360.5,66.2z"/>
				<path style="fill:#FFFFFF;" d="M376.5,57.7l-5.6,7.9l-7.9,0.5l9.4-13.3l-5.9-12.1l7.9-0.5l3.3,6.8l0.2,0l5-7.3l7.9-0.5
					l-8.8,12.9l6.4,12.4l-7.9,0.5l-3.8-7.4L376.5,57.7z"/>
				<path style="fill:#FFFFFF;" d="M433.2,36.8l-3,25.4L399.5,64l3-25.4l7.7-0.4l-2.3,19.2l3.8-0.2l2.3-19.2l7.7-0.4l-2.3,19.2
					l3.8-0.2l2.3-19.2L433.2,36.8z"/>
				<path style="fill:#FFFFFF;" d="M443.2,56.4l-2.2,5.2l-7.9,0.5l11.1-25.9l10.1-0.6l5.1,24.9l-7.9,0.5l-1-5L443.2,56.4z
					 M445.9,50.1l3.2-0.2l-1-5.5L445.9,50.1z"/>
				<path style="fill:#FFFFFF;" d="M483.3,33.9l-0.7,6.2l-10.4,0.6l-2.2,19.2l-7.7,0.4l3-25.4L483.3,33.9z"/>
				<path style="fill:#FFFFFF;" d="M488.3,53.8l-2.2,5.2l-7.9,0.5l11.1-25.9l10.1-0.6l5.1,24.9l-7.9,0.5l-1-5L488.3,53.8z M491,47.5
					l3.2-0.2l-1-5.5L491,47.5z"/>
			</g>
		</g>
	</g>
</g>
</svg>
