<?xml version="1.0" encoding="utf-8"?>
<!-- Generator: Adobe Illustrator 21.1.0, SVG Export Plug-In . SVG Version: 6.00 Build 0)  -->
<svg version="1.1" id="Layer_1" xmlns="http://www.w3.org/2000/svg" xmlns:xlink="http://www.w3.org/1999/xlink" x="0px" y="0px"
	 viewBox="0 0 324 124" style="enable-background:new 0 0 324 124;" xml:space="preserve">
<polygon style="fill:#D71015;" points="321.7,3.7 311.5,105 310.5,105.1 2.5,122.8 1.5,122.9 11.8,21.6 12.8,21.5 320.7,3.8 "/>
<g>
	<g style="opacity:0.15;">
		<path d="M94.6,41.4L82.8,67.3l-7.7,0.4l2.6-5.6L75,62.4l-4.8-19.6l7.7-0.4l2.9,13H81l5.9-13.5L94.6,41.4z"/>
		<path d="M115.2,40.2l-0.7,6.2L104.1,47l-2.2,19.2l-7.7,0.4l3-25.4L115.2,40.2z"/>
		<path d="M120.2,60.1l-2.2,5.2l-7.9,0.5l11.1-25.9l10.1-0.6l5.1,24.9l-7.9,0.5l-1-5L120.2,60.1z M122.9,53.9l3.2-0.2l-1-5.5
			L122.9,53.9z"/>
		<path d="M138.5,58l2.8-2.5l3.1-16.9l18.3-1.1l-2.3,19.2l2.7-0.2l-1.3,11.6l-7.7,0.4l0.7-5.4l-10.2,0.6l-0.7,5.4l-7.7,0.4l1.3-11.6
			L138.5,58z M146.7,57.5l5.9-0.3l1.6-13.1l-3.4,0.2l-2.1,11.5L146.7,57.5z"/>
		<path d="M173.6,57.1l-2.2,5.2l-7.9,0.5l11.1-25.9l10.1-0.6l5.1,24.9l-7.9,0.5l-1-5L173.6,57.1z M176.3,50.8l3.2-0.2l-1-5.5
			L176.3,50.8z"/>
		<path d="M206.6,60.2l1.3-11.6h-0.2l-8,12l-7.2,0.4l3-25.4l7.7-0.4l-1.3,11.6h0.2l8-12l7.2-0.4l-3,25.4L206.6,60.2z M203.3,33
			l-2.7-2.5l0.5-4l4.9-0.3l-0.2,1.5l0.8,0.7l1.4-0.1l1-0.8l0.2-1.5l4.9-0.3l-0.5,4l-3.4,2.9L203.3,33z"/>
		<path d="M223.9,59.2l2.2-19.2l-5.9,0.3l0.7-6.2l19.6-1.1l-0.7,6.2l-5.9,0.3l-2.2,19.2L223.9,59.2z"/>
		<path d="M263.1,31.7l-0.7,6.2l-11.3,0.7l-0.4,3.6l8.1-0.5l-0.7,5.8L250,48l-0.4,3.6l11.7-0.7l-0.7,6.2l-19.4,1.1l3-25.4
			L263.1,31.7z"/>
		<path d="M71.2,99.1l1-9h-0.1l-6.2,9.3l-5.6,0.3l2.3-19.8l6-0.3l-1,9h0.1l6.2-9.3l5.6-0.3l-2.3,19.8L71.2,99.1z"/>
		<path d="M96.1,97.6l-11.5,0.7l-3.2-3.2l1.5-13l4-3.6l11.5-0.7l-0.6,4.8l-8.5,0.5l-0.6,0.6l-1,9l0.5,0.5l8.5-0.5L96.1,97.6z"/>
		<path d="M107.5,91.1l-4.3,6.1L97,97.6l7.3-10.4l-4.6-9.4l6.1-0.4l2.6,5.3h0.1l3.9-5.7l6.2-0.4l-6.9,10.1l5,9.7l-6.1,0.4l-2.9-5.7
			H107.5z"/>
		<path d="M133.8,75.5l3.2,3.2l-1.6,13.6l-4,3.6l-10.1,0.6l-3.2-3.2l1.6-13.6l4-3.6L133.8,75.5z M125.5,81.3l-1.1,9.6l0.5,0.5
			l4.2-0.2l0.6-0.6l1.1-9.6l-0.5-0.5l-4.2,0.2L125.5,81.3z"/>
		<path d="M138,90.4l2.2-1.9l2.4-13.2l14.3-0.8l-1.8,15l2.1-0.1l-1,9l-6,0.3l0.5-4.2l-8,0.5l-0.5,4.2l-6,0.3l1-9L138,90.4z
			 M144.4,90.1l4.6-0.3l1.2-10.2l-2.7,0.2l-1.6,8.9L144.4,90.1z"/>
		<path d="M175.2,89.1l-1.9-4.8h-0.1l-1,8.9l-6,0.3l2.3-19.8l6-0.3l3.3,7.8h0.1l5.1-8.3l6-0.3l-2.3,19.8l-6,0.3l1-8.9h-0.1l-3.1,5.1
			L175.2,89.1z"/>
		<path d="M196.7,87.9l-1.7,4l-6.2,0.4l8.6-20.1l7.8-0.5l4,19.4l-6.1,0.4l-0.8-3.9L196.7,87.9z M198.8,83l2.5-0.1l-0.8-4.3L198.8,83
			z"/>
		<path d="M213.6,90.8l1.7-15l-4.6,0.3l0.6-4.8l15.2-0.9l-0.6,4.8l-4.6,0.3l-1.7,15L213.6,90.8z"/>
		<path d="M228.8,70.3l6-0.3l-0.9,7.8l1,0.9l3.1-0.2l1-8.8l6-0.3l-2.3,19.8l-6,0.3l0.7-6.2l-7,0.4l-2.9-2.8L228.8,70.3z"/>
		<path d="M252.8,84.7l-1.7,4l-6.1,0.4l8.6-20.1l7.8-0.5l4,19.4l-6.2,0.4l-0.8-3.9L252.8,84.7z M254.9,79.8l2.5-0.1l-0.8-4.3
			L254.9,79.8z"/>
		<path d="M267.6,87.7l0.5-4.8l5.5-0.3l-0.5,4.8L267.6,87.7z M274.6,75.8l-1.6,5.1l-4.1,0.2l-0.4-5l1-8.2l6-0.3L274.6,75.8z"/>
	</g>
	<g>
		<g>
			<path style="fill:#FDC000;" d="M91.6,38.4L79.8,64.3l-7.7,0.4l2.6-5.6L72,59.4l-4.8-19.6l7.7-0.4l2.9,13H78l5.9-13.5L91.6,38.4z"
				/>
			<path style="fill:#FDC000;" d="M112.2,37.2l-0.7,6.2L101.1,44l-2.2,19.2l-7.7,0.4l3-25.4L112.2,37.2z"/>
			<path style="fill:#FDC000;" d="M117.2,57.1l-2.2,5.2l-7.9,0.5l11.1-25.9l10.1-0.6l5.1,24.9l-7.9,0.5l-1-5L117.2,57.1z
				 M119.9,50.9l3.2-0.2l-1-5.5L119.9,50.9z"/>
			<path style="fill:#FDC000;" d="M135.5,55l2.8-2.5l3.1-16.9l18.3-1.1l-2.3,19.2l2.7-0.2l-1.3,11.6l-7.7,0.4l0.7-5.4l-10.2,0.6
				l-0.7,5.4l-7.7,0.4l1.3-11.6L135.5,55z M143.7,54.5l5.9-0.3l1.6-13.1l-3.4,0.2l-2.1,11.5L143.7,54.5z"/>
			<path style="fill:#FDC000;" d="M170.6,54.1l-2.2,5.2l-7.9,0.5l11.1-25.9l10.1-0.6l5.1,24.9l-7.9,0.5l-1-5L170.6,54.1z
				 M173.3,47.8l3.2-0.2l-1-5.5L173.3,47.8z"/>
			<path style="fill:#FDC000;" d="M203.6,57.2l1.3-11.6h-0.2l-8,12l-7.2,0.4l3-25.4l7.7-0.4l-1.3,11.6h0.2l8-12l7.2-0.4l-3,25.4
				L203.6,57.2z M200.3,30l-2.7-2.5l0.5-4l4.9-0.3l-0.2,1.5l0.8,0.7l1.4-0.1l1-0.8l0.2-1.5l4.9-0.3l-0.5,4l-3.4,2.9L200.3,30z"/>
			<path style="fill:#FDC000;" d="M220.9,56.2l2.2-19.2l-5.9,0.3l0.7-6.2l19.6-1.1l-0.7,6.2l-5.9,0.3l-2.2,19.2L220.9,56.2z"/>
			<path style="fill:#FDC000;" d="M260.1,28.7l-0.7,6.2l-11.3,0.7l-0.4,3.6l8.1-0.5l-0.7,5.8L247,45l-0.4,3.6l11.7-0.7l-0.7,6.2
				l-19.4,1.1l3-25.4L260.1,28.7z"/>
			<path style="fill:#FFFFFF;" d="M68.2,96.1l1-9h-0.1l-6.2,9.3l-5.6,0.3l2.3-19.8l6-0.3l-1,9h0.1l6.2-9.3l5.6-0.3l-2.3,19.8
				L68.2,96.1z"/>
			<path style="fill:#FFFFFF;" d="M93.1,94.6l-11.5,0.7l-3.2-3.2l1.5-13l4-3.6l11.5-0.7l-0.6,4.8l-8.5,0.5l-0.6,0.6l-1,9l0.5,0.5
				l8.5-0.5L93.1,94.6z"/>
			<path style="fill:#FFFFFF;" d="M104.5,88.1l-4.3,6.1L94,94.6l7.3-10.4l-4.6-9.4l6.1-0.4l2.6,5.3h0.1l3.9-5.7l6.2-0.4l-6.9,10.1
				l5,9.7l-6.1,0.4l-2.9-5.7H104.5z"/>
			<path style="fill:#FFFFFF;" d="M130.8,72.5l3.2,3.2l-1.6,13.6l-4,3.6l-10.1,0.6l-3.2-3.2l1.6-13.6l4-3.6L130.8,72.5z M122.5,78.3
				l-1.1,9.6l0.5,0.5l4.2-0.2l0.6-0.6l1.1-9.6l-0.5-0.5l-4.2,0.2L122.5,78.3z"/>
			<path style="fill:#FFFFFF;" d="M135,87.4l2.2-1.9l2.4-13.2l14.3-0.8l-1.8,15l2.1-0.1l-1,9l-6,0.3l0.5-4.2l-8,0.5l-0.5,4.2l-6,0.3
				l1-9L135,87.4z M141.4,87.1l4.6-0.3l1.2-10.2l-2.7,0.2l-1.6,8.9L141.4,87.1z"/>
			<path style="fill:#FFFFFF;" d="M172.2,86.1l-1.9-4.8h-0.1l-1,8.9l-6,0.3l2.3-19.8l6-0.3l3.3,7.8h0.1l5.1-8.3l6-0.3l-2.3,19.8
				l-6,0.3l1-8.9h-0.1l-3.1,5.1L172.2,86.1z"/>
			<path style="fill:#FFFFFF;" d="M193.7,84.9l-1.7,4l-6.2,0.4l8.6-20.1l7.8-0.5l4,19.4l-6.1,0.4l-0.8-3.9L193.7,84.9z M195.8,80
				l2.5-0.1l-0.8-4.3L195.8,80z"/>
			<path style="fill:#FFFFFF;" d="M210.6,87.8l1.7-15l-4.6,0.3l0.6-4.8l15.2-0.9l-0.6,4.8l-4.6,0.3l-1.7,15L210.6,87.8z"/>
			<path style="fill:#FFFFFF;" d="M225.8,67.3l6-0.3l-0.9,7.8l1,0.9l3.1-0.2l1-8.8l6-0.3l-2.3,19.8l-6,0.3l0.7-6.2l-7,0.4l-2.9-2.8
				L225.8,67.3z"/>
			<path style="fill:#FFFFFF;" d="M249.8,81.7l-1.7,4l-6.1,0.4l8.6-20.1l7.8-0.5l4,19.4l-6.2,0.4l-0.8-3.9L249.8,81.7z M251.9,76.8
				l2.5-0.1l-0.8-4.3L251.9,76.8z"/>
			<path style="fill:#FFFFFF;" d="M264.6,84.7l0.5-4.8l5.5-0.3l-0.5,4.8L264.6,84.7z M271.6,72.8l-1.6,5.1l-4.1,0.2l-0.4-5l1-8.2
				l6-0.3L271.6,72.8z"/>
		</g>
	</g>
</g>
</svg>
