<svg xmlns="http://www.w3.org/2000/svg" xmlns:xlink="http://www.w3.org/1999/xlink" viewBox="0 0 66 66"><defs><path id="a" d="M0 0h66v66H0z"/></defs><clipPath id="b"><use xlink:href="#a" overflow="visible"/></clipPath><g clip-path="url(#b)" fill="#ee6060"><path d="M49.8 22.7H35.6c-1.8 0-3.2 1.4-3.2 3.2v10.3h-1.3v-9.6c0-1.5-.7-2.8-1.9-3.7L26.6 21v-1.6h1.3v-5.2H16.2v5.2h1.3V21l-2.6 1.9c-1.2.8-1.9 2.2-1.9 3.7v23.2c0 1.8 1.4 3.2 3.2 3.2h14.9c.9 0 1.6-.5 1.9-1.3.6.8 1.5 1.3 2.6 1.3h14.2c1.8 0 3.2-1.4 3.2-3.2V25.9c0-1.8-1.4-3.2-3.2-3.2zM35.6 24h14.2c1.1 0 1.9.9 1.9 1.9v.6H33.6v-.6c0-1.1.9-1.9 2-1.9zm-2 21.3l.6-7v-.2c0-.6-.3-1.1-.6-1.4v-8.9h18.1v18.7H33.6v-1.2zM22 36.2c-1 0-1.9.8-1.9 1.9v.2l.7 7.6h-6.5V29.1h15.5v7.1H22zm-4.5-20.6h9v2.6h-9v-2.6zm-3.2 11c0-1 .5-2 1.4-2.6l3.2-2.3v-2.3h6.5v2.3l3.2 2.3c.8.6 1.4 1.6 1.4 2.6v1.2H14.3v-1.2zm0 23.2v-2.6h6.6l.4 3.9c0 .2.1.4.1.6h-5.2c-1 0-1.9-.9-1.9-1.9zm16.8 1.9h-7.8c-.4 0-.7-.3-.8-.7l-1.2-12.9c0-.3.3-.6.6-.6h10.4c.3 0 .6.3.6.6L31.8 51c0 .4-.3.7-.7.7zm18.7 0H35.6c-1.1 0-1.9-.9-1.9-1.9v-1.9h18.1v1.9c-.1 1-1 1.9-2 1.9z"/><path d="M38.8 20.7h1.3c0-1.4 1.2-2.6 2.6-2.6 1.4 0 2.6 1.2 2.6 2.6h1.3c0-2.1-1.7-3.9-3.9-3.9-2.2.1-3.9 1.8-3.9 3.9z"/><path d="M42.7 14.3c3.6 0 6.5 2.9 6.5 6.5h1.3c0-4.3-3.5-7.7-7.7-7.7s-7.7 3.5-7.7 7.7h1.3c-.2-3.6 2.7-6.5 6.3-6.5zm-2.6 34.8h5.2v1.3h-5.2zm-24.5-5.8h1.3v1.3h-1.3zm0-12.9h1.3V42h-1.3zM34.9 44h1.3v1.3h-1.3zm0-14.9h1.3v13.5h-1.3zm-4.5 11.6c0 .7-.6 1.3-1.3 1.3s-1.3-.6-1.3-1.3v-.6h-1.3v.6c0 1.4 1.2 2.6 2.6 2.6s2.6-1.2 2.6-2.6v-.6h-1.3v.6zm-5.1 3.9c-1.1 0-1.9.9-1.9 1.9s.9 1.9 1.9 1.9 1.9-.9 1.9-1.9-.9-1.9-1.9-1.9zm0 2.6c-.4 0-.6-.3-.6-.6 0-.4.3-.6.6-.6s.6.3.6.6-.3.6-.6.6z"/></g><path d="M33 2c17.1 0 31 13.9 31 31S50.1 64 33 64 2 50.1 2 33 15.9 2 33 2m0-2C14.8 0 0 14.8 0 33s14.8 33 33 33 33-14.8 33-33S51.2 0 33 0z" fill="#c9d8e2"/><path fill="none" stroke="#c9d8e2" stroke-width="2" stroke-miterlimit="10" d="M55.8 9.7L9.2 56.3"/></svg>