<svg xmlns="http://www.w3.org/2000/svg" xmlns:xlink="http://www.w3.org/1999/xlink" viewBox="0 0 66 66"><defs><path id="a" d="M0 0h66v66H0z"/></defs><clipPath id="b"><use xlink:href="#a" overflow="visible"/></clipPath><g clip-path="url(#b)" fill="#ee6060"><path d="M42.1 19.4h-2.3v-.9h.8c1.2 0 2.2-1 2.2-2.2V11c0-1.2-1-2.2-2.2-2.2H25.4c-1.2 0-2.2 1-2.2 2.2v5.3c0 1.2 1 2.2 2.2 2.2h.8v.9h-2.3c-3.7 0-6.8 3-6.8 6.8v17.4c0 .4.3.7.7.7.4 0 .7-.3.7-.7V28.4H39c.4 0 .7-.3.7-.7 0-.4-.3-.7-.7-.7H18.6v-.8c0-2.9 2.4-5.3 5.3-5.3h3c.4 0 .7-.3.7-.7v-1.6h10.7v1.6c0 .4.3.7.7.7h3c2.9 0 5.3 2.4 5.3 5.3v.8H42c-.4 0-.7.3-.7.7 0 .4.3.7.7.7h5.3v19.7H18.6v-1.6c0-.4-.3-.7-.7-.7-.4 0-.7.3-.7.7v3.8c0 3.7 3 6.8 6.8 6.8h18.1c3.7 0 6.8-3 6.8-6.8V26.2c-.1-3.7-3.1-6.8-6.8-6.8zm-16.7-2.2c-.4 0-.8-.4-.8-.8v-5.3c0-.4.4-.8.8-.8h15.1c.4 0 .8.4.8.8v5.3c0 .4-.4.8-.8.8H25.4zm16.7 38.5H23.9c-2.9 0-5.3-2.4-5.3-5.3v-.8h28.8v.8c0 2.9-2.4 5.3-5.3 5.3z"/><path d="M33 11.1c-.4 0-.7.3-.7.7v3.8c0 .4.3.7.7.7s.7-.3.7-.7v-3.8c0-.4-.3-.7-.7-.7zm3 0c-.4 0-.7.3-.7.7v3.8c0 .4.3.7.7.7s.7-.3.7-.7v-3.8c0-.4-.3-.7-.7-.7zm3.8 4.5v-3.8c0-.4-.3-.7-.7-.7-.4 0-.7.3-.7.7v3.8c0 .4.3.7.7.7.3 0 .7-.3.7-.7zM30 11.1c-.4 0-.7.3-.7.7v3.8c0 .4.3.7.7.7.4 0 .7-.3.7-.7v-3.8c0-.4-.3-.7-.7-.7zm-3 0c-.4 0-.7.3-.7.7v3.8c0 .4.3.7.7.7s.7-.3.7-.7v-3.8c0-.4-.4-.7-.7-.7zm7.5 21.2h-3c-.4 0-.7.3-.7.7v3.1h-3.1c-.4 0-.7.3-.7.7v3c0 .4.3.7.7.7h3.1v3.1c0 .4.3.7.7.7h3c.4 0 .7-.3.7-.7v-3.1h3.1c.4 0 .7-.3.7-.7v-3c0-.4-.3-.7-.7-.7h-3.1V33c0-.4-.3-.7-.7-.7zm3.1 5.2v1.6h-3.1c-.4 0-.7.3-.7.7v3.1h-1.6v-3.1c0-.4-.3-.7-.7-.7h-3.1v-1.6h3.1c.4 0 .7-.3.7-.7v-3.1h1.6v3.1c0 .4.3.7.7.7h3.1z"/></g><path d="M33 2c17.1 0 31 13.9 31 31S50.1 64 33 64 2 50.1 2 33 15.9 2 33 2m0-2C14.8 0 0 14.8 0 33s14.8 33 33 33 33-14.8 33-33S51.2 0 33 0z" fill="#c9d8e2"/><path fill="none" stroke="#c9d8e2" stroke-width="2" stroke-miterlimit="10" d="M55.8 9.7L9.2 56.3"/></svg>