<svg xmlns="http://www.w3.org/2000/svg" xmlns:xlink="http://www.w3.org/1999/xlink" viewBox="0 0 66 66"><defs><path id="a" d="M0 0h66v66H0z"/></defs><clipPath id="b"><use xlink:href="#a" overflow="visible"/></clipPath><g clip-path="url(#b)" fill="#ee6060"><path d="M47.7 12.9c-.3-.3-.8-.5-1.2-.5v-.1c0-2-1.6-3.5-3.5-3.5-.5 0-1 .1-1.5.3-.8-.8-1.9-1.2-3-1.2-.6 0-1.1.1-1.7.3C35.6 7.4 34.3 7 33 7c-1.3 0-2.6.4-3.7 1.2-.5-.2-1.1-.3-1.7-.3-1.1 0-2.2.4-3 1.2-.5-.2-.9-.3-1.5-.3-2 0-3.5 1.6-3.5 3.5v.1h-.1c-.5 0-.9.2-1.2.5-.3.3-.5.8-.5 1.2.1 10.7 1.7 16.3 3.2 21.7 1.5 5.2 3 10.6 3.1 20.6 0 1.4 1.2 2.6 2.6 2.6h12.6c1.4 0 2.6-1.2 2.6-2.6.2-10 1.7-15.4 3.1-20.6 1.5-5.4 3.1-11 3.2-21.7 0-.4-.1-.9-.5-1.2zm-28.2 1.2h1.8c.5 0 1 .4 1 1 0 1.5 1.2 2.6 2.6 2.6 1.5 0 2.6-1.2 2.6-2.6 0-.5.4-1 .9-1h1.8c.5 0 1 .4 1 1v5.7c-.3.1-.5.2-.7.3-.5.2-.9.4-1.8.4s-1.3-.2-1.8-.4c-.6-.2-1.2-.5-2.4-.5s-1.9.3-2.4.5-.9.4-1.8.4h-.6c-.1-2.3-.2-4.7-.2-7.4zm23.9 21.3c-1.5 5.3-3 10.8-3.2 21 0 .5-.4.9-1 .9H26.7c-.5 0-.9-.4-.9-.9-.2-10.2-1.7-15.7-3.2-21-1-3.7-2-7.3-2.6-12.4h.4c1.2 0 1.9-.3 2.4-.5s.9-.4 1.8-.4 1.3.2 1.8.4c.6.2 1.2.5 2.4.5s1.9-.3 2.4-.5v9.6c0 1.5 1.2 2.6 2.6 2.6 1.5 0 2.6-1.2 2.6-2.6v-1.8c0-.5-.4-.8-.8-.8-.5 0-.8.4-.8.8v1.8c0 .5-.4 1-1 1-.5 0-1-.4-1-1V15c0-1.5-1.2-2.6-2.6-2.6h-1.8c-1.5 0-2.6 1.2-2.6 2.6 0 .5-.4 1-1 1-.5 0-1-.4-1-1 0-1.5-1.2-2.6-2.6-2.6h-.1v-.1c0-1 .8-1.9 1.9-1.9.4 0 .8.1 1.1.4.2.1.4.2.6.2.2 0 .4-.2.6-.3.5-.7 1.3-1.1 2.2-1.1.5 0 .9.1 1.4.4.3.2.7.1 1-.1.8-.8 1.9-1.2 3-1.2s2.2.4 3 1.2c.3.2.7.3 1 .1.4-.3.9-.4 1.4-.4.9 0 1.7.4 2.2 1.1.1.2.3.3.6.3.2 0 .4 0 .6-.2.3-.3.7-.4 1.1-.4 1 0 1.9.8 1.9 1.9v.1h-.1c-1.5 0-2.6 1.2-2.6 2.6v1.8c0 .5.4.8.8.8.5 0 .8-.4.8-.8V15c0-.5.4-1 1-1h1.8c0 2.7-.1 5.1-.3 7.2h-.6c-.9 0-1.3-.2-1.8-.4h-.1v-.5c0-.5-.4-.8-.8-.8-.5 0-.8.4-.8.8v1.8c0 .5-.4 1-1 1-.5 0-1-.4-1-1V15c0-1.5-1.2-2.6-2.6-2.6a2.732 2.732 0 0 0-2.7 2.7v11.7c0 .5.4.8.8.8.5 0 .8-.4.8-.8V23h.7c.6 0 1-.1 1.4-.1.3 1.1 1.3 1.9 2.5 1.9 1.3 0 2.3-.9 2.6-2.1.5.2 1 .3 1.9.3h.5c-.4 5.1-1.4 8.7-2.5 12.4zm-6.2-14h-.7V15c0-.3.1-.5.3-.7.2-.2.4-.3.7-.3.5 0 1 .4 1 1v6.2c-.4.1-.7.2-1.3.2zm0 0"/><path d="M37.5 53.7h-9c-.5 0-.8.4-.8.8 0 .5.4.8.8.8h9c.5 0 .8-.4.8-.8s-.3-.8-.8-.8zm0 0"/></g><g clip-path="url(#b)"><path d="M33 2c17.1 0 31 13.9 31 31S50.1 64 33 64 2 50.1 2 33 15.9 2 33 2m0-2C14.8 0 0 14.8 0 33s14.8 33 33 33 33-14.8 33-33S51.2 0 33 0z" fill="#c9d8e2"/><path fill="none" stroke="#c9d8e2" stroke-width="2" stroke-miterlimit="10" d="M55.8 9.7L9.2 56.3"/></g><path d="M33 2c17.1 0 31 13.9 31 31S50.1 64 33 64 2 50.1 2 33 15.9 2 33 2m0-2C14.8 0 0 14.8 0 33s14.8 33 33 33 33-14.8 33-33S51.2 0 33 0z" fill="#c9d8e2"/><path fill="none" stroke="#c9d8e2" stroke-width="2" stroke-miterlimit="10" d="M55.8 9.7L9.2 56.3"/></svg>