<svg xmlns="http://www.w3.org/2000/svg" viewBox="0 0 285 27.5"><path d="M3.7 20.7V4.3h4.6v5.9H14V4.3h4.6v16.5H14v-6.6H8.4v6.6H3.7zM21.5 4.3h4.6v16.5h-4.6V4.3zm14.6 16.4v-2.3c-2.5 0-4.5-.6-5.8-1.7-1.3-1.2-2-2.8-2-4.9 0-2.1.7-3.7 2-4.9 1.3-1.2 3.3-1.8 5.8-1.7V3.5h4.6v1.8c2.5-.1 4.4.5 5.7 1.7 1.3 1.2 2 2.8 2 4.9 0 2.1-.7 3.7-2 4.9-1.3 1.2-3.2 1.7-5.8 1.7v2.3h-4.5zm4.3-12.1v6.6c1.1 0 1.9-.2 2.6-.8.6-.6.9-1.4.9-2.5s-.3-1.9-.9-2.4c-.6-.7-1.5-1-2.6-.9m-3.9 6.6V8.6c-1.1 0-2 .3-2.6.8-.6.6-.9 1.4-.9 2.5s.3 1.9.9 2.5c.6.5 1.5.8 2.6.8M49.3 4.3h5.4l3.2 6.9 2.6-6.9h5l-7.4 16.5h-4.9l2.1-4.8-6-11.7zm17.6 16.4V4.3h6.9c1.9 0 3.4.5 4.4 1.6 1.1 1 1.6 2.4 1.6 3.9 0 1.6-.5 2.9-1.6 4-1 1-2.5 1.6-4.4 1.6h-2.3v5.4h-4.6zm4.6-12.8v3.8h1.3c.7 0 1.3-.1 1.7-.5.4-.3.6-.8.6-1.4 0-.7-.2-1.1-.6-1.4-.4-.3-.9-.4-1.7-.4h-1.3zm18.6 13.3c-2.6 0-4.7-.8-6.4-2.3-1.7-1.6-2.5-3.7-2.5-6.4s.8-4.8 2.5-6.4c1.7-1.6 3.8-2.4 6.4-2.4 2.6 0 4.7.8 6.3 2.4 1.7 1.6 2.5 3.7 2.5 6.4s-.8 4.8-2.5 6.4-3.7 2.3-6.3 2.3m0-3.9c1.1 0 2.1-.4 2.9-1.2.8-.8 1.2-2 1.2-3.5s-.4-2.7-1.2-3.5c-.8-.8-1.8-1.2-2.9-1.2-1.2 0-2.1.4-2.9 1.2-.8.8-1.2 2-1.2 3.5s.4 2.7 1.2 3.5c.8.8 1.7 1.2 2.9 1.2m11.1 3.4V4.3h4.6v6.9l5-6.9h5.4l-6.3 8 6.4 8.5h-5.8l-4.8-7.1v7.1h-4.5zm28.6-5.4V20c-.6.4-1.3.7-2 .9-.7.2-1.5.3-2.4.3-2.5 0-4.5-.8-6.1-2.4-1.6-1.6-2.4-3.7-2.4-6.3 0-2.7.8-4.8 2.4-6.3 1.6-1.6 3.6-2.4 5.9-2.4.9 0 1.7.1 2.4.4.8.2 1.5.6 2.1 1V10c-.5-.6-1.2-1.1-1.8-1.5-.7-.3-1.4-.5-2.1-.5-1.3 0-2.3.4-3.1 1.3-.8.9-1.2 2-1.2 3.4 0 1.3.4 2.3 1.1 3.2.8.8 1.8 1.3 3.1 1.3.7 0 1.4-.2 2-.5.9-.4 1.5-.8 2.1-1.4m.6 5.4l5.9-16.5h5.6l5.9 16.5h-4.9l-.8-2.8h-5.7l-.8 2.8h-5.2zm8.7-12.5l-1.8 6.1h3.6l-1.8-6.1zm11.1.4l-1.6-3.2c.8-.5 1.7-.9 2.7-1.1.9-.3 1.9-.4 2.9-.4 1.9 0 3.4.4 4.6 1.3 1.2.9 1.8 2 1.8 3.4 0 .8-.3 1.6-.8 2.3-.5.7-1.1 1.2-2 1.4v.1c.9.3 1.7.8 2.2 1.4.5.6.8 1.5.8 2.5 0 1.5-.6 2.8-1.9 3.7-1.3.9-2.8 1.4-4.7 1.4-1.3 0-2.5-.2-3.4-.6-.9-.4-1.9-1-3.1-1.9l1.9-3.1c.6.6 1.3 1 2 1.4.7.3 1.4.5 2 .5.8 0 1.4-.2 1.8-.5.4-.3.6-.8.6-1.3 0-.6-.2-1-.7-1.3-.5-.3-1.1-.4-2-.4h-2.6v-3.3h2.6c.8 0 1.4-.1 1.8-.4.4-.3.6-.7.6-1.3 0-.5-.2-.9-.6-1.2-.4-.3-1-.4-1.7-.4-.6 0-1.1.1-1.6.3-.4 0-1 .3-1.6.7M163 4.3h4.4v9.9l6.3-9.9h4.5v16.5h-4.4v-9.9l-6.4 9.9H163V4.3zm20.1 0h12.1v12.5h2V24h-4v-3.3h-9.5V24h-4v-7.2c.9 0 1.7-.4 2.3-1.1.6-.7.9-1.6 1-2.7V4.3zm4.2 3.9v3.9c0 1.4-.2 2.5-.4 3.1-.3.7-.7 1.2-1.3 1.5h5V8.2h-3.3zm17 12.5V4.3h6.9c1.9 0 3.4.5 4.4 1.6 1.1 1 1.6 2.4 1.6 3.9 0 1.6-.5 2.9-1.6 4-1 1-2.5 1.6-4.4 1.6H209v5.4h-4.7zM209 7.9v3.8h1.3c.7 0 1.3-.1 1.7-.5.4-.3.6-.8.6-1.4 0-.7-.2-1.1-.6-1.4-.4-.3-1-.4-1.7-.4H209zm10.4-3.6h4.6v16.5h-4.6V4.3zm6 16.4l6-8.7-5.4-7.8h5.5l2.4 4.4 2.4-4.4h5.2l-5.1 7.6 6 8.9H237l-3.1-5.4-3.3 5.4h-5.2zm20.7 0V8.2h-3.6v-4h11.9v4h-3.6v12.5h-4.7zm9.9 0V4.3h9.9v4h-5.3v2.3h4.8v3.6h-4.8v2.6h5.3v4H256zm12.3 0V4.3h6.9c1.9 0 3.4.5 4.4 1.6 1.1 1 1.6 2.4 1.6 3.9 0 1.6-.5 2.9-1.6 4-1.1 1-2.5 1.6-4.4 1.6h-2.3v5.4h-4.6zm4.6-12.8v3.8h1.3c.7 0 1.3-.1 1.7-.5.4-.3.6-.8.6-1.4 0-.7-.2-1.1-.6-1.4-.4-.3-.9-.4-1.7-.4h-1.3z" fill="#ee6060"/></svg>