<?xml version="1.0" encoding="utf-8"?>
<!-- Generator: Adobe Illustrator 21.1.0, SVG Export Plug-In . SVG Version: 6.00 Build 0)  -->
<svg version="1.1" id="Layer_1" xmlns="http://www.w3.org/2000/svg" xmlns:xlink="http://www.w3.org/1999/xlink" x="0px" y="0px"
	 viewBox="0 0 220 45.8" style="enable-background:new 0 0 220 45.8;" xml:space="preserve">
<style type="text/css">
	.st0{fill:#E30613;}
	.st1{clip-path:url(#SVGID_2_);fill:none;stroke:#FFFFFF;stroke-width:0.5;stroke-miterlimit:3.864;}
</style>
<g id="Logo_1_">
	<g>
		<path class="st0" d="M173.9,8.6c-3.1,0-4.6,1.2-4.6,3.7c0,0.3,0,0.6,0.1,1c0.1,2.6,0.7,4.8,1.6,6.7c0.9,1.8,1.8,2.7,3,2.8
			c0.8,0,1.4-0.4,2-1.1c0.6-0.9,1-1.8,1.4-2.8c0.4-1.1,0.7-2.2,0.9-3.1c0.2-1,0.3-1.8,0.3-2.3v-0.8C178.6,9.9,177.1,8.7,173.9,8.6
			 M173.9,29.3c-2,0-3.6-0.5-5-1.5c-1.4-0.9-2.7-2.3-3.7-4c-0.9-1.7-1.7-3.5-2.2-5.4c-0.5-1.9-0.8-3.8-0.8-5.6v-0.9
			c0-1.6,0.3-3.1,0.9-4.6c0.7-1.4,1.9-2.6,3.6-3.4c1.7-0.9,4-1.4,7-1.4c1.8,0,3.4,0.2,4.9,0.6c1.6,0.4,3.2,1.2,4.6,2.6
			c1.4,1.3,2.2,3.2,2.4,5.9v0.7c0,2.5-0.3,4.7-0.9,6.8c-0.6,2.2-1.4,3.9-2.5,5.4c-1.1,1.6-2.3,2.7-3.8,3.5
			C177.1,28.8,175.5,29.3,173.9,29.3 M160,28.4h-6.6V12.5l-7.3,8.9v7h-6.5V2.7h6.5v9l7.3-9h6.6V28.4z M111.8,28.5V2.9h6.3l5.3,7.2
			l5.8-7.2h6.3v25.6h-6.8V13.3l-5.2,6.8l-4.7-6.8v15.2H111.8z M90.2,28.4V9.3h6.6v6.9c1.2-0.7,2.6-1.5,3.8-2.7
			c1.2-1.2,1.8-2.3,1.8-3.1c0-1.2-1.2-1.8-3.8-1.8h-9.9l1.8-5.9h8.8c3,0,5.5,0.6,7.3,1.6c1.8,1,2.8,2.8,2.8,5.4c0,2-0.7,3.9-1.9,5.7
			c-1.2,1.8-2.8,3.2-4.6,4.6c-1.9,1.3-3.9,2.4-6,3.2v5.3h-6.7V28.4z M70,28.4V3h15.7l1.4,5.9H77v3.6h9.4l-1.6,6H77v4.2h11l-1.4,5.8
			H70z M51.4,13.3v-0.5c0-2.2,0.5-3.9,1.3-5.4c0.9-1.5,2.2-2.6,3.8-3.3C58,3.4,59.7,3,61.6,3h5.1l1.4,6.2h-5.4c-1,0-1.8,0.3-2.6,0.6
			c-0.7,0.5-1.1,1-1.5,1.8c-0.4,0.8-0.5,1.6-0.5,2.5c0,1.4,0.4,2.8,1.1,4.2c0.8,1.4,1.8,2.5,3.3,3.4c1.4,0.9,3.2,1.4,5.2,1.4
			c0.4,0,0.7,0,0.9-0.1l-1.4,5.8c-0.3,0-0.6,0.1-1,0.1c-2.2,0-4.2-0.5-6.1-1.2c-1.8-0.9-3.4-2-4.7-3.4c-1.3-1.4-2.4-3.1-3-5
			C51.7,17.2,51.4,15.3,51.4,13.3 M189,25.9V3h6.6V11h6.8V3h6.9v25.4h-6.9V16.6h-6.8v9.3c0,0.7,0,1.1,0.1,1.6
			c0.1,0.5,0.2,0.7,0.3,0.9l-6.2,4c-0.3-0.7-0.6-1.5-0.7-2.8C189,28.3,189,27.1,189,25.9"/>
		<path class="st0" d="M5.4,41.6c-0.1,0-0.4-0.1-0.5-0.1s-0.1-0.4,0-0.6s0.5-0.9,0.6-1c0.1-0.2,5.4-9.7,5.4-9.7s0.3-0.4,0.6-0.3
			s0.4,0.4,0.3,0.5C11.5,30.7,5.5,41.6,5.4,41.6"/>
		<path class="st0" d="M10.3,41.6c-0.1,0-0.4-0.1-0.5-0.1s-0.1-0.4,0-0.6s0.5-0.9,0.6-1c0-0.2,5.5-9.7,5.5-9.7s0.3-0.4,0.6-0.3
			c0.3,0.1,0.4,0.4,0.3,0.5C16.6,30.6,10.4,41.6,10.3,41.6"/>
		<path class="st0" d="M15.3,41.4c-0.1,0-0.4-0.1-0.5-0.1s-0.1-0.4,0-0.6c0.1-0.2,6-10.5,6-10.5s0.3-0.4,0.6-0.3
			c0.3,0.1,0.4,0.4,0.3,0.5C21.6,30.6,15.5,41.4,15.3,41.4"/>
		<path class="st0" d="M25.5,41.4c-0.1,0-5.7,0-5.8-0.1c-0.1,0-0.1-0.4,0-0.6c0.1-0.2,0.5-0.9,0.6-1c0.1-0.2,5.6-9.9,5.6-9.9h10.1
			c0,0,0.2,1,0.7,1.7c0,0.1,0.3,1.6-0.1,2c-0.2,0.2-0.3,0.3-0.5,0.5c-0.5,0.4-6.2,0.4-6.2,0.4c-0.7,0.6-1,1-1.4,1.7
			C28.1,36.7,25.5,41.4,25.5,41.4"/>
		<path class="st0" d="M9.9,29.3h2.3c0.1,0,0.6-0.6,0.7-0.8c0.2-0.2,0.4-0.5,0.4-0.7c0-0.2,0-0.3-0.2-0.3s-3.7,0-3.9,0
			c-0.2,0-0.4,0.1-0.4,0.4c0,0.2,0.3,0.6,0.6,0.9S9.9,29.3,9.9,29.3"/>
		<path class="st0" d="M7.7,27.3h5.9c0.4,0-0.4-1.5-0.6-1.7c-0.1-0.1-5.8,0-6.1,0c-0.2,0-0.4,0.1-0.4,0.4c0,0.2,0.3,0.6,0.6,0.9
			C7.4,26.9,7.7,27.3,7.7,27.3"/>
		<path class="st0" d="M5.6,24.9h7.3c0.4,0-0.4-1.5-0.6-1.7c-0.1-0.1-7.3,0-7.5,0c-0.2,0-0.4,0.1-0.4,0.4c0,0.2,0.3,0.6,0.6,0.9
			C5.4,24.5,5.6,24.9,5.6,24.9"/>
		<path class="st0" d="M4.1,22.5h8.1c0.4,0-0.3-1.6-0.6-1.7c-0.3-0.1-7.6,0-7.8,0c-0.2-0.1-0.3,0.1-0.3,0.3s0.2,0.6,0.4,0.9
			C4,22.3,4.1,22.5,4.1,22.5"/>
		<path class="st0" d="M3.3,20.1h8.3c0.4,0-0.4-1.5-0.6-1.7c-0.1-0.1-7.6,0-7.8,0s-0.4,0.1-0.4,0.4c0,0.2,0,0.5,0.1,0.9
			C3.2,20,3.3,20.1,3.3,20.1"/>
		<path class="st0" d="M2.9,17.7H11c0.4,0-0.3-1.3-0.5-1.5c-0.1-0.1-7.4,0-7.6,0c-0.2,0-0.4,0.1-0.4,0.4c0,0.2,0,0.5,0.1,0.9
			C2.8,17.7,2.9,17.7,2.9,17.7"/>
		<path class="st0" d="M3.1,15.5h7c0.4,0-0.1-1.3-0.3-1.6c-0.1-0.1-6.5,0-6.6,0S2.8,14,2.8,14.3c0,0.2,0,0.5,0.1,0.9
			C3.1,15.5,3.1,15.5,3.1,15.5"/>
		<path class="st0" d="M3.4,13h6c0.4,0,0.3-1.4,0-1.7c-0.1-0.1-5.2,0-5.4,0s-0.4,0.2-0.5,0.4c-0.2,0.3-0.5,0.4-0.3,0.8
			C3.4,12.9,3.4,13,3.4,13"/>
		<path class="st0" d="M4.8,10.6h5.4c0.4,0,0.5-0.7,0.9-0.7c0.3,0,0.9,0.7,1,0.7h2.2c0.4,0,1.1-1,0.9-1.3c-0.1-0.1-9.6,0-9.8,0
			C5.2,9.3,5,9.5,4.9,9.7c-0.2,0.3-0.5,0.4-0.4,0.8C4.7,10.8,4.8,10.6,4.8,10.6"/>
		<path class="st0" d="M6.5,8.4h25.7c0.2,0,0.3-0.3,0.1-0.7c-0.2-0.4-0.8-0.9-0.9-0.9c-0.1-0.1-23.7,0-23.9,0C7.2,6.8,7,7.1,6.8,7.2
			C6.4,7.4,6.1,7.5,6.2,7.9C6.4,8.3,6.5,8.4,6.5,8.4"/>
		<path class="st0" d="M8.8,6c1.4,0,19.7-0.3,20.5-0.3c0.2,0,0.3,0,0.1-0.4c-0.2-0.4-1.1-0.9-1.2-0.9c-0.1-0.1-17.2,0-17.4,0
			C10.6,4.5,10.1,4.9,9.9,5C9.5,5.3,8.3,6,8.8,6"/>
		<path class="st0" d="M22.6,3.8c0,0,1.1,0.1,1.5,0c0.4,0.1,0.8-0.3,0.2-0.5c-1.3-0.3-2-0.5-3.3-0.6c-1.7-0.2-2.8-0.3-4.5-0.1
			c-0.8,0.1-0.7,0.1-2.1,0.4c-0.7,0.1-1.3,0.5-0.9,0.7C14.8,3.7,22.6,3.8,22.6,3.8"/>
	</g>
	<polygon class="st0" points="14.1,13 14.6,13 14.3,11.6 13.8,11.6 	"/>
	<polygon class="st0" points="19,13 19.6,13 19.3,11.6 18.7,11.6 	"/>
	<polygon class="st0" points="14.7,15.4 15.3,15.4 14.8,13.7 14.4,13.6 	"/>
	<polygon class="st0" points="19.8,15.4 20.3,15.4 19.8,13.7 19.3,13.6 	"/>
	<polygon class="st0" points="15.4,17.8 16,17.8 15.5,16.1 15,16 	"/>
	<polygon class="st0" points="20.4,17.8 21,17.8 20.5,16.1 20,16 	"/>
	<polygon class="st0" points="16.1,20.1 16.6,20.1 16.2,18.4 15.6,18.4 	"/>
	<polygon class="st0" points="21.1,20.1 21.8,20.1 21.2,18.4 20.7,18.4 	"/>
	<polygon class="st0" points="16.6,22.4 17.2,22.4 16.7,20.6 16.3,20.6 	"/>
	<polygon class="st0" points="21.3,20.7 21.8,22.4 22.3,22.4 21.9,20.6 	"/>
	<polygon class="st0" points="17.3,24.8 17.9,24.8 17.4,23.1 16.8,23 	"/>
	<polygon class="st0" points="21.9,23.1 22.3,24.8 23.1,24.8 22.6,23.1 	"/>
	<g>
		<path class="st0" d="M17.5,25.3c0,0,0.3,0.7,0.3,1.1c0,0.3-0.1,0.8-0.1,0.8h0.9l-0.5-1.9H17.5z"/>
	</g>
	<polygon class="st0" points="22.3,25.3 22.8,27.3 23.7,27.3 23.2,25.3 	"/>
	<g>
		<path class="st0" d="M16.3,29.3c0,0,0-0.4,0.1-0.5c0.1-0.2,0.4-0.5,0.5-0.7c0.2-0.2,0.4-0.4,0.4-0.4h0.9c0,0-0.1,0.4-0.3,0.6
			c-0.2,0.3-0.4,0.6-0.6,0.8c-0.2,0.2-0.2,0.3-0.2,0.3L16.3,29.3z"/>
		<path class="st0" d="M21.3,29.3c0,0,0-0.4,0.1-0.5c0.1-0.2,0.4-0.5,0.5-0.7c0.2-0.2,0.4-0.4,0.4-0.4h0.9c0,0-0.1,0.4-0.3,0.6
			c-0.2,0.3-0.4,0.6-0.6,0.8C22,29.3,22,29.3,22,29.3L21.3,29.3z"/>
		<path class="st0" d="M16.6,9.5c-0.1-0.1-0.1-0.2,0-0.3s0.8-0.1,1.3-0.1s1.2,0,1.4,0c0.2,0,0.4,0.2,0.2,0.5
			c-0.1,0.2-0.3,0.5-0.4,0.6c-0.1,0.1,0,0.2-0.5,0.2s-0.7-0.1-1.1-0.3C17.2,9.9,16.7,9.6,16.6,9.5"/>
		<path class="st0" d="M22.5,9.1h10.2c0.3,0,0.6,0,0.8,0.2c0.2,0.2,0.5,0.4,0.3,0.7s-0.4,0.4-0.4,0.4h-10c-0.2,0-0.1-0.4-0.4-0.6
			c-0.3-0.2-0.4-0.2-0.6-0.3c-0.2-0.1-0.2-0.2-0.2-0.3C22.2,9.1,22.3,9.1,22.5,9.1"/>
		<path class="st0" d="M23.7,11.4h10.4c0.2,0,0.4,0.1,0.6,0.4c0.1,0.3,0.2,0.7,0.3,0.9c0.1,0.2,0,0.3-0.1,0.3H24.1
			c-0.2,0-0.4-0.6-0.4-0.9C23.7,11.7,23.7,11.4,23.7,11.4"/>
		<path class="st0" d="M24.7,13.7h10.2c0.3,0,0.5,0.3,0.5,0.7s0,0.8-0.1,0.9c-0.1,0.1-0.1,0.2-0.1,0.2H24.9c-0.1,0-0.5-0.4-0.6-0.8
			c-0.1-0.4-0.1-0.6,0-0.7C24.5,13.8,24.5,13.7,24.7,13.7"/>
		<path class="st0" d="M25.1,16.1h9.8c0.3,0,0.5,0.3,0.5,0.7c0,0.4-0.3,0.8-0.3,0.9c-0.1,0.1-0.2,0.2-0.2,0.2h-9.5
			c-0.1,0-0.5-0.4-0.6-0.8c-0.1-0.4-0.1-0.6,0-0.7C25,16.2,25,16.1,25.1,16.1"/>
		<path class="st0" d="M25.7,18.4c0.1,0,9.1,0,9.4,0c0.2,0,0.4,0.3,0.7,0.6c0.3,0.3,0.4,0.6,0.3,0.9c0,0.1-0.2,0.2-0.2,0.2H26
			c-0.1,0-0.5-0.4-0.6-0.8c-0.1-0.4-0.1-0.6,0-0.7C25.6,18.5,25.6,18.4,25.7,18.4"/>
		<path class="st0" d="M26.4,20.5c0.1,0,9.7,0,10,0c0.2,0,0.4,0.3,0.6,0.6c0.3,0.3,0.6,0.7,0.7,1c0,0.1,0,0.4,0,0.4H26.7
			c-0.1,0-0.5-0.7-0.6-1c-0.1-0.4-0.1-0.6,0-0.7C26.3,20.6,26.3,20.5,26.4,20.5"/>
		<path class="st0" d="M27.3,23c0.1,0,9.7,0,10,0c0.2,0,1-0.1,1.2,0.2c0.3,0.3,0.5,0.8,0.2,1.2c-0.1,0.1-0.4,0.4-0.4,0.4H27.5
			c-0.1,0-0.5-0.7-0.6-0.9c-0.1-0.4-0.1-0.6,0-0.7C27.1,23.1,27.2,23,27.3,23"/>
		<path class="st0" d="M26.1,29.3c-0.1,0-0.1-0.2,0.2-0.6c0.3-0.4,0.6-0.7,0.8-0.8c0.2-0.1,0.6-0.1,0.9-0.1h8.2
			c0.4,0,0.7,0.1,0.5,0.6c-0.2,0.5-0.3,0.9-0.5,0.9C35.9,29.3,26.2,29.3,26.1,29.3"/>
		<path class="st0" d="M27.5,27.2h8.7c0.1,0,0.4-0.2,0.2-0.4c-0.2-0.2-0.2-0.4-0.1-0.6c0.1-0.2,0.3-0.4,0.2-0.6
			c-0.1-0.2-0.1-0.4-0.3-0.4s-8.2,0-8.3,0c-0.2,0-0.3,0.1-0.3,0.4c0,0.2,0.1,0.3,0.2,0.5c0.1,0.2,0.1,0.3,0,0.4
			c-0.2,0.1-0.2,0.3-0.2,0.4C27.4,27,27.5,27.2,27.5,27.2"/>
	</g>
	<polygon class="st0" points="79.1,41.2 79.1,34.2 79.9,34.2 79.9,37.1 83.6,37.1 83.6,34.2 84.6,34.2 84.6,41.2 83.6,41.2 
		83.6,37.9 79.9,37.9 79.9,41.2 	"/>
	<polygon class="st0" points="89.6,34.2 90.4,34.2 90.4,39.8 94.1,34.2 95.1,34.2 95.1,41.2 94.2,41.2 94.2,35.7 90.5,41.2 
		89.6,41.2 	"/>
	<polygon class="st0" points="100,34.2 101,34.2 101,40.4 104.7,40.4 104.7,34.2 105.6,34.2 105.6,40.4 106.3,40.4 106.3,43.2 
		105.4,43.2 105.4,41.2 100,41.2 	"/>
	<polygon class="st0" points="110.8,41.2 110.8,34.2 115.9,34.2 115.9,35 111.7,35 111.7,37.2 115.6,37.2 115.6,38 111.7,38 
		111.7,40.4 116.1,40.4 116.1,41.2 	"/>
	<g>
		<path class="st0" d="M121.8,37.5h1.8c0.6,0,1-0.1,1.3-0.4c0.3-0.2,0.4-0.6,0.4-0.9c0-0.3-0.1-0.6-0.2-0.8
			c-0.2-0.2-0.4-0.4-0.6-0.4c-0.2,0-0.5-0.1-0.9-0.1h-1.8L121.8,37.5L121.8,37.5z M120.8,41.2v-7h2.7c0.5,0,0.9,0,1,0.1
			c0.4,0.1,0.7,0.2,0.9,0.3c0.2,0.2,0.4,0.4,0.6,0.7c0.2,0.3,0.2,0.6,0.2,0.9c0,0.6-0.2,1.1-0.6,1.5c-0.4,0.4-1,0.7-2.1,0.7h-1.8
			v2.8C121.7,41.2,120.8,41.2,120.8,41.2z"/>
	</g>
	<polygon class="st0" points="130.8,34.2 135.3,34.2 135.3,35 131.7,35 131.7,41.2 130.8,41.2 	"/>
	<g>
		<path class="st0" d="M139.8,37.8c0,0.9,0.2,1.5,0.7,2c0.5,0.5,1,0.8,1.7,0.8c0.7,0,1.2-0.3,1.7-0.8c0.5-0.5,0.7-1.2,0.7-2.1
			c0-0.6-0.1-1-0.3-1.5c-0.2-0.5-0.5-0.8-0.9-0.9c-0.4-0.2-0.8-0.4-1.2-0.4c-0.7,0-1.2,0.2-1.7,0.7C140,36,139.8,36.7,139.8,37.8
			 M138.7,37.8c0-1.1,0.3-2.1,0.9-2.8c0.7-0.7,1.4-0.9,2.5-0.9c0.7,0,1.2,0.2,1.8,0.5c0.6,0.3,0.9,0.8,1.2,1.3
			c0.3,0.6,0.4,1.2,0.4,1.9c0,0.8-0.2,1.3-0.5,1.9s-0.7,0.9-1.2,1.2c-0.6,0.3-1.1,0.5-1.7,0.5c-0.7,0-1.2-0.2-1.8-0.5
			s-0.9-0.8-1.2-1.3C138.9,39,138.7,38.5,138.7,37.8"/>
		<path class="st0" d="M150.6,34.2h4.4v7H154V35h-2.5v3.6c0,0.8,0,1.2-0.1,1.6c-0.1,0.4-0.2,0.6-0.5,0.8c-0.2,0.2-0.5,0.3-0.9,0.3
			c-0.2,0-0.5,0-0.8-0.1l0.2-0.9c0.2,0.1,0.3,0.1,0.4,0.1c0.2,0,0.4-0.1,0.5-0.3c0.1-0.2,0.2-0.6,0.2-1.1L150.6,34.2L150.6,34.2z"/>
	</g>
	<polygon class="st0" points="160,34.2 160.8,34.2 160.8,39.8 164.5,34.2 165.5,34.2 165.5,41.2 164.6,41.2 164.6,35.7 160.9,41.2 
		160,41.2 	"/>
	<polygon class="st0" points="170.5,41.2 170.5,34.2 171.5,34.2 171.5,37.1 175.1,37.1 175.1,34.2 176,34.2 176,41.2 175.1,41.2 
		175.1,37.9 171.5,37.9 171.5,41.2 	"/>
	<g>
		<g>
			<defs>
				<path id="SVGID_1_" d="M61.6,3c-1.9,0-3.6,0.4-5.1,1.1c-1.6,0.8-2.8,1.8-3.8,3.3c-0.9,1.5-1.3,3.2-1.3,5.4v0.5
					c0,2,0.3,3.9,1,5.7c0.7,1.9,1.7,3.6,3,5c1.3,1.4,2.8,2.5,4.7,3.4c1.9,0.9,3.9,1.2,6.1,1.2c0.5,0,0.8-0.1,1-0.1l1.5-5.9
					c-0.2,0.1-0.5,0.1-0.9,0.1c-2,0-3.8-0.5-5.2-1.4c-1.5-0.9-2.6-2-3.3-3.4c-0.8-1.4-1.1-2.8-1.1-4.2c0-0.9,0.1-1.8,0.5-2.5
					c0.4-0.7,0.9-1.3,1.5-1.8C60.9,9.2,61.8,9,62.8,9h5.4l-1.4-6.2h-5.2V3z M70,3v25.4h16.4l1.4-5.8H77v-4.2h7.8l1.6-6H77V8.9h10.2
					L85.8,3C85.8,3,70,3,70,3z M202.5,3V11h-6.8V3H189v23c0,1.1,0.1,2.4,0.3,3.6c0.1,1.3,0.4,2.2,0.7,2.8l6.2-4
					c-0.1-0.1-0.3-0.4-0.3-0.9c-0.1-0.5-0.1-1-0.1-1.6v-9.3h6.8v11.8h6.9V3H202.5z M129.2,2.9l-5.8,7.2l-5.3-7.2h-6.3v25.6h6.8V13.3
					l4.7,6.8l5.2-6.8v15.2h6.8V2.9C135.4,2.9,129.2,2.9,129.2,2.9z M90.4,2.7l-1.8,5.9h9.9c2.6,0,3.8,0.7,3.8,1.8
					c0,0.9-0.6,2-1.8,3.1c-1.2,1.2-2.5,2.1-3.8,2.7V9.3h-6.6v19.1h6.6v-5.3c2.1-0.9,4.1-1.9,6-3.2c1.9-1.2,3.4-2.8,4.6-4.6
					s1.9-3.6,1.9-5.7c0-2.6-0.9-4.4-2.8-5.4s-4.3-1.6-7.3-1.6L90.4,2.7L90.4,2.7z M153.3,2.7l-7.3,9v-9h-6.5v25.7h6.5v-7l7.3-8.9
					v15.9h6.6V2.7H153.3z M170.9,20.1c-0.9-1.9-1.4-4.2-1.6-6.7c-0.1-0.5-0.1-0.9-0.1-1c0-2.5,1.5-3.7,4.6-3.7
					c3,0.1,4.6,1.4,4.6,4.2v0.8c0,0.5-0.1,1.2-0.3,2.3c-0.2,1-0.5,2-0.9,3.1c-0.4,1-0.9,2-1.4,2.8c-0.7,0.8-1.2,1.1-2,1.1
					C172.8,22.8,171.7,21.9,170.9,20.1 M166.8,4c-1.7,0.9-2.8,2.1-3.6,3.4c-0.7,1.4-0.9,2.8-0.9,4.6v0.9c0,1.8,0.3,3.7,0.8,5.6
					c0.5,1.9,1.2,3.7,2.2,5.4c1,1.6,2.3,3,3.7,4c1.4,1,3,1.5,5,1.5c1.6,0,3.1-0.5,4.6-1.2c1.4-0.9,2.7-2,3.8-3.5
					c1-1.5,1.9-3.2,2.5-5.4c0.6-2.1,0.9-4.4,0.9-6.8v-0.8c-0.2-2.6-0.9-4.6-2.4-5.9c-1.3-1.4-2.8-2.2-4.6-2.6
					c-1.6-0.4-3.2-0.6-4.9-0.6C170.8,2.6,168.5,3.1,166.8,4"/>
			</defs>
			<clipPath id="SVGID_2_">
				<use xlink:href="#SVGID_1_"  style="overflow:visible;"/>
			</clipPath>
			<path class="st1" d="M269,7.6H41.4 M269,5.8H41.4 M269,4H41.4"/>
		</g>
	</g>
</g>
<g>
	<path class="st0" d="M218.9,6.4c0,1.9-1.5,3.5-3.5,3.5c-2,0-3.5-1.5-3.5-3.5c0-1.9,1.6-3.4,3.5-3.4C217.4,3,218.9,4.5,218.9,6.4z
		 M212.7,6.4c0,1.5,1.1,2.7,2.7,2.7c1.5,0,2.6-1.2,2.6-2.7c0-1.5-1.1-2.7-2.6-2.7C213.9,3.7,212.7,4.9,212.7,6.4z M214.8,8.2H214
		V4.8c0.3-0.1,0.7-0.1,1.3-0.1c0.6,0,0.9,0.1,1.2,0.2c0.2,0.1,0.3,0.4,0.3,0.7c0,0.4-0.3,0.7-0.7,0.8v0c0.3,0.1,0.5,0.4,0.6,0.8
		c0.1,0.5,0.2,0.7,0.3,0.9h-0.9c-0.1-0.1-0.2-0.4-0.3-0.8c-0.1-0.4-0.3-0.5-0.7-0.5h-0.4V8.2z M214.9,6.3h0.4c0.4,0,0.8-0.1,0.8-0.5
		c0-0.3-0.2-0.5-0.7-0.5c-0.2,0-0.4,0-0.4,0V6.3z"/>
</g>
</svg>
