<?xml version="1.0" encoding="utf-8"?>
<!-- Generator: Adobe Illustrator 20.1.0, SVG Export Plug-In . SVG Version: 6.00 Build 0)  -->
<svg version="1.1" id="Layer_1" xmlns="http://www.w3.org/2000/svg" xmlns:xlink="http://www.w3.org/1999/xlink" x="0px" y="0px"
	 viewBox="0 0 220 45.8" style="enable-background:new 0 0 220 45.8;" xml:space="preserve">
<g id="Logo_1_">
	<g>
		<path style="fill:#E30613;" d="M181.6,7.8c-3.3,0-4.9,1.3-4.9,3.9c0,0.3,0,0.6,0.1,1.1c0.1,2.7,0.7,5.1,1.7,7.1
			c0.9,1.9,1.9,2.8,3.2,2.9c0.8,0,1.5-0.4,2.1-1.2c0.6-0.9,1.1-1.9,1.5-3c0.4-1.2,0.7-2.3,0.9-3.3c0.2-1.1,0.3-1.9,0.3-2.4v-0.8
			C186.5,9.2,184.9,7.9,181.6,7.8 M181.6,29.6c-2.1,0-3.8-0.5-5.3-1.6c-1.5-1-2.8-2.4-3.9-4.2c-1-1.8-1.8-3.7-2.3-5.7
			c-0.5-2-0.8-4-0.8-5.9v-0.9c0-1.7,0.3-3.3,1-4.8c0.7-1.5,2-2.7,3.8-3.6c1.8-1,4.2-1.5,7.4-1.5c1.9,0,3.6,0.2,5.2,0.6
			c1.7,0.4,3.4,1.3,4.8,2.7c1.5,1.4,2.3,3.4,2.5,6.2v0.7c0,2.6-0.3,5-0.9,7.2c-0.6,2.3-1.5,4.1-2.6,5.7c-1.2,1.7-2.4,2.8-4,3.7
			C184.9,29.1,183.3,29.6,181.6,29.6 M166.9,28.7h-7V11.9l-7.7,9.4v7.4h-6.9V1.6h6.9v9.5l7.7-9.5h7V28.7z M116.1,28.8v-27h6.6
			l5.6,7.6l6.1-7.6h6.6v27h-7.2v-16l-5.5,7.2l-5-7.2v16H116.1z M93.3,28.7V8.6h7v7.3c1.3-0.7,2.7-1.6,4-2.8c1.3-1.3,1.9-2.4,1.9-3.3
			c0-1.3-1.3-1.9-4-1.9H91.8l1.9-6.2h9.3c3.2,0,5.8,0.6,7.7,1.7c1.9,1.1,2.9,3,2.9,5.7c0,2.1-0.7,4.1-2,6c-1.3,1.9-2.9,3.4-4.9,4.8
			c-2,1.4-4.1,2.5-6.3,3.4v5.6H93.3z M72.1,28.7V1.9h16.6l1.5,6.2H79.4v3.8h9.9l-1.7,6.3h-8.2v4.4H91l-1.5,6.1H72.1z M52.4,12.8
			v-0.5c0-2.3,0.5-4.1,1.4-5.7c1-1.6,2.3-2.7,4-3.5c1.6-0.8,3.4-1.2,5.4-1.2h5.4l1.5,6.5h-5.7c-1.1,0-1.9,0.3-2.7,0.6
			c-0.7,0.5-1.2,1.1-1.6,1.9c-0.4,0.8-0.5,1.7-0.5,2.6c0,1.5,0.4,2.9,1.2,4.4c0.8,1.5,1.9,2.6,3.5,3.6c1.5,0.9,3.4,1.5,5.5,1.5
			c0.4,0,0.7,0,0.9-0.1L69.2,29c-0.3,0-0.6,0.1-1.1,0.1c-2.3,0-4.4-0.5-6.4-1.3c-1.9-0.9-3.6-2.1-5-3.6c-1.4-1.5-2.5-3.3-3.2-5.3
			C52.8,16.9,52.4,14.9,52.4,12.8 M197.5,26.1V1.9h7v8.5h7.2V1.9h7.3v26.8h-7.3V16.3h-7.2v9.8c0,0.7,0,1.2,0.1,1.7
			c0.1,0.5,0.2,0.7,0.3,0.9l-6.5,4.2c-0.3-0.7-0.6-1.6-0.7-3C197.5,28.6,197.5,27.3,197.5,26.1"/>
		<path style="fill:#E30613;" d="M4,42.6c-0.1,0-0.4-0.1-0.5-0.1c-0.1,0-0.1-0.4,0-0.6c0.1-0.2,0.5-0.9,0.6-1.1
			c0.1-0.2,5.7-10.2,5.7-10.2s0.3-0.4,0.6-0.3c0.3,0.1,0.4,0.4,0.3,0.5C10.4,31.1,4.1,42.6,4,42.6"/>
		<path style="fill:#E30613;" d="M9.1,42.6c-0.1,0-0.4-0.1-0.5-0.1c-0.1,0-0.1-0.4,0-0.6c0.1-0.2,0.5-0.9,0.6-1.1
			C9.2,40.6,15,30.6,15,30.6s0.3-0.4,0.6-0.3c0.3,0.1,0.4,0.4,0.3,0.5C15.8,31,9.2,42.6,9.1,42.6"/>
		<path style="fill:#E30613;" d="M14.4,42.4c-0.1,0-0.4-0.1-0.5-0.1c-0.1,0-0.1-0.4,0-0.6c0.1-0.2,6.3-11.1,6.3-11.1
			s0.3-0.4,0.6-0.3c0.3,0.1,0.4,0.4,0.3,0.5C21,31,14.6,42.4,14.4,42.4"/>
		<path style="fill:#E30613;" d="M25.1,42.4c-0.1,0-6,0-6.1-0.1c-0.1,0-0.1-0.4,0-0.6c0.1-0.2,0.5-0.9,0.6-1.1
			c0.1-0.2,5.9-10.4,5.9-10.4l10.6,0c0,0,0.2,1.1,0.7,1.8c0,0.1,0.3,1.7-0.1,2.1c-0.2,0.2-0.3,0.3-0.5,0.5C35.7,35,29.7,35,29.7,35
			c-0.7,0.6-1.1,1.1-1.5,1.8C27.9,37.4,25.1,42.4,25.1,42.4"/>
		<path style="fill:#E30613;" d="M8.7,29.7h2.4c0.1,0,0.6-0.6,0.7-0.8c0.2-0.2,0.4-0.5,0.4-0.7c0-0.2,0-0.3-0.2-0.3
			c-0.2,0-3.9,0-4.1,0c-0.2,0-0.4,0.1-0.4,0.4c0,0.2,0.3,0.6,0.6,0.9C8.4,29.5,8.7,29.7,8.7,29.7"/>
		<path style="fill:#E30613;" d="M6.4,27.5h6.2c0.4,0-0.4-1.6-0.6-1.8c-0.1-0.1-6.1,0-6.4,0c-0.2,0-0.4,0.1-0.4,0.4
			c0,0.2,0.3,0.6,0.6,0.9C6.1,27.1,6.4,27.5,6.4,27.5"/>
		<path style="fill:#E30613;" d="M4.2,25h7.7c0.4,0-0.4-1.6-0.6-1.8c-0.1-0.1-7.7,0-7.9,0c-0.2,0-0.4,0.1-0.4,0.4
			c0,0.2,0.3,0.6,0.6,0.9C4,24.6,4.2,25,4.2,25"/>
		<path style="fill:#E30613;" d="M2.6,22.5h8.5c0.4,0-0.3-1.7-0.6-1.8c-0.3-0.1-8,0-8.2,0C2.1,20.6,2,20.8,2,21c0,0.2,0.2,0.6,0.4,1
			C2.5,22.3,2.6,22.5,2.6,22.5"/>
		<path style="fill:#E30613;" d="M1.7,20h8.7c0.4,0-0.4-1.6-0.6-1.8c-0.1-0.1-8,0-8.2,0c-0.2,0-0.4,0.1-0.4,0.4c0,0.2,0,0.5,0.1,0.9
			C1.6,19.8,1.7,20,1.7,20"/>
		<path style="fill:#E30613;" d="M1.3,17.4h8.6c0.4,0-0.3-1.4-0.5-1.6c-0.1-0.1-7.8,0-8,0c-0.2,0-0.4,0.1-0.4,0.4
			c0,0.2,0,0.5,0.1,0.9C1.2,17.4,1.3,17.4,1.3,17.4"/>
		<path style="fill:#E30613;" d="M1.5,15.1h7.4c0.4,0-0.1-1.4-0.3-1.7c-0.1-0.1-6.8,0-7,0c-0.2,0-0.4,0.1-0.4,0.4
			c0,0.2,0,0.5,0.1,0.9C1.5,15.1,1.5,15.1,1.5,15.1"/>
		<path style="fill:#E30613;" d="M1.9,12.5h6.3c0.4,0,0.3-1.5,0-1.8c-0.1-0.1-5.5,0-5.7,0c-0.2,0-0.4,0.2-0.5,0.4
			c-0.2,0.3-0.5,0.4-0.3,0.8C1.8,12.4,1.9,12.5,1.9,12.5"/>
		<path style="fill:#E30613;" d="M3.3,9.9H9c0.4,0,0.5-0.7,0.9-0.7c0.3,0,0.9,0.7,1.1,0.7h2.3c0.4,0,1.2-1.1,0.9-1.4
			c-0.1-0.1-10.1,0-10.3,0C3.7,8.6,3.5,8.8,3.4,9C3.2,9.3,2.9,9.4,3,9.8C3.2,10.2,3.3,9.9,3.3,9.9"/>
		<path style="fill:#E30613;" d="M5.1,7.6h27.1c0.2,0,0.3-0.3,0.1-0.7c-0.2-0.4-0.8-0.9-1-1c-0.1-0.1-25,0-25.2,0
			c-0.2,0-0.5,0.4-0.7,0.5C5,6.6,4.7,6.7,4.8,7.1C5,7.5,5.1,7.6,5.1,7.6"/>
		<path style="fill:#E30613;" d="M7.5,5.1c1.5,0,20.8-0.3,21.6-0.3c0.2,0,0.3,0,0.1-0.4c-0.2-0.4-1.2-0.9-1.3-1
			c-0.1-0.1-18.1,0-18.3,0C9.4,3.5,8.9,3.9,8.7,4C8.3,4.3,7,5.1,7.5,5.1"/>
		<path style="fill:#E30613;" d="M22.1,2.8c0,0,1.2,0.1,1.6,0c0.4,0.1,0.8-0.3,0.2-0.5c-1.4-0.3-2.1-0.5-3.5-0.6
			c-1.8-0.2-2.9-0.3-4.7-0.1c-0.8,0.1-0.7,0.1-2.2,0.4c-0.7,0.1-1.4,0.5-1,0.7C13.9,2.7,22.1,2.8,22.1,2.8"/>
	</g>
	<polygon style="fill:#E30613;" points="13.1,12.5 13.7,12.5 13.3,11 12.8,11 	"/>
	<polygon style="fill:#E30613;" points="18.3,12.5 18.9,12.5 18.6,11 18,11 	"/>
	<polygon style="fill:#E30613;" points="13.8,15 14.4,15 13.9,13.2 13.4,13.1 	"/>
	<polygon style="fill:#E30613;" points="19.1,15 19.7,15 19.1,13.2 18.6,13.1 	"/>
	<polygon style="fill:#E30613;" points="14.5,17.5 15.1,17.5 14.6,15.7 14.1,15.6 	"/>
	<polygon style="fill:#E30613;" points="19.8,17.5 20.4,17.5 19.9,15.7 19.3,15.6 	"/>
	<polygon style="fill:#E30613;" points="15.2,20 15.8,20 15.3,18.2 14.7,18.2 	"/>
	<polygon style="fill:#E30613;" points="20.5,20 21.2,20 20.6,18.2 20.1,18.2 	"/>
	<polygon style="fill:#E30613;" points="15.8,22.4 16.4,22.4 15.9,20.5 15.4,20.5 	"/>
	<polygon style="fill:#E30613;" points="20.7,20.6 21.2,22.4 21.8,22.4 21.3,20.5 	"/>
	<polygon style="fill:#E30613;" points="16.5,24.9 17.1,24.9 16.6,23.1 16,23 	"/>
	<polygon style="fill:#E30613;" points="21.3,23.1 21.8,24.9 22.6,24.9 22.1,23.1 	"/>
	<g>
		<path style="fill:#E30613;" d="M16.7,25.4c0,0,0.3,0.7,0.3,1.2c0,0.3-0.1,0.8-0.1,0.8l0.9,0l-0.5-2L16.7,25.4z"/>
	</g>
	<polygon style="fill:#E30613;" points="21.8,25.4 22.3,27.5 23.2,27.5 22.7,25.4 	"/>
	<g>
		<path style="fill:#E30613;" d="M15.5,29.6c0,0,0-0.4,0.1-0.5c0.1-0.2,0.4-0.5,0.5-0.7c0.2-0.2,0.4-0.4,0.4-0.4h0.9
			c0,0-0.1,0.4-0.3,0.6c-0.2,0.3-0.4,0.6-0.6,0.8c-0.2,0.2-0.2,0.3-0.2,0.3L15.5,29.6z"/>
		<path style="fill:#E30613;" d="M20.7,29.6c0,0,0-0.4,0.1-0.5c0.1-0.2,0.4-0.5,0.5-0.7c0.2-0.2,0.4-0.4,0.4-0.4h0.9
			c0,0-0.1,0.4-0.3,0.6c-0.2,0.3-0.4,0.6-0.6,0.8c-0.2,0.2-0.2,0.3-0.2,0.3L20.7,29.6z"/>
		<path style="fill:#E30613;" d="M15.8,8.8c-0.1-0.1-0.1-0.2,0-0.3c0.1-0.1,0.8-0.1,1.4-0.1c0.6,0,1.3,0,1.5,0
			c0.2,0,0.4,0.2,0.2,0.5c-0.1,0.2-0.3,0.5-0.4,0.6c-0.1,0.1,0,0.2-0.5,0.2c-0.5,0-0.7-0.1-1.2-0.3C16.4,9.2,15.9,8.9,15.8,8.8"/>
		<path style="fill:#E30613;" d="M22,8.4h10.7c0.3,0,0.6,0,0.8,0.2s0.5,0.4,0.3,0.7c-0.2,0.3-0.4,0.4-0.4,0.4H22.9
			c-0.2,0-0.1-0.4-0.4-0.6c-0.3-0.2-0.4-0.2-0.6-0.3c-0.2-0.1-0.2-0.2-0.2-0.3C21.7,8.4,21.8,8.4,22,8.4"/>
		<path style="fill:#E30613;" d="M23.3,10.8h11c0.2,0,0.4,0.1,0.6,0.4c0.1,0.3,0.2,0.7,0.3,0.9c0.1,0.2,0,0.3-0.1,0.3H23.7
			c-0.2,0-0.4-0.6-0.4-1C23.2,11.1,23.3,10.8,23.3,10.8"/>
		<path style="fill:#E30613;" d="M24.3,13.2h10.7c0.3,0,0.5,0.3,0.5,0.7c0,0.4,0,0.8-0.1,0.9c-0.1,0.1-0.1,0.2-0.1,0.2H24.5
			c-0.1,0-0.5-0.4-0.6-0.8c-0.1-0.4-0.1-0.6,0-0.7C24.1,13.3,24.1,13.2,24.3,13.2"/>
		<path style="fill:#E30613;" d="M24.7,15.7H35c0.3,0,0.5,0.3,0.5,0.7s-0.3,0.8-0.3,0.9c-0.1,0.1-0.2,0.2-0.2,0.2H25
			c-0.1,0-0.5-0.4-0.6-0.8c-0.1-0.4-0.1-0.6,0-0.7C24.6,15.8,24.6,15.7,24.7,15.7"/>
		<path style="fill:#E30613;" d="M25.4,18.2c0.1,0,9.6,0,9.9,0c0.2,0,0.4,0.3,0.7,0.6c0.3,0.3,0.4,0.6,0.3,0.9
			c0,0.1-0.2,0.2-0.2,0.2H25.7c-0.1,0-0.5-0.4-0.6-0.8c-0.1-0.4-0.1-0.6,0-0.7C25.2,18.3,25.2,18.2,25.4,18.2"/>
		<path style="fill:#E30613;" d="M26.1,20.4c0.1,0,10.2,0,10.5,0c0.2,0,0.4,0.3,0.6,0.6c0.3,0.3,0.6,0.7,0.7,1.1c0,0.1,0,0.4,0,0.4
			H26.4c-0.1,0-0.5-0.7-0.6-1.1c-0.1-0.4-0.1-0.6,0-0.7C26,20.5,26,20.4,26.1,20.4"/>
		<path style="fill:#E30613;" d="M27,23c0.1,0,10.2,0,10.5,0c0.2,0,1.1-0.1,1.3,0.2c0.3,0.3,0.5,0.8,0.2,1.3
			c-0.1,0.1-0.4,0.4-0.4,0.4H27.3c-0.1,0-0.5-0.7-0.6-1c-0.1-0.4-0.1-0.6,0-0.7C26.8,23.1,26.9,23,27,23"/>
		<path style="fill:#E30613;" d="M25.8,29.6c-0.1,0-0.1-0.2,0.2-0.6c0.3-0.4,0.6-0.7,0.8-0.8c0.2-0.1,0.6-0.1,1-0.1h8.6
			c0.4,0,0.7,0.1,0.5,0.6c-0.2,0.5-0.3,1-0.5,1C36.1,29.6,25.9,29.6,25.8,29.6"/>
		<path style="fill:#E30613;" d="M27.3,27.4h9.2c0.1,0,0.4-0.2,0.2-0.4c-0.2-0.2-0.2-0.4-0.1-0.6c0.1-0.2,0.3-0.4,0.2-0.6
			c-0.1-0.2-0.1-0.4-0.3-0.4c-0.2,0-8.6,0-8.8,0c-0.2,0-0.3,0.1-0.3,0.4c0,0.2,0.1,0.3,0.2,0.5c0.1,0.2,0.1,0.3,0,0.4
			c-0.2,0.1-0.2,0.3-0.2,0.4C27.1,27.2,27.3,27.4,27.3,27.4"/>
	</g>
	<polygon style="fill:#E30613;" points="81.6,42.2 81.6,34.8 82.5,34.8 82.5,37.9 86.4,37.9 86.4,34.8 87.4,34.8 87.4,42.2 
		86.4,42.2 86.4,38.7 82.5,38.7 82.5,42.2 	"/>
	<polygon style="fill:#E30613;" points="92.7,34.8 93.6,34.8 93.6,40.7 97.5,34.8 98.5,34.8 98.5,42.2 97.6,42.2 97.6,36.4 
		93.7,42.2 92.7,42.2 	"/>
	<polygon style="fill:#E30613;" points="103.7,34.8 104.7,34.8 104.7,41.4 108.6,41.4 108.6,34.8 109.6,34.8 109.6,41.4 110.3,41.4 
		110.3,44.3 109.4,44.3 109.4,42.2 103.7,42.2 	"/>
	<polygon style="fill:#E30613;" points="115.1,42.2 115.1,34.8 120.4,34.8 120.4,35.7 116,35.7 116,38 120.1,38 120.1,38.8 
		116,38.8 116,41.4 120.6,41.4 120.6,42.2 	"/>
	<g>
		<path style="fill:#E30613;" d="M126.6,38.3h1.9c0.6,0,1.1-0.1,1.4-0.4c0.3-0.2,0.4-0.6,0.4-1c0-0.3-0.1-0.6-0.2-0.8
			c-0.2-0.2-0.4-0.4-0.6-0.4c-0.2,0-0.5-0.1-0.9-0.1h-1.9V38.3z M125.6,42.2v-7.4h2.8c0.5,0,0.9,0,1.1,0.1c0.4,0.1,0.7,0.2,0.9,0.3
			c0.2,0.2,0.4,0.4,0.6,0.7c0.2,0.3,0.2,0.6,0.2,1c0,0.6-0.2,1.2-0.6,1.6c-0.4,0.4-1.1,0.7-2.2,0.7h-1.9v3H125.6z"/>
	</g>
	<polygon style="fill:#E30613;" points="136.1,34.8 140.9,34.8 140.9,35.7 137.1,35.7 137.1,42.2 136.1,42.2 	"/>
	<g>
		<path style="fill:#E30613;" d="M145.6,38.6c0,0.9,0.2,1.6,0.7,2.1c0.5,0.5,1.1,0.8,1.8,0.8c0.7,0,1.3-0.3,1.8-0.8
			c0.5-0.5,0.7-1.3,0.7-2.2c0-0.6-0.1-1.1-0.3-1.6c-0.2-0.5-0.5-0.8-0.9-1c-0.4-0.2-0.8-0.4-1.3-0.4c-0.7,0-1.3,0.2-1.8,0.7
			C145.8,36.7,145.6,37.5,145.6,38.6 M144.5,38.6c0-1.2,0.3-2.2,1-2.9c0.7-0.7,1.5-1,2.6-1c0.7,0,1.3,0.2,1.9,0.5
			c0.6,0.3,1,0.8,1.3,1.4c0.3,0.6,0.4,1.3,0.4,2c0,0.8-0.2,1.4-0.5,2c-0.3,0.6-0.7,1-1.3,1.3c-0.6,0.3-1.2,0.5-1.8,0.5
			c-0.7,0-1.3-0.2-1.9-0.5c-0.6-0.3-1-0.8-1.3-1.4C144.7,39.9,144.5,39.3,144.5,38.6"/>
		<path style="fill:#E30613;" d="M157,34.8h4.6v7.4h-1v-6.5H158v3.8c0,0.8,0,1.3-0.1,1.7c-0.1,0.4-0.2,0.6-0.5,0.8
			c-0.2,0.2-0.5,0.3-0.9,0.3c-0.2,0-0.5,0-0.8-0.1l0.2-0.9c0.2,0.1,0.3,0.1,0.4,0.1c0.2,0,0.4-0.1,0.5-0.3c0.1-0.2,0.2-0.6,0.2-1.2
			V34.8z"/>
	</g>
	<polygon style="fill:#E30613;" points="166.9,34.8 167.8,34.8 167.8,40.7 171.7,34.8 172.7,34.8 172.7,42.2 171.8,42.2 171.8,36.4 
		167.9,42.2 166.9,42.2 	"/>
	<polygon style="fill:#E30613;" points="178,42.2 178,34.8 179,34.8 179,37.9 182.8,37.9 182.8,34.8 183.8,34.8 183.8,42.2 
		182.8,42.2 182.8,38.7 179,38.7 179,42.2 	"/>
	<g>
		<defs>
			<path id="SVGID_1_" d="M63.2,1.9c-2,0-3.8,0.4-5.4,1.2c-1.7,0.8-3,1.9-4,3.5c-0.9,1.6-1.4,3.4-1.4,5.7v0.5c0,2.1,0.3,4.1,1.1,6
				c0.7,2,1.8,3.8,3.2,5.3c1.4,1.5,3,2.6,5,3.6c2,0.9,4.1,1.3,6.4,1.3c0.5,0,0.8-0.1,1.1-0.1l1.6-6.2c-0.2,0.1-0.5,0.1-0.9,0.1
				c-2.1,0-4-0.5-5.5-1.5c-1.6-0.9-2.7-2.1-3.5-3.6c-0.8-1.5-1.2-2.9-1.2-4.4c0-1,0.1-1.9,0.5-2.6c0.4-0.7,0.9-1.4,1.6-1.9
				c0.7-0.3,1.6-0.6,2.7-0.6h5.7l-1.5-6.5H63.2z M72.1,1.9v26.8h17.3l1.5-6.1H79.4v-4.4h8.2l1.7-6.3h-9.9V8.1h10.8l-1.5-6.2H72.1z
				 M211.7,1.9v8.5h-7.2V1.9h-7v24.2c0,1.2,0.1,2.5,0.3,3.8c0.1,1.4,0.4,2.3,0.7,3l6.5-4.2c-0.1-0.1-0.3-0.4-0.3-0.9
				c-0.1-0.5-0.1-1.1-0.1-1.7v-9.8h7.2v12.4h7.3V1.9H211.7z M134.4,1.8l-6.1,7.6l-5.6-7.6h-6.6v27h7.2v-16l5,7.2l5.5-7.2v16h7.2v-27
				H134.4z M93.6,1.6l-1.9,6.2h10.4c2.7,0,4,0.7,4,1.9c0,0.9-0.6,2.1-1.9,3.3c-1.3,1.3-2.6,2.2-4,2.8V8.6h-7v20.1h7v-5.6
				c2.2-0.9,4.3-2,6.3-3.4c2-1.3,3.6-2.9,4.9-4.8c1.3-1.9,2-3.8,2-6c0-2.7-1-4.6-2.9-5.7c-1.9-1.1-4.5-1.7-7.7-1.7H93.6z M159.9,1.6
				l-7.7,9.5V1.6h-6.9v27.1h6.9v-7.4l7.7-9.4v16.8h7V1.6H159.9z M178.4,19.9c-1-2-1.5-4.4-1.7-7.1c-0.1-0.5-0.1-0.9-0.1-1.1
				c0-2.6,1.6-3.9,4.9-3.9c3.2,0.1,4.8,1.5,4.8,4.4V13c0,0.5-0.1,1.3-0.3,2.4c-0.2,1.1-0.5,2.1-0.9,3.3c-0.4,1.1-0.9,2.1-1.5,3
				c-0.7,0.8-1.3,1.2-2.1,1.2C180.4,22.8,179.3,21.8,178.4,19.9 M174.1,3c-1.8,0.9-3,2.2-3.8,3.6c-0.7,1.5-1,3-1,4.8v0.9
				c0,1.9,0.3,3.9,0.8,5.9c0.5,2,1.3,3.9,2.3,5.7c1.1,1.7,2.4,3.2,3.9,4.2c1.5,1.1,3.2,1.6,5.3,1.6c1.7,0,3.3-0.5,4.8-1.3
				c1.5-0.9,2.8-2.1,4-3.7c1.1-1.6,2-3.4,2.6-5.7c0.6-2.2,0.9-4.6,0.9-7.2V11c-0.2-2.7-1-4.8-2.5-6.2c-1.4-1.5-3-2.3-4.8-2.7
				c-1.7-0.4-3.4-0.6-5.2-0.6C178.3,1.5,175.9,2,174.1,3"/>
		</defs>
		<clipPath id="SVGID_2_">
			<use xlink:href="#SVGID_1_"  style="overflow:visible;"/>
		</clipPath>
		<path style="clip-path:url(#SVGID_2_);fill:none;stroke:#FFFFFF;stroke-width:0.5;stroke-miterlimit:3.864;" d="M281.8,6.8H41.9
			 M281.8,4.9H41.9 M281.8,3H41.9"/>
	</g>
</g>
</svg>
