<?xml version="1.0" encoding="utf-8"?>
<!-- Generator: Adobe Illustrator 20.1.0, SVG Export Plug-In . SVG Version: 6.00 Build 0)  -->
<svg version="1.1" id="mobile-ic" xmlns="http://www.w3.org/2000/svg" xmlns:xlink="http://www.w3.org/1999/xlink" x="0px" y="0px"
	 viewBox="0 0 38 38" style="enable-background:new 0 0 38 38;" xml:space="preserve">
<path style="opacity:0.2;fill:#6C8CBA;" d="M26.5,1.3H11.5C10.1,1.3,9,2.4,9,3.8v30.3c0,1.4,1.2,2.6,2.6,2.6h14.9
	c1.4,0,2.6-1.2,2.6-2.6V3.8C29,2.4,27.9,1.3,26.5,1.3L26.5,1.3z M15.3,2.8h7.4c0.2,0,0.3,0.3,0.3,0.6c0,0.3-0.2,0.6-0.3,0.6h-7.4
	c-0.2,0-0.3-0.3-0.3-0.6C15,3.1,15.1,2.8,15.3,2.8L15.3,2.8z M19,34.2c-0.9,0-1.7-0.7-1.7-1.6c0-0.9,0.7-1.6,1.7-1.6
	c0.9,0,1.6,0.7,1.6,1.6C20.6,33.5,19.9,34.2,19,34.2L19,34.2z M27.1,28.5H10.9V5.6h16.2V28.5z M27.1,28.5"/>
</svg>
