<?xml version="1.0" encoding="utf-8"?>
<!-- Generator: Adobe Illustrator 20.1.0, SVG Export Plug-In . SVG Version: 6.00 Build 0)  -->
<svg version="1.1" id="android-ic" xmlns="http://www.w3.org/2000/svg" xmlns:xlink="http://www.w3.org/1999/xlink" x="0px" y="0px"
	 viewBox="0 0 38 38" style="enable-background:new 0 0 38 38;" xml:space="preserve">
<path style="opacity:0.1;fill:#2DD671;" d="M14.3,8.4c0.2,0,0.4-0.1,0.6-0.3c0.2-0.2,0.3-0.4,0.3-0.6c0-0.2-0.1-0.4-0.3-0.6
	c-0.2-0.2-0.4-0.3-0.6-0.3S13.9,6.8,13.7,7s-0.2,0.4-0.2,0.6c0,0.2,0.1,0.4,0.2,0.6S14.1,8.4,14.3,8.4z M23.7,8.4
	c0.2,0,0.4-0.1,0.6-0.3s0.2-0.4,0.2-0.6c0-0.2-0.1-0.4-0.2-0.6s-0.4-0.3-0.6-0.3S23.2,6.8,23.1,7s-0.3,0.4-0.3,0.6
	c0,0.2,0.1,0.4,0.3,0.6S23.4,8.4,23.7,8.4z M5.7,12.5c0.6,0,1.2,0.2,1.6,0.7c0.4,0.4,0.7,1,0.7,1.6v9.5c0,0.6-0.2,1.2-0.7,1.6
	c-0.4,0.4-1,0.7-1.6,0.7s-1.2-0.2-1.6-0.7c-0.4-0.4-0.7-1-0.7-1.6v-9.5c0-0.6,0.2-1.2,0.7-1.6C4.5,12.7,5.1,12.5,5.7,12.5z
	 M29.2,12.9v14.7c0,0.7-0.2,1.3-0.7,1.7s-1,0.7-1.7,0.7h-1.7v5c0,0.6-0.2,1.2-0.7,1.6c-0.4,0.4-1,0.7-1.6,0.7s-1.2-0.2-1.6-0.7
	c-0.4-0.4-0.7-1-0.7-1.6v-5h-3.1v5c0,0.6-0.2,1.2-0.7,1.6c-0.4,0.4-1,0.7-1.6,0.7c-0.6,0-1.2-0.2-1.6-0.7c-0.4-0.4-0.7-1-0.7-1.6
	l0-5h-1.6c-0.7,0-1.3-0.2-1.7-0.7c-0.5-0.5-0.7-1-0.7-1.7V12.9H29.2z M24,4c1.6,0.8,2.8,1.9,3.8,3.4c0.9,1.5,1.4,3,1.4,4.8H8.8
	c0-1.7,0.5-3.3,1.4-4.8C11.1,5.9,12.4,4.8,14,4l-1.6-2.9c-0.1-0.2-0.1-0.3,0.1-0.4c0.2-0.1,0.3,0,0.4,0.1l1.6,2.9
	C16,3.1,17.4,2.8,19,2.8s3,0.3,4.4,0.9L25,0.8c0.1-0.2,0.3-0.2,0.4-0.1c0.2,0.1,0.2,0.3,0.1,0.4L24,4z M34.6,14.8v9.5
	c0,0.6-0.2,1.2-0.7,1.6c-0.4,0.4-1,0.7-1.6,0.7c-0.6,0-1.2-0.2-1.6-0.7c-0.4-0.4-0.7-1-0.7-1.6v-9.5c0-0.6,0.2-1.2,0.7-1.6
	s1-0.7,1.6-0.7c0.6,0,1.2,0.2,1.6,0.7C34.4,13.6,34.6,14.1,34.6,14.8z"/>
</svg>
