<?xml version="1.0" encoding="utf-8"?>
<!-- Generator: Adobe Illustrator 20.1.0, SVG Export Plug-In . SVG Version: 6.00 Build 0)  -->
<svg version="1.1" id="ios-ic" xmlns="http://www.w3.org/2000/svg" xmlns:xlink="http://www.w3.org/1999/xlink" x="0px" y="0px"
	 viewBox="0 0 38 38" style="enable-background:new 0 0 38 38;" xml:space="preserve">
<path style="opacity:0.1;fill:#6CADBC;" d="M30.7,14c-1.5-1.9-3.6-3.1-5.6-3.1c-2.7,0-3.7,1.3-5.6,1.3s-3.3-1.3-5.6-1.3
	s-4.7,1.4-6.1,3.9c-2.1,3.4-1.8,9.9,1.7,15.4c1.3,1.9,2.9,4.2,5.1,4.2c1.9,0,2.5-1.3,5.1-1.3s3.1,1.3,5,1.3c2.1,0,3.9-2.5,5.1-4.4
	c0.9-1.4,1.2-2.1,1.9-3.7C26.5,24.2,25.7,16.8,30.7,14z M23,8.6c0.9-1.3,1.7-3.1,1.4-4.9c-1.6,0.1-3.4,1.1-4.5,2.5
	c-1,1.3-1.8,3.1-1.5,4.9C20.2,11.1,22,10,23,8.6z"/>
</svg>
