<?xml version="1.0" encoding="utf-8"?>
<!-- Generator: Adobe Illustrator 20.1.0, SVG Export Plug-In . SVG Version: 6.00 Build 0)  -->
<svg version="1.1" id="_x32_-2" xmlns="http://www.w3.org/2000/svg" xmlns:xlink="http://www.w3.org/1999/xlink" x="0px" y="0px"
	 viewBox="0 0 66 66" style="enable-background:new 0 0 66 66;" xml:space="preserve">
<g id="_x32_-2_1_">
	<g>
		<path style="fill:#FF952C;" d="M46.6,24.7c-0.2-1.6-1.4-2.8-3.4-3.6c-1.8-0.8-4.1-1-6.4-0.6c-2.3,0.4-4.5,1.2-6,2.5
			c-1.6,1.3-2.3,2.9-2.1,4.5c0.1,0.4,0.1,0.9,0.3,1.3c-5.6,0.7-9.7,3.8-9.7,7.4c0,4.3,1.4,9.6,12.2,9.6c7.2,0,10.2-2.3,11.5-5.1
			l-1.1-0.4c-1,2.2-3.7,4.2-10.3,4.2c-11,0-11-5.5-11-8.3c0-3.1,3.9-5.7,8.9-6.2c0.4-0.1,0.9-0.1,1.3-0.1c0.2,0,0.5,0,0.7,0
			c3,0,5.6,0.7,7.6,1.8c0.5,0.3,0.8,0.6,1.2,1c1.2,1,1.7,2.3,1.7,3.6v0.1l1.5,0.4c0-0.2,0.1-0.3,0.1-0.5c0-1.5-0.6-2.8-1.8-4
			c1.9-0.6,3.2-1.5,4-2.7c0.7-1,0.9-2.1,0.9-3.1C46.7,25.8,46.7,25.2,46.6,24.7z M44.8,28.8c-0.7,1.1-2.1,1.9-4.1,2.4
			c-2.2-1.6-5.6-2.6-9.3-2.6c-0.4,0-0.8,0-1.3,0c-0.1-0.4-0.2-0.9-0.3-1.4c-0.2-1.1,0.4-2.3,1.7-3.3c1.3-1.1,3.3-1.9,5.4-2.2
			c0.7-0.1,1.4-0.2,2-0.2c1.4,0,2.7,0.2,3.8,0.7c0.8,0.3,1.4,0.7,1.8,1.2s0.7,1,0.8,1.5C45.6,26.1,45.7,27.6,44.8,28.8z"/>
		<path style="fill:#FF952C;" d="M31.5,37.3c-4.3,0-7.5-1.2-8-2.6c-0.1-0.2-0.3-0.4-0.6-0.4l0,0c-0.4,0-0.7,0.5-0.6,0.9
			c0.8,1.9,4.5,3.4,9.2,3.4s8.3-1.5,9.2-3.4c0.2-0.4-0.1-0.9-0.6-0.9l0,0c-0.3,0-0.5,0.2-0.6,0.4C39,36.1,35.8,37.3,31.5,37.3z"/>
		<path style="fill:#FF952C;" d="M44.3,23.8c-0.6,0.1-1.1,0.4-1.5,0.9c-0.2,0.3-0.5,0.5-1,0.8c-1,0.6-2.5,1.1-4.1,1.4
			c-1.6,0.2-3.1,0.2-4.3-0.1c-0.5-0.1-0.9-0.3-1.2-0.5c-0.5-0.3-1.1-0.5-1.7-0.4l0,0c0.1,1,1.1,1.7,2.6,2.1c0.7,0.2,1.6,0.3,2.5,0.3
			c0.7,0,1.5-0.1,2.3-0.2c1.7-0.3,3.4-0.8,4.5-1.5C43.8,25.8,44.5,24.8,44.3,23.8L44.3,23.8z"/>
	</g>
</g>
</svg>
