<?xml version="1.0" encoding="utf-8"?>
<!-- Generator: Adobe Illustrator 20.1.0, SVG Export Plug-In . SVG Version: 6.00 Build 0)  -->
<svg version="1.1" id="_x33_-1_1_" xmlns="http://www.w3.org/2000/svg" xmlns:xlink="http://www.w3.org/1999/xlink" x="0px" y="0px"
	 viewBox="0 0 66 66" style="enable-background:new 0 0 66 66;" xml:space="preserve">
<g id="_x33_-1">
	<g>
		<path style="fill:#702ABA;" d="M39.1,20c-2.5,0-4.6,2-4.6,4.6c0,2.5,2,4.6,4.6,4.6c2.5,0,4.6-2,4.6-4.6C43.7,22.1,41.7,20,39.1,20
			L39.1,20z M39.1,28.1c-2,0-3.5-1.6-3.5-3.5c0-2,1.6-3.5,3.5-3.5c2,0,3.5,1.6,3.5,3.5C42.7,26.6,41.1,28.1,39.1,28.1L39.1,28.1z
			 M39.1,28.1"/>
		<path style="fill:#702ABA;" d="M49.8,22.3h-1.1c-0.2-1-0.6-1.9-1.1-2.8l0.8-0.8c0.6-0.6,0.6-1.5,0-2.1l-1.2-1.2
			c-0.3-0.3-0.7-0.4-1.1-0.4c-0.4,0-0.8,0.2-1.1,0.4l-0.8,0.8c-0.9-0.5-1.8-0.9-2.8-1.1v-1.1c0-0.8-0.7-1.5-1.5-1.5h-1.7
			c-0.8,0-1.5,0.7-1.5,1.5V15c-1,0.2-1.9,0.6-2.8,1.1l-0.8-0.8C33,15.1,32.6,15,32.2,15c-0.4,0-0.8,0.2-1.1,0.4L30,16.6
			c-0.6,0.6-0.6,1.5,0,2.1l0.8,0.8c-0.5,0.9-0.9,1.8-1.1,2.8h-1.1c-0.8,0-1.5,0.7-1.5,1.5v1.7c0,0.8,0.7,1.5,1.5,1.5h1.1
			c0.2,1,0.6,1.9,1.1,2.8L30,30.5c-0.6,0.6-0.6,1.5,0,2.1l1.2,1.2c0.3,0.3,0.7,0.4,1.1,0.4c0.4,0,0.8-0.2,1.1-0.4L34,33
			c0.9,0.5,1.8,0.9,2.8,1.1v1.1c0,0.8,0.7,1.5,1.5,1.5H40c0.8,0,1.5-0.7,1.5-1.5v-1.1c1-0.2,1.9-0.6,2.8-1.1l0.8,0.8
			c0.3,0.3,0.7,0.4,1.1,0.4c0.4,0,0.8-0.2,1.1-0.4l1.2-1.2c0.6-0.6,0.6-1.5,0-2.1l-0.8-0.8c0.5-0.9,0.9-1.8,1.1-2.8h1.1
			c0.8,0,1.5-0.7,1.5-1.5v-1.7C51.3,22.9,50.6,22.3,49.8,22.3L49.8,22.3z M50.3,25.4c0,0.3-0.2,0.5-0.5,0.5h-1.5
			c-0.2,0-0.4,0.2-0.5,0.4c-0.2,1.1-0.7,2.2-1.3,3.2c-0.1,0.2-0.1,0.5,0.1,0.6l1.1,1.1c0.2,0.2,0.2,0.5,0,0.7l-1.2,1.2
			c-0.1,0.1-0.2,0.1-0.3,0.1c-0.1,0-0.3-0.1-0.3-0.1L44.7,32c-0.2-0.2-0.4-0.2-0.6-0.1c-1,0.6-2,1.1-3.2,1.3
			c-0.2,0.1-0.4,0.3-0.4,0.5v1.5c0,0.3-0.2,0.5-0.5,0.5h-1.7c-0.3,0-0.5-0.2-0.5-0.5v-1.5c0-0.2-0.2-0.4-0.4-0.5
			c-1.1-0.2-2.2-0.7-3.2-1.3c-0.1-0.1-0.2-0.1-0.3-0.1c-0.1,0-0.3,0.1-0.4,0.2l-1.1,1.1c-0.1,0.1-0.2,0.1-0.3,0.1
			c-0.1,0-0.3-0.1-0.3-0.1l-1.2-1.2c-0.2-0.2-0.2-0.5,0-0.7l1.1-1.1c0.2-0.2,0.2-0.4,0.1-0.6c-0.6-1-1.1-2-1.3-3.2
			c-0.1-0.2-0.3-0.4-0.5-0.4h-1.5c-0.3,0-0.5-0.2-0.5-0.5v-1.7c0-0.3,0.2-0.5,0.5-0.5H30c0.2,0,0.4-0.2,0.5-0.4
			c0.2-1.1,0.7-2.2,1.3-3.2c0.1-0.2,0.1-0.5-0.1-0.6L30.7,18c-0.2-0.2-0.2-0.5,0-0.7l1.2-1.2C32,16,32.1,16,32.2,16
			c0.1,0,0.3,0.1,0.3,0.1l1.1,1.1c0.2,0.2,0.4,0.2,0.6,0.1c1-0.6,2-1.1,3.2-1.3c0.2-0.1,0.4-0.3,0.4-0.5v-1.5c0-0.3,0.2-0.5,0.5-0.5
			H40c0.3,0,0.5,0.2,0.5,0.5v1.5c0,0.2,0.2,0.4,0.4,0.5c1.1,0.2,2.2,0.7,3.2,1.3c0.2,0.1,0.5,0.1,0.6-0.1l1.1-1.1
			C45.9,16,46,16,46.1,16c0.1,0,0.3,0.1,0.3,0.1l1.2,1.2c0.2,0.2,0.2,0.5,0,0.7l-1.1,1.1c-0.2,0.2-0.2,0.4-0.1,0.6
			c0.6,1,1.1,2,1.3,3.2c0.1,0.2,0.3,0.4,0.5,0.4h1.5c0.3,0,0.5,0.2,0.5,0.5V25.4z M50.3,25.4"/>
		<path style="fill:#702ABA;" d="M44.3,36c-0.3-0.1-0.5,0.1-0.6,0.3c-0.7,2.1-1.9,3.9-3.5,5.4C40,41.8,40,42,40,42.1v10.5H25.3v-3.4
			c0-0.1-0.1-0.3-0.2-0.4c-0.1-0.1-0.3-0.1-0.4-0.1l-3.8,0.6c-1.2,0-2.2-1-2.2-2.3v-4.9c0-0.3-0.2-0.5-0.5-0.5h-1.3
			c-0.5,0-0.9-0.2-1.1-0.4c-0.2-0.3-0.1-0.7,0.1-1.2l2.7-5.2c0-0.1,0.1-0.2,0.1-0.2v-2.2c0-4.9,2.9-9.5,7.4-11.6
			c0.4-0.2,0.9-0.4,1.3-0.5c0.3-0.1,0.4-0.4,0.3-0.6c-0.1-0.3-0.4-0.4-0.6-0.3c-0.5,0.2-1,0.4-1.4,0.6c-2.3,1.1-4.3,2.8-5.7,5
			c-1.5,2.2-2.2,4.8-2.2,7.5v2.1L15,39.5c-0.4,0.8-0.4,1.6-0.1,2.2c0.4,0.6,1.1,0.9,2,0.9h0.8V47c0,1.8,1.5,3.3,3.3,3.3
			c0,0,0.1,0,0.1,0l3.2-0.5v3.3c0,0.3,0.2,0.5,0.5,0.5h15.7c0.3,0,0.5-0.2,0.5-0.5V42.3c1.7-1.6,2.9-3.5,3.6-5.7
			C44.7,36.4,44.5,36.1,44.3,36L44.3,36z M44.3,36"/>
	</g>
</g>
</svg>
