<?xml version="1.0" encoding="utf-8"?>
<!-- Generator: Adobe Illustrator 20.1.0, SVG Export Plug-In . SVG Version: 6.00 Build 0)  -->
<svg version="1.1" id="_x34_-1_1_" xmlns="http://www.w3.org/2000/svg" xmlns:xlink="http://www.w3.org/1999/xlink" x="0px" y="0px"
	 viewBox="0 0 66 66" style="enable-background:new 0 0 66 66;" xml:space="preserve">
<g id="_x34_-1">
	<g>
		<path style="fill:#FFBE1D;" d="M48.9,28.2c0-7.6-6.2-13.8-13.7-13.9c-0.1,0-0.1,0-0.2,0c-6.5,0-12.3,4.7-13.6,11.1
			c-0.3,1.6-0.4,3.2-0.1,4.9l-4.1,7.3l4.5,1.3l0,7.4h6.1v5.5h1.2v-6.7h-6.1l0-7.1l-3.9-1.1l3.6-6.4l0-0.2c-0.3-1.6-0.2-3.1,0.1-4.7
			c1.3-6,6.6-10.2,12.6-10.2c6.9,0.1,12.5,5.8,12.5,12.7l0,2.2c0,4.9-2.4,9.4-6.4,12.2L41,42.7v9.1h1.2v-8.4c4.2-3,6.7-7.8,6.7-13
			L48.9,28.2z"/>
		<path style="fill:#FFBE1D;" d="M45.9,25.7c0-1.8-1.3-3.3-3-3.6c0,0,0,0,0,0c0-2.3-1.9-4.2-4.2-4.2c-0.6,0-1.2,0.1-1.8,0.4
			c-0.7-0.6-1.6-1-2.5-1c-1.2,0-2.2,0.6-2.9,1.5c-0.4-0.2-0.9-0.3-1.3-0.3c-2,0-3.6,1.6-3.6,3.6c0,0.1,0,0.1,0,0.2
			c-1.4,0.5-2.4,1.9-2.4,3.4c0,0.8,0.3,1.5,0.7,2.2c-0.1,0.3-0.1,0.6-0.1,0.9c0,2,1.6,3.6,3.6,3.6c0.2,0,0.4,0,0.6,0l-0.5,0.8
			l3.8,2.6l-0.7,11.2L39.8,34L39,33.5c0.3-0.3,0.6-0.6,0.9-0.9c0.5,0.3,1.2,0.5,1.8,0.5c2,0,3.6-1.6,3.6-3.6c0-0.4-0.1-0.9-0.3-1.3
			C45.6,27.4,45.9,26.6,45.9,25.7z M38,34.4l-5,7.7l0.5-7l-3.4-2.3l0.1-0.2l0.6-1l3.6-6.1L34,31.5l3.5,2.5l0,0.1c0,0,0.1,0,0.1,0
			L38,34.4z M43.9,27.5l-0.3,0.3l0.2,0.4c0.2,0.4,0.3,0.8,0.3,1.1c0,1.3-1.1,2.4-2.4,2.4c-0.6,0-1.2-0.2-1.6-0.6l-0.7-0.6l-0.3,0.8
			c-0.2,0.6-0.6,1-1.1,1.3l-2.6-1.8L36.1,20l-6.3,10.7l-0.4,0.2c-0.4,0.2-0.8,0.3-1.1,0.3c-1.3,0-2.4-1.1-2.4-2.4
			c0-0.3,0-0.5,0.1-0.8l0.1-0.3l-0.2-0.3c-0.4-0.5-0.6-1-0.6-1.6c0-1.2,0.8-2.1,2-2.4c0.2,0,0.3-0.1,0.5-0.1c0.8,0,1.5,0.4,1.9,1
			l1-0.7c-0.7-0.9-1.8-1.5-2.9-1.5c0-1.3,1.1-2.4,2.4-2.4c0.1,0,0.3,0,0.4,0c0.1,0,0.1,0,0.2,0c0.1,0,0.1,0,0.2,0.1
			c0.2,0.1,0.3,0.1,0.5,0.2l0.1,0.1c0.6,0.4,1,1.2,1,2h1.2c0-1.1-0.5-2.1-1.3-2.7c0.5-0.6,1.1-0.9,1.9-0.9c0.7,0,1.4,0.3,1.9,0.9
			l0.3,0.4l0.5-0.3c0.5-0.3,1-0.4,1.6-0.4c1.7,0,3,1.4,3,3c0,0,0,0,0,0.1c-1.7,0.3-3,1.8-3,3.6h1.2c0-1.3,1.1-2.4,2.4-2.4l0.1,0
			c1.3,0,2.4,1.1,2.4,2.4C44.7,26.4,44.4,27,43.9,27.5z"/>
	</g>
</g>
</svg>
