<?xml version="1.0" encoding="utf-8"?>
<!-- Generator: Adobe Illustrator 20.1.0, SVG Export Plug-In . SVG Version: 6.00 Build 0)  -->
<svg version="1.1" id="_x34_-3_1_" xmlns="http://www.w3.org/2000/svg" xmlns:xlink="http://www.w3.org/1999/xlink" x="0px" y="0px"
	 viewBox="0 0 66 66" style="enable-background:new 0 0 66 66;" xml:space="preserve">
<g id="_x34_-3">
	<path style="fill:#FFBE1D;" d="M31,45.2C31,45.2,31,45.2,31,45.2c-0.5,0-0.8-0.3-0.8-0.8l-1.4-15.2l-1.6,11.9
		c-0.1,0.4-0.4,0.7-0.8,0.7c-0.4,0-0.8-0.3-0.9-0.7l-1.9-10.9l-0.5,3.1c-0.1,0.4-0.4,0.7-0.8,0.7h-6.1c-0.5,0-0.9-0.4-0.9-0.9
		c0-0.5,0.4-0.9,0.9-0.9h5.3l1.2-7.3c0.1-0.4,0.4-0.7,0.8-0.7h0c0.4,0,0.8,0.3,0.8,0.7l1.8,10.3L28,21.5c0.1-0.4,0.4-0.7,0.9-0.7
		c0.4,0,0.8,0.3,0.8,0.8l1.5,16.2l2.1-12.6c0.1-0.4,0.4-0.7,0.9-0.7c0.4,0,0.8,0.3,0.8,0.7l1.5,10.6l1.6-5.7
		c0.1-0.4,0.5-0.6,0.8-0.6c0.4,0,0.7,0.3,0.8,0.7l0.5,2.5h9.5c0.5,0,0.8,0.4,0.8,0.8c0,0.5-0.4,0.9-0.8,0.9H39.6
		c-0.3,0-0.6-0.2-0.8-0.5L37,40.2c-0.1,0.4-0.5,0.6-0.9,0.6c-0.4,0-0.7-0.3-0.8-0.7L34.1,31l-2.2,13.5C31.8,44.9,31.4,45.2,31,45.2
		L31,45.2z M31,45.2"/>
</g>
</svg>
