<?xml version="1.0" encoding="utf-8"?>
<!-- Generator: Adobe Illustrator 20.1.0, SVG Export Plug-In . SVG Version: 6.00 Build 0)  -->
<svg version="1.1" id="_x35_-1_1_" xmlns="http://www.w3.org/2000/svg" xmlns:xlink="http://www.w3.org/1999/xlink" x="0px" y="0px"
	 viewBox="0 0 66 66" style="enable-background:new 0 0 66 66;" xml:space="preserve">
<g id="_x35_-1">
	<path style="fill:#008DF6;" d="M33,46.8c-0.1,0-0.3,0-0.4-0.1c-0.5-0.2-11.4-4.6-11.4-17.3v-9c0-0.7,0.5-1.2,1.2-1.2h21.2
		c0.7,0,1.2,0.5,1.2,1.2v9c0,12.6-10.9,17.1-11.4,17.3C33.3,46.8,33.1,46.8,33,46.8z M22.8,20.8v8.6c0,10.9,8.9,15.1,10.2,15.7
		c1.3-0.6,10.2-4.8,10.2-15.7v-8.6H22.8z"/>
</g>
</svg>
