<?xml version="1.0" encoding="utf-8"?>
<!-- Generator: Adobe Illustrator 20.1.0, SVG Export Plug-In . SVG Version: 6.00 Build 0)  -->
<svg version="1.1" id="_x35_-2_1_" xmlns="http://www.w3.org/2000/svg" xmlns:xlink="http://www.w3.org/1999/xlink" x="0px" y="0px"
	 viewBox="0 0 66 66" style="enable-background:new 0 0 66 66;" xml:space="preserve">
<g id="_x35_-2">
	<path style="fill:#008DF6;" d="M28.3,50.2l-0.5,0L27.5,50c-0.7-0.2-1.3-0.7-1.6-1.4c-0.7-1.4-0.3-2.7,1.5-7.9
		c-4.2,3.2-5.3,3.9-6.6,3.9c-0.9,0-1.7-0.4-2.3-1.1c-0.4-0.6-0.6-1.4-0.5-2.1c0.3-1.5,1.3-2.3,5.9-5.5c-1.2,0-2.2,0.1-3.2,0.1
		c-1.1,0-1.8,0-2.4-0.1c-3-0.3-3.2-2.3-3.2-2.9c0-3,3.3-3,5.6-3c1,0,2.1,0,3.2,0.1c-4.6-3.2-5.6-4-5.9-5.5c-0.1-0.7,0-1.5,0.5-2.1
		c0.5-0.7,1.3-1.1,2.3-1.1c1.3,0,2.4,0.7,6.6,3.9c-1.8-5.2-2.2-6.5-1.5-7.9c0.3-0.7,0.9-1.2,1.6-1.4l0.5-0.1l0.3,0
		c2.4,0,2.9,1.5,4.7,7.7c1.8-6.2,2.3-7.7,4.7-7.7l0.5,0l0.3,0.1c0.7,0.2,1.3,0.7,1.6,1.4c0.7,1.4,0.3,2.7-1.5,7.9
		c4.2-3.2,5.3-3.9,6.6-3.9c0.9,0,1.7,0.4,2.3,1.1c0.4,0.6,0.6,1.4,0.5,2.1c-0.3,1.5-1.3,2.3-5.9,5.5c1.1,0,2.2-0.1,3.2-0.1
		c2.4,0,5.6,0,5.6,3s-3.3,3-5.6,3c-1,0-2.1,0-3.2-0.1c4.6,3.2,5.6,4,5.9,5.5c0.1,0.7,0,1.5-0.5,2.1c-0.5,0.7-1.3,1.1-2.3,1.1
		c-1.3,0-2.4-0.7-6.6-3.9c1.8,5.2,2.2,6.5,1.5,7.9c-0.3,0.7-0.9,1.2-1.6,1.4L38,50.2l-0.3,0c-2.4,0-2.9-1.5-4.7-7.7
		C31.2,48.7,30.7,50.2,28.3,50.2z M33,36.9l0.8,2.5c0.2,0.5,0.3,1,0.4,1.5l0.2,0.6c1.9,6.3,2.2,7.1,3.3,7.1l0.2,0l0.2-0.1
		c0.3-0.1,0.5-0.3,0.7-0.6c0.4-0.8,0-2.1-1.9-7.4c-0.2-0.5-0.4-1.1-0.6-1.8l-0.9-2.5l2.1,1.6c0.5,0.4,1.1,0.8,1.5,1.2
		c4.2,3.3,5.4,4.1,6.2,4.1c0.4,0,0.7-0.2,1-0.5c0.2-0.3,0.3-0.6,0.2-0.9c-0.1-0.8-0.9-1.5-5.8-4.8l-0.5-0.3
		c-0.4-0.3-0.8-0.5-1.2-0.8l-2.2-1.5l4.4,0.1c1.5,0,2.9,0.1,4.1,0.1c3,0,4-0.2,4-1.4s-1.1-1.4-4-1.4c-1.1,0-2.5,0-3.9,0.1l-0.5,0
		c-0.5,0-1,0-1.5,0l-2.6,0l2.2-1.5c0.6-0.4,1.1-0.8,1.6-1.1c4.9-3.4,5.7-4,5.8-4.8c0.1-0.3,0-0.6-0.2-0.9c-0.2-0.3-0.6-0.5-1-0.5
		c-0.8,0-2.1,0.9-6.3,4.1c-0.5,0.4-1,0.8-1.5,1.2l-2.1,1.6l0.9-2.5c0.2-0.6,0.4-1.2,0.6-1.8c1.9-5.3,2.3-6.6,1.9-7.4
		c-0.1-0.3-0.4-0.5-0.7-0.6l-0.2-0.1h-0.2c-1.2,0-1.5,0.8-3.3,7.1L33,29.1l-0.8-2.5c-0.2-0.7-0.4-1.4-0.6-2
		c-1.9-6.3-2.2-7.1-3.3-7.1l-0.2,0L28,17.5c-0.3,0.1-0.5,0.3-0.7,0.6c-0.4,0.8,0,2.1,1.9,7.4l1.5,4.3l-2.1-1.6
		C28,27.8,27.5,27.4,27,27c-4.2-3.3-5.4-4.1-6.2-4.1c-0.4,0-0.7,0.2-1,0.5c-0.2,0.3-0.3,0.6-0.2,0.9c0.1,0.8,0.9,1.5,5.8,4.8
		l3.8,2.6l-4.6-0.1c-1.3,0-2.7-0.1-3.9-0.1c-3,0-4,0.2-4,1.4c0,0.3,0,1.2,1.8,1.3c0.5,0.1,1.2,0.1,2.2,0.1c1.2,0,2.6,0,4-0.1
		l4.5-0.1L27,35.8c-0.5,0.4-1,0.7-1.5,1l-0.2,0.1c-4.9,3.4-5.7,4-5.8,4.8c-0.1,0.3,0,0.6,0.2,0.9c0.2,0.3,0.6,0.5,1,0.5
		c0.8,0,2-0.8,6.2-4.1c0.5-0.4,1-0.8,1.5-1.2l2.1-1.6l-0.9,2.5c-0.2,0.6-0.4,1.2-0.6,1.8c-1.9,5.3-2.3,6.6-1.9,7.4
		c0.1,0.3,0.4,0.5,0.7,0.6l0.2,0.1h0.2c1.1,0,1.5-0.9,3.3-7.1c0.2-0.6,0.4-1.3,0.6-2L33,36.9z"/>
</g>
</svg>
