<?xml version="1.0" encoding="utf-8"?>
<!-- Generator: Adobe Illustrator 20.1.0, SVG Export Plug-In . SVG Version: 6.00 Build 0)  -->
<svg version="1.1" id="mail-ic" xmlns="http://www.w3.org/2000/svg" xmlns:xlink="http://www.w3.org/1999/xlink" x="0px" y="0px"
	 viewBox="0 0 32 32" style="enable-background:new 0 0 32 32;" xml:space="preserve">
<path style="fill:#FFFFFF;" d="M25.7,5.9c-2.5-2.3-5.5-3.4-9.2-3.4c-3.8,0-7.1,1.3-9.8,3.9C4,9,2.6,12.2,2.6,16
	c0,3.7,1.3,6.8,3.9,9.5c2.6,2.7,6,4,10.4,4c2.6,0,5.2-0.5,7.7-1.6c0.8-0.4,1.2-1.3,0.9-2.1c-0.3-0.9-1.3-1.3-2.2-0.9
	c-2.2,0.9-4.4,1.4-6.5,1.4c-3.3,0-5.9-1-7.8-3.1c-1.8-2-2.7-4.4-2.7-7.2c0-3,1-5.5,2.9-7.5c2-2,4.4-3,7.2-3c2.6,0,4.9,0.8,6.7,2.5
	C25,9.7,26,11.7,26,14.2c0,1.7-0.4,3.1-1.2,4.2c-0.8,1.1-1.7,1.7-2.6,1.7c-0.5,0-0.7-0.3-0.7-0.8c0-0.4,0-0.9,0.1-1.5l1-8.4H19
	l-0.2,0.8c-0.9-0.7-1.9-1.1-2.9-1.1c-1.7,0-3.1,0.7-4.3,2c-1.2,1.3-1.8,3.1-1.8,5.2c0,2.1,0.5,3.8,1.6,5c1.1,1.3,2.4,1.9,3.9,1.9
	c1.3,0,2.5-0.6,3.5-1.7c0.7,1.1,1.8,1.6,3.2,1.6c2.1,0,3.8-0.9,5.3-2.7c1.5-1.8,2.3-4,2.3-6.5C29.4,10.9,28.1,8.2,25.7,5.9L25.7,5.9
	z M17.6,18.6c-0.6,0.8-1.4,1.3-2.2,1.3c-0.6,0-1.1-0.3-1.4-0.9c-0.4-0.6-0.5-1.4-0.5-2.3c0-1.1,0.3-2,0.8-2.7c0.5-0.7,1.1-1,1.9-1
	c0.6,0,1.2,0.3,1.7,0.8c0.5,0.5,0.8,1.2,0.8,2.1C18.5,16.8,18.2,17.7,17.6,18.6L17.6,18.6z M17.6,18.6"/>
</svg>
