<?xml version="1.0" encoding="utf-8"?>
<!-- Generator: Adobe Illustrator 20.1.0, SVG Export Plug-In . SVG Version: 6.00 Build 0)  -->
<svg version="1.1" id="Layer_1" xmlns="http://www.w3.org/2000/svg" xmlns:xlink="http://www.w3.org/1999/xlink" x="0px" y="0px"
	 viewBox="0 0 100 100" style="enable-background:new 0 0 100 100;" xml:space="preserve">
<g>
	<path style="fill:#F7D523;" d="M74.6,24H60.7c-0.3,0-0.6,0.2-0.6,0.5c0,0.3,0.3,0.5,0.6,0.5h13.5L63.3,35.8c-0.2,0.2-0.2,0.6,0,0.8
		c0.1,0.1,0.3,0.2,0.4,0.2c0.2,0,0.2-0.1,0.4-0.2L75,25.7v13.7c0,0.3,0.2,0.6,0.5,0.6c0.3,0,0.5-0.3,0.5-0.6V25.5
		C76,24.5,75.6,24,74.6,24z"/>
	<path style="fill:#F7D523;" d="M39.4,75H26l12-12c0.2-0.2,0.2-0.6,0-0.8c-0.2-0.2-0.6-0.2-0.8,0L25,74.4V60.6
		c0-0.3-0.2-0.6-0.5-0.6c-0.3,0-0.5,0.3-0.5,0.6v13.9c0,1,0.5,1.4,1.5,1.4h13.9c0.3,0,0.6-0.2,0.6-0.5C40,75.2,39.8,75,39.4,75z"/>
	<path style="fill:#F7D523;" d="M75.5,60c-0.3,0-0.5,0.3-0.5,0.6v13.5L64.4,63.5c-0.2-0.2-0.6-0.2-0.8,0c-0.2,0.2-0.2,0.6,0,0.8
		L74.4,75H60.7c-0.3,0-0.6,0.2-0.6,0.5c0,0.3,0.3,0.5,0.6,0.5h13.9c1,0,1.4-0.5,1.4-1.4V60.6C76,60.3,75.8,60,75.5,60z"/>
	<path style="fill:#F7D523;" d="M39.4,24H25.5c-1,0-1.5,0.5-1.5,1.5v13.9c0,0.3,0.2,0.6,0.5,0.6c0.3,0,0.5-0.3,0.5-0.6V25.8
		l12.4,12.4c0.1,0.1,0.3,0.2,0.4,0.2s0.3-0.1,0.4-0.2c0.2-0.2,0.2-0.6,0-0.8L25.8,25h13.6c0.3,0,0.6-0.2,0.6-0.5
		C40,24.2,39.8,24,39.4,24z"/>
</g>
</svg>
