<?xml version="1.0" encoding="utf-8"?>
<!-- Generator: Adobe Illustrator 20.1.0, SVG Export Plug-In . SVG Version: 6.00 Build 0)  -->
<svg version="1.1" id="Layer_1" xmlns="http://www.w3.org/2000/svg" xmlns:xlink="http://www.w3.org/1999/xlink" x="0px" y="0px"
	 viewBox="0 0 100 100" style="enable-background:new 0 0 100 100;" xml:space="preserve">
<g id="download">
	<g id="icon-upload_1_">
		<g id="icon-upload">
			<g>
				<path style="fill:#F7D523;" d="M50.5,69.5c-0.3,0-0.5-0.2-0.5-0.5V20c0-0.3,0.2-0.5,0.5-0.5S51,19.7,51,20v49
					C51,69.3,50.8,69.5,50.5,69.5z"/>
			</g>
			<g>
				<path style="fill:#F7D523;" d="M67,35.6c-0.1,0-0.3,0-0.4-0.1L51.4,20.2c-0.5-0.5-1.3-0.5-1.8,0L34.4,35.5
					c-0.2,0.2-0.5,0.2-0.7,0s-0.2-0.5,0-0.7l15.3-15.3c0.9-0.9,2.3-0.9,3.2,0l15.3,15.3c0.2,0.2,0.2,0.5,0,0.7
					C67.3,35.6,67.1,35.6,67,35.6z"/>
			</g>
			<g>
				<path style="fill:#F7D523;" d="M71.3,81.1H28.7c-0.9,0-1.7-0.8-1.7-1.7V66.1c0-0.3,0.2-0.5,0.5-0.5s0.5,0.2,0.5,0.5v13.3
					c0,0.4,0.3,0.7,0.7,0.7h42.6c0.4,0,0.7-0.3,0.7-0.7V66.1c0-0.3,0.2-0.5,0.5-0.5s0.5,0.2,0.5,0.5v13.3
					C73,80.4,72.2,81.1,71.3,81.1z"/>
			</g>
		</g>
	</g>
</g>
</svg>
