<?xml version="1.0" encoding="utf-8"?>
<!-- Generator: Adobe Illustrator 20.1.0, SVG Export Plug-In . SVG Version: 6.00 Build 0)  -->
<svg version="1.1" id="Layer_1" xmlns="http://www.w3.org/2000/svg" xmlns:xlink="http://www.w3.org/1999/xlink" x="0px" y="0px"
	 viewBox="0 0 100 100" style="enable-background:new 0 0 100 100;" xml:space="preserve">
<g>
	<path style="fill:#F7D523;" d="M75.3,55.5c-0.3-0.1-0.5,0.1-0.6,0.4c-2.7,11.5-12.9,19.6-24.8,19.6c-13.9,0-25.3-11.2-25.5-25.1
		l3.6,3.6c0.1,0.1,0.2,0.1,0.4,0.1s0.3,0,0.4-0.1c0.2-0.2,0.2-0.5,0-0.7l-4.1-4.1c-0.4-0.4-1-0.4-1.4,0l-4.1,4.1
		c-0.2,0.2-0.2,0.5,0,0.7s0.5,0.2,0.7,0l3.5-3.6c0.2,14.4,12,26.1,26.5,26.1c12.3,0,23-8.4,25.8-20.4C75.7,55.8,75.5,55.6,75.3,55.5
		z"/>
	<path style="fill:#F7D523;" d="M80.8,44.6c-0.2-0.2-0.5-0.1-0.7,0.1l-3.8,4.5C75.9,35,64.2,23.5,49.9,23.5
		c-12.3,0-23,8.4-25.8,20.4c-0.1,0.3,0.1,0.5,0.4,0.6c0.3,0.1,0.5-0.1,0.6-0.4C27.8,32.6,38,24.5,49.9,24.5
		c13.8,0,25.1,11,25.5,24.8l-4.5-3.7c-0.2-0.2-0.5-0.1-0.7,0.1c-0.2,0.2-0.1,0.5,0.1,0.7l5,4.2c0.2,0.2,0.4,0.2,0.7,0.2
		c0,0,0.1,0,0.1,0c0.3,0,0.5-0.2,0.7-0.4l4.2-5C81.1,45.1,81,44.8,80.8,44.6z"/>
</g>
</svg>
