<?xml version="1.0" encoding="utf-8"?>
<!-- Generator: Adobe Illustrator 20.1.0, SVG Export Plug-In . SVG Version: 6.00 Build 0)  -->
<svg version="1.1" id="Layer_1" xmlns="http://www.w3.org/2000/svg" xmlns:xlink="http://www.w3.org/1999/xlink" x="0px" y="0px"
	 viewBox="0 0 74 74" style="enable-background:new 0 0 74 74;" xml:space="preserve">
<path id="_x31_" style="fill:#FDC000;" d="M57.2,17.6c-0.3-0.3-0.8-0.3-1.2,0c-0.3,0.3-0.3,0.8,0,1.2c0.7,0.7,1.3,1.5,1.9,2.2
	l-2,7.3c0,0.2-0.1,0.4-0.1,0.5l-5.4,2.1c-0.1-0.2-0.3-0.3-0.5-0.5l-11.5-8.4c-0.2-0.1-0.4-0.2-0.6-0.3v-5.3c0.2-0.1,0.3-0.2,0.5-0.3
	l6.2-4.5c3.2,0.9,6.2,2.5,8.9,4.6c0.4,0.3,0.9,0.2,1.2-0.1c0.3-0.4,0.2-0.9-0.1-1.2c-5-3.9-11-6-17.3-6c-7.5,0-14.5,2.9-19.8,8.2
	C11.9,22.5,9,29.5,9,37c0,1.8,0.2,3.6,0.5,5.4c0.1,0.4,0.4,0.7,0.8,0.7c0.1,0,0.1,0,0.2,0c0.4-0.1,0.7-0.5,0.6-1
	c-0.3-1.7-0.5-3.4-0.5-5.1c0-0.7,0-1.4,0.1-2.2l6.4-4.1c0.2-0.1,0.3-0.2,0.4-0.4l5.5,2.1c0,0.2,0,0.5,0.1,0.7l4.4,13.6
	c0.1,0.2,0.2,0.4,0.3,0.6l-4.1,5.3c-0.2,0-0.4-0.1-0.5-0.1l-7.6-0.2c-1.4-2-2.6-4.1-3.4-6.4c-0.2-0.4-0.6-0.6-1.1-0.5
	c-0.4,0.2-0.6,0.6-0.5,1.1c1.9,5.4,5.4,10,10.1,13.3C25.5,63.2,31.1,65,37,65c7.5,0,14.5-2.9,19.8-8.2C62.1,51.5,65,44.5,65,37
	C65,29.7,62.2,22.8,57.2,17.6z M57.5,28.7l1.6-6c2,3,3.3,6.4,3.9,10l-5.2-3.4c-0.1-0.1-0.2-0.2-0.2-0.3c0,0,0,0,0,0l0,0
	C57.5,29,57.5,28.8,57.5,28.7z M37,10.6c1.8,0,3.6,0.2,5.4,0.5l-5,3.7C37.2,14.9,37.1,15,37,15c0,0,0,0,0,0s0,0,0,0
	c-0.1,0-0.2,0-0.3-0.1l-5-3.7C33.4,10.8,35.2,10.6,37,10.6z M16.4,29.1L16.4,29.1C16.4,29.1,16.4,29.1,16.4,29.1
	c0,0.1-0.1,0.2-0.2,0.3L11,32.7c0.6-3.6,1.9-7,3.9-10l1.6,6C16.5,28.8,16.5,29,16.4,29.1z M23.5,30.9l-5.4-2.1c0-0.2,0-0.4-0.1-0.5
	l-2-7.3c0.7-0.9,1.5-1.8,2.3-2.6c3.2-3.2,7-5.4,11.2-6.7l6.2,4.5c0.2,0.1,0.3,0.2,0.5,0.3v5.3c-0.2,0.1-0.4,0.2-0.6,0.3L24,30.5
	C23.8,30.6,23.7,30.8,23.5,30.9z M21.7,58.5c-1.8-1.3-3.4-2.7-4.8-4.4l6.2,0.2c0.1,0,0.2,0,0.3,0.1c0,0,0,0,0,0l0,0
	c0.1,0.1,0.2,0.2,0.2,0.3l1.7,6C24.1,60.1,22.9,59.3,21.7,58.5z M37,63.4c-3.3,0-6.6-0.6-9.6-1.8l-2.1-7.3c-0.1-0.2-0.1-0.4-0.2-0.5
	l4.1-5.4c0.2,0.1,0.5,0.1,0.7,0.1h14.3c0.2,0,0.5,0,0.7-0.1l4.1,5.4c-0.1,0.2-0.2,0.3-0.2,0.5l-2.1,7.3C43.6,62.7,40.3,63.4,37,63.4
	z M55.6,55.6c-2.1,2.1-4.5,3.8-7.1,5.1l1.7-6c0-0.1,0.1-0.2,0.2-0.3l0,0c0,0,0,0,0,0c0.1-0.1,0.2-0.1,0.3-0.1l6.2-0.2
	C56.6,54.6,56.1,55.1,55.6,55.6z M50.8,52.6c-0.2,0-0.4,0-0.5,0.1l-4.1-5.3c0.1-0.2,0.2-0.4,0.3-0.6l0.7-2.1c0.1-0.4-0.1-0.9-0.5-1
	c-0.4-0.1-0.9,0.1-1,0.5l-0.7,2.1c-0.1,0.3-0.4,0.6-0.8,0.6H29.9c-0.4,0-0.7-0.2-0.8-0.6l-4.4-13.6c-0.1-0.2-0.1-0.3,0-0.5
	c0,0,0,0,0,0c0.1-0.2,0.2-0.3,0.3-0.4l11.5-8.4c0.1-0.1,0.3-0.2,0.5-0.2c0,0,0,0,0,0s0,0,0,0c0.2,0,0.3,0.1,0.5,0.2L49,31.8
	c0.1,0.1,0.2,0.2,0.3,0.4c0,0,0,0,0,0c0.1,0.2,0.1,0.3,0,0.5l-2.6,7.9c-0.1,0.4,0.1,0.9,0.5,1c0.4,0.1,0.9-0.1,1-0.5l2.6-7.9
	c0.1-0.2,0.1-0.5,0.1-0.7l5.5-2.1c0.1,0.1,0.3,0.3,0.4,0.4l6.4,4.1c0.1,0.7,0.1,1.4,0.1,2.2c0,5.6-1.7,10.9-5,15.4L50.8,52.6z"/>
</svg>
