<svg class="s-1__stages-svg" xmlns="http://www.w3.org/2000/svg" viewBox="0 0 74 74"><g fill="#fdc000"><path d="M60 43.8c-.4-.9-1.1-1.5-2-1.9s-1.9-.3-2.7.1l-5.9 2.7c-.5.2-.7.8-.5 1.2.2.5.8.7 1.2.5l5.9-2.7c.4-.2.9-.2 1.3 0s.8.5.9.9c.2.4.2.9 0 1.3s-.5.8-.9.9l-12.1 5.3c-1.9.8-4.1.8-5.9-.1L35 49.8c-2.4-1.2-5.1-1.2-7.5-.2h-.1l-3.3-7.4 4.6-2c2.2-1 4.6-1 6.8-.2l8.9 3.3c.8.3 1.2 1.2.9 2-.3.8-1.2 1.3-2 1L36.4 44c-.5-.2-1 .1-1.2.6s.1 1 .6 1.2l6.9 2.3c.4.1.7.2 1.1.2 1.4 0 2.8-.9 3.3-2.3.6-1.8-.3-3.7-2.1-4.3l-8.9-3.3c-.6-.2-1.2-.4-1.8-.5v-5.2c0-5.1 4.2-9.3 9.3-9.3H47c5.1 0 9.3 4.2 9.3 9.3V35c0 .5.4.9.9.9s.9-.4.9-.9v-2.4c0-5.4-3.9-9.9-9-10.9v-2.8l2.4-4.1c.1-.2.2-.5.1-.8-.1-.3-.3-.5-.5-.6l-2.9-1.3c-.2-.1-.5-.1-.7 0l-2.2.8-1.9-.8c-.2-.1-.5-.1-.7 0l-3 1.2c-.3.1-.5.3-.5.6-.1.3-.1.5.1.8l2.3 4.2v2.8c-5.2 1-9.1 5.5-9.1 11v5c-1.5 0-3.1.3-4.5.9l-4.6 2c-.3-.4-.6-.7-1.1-.9-.6-.2-1.2-.2-1.8 0l-5.9 2.6c-.3.1-.6.5-.6.9v15.9c0 .3.2.6.4.8.2.1.3.1.5.1.1 0 .3 0 .4-.1l11.5-5.8c.6-.3 1-.7 1.2-1.3.2-.5.2-1 .1-1.4h.1c1.9-.8 4.1-.8 5.9.1l4.4 2.2c2.4 1.2 5.1 1.2 7.5.2l12.1-5.3c.9-.4 1.5-1.1 1.9-2 .4-1 .4-1.9 0-2.8zM43.1 14l1.9.8c.2.1.4.1.7 0l2.1-.8 1.6.7-1.7 2.9h-4.6l-1.7-3 1.7-.6zm.4 7.4v-1.9h3.9v1.9h-3.9zm-17.4 31l-10.2 5.2v-3.8l2.6-1.3c.5-.2.7-.8.4-1.3-.2-.5-.8-.7-1.3-.4l-1.8.9v-7.9l5.4-2.4c.1-.1.3 0 .3 0 .1 0 .2.1.2.2l.2.5 4.3 9.7c.2.2.1.5-.1.6z"/><path d="M43.3 39.4c-.5 0-1-.4-1-1v-3h-.2c-.5 0-1-.4-1-1s.4-1 1-1h.2v-7.1c0-.5.4-1 1-1h2.8c2.1 0 3.8 1.7 3.8 3.8s-1.7 3.8-3.8 3.8h-1.8v.5h1.8c.5 0 1 .4 1 1s-.4 1-1 1h-1.8v3c0 .5-.4 1-1 1zm2.8-8.4c1 0 1.8-.8 1.8-1.8s-.8-1.8-1.8-1.8h-1.8V31h1.8z"/></g></svg>