<svg xmlns="http://www.w3.org/2000/svg" viewBox="0 0 74 74"><path d="M57.2 17.6c-.3-.3-.8-.3-1.2 0-.3.3-.3.8 0 1.2.7.7 1.3 1.5 1.9 2.2l-2 7.3c0 .2-.1.4-.1.5l-5.4 2.1c-.1-.2-.3-.3-.5-.5L38.4 22l-.6-.3v-5.3c.2-.1.3-.2.5-.3l6.2-4.5c3.2.9 6.2 2.5 8.9 4.6.4.3.9.2 1.2-.1.3-.4.2-.9-.1-1.2-5-3.9-11-6-17.3-6-7.5 0-14.5 2.9-19.8 8.2C11.9 22.5 9 29.5 9 37c0 1.8.2 3.6.5 5.4.1.4.4.7.8.7h.2c.4-.1.7-.5.6-1-.3-1.7-.5-3.4-.5-5.1 0-.7 0-1.4.1-2.2l6.4-4.1c.2-.1.3-.2.4-.4l5.5 2.1c0 .2 0 .5.1.7l4.4 13.6.3.6-4.1 5.3c-.2 0-.4-.1-.5-.1l-7.6-.2c-1.4-2-2.6-4.1-3.4-6.4-.2-.4-.6-.6-1.1-.5-.4.2-.6.6-.5 1.1 1.9 5.4 5.4 10 10.1 13.3C25.5 63.2 31.1 65 37 65c7.5 0 14.5-2.9 19.8-8.2C62.1 51.5 65 44.5 65 37c0-7.3-2.8-14.2-7.8-19.4zm.3 11.1l1.6-6c2 3 3.3 6.4 3.9 10l-5.2-3.4c-.1-.1-.2-.2-.2-.3-.1 0-.1-.2-.1-.3zM37 10.6c1.8 0 3.6.2 5.4.5l-5 3.7c-.2.1-.3.2-.4.2-.1 0-.2 0-.3-.1l-5-3.7c1.7-.4 3.5-.6 5.3-.6zM16.4 29.1c0 .1-.1.2-.2.3L11 32.7c.6-3.6 1.9-7 3.9-10l1.6 6c0 .1 0 .3-.1.4zm7.1 1.8l-5.4-2.1c0-.2 0-.4-.1-.5L16 21c.7-.9 1.5-1.8 2.3-2.6 3.2-3.2 7-5.4 11.2-6.7l6.2 4.5c.2.1.3.2.5.3v5.3l-.6.3L24 30.5c-.2.1-.3.3-.5.4zm-1.8 27.6c-1.8-1.3-3.4-2.7-4.8-4.4l6.2.2c.1 0 .2 0 .3.1.1.1.2.2.2.3l1.7 6c-1.2-.6-2.4-1.4-3.6-2.2zM37 63.4c-3.3 0-6.6-.6-9.6-1.8l-2.1-7.3c-.1-.2-.1-.4-.2-.5l4.1-5.4c.2.1.5.1.7.1h14.3c.2 0 .5 0 .7-.1l4.1 5.4c-.1.2-.2.3-.2.5l-2.1 7.3c-3.1 1.1-6.4 1.8-9.7 1.8zm18.6-7.8c-2.1 2.1-4.5 3.8-7.1 5.1l1.7-6c0-.1.1-.2.2-.3.1-.1.2-.1.3-.1l6.2-.2c-.3.5-.8 1-1.3 1.5zm-4.8-3c-.2 0-.4 0-.5.1l-4.1-5.3.3-.6.7-2.1c.1-.4-.1-.9-.5-1-.4-.1-.9.1-1 .5l-.7 2.1c-.1.3-.4.6-.8.6H29.9c-.4 0-.7-.2-.8-.6l-4.4-13.6c-.1-.2-.1-.3 0-.5s.2-.3.3-.4l11.5-8.4c.1-.1.3-.2.5-.2s.3.1.5.2L49 31.8c.1.1.2.2.3.4.1.2.1.3 0 .5l-2.6 7.9c-.1.4.1.9.5 1 .4.1.9-.1 1-.5l2.6-7.9c.1-.2.1-.5.1-.7l5.5-2.1.4.4 6.4 4.1c.1.7.1 1.4.1 2.2 0 5.6-1.7 10.9-5 15.4l-7.5.1z" fill="#fdc000"/></svg>