<svg xmlns="http://www.w3.org/2000/svg" viewBox="0 0 74 74"><path d="M43 16.5c.1.6.5.9.7 1 .4.3 1.4.9 1.4 4v6.3c0 .6.3 1 .9 1 0 0 .1.1.1.2 0 1-.5 2.5-.8 3.3-.6.4-1.3 1.3-1.3 2.9 0 1.2-.4 1.7-.8 2.2-.1.1-.2.2-.2.3-.3.5-.2 1.1.3 1.5.5.3 1.1.2 1.5-.3l.2-.2c.5-.6 1.2-1.6 1.2-3.5 0-.7.2-1.1.3-1.1.3-.1.6-.3.7-.6.1-.3 1.1-2.9 1.1-4.6v-.3c-.1-.5-.4-1.1-1-1.5v-5.6c0-3.4-1-4.8-2.1-5.6-.2-1.6-2-5-8.4-5-6.6 0-10.6 6.2-10.6 10.6v5.6c-.6.4-.9 1.1-1 1.5v.3c0 1.7 1 4.3 1.1 4.6.1.3.3.5.6.6.1.1.3.4.3 1.1 0 2 1.5 4.2 3.1 5.7-.2 1.4-1.3 5-3.5 6L17.4 50c-2.4.8-4.2 2.8-4.8 5.2l-1.3 5.1c-.1.6.2 1.1.8 1.3h.3c.5 0 .9-.3 1-.8l1.3-5.1c.4-1.8 1.7-3.2 3.5-3.7l9.5-3.2c3.7-1.5 4.9-7 4.9-8.4 0-.3-.1-.6-.4-.8-1.4-1.1-2.8-3-2.8-4.5 0-1.6-.7-2.5-1.3-2.9-.3-.8-.8-2.3-.8-3.3v-.2c.6 0 1.1-.5 1.1-1.1v-6.3c0-3.4 3.3-8.5 8.5-8.5 4.9 0 6.2 2.2 6.3 3-.2.5-.2.6-.2.7zm17.9 30.4h-1.1v-1.1c0-4.1-3.3-7.4-7.4-7.4S45 41.7 45 45.8v1.1h-1c-.6 0-1.1.5-1.1 1.1v12.7c0 .6.5 1.1 1.1 1.1h16.9c.6 0 1.1-.5 1.1-1.1V48c0-.6-.5-1.1-1.1-1.1zm-13.7-1c0-2.9 2.4-5.3 5.3-5.3s5.3 2.4 5.3 5.3V47H47.2v-1.1zm12.7 13.7H45.1V49h14.8v10.6zM51.4 55v1.4c0 .6.5 1.1 1.1 1.1.6 0 1.1-.5 1.1-1.1V55c.6-.4 1.1-1 1.1-1.8 0-1.2-.9-2.1-2.1-2.1-1.2 0-2.1.9-2.1 2.1-.1.8.3 1.5.9 1.8z" fill="#fdc000"/></svg>