<?xml version="1.0" encoding="utf-8"?>
<!-- Generator: Adobe Illustrator 20.1.0, SVG Export Plug-In . SVG Version: 6.00 Build 0)  -->
<svg version="1.1" class="s-1__stages-svg" xmlns="http://www.w3.org/2000/svg" xmlns:xlink="http://www.w3.org/1999/xlink" x="0px" y="0px"
	 viewBox="0 0 74 74" style="enable-background:new 0 0 74 74;" xml:space="preserve">
<g id="_x33__1_">
	<path id="_x32_" style="fill:#FDC000;" d="M60,43.8c-0.4-0.9-1.1-1.5-2-1.9s-1.9-0.3-2.7,0.1c0,0,0,0,0,0l-5.9,2.7
		c-0.5,0.2-0.7,0.8-0.5,1.2c0.2,0.5,0.8,0.7,1.2,0.5l5.9-2.7c0.4-0.2,0.9-0.2,1.3,0c0.4,0.2,0.8,0.5,0.9,0.9c0.2,0.4,0.2,0.9,0,1.3
		c-0.2,0.4-0.5,0.8-0.9,0.9l-12.1,5.3c-1.9,0.8-4.1,0.8-5.9-0.1L35,49.8c-2.4-1.2-5.1-1.2-7.5-0.2l-0.1,0l-3.3-7.4l4.6-2
		c2.2-1,4.6-1,6.8-0.2l8.9,3.3c0.8,0.3,1.2,1.2,0.9,2c-0.3,0.8-1.2,1.3-2,1l-6.9-2.3c-0.5-0.2-1,0.1-1.2,0.6s0.1,1,0.6,1.2l6.9,2.3
		c0.4,0.1,0.7,0.2,1.1,0.2c1.4,0,2.8-0.9,3.3-2.3c0.6-1.8-0.3-3.7-2.1-4.3l-8.9-3.3c-0.6-0.2-1.2-0.4-1.8-0.5v-5.2
		c0-5.1,4.2-9.3,9.3-9.3h3.4c5.1,0,9.3,4.2,9.3,9.3V35c0,0.5,0.4,0.9,0.9,0.9s0.9-0.4,0.9-0.9v-2.4c0-5.4-3.9-9.9-9-10.9v-2.8
		l2.4-4.1c0.1-0.2,0.2-0.5,0.1-0.8c-0.1-0.3-0.3-0.5-0.5-0.6l-2.9-1.3c-0.2-0.1-0.5-0.1-0.7,0l-2.2,0.8l-1.9-0.8
		c-0.2-0.1-0.5-0.1-0.7,0l-3,1.2c-0.3,0.1-0.5,0.3-0.5,0.6c-0.1,0.3-0.1,0.5,0.1,0.8l2.3,4.2v2.8c-5.2,1-9.1,5.5-9.1,11v5
		c-1.5,0-3.1,0.3-4.5,0.9l-4.6,2c-0.3-0.4-0.6-0.7-1.1-0.9c-0.6-0.2-1.2-0.2-1.8,0l-5.9,2.6c-0.3,0.1-0.6,0.5-0.6,0.9v15.9
		c0,0.3,0.2,0.6,0.4,0.8c0.2,0.1,0.3,0.1,0.5,0.1c0.1,0,0.3,0,0.4-0.1l11.5-5.8c0.6-0.3,1-0.7,1.2-1.3c0.2-0.5,0.2-1,0.1-1.4l0.1,0
		c1.9-0.8,4.1-0.8,5.9,0.1l4.4,2.2c2.4,1.2,5.1,1.2,7.5,0.2l12.1-5.3c0.9-0.4,1.5-1.1,1.9-2C60.4,45.6,60.4,44.7,60,43.8z M43.1,14
		l1.9,0.8c0.2,0.1,0.4,0.1,0.7,0l2.1-0.8l1.6,0.7l-1.7,2.9h-4.6l-1.7-3L43.1,14z M43.5,21.4v-1.9h3.9v1.9h-0.3h-3.4H43.5z
		 M26.1,52.4C26.1,52.4,26.1,52.4,26.1,52.4l-10.2,5.2v-3.8l2.6-1.3c0.5-0.2,0.7-0.8,0.4-1.3c-0.2-0.5-0.8-0.7-1.3-0.4l-1.8,0.9
		v-7.9l5.4-2.4c0.1-0.1,0.3,0,0.3,0c0.1,0,0.2,0.1,0.2,0.2l0.2,0.5l0,0l0,0l4.3,9.7C26.4,52,26.3,52.3,26.1,52.4z"/>
	<path style="fill:#FDC000;" d="M43.3,39.4c-0.5,0-1-0.4-1-1v-3h-0.2c-0.5,0-1-0.4-1-1s0.4-1,1-1h0.2v-7.1c0-0.5,0.4-1,1-1h2.8l0,0
		c2.1,0,3.8,1.7,3.8,3.8s-1.7,3.8-3.8,3.8h-1.8v0.5h1.8c0.5,0,1,0.4,1,1s-0.4,1-1,1h-1.8v3C44.3,38.9,43.9,39.4,43.3,39.4z M46.1,31
		c1,0,1.8-0.8,1.8-1.8c0-1-0.8-1.8-1.8-1.8l0,0h-1.8V31H46.1z"/>
</g>
</svg>
