<?xml version="1.0" encoding="utf-8"?>
<!-- Generator: Adobe Illustrator 20.1.0, SVG Export Plug-In . SVG Version: 6.00 Build 0)  -->
<svg version="1.1" id="Layer_1" xmlns="http://www.w3.org/2000/svg" xmlns:xlink="http://www.w3.org/1999/xlink" x="0px" y="0px"
	 viewBox="0 0 74 74" style="enable-background:new 0 0 74 74;" xml:space="preserve">
<path id="_x32__1_" style="fill:#FDC000;" d="M43,16.5c0.1,0.6,0.5,0.9,0.7,1c0.4,0.3,1.4,0.9,1.4,4v6.3c0,0.6,0.3,1,0.9,1
	c0,0,0.1,0.1,0.1,0.2c0,1-0.5,2.5-0.8,3.3c-0.6,0.4-1.3,1.3-1.3,2.9c0,1.2-0.4,1.7-0.8,2.2c-0.1,0.1-0.2,0.2-0.2,0.3
	c-0.3,0.5-0.2,1.1,0.3,1.5c0.5,0.3,1.1,0.2,1.5-0.3l0.2-0.2c0.5-0.6,1.2-1.6,1.2-3.5c0-0.7,0.2-1.1,0.3-1.1c0.3-0.1,0.6-0.3,0.7-0.6
	c0.1-0.3,1.1-2.9,1.1-4.6c0-0.1,0-0.2,0-0.3c-0.1-0.5-0.4-1.1-1-1.5v-5.6c0-3.4-1-4.8-2.1-5.6c-0.2-1.6-2-5-8.4-5
	c-6.6,0-10.6,6.2-10.6,10.6v5.6c-0.6,0.4-0.9,1.1-1,1.5c0,0.1,0,0.2,0,0.3c0,1.7,1,4.3,1.1,4.6c0.1,0.3,0.3,0.5,0.6,0.6
	c0.1,0.1,0.3,0.4,0.3,1.1c0,2,1.5,4.2,3.1,5.7c-0.2,1.4-1.3,5-3.5,6l-9.4,3.1c-2.4,0.8-4.2,2.8-4.8,5.2l-1.3,5.1
	c-0.1,0.6,0.2,1.1,0.8,1.3c0.1,0,0.2,0,0.3,0c0.5,0,0.9-0.3,1-0.8l1.3-5.1c0.4-1.8,1.7-3.2,3.5-3.7l9.5-3.2c3.7-1.5,4.9-7,4.9-8.4
	c0-0.3-0.1-0.6-0.4-0.8c-1.4-1.1-2.8-3-2.8-4.5c0-1.6-0.7-2.5-1.3-2.9c-0.3-0.8-0.8-2.3-0.8-3.3c0-0.1,0-0.2,0-0.2
	c0.6,0,1.1-0.5,1.1-1.1v-6.3c0-3.4,3.3-8.5,8.5-8.5c4.9,0,6.2,2.2,6.3,3C43,16.3,43,16.4,43,16.5z M60.9,46.9h-1.1v-1.1
	c0-4.1-3.3-7.4-7.4-7.4s-7.4,3.3-7.4,7.4v1.1H44c-0.6,0-1.1,0.5-1.1,1.1v12.7c0,0.6,0.5,1.1,1.1,1.1h16.9c0.6,0,1.1-0.5,1.1-1.1V48
	C62,47.4,61.5,46.9,60.9,46.9z M47.2,45.9c0-2.9,2.4-5.3,5.3-5.3c2.9,0,5.3,2.4,5.3,5.3v1.1H47.2V45.9z M59.9,59.6H45.1V49h14.8
	V59.6z M51.4,55v1.4c0,0.6,0.5,1.1,1.1,1.1c0.6,0,1.1-0.5,1.1-1.1V55c0.6-0.4,1.1-1,1.1-1.8c0-1.2-0.9-2.1-2.1-2.1
	c-1.2,0-2.1,0.9-2.1,2.1C50.4,54,50.8,54.7,51.4,55z"/>
</svg>
