<?xml version="1.0" encoding="utf-8"?>
<!-- Generator: Adobe Illustrator 21.1.0, SVG Export Plug-In . SVG Version: 6.00 Build 0)  -->
<svg version="1.1" id="Layer_1" xmlns="http://www.w3.org/2000/svg" xmlns:xlink="http://www.w3.org/1999/xlink" x="0px" y="0px"
	 viewBox="0 0 80 80" style="enable-background:new 0 0 80 80;" xml:space="preserve">
<path style="fill:#FFFFFF;" d="M39.5,27.9c2.8,0,5.1,1.9,5.3,4.4l0,0.3c0.2,1.9,0.2,3.8,0,5.7l0,0.3c-0.1,1.3-0.8,3-1.8,4.2
	C42,44.3,40.7,45,39.5,45S37,44.3,36,42.9c-1-1.2-1.7-2.9-1.8-4.2l0-0.3c-0.2-1.9-0.2-3.8,0-5.7l0-0.3
	C34.4,29.8,36.7,27.9,39.5,27.9 M39.5,25.9c-3.8,0-7,2.7-7.3,6.3l0,0.3c-0.2,2-0.2,4.1,0,6.1l0,0.3c0.2,1.7,1,3.7,2.2,5.3
	c1.5,1.8,3.3,2.9,5.1,2.9s3.6-1,5.1-2.9c1.2-1.5,2.1-3.6,2.2-5.3l0-0.3c0.2-2,0.2-4.1,0-6.1l0-0.3C46.5,28.6,43.3,25.9,39.5,25.9
	L39.5,25.9z"/>
<path style="fill:#FFFFFF;" d="M41.7,62.4h-3.3C28.2,62.4,20,54.2,20,44.1V20c0-0.6,0.4-1,1-1h0c0.6,0,1,0.4,1,1v24.1
	c0,9,7.3,16.3,16.3,16.3h3.3c9,0,16.3-7.3,16.3-16.3V29.9c0-0.6,0.4-1,1-1l0,0c0.6,0,1,0.4,1,1v14.2C60,54.2,51.8,62.4,41.7,62.4z"
	/>
<linearGradient id="SVGID_1_" gradientUnits="userSpaceOnUse" x1="41.2794" y1="255.9217" x2="62.1361" y2="255.9217" gradientTransform="matrix(1 0 0 1 -12.4921 -206.7593)">
	<stop  offset="0" style="stop-color:#40DAFF"/>
	<stop  offset="0.3206" style="stop-color:#40E1FF"/>
	<stop  offset="0.7734" style="stop-color:#40F3FF"/>
	<stop  offset="1" style="stop-color:#40FFFF"/>
</linearGradient>
<path style="fill:url(#SVGID_1_);" d="M37.2,38.1c0.5,0,0.8,0.4,0.8,0.9v8.1c0,0.5,0.4,0.9,0.9,0.9c0.5,0,0.9-0.4,0.9-0.9v-2.8
	c0-0.5,0.4-0.9,0.8-0.9c0.5,0,0.8,0.4,0.8,0.9v4c0,0.5,0.4,0.9,0.9,0.9c0.5,0,0.9-0.4,0.9-0.9v-2.8c0-0.5,0.4-0.9,0.8-0.9
	c0.5,0,0.8,0.4,0.8,0.9v4c0,0.5,0.4,0.9,0.9,0.9c0.5,0,0.9-0.4,0.9-0.9v-2.5h0c0-0.5,0.4-0.9,0.8-0.9c0.5,0,0.8,0.4,0.8,0.9v6h1.4
	v-6c0-1.2-1-2.2-2.2-2.2c-0.5,0-0.9,0.1-1.3,0.4c-0.2-1-1.1-1.8-2.2-1.8c-0.5,0-0.9,0.2-1.3,0.4c-0.3-0.9-1.1-1.6-2.1-1.6
	c-0.5,0-0.9,0.1-1.2,0.4V39c0-1.2-1-2.2-2.2-2.2l0,0c-1.2,0-2.2,1-2.2,2.2v11.3l-2.5-2.9l0,0l0,0c-0.4-0.4-0.9-0.6-1.5-0.6
	c-0.6,0-1.2,0.2-1.6,0.6c-0.3,0.3-1,1.3-0.1,3c1,1.7,2.1,3.4,3,4.8c0.7,1.1,1.4,2.1,1.9,2.9c0.2,0.4,0.7,1.3,1.3,2.6l0.4,0.8
	l0.5-0.9c0.2-0.3,0.2-0.7,0.1-1c-0.4-0.8-0.9-1.7-1.1-2.2c-0.5-0.9-1.2-1.9-1.9-3c-0.9-1.4-2-3.1-3-4.8c-0.3-0.4-0.5-1-0.2-1.4
	c0.2-0.2,0.4-0.2,0.6-0.2c0.2,0,0.4,0.1,0.6,0.2l3.4,3.8c0.2,0.2,0.4,0.3,0.7,0.3c0.1,0,0.2,0,0.3-0.1c0.3-0.1,0.6-0.5,0.6-0.8V39
	C36.4,38.5,36.7,38.1,37.2,38.1"/>
</svg>
