<?xml version="1.0" encoding="utf-8"?>
<!-- Generator: Adobe Illustrator 21.1.0, SVG Export Plug-In . SVG Version: 6.00 Build 0)  -->
<svg version="1.1" id="Layer_1" xmlns="http://www.w3.org/2000/svg" xmlns:xlink="http://www.w3.org/1999/xlink" x="0px" y="0px"
	 viewBox="0 0 139.6 108.5" style="enable-background:new 0 0 139.6 108.5;" xml:space="preserve">
<style type="text/css">
	.st0{fill:url(#SVGID_1_);}
</style>
<linearGradient id="SVGID_1_" gradientUnits="userSpaceOnUse" x1="2.5734" y1="54.2627" x2="137.0647" y2="54.2627">
	<stop  offset="0" style="stop-color:#40FFFF"/>
	<stop  offset="0.1017" style="stop-color:#40F6FF;stop-opacity:0.8983"/>
	<stop  offset="0.3419" style="stop-color:#40E6FF;stop-opacity:0.6581"/>
	<stop  offset="0.6167" style="stop-color:#40DDFF;stop-opacity:0.3833"/>
	<stop  offset="1" style="stop-color:#40DAFF;stop-opacity:0"/>
</linearGradient>
<path class="st0" d="M69.8,106.5c-0.1,0-0.3,0-0.4,0c-11.4-0.2-27.5-6.8-42.1-17.4C19.9,83.7,2.7,69.7,2.6,55.5
	c-0.1-15.1,17.9-30,25.6-35.6C42.5,9.4,59,2.2,69.3,2c0.1,0,0.3,0,0.4,0c14.8,0,39.6,14.5,53.7,28.3c6.2,6.1,13.6,15.1,13.7,23.8
	c0,9.7-7.6,19.2-14,25.6C107.7,94.8,84.5,106.5,69.8,106.5z M69.5,8C50.8,8.3,8.5,36,8.6,55.5c0.1,17.7,40,44.7,60.9,45
	c13,0.2,35.1-11.1,49.3-25.2c7.9-7.8,12.2-15.4,12.2-21.3c0-5.1-4.2-12.1-11.9-19.5C104.7,20.3,81.7,8,69.8,8C69.7,8,69.6,8,69.5,8
	L69.5,8z"/>
</svg>
