<?xml version="1.0" encoding="utf-8"?>
<!-- Generator: Adobe Illustrator 20.1.0, SVG Export Plug-In . SVG Version: 6.00 Build 0)  -->
<svg version="1.1" id="Layer_1" xmlns="http://www.w3.org/2000/svg" xmlns:xlink="http://www.w3.org/1999/xlink" x="0px" y="0px"
	 viewBox="0 0 175 175" style="enable-background:new 0 0 175 175;" xml:space="preserve">
<style type="text/css">
	.st0{fill:#FFFFFF;}
</style>
<g>
	<path class="st0" d="M8.5,80.4h1.1c1-1.9,1.5-4.3,1.5-8.3v-1.7h8.2v9.9h1.5l-0.3,4.4h-1.7v-2.5h-8.3l-0.2,2.5H8.5V80.4z M17.3,80.4
		v-8.1h-4.2v1.3c0,2.7-0.5,5.1-1.3,6.7H17.3z"/>
	<path class="st0" d="M22.9,73.3h2v6c1.4-2,2.8-4,4.2-6H31v8.9h-2v-5.9l-4.2,5.9h-1.9V73.3z"/>
	<path class="st0" d="M39.5,82.2v-1.1c-0.6,0.7-1.5,1.3-2.9,1.3c-1.7,0-3.2-1-3.2-2.8c0-2,1.5-2.9,3.6-2.9c1.1,0,1.8,0.2,2.5,0.4
		v-0.2c0-1.2-0.8-1.9-2.2-1.9c-1,0-1.7,0.2-2.5,0.6l-0.6-1.6c1-0.4,1.9-0.7,3.4-0.7c2.6,0,3.9,1.4,3.9,3.8v5.3H39.5z M39.6,78.5
		c-0.5-0.2-1.2-0.4-2-0.4c-1.3,0-2,0.5-2,1.4c0,0.8,0.8,1.3,1.7,1.3c1.3,0,2.4-0.8,2.4-1.9V78.5z"/>
	<path class="st0" d="M44.5,73.3h6.3v1.8h-4.3v7.1h-2V73.3z"/>
	<path class="st0" d="M52.9,73.3h2v3.6h3.9v-3.6h2v8.9h-2v-3.6H55v3.6h-2V73.3z"/>
	<path class="st0" d="M63.5,77.8c0-2.5,2-4.7,4.8-4.7s4.7,2.1,4.7,4.7c0,2.5-2,4.6-4.8,4.6C65.5,82.4,63.5,80.3,63.5,77.8z M71,77.8
		c0-1.6-1.1-2.9-2.7-2.9c-1.6,0-2.7,1.3-2.7,2.9c0,1.6,1.1,2.9,2.7,2.9C69.9,80.6,71,79.4,71,77.8z"/>
	<path class="st0" d="M75.1,77.8L75.1,77.8c0-2.6,2-4.7,4.6-4.7c1.7,0,2.7,0.6,3.6,1.5L82,76c-0.6-0.7-1.3-1.1-2.3-1.1
		c-1.5,0-2.6,1.3-2.6,2.8v0c0,1.6,1.1,2.9,2.7,2.9c1,0,1.7-0.5,2.3-1.1l1.2,1.2c-0.9,1-1.9,1.7-3.6,1.7C77,82.4,75.1,80.3,75.1,77.8
		z"/>
	<path class="st0" d="M87.5,75.1h-2.9v-1.8h7.8v1.8h-2.9v7.1h-2.1V75.1z"/>
	<path class="st0" d="M94.6,73.3h2v6c1.4-2,2.8-4,4.2-6h1.9v8.9h-2v-5.9l-4.2,5.9h-1.9V73.3z"/>
	<path class="st0" d="M105.8,73.3h2v1.5c0.7-0.9,1.6-1.7,3-1.7c2.1,0,4.1,1.7,4.1,4.7c0,3-2,4.6-4.1,4.6c-1.5,0-2.4-0.7-3-1.6v4.1
		h-2V73.3z M112.9,77.7c0-1.7-1.2-2.8-2.5-2.8s-2.6,1.1-2.6,2.9c0,1.7,1.2,2.8,2.6,2.8C111.7,80.6,112.9,79.5,112.9,77.7z"/>
	<path class="st0" d="M117.1,77.8c0-2.5,2-4.7,4.8-4.7c2.7,0,4.7,2.1,4.7,4.7c0,2.5-2,4.6-4.8,4.6C119.1,82.4,117.1,80.3,117.1,77.8
		z M124.5,77.8c0-1.6-1.1-2.9-2.7-2.9c-1.6,0-2.7,1.3-2.7,2.9c0,1.6,1.1,2.9,2.7,2.9C123.5,80.6,124.5,79.4,124.5,77.8z"/>
	<path class="st0" d="M129.1,73.3h4.6c1.8,0,2.9,0.9,2.9,2.2c0,1.1-0.7,1.7-1.4,2c1.1,0.3,1.8,1,1.8,2.2c0,1.5-1.3,2.4-3.3,2.4h-4.6
		V73.3z M133.2,77c0.9,0,1.3-0.5,1.3-1.1c0-0.6-0.4-1-1.3-1h-2.1V77H133.2z M133.4,80.6c1,0,1.5-0.5,1.5-1.1c0-0.6-0.5-1.1-1.6-1.1
		h-2.2v2.2H133.4z"/>
	<path class="st0" d="M145,82.2v-1.1c-0.6,0.7-1.5,1.3-2.9,1.3c-1.7,0-3.2-1-3.2-2.8c0-2,1.5-2.9,3.6-2.9c1.1,0,1.8,0.2,2.5,0.4
		v-0.2c0-1.2-0.8-1.9-2.2-1.9c-1,0-1.7,0.2-2.5,0.6l-0.6-1.6c1-0.4,1.9-0.7,3.4-0.7c2.6,0,3.9,1.4,3.9,3.8v5.3H145z M145.1,78.5
		c-0.5-0.2-1.2-0.4-2-0.4c-1.3,0-2,0.5-2,1.4c0,0.8,0.8,1.3,1.7,1.3c1.3,0,2.4-0.8,2.4-1.9V78.5z"/>
	<path class="st0" d="M151.9,75.1H149v-1.8h7.8v1.8h-2.9v7.1h-2.1V75.1z"/>
	<path class="st0" d="M158.9,73.3h2v3.1h2c2,0,3.5,0.9,3.5,2.8c0,1.8-1.3,3-3.4,3h-4.2V73.3z M162.9,80.6c1,0,1.6-0.5,1.6-1.3
		c0-0.8-0.6-1.2-1.7-1.2H161v2.5H162.9z"/>
	<path class="st0" d="M39.9,93.5h2v3.6h3.9v-3.6h2v8.9h-2v-3.6H42v3.6h-2V93.5z"/>
	<path class="st0" d="M50.5,98c0-2.5,1.8-4.6,4.4-4.6c2.8,0,4.3,2.2,4.3,4.8c0,0.1,0,0.5,0,0.6h-6.5c0.2,1.4,1.2,2.3,2.6,2.3
		c1,0,1.7-0.4,2.4-1.1l1.2,1.1c-0.8,1-2,1.7-3.6,1.7C52.5,102.6,50.5,100.8,50.5,98z M57.1,97.4C57,96.1,56.2,95,54.8,95
		c-1.2,0-2.1,1-2.3,2.3H57.1z"/>
	<path class="st0" d="M61.7,93.5h7.9v8.9h-2v-7.1h-3.9v7.1h-2V93.5z"/>
	<path class="st0" d="M72.2,98c0-2.5,2-4.7,4.8-4.7c2.7,0,4.7,2.1,4.7,4.7c0,2.5-2,4.6-4.8,4.6C74.2,102.6,72.2,100.6,72.2,98z
		 M79.7,98c0-1.6-1.1-2.9-2.7-2.9c-1.6,0-2.7,1.3-2.7,2.9c0,1.6,1.1,2.9,2.7,2.9C78.6,100.9,79.7,99.6,79.7,98z"/>
	<path class="st0" d="M82.8,102.4l0.2-1.7c0.1,0,0.5,0.1,0.6,0.1c1,0,1.7-0.5,1.7-7.3H92v8.9h-2v-7.1h-2.8c0,6.5-1.2,7.2-3.2,7.2
		C83.7,102.5,83.1,102.5,82.8,102.4z"/>
	<path class="st0" d="M100.5,102.4v-1.1c-0.6,0.7-1.5,1.3-2.9,1.3c-1.7,0-3.2-1-3.2-2.8c0-2,1.5-2.9,3.6-2.9c1.1,0,1.8,0.2,2.5,0.4
		v-0.2c0-1.2-0.8-1.9-2.2-1.9c-1,0-1.7,0.2-2.5,0.6l-0.6-1.6c1-0.4,1.9-0.7,3.4-0.7c2.6,0,3.9,1.4,3.9,3.8v5.3H100.5z M100.6,98.7
		c-0.5-0.2-1.2-0.4-2-0.4c-1.3,0-2,0.5-2,1.4c0,0.8,0.8,1.3,1.7,1.3c1.3,0,2.4-0.8,2.4-1.9V98.7z"/>
	<path class="st0" d="M104.5,100.7h1c0.7-1.5,1-3.6,1-6.1v-1.1h6.9v7.1h1.3l-0.3,3.9h-1.7v-2.1h-6.2l-0.2,2.1h-1.7V100.7z
		 M111.3,100.7v-5.4h-2.9v1.2c0,1.6-0.3,3.1-0.8,4.2H111.3z"/>
	<path class="st0" d="M116.8,93.5h2v4.3l3.9-4.3h2.4l-3.5,3.7l3.7,5.2H123l-2.7-3.7l-1.4,1.5v2.1h-2V93.5z"/>
	<path class="st0" d="M127.3,93.5h2v6c1.4-2,2.8-4,4.2-6h1.9v8.9h-2v-5.9l-4.2,5.9h-1.9V93.5z"/>
</g>
</svg>
