<svg id="Layer_1" xmlns="http://www.w3.org/2000/svg" width="38" height="49" viewBox="0 0 38 49"><style>.st0{fill:url(#SVGID_1_)}.st1{fill:url(#SVGID_2_)}.st2{fill:url(#SVGID_3_)}.st3{fill:url(#SVGID_4_)}.st4{fill:url(#SVGID_5_)}.st5{fill:url(#SVGID_6_)}</style><linearGradient id="SVGID_1_" gradientUnits="userSpaceOnUse" x1=".125" y1="38.457" x2="38.125" y2="38.457"><stop offset="0" stop-color="#e45d5d"/><stop offset="1" stop-color="#fd9e38"/></linearGradient><path class="st0" d="M28.5 27.9c-.2.5-.4.9-.6 1.4 5 2.6 8.6 7.8 8.6 13.4v3.1c0 .9-.7 1.6-1.6 1.6h-5v-3.8c0-.4-.3-.8-.8-.8-.4 0-.8.3-.8.8v3.8H9.7v-3.8c0-.4-.3-.8-.8-.8-.4 0-.8.3-.8.8v3.8h-5c-.9 0-1.6-.7-1.6-1.6v-3.1c0-5.7 3.6-10.8 8.6-13.4-.2-.4-.5-.9-.6-1.4C4.1 30.7 0 36.3 0 42.7v3.1C0 47.6 1.4 49 3.1 49h31.8c1.7 0 3.1-1.4 3.1-3.2v-3.1c0-6.4-4.1-12-9.5-14.8z"/><linearGradient id="SVGID_2_" gradientUnits="userSpaceOnUse" x1=".125" y1="24.499" x2="38.15" y2="24.499"><stop offset="0" stop-color="#e45d5d"/><stop offset="1" stop-color="#fd9e38"/></linearGradient><path class="st1" d="M10.5 24.5c0 4.7 3.8 8.4 8.5 8.4s8.5-3.8 8.5-8.4c0-4.7-3.8-8.4-8.5-8.4s-8.5 3.7-8.5 8.4zm8.5-6.9c3.8 0 7 3.1 7 6.9s-3.1 6.9-7 6.9c-3.8 0-7-3.1-7-6.9s3.2-6.9 7-6.9z"/><linearGradient id="SVGID_3_" gradientUnits="userSpaceOnUse" x1=".125" y1="7.27" x2="38.15" y2="7.27"><stop offset="0" stop-color="#e45d5d"/><stop offset="1" stop-color="#fd9e38"/></linearGradient><path class="st2" d="M10.7 7.3L7.4 8c-.3 0-.6.2-.6.5s0 .6.2.8l5.3 5.1c.3.3.8.3 1.1 0 .3-.3.3-.8 0-1.1L9.1 9.2l3.1-.6c.3-.1.5-.2.6-.5.1-.2.1-.5-.1-.7L7.2.3C6.9 0 6.5-.1 6.1.2c-.3.2-.4.7-.1 1l4.7 6.1z"/><linearGradient id="SVGID_4_" gradientUnits="userSpaceOnUse" x1=".125" y1="13.397" x2="38.15" y2="13.397"><stop offset="0" stop-color="#e45d5d"/><stop offset="1" stop-color="#fd9e38"/></linearGradient><path class="st3" d="M4.9 13.5l-1.9.8c-.3.1-.4.4-.4.6 0 .3.1.5.4.7l4 2.6c.3.3.8.2 1-.2.2-.4.1-.8-.2-1.1L5 15.1l1.7-.8c.1 0 .3-.2.3-.5s-.1-.5-.2-.7L1.7 8.6c-.3-.3-.8-.2-1.1.1-.3.3-.3.8 0 1.1l4.3 3.7z"/><linearGradient id="SVGID_5_" gradientUnits="userSpaceOnUse" x1=".125" y1="7.268" x2="38.15" y2="7.268"><stop offset="0" stop-color="#e45d5d"/><stop offset="1" stop-color="#fd9e38"/></linearGradient><path class="st4" d="M25.2 14.5c.2 0 .4-.1.5-.2l5.3-5c.2-.2.3-.5.2-.8 0-.3-.3-.5-.6-.5l-3.4-.7L32 1.2c.3-.3.2-.8-.1-1.1-.3-.3-.8-.2-1.1.1l-5.5 7.1c-.2.2-.2.5-.1.7.1.2.3.4.6.5l3.1.6-4.2 4.1c-.3.3-.3.8 0 1.1.1.2.3.2.5.2z"/><linearGradient id="SVGID_6_" gradientUnits="userSpaceOnUse" x1=".125" y1="13.398" x2="38.15" y2="13.398"><stop offset="0" stop-color="#e45d5d"/><stop offset="1" stop-color="#fd9e38"/></linearGradient><path class="st5" d="M31 13.8c0 .3.2.5.4.6l1.7.8-2.9 1.8c-.4.2-.5.7-.2 1.1.1.2.4.4.7.4.1 0 .3 0 .4-.1l4-2.6c.2-.2.4-.4.4-.7 0-.3-.2-.5-.4-.6l-1.9-.9 4.2-3.7c.3-.3.3-.8.1-1.1-.3-.3-.8-.3-1.1-.1l-5.1 4.5c-.3.1-.4.4-.3.6z"/></svg>