<svg id="Layer_1" xmlns="http://www.w3.org/2000/svg" width="48" height="49" viewBox="0 0 48 49"><style>.st0{fill:url(#SVGID_1_)}</style><g transform="translate(0 -1020.362)"><linearGradient id="SVGID_1_" gradientUnits="userSpaceOnUse" y1="1044.862" x2="48" y2="1044.862"><stop offset="0" stop-color="#e45d5d"/><stop offset="1" stop-color="#fd9e38"/></linearGradient><path class="st0" d="M17.8 1020.4c-2.2.2-4.2 1.3-5.3 3.3-.3.5-.5 1-.6 1.5-2.5.2-4.8 1.5-6.1 3.6-1.4 2.1-1.7 4.8-.8 7.2-4.1 2.4-6.1 7.3-4.4 11.9.7 2 2.1 3.7 3.8 4.8-.1.1-.1.2-.1.3-.6 2.7-.1 5.5 1.4 7.8 1.5 2.2 3.8 3.8 6.4 4.4.3.9.8 1.7 1.6 2.4 1.9 1.9 4.8 2.4 7.3 1.4 1.3-.6 2.4-1.5 3.2-2.7.7 1.2 1.8 2.2 3.2 2.7 2.5 1 5.4.5 7.3-1.4.7-.7 1.2-1.5 1.6-2.4 2.6-.6 4.9-2.1 6.4-4.3 1.5-2.3 2-5.1 1.4-7.8 0-.1-.1-.2-.1-.3 1.7-1.1 3.1-2.8 3.8-4.8 1.6-4.5-.3-9.5-4.4-11.9.9-2.4.6-5-.8-7.2-1.4-2.1-3.6-3.4-6.1-3.6-.1-.5-.3-1-.6-1.5-1.5-2.6-4.6-3.8-7.5-3.1-1.7.5-3.1 1.6-4 3-.9-1.4-2.3-2.5-4-3-1.1-.3-1.8-.4-2.6-.3zm.2 1.9c.5 0 1 0 1.6.2 2 .5 3.5 2.3 3.5 4.4v1.1c-1.5.3-3.1-.1-4.3-1.1-.4-.4-1-.3-1.3.1-.4.4-.3 1 .1 1.3 1.5 1.4 3.6 2 5.6 1.7v17.8c-.1.1-.1.2-.2.3-.2.8-.8 1.4-1.6 1.7-.8.3-1.6.1-2.3-.4-.4-.3-1-.2-1.3.2-.3.4-.2.9.2 1.3.6.4 1.2.7 1.9.8.7.1 1.4.1 2.1-.2.4-.1.8-.4 1.2-.6v11.8c-.1 1.8-1.2 3.5-2.9 4.2-1.8.7-3.8.3-5.2-1-1.4-1.3-1.8-3.4-1-5.1.2-.4.4-.7.6-1h.1c.8-.1 1.6.2 2.2.8.5.6.7 1.5.5 2.2-.1.5.2 1 .7 1.2.5.1 1-.2 1.2-.7.4-1.4 0-2.9-1-4-.4-.5-1-.9-1.6-1.1.5-.2 1.1-.3 1.7-.3.5 0 1-.4 1-.9s-.4-.9-.9-1c-2.7 0-5.1 1.6-6.2 4.1-.4.9-.5 1.8-.5 2.7-1.8-.6-3.4-1.7-4.4-3.3-1.2-1.8-1.6-4-1.1-6.2 2 .8 4.2 1.1 6.5.5.5-.1.8-.7.7-1.2-.1-.5-.7-.8-1.2-.7-4.1 1.1-8.3-1.1-9.7-5-1.4-3.9.4-8.3 4.2-10 .5-.2.7-.8.5-1.2 0-.1-.1-.2-.2-.3-.8-1.9-.7-4.1.5-5.8 1-1.5 2.5-2.5 4.3-2.7 0 1.1.3 2.3.9 3.3-.9.1-1.9.4-2.7.8-.5.3-.6.8-.3 1.3.3.4.8.6 1.3.3 1.3-.7 2.9-.8 4.3-.3 1.4.6 2.4 1.8 2.7 3.2.1.5.7.8 1.2.7.5-.1.8-.6.7-1.1-.2-1-.7-1.9-1.4-2.7-.7-.8-1.5-1.4-2.5-1.8-.2-.1-.5-.1-.7-.2-.1-.1-.1-.2-.2-.3-1.5-1.5-1.8-3.8-.8-5.7.5-1.2 1.9-2 3.5-2.1zm12 0c1.5.1 3 1 3.8 2.3.6 1.1.8 2.3.5 3.5-.1.5.2 1 .7 1.1.5.1 1-.2 1.2-.7.1-.5.2-1 .2-1.5 1.7.3 3.3 1.2 4.3 2.7 1.1 1.7 1.3 3.9.5 5.8-.4.4-.3 1 0 1.3.1.1.2.1.3.2 3.8 1.7 5.7 6.1 4.2 10-1.4 3.9-5.6 6.1-9.7 5-.5-.1-1 .2-1.2.7-.1.5.2 1 .7 1.2 2.2.6 4.5.3 6.5-.5.5 2.1.1 4.3-1.1 6.2-1 1.6-2.6 2.7-4.4 3.3 0-.9-.1-1.8-.5-2.7-1-2.5-3.5-4.1-6.2-4.1-.5 0-1 .4-1 .9s.4.9.9 1c1.9 0 3.7 1.1 4.4 2.9.7 1.8.3 3.8-1 5.1-1.4 1.3-3.4 1.7-5.2 1-1.7-.7-2.9-2.4-2.9-4.2v-.4c1.6-.4 3.2 0 4.4 1.1.4.4 1 .3 1.3 0 .4-.4.3-1 0-1.3-1.5-1.4-3.7-2-5.7-1.6V1048l.9.3c.7.1 1.4.1 2.1-.2 1.4-.5 2.5-1.6 2.8-3 .1-.5-.2-1-.7-1.2-.5-.1-1 .2-1.2.7-.2.8-.8 1.4-1.6 1.7-.8.3-1.6.1-2.3-.4l-.1-.1v-11.5c1.3.4 2.8.1 4-.8l.1-.1h.1c1.6-1 3.7-.9 5.3.2.4.3 1 .2 1.3-.2.3-.4.2-1-.2-1.3-1.5-1.1-3.3-1.4-5.1-1.1.1-.8.1-1.6-.3-2.4-.2-.5-.8-.7-1.2-.5-.5.2-.7.7-.5 1.2.4 1 .1 2.2-.7 2.9-.8.6-1.9.7-2.8.2v-5.3c.1-2.1 1.5-3.9 3.5-4.4.6-.4 1.1-.5 1.6-.4zm0 16c-.5 0-1 .4-1 .9 0 .4.3.8.7.9 2.1.5 3.9 1.9 5 3.8l.1.1c-.1.7-.1 1.5.1 2.3-.5.2-.9.4-1.3.7-.5.4-1 1-1.3 1.7-.2.5 0 1 .5 1.2.5.2 1 0 1.2-.5.3-.8 1-1.3 1.8-1.5.8-.2 1.6.1 2.2.7.4.4 1 .4 1.4 0 .4-.4.4-1 0-1.3-.7-.7-1.7-1.1-2.7-1.2-.5-2 .4-4.2 2.2-5.2.5-.2.6-.8.4-1.3-.2-.4-.6-.6-1.1-.5-.1 0-.2.1-.3.1-1.1.6-1.9 1.5-2.5 2.6-1.3-1.7-3.2-3-5.4-3.5.2 0 .1 0 0 0zm-22 .4c-.5 0-1 .4-1 .9 0 .2.1.5.2.7.5.6.7 1.5.4 2.3-.3.8-.9 1.4-1.7 1.6-.5.1-.8.6-.7 1.2.1.5.6.8 1.2.7 1-.3 1.9-.9 2.4-1.7 2.1.6 3.5 2.4 3.5 4.5 0 .5.4.9.9 1 .4 0 .8-.3.9-.7v-.3c0-.4 0-.8-.1-1.1.1-.1.1-.2.1-.3.3-2.4 2.4-4.3 4.9-4.2.5 0 1-.4 1-.9s-.4-1-.9-1c-2.7-.1-5.1 1.5-6.2 3.7-.8-1.1-2-2-3.4-2.5.1-.5.1-1 0-1.4-.1-.7-.4-1.4-.9-1.9 0-.4-.3-.6-.6-.6z"/></g></svg>