<svg id="Layer_1" xmlns="http://www.w3.org/2000/svg" width="47" height="49" viewBox="0 0 47 49"><style>.st0{fill:url(#SVGID_1_)}.st1{fill:url(#SVGID_2_)}.st2{fill:url(#SVGID_3_)}.st3{fill:url(#SVGID_4_)}</style><linearGradient id="SVGID_1_" gradientUnits="userSpaceOnUse" x1="-2.457" y1="28.489" x2="47.222" y2="28.489"><stop offset="0" stop-color="#e45d5d"/><stop offset="1" stop-color="#fd9e38"/></linearGradient><path class="st0" d="M31.7 8c-.4-.1-.8 0-1.1.3-.3.3-.3.7-.1 1.1 1.4 2.7 2.2 5.6 2.2 8.7 0 10.4-8.8 18.9-19.5 18.9-1.9 0-3.8-.3-5.6-.8-.4-.1-.8 0-1.1.3-.3.3-.3.7-.1 1.1 3.6 7 10.9 11.4 19 11.4C37.3 49 47 39.6 47 28.1c0-9.2-6.3-17.4-15.3-20.1zm-6.3 39c-6.5 0-12.5-3.1-16.1-8.3 1.3.2 2.5.3 3.8.3 11.9 0 21.6-9.4 21.6-20.9 0-2.5-.5-5-1.4-7.4 7 3 11.7 9.8 11.7 17.3-.1 10.5-8.8 19-19.6 19z"/><linearGradient id="SVGID_2_" gradientUnits="userSpaceOnUse" x1="-2.457" y1="24.074" x2="47.222" y2="24.074"><stop offset="0" stop-color="#e45d5d"/><stop offset="1" stop-color="#fd9e38"/></linearGradient><path class="st1" d="M9.2 19.1h8.1L8.5 29.4c-.3.3-.3.7-.1 1.1.2.4.5.6.9.6h10.3c.6 0 1-.4 1-1s-.5-1-1-1h-8.1l8.9-10.3c.3-.3.3-.7.1-1.1-.2-.3-.5-.6-.9-.6H9.2c-.6 0-1 .4-1 1s.5 1 1 1z"/><linearGradient id="SVGID_3_" gradientUnits="userSpaceOnUse" x1="-2.457" y1="8.973" x2="47.222" y2="8.973"><stop offset="0" stop-color="#e45d5d"/><stop offset="1" stop-color="#fd9e38"/></linearGradient><path class="st2" d="M8.2 13c0-.6-.5-1-1-1H3.1L8 5.6c.2-.3.3-.7.1-1-.2-.4-.5-.6-.9-.6H1c-.5 0-1 .4-1 1s.5 1 1 1h4.1L.2 12.4c-.2.3-.3.7-.1 1s.5.6.9.6h6.2c.6 0 1-.5 1-1z"/><linearGradient id="SVGID_4_" gradientUnits="userSpaceOnUse" x1="-2.457" y1="3.988" x2="47.222" y2="3.988"><stop offset="0" stop-color="#e45d5d"/><stop offset="1" stop-color="#fd9e38"/></linearGradient><path class="st3" d="M13.3 2h2.2l-3 4.4c-.2.3-.2.7-.1 1 .2.4.6.6.9.6h4.1c.6 0 1-.4 1-1s-.5-1-1-1h-2.2l3-4.4c.2-.3.2-.7.1-1-.1-.4-.5-.6-.8-.6h-4.1c-.6 0-1 .4-1 1s.4 1 .9 1z"/></svg>