<?xml version="1.0" encoding="utf-8"?>
<!-- Generator: Adobe Illustrator 20.1.0, SVG Export Plug-In . SVG Version: 6.00 Build 0)  -->
<svg version="1.1" id="Layer_1" xmlns="http://www.w3.org/2000/svg" xmlns:xlink="http://www.w3.org/1999/xlink" x="0px" y="0px"
	 viewBox="0 0 1377 342" style="enable-background:new 0 0 1377 342;" xml:space="preserve">
<g>
	<path style="fill:#FFFFFF;" d="M217.7,285.1H98.1V70.5h119.6v22.2H123v69.1H212v22H123v79h94.7V285.1z"/>
	<path style="fill:#FFFFFF;" d="M371.1,263.5h-1.3c-11.3,16.3-28.1,24.5-50.5,24.5c-21,0-37.4-7.2-49.1-21.6
		c-11.7-14.4-17.5-34.8-17.5-61.4c0-26.5,5.9-47.1,17.6-61.8c11.7-14.7,28.1-22,49-22c21.8,0,38.6,7.9,50.2,23.8h1.9l-1-11.6
		l-0.6-11.3V56.7h24.4v228.4h-19.8L371.1,263.5z M322.4,267.6c16.6,0,28.7-4.5,36.2-13.6c7.5-9,11.2-23.7,11.2-43.8v-5.1
		c0-22.8-3.8-39.1-11.4-48.8c-7.6-9.7-19.7-14.6-36.3-14.6c-14.3,0-25.2,5.6-32.8,16.7c-7.6,11.1-11.4,26.8-11.4,47
		c0,20.5,3.8,36.1,11.3,46.5C296.7,262.4,307.8,267.6,322.4,267.6z"/>
	<path style="fill:#FFFFFF;" d="M468.7,124.2v104.4c0,13.1,3,22.9,9,29.4c6,6.5,15.3,9.7,28,9.7c16.8,0,29.1-4.6,36.9-13.8
		c7.8-9.2,11.7-24.2,11.7-45.1v-84.5h24.4v160.9h-20.1l-3.5-21.6h-1.3c-5,7.9-11.9,14-20.8,18.2c-8.9,4.2-19,6.3-30.3,6.3
		c-19.6,0-34.2-4.6-44-13.9c-9.7-9.3-14.6-24.2-14.6-44.6V124.2H468.7z"/>
	<path style="fill:#00818F;" d="M721.1,285.1l-43.9-154.6h-1.3c2.1,26.3,3.1,46.8,3.1,61.4v93.2h-51.4V70.5h77.2l44.8,152.3h1.2
		l43.9-152.3H872v214.6h-53.3V191c0-4.9,0.1-10.3,0.2-16.3c0.1-6,0.8-20.6,2-43.9h-1.3l-43.3,154.3H721.1z"/>
	<path style="fill:#00818F;" d="M995.2,288c-27.7,0-49.2-7.4-64.5-22.1c-15.3-14.7-23-35.7-23-62.9c0-28.1,7.1-49.6,21.3-64.7
		c14.2-15,34.4-22.5,60.8-22.5c25,0,44.4,6.5,58,19.6c13.7,13.1,20.5,31.9,20.5,56.4v25.5H965.7c0.4,9.3,3.8,16.6,10.2,21.9
		c6.4,5.3,15.1,7.9,26.2,7.9c10.1,0,19.3-1,27.8-2.9c8.5-1.9,17.6-5.2,27.5-9.8v41.2c-9,4.6-18.3,7.8-27.9,9.5
		C1019.9,287.1,1008.5,288,995.2,288z M991.8,154.9c-6.8,0-12.4,2.1-17,6.4c-4.5,4.3-7.2,10.9-8,20h49.3c-0.2-8-2.5-14.4-6.8-19.2
		C1005,157.3,999.1,154.9,991.8,154.9z"/>
	<path style="fill:#00818F;" d="M1152.3,288c-11.8,0-22.2-3.4-31-10.1c-8.9-6.8-15.7-16.7-20.5-29.8c-4.8-13.1-7.3-28.4-7.3-45.9
		c0-27,5.4-48.1,16.3-63.4s25.8-22.9,44.8-22.9c9.3,0,17.4,1.9,24.4,5.6c7,3.7,13.4,10,19.2,18.8h1.2c-1.9-13-2.8-26-2.8-39V56.7
		h57.8v228.4h-43.3l-12.3-21h-2.2C1186.6,280.1,1171.9,288,1152.3,288z M1175.8,242.7c9.2,0,15.7-2.9,19.4-8.7
		c3.8-5.8,5.8-14.7,6.1-26.7v-4.5c0-14.7-2.1-25.1-6.3-31.3c-4.2-6.2-10.8-9.3-19.8-9.3c-7.5,0-13.4,3.5-17.5,10.6
		c-4.2,7.1-6.2,17.2-6.2,30.3c0,12.9,2.1,22.7,6.3,29.5C1162,239.3,1168,242.7,1175.8,242.7z"/>
</g>
<path style="fill:#00818F;" d="M1268.8,127.6c5.4,1.5,9.5,1.4,12.5,0c-2.2-0.1-1.4-24.6-4.2-29.2c-4.2,0-4.2,0-4.2,0
	C1273.2,98.4,1269,107.7,1268.8,127.6z"/>
<polygon style="fill:#F4FFFD;" points="1230.4,66.8 1139.3,56 1222.2,41.4 1306,49.7 "/>
<polygon style="fill:#00818F;" points="1229.7,62.4 1138.7,51.6 1221.6,37 1305.3,45.4 "/>
<rect x="1244" y="81.1" transform="matrix(-1.836970e-16 1 -1 -1.836970e-16 1357.4147 -1193.2712)" style="fill:#00818F;" width="62.6" height="2"/>
</svg>
