<?xml version="1.0" encoding="utf-8"?>
<!-- Generator: Adobe Illustrator 22.0.1, SVG Export Plug-In . SVG Version: 6.00 Build 0)  -->
<svg version="1.1" id="Layer_1" xmlns="http://www.w3.org/2000/svg" xmlns:xlink="http://www.w3.org/1999/xlink" x="0px" y="0px"
	 viewBox="0 0 112.2 25.8" style="enable-background:new 0 0 112.2 25.8;" xml:space="preserve">
<style type="text/css">
	.st0{fill:#FFFFFF;}
</style>
<g>
	<path class="st0" d="M0,25.3l0.5-5.3c0.3,0.1,1.3,0.1,1.6,0.1c2,0,3.8-1,3.8-16.1V0.5h19.2v25h-6.9V6.6h-5.8v1
		c0,15.2-3.4,18.3-8.2,18.3C2.3,25.8,0.5,25.4,0,25.3z"/>
	<path class="st0" d="M39.3,16h-2.9v9.5h-6.9v-25h6.9v9.3h2.9C40.7,4.2,45.4,0,51.8,0c7.5,0,12.7,5.8,12.7,13c0,7.1-5.2,13-12.7,13
		C45.3,26,40.5,21.7,39.3,16z M57.4,13c0-3.7-2.3-6.8-5.7-6.8c-3.4,0-5.6,3-5.6,6.8c0,3.7,2.3,6.8,5.7,6.8S57.4,16.8,57.4,13z"/>
	<path class="st0" d="M68,0.5h18v6.1H74.9v18.9H68V0.5z"/>
	<path class="st0" d="M88.1,13c0-7.3,5.6-13,13.2-13c5.1,0,8.3,2.2,10.5,5.3l-5.1,3.9c-1.4-1.8-3.1-2.9-5.5-2.9c-3.5,0-6,3-6,6.7
		c0,3.7,2.5,6.7,6,6.7c2.6,0,4.1-1.2,5.6-3l5.2,3.7c-2.4,3.2-5.5,5.6-11.1,5.6C93.8,26,88.1,20.5,88.1,13z"/>
</g>
</svg>
