<svg xmlns="http://www.w3.org/2000/svg" viewBox="0 0 80 62"><path d="M78.2 7.6l-5.4-5.4c-1.5-1.5-4-1.5-5.5 0l-2.4 2.4c-2.9 2.9-7.2 3.8-11 2.3-4.2-1.6-8.9-2.4-13.7-2.4s-9.5.8-13.7 2.4c-3.8 1.5-8.1.5-11-2.3l-2.4-2.4c-1.5-1.5-4-1.5-5.5 0L2.1 7.6c-1.5 1.5-1.5 4 0 5.5l5.6 5.6c2 2 3 4.5 3 7.3 0 7.9 5.8 15.1 15.2 18.9 3.9 1.6 6.5 5.4 6.5 9.6v2.8c0 2.2 1.8 3.9 3.9 3.9H44c2.2 0 3.9-1.8 3.9-3.9v-2.8c0-4.2 2.5-8 6.5-9.6 9.4-3.8 15.2-11 15.2-18.9 0-2.8 1.1-5.4 3-7.3l5.6-5.6c1.5-1.5 1.5-4 0-5.5zm-8.5 8.2c-2.7 2.7-4.2 6.3-4.2 10.2 0 6.2-4.9 12-12.7 15.2-5.5 2.2-9 7.4-9 13.3v2.7h-7.4v-2.7c0-5.9-3.5-11.1-9-13.3-7.8-3.2-12.7-9-12.7-15.2 0-3.8-1.5-7.4-4.2-10.2L5 10.3 10.3 5l2.3 2.3c4 4 10 5.3 15.3 3.3 3.7-1.4 7.9-2.2 12.2-2.2s8.5.8 12.2 2.2c5.3 2 11.3.8 15.3-3.3L70 5.1l5.3 5.3-5.6 5.4z" fill="#aa2528"/><path d="M49.3 12.5c-2.4-.5-5-.7-7.5-.7-4.8 0-9.5.8-13.7 2.4-1 .4-1.6 1.6-1.2 2.6.3.8 1.1 1.3 1.9 1.3.2 0 .5 0 .7-.1 3.7-1.4 7.9-2.2 12.2-2.2 2.3 0 4.6.2 6.8.6 1.1.2 2.1-.5 2.4-1.6.2-1.1-.5-2.1-1.6-2.3z" fill="#aa2528"/><circle cx="22.3" cy="18.9" r="2" fill="#aa2528"/></svg>