<svg xmlns="http://www.w3.org/2000/svg" viewBox="0 0 38 80"><g fill="#aa2528"><path d="M22.8 0C18.5 0 15 3.5 15 7.7s3.5 7.7 7.7 7.7 7.7-3.5 7.7-7.7S27 0 22.8 0zm0 12.9c-2.9 0-5.2-2.3-5.2-5.2s2.3-5.2 5.2-5.2S28 4.8 28 7.7s-2.4 5.2-5.2 5.2zm9.4 13.7c-.6-2.7-2.3-4.3-2.7-4.6l-.1-.1c-.8-.3-7.1-3.2-10.1-4.9-3.1-1.7-5.7-1.2-5.7-1.2s-3.1.3-5.5 3.7C6.2 21.8 0 37.8-.3 38.9c-.3 1-.2 1.9-.2 2.1l.4 1.5c.2.8 4.3 14.6 4.8 15.7.4 1 .4 2.1.4 2.3v.1C4.9 61.4 2.9 73.4 3 75c.1 1.7 1.7 5 5.7 4.9 3.6 0 4.8-2.5 5-3v-.2l2.5-17.6v-.3c-.3-1-2.4-7.2-2.5-7.6-.1-.5.4-.3.4-.3l3.5 2.9c.1.1.2.3.2.5v15.1c.3 1.7 2.5 4 5.8 3.8h.1c3.7.2 5-3 5.2-3.6V51.5c0-2-.9-2.5-.9-2.5l-10.9-9.1c-.2-.2-.2-.6.1-.7 2-.9 8.5-3.6 10.1-4.2 1.9-.8 2.6-1.6 2.6-1.6.5-.5 1.3-1.3 1.8-2.6 1-1.8.6-3.5.5-4.2zm-19.8 35c-.3 1.8-2 13.5-2.1 13.7-.1.3-.3 1.7-2.4 1.7-1.7-.1-2.1-1.7-2-2.2.1-.5 1.7-9.5 1.7-9.5l.8-4.6s.1-1.1-.1-1.9c-.2-.8-3.5-10-3.5-10h4.7l2.9 9.4s.4 1.6 0 3.4zm16.1-31.5c-1.1 1.8-2.6 2.4-2.6 2.4s-7.4 3-7.9 3.1c-.5.2-.3-.5-.3-.5s.5-1.3.9-2.2 1.1-1 1.1-1l4.7-1.8s1-.2 1.4-1.3c.3-.8-.2-1.5-.5-1.7-.2-.1-4.5-2.1-4.5-2.1s-1-.5-1.8-.5-1.2 1.2-1.3 1.4v.2c-.1 1 1.3 1.4 1.3 1.4s1.7.9-.4 1.4c-2.1.4-1.9.7-2.3 1-.4.3-1.1 2.6-2.3 5.5-1.2 2.9-.9 2.3-1.4 3.4-.6 1.2.4 2.1.4 2.1s8.9 7.4 10.6 8.8c1.8 1.4 2 2.9 2 2.9l.1 16s-.1 1.8-2.1 1.8-2.2-1.8-2.2-1.8-.1-14.6-.1-15c0-.5-.2-.7-.2-.7L16.2 49s-3.2-2.4-4-2.9c-.3-.2-2.9-.2-5.8-.9-.9-.2-4-1.3-3.4-6.6.1-.8 6.5-15.9 8.5-18s4.7-1 4.7-1 5.7 2.7 7.7 3.7c4.9 1.6 5.2 4.6 4.6 6.8z"/><path d="M29.3 40.9s0 .4 1.5.1c1.4-.4 4.2-2.2 4.2-2.2s.9-1.1.1-2.2.2-2.1.2-2.1l2.4-1.9s1.1-1.1-.5-.7c-1.4.4-2.4.9-3.5 1.4s-1.4 1.1-1.5 1.8.3 1.9.4 2.2c.2.5-.4 1-.4 1s-3 1.9-2.9 2.6c.2.5 0 0 0 0zm-.4 2.3s.5-.5 3.4.9c2.9 1.5 2.6 1.8 2.6 1.8s.5.4.1 1.1c-.4.7-.9 1.1-.8 1.6.2.4 2.2 1.8 2.9 2.5.7.7-.2.6-.2.6s-4.4-.9-5.4-1.4c-1-.5.6-2.1.6-2.1s.6-.6 0-1.3c-.5-.7-3.2-3.2-3.2-3.7z"/></g></svg>