<svg xmlns="http://www.w3.org/2000/svg" viewBox="0 0 189.674 189.674"><path d="M166.182 69.605L53.074 3.48C47.854 1.74 42.633 0 37.413 0 21.752 0 7.831 12.181 7.831 29.582v130.509c0 15.661 12.181 29.582 29.582 29.582 5.22 0 10.441-1.74 15.661-1.74l113.108-66.124c10.441-5.22 15.661-15.661 15.661-26.102s-6.961-20.882-15.661-26.102zm-8.701 33.062L44.373 168.791c-6.96 5.22-19.141 0-19.141-10.441V27.842c0-6.96 5.22-12.181 12.181-12.181h6.96l113.108 66.124c5.22 1.74 6.96 6.96 6.96 10.441.001 3.481-3.479 8.701-6.96 10.441z"/></svg>