<?xml version="1.0" encoding="utf-8"?>
<!-- Generator: Adobe Illustrator 20.1.0, SVG Export Plug-In . SVG Version: 6.00 Build 0)  -->
<svg version="1.1" id="menu-ic-4" xmlns="http://www.w3.org/2000/svg" xmlns:xlink="http://www.w3.org/1999/xlink" x="0px" y="0px"
	 viewBox="0 0 24 24" style="enable-background:new 0 0 24 24;" xml:space="preserve">
<path style="fill:none;stroke:#F7D523;stroke-miterlimit:10;" d="M4.6,9.3C2.9,12.3,4,16.8,5.9,19.5C6.8,20.8,7.8,22,9.1,22
	c0,0,0,0,0.1,0c0.6,0,1.1-0.2,1.5-0.4c0.5-0.2,1-0.4,1.8-0.4c0.7,0,1.2,0.2,1.7,0.4c0.4,0.2,0.9,0.4,1.6,0.4c1.5,0,2.4-1.3,3.2-2.5
	c0.8-1.2,1.2-2.4,1.4-2.8l0,0c0-0.1,0-0.2-0.1-0.2c0,0,0,0,0,0c-0.3-0.1-2.5-1.1-2.5-3.8c0-2.2,1.7-3.4,2-3.6l0,0
	c0,0,0.1-0.1,0.1-0.1c0,0,0-0.1,0-0.1c-1.2-1.7-3-2-3.7-2c-0.1,0-0.2,0-0.3,0c-0.9,0-1.7,0.3-2.3,0.6c-0.5,0.2-0.9,0.3-1.1,0.3
	c-0.3,0-0.7-0.2-1.2-0.3c-0.6-0.2-1.3-0.5-2-0.5c0,0,0,0-0.1,0C7.2,6.8,5.5,7.8,4.6,9.3L4.6,9.3z M4.6,9.3 M15.9,2
	c-1,0-2.3,0.7-3,1.6c-0.6,0.7-1.2,2-1.1,3.2c0,0.1,0.1,0.1,0.2,0.1c0.1,0,0.1,0,0.2,0c1,0,2.1-0.6,2.9-1.5c0.8-1,1.2-2.2,1.1-3.3
	C16.1,2,16,2,15.9,2L15.9,2z M15.9,2"/>
</svg>
