<svg id="Capa_1" xmlns="http://www.w3.org/2000/svg" viewBox="0 0 550.8 550.8"><style>.st0{fill:#8baacc}.st1{fill:#fff}</style><path class="st0" d="M89.7 13h268.6l108 120v400H85z"/><path class="st1" d="M187.2 286c0-11.6-8-18.5-22.2-18.5-5.8 0-9.7.6-11.8 1.1v37.2c2.4.6 5.4.7 9.5.7 15.2 0 24.5-7.6 24.5-20.5zm87.8-18.1c-6.4 0-10.5.6-12.9 1.1v82.4c2.4.6 6.4.6 9.9.6 25.8.2 42.6-14 42.6-44.1.3-26.2-15.1-40-39.6-40z"/><path class="st1" d="M488.4 197h-13.2v-63.8c0-.4-.1-.8-.1-1.2 0-2.5-.8-5-2.6-7L366.3 3.7s-.1 0-.1-.1c-.6-.7-1.4-1.3-2.2-1.8-.2-.2-.5-.3-.7-.4-.7-.4-1.4-.7-2.1-.9-.2-.1-.4-.1-.6-.2-.7-.2-1.6-.3-2.4-.3h-261C85.3 0 75.6 9.7 75.6 21.6V197H62.4c-17 0-30.9 13.8-30.9 30.9v160.5c0 17 13.8 30.9 30.9 30.9h13.2v109.9c0 11.9 9.7 21.6 21.6 21.6h356.4c11.9 0 21.6-9.7 21.6-21.6V419.3h13.2c17 0 30.9-13.8 30.9-30.9V227.9c0-17.1-13.8-30.9-30.9-30.9zM97.2 21.6h250.2v110.5c0 6 4.8 10.8 10.8 10.8h95.4V197H97.2V21.6zm247.7 285.3c0 24.1-8.8 40.7-20.9 51-13.3 11-33.4 16.3-58.1 16.3-14.8 0-25.2-.9-32.3-1.9V248.6c10.5-1.7 24.1-2.6 38.5-2.6 23.9 0 39.4 4.3 51.6 13.5 13 9.7 21.2 25.2 21.2 47.4zm-219.9 66V248.6c8.8-1.5 21.1-2.6 38.5-2.6 17.6 0 30.1 3.4 38.5 10.1 8 6.3 13.4 16.8 13.4 29.2 0 12.3-4.1 22.8-11.6 29.9-9.7 9.2-24.1 13.3-40.9 13.3-3.7 0-7.1-.2-9.7-.6v45H125zm328.6 150.5H97.2V419.3h356.4v104.1zm-13-253.1h-48.4v28.8h45.2v23.2h-45.2v50.6h-28.6v-126h77v23.4z"/></svg>