<svg xmlns="http://www.w3.org/2000/svg" viewBox="0 0 35 37"><path d="M33.933 2.167h-6.995V1.091A1.078 1.078 0 0 0 25.871 0a1.08 1.08 0 0 0-1.068 1.091v1.076h-6.236V1.091A1.08 1.08 0 0 0 17.5 0c-.59 0-1.067.488-1.067 1.091v1.076h-5.971V1.091A1.08 1.08 0 0 0 9.394 0a1.08 1.08 0 0 0-1.068 1.091v1.076H1.068A1.08 1.08 0 0 0 0 3.257v24.644a1.08 1.08 0 0 0 1.068 1.091H7.62C8.668 33.575 12.699 37 17.5 37c4.8 0 8.831-3.425 9.88-8.008h6.552A1.08 1.08 0 0 0 35 27.901V3.257c0-.602-.478-1.09-1.067-1.09zM8.326 4.347v.986a1.08 1.08 0 0 0 1.068 1.091 1.08 1.08 0 0 0 1.068-1.091v-.986h5.971v.986A1.08 1.08 0 0 0 17.5 6.424a1.08 1.08 0 0 0 1.067-1.091v-.986h6.236v.986a1.08 1.08 0 0 0 1.068 1.091 1.08 1.08 0 0 0 1.068-1.091v-.986h5.927v4.46H2.135v-4.46h6.191zM17.5 34.818c-4.42 0-8.015-3.674-8.015-8.19 0-4.515 3.595-8.19 8.015-8.19 4.419 0 8.014 3.674 8.014 8.19s-3.595 8.19-8.014 8.19zm10.146-8.008c.001-.06.004-.121.004-.182 0-5.719-4.554-10.371-10.15-10.371-5.597 0-10.15 4.652-10.15 10.371 0 .061.003.122.004.182h-5.22V10.989h30.731V26.81h-5.219zm0 0"/><path d="M18.567 26.904v-5.276a1.08 1.08 0 0 0-1.067-1.091c-.59 0-1.067.488-1.067 1.091v5.728c0 .289.112.567.313.771l2.453 2.507a1.052 1.052 0 0 0 1.51 0 1.108 1.108 0 0 0 0-1.543l-2.142-2.187zm0 0"/></svg>