<svg xmlns="http://www.w3.org/2000/svg" viewBox="-49 653 60 60"><path d="M6.161 658.806A4.845 4.845 0 0 0 11 653.967V653H5.194c-1.588 0-2.988.78-3.871 1.965C.44 653.78-.96 653-2.548 653h-5.806v.968a4.845 4.845 0 0 0 4.839 4.839H.356v2.928a4.786 4.786 0 0 0-2.903-.993h-5.806v.968a4.845 4.845 0 0 0 4.839 4.839H.357v2.928a4.786 4.786 0 0 0-2.903-.993h-5.806v.968a4.845 4.845 0 0 0 4.839 4.839H.358v1.935h-8.71v1.935h1.935v8.367a22.21 22.21 0 0 0-12.581-11.816v-15.906c1.601 0 2.903-1.303 2.903-2.903S-17.399 653-19 653h-15.484c-1.601 0-2.903 1.303-2.903 2.903s1.303 2.903 2.903 2.903v3.871h-2.903c-5.869 0-10.645 4.776-10.645 10.645 0 3.249 1.471 6.264 3.969 8.277a22.221 22.221 0 0 0-4.936 13.981c0 6.68 2.963 12.95 8.13 17.199l.268.221h27.721l.267-.221a22.26 22.26 0 0 0 6.195-8.125v3.507A4.845 4.845 0 0 0-1.579 713h5.806a4.845 4.845 0 0 0 4.839-4.839v-30H11v-1.935H2.29v-1.935h3.871A4.845 4.845 0 0 0 11 669.452v-.968H5.194a4.784 4.784 0 0 0-2.903.993v-2.928h3.871a4.845 4.845 0 0 0 4.839-4.839v-.968H5.194a4.784 4.784 0 0 0-2.903.993v-2.928h3.87zm-9.677-1.935a2.91 2.91 0 0 1-2.738-1.935h3.705a2.91 2.91 0 0 1 2.738 1.935h-3.705zm0 7.742a2.91 2.91 0 0 1-2.738-1.935h3.705a2.91 2.91 0 0 1 2.738 1.935h-3.705zm0 7.742a2.91 2.91 0 0 1-2.738-1.935h3.705a2.91 2.91 0 0 1 2.738 1.935h-3.705zm3.871 5.806v3.871h-4.839v-3.871H.355zm-35.807-22.258c0-.534.434-.968.968-.968H-19a.969.969 0 0 1 0 1.936h-15.484a.969.969 0 0 1-.968-.968zm-2.228 20.293a2.896 2.896 0 0 1-2.61-2.873 2.907 2.907 0 0 1 2.903-2.903h2.903v4.294a22.139 22.139 0 0 0-3.196 1.482zm-8.417-2.873c0-4.803 3.907-8.71 8.71-8.71h2.903v3.871h-2.903a4.845 4.845 0 0 0-4.839 4.839c0 1.811 1.011 3.374 2.488 4.203a22.171 22.171 0 0 0-3.041 2.622 8.678 8.678 0 0 1-3.318-6.825zm32.517 37.742h-26.325a20.262 20.262 0 0 1-7.16-15.484c0-3.467.887-6.771 2.462-9.677h28.506v-1.935h-27.317a20.284 20.284 0 0 1 10.206-7.653l.66-.222v-17.287h11.613v17.287l.66.222a20.283 20.283 0 0 1 10.206 7.653h-4.092v1.935h5.28a20.274 20.274 0 0 1 2.462 9.677 20.265 20.265 0 0 1-7.161 15.484zm20.709-32.904v3.871H5.194v1.935h1.935v24.194a2.907 2.907 0 0 1-2.903 2.903H-1.58a2.907 2.907 0 0 1-2.903-2.903v-24.194H.356v25.161H2.29v-25.161h.968v-1.935H2.29v-3.871h4.839zm-1.935-7.742h3.705a2.91 2.91 0 0 1-2.738 1.935H2.456a2.909 2.909 0 0 1 2.738-1.935zm0-7.742h3.705a2.91 2.91 0 0 1-2.738 1.935H2.456a2.909 2.909 0 0 1 2.738-1.935zm0-7.742h3.705a2.91 2.91 0 0 1-2.738 1.935H2.456a2.91 2.91 0 0 1 2.738-1.935z" fill="#076398"/></svg>