<svg id="Capa_1" xmlns="http://www.w3.org/2000/svg" viewBox="0 0 52 68"><style>.st0{fill:#076398}</style><path class="st0" d="M50.9 9C34.4 9 27 .5 26.9.4c-.4-.5-1.3-.5-1.7 0C25.1.5 17.7 9 1.1 9 .5 9 0 9.6 0 10.2v21.6c0 11.8 5.3 23.1 14.2 30.1 3.6 2.8 7.4 4.9 11.5 6.1h.6c4-1.2 7.9-3.2 11.5-6.1 8.9-7 14.2-18.2 14.2-30.1V10.2c0-.6-.5-1.2-1.1-1.2zm-1.2 22.8c0 11.1-5 21.7-13.3 28.3-3.3 2.6-6.8 4.4-10.4 5.6-3.7-1.1-7.2-3-10.4-5.6C7.2 53.5 2.3 43 2.3 31.8V11.3C16.1 11 23.6 5.1 26 2.8c2.4 2.3 9.9 8.2 23.7 8.6v20.4z"/><path class="st0" d="M25.4 9.1c-3.4 2.3-9.2 5.3-17.6 6.4-.6.1-1 .6-1 1.1v15.3c0 9.8 4.3 19 11.6 24.7 2.3 1.8 4.7 3.2 7.2 4.2.1.1.3.1.4.1s.3 0 .4-.1c2.5-1 4.9-2.4 7.2-4.2 7.3-5.7 11.6-15 11.6-24.7V16.6c0-.6-.4-1.1-1-1.1-8.4-1.1-14.2-4.1-17.6-6.4-.3-.3-.9-.3-1.2 0zM43 17.6v14.3c0 9.1-4 17.6-10.7 22.9-2 1.6-4.1 2.8-6.2 3.7-2.1-.9-4.2-2.1-6.2-3.7C13.1 49.5 9 40.9 9 31.8V17.6c7.8-1.2 13.4-3.9 17-6.2 3.5 2.2 9.2 5 17 6.2z"/><path class="st0" d="M15.5 33.2c-.4-.4-1.2-.4-1.6 0-.4.4-.4 1.2 0 1.6l9 9.1c.2.2.5.3.8.3.3 0 .6-.2.8-.4l15.8-18.1c.4-.5.4-1.2-.1-1.6-.5-.4-1.2-.4-1.6.1l-15 17.2-8.1-8.2z"/></svg>