<svg xmlns="http://www.w3.org/2000/svg" viewBox="0 0 53 60"><g fill="#0b6398"><path d="M16.973 37.039a2.11 2.11 0 0 1-2.102 2.118 2.11 2.11 0 0 1-2.102-2.118 2.11 2.11 0 0 1 2.102-2.117 2.11 2.11 0 0 1 2.102 2.117zm23.258 0a2.11 2.11 0 0 1-2.102 2.118 2.11 2.11 0 0 1-2.102-2.118 2.11 2.11 0 0 1 2.102-2.117 2.11 2.11 0 0 1 2.102 2.117zm-25.36-6.791c-1.148 0-2.228.45-3.039 1.268a1.138 1.138 0 0 0 0 1.601c.439.442 1.15.441 1.588 0a2.028 2.028 0 0 1 1.451-.606c.548 0 1.064.215 1.452.606a1.117 1.117 0 0 0 1.588 0 1.138 1.138 0 0 0 0-1.601 4.254 4.254 0 0 0-3.04-1.268zm20.218 1.268a1.138 1.138 0 0 0 0 1.601c.439.442 1.15.441 1.588 0a2.045 2.045 0 0 1 2.903 0 1.119 1.119 0 0 0 1.588 0 1.138 1.138 0 0 0 0-1.601 4.282 4.282 0 0 0-6.079 0zm-6.426 14.515a3.028 3.028 0 0 1-2.163.902c-.817 0-1.585-.32-2.163-.902a1.118 1.118 0 0 0-1.588 0 1.137 1.137 0 0 0 0 1.6 5.248 5.248 0 0 0 3.752 1.565 5.252 5.252 0 0 0 3.751-1.565 1.137 1.137 0 0 0 0-1.6 1.12 1.12 0 0 0-1.589 0zm0 0"/><path d="M53 35.948c0-3.074-2.205-5.636-5.106-6.171V10.849A7.305 7.305 0 0 0 44.65 4.76a7.19 7.19 0 0 0-6.417-.804l-7.051-2.412C25.764-.309 20.061-.499 14.689.994 7.657 2.95 3.626 7.083 3.003 12.959a8.605 8.605 0 0 0-1.285 2.44l-.547 1.631a1.94 1.94 0 0 0 .805 2.289 1.911 1.911 0 0 0 2.399-.249c.225-.22.472-.405.731-.559v11.266C2.205 30.312 0 32.874 0 35.948c0 3.197 2.386 5.84 5.457 6.225a21.781 21.781 0 0 0 5.897 11.415C15.4 57.722 20.778 60 26.5 60h.003c5.714-.001 11.086-2.243 15.126-6.313a21.447 21.447 0 0 0 5.95-11.519c3.054-.4 5.421-3.036 5.421-6.22zM43.409 6.646c1.423.951 2.239 2.483 2.239 4.203v14.806c-3.486-.546-6.163-3.59-6.163-7.252l-.092-12.44a4.887 4.887 0 0 1 4.016.683zM3.628 16.774l.218-.651a6.327 6.327 0 0 1 3.484-3.797 6.253 6.253 0 0 1 5.132.081c3.401 1.596 7.512.733 9.998-2.097l.278-.317a1.137 1.137 0 0 0-.097-1.597 1.119 1.119 0 0 0-1.586.097l-.278.317c-1.832 2.086-4.861 2.722-7.368 1.546a8.49 8.49 0 0 0-6.964-.11c-.203.088-.4.185-.594.287 1.306-3.506 4.465-5.975 9.436-7.357 4.936-1.372 10.183-1.195 15.174.511l6.686 2.287.088 5.846a19.724 19.724 0 0 1-12.266 7.787 19.625 19.625 0 0 1-14.554-2.896 6.049 6.049 0 0 0-6.787.063zM2.246 35.948a4.015 4.015 0 0 1 2.859-3.849v6.133c0 .53.018 1.056.055 1.58a4.013 4.013 0 0 1-2.914-3.864zM40.04 52.087c-3.616 3.643-8.424 5.65-13.538 5.65H26.5c-5.115 0-9.926-2.038-13.547-5.737-3.612-3.692-5.601-8.581-5.601-13.767V17.977a3.868 3.868 0 0 1 1.835.629 21.856 21.856 0 0 0 16.201 3.224 21.91 21.91 0 0 0 11.851-6.498v3.07c0 4.912 3.68 8.972 8.409 9.534v10.509c0 5.154-1.991 9.998-5.608 13.642zm7.811-12.279c.027-.452.043-.905.043-1.362V32.1a4.014 4.014 0 0 1 2.859 3.849 4.01 4.01 0 0 1-2.902 3.859zm0 0"/></g></svg>