<?xml version="1.0" encoding="utf-8"?>
<!-- Generator: Adobe Illustrator 20.1.0, SVG Export Plug-In . SVG Version: 6.00 Build 0)  -->
<svg version="1.1" id="pfizer-logo" xmlns="http://www.w3.org/2000/svg" xmlns:xlink="http://www.w3.org/1999/xlink" x="0px"
	 y="0px" viewBox="0 0 92 53.7" style="enable-background:new 0 0 92 53.7;" xml:space="preserve">
<path id="logo" style="fill:#008DF6;" d="M20.6,14.2H15c0,0-5,18.5-5.9,21.7h4.8c0.3-1.1,1.1-4.2,2.1-7.7c9.7,0,12-2.7,12.9-6.5
	C29.6,18.5,29,14.2,20.6,14.2 M23.9,21.4c-1.2,3.7-3.5,4.4-7.3,4.4c0.9-3.4,1.9-7,2.6-9.5H20C24.5,16.3,24.9,18.4,23.9,21.4
	 M84.1,21.1c-1.9,0-3.9,1.8-5,3.2l0.8-2.9h-4.6l-3.9,14.5h4.8l1.8-6.8c0.1-0.5,0.4-1.2,0.7-1.9c0.5-1,1.1-2.1,1.9-2.8
	c0.6-0.5,1.1-0.8,1.8-0.7c0.5,0.1,0.6,0.5,0.6,0.9c0.1,0.3,0.1,0.8,0.5,1.2c0.2,0.1,0.5,0.5,1.4,0.5c1.2,0,2.2-1,2.2-2.4
	C87.1,22.7,86.7,21.1,84.1,21.1 M58.9,21.4H47.1l-0.6,2.4h6.6c-1.5,2.2-9.1,7.5-9.1,12.1h12.1l0.8-2.9h-7.5
	C51.2,29.6,57.6,25.9,58.9,21.4 M67.1,26.8c-1.1,0.9-2.3,1.2-4.5,1.3c0.4-1.6,1.3-3,2.4-3.9c0.7-0.5,1.6-0.8,2.1-0.8
	c1.2,0,1.4,0.6,1.4,1.1C68.6,25.1,68.1,26,67.1,26.8 M69.7,31.4c-0.2,0.2-2.3,2.3-4.6,2.3c-1.7,0-2.8-1.2-2.8-2.6c0-0.3,0-0.5,0-1.1
	c2.6,0,4.2-0.3,5.7-0.8c2.5-0.8,4.1-2.9,4.1-5c0-2-2.2-3.2-4.7-3.2c-5,0-9.7,4.5-9.7,9.7c0,3.3,2.4,5.6,6,5.6c1.7,0,3.2-0.4,4.5-1.1
	c0.8-0.4,1.6-1,2.2-1.7L69.7,31.4z M90.4,20.4C90.4,33,73.2,46.3,50.7,51C45.3,52.1,40,52.7,35,52.7c-2.6,0-5.1-0.1-7.5-0.4
	l7.4-28.5h4.6l-3.2,12.1h4.7c0.6-2.2,2.7-10,3.9-14.5h-9.4l1.4-5.5c0.3-1.1,0.5-1.7,0.7-2.1c0.8-2,2-3.1,3.4-3.3
	c1.2-0.2,1.6,0.5,1.6,1c0,0.9-0.7,1.1-0.7,2.3c0,0.9,0.6,2.2,2.4,2.2c1.8,0,2.9-1.2,3-3.1c0-0.9-0.1-1.9-1.5-2.8
	c-1.4-1-3.9-1.2-5.6-1.1c-3.1,0.3-5.3,2.2-6.7,4.6c-1.1,1.8-1.7,3.4-2.8,7.6c0,0-5.5,21.1-7.9,30.3C11.6,49.3,3.5,43.8,1.8,36
	c-0.2-0.9-0.3-1.9-0.3-2.9c0-12.5,16.6-25.7,39-30.4C46.1,1.5,51.5,1,56.6,1C74,1,88,7.3,90.2,17.6C90.4,18.5,90.4,19.5,90.4,20.4"
	/>
</svg>
