<?xml version="1.0" encoding="utf-8"?>
<!-- Generator: Adobe Illustrator 21.1.0, SVG Export Plug-In . SVG Version: 6.00 Build 0)  -->
<svg version="1.1" id="svg-pull-3" xmlns="http://www.w3.org/2000/svg" xmlns:xlink="http://www.w3.org/1999/xlink" x="0px" y="0px"
	 viewBox="0 0 124 124" style="enable-background:new 0 0 124 124;" xml:space="preserve">
<g id="inside-1">
	<g>
		<defs>
			<path id="SVGID_1_" d="M62,122L62,122C28.9,122,2,95.1,2,62l0,0C2,28.9,28.9,2,62,2l0,0c33.1,0,60,26.9,60,60l0,0
				C122,95.1,95.1,122,62,122z"/>
		</defs>
		<clipPath id="SVGID_2_">
			<use xlink:href="#SVGID_1_"  style="overflow:visible;"/>
		</clipPath>
		<radialGradient id="bg1_1_" cx="62" cy="62" r="61" gradientTransform="matrix(1 0 0 -1 0 124)" gradientUnits="userSpaceOnUse">
			<stop  offset="0" style="stop-color:#F0F8FF"/>
			<stop  offset="0.751" style="stop-color:#F0F8FF"/>
			<stop  offset="0.819" style="stop-color:#F0F8FF"/>
			<stop  offset="0.9066" style="stop-color:#EDF6FD"/>
			<stop  offset="0.9785" style="stop-color:#E3EEF6"/>
			<stop  offset="0.9952" style="stop-color:#DFEBF4"/>
		</radialGradient>
		<path id="bg1" style="clip-path:url(#SVGID_2_);fill:url(#bg1_1_);" d="M62,123L62,123C28.3,123,1,95.7,1,62l0,0
			C1,28.3,28.3,1,62,1l0,0c33.7,0,61,27.3,61,61l0,0C123,95.7,95.7,123,62,123z"/>
		<path id="bg2" style="clip-path:url(#SVGID_2_);fill:#24313A;" d="M62,123L62,123C28.3,123,1,95.7,1,62l0,0C1,28.3,28.3,1,62,1
			l0,0c33.7,0,61,27.3,61,61l0,0C123,95.7,95.7,123,62,123z"/>
	</g>
</g>
<path id="anim_1_" style="fill:#B7D6ED;" d="M50.7,83.3c-11.8-6.6-16-21.5-9.4-33.2c4.6-8.2,13.3-13,22.7-12.5
	c0.3,0,0.6,0.2,0.6,0.6c0,0.3-0.1,0.6-0.4,0.7c-4.3,1.5-7.9,4.6-10.2,8.6c-5,9.1-1.8,20.5,7.3,25.6c7.9,4.4,17.8,2.6,23.5-4.3
	c0.2-0.2,0.5-0.3,0.8-0.1c0.2,0.1,0.4,0.5,0.3,0.8c-0.5,1.6-1.1,3.1-2,4.6C77.3,85.6,62.4,89.9,50.7,83.3z"/>
</svg>
