<?xml version="1.0" encoding="utf-8"?>
<!-- Generator: Adobe Illustrator 20.1.0, SVG Export Plug-In . SVG Version: 6.00 Build 0)  -->
<svg version="1.1" id="svg-pull-2" xmlns="http://www.w3.org/2000/svg" xmlns:xlink="http://www.w3.org/1999/xlink" x="0px" y="0px"
	 viewBox="0 0 124 124" style="enable-background:new 0 0 124 124;" xml:space="preserve">
<g id="inside-1">
	<defs>
		<path id="SVGID_1_2" d="M62,122L62,122C28.9,122,2,95.1,2,62v0C2,28.9,28.9,2,62,2h0c33.1,0,60,26.9,60,60v0
			C122,95.1,95.1,122,62,122z"/>
	</defs>
	<clipPath id="SVGID_2_2">
		<use xlink:href="#SVGID_1_2"  style="overflow:visible;"/>
	</clipPath>
	<g id="bg-0" style="clip-path:url(#SVGID_2_2);">
		<radialGradient id="SVGID_3_2" cx="62" cy="62" r="61.05" gradientUnits="userSpaceOnUse">
			<stop  offset="0" style="stop-color:#F0F8FF"/>
			<stop  offset="0.751" style="stop-color:#F0F8FF"/>
			<stop  offset="0.819" style="stop-color:#F0F8FF"/>
			<stop  offset="0.9066" style="stop-color:#EDF6FD"/>
			<stop  offset="0.9785" style="stop-color:#E3EEF6"/>
			<stop  offset="0.9952" style="stop-color:#DFEBF4"/>
		</radialGradient>
		<path style="fill:url(#SVGID_3_2);" d="M62,123L62,123C28.3,123,1,95.7,1,62v0C1,28.3,28.3,1,62,1h0c33.7,0,61,27.3,61,61v0
			C123,95.7,95.7,123,62,123z"/>
	</g>
</g>
<g id="anim">
	<g>
		
			<ellipse transform="matrix(0.2185 -0.9758 0.9758 0.2185 -12.0481 108.9555)" style="fill:#B7D6ED;" cx="62" cy="62" rx="17.8" ry="17.8"/>
		<path style="fill:#B7D6ED;" d="M68.6,40.9c-0.2,1-1.2,1.6-2.2,1.4l0,0c-1-0.2-1.6-1.2-1.4-2.2l1.5-6.8c0.2-1,1.2-1.6,2.2-1.4l0,0
			c1,0.2,1.6,1.2,1.4,2.2L68.6,40.9z"/>
		<path style="fill:#B7D6ED;" d="M56.6,38.5c0.3,1-0.2,2-1.2,2.3l0,0c-1,0.3-2-0.2-2.3-1.2l-0.6-2c-0.3-1,0.2-2,1.2-2.3l0,0
			c1-0.3,2,0.2,2.3,1.2L56.6,38.5z"/>
		<path style="fill:#B7D6ED;" d="M47.1,45.7c0.8,0.7,0.8,1.9,0.1,2.6l0,0c-0.7,0.8-1.9,0.8-2.6,0.1l-5.1-4.7
			c-0.8-0.7-0.8-1.9-0.1-2.6l0,0c0.7-0.8,1.9-0.8,2.6-0.1L47.1,45.7z"/>
		<path style="fill:#B7D6ED;" d="M38.9,54.9c1,0.2,1.6,1.2,1.4,2.2l0,0c-0.2,1-1.2,1.6-2.2,1.4l-2-0.5c-1-0.2-1.6-1.2-1.4-2.2l0,0
			c0.2-1,1.2-1.6,2.2-1.4L38.9,54.9z"/>
		<path style="fill:#B7D6ED;" d="M40.4,66.8c1-0.3,2,0.2,2.3,1.2l0,0c0.3,1-0.2,2-1.2,2.3l-6.7,2.1c-1,0.3-2-0.2-2.3-1.2l0,0
			c-0.3-1,0.2-2,1.2-2.3L40.4,66.8z"/>
		<path style="fill:#B7D6ED;" d="M44.3,78.5c0.7-0.8,1.9-0.8,2.6-0.1l0,0c0.8,0.7,0.8,1.9,0.1,2.6l-1.4,1.5
			c-0.7,0.8-1.9,0.8-2.6,0.1l0,0c-0.8-0.7-0.8-1.9-0.1-2.6L44.3,78.5z"/>
		<path style="fill:#B7D6ED;" d="M55.4,83.1c0.2-1,1.2-1.6,2.2-1.4l0,0c1,0.2,1.6,1.2,1.4,2.2l-1.5,6.8c-0.2,1-1.2,1.6-2.2,1.4l0,0
			c-1-0.2-1.6-1.2-1.4-2.2L55.4,83.1z"/>
		<path style="fill:#B7D6ED;" d="M67.4,85.5c-0.3-1,0.2-2,1.2-2.3l0,0c1-0.3,2,0.2,2.3,1.2l0.6,2c0.3,1-0.2,2-1.2,2.3l0,0
			c-1,0.3-2-0.2-2.3-1.2L67.4,85.5z"/>
		<path style="fill:#B7D6ED;" d="M76.9,78.3c-0.8-0.7-0.8-1.9-0.1-2.6l0,0c0.7-0.8,1.9-0.8,2.6-0.1l5.1,4.7c0.8,0.7,0.8,1.9,0.1,2.6
			l0,0c-0.7,0.8-1.9,0.8-2.6,0.1L76.9,78.3z"/>
		<path style="fill:#B7D6ED;" d="M85.1,69.1c-1-0.2-1.6-1.2-1.4-2.2l0,0c0.2-1,1.2-1.6,2.2-1.4l2,0.5c1,0.2,1.6,1.2,1.4,2.2l0,0
			c-0.2,1-1.2,1.6-2.2,1.4L85.1,69.1z"/>
		<path style="fill:#B7D6ED;" d="M83.6,57.2c-1,0.3-2-0.2-2.3-1.2l0,0c-0.3-1,0.2-2,1.2-2.3l6.7-2.1c1-0.3,2,0.2,2.3,1.2l0,0
			c0.3,1-0.2,2-1.2,2.3L83.6,57.2z"/>
		<path style="fill:#B7D6ED;" d="M79.7,45.5c-0.7,0.8-1.9,0.8-2.6,0.1l0,0c-0.8-0.7-0.8-1.9-0.1-2.6l1.4-1.5
			c0.7-0.8,1.9-0.8,2.6-0.1l0,0c0.8,0.7,0.8,1.9,0.1,2.6L79.7,45.5z"/>
	</g>
</g>
</svg>
