<?xml version="1.0" encoding="utf-8"?>
<!-- Generator: Adobe Illustrator 20.1.0, SVG Export Plug-In . SVG Version: 6.00 Build 0)  -->
<svg version="1.1" id="svg-pull-1" xmlns="http://www.w3.org/2000/svg" xmlns:xlink="http://www.w3.org/1999/xlink" x="0px" y="0px"
	 viewBox="0 0 124 124" style="enable-background:new 0 0 124 124;" xml:space="preserve">
<g id="inside-1">
	<defs>
		<path id="SVGID_1_1" d="M62,122L62,122C28.9,122,2,95.1,2,62v0C2,28.9,28.9,2,62,2h0c33.1,0,60,26.9,60,60v0
			C122,95.1,95.1,122,62,122z"/>
	</defs>
	<clipPath id="SVGID_2_1">
		<use xlink:href="#SVGID_1_1"  style="overflow:visible;"/>
	</clipPath>
	<g id="bg-0" style="clip-path:url(#SVGID_2_1);">
		<radialGradient id="SVGID_3_1" cx="62" cy="62" r="61.05" gradientUnits="userSpaceOnUse">
			<stop  offset="0" style="stop-color:#F0F8FF"/>
			<stop  offset="0.751" style="stop-color:#F0F8FF"/>
			<stop  offset="0.819" style="stop-color:#F0F8FF"/>
			<stop  offset="0.9066" style="stop-color:#EDF6FD"/>
			<stop  offset="0.9785" style="stop-color:#E3EEF6"/>
			<stop  offset="0.9952" style="stop-color:#DFEBF4"/>
		</radialGradient>
		<path style="fill:url(#SVGID_3_1);" d="M62,123L62,123C28.3,123,1,95.7,1,62v0C1,28.3,28.3,1,62,1h0c33.7,0,61,27.3,61,61v0
			C123,95.7,95.7,123,62,123z"/>
	</g>
	<g id="animate" style="clip-path:url(#SVGID_2_1);">
		<g>
			
				<ellipse transform="matrix(0.9993 -3.832221e-02 3.832221e-02 0.9993 -4.6424 2.4658)" style="opacity:0.1;fill:#FFBE1D;" cx="62" cy="122.3" rx="61.2" ry="61.2"/>
			
				<ellipse transform="matrix(0.9993 -3.832221e-02 3.832221e-02 0.9993 -4.6111 2.4652)" style="opacity:0.1;fill:#FFBE1D;" cx="62" cy="121.5" rx="43.2" ry="43.2"/>
			<g>
				
					<ellipse transform="matrix(0.2185 -0.9758 0.9758 0.2185 -70.9195 156.1033)" style="fill:#FFBE1D;" cx="62" cy="122.3" rx="22.6" ry="22.6"/>
				<path style="fill:#FFBE1D;" d="M70.4,95.6c-0.3,1.3-1.5,2.1-2.8,1.8l0,0c-1.3-0.3-2.1-1.5-1.8-2.8l1.9-8.7
					c0.3-1.3,1.5-2.1,2.8-1.8l0,0c1.3,0.3,2.1,1.5,1.8,2.8L70.4,95.6z"/>
				<path style="fill:#FFBE1D;" d="M55.1,92.4c0.4,1.2-0.3,2.6-1.5,3l0,0c-1.2,0.4-2.6-0.3-3-1.5l-0.8-2.5c-0.4-1.2,0.3-2.6,1.5-3
					l0,0c1.2-0.4,2.6,0.3,3,1.5L55.1,92.4z"/>
				<path style="fill:#FFBE1D;" d="M43,101.7c1,0.9,1,2.4,0.1,3.3l0,0c-0.9,1-2.4,1-3.3,0.1l-6.5-6c-1-0.9-1-2.4-0.1-3.3l0,0
					c0.9-1,2.4-1,3.3-0.1L43,101.7z"/>
				<path style="fill:#FFBE1D;" d="M32.7,113.3c1.3,0.3,2.1,1.5,1.8,2.8l0,0c-0.3,1.3-1.5,2.1-2.8,1.8l-2.6-0.6
					c-1.3-0.3-2.1-1.5-1.8-2.8l0,0c0.3-1.3,1.5-2.1,2.8-1.8L32.7,113.3z"/>
				<path style="fill:#FFBE1D;" d="M34.6,128.4c1.2-0.4,2.6,0.3,3,1.5l0,0c0.4,1.2-0.3,2.6-1.5,3l-8.5,2.7c-1.2,0.4-2.6-0.3-3-1.5
					l0,0c-0.4-1.2,0.3-2.6,1.5-3L34.6,128.4z"/>
				<path style="fill:#FFBE1D;" d="M39.5,143.2c0.9-1,2.4-1,3.3-0.1l0,0c1,0.9,1,2.4,0.1,3.3l-1.8,1.9c-0.9,1-2.4,1-3.3,0.1l0,0
					c-1-0.9-1-2.4-0.1-3.3L39.5,143.2z"/>
				<path style="fill:#FFBE1D;" d="M53.6,149.1c0.3-1.3,1.5-2.1,2.8-1.8l0,0c1.3,0.3,2.1,1.5,1.8,2.8l-1.9,8.7
					c-0.3,1.3-1.5,2.1-2.8,1.8l0,0c-1.3-0.3-2.1-1.5-1.8-2.8L53.6,149.1z"/>
				<path style="fill:#FFBE1D;" d="M68.9,152.2c-0.4-1.2,0.3-2.6,1.5-3l0,0c1.2-0.4,2.6,0.3,3,1.5l0.8,2.5c0.4,1.2-0.3,2.6-1.5,3
					l0,0c-1.2,0.4-2.6-0.3-3-1.5L68.9,152.2z"/>
				<path style="fill:#FFBE1D;" d="M81,143c-1-0.9-1-2.4-0.1-3.3l0,0c0.9-1,2.4-1,3.3-0.1l6.5,6c1,0.9,1,2.4,0.1,3.3l0,0
					c-0.9,1-2.4,1-3.3,0.1L81,143z"/>
				<path style="fill:#FFBE1D;" d="M91.3,131.3c-1.3-0.3-2.1-1.5-1.8-2.8l0,0c0.3-1.3,1.5-2.1,2.8-1.8l2.6,0.6
					c1.3,0.3,2.1,1.5,1.8,2.8l0,0c-0.3,1.3-1.5,2.1-2.8,1.8L91.3,131.3z"/>
				<path style="fill:#FFBE1D;" d="M89.4,116.2c-1.2,0.4-2.6-0.3-3-1.5l0,0c-0.4-1.2,0.3-2.6,1.5-3l8.5-2.7c1.2-0.4,2.6,0.3,3,1.5
					l0,0c0.4,1.2-0.3,2.6-1.5,3L89.4,116.2z"/>
				<path style="fill:#FFBE1D;" d="M84.5,101.4c-0.9,1-2.4,1-3.3,0.1l0,0c-1-0.9-1-2.4-0.1-3.3l1.8-1.9c0.9-1,2.4-1,3.3-0.1l0,0
					c1,0.9,1,2.4,0.1,3.3L84.5,101.4z"/>
			</g>
		</g>
	</g>
</g>
</svg>
