<?xml version="1.0" encoding="utf-8"?>
<!-- Generator: Adobe Illustrator 20.1.0, SVG Export Plug-In . SVG Version: 6.00 Build 0)  -->
<svg version="1.1" id="menu-ic-2" xmlns="http://www.w3.org/2000/svg" xmlns:xlink="http://www.w3.org/1999/xlink" x="0px" y="0px"
	 viewBox="0 0 24 24" style="enable-background:new 0 0 24 24;" xml:space="preserve">
<path style="fill:none;stroke:#FFC03B;stroke-miterlimit:10;" d="M9.2,10.4h-4C4.5,10.4,4,9.9,4,9.2v-4C4,4.5,4.5,4,5.2,4h4
	c0.7,0,1.2,0.5,1.2,1.2v4C10.4,9.9,9.9,10.4,9.2,10.4z M18.8,10.4h-4c-0.7,0-1.2-0.5-1.2-1.2v-4c0-0.7,0.5-1.2,1.2-1.2h4
	C19.5,4,20,4.5,20,5.2v4C20,9.9,19.5,10.4,18.8,10.4z M9.2,20h-4C4.5,20,4,19.5,4,18.8v-4c0-0.7,0.5-1.2,1.2-1.2h4
	c0.7,0,1.2,0.5,1.2,1.2v4C10.4,19.5,9.9,20,9.2,20z M18.8,20h-4c-0.7,0-1.2-0.5-1.2-1.2v-4c0-0.7,0.5-1.2,1.2-1.2h4
	c0.7,0,1.2,0.5,1.2,1.2v4C20,19.5,19.5,20,18.8,20z"/>
</svg>
