<?xml version="1.0" encoding="utf-8"?>
<!-- Generator: Adobe Illustrator 20.1.0, SVG Export Plug-In . SVG Version: 6.00 Build 0)  -->
<svg version="1.1" id="profile-ic" xmlns="http://www.w3.org/2000/svg" xmlns:xlink="http://www.w3.org/1999/xlink" x="0px" y="0px"
	 viewBox="0 0 12 12" style="enable-background:new 0 0 12 12;" xml:space="preserve">
<path id="profile-ic_1_" style="fill:#FFFFFF;" d="M9.4,9.2L7.6,8.2C7.3,8.1,7.2,7.9,7.2,7.6V6.9c0.1-0.1,0.1-0.1,0.2-0.2
	c0.3-0.4,0.4-0.8,0.6-1.2c0.2-0.1,0.4-0.3,0.4-0.6V4.2c0-0.2-0.1-0.3-0.2-0.4V2.6c0,0,0.2-1.7-2.1-1.7S3.9,2.6,3.9,2.6v1.1
	C3.7,3.8,3.7,4,3.7,4.2v0.8c0,0.2,0.1,0.4,0.3,0.5c0.2,0.8,0.7,1.5,0.7,1.5v0.7c0,0.3-0.1,0.5-0.4,0.6L2.5,9.2
	C2,9.4,1.7,9.9,1.7,10.5v0.6h8.5v-0.6C10.3,10,9.9,9.4,9.4,9.2L9.4,9.2z M9.4,9.2"/>
</svg>
