<svg xmlns="http://www.w3.org/2000/svg" xmlns:xlink="http://www.w3.org/1999/xlink" viewBox="0 0 66 66"><defs><path id="a" d="M0 0h66v66H0z"/></defs><clipPath id="b"><use xlink:href="#a" overflow="visible"/></clipPath><g clip-path="url(#b)" fill="#e06868"><path d="M39 55c0 .6-.4 1-1 1s-1-.4-1-1 .4-1 1-1 1 .4 1 1zm4 0c0 .6-.5 1-1 1s-1-.4-1-1 .4-1 1-1 1 .4 1 1zm4 0c0 .6-.4 1-1 1s-1-.4-1-1 .5-1 1-1 1 .4 1 1zM37 36c0 .6-.4 1-1 1s-1-.4-1-1 .4-1 1-1c.5 0 1 .4 1 1zm2-11c0 .6-.4 1-1 1s-1-.4-1-1 .4-1 1-1 1 .4 1 1zm4 0c0 .6-.5 1-1 1s-1-.4-1-1 .4-1 1-1 1 .4 1 1zm-2-2c0 .6-.4 1-1 1s-1-.5-1-1 .4-1 1-1 1 .4 1 1zm2-2c0 .6-.5 1-1 1s-1-.4-1-1 .4-1 1-1 1 .4 1 1zm-4 8c0 .6-.4 1-1 1s-1-.5-1-1c0-.6.4-1 1-1s1 .4 1 1zm-2-2c0 .6-.4 1-1 1s-1-.4-1-1 .4-1 1-1c.5 0 1 .4 1 1zm4 0c0 .6-.4 1-1 1s-1-.4-1-1 .4-1 1-1 1 .4 1 1zm-4 12c0 .6-.4 1-1 1s-1-.5-1-1c0-.6.4-1 1-1 .5 0 1 .4 1 1zm0 3c0 .6-.4 1-1 1s-1-.4-1-1 .4-1 1-1c.5 0 1 .4 1 1zm0 3c0 .6-.4 1-1 1s-1-.4-1-1 .4-1 1-1c.5 0 1 .4 1 1zm0 3c0 .6-.4 1-1 1s-1-.5-1-1c0-.6.4-1 1-1 .5 0 1 .4 1 1zm0 3c0 .6-.4 1-1 1s-1-.4-1-1 .4-1 1-1c.5 0 1 .4 1 1zm4 2c0 .6-.4 1-1 1s-1-.5-1-1c0-.6.4-1 1-1s1 .4 1 1zm4 0c0 .6-.4 1-1 1s-1-.5-1-1c0-.6.4-1 1-1s1 .4 1 1zM27 14h-5c-.6 0-1 .4-1 1s.5 1 1 1h5c.6 0 1-.4 1-1s-.5-1-1-1zm0 7H17c-.6 0-1 .5-1 1 0 .6.4 1 1 1h10c.6 0 1-.4 1-1s-.5-1-1-1zm0 7H12c-.6 0-1 .4-1 1s.4 1 1 1h15c.6 0 1-.5 1-1 0-.6-.5-1-1-1zm0 7H8c-.6 0-1 .4-1 1s.4 1 1 1h19c.6 0 1-.4 1-1s-.5-1-1-1zm0 7H14c-.6 0-1 .5-1 1s.4 1 1 1h13c.6 0 1-.4 1-1s-.5-1-1-1zm0 7h-7c-.6 0-1 .4-1 1s.4 1 1 1h7c.6 0 1-.4 1-1s-.5-1-1-1zm0 0"/><path d="M56 57h-5v-6c0-7.6-4.1-14.4-10.7-18C46.9 29.4 51 22.6 51 15V9h5c1.7 0 3-1.3 3-3 0-1.6-1.3-3-3-3H33c-.6 0-1 .4-1 1s.4 1 1 1h23c.6 0 1 .4 1 1s-.4 1-1 1H33c-.6 0-1 .4-1 1s.4 1 1 1h16v6c0 7.5-4.5 14.2-11.4 17.1-.1 0-.2.1-.3.2-.1.1-.1.2-.2.2l-.1.1c0 .1-.1.3-.1.4 0 .1 0 .3.1.4 0 .1.1.2.2.3l.1.1.2.2c7 2.8 11.5 9.5 11.5 17v6c0-.6-.5-1-1-1-.6 0-1 .5-1 1h-2c0-.6-.4-1-1-1s-1 .5-1 1h-2c0-.6-.4-1-1-1s-1 .5-1 1h-2c0-.6-.4-1-1-1s-1 .5-1 1h-2c-.6 0-1 .5-1 1 0 .6.4 1 1 1h23c.6 0 1 .4 1 1s-.4 1-1 1H33c-.6 0-1 .4-1 1s.4 1 1 1h23c1.7 0 3-1.3 3-3s-1.3-3-3-3zm0 0"/></g></svg>