<svg xmlns="http://www.w3.org/2000/svg" xmlns:xlink="http://www.w3.org/1999/xlink" viewBox="0 0 66 66"><defs><path id="a" d="M0 0h66v66H0z"/></defs><clipPath id="b"><use xlink:href="#a" overflow="visible"/></clipPath><g clip-path="url(#b)" fill="#e06868"><path d="M40.4 13.9c-.6 0-1.1.5-1.1 1.1 0 .6.5 1.1 1.1 1.1.6 0 1.1-.5 1.1-1.1 0-.6-.5-1.1-1.1-1.1zm-5.2 13.8c0-.6-.5-1.1-1.1-1.1-.6 0-1.1.5-1.1 1.1 0 .6.5 1.1 1.1 1.1.6 0 1.1-.5 1.1-1.1zm6.3 20.1c4.7 0 8.5-4.3 8.5-9.5 0-5.3-3.8-9.5-8.5-9.5S33 33.1 33 38.3c0 5.3 3.8 9.5 8.5 9.5zm0-16.9c3.5 0 6.4 3.3 6.4 7.4 0 4.1-2.9 7.4-6.4 7.4-3.5 0-6.4-3.3-6.4-7.4 0-4.1 2.9-7.4 6.4-7.4zm-4.2 22.2c0-.6-.5-1.1-1.1-1.1-.6 0-1.1.5-1.1 1.1 0 .6.5 1.1 1.1 1.1.6 0 1.1-.5 1.1-1.1zm0 0"/><path d="M40.4 43.6c1.8 0 3.2-1.4 3.2-3.2 0-1.8-1.4-3.2-3.2-3.2-1.8 0-3.2 1.4-3.2 3.2 0 1.8 1.5 3.2 3.2 3.2zm0-4.2c.6 0 1.1.5 1.1 1.1 0 .6-.5 1.1-1.1 1.1-.6 0-1.1-.5-1.1-1.1.1-.7.5-1.1 1.1-1.1zm2.7-17c.9 0 1.6-.7 1.6-1.6 0-.9-.7-1.6-1.6-1.6-.9 0-1.6.7-1.6 1.6 0 .9.7 1.6 1.6 1.6zm-22.8-3.2c0-.6-.5-1.1-1.1-1.1-.6 0-1.1.5-1.1 1.1 0 .6.5 1.1 1.1 1.1.6 0 1.1-.5 1.1-1.1zm-3.2 22.3c-.6 0-1.1.5-1.1 1.1 0 .6.5 1.1 1.1 1.1.6 0 1.1-.5 1.1-1.1 0-.6-.5-1.1-1.1-1.1zm8.5-4.3c-.6 0-1.1.5-1.1 1.1 0 .6.5 1.1 1.1 1.1.6 0 1.1-.5 1.1-1.1 0-.6-.5-1.1-1.1-1.1zm-.5 14.9c.9 0 1.6-.7 1.6-1.6 0-.9-.7-1.6-1.6-1.6-.9 0-1.6.7-1.6 1.6 0 .9.7 1.6 1.6 1.6zm3.7-29.7c1.2 0 2.1-1 2.1-2.1 0-1.2-1-2.1-2.1-2.1-1.2 0-2.1 1-2.1 2.1-.1 1.2.9 2.1 2.1 2.1zm-7.4 8.5c.6 0 1.1-.5 1.1-1.1 0-.6-.5-1.1-1.1-1.1-.6 0-1.1.5-1.1 1.1 0 .6.5 1.1 1.1 1.1zm0 0"/><path d="M21.3 35.1c2.8 0 4.2-2.7 4.2-5.3 0-2.6-1.5-5.3-4.2-5.3-2.8 0-4.2 2.7-4.2 5.3 0 2.7 1.5 5.3 4.2 5.3zm0-8.5c1.7 0 2.1 2.1 2.1 3.2S23 33 21.3 33c-1.7 0-2.1-2.1-2.1-3.2s.5-3.2 2.1-3.2zm32.9 5.3c0-.6-.5-1.1-1.1-1.1-.6 0-1.1.5-1.1 1.1 0 .6.5 1.1 1.1 1.1.6 0 1.1-.5 1.1-1.1zm0 0"/><path d="M60.5 35.1c2.5 0 3.8-1.2 3.9-1.4.4-.4.4-1.1 0-1.5-.4-.4-1.1-.4-1.5 0 0 0-.8.7-2.4.7-1.1 0-1.8-.3-2.1-.5 0-2.2-.4-4.4-1-6.5.6 0 1.4-.1 2.2-.4 2.3-.8 3.1-2.5 3.2-2.6.2-.5 0-1.1-.5-1.4-.5-.3-1.1 0-1.4.5 0 0-.5 1-2 1.5-1 .4-1.8.3-2.2.2-.8-2.1-1.9-4-3.1-5.8.6-.2 1.2-.6 1.9-1.1 1.9-1.6 2.1-3.4 2.1-3.6 0-.6-.4-1.1-.9-1.1-.6-.1-1.1.4-1.2.9 0 0-.1 1.1-1.4 2.2-.8.7-1.6.9-2 1-1.4-1.6-3.1-3.1-4.9-4.3.5-.4 1-1 1.4-1.7 1.2-2.2.8-3.9.8-4.1-.1-.6-.7-.9-1.3-.7-.6.1-.9.7-.8 1.3 0 0 .2 1.1-.6 2.5-.5.9-1.2 1.4-1.5 1.6-1.9-1-3.9-1.9-6.1-2.4.3-.5.6-1.2.7-2.1.4-2.4-.6-3.9-.7-4.1-.3-.5-1-.6-1.5-.3s-.6 1-.3 1.5c0 0 .6 1 .3 2.5-.2 1-.6 1.7-.9 2-1.3-.2-2.6-.3-3.9-.3-.9 0-1.8 0-2.7.1.1-.6.1-1.3 0-2.2-.4-2.4-1.9-3.5-2-3.6-.5-.3-1.1-.2-1.5.3-.3.5-.2 1.1.2 1.5 0 0 .9.7 1.2 2.3.2 1 0 1.8-.2 2.2-2.2.4-4.3 1.1-6.2 2.1-.1-.6-.3-1.3-.8-2.1-1.2-2.2-3-2.7-3.2-2.7-.6-.1-1.1.2-1.3.7-.2.6.2 1.1.7 1.3 0 0 1.1.3 1.9 1.7.5.9.6 1.7.6 2.1-1.9 1.1-3.6 2.5-5.1 4.1-.3-.5-.8-1.1-1.4-1.7-1.9-1.6-3.7-1.5-3.9-1.5-.6.1-1 .6-1 1.1 0 .6.5 1 1.1 1 0 0 1.1 0 2.4 1 .8.7 1.2 1.4 1.3 1.8-1.4 1.7-2.5 3.6-3.4 5.6-.5-.4-1.1-.8-1.9-1.1-2.3-.9-4-.1-4.2-.1-.5.2-.7.9-.5 1.4.2.5.9.8 1.4.5 0 0 1-.4 2.6.1 1 .4 1.6.9 1.8 1.2-.7 2-1.1 4.2-1.3 6.4-.6-.2-1.3-.4-2.2-.4-2.5 0-3.8 1.2-3.9 1.4-.4.4-.4 1.1 0 1.5.4.4 1.1.4 1.5 0 0 0 .8-.8 2.4-.8 1.1 0 1.8.3 2.1.5 0 2.2.4 4.4 1 6.5-.6 0-1.3.1-2.2.4-2.3.8-3.1 2.4-3.2 2.6-.2.5 0 1.1.5 1.4.1.1.3.1.5.1.4 0 .8-.2 1-.6 0 0 .5-1 2-1.5 1-.4 1.8-.3 2.2-.2.8 2.1 1.9 4 3.1 5.8-.6.2-1.2.6-1.9 1.1-1.9 1.6-2.1 3.4-2.1 3.6 0 .6.4 1.1.9 1.1h.1c.5 0 1-.4 1.1-.9 0 0 .1-1.1 1.4-2.2.8-.7 1.6-.9 2-1 1.4 1.6 3.1 3.1 4.9 4.3-.5.4-1 1-1.4 1.7-1.2 2.2-.8 3.9-.8 4.1.1.5.6.8 1 .8h.3c.6-.2.9-.7.7-1.3 0 0-.2-1.1.6-2.5.5-.9 1.2-1.4 1.5-1.6 1.9 1 3.9 1.9 6.1 2.4-.3.5-.6 1.2-.7 2.1-.4 2.4.6 3.9.7 4.1.2.3.5.4.9.4.2 0 .4-.1.6-.2.5-.3.6-1 .3-1.5 0 0-.6-1-.3-2.5.2-1 .6-1.7.9-2 1.3.2 2.6.3 3.9.3.6 0 1.1-.5 1.1-1.1 0-.6-.5-1.1-1.1-1.1-10.1 0-18.6-6.4-21.9-15.3-.9-2.5-1.4-5.2-1.4-8s.5-5.5 1.4-8c3.4-8.5 11.9-14.9 22-14.9 10 0 18.6 6.4 21.9 15.3.9 2.5 1.4 5.2 1.4 8 0 11.3-8.1 20.9-19.3 22.9-.3.1-.5.2-.7.4-.1.2-1.1 1.7-.7 4.1.4 2.4 1.9 3.5 2 3.6.2.1.4.2.6.2.3 0 .7-.2.9-.4.3-.5.2-1.1-.2-1.5 0 0-.9-.7-1.2-2.3-.2-1 0-1.8.2-2.2 2.2-.4 4.3-1.2 6.2-2.1.1.6.3 1.3.8 2.1 1.2 2.2 3 2.7 3.1 2.7h.3c.5 0 .9-.3 1-.8.2-.6-.2-1.1-.7-1.3 0 0-1.1-.3-1.9-1.7-.5-.9-.6-1.7-.6-2.1 1.9-1.1 3.6-2.5 5.1-4.1.3.5.8 1.1 1.4 1.7 1.6 1.3 3.1 1.5 3.7 1.5h.2c.6-.1 1-.6 1-1.1-.1-.6-.6-1-1.1-1 0 0-1.1 0-2.3-1-.8-.7-1.2-1.4-1.3-1.8 1.4-1.7 2.5-3.6 3.4-5.6.5.4 1.1.8 1.9 1.1.9.3 1.6.4 2.3.4 1.1 0 1.8-.3 1.9-.4.5-.2.8-.9.5-1.4-.2-.5-.9-.8-1.4-.5 0 0-1 .4-2.5-.1-1-.4-1.6-.9-1.8-1.2.7-2 1.1-4.2 1.3-6.4.5.3 1.3.4 2.1.4zm0 0"/></g></svg>