<svg xmlns="http://www.w3.org/2000/svg" xmlns:xlink="http://www.w3.org/1999/xlink" viewBox="0 0 66 66"><defs><path id="a" d="M0 0h66v66H0z"/></defs><clipPath id="b"><use xlink:href="#a" overflow="visible"/></clipPath><g clip-path="url(#b)" fill="#e06868"><path d="M10.8 43.7c.1 0 .1.1.2.1h.4c.3 0 .6-.2.7-.4.2-.2.3-.5.2-.8v-.2c0-.1-.1-.1-.1-.2s-.1-.1-.1-.2-.1-.1-.2-.2c-.3-.2-.7-.3-1-.2-.1 0-.1.1-.2.1s-.1.1-.2.1-.1.1-.2.2c0 .1-.1.1-.1.2s-.1.1-.1.2v.4c0 .3.2.6.4.7.2.2.2.2.3.2zm10.3 9c-.1 0-.1.1-.2.1s-.1.1-.2.1-.1.1-.2.2c-.2.2-.3.5-.2.8v.2c0 .1.1.1.1.2s.1.1.1.2.1.1.2.2c.2.2.5.3.8.2h.2c.1 0 .1-.1.2-.1s.1-.1.2-.1.1-.1.2-.2c0-.1.1-.1.1-.2s.1-.1.1-.2v-.4c0-.3-.2-.6-.4-.7-.3-.3-.6-.4-1-.3zm12.6 5.4c-.1 0-.1-.1-.2-.1h-.6c-.1 0-.1 0-.2.1-.1 0-.1.1-.2.1s-.1.1-.2.2c-.2.2-.3.5-.2.8v.2c0 .1.1.1.1.2s.1.1.1.2.1.1.2.2c.1 0 .1.1.2.1s.1.1.2.1h.4c.3 0 .6-.2.7-.4 0-.1.1-.1.1-.2s.1-.1.1-.2V59c0-.3-.2-.6-.4-.7 0-.1-.1-.2-.1-.2zM11.6 18.3c-.1 0-.1 0-.2.1-.1 0-.1.1-.2.1s-.1.1-.2.2c-.2.2-.3.5-.2.8v.2c0 .1.1.1.1.2s.1.1.1.2.1.1.2.1c.2.2.5.3.8.2.3 0 .6-.2.7-.4 0-.1.1-.1.1-.2s.1-.1.1-.2v-.4c0-.3-.2-.6-.4-.7-.2-.2-.6-.3-.9-.2zm10.7-9.2c.1 0 .1.1.2.1h.6c.1 0 .1-.1.2-.1s.1-.1.2-.1.1-.1.2-.2c.2-.2.3-.5.2-.8 0-.3-.2-.6-.4-.7-.3-.2-.7-.3-1-.2-.1 0-.1 0-.2.1-.1 0-.1.1-.2.1s-.1.1-.2.2c-.2.2-.3.5-.2.8 0 .3.2.6.4.7.1 0 .2.1.2.1zm16.5 18.2c.1 0 .1-.1.2-.1s.1-.1.2-.2c0-.1.1-.1.1-.2s.1-.1.1-.2V26c0-.1 0-.1-.1-.2 0-.1-.1-.1-.1-.2s-.1-.1-.2-.2c-.1 0-.1-.1-.2-.1s-.1-.1-.2-.1H38c-.1 0-.1 0-.2.1-.1 0-.1.1-.2.1s-.1.1-.2.2c0 .1-.1.1-.1.2s-.1.1-.1.2v.6c0 .1.1.1.1.2s.1.1.1.2.1.1.2.1c.2.2.5.3.8.2h.2c.1.1.1 0 .2 0zm-9.6-2.2c-1.3.2-2.4.9-3.1 1.9-.9-.8-2.1-1.3-3.4-1.1-2.4.3-4.1 2.5-3.9 4.9L20.3 44c.3 2.4 2.5 4.1 4.9 3.9 1.3-.2 2.4-.9 3.1-1.9.9.8 2.2 1.3 3.5 1.1 2.4-.3 4.2-2.5 3.9-4.9L34.2 29c-.3-2.4-2.5-4.1-5-3.9zM25 45.6c-1.2.1-2.3-.7-2.4-1.9L21 30.5c-.1-1.2.7-2.3 1.9-2.4 1.2-.1 2.3.7 2.4 1.9l1.5 13.2c.2 1.2-.6 2.3-1.8 2.4zm8.5-3.2c.1 1.2-.7 2.3-1.9 2.4-1.2.1-2.3-.7-2.4-1.9l-1.5-13.2c-.1-1.2.7-2.3 1.9-2.4 1.2-.1 2.3.7 2.4 1.9l1.5 13.2zm28.9 1.1c-.3-2.4-2.5-4.2-4.9-3.9l-13.2 1.5c-2.4.3-4.1 2.5-3.9 4.9.2 1.3.9 2.4 1.9 3.1-.8.9-1.3 2.1-1.1 3.4.3 2.4 2.5 4.1 4.9 3.9l13.2-1.5c2.4-.3 4.1-2.4 3.9-4.9-.2-1.3-.9-2.4-1.9-3.1.8-.9 1.3-2.1 1.1-3.4zM61 50.3c.1 1.2-.7 2.3-1.9 2.4l-13.2 1.5c-1.2.1-2.3-.7-2.4-1.9s.7-2.3 1.9-2.4l13.2-1.5c1.2-.2 2.3.7 2.4 1.9zm-15.9-2.6c-1.2.1-2.3-.7-2.4-1.9s.7-2.3 1.9-2.4l13.2-1.5c1.2-.1 2.3.7 2.4 1.9.1 1.2-.7 2.3-1.9 2.4l-13.2 1.5zm-34 2.8c-2.4.3-4.2 2.5-3.9 4.9.3 2.4 2.5 4.2 4.9 3.9 2.4-.3 4.2-2.5 3.9-4.9-.3-2.4-2.5-4.1-4.9-3.9zm.7 6.6c-1.2.1-2.3-.7-2.4-1.9-.1-1.2.7-2.3 1.9-2.4 1.2-.1 2.3.7 2.4 1.9.2 1.2-.7 2.3-1.9 2.4zm42.6-44.8c2.4-.3 4.2-2.5 3.9-4.9-.3-2.4-2.5-4.2-4.9-3.9-2.4.3-4.2 2.5-3.9 4.9.3 2.4 2.5 4.1 4.9 3.9zm-.8-6.6c1.2-.1 2.3.7 2.4 1.9.1 1.2-.7 2.3-1.9 2.4-1.2.1-2.3-.7-2.4-1.9-.2-1.2.7-2.3 1.9-2.4zm-11.1 19c.5 4.6 2.2 7.8 5 9.6 2.4 1.5 5 1.6 6.8 1.4 1.1-.1 1.8-.4 1.9-.4.6-.2.9-.8.7-1.4-.2-.6-.8-.9-1.4-.7 0 0-3.8 1.2-6.8-.8-2.2-1.4-3.5-4.1-4-8-.6-4.8-2.3-8.3-5.1-10.3-3.5-2.5-7.4-1.6-7.5-1.6-.6.1-1 .7-.8 1.3.1.6.7 1 1.3.8 0 0 3.1-.7 5.8 1.2 2.2 1.8 3.6 4.7 4.1 8.9z"/></g></svg>