<?xml version="1.0" encoding="utf-8"?>
<!-- Generator: Adobe Illustrator 20.1.0, SVG Export Plug-In . SVG Version: 6.00 Build 0)  -->
<svg version="1.1" id="Layer_1" xmlns="http://www.w3.org/2000/svg" xmlns:xlink="http://www.w3.org/1999/xlink" x="0px" y="0px"
	 viewBox="0 0 62 62" style="enable-background:new 0 0 62 62;" xml:space="preserve">
<g id="_x32_">
	<path style="fill:#FDC000;" d="M21.7,50.7l-0.5-0.2c-1.9-1-3.6-2.2-5.2-3.7l-0.4-0.3l0.1-0.5c0.3-2.4,0.5-4.8,0.8-7.1
		c0.1-1,0.2-2,0.4-2.9c-2.1-2.3-4.4-4.7-7-7.4l-0.4-0.4l0.1-0.5c0.3-2,1-4,1.9-5.9l0.2-0.5l0.5-0.1c4.1-0.7,7.3-1.4,10.2-2l5.1-9.4
		l0.5-0.1c2.1-0.3,4.3-0.3,6.5,0l0.5,0.1l0.2,0.4c0.7,1.2,1.3,2.4,1.9,3.7c0.9,1.8,1.9,3.6,2.9,5.3c1.7,0.4,3.5,0.7,5.1,1
		c1.4,0.2,2.8,0.5,4.2,0.8h0.6l0.3,0.6c1,2,1.6,4.2,2,6.5l0.1,0.5l-6.8,7.4c0.1,1.4,0.3,2.7,0.5,4c0.2,1.8,0.5,3.7,0.6,5.5l0,0.4
		l-0.3,0.3c-1.6,1.7-3.5,3.1-5.5,4.1l-0.4,0.2l-0.4-0.2c-2.5-1.2-4.9-2.3-7.4-3.5l-1.6-0.7c-1.2,0.6-2.3,1.1-3.5,1.7
		c-1.8,0.8-3.6,1.7-5.5,2.6L21.7,50.7z M17.8,45.7c1.2,1.1,2.5,2,3.9,2.8c1.7-0.8,3.4-1.6,5-2.4c1.3-0.6,2.6-1.2,3.9-1.9l0.4-0.2
		l2.4,1.1c2.3,1.1,4.7,2.2,7,3.3c1.6-0.8,3-1.9,4.2-3.2c-0.1-1.7-0.3-3.3-0.6-5c-0.2-1.5-0.4-3-0.5-4.6l0-0.4l6.7-7.3
		c-0.3-1.7-0.8-3.4-1.5-4.9c-1.3-0.3-2.6-0.5-3.9-0.7c-1.9-0.3-3.8-0.7-5.7-1.1l-0.4-0.1l-0.2-0.4c-1.1-1.9-2.1-3.9-3.2-5.8
		c-0.6-1.1-1.1-2.1-1.7-3.2c-1.6-0.2-3.3-0.2-4.9,0l-5,9.3l-0.4,0.1c-3,0.7-6.2,1.3-10.2,2c-0.6,1.4-1.1,2.9-1.4,4.4
		c2.6,2.7,4.9,5.1,7,7.4l0.3,0.3L19,35.7c-0.1,1.1-0.3,2.3-0.4,3.4C18.3,41.3,18,43.5,17.8,45.7z"/>
	<path style="fill:#FDC000;" d="M31,59.1C15.5,59.1,2.9,46.5,2.9,31S15.5,2.9,31,2.9S59.1,15.5,59.1,31S46.5,59.1,31,59.1z M31,4.9
		C16.6,4.9,4.9,16.6,4.9,31S16.6,57.1,31,57.1S57.1,45.4,57.1,31S45.4,4.9,31,4.9z"/>
</g>
</svg>
