<svg xmlns="http://www.w3.org/2000/svg" viewBox="0 0 62 62"><g fill="#d71015"><path d="M31 59.2C15.5 59.2 2.8 46.5 2.8 31S15.5 2.8 31 2.8 59.2 15.5 59.2 31 46.5 59.2 31 59.2zm0-54.7C16.4 4.5 4.5 16.4 4.5 31S16.4 57.5 31 57.5 57.5 45.6 57.5 31 45.6 4.5 31 4.5zm0 0"/><path d="M31 59.2c-5.9 0-11.5-1.8-16.3-5.2-.3-.2-.4-.5-.4-.8 0-.3.3-.6.5-.7 7.1-2.6 8.2-4.7 8.2-8.8 0-1.1-.2-1.4-.7-2.1-.6-.8-1.4-2-1.9-5-.1-.4-.2-.5-.5-.7-1-.5-2-1.2-2.2-4.5 0-1.6.5-2.5 1-2.9-.1-.6-.3-1.5-.4-2.6-.8-4.7-.8-10.6 5.9-13.3 5.8-2.4 10.5-1.1 11.9.5 1 0 3.7.3 5.5 2.5 2.9 3.3 1.9 10.9 1.6 12.9.5.5 1 1.3 1 2.9C44 34.7 43 35.5 42 36c-.4.2-.5.2-.5.7-.6 3-1.3 4.2-1.9 5-.4.6-.7 1-.7 2.1 0 4.1 1.1 6.2 8.2 8.8.3.1.5.4.6.7 0 .3-.1.6-.4.8-4.8 3.3-10.4 5.1-16.3 5.1zm-14-5.7c4.2 2.6 9 4 14 4s9.8-1.4 14-4c-5.9-2.4-7.8-4.9-7.8-9.8 0-1.6.5-2.3 1-3 .5-.8 1.2-1.7 1.7-4.4.2-1.3 1-1.6 1.5-1.9.5-.3 1.1-.5 1.3-3.1 0-1.3-.6-1.7-.6-1.7-.3-.2-.5-.6-.5-.9.4-2.3 1.1-9.4-1.2-12-1.6-1.8-4-1.9-4.5-1.8h-.2c-.2-.1-.6-.2-.7-.5-.5-.8-4.5-2.4-10.1-.1-5.5 2.2-5.5 7-4.8 11.4.2 1.6.5 3.1.5 3.1.1.4-.1.8-.5.9 0 0-.6.4-.6 1.7.2 2.5.7 2.8 1.3 3 .5.2 1.2.6 1.5 1.9.5 2.7 1.1 3.6 1.7 4.4.5.7 1 1.4 1 3-.2 4.9-2 7.3-8 9.8zm0 0"/></g></svg>