<?xml version="1.0" encoding="utf-8"?>
<!-- Generator: Adobe Illustrator 20.1.0, SVG Export Plug-In . SVG Version: 6.00 Build 0)  -->
<svg version="1.1" id="Layer_1" xmlns="http://www.w3.org/2000/svg" xmlns:xlink="http://www.w3.org/1999/xlink" x="0px" y="0px"
	 viewBox="0 0 62 62" style="enable-background:new 0 0 62 62;" xml:space="preserve">
<g id="_x31_">
	<path style="fill:#D71015;" d="M31,59.2C15.5,59.2,2.8,46.5,2.8,31C2.8,15.5,15.5,2.8,31,2.8c15.5,0,28.2,12.7,28.2,28.2
		C59.2,46.5,46.5,59.2,31,59.2L31,59.2z M31,4.5C16.4,4.5,4.5,16.4,4.5,31c0,14.6,11.9,26.5,26.5,26.5c14.6,0,26.5-11.9,26.5-26.5
		C57.5,16.4,45.6,4.5,31,4.5L31,4.5z M31,4.5"/>
	<path style="fill:#D71015;" d="M31,59.2c-5.9,0-11.5-1.8-16.3-5.2c-0.3-0.2-0.4-0.5-0.4-0.8c0-0.3,0.3-0.6,0.5-0.7
		c7.1-2.6,8.2-4.7,8.2-8.8c0-1.1-0.2-1.4-0.7-2.1c-0.6-0.8-1.4-2-1.9-5c-0.1-0.4-0.2-0.5-0.5-0.7c-1-0.5-2-1.2-2.2-4.5
		c0-1.6,0.5-2.5,1-2.9c-0.1-0.6-0.3-1.5-0.4-2.6c-0.8-4.7-0.8-10.6,5.9-13.3c5.8-2.4,10.5-1.1,11.9,0.5c1,0,3.7,0.3,5.5,2.5
		c2.9,3.3,1.9,10.9,1.6,12.9c0.5,0.5,1,1.3,1,2.9c-0.2,3.3-1.2,4.1-2.2,4.6c-0.4,0.2-0.5,0.2-0.5,0.7c-0.6,3-1.3,4.2-1.9,5
		c-0.4,0.6-0.7,1-0.7,2.1c0,4.1,1.1,6.2,8.2,8.8c0.3,0.1,0.5,0.4,0.6,0.7c0,0.3-0.1,0.6-0.4,0.8C42.5,57.4,36.9,59.2,31,59.2
		L31,59.2z M17,53.5c4.2,2.6,9,4,14,4c5,0,9.8-1.4,14-4c-5.9-2.4-7.8-4.9-7.8-9.8c0-1.6,0.5-2.3,1-3c0.5-0.8,1.2-1.7,1.7-4.4
		c0.2-1.3,1-1.6,1.5-1.9c0.5-0.3,1.1-0.5,1.3-3.1c0-1.3-0.6-1.7-0.6-1.7c-0.3-0.2-0.5-0.6-0.5-0.9c0.4-2.3,1.1-9.4-1.2-12
		c-1.6-1.8-4-1.9-4.5-1.8c-0.1,0-0.2,0-0.2,0c-0.2-0.1-0.6-0.2-0.7-0.5c-0.5-0.8-4.5-2.4-10.1-0.1c-5.5,2.2-5.5,7-4.8,11.4
		c0.2,1.6,0.5,3.1,0.5,3.1c0.1,0.4-0.1,0.8-0.5,0.9c0,0-0.6,0.4-0.6,1.7c0.2,2.5,0.7,2.8,1.3,3c0.5,0.2,1.2,0.6,1.5,1.9
		c0.5,2.7,1.1,3.6,1.7,4.4c0.5,0.7,1,1.4,1,3C24.8,48.6,23,51,17,53.5L17,53.5z M17,53.5"/>
</g>
</svg>
