<svg xmlns="http://www.w3.org/2000/svg" viewBox="0 0 62 62"><g fill="#fdc000"><path d="M21.7 50.7l-.5-.2c-1.9-1-3.6-2.2-5.2-3.7l-.4-.3.1-.5c.3-2.4.5-4.8.8-7.1.1-1 .2-2 .4-2.9-2.1-2.3-4.4-4.7-7-7.4l-.4-.4.1-.5c.3-2 1-4 1.9-5.9l.2-.5.5-.1c4.1-.7 7.3-1.4 10.2-2l5.1-9.4.5-.1c2.1-.3 4.3-.3 6.5 0l.5.1.2.4c.7 1.2 1.3 2.4 1.9 3.7.9 1.8 1.9 3.6 2.9 5.3 1.7.4 3.5.7 5.1 1 1.4.2 2.8.5 4.2.8h.6l.3.6c1 2 1.6 4.2 2 6.5l.1.5-6.8 7.4c.1 1.4.3 2.7.5 4 .2 1.8.5 3.7.6 5.5v.4l-.3.3c-1.6 1.7-3.5 3.1-5.5 4.1l-.4.2-.4-.2c-2.5-1.2-4.9-2.3-7.4-3.5l-1.6-.7c-1.2.6-2.3 1.1-3.5 1.7-1.8.8-3.6 1.7-5.5 2.6l-.3.3zm-3.9-5c1.2 1.1 2.5 2 3.9 2.8 1.7-.8 3.4-1.6 5-2.4 1.3-.6 2.6-1.2 3.9-1.9l.4-.2 2.4 1.1c2.3 1.1 4.7 2.2 7 3.3 1.6-.8 3-1.9 4.2-3.2-.1-1.7-.3-3.3-.6-5-.2-1.5-.4-3-.5-4.6v-.4l6.7-7.3c-.3-1.7-.8-3.4-1.5-4.9-1.3-.3-2.6-.5-3.9-.7-1.9-.3-3.8-.7-5.7-1.1l-.4-.1-.2-.4c-1.1-1.9-2.1-3.9-3.2-5.8-.6-1.1-1.1-2.1-1.7-3.2-1.6-.2-3.3-.2-4.9 0l-5 9.3-.4.1c-3 .7-6.2 1.3-10.2 2-.6 1.4-1.1 2.9-1.4 4.4 2.6 2.7 4.9 5.1 7 7.4l.3.3v.5c-.1 1.1-.3 2.3-.4 3.4-.3 2.2-.6 4.4-.8 6.6z"/><path d="M31 59.1C15.5 59.1 2.9 46.5 2.9 31S15.5 2.9 31 2.9 59.1 15.5 59.1 31 46.5 59.1 31 59.1zm0-54.2C16.6 4.9 4.9 16.6 4.9 31S16.6 57.1 31 57.1 57.1 45.4 57.1 31 45.4 4.9 31 4.9z"/></g></svg>