<?xml version="1.0" encoding="utf-8"?>
<!-- Generator: Adobe Illustrator 20.1.0, SVG Export Plug-In . SVG Version: 6.00 Build 0)  -->
<svg version="1.1" id="svg-inside" xmlns="http://www.w3.org/2000/svg" xmlns:xlink="http://www.w3.org/1999/xlink" x="0px" y="0px"
	 viewBox="0 0 262.1 151.3" style="enable-background:new 0 0 262.1 151.3;" xml:space="preserve">
<style type="text/css">
	.st0{fill:#F7CD12;}
	.st1{fill:none;stroke:#F7CD12;stroke-width:3;stroke-linecap:round;stroke-linejoin:round;stroke-miterlimit:10;}
</style>
<g id="text">
	<g>
		<g>
			<path class="st0" d="M206.5,43.4c-1,3.5-2.8,13.3,3.2,13.9c5.7,0.6,6.2-11.2,5.9-14.6c-0.1-1.1-2-1.7-2.2-0.3
				c-0.8,5.6,0.2,11,0.6,16.7c0.3,3.3,1,12.9-5.9,10.3c-2-0.8-3.9-4.7-3.5-6.7c0.3-1.5,3.7-2.9,4.9-3.6c1.3-0.7,0.1-2.7-1.1-1.9
				c-3.2,1.8-7.8,4.6-6.9,8.9c0.7,3.3,5.1,6,8.3,6.4c4.2,0.5,6-3.3,6.5-6.9c0.9-7.5-1.8-14.9-0.7-22.4c-0.7-0.1-1.5-0.2-2.2-0.3
				c0.3,2.6,0.4,11.2-3.2,11.2c-4.2,0.1-2.2-7.2-1.4-9.9C209,42.6,206.9,42,206.5,43.4L206.5,43.4z"/>
		</g>
	</g>
	<g>
		<g>
			<path class="st0" d="M9.3,55.7C9.5,38,13.8,20.8,22,5.1C21.4,5,20.7,4.9,20,4.9c2.6,14.8,5.1,29.6,4.7,44.7c0,1.4,2.2,1.4,2.3,0
				c0.4-15.3-2.1-30.3-4.8-45.3c-0.2-1-1.6-1.1-2.1-0.3C11.7,20,7.3,37.6,7.1,55.7C7,57.2,9.3,57.2,9.3,55.7L9.3,55.7z"/>
		</g>
	</g>
	<g>
		<g>
			<path class="st0" d="M4.8,37.9c9.3-3.2,18.7-4.6,28.5-4.3c1.4,0,1.4-2.2,0-2.3c-10-0.3-19.7,1.2-29.1,4.4
				C2.9,36.2,3.5,38.3,4.8,37.9L4.8,37.9z"/>
		</g>
	</g>
	<g>
		<g>
			<path class="st0" d="M43.4,36.8c-3-0.7-6,0.4-7.8,3c-2.5,3.6-1.9,8.2-1.3,12.3c0.1,1,1.6,1.1,2.1,0.3c1.1-2.3,1.1-4.6,1.1-7.2
				c0-3.5-0.2-7-0.5-10.5c-0.8,0-1.5,0-2.3,0c0.3,2.9,0.4,5.9,0.5,8.8c0.1,2.1,0.1,4.2,0,6.3c0,0.2-0.4,2-0.3,2.1
				c0.2,0.1,1.5-0.2,1.5-0.2c0.1-0.1-0.2-0.5-0.2-0.6c0.1-0.9-0.4-2.4-0.4-3.4c0-1.4,0.1-2.9,0.4-4.3c1-3.9,3.6-5.4,7.5-4.3
				c1.4,0.4,2-1.8,0.6-2.2c-4.2-1.2-8.1,0-9.8,4.2c-1.2,3.1-1.6,7.7-0.4,10.8c0.3,0.8,0.8,1.9,1.9,1.6c1.3-0.4,1.3-2.6,1.4-3.6
				c0.4-5.1,0-10.4-0.5-15.5c-0.1-1.4-2.4-1.4-2.3,0c0.2,2.6,0.4,5.2,0.4,7.9c0.1,2.7,0.5,6.2-0.7,8.7c0.7,0.1,1.4,0.2,2.1,0.3
				c-0.7-4.4-1-14.2,6.3-12.5C44.2,39.3,44.8,37.2,43.4,36.8L43.4,36.8z"/>
		</g>
	</g>
	<g>
		<g>
			<path class="st0" d="M42.9,48.2c4.4-3.1,8.1-7.5,9.7-12.7c1.4-4.7-3-4.5-5.5-1.8c-3,3.2-5,9.6-3.7,14c1.6,5.2,6.8,4,10,1
				c1-1-0.5-2.6-1.6-1.6c-2.5,2.4-6.4,1.4-6.4-2.2c0-1.3,0.2-2.7,0.5-3.9c0.4-1.7,1.9-6.5,4.1-6.5c1.2,0-0.2,2.2-0.7,3.1
				c-0.5,1-1,1.9-1.6,2.8c-1.6,2.4-3.6,4.3-6,6C40.6,47,41.7,49,42.9,48.2L42.9,48.2z"/>
		</g>
	</g>
	<g>
		<g>
			<path class="st0" d="M84.5,34c-0.6,3.7-1.6,14.3,4.7,14.7c6.8,0.4,5.6-13.2,5.2-16.7c-0.7,0.1-1.5,0.2-2.2,0.3
				c1,6.4,3.1,12.5,4.3,18.8c0.3,1.9,0.7,3.9,0.6,5.8c-0.1,2.8-1.3,5-4.7,4.3c-3.3-0.7-5.5-5.9-6.2-8.7c-0.3-1.4-2.5-0.8-2.2,0.6
				c1.1,4.7,7.4,14.4,13.3,9.8c3.3-2.6,2-8,1.4-11.5c-1.1-6.6-3.4-13-4.4-19.7c-0.2-1.2-2.3-1-2.2,0.3c0.4,3.3,1.4,8.8-0.6,11.7
				c-2.4,3.4-4.2,1.8-5-1.8c-0.5-2.4-0.1-4.8,0.2-7.3C86.9,33.1,84.8,32.5,84.5,34L84.5,34z"/>
		</g>
	</g>
	<g>
		<g>
			<path class="st0" d="M103,42.5c-1.1-1.5-2.2-3.2-2.7-5c-0.6-2.3,1.3-7.3,4.4-4.6c1.3,1.1,2.1,3.6,2.2,5.2c0.1,3.2-2.9,3.1-5,1.9
				c-1.3-0.7-2.4,1.2-1.1,1.9c2.6,1.4,6.6,1.9,8-1.4c1.2-2.8-0.3-7.3-2.5-9.3c-2.3-2.2-5.9-1.5-7.6,1.2c-2.3,3.8,0.1,7.9,2.3,11.1
				C101.9,44.8,103.8,43.7,103,42.5L103,42.5z"/>
		</g>
	</g>
	<g>
		<g>
			<path class="st0" d="M108.2,31.7c-1.1,4-1.2,12.1,5.2,11.1c3.8-0.6,8.1-7.9,4.2-10.6c-0.5-0.4-1.2-0.1-1.5,0.4
				c-1.5,2.2-1.3,5,0.4,7.1c2,2.5,5.4,3.1,8.4,3.4c1.4,0.2,1.4-2.1,0-2.3c-3.3-0.4-10.1-2.6-6.9-7.1c-0.5,0.1-1,0.3-1.5,0.4
				c0.8,0.6-0.4,3.8-0.6,4.2c-1,1.8-2.1,2.4-4,1.5c-3.1-1.4-2.2-4.8-1.4-7.6C110.7,30.9,108.6,30.3,108.2,31.7L108.2,31.7z"/>
		</g>
	</g>
	<g>
		<g>
			<path class="st0" d="M148,35.3c0.9,5.3,1.9,10.6,2.8,15.9c0.7-0.2,1.4-0.4,2.2-0.6c-0.4-1.6-0.6-3.2-0.5-4.9
				c0-0.6,0.1-1.3,0.3-1.9c0.5-2.5,2-2.9,4.4-1.2c-0.2,1.4,2,2,2.2,0.6c0.5-3.3-2.6-5.5-5.7-4c-4.2,2.1-4,8.2-2.9,12
				c0.4,1.4,2.4,0.8,2.2-0.6c-0.9-5.3-1.9-10.6-2.8-15.9C150,33.3,147.8,33.9,148,35.3L148,35.3z"/>
		</g>
	</g>
	<g>
		<g>
			<path class="st0" d="M160.2,48.6c3.2-1.6,8.2-5.3,8.2-9.3c0-4.1-4.9-3.1-6.4-0.6c-1.9,3.1-3.4,8.6-1,11.8
				c3.1,4.1,8.3,1.4,11.5-0.9c1.2-0.9,0-2.8-1.1-1.9c-1.9,1.4-4.3,3.3-6.8,2.6c-3.4-0.9-2.5-5.1-1.7-7.6c0.3-0.8,0.8-3.2,1.7-3.5
				c1.4,0.6,1.7,1.3,0.9,2.2c-0.3,0.4-0.5,0.8-0.9,1.2c-1.4,1.8-3.3,3.2-5.4,4.2C157.8,47.3,158.9,49.3,160.2,48.6L160.2,48.6z"/>
		</g>
	</g>
	<g>
		<g>
			<path class="st0" d="M182.2,42.3c-1.4-1.8-3.7-4.1-6.2-3.3c-2.9,0.9-4.9,5.6-4.5,8.4c0.9,6.7,9.4,5.1,10.8-0.5
				c0.4-1.8,0-5.4-2.6-4.9c-2.3,0.5-1.8,3.2-1.1,4.7c1.9,4,12,9.4,13.6,2.6c0.3-1.4-1.8-2-2.2-0.6c-0.8,3.1-5.1,0.9-6.5,0
				c-0.8-0.5-1.5-1-2.1-1.7c-0.9-2.5-1.3-2.8-1.3-0.7c-0.5,1.6-1.5,2.8-3.1,3.3c-2.5,0.2-3.6-1.2-3.2-4c0.5-3.3,4.1-5.4,6.5-2.2
				C181.1,44.6,183.1,43.5,182.2,42.3L182.2,42.3z"/>
		</g>
	</g>
	<g>
		<g>
			<path class="st0" d="M200.7,43.7c-6.2-9.6-13.1,8.8-6.8,11.1c10.4,3.9,12.5-23.9,11.4-29.3c-0.2-1-1.5-1-2.1-0.3
				c-2.4,3.6-2.4,9.1-2.8,13.4c-0.7,6.4-0.8,12.7-0.5,19.1c0.1,1.4,2.3,1.5,2.3,0c-0.2-5.1-0.2-10.2,0.1-15.3c0.3-4.8,0-11.9,2.9-16
				c-0.7-0.1-1.4-0.2-2.1-0.3c1.1,5.3-0.1,11.1-1.5,16.3c-0.5,1.8-1.3,6.8-2.9,7.6c-4.1,0.7-5.5-0.2-4.2-2.8c0.2-2.2,1.6-3,4.3-2.4
				C199.6,46,201.5,44.9,200.7,43.7L200.7,43.7z"/>
		</g>
	</g>
</g>
<g id="line-anim">
	<path class="st1" d="M242.1,33.3c0,0-8-1-5-9s12-9,17-4s7,14-9,21s-4,17-3,17"/>
	<line class="st1" x1="244.1" y1="62.3" x2="250.1" y2="70.3"/>
	<path class="st1" d="M252.1,74.3c0,0,1,4,1,8"/>
	<path class="st1" d="M252.1,86.3c0,0-1,6-3,9"/>
	<path class="st1" d="M247.1,98.3c0,0-6,4-10,5"/>
	<path class="st1" d="M230.1,104.3c0,0-9,2-12,1"/>
	<path class="st1" d="M213.1,103.3c0,0-2-1-8-4"/>
	<path class="st1" d="M199.1,97.3c0,0-10-2-13-3"/>
	<path class="st1" d="M182.1,93.3c0,0-11,0-14,2"/>
	<path class="st1" d="M164.1,96.3c0,0-4,6-10,8"/>
	<path class="st1" d="M150.1,105.3c0,0-7,0-13-1"/>
	<path class="st1" d="M132.1,105.3c0,0-8-2-14-1"/>
	<path class="st1" d="M111.1,105.3c0,0-10,6-12,7"/>
	<path class="st1" d="M95.1,114.3c0,0-10,4-11,5"/>
	<path class="st1" d="M81.1,121.3c0,0-5,5-7,7"/>
	<line class="st1" x1="71.1" y1="131.3" x2="67.1" y2="139.3"/>
	<path class="st1" d="M60.1,137.3c0,0,2.2,7.9,4,11c2-3,6-7,10-7"/>
</g>
</svg>
