<?xml version="1.0" encoding="utf-8"?>
<!-- Generator: Adobe Illustrator 20.1.0, SVG Export Plug-In . SVG Version: 6.00 Build 0)  -->
<svg version="1.1" id="svg-inside" xmlns="http://www.w3.org/2000/svg" xmlns:xlink="http://www.w3.org/1999/xlink" x="0px" y="0px"
	 viewBox="0 0 36 36" style="enable-background:new 0 0 36 36;" xml:space="preserve">
<g>
	<g>
		<g>
			<linearGradient id="SVGID_1_" gradientUnits="userSpaceOnUse" x1="17.8934" y1="33.4326" x2="17.8934" y2="2.6992">
				<stop  offset="0" style="stop-color:#F8AF00"/>
				<stop  offset="1" style="stop-color:#F5F128"/>
			</linearGradient>
			<path style="fill:url(#SVGID_1_);" d="M11.8,3.6c4.7,2.9,9.3,6.1,13.7,9.4c2.6,1.9,3.6,2.3,2.2,4.7c-0.6,1.1-2.5,2.4-3.4,3.2
				c-2,1.9-4.1,3.7-6.3,5.4c-1.5,1.3-5.6,5.9-7.7,5.1c-1.4-0.5-2.2-6.8-2.5-8C6.6,16.6,6,9.1,11.9,4.3c0.8-0.6-0.3-1.7-1.1-1.1
				C2.5,9.9,4.6,25.5,10,33.5c0.2,0.3,0.7,0.5,1,0.3c4-3,7.9-6,11.7-9.3c2-1.8,7.9-5.2,7.9-8.3c0-1.8-2.2-2.9-3.5-3.9
				c-4.6-3.6-9.5-6.9-14.4-10C11.8,1.8,11,3,11.8,3.6L11.8,3.6z"/>
		</g>
		<g>
			<linearGradient id="SVGID_2_" gradientUnits="userSpaceOnUse" x1="12.543" y1="17.7553" x2="12.543" y2="9.2368">
				<stop  offset="0" style="stop-color:#F8AF00"/>
				<stop  offset="1" style="stop-color:#F5F128"/>
			</linearGradient>
			<path style="fill:url(#SVGID_2_);" d="M9.8,18c1.6-3.1,3.7-5.8,6.5-7.9c0.8-0.6,0-1.9-0.8-1.3c-3,2.3-5.4,5.1-7.1,8.5
				C8.1,18.1,9.4,18.9,9.8,18L9.8,18z"/>
		</g>
		<g>
			<linearGradient id="SVGID_3_" gradientUnits="userSpaceOnUse" x1="14.7487" y1="24.2005" x2="14.7487" y2="13.4345">
				<stop  offset="0" style="stop-color:#F8AF00"/>
				<stop  offset="1" style="stop-color:#F5F128"/>
			</linearGradient>
			<path style="fill:url(#SVGID_3_);" d="M10.8,24.6c3-3.5,6-7,8.9-10.4c0.6-0.7-0.4-1.8-1.1-1.1c-3,3.5-6,7-8.9,10.4
				C9.1,24.2,10.2,25.3,10.8,24.6L10.8,24.6z"/>
		</g>
		<g>
			<linearGradient id="SVGID_4_" gradientUnits="userSpaceOnUse" x1="19.1956" y1="28.6912" x2="19.1956" y2="15.0157">
				<stop  offset="0" style="stop-color:#F8AF00"/>
				<stop  offset="1" style="stop-color:#F5F128"/>
			</linearGradient>
			<path style="fill:url(#SVGID_4_);" d="M14.3,28.9c3.2-4.8,6.8-9.2,10.9-13.2c0.7-0.7-0.4-1.7-1.1-1.1C20,18.8,16.3,23.3,13,28.2
				C12.5,29,13.8,29.7,14.3,28.9L14.3,28.9z"/>
		</g>
	</g>
</g>
</svg>
