<?xml version="1.0" encoding="utf-8"?>
<!-- Generator: Adobe Illustrator 21.1.0, SVG Export Plug-In . SVG Version: 6.00 Build 0)  -->
<svg version="1.1" xmlns="http://www.w3.org/2000/svg" xmlns:xlink="http://www.w3.org/1999/xlink" x="0px" y="0px"
	 viewBox="0 0 449 311.3" style="enable-background:new 0 0 449 311.3;" xml:space="preserve">
<g id="all-sh">
	<g id="w-and-text">
		<g>
			
				<circle style="opacity:0.3;fill:none;stroke:#FFFFFF;stroke-miterlimit:10;enable-background:new    ;" cx="224.5" cy="177.9" r="129"/>
			
				<circle style="opacity:8.000000e-02;fill:none;stroke:#FFFFFF;stroke-miterlimit:10;enable-background:new    ;" cx="224.5" cy="177.9" r="46"/>
			
				<circle style="opacity:8.000000e-02;fill:none;stroke:#FFFFFF;stroke-miterlimit:10;enable-background:new    ;" cx="224.5" cy="177.9" r="78"/>
			
				<circle style="opacity:8.000000e-02;fill:none;stroke:#FFFFFF;stroke-miterlimit:10;enable-background:new    ;" cx="224.5" cy="177.9" r="111"/>
			<g>
				
					<linearGradient id="SVGID_1_" gradientUnits="userSpaceOnUse" x1="2625.0918" y1="-894.0775" x2="2641.0918" y2="-894.0775" gradientTransform="matrix(0.7071 -0.7071 -0.7071 -0.7071 -2360.7776 1316.3732)">
					<stop  offset="0" style="stop-color:#F8AF00"/>
					<stop  offset="1" style="stop-color:#F5F128"/>
				</linearGradient>
				<circle style="fill:url(#SVGID_1_);" cx="133.3" cy="86.7" r="8"/>
			</g>
			<g>
				
					<linearGradient id="SVGID_2_" gradientUnits="userSpaceOnUse" x1="2625.0918" y1="-1152.0326" x2="2641.0918" y2="-1152.0326" gradientTransform="matrix(0.7071 -0.7071 -0.7071 -0.7071 -2360.7776 1316.3732)">
					<stop  offset="0" style="stop-color:#F8AF00"/>
					<stop  offset="1" style="stop-color:#F5F128"/>
				</linearGradient>
				<circle style="fill:url(#SVGID_2_);" cx="315.7" cy="269.1" r="8"/>
			</g>
			<g>
				
					<linearGradient id="SVGID_3_" gradientUnits="userSpaceOnUse" x1="-2304.8582" y1="-621.8388" x2="-2288.8582" y2="-621.8388" gradientTransform="matrix(0.7071 0.7071 0.7071 -0.7071 2379.5254 1271.1208)">
					<stop  offset="0" style="stop-color:#F8AF00"/>
					<stop  offset="1" style="stop-color:#F5F128"/>
				</linearGradient>
				<circle style="fill:url(#SVGID_3_);" cx="315.7" cy="86.7" r="8"/>
			</g>
			<g>
				
					<linearGradient id="SVGID_4_" gradientUnits="userSpaceOnUse" x1="-2304.8582" y1="-879.7939" x2="-2288.8582" y2="-879.7939" gradientTransform="matrix(0.7071 0.7071 0.7071 -0.7071 2379.5254 1271.1208)">
					<stop  offset="0" style="stop-color:#F8AF00"/>
					<stop  offset="1" style="stop-color:#F5F128"/>
				</linearGradient>
				<circle style="fill:url(#SVGID_4_);" cx="133.3" cy="269.1" r="8"/>
			</g>
			<g>
				
					<linearGradient id="SVGID_5_" gradientUnits="userSpaceOnUse" x1="-3461.9985" y1="-3030.3984" x2="-3445.9985" y2="-3030.3984" gradientTransform="matrix(0 1 1 0 3383.8984 3631.8984)">
					<stop  offset="0" style="stop-color:#F8AF00"/>
					<stop  offset="1" style="stop-color:#F5F128"/>
				</linearGradient>
				<circle style="fill:url(#SVGID_5_);" cx="353.5" cy="177.9" r="8"/>
			</g>
			<g>
				
					<linearGradient id="SVGID_6_" gradientUnits="userSpaceOnUse" x1="-3461.9985" y1="-3288.3984" x2="-3445.9985" y2="-3288.3984" gradientTransform="matrix(0 1 1 0 3383.8984 3631.8984)">
					<stop  offset="0" style="stop-color:#F8AF00"/>
					<stop  offset="1" style="stop-color:#F5F128"/>
				</linearGradient>
				<circle style="fill:url(#SVGID_6_);" cx="95.5" cy="177.9" r="8"/>
			</g>
			<g>
				
					<linearGradient id="SVGID_7_" gradientUnits="userSpaceOnUse" x1="-168.6533" y1="-6967.0967" x2="-152.6533" y2="-6967.0967" gradientTransform="matrix(-1 0 0 1 63.6934 7015.7969)">
					<stop  offset="0" style="stop-color:#F8AF00"/>
					<stop  offset="1" style="stop-color:#F5F128"/>
				</linearGradient>
				<circle style="fill:url(#SVGID_7_);" cx="224.3" cy="48.7" r="8"/>
			</g>
		</g>
		<g style="opacity:0.3;">
			<path style="fill:#FFFFFF;" d="M161.3,15.4V2.6h4.2c1.4,0,2.4,0.3,3.1,0.9s1.1,1.4,1.1,2.5c0,0.6-0.2,1.1-0.5,1.6
				s-0.8,0.8-1.4,1.1c0.7,0.2,1.2,0.6,1.6,1.1s0.6,1.2,0.6,1.9c0,1.1-0.4,2.1-1.1,2.7s-1.8,1-3.2,1H161.3z M163,8.1h2.5
				c0.7,0,1.3-0.2,1.8-0.6S168,6.6,168,6c0-0.7-0.2-1.2-0.6-1.5c-0.4-0.3-1-0.5-1.9-0.5H163V8.1z M163,9.4V14h2.8
				c0.8,0,1.4-0.2,1.9-0.6s0.7-1,0.7-1.7c0-1.5-0.8-2.3-2.5-2.3H163z"/>
			<path style="fill:#FFFFFF;" d="M174.5,9.2h2.5c1.1,0,1.9,0.3,2.6,0.8s0.9,1.3,0.9,2.2s-0.3,1.7-1,2.3s-1.5,0.9-2.6,0.9h-4V5.9
				h1.6V9.2z M174.5,10.5v3.6h2.4c0.6,0,1.1-0.2,1.4-0.5s0.5-0.7,0.5-1.3c0-0.5-0.2-1-0.5-1.3s-0.8-0.5-1.4-0.5H174.5z M183.8,15.4
				h-1.6V5.9h1.6V15.4z"/>
			<path style="fill:#FFFFFF;" d="M194.9,15.4h-1.6v-4.1h-4.4v4.1h-1.6V5.9h1.6V10h4.4V5.9h1.6V15.4z"/>
			<path style="fill:#FFFFFF;" d="M197.5,10.6c0-0.9,0.2-1.8,0.5-2.5s0.9-1.3,1.5-1.7s1.4-0.6,2.2-0.6c1.3,0,2.3,0.4,3.1,1.3
				s1.2,2.1,1.2,3.6v0.1c0,0.9-0.2,1.8-0.5,2.5c-0.4,0.7-0.9,1.3-1.5,1.7s-1.4,0.6-2.3,0.6c-1.3,0-2.3-0.4-3.1-1.3s-1.2-2.1-1.2-3.6
				v-0.1H197.5z M199.2,10.7c0,1.1,0.2,1.9,0.7,2.5s1.1,1,2,1c0.8,0,1.5-0.3,2-1c0.5-0.6,0.7-1.6,0.7-2.7c0-1-0.2-1.9-0.7-2.5
				s-1.2-1-2-1s-1.5,0.3-1.9,1S199.2,9.6,199.2,10.7z"/>
			<path style="fill:#FFFFFF;" d="M212.5,14.2c0.6,0,1.1-0.2,1.5-0.5s0.7-0.8,0.7-1.3h1.5c0,0.5-0.2,1.1-0.6,1.6s-0.8,0.9-1.4,1.2
				s-1.2,0.4-1.8,0.4c-1.3,0-2.3-0.4-3.1-1.3c-0.8-0.9-1.1-2-1.1-3.5v-0.3c0-0.9,0.2-1.7,0.5-2.5s0.8-1.3,1.5-1.7s1.4-0.6,2.3-0.6
				c1.1,0,2,0.3,2.7,1s1.1,1.5,1.1,2.5h-1.5c0-0.6-0.3-1.1-0.7-1.5c-0.4-0.4-0.9-0.6-1.6-0.6c-0.8,0-1.5,0.3-1.9,0.9
				s-0.7,1.5-0.7,2.6v0.3c0,1.1,0.2,1.9,0.7,2.5S211.6,14.2,212.5,14.2z"/>
			<path style="fill:#FFFFFF;" d="M226.3,5.9v9.5h-1.6V7.2h-3.2l-0.2,3.6c-0.1,1.6-0.4,2.8-0.8,3.5s-1.1,1.1-2.1,1.1h-0.7V14h0.5
				c0.5-0.1,0.9-0.4,1.1-0.9s0.4-1.6,0.4-3.1l0.2-4.1H226.3z"/>
			<path style="fill:#FFFFFF;" d="M235.5,5.9h1.6v9.5h-1.6V8.5l-4.4,6.9h-1.6V5.9h1.6v6.9L235.5,5.9z"/>
			<path style="fill:#FFFFFF;" d="M240.4,15.4V5.9h3.7c1.3,0,2.2,0.2,2.9,0.7c0.7,0.4,1,1.1,1,1.9c0,0.4-0.1,0.8-0.4,1.2
				c-0.3,0.4-0.7,0.6-1.2,0.8c0.6,0.1,1,0.4,1.4,0.8c0.3,0.4,0.5,0.9,0.5,1.4c0,0.9-0.3,1.5-1,2c-0.6,0.5-1.5,0.7-2.7,0.7H240.4z
				 M242,9.9h2.1c1.5,0,2.3-0.4,2.3-1.3s-0.7-1.4-2.2-1.4H242V9.9z M242,11.2v2.9h2.7c0.7,0,1.2-0.1,1.5-0.4
				c0.3-0.3,0.5-0.6,0.5-1.1c0-0.9-0.7-1.4-2.1-1.4C244.6,11.2,242,11.2,242,11.2z"/>
			<path style="fill:#FFFFFF;" d="M250.5,10.6c0-0.9,0.2-1.8,0.5-2.5c0.4-0.7,0.9-1.3,1.5-1.7c0.7-0.4,1.4-0.6,2.2-0.6
				c1.3,0,2.3,0.4,3.1,1.3s1.2,2.1,1.2,3.6v0.1c0,0.9-0.2,1.8-0.5,2.5c-0.4,0.7-0.9,1.3-1.5,1.7c-0.7,0.4-1.4,0.6-2.3,0.6
				c-1.3,0-2.3-0.4-3.1-1.3c-0.8-0.9-1.2-2.1-1.2-3.6v-0.1H250.5z M252.2,10.7c0,1.1,0.2,1.9,0.7,2.5s1.1,1,2,1c0.8,0,1.5-0.3,2-1
				c0.5-0.6,0.7-1.6,0.7-2.7c0-1-0.2-1.9-0.7-2.5s-1.2-1-2-1s-1.5,0.3-1.9,1S252.2,9.6,252.2,10.7z"/>
			<path style="fill:#FFFFFF;" d="M265.5,14.2c0.6,0,1.1-0.2,1.5-0.5s0.7-0.8,0.7-1.3h1.5c0,0.5-0.2,1.1-0.6,1.6s-0.8,0.9-1.4,1.2
				s-1.2,0.4-1.8,0.4c-1.3,0-2.3-0.4-3.1-1.3c-0.8-0.9-1.1-2-1.1-3.5v-0.3c0-0.9,0.2-1.7,0.5-2.5s0.8-1.3,1.5-1.7s1.4-0.6,2.3-0.6
				c1.1,0,2,0.3,2.7,1s1.1,1.5,1.1,2.5h-1.5c0-0.6-0.3-1.1-0.7-1.5c-0.4-0.4-0.9-0.6-1.6-0.6c-0.8,0-1.5,0.3-1.9,0.9
				s-0.7,1.5-0.7,2.6v0.3c0,1.1,0.2,1.9,0.7,2.5S264.7,14.2,265.5,14.2z"/>
			<path style="fill:#FFFFFF;" d="M278.6,7.2h-3.2v8.2h-1.6V7.2h-3.1V5.9h7.9L278.6,7.2L278.6,7.2z"/>
			<path style="fill:#FFFFFF;" d="M282.4,9.2h2.5c1.1,0,1.9,0.3,2.6,0.8s0.9,1.3,0.9,2.2s-0.3,1.7-1,2.3s-1.5,0.9-2.6,0.9h-4V5.9
				h1.6V9.2z M282.4,10.5v3.6h2.4c0.6,0,1.1-0.2,1.4-0.5s0.5-0.7,0.5-1.3c0-0.5-0.2-1-0.5-1.3s-0.8-0.5-1.4-0.5H282.4z"/>
		</g>
		<g style="opacity:0.3;">
			<path style="fill:#FFFFFF;" d="M343.4,56.4c0,1.3-0.2,2.3-0.6,3.3c-0.4,0.9-1,1.6-1.8,2.1s-1.7,0.7-2.7,0.7s-1.9-0.2-2.7-0.7
				s-1.4-1.2-1.8-2.1c-0.4-0.9-0.7-2-0.7-3.2v-0.9c0-1.2,0.2-2.3,0.6-3.3s1-1.7,1.8-2.2s1.7-0.8,2.7-0.8s1.9,0.2,2.7,0.7
				c0.8,0.5,1.4,1.2,1.8,2.2c0.4,0.9,0.6,2,0.6,3.3v0.9H343.4z M341.7,55.6c0-1.5-0.3-2.7-0.9-3.5s-1.5-1.2-2.6-1.2
				s-1.9,0.4-2.5,1.2s-0.9,1.9-0.9,3.4v0.9c0,1.5,0.3,2.6,0.9,3.5s1.5,1.3,2.6,1.3s1.9-0.4,2.5-1.2s0.9-1.9,0.9-3.4V55.6z"/>
			<path style="fill:#FFFFFF;" d="M350.3,53.4c1.2,0,2.2,0.4,2.9,1.2c0.7,0.8,1.1,1.9,1.1,3.2v0.1c0,0.9-0.2,1.7-0.5,2.4
				s-0.8,1.3-1.5,1.6s-1.4,0.6-2.2,0.6c-1.3,0-2.3-0.4-3.1-1.3c-0.8-0.9-1.2-2-1.2-3.4V57c0-2,0.4-3.6,1.1-4.8s1.8-1.9,3.3-2.2
				c0.8-0.1,1.4-0.3,1.7-0.5s0.4-0.5,0.4-0.9h1.3c0,0.7-0.2,1.3-0.5,1.7s-0.9,0.7-1.6,0.9l-1.2,0.3c-1,0.2-1.7,0.6-2.2,1.2
				s-0.8,1.3-0.9,2.2C348,53.9,349.1,53.4,350.3,53.4z M350,54.8c-0.8,0-1.4,0.3-1.9,0.8s-0.7,1.3-0.7,2.2v0.1c0,1,0.2,1.8,0.7,2.4
				c0.5,0.6,1.1,0.9,1.9,0.9s1.4-0.3,1.9-0.9s0.7-1.5,0.7-2.6c0-0.9-0.2-1.6-0.7-2.2C351.5,55,350.8,54.8,350,54.8z"/>
			<path style="fill:#FFFFFF;" d="M356.1,57.6c0-0.9,0.2-1.8,0.5-2.5c0.4-0.7,0.9-1.3,1.5-1.7c0.7-0.4,1.4-0.6,2.2-0.6
				c1.3,0,2.3,0.4,3.1,1.3c0.8,0.9,1.2,2.1,1.2,3.6v0.1c0,0.9-0.2,1.8-0.5,2.5c-0.4,0.7-0.9,1.3-1.5,1.7c-0.7,0.4-1.4,0.6-2.3,0.6
				c-1.3,0-2.3-0.4-3.1-1.3C356.4,60.4,356,59.2,356.1,57.6L356.1,57.6L356.1,57.6z M357.7,57.7c0,1.1,0.2,1.9,0.7,2.5s1.1,1,2,1
				c0.8,0,1.5-0.3,2-1c0.5-0.6,0.7-1.6,0.7-2.7c0-1-0.2-1.9-0.7-2.5s-1.2-1-2-1s-1.5,0.3-1.9,1S357.7,56.6,357.7,57.7z"/>
			<path style="fill:#FFFFFF;" d="M375.3,57.7c0,1.4-0.3,2.6-1,3.5s-1.6,1.3-2.7,1.3c-1.2,0-2.1-0.4-2.7-1.1V66h-1.6V52.9h1.5
				l0.1,1.1c0.7-0.8,1.6-1.2,2.8-1.2c1.1,0,2,0.4,2.7,1.3C375.1,55,375.4,56.2,375.3,57.7L375.3,57.7L375.3,57.7z M373.7,57.6
				c0-1.1-0.2-1.9-0.7-2.5s-1.1-0.9-1.9-0.9c-1,0-1.7,0.4-2.2,1.3V60c0.5,0.9,1.2,1.3,2.2,1.3c0.8,0,1.4-0.3,1.9-0.9
				C373.4,59.7,373.7,58.8,373.7,57.6z"/>
			<path style="fill:#FFFFFF;" d="M377.4,57.6c0-0.9,0.2-1.8,0.5-2.5s0.9-1.3,1.5-1.7s1.4-0.6,2.2-0.6c1.3,0,2.3,0.4,3.1,1.3
				s1.2,2.1,1.2,3.6v0.1c0,0.9-0.2,1.8-0.5,2.5c-0.4,0.7-0.9,1.3-1.5,1.7s-1.4,0.6-2.3,0.6c-1.3,0-2.3-0.4-3.1-1.3
				S377.3,59.2,377.4,57.6L377.4,57.6L377.4,57.6z M379,57.7c0,1.1,0.2,1.9,0.7,2.5s1.1,1,2,1c0.8,0,1.5-0.3,2-1
				c0.5-0.6,0.7-1.6,0.7-2.7c0-1-0.2-1.9-0.7-2.5s-1.2-1-2-1s-1.5,0.3-1.9,1S379,56.6,379,57.7z"/>
			<path style="fill:#FFFFFF;" d="M396.3,62.4h-1.6v-4.1h-4.4v4.1h-1.6v-9.5h1.6V57h4.4v-4.1h1.6V62.4z"/>
			<path style="fill:#FFFFFF;" d="M405.2,62.4c-0.1-0.2-0.2-0.5-0.2-1c-0.8,0.8-1.7,1.2-2.7,1.2c-0.9,0-1.7-0.3-2.3-0.8
				s-0.9-1.2-0.9-2c0-1,0.4-1.8,1.1-2.3s1.8-0.8,3.2-0.8h1.6V56c0-0.6-0.2-1-0.5-1.4c-0.3-0.3-0.8-0.5-1.5-0.5
				c-0.6,0-1.1,0.1-1.5,0.4s-0.6,0.6-0.6,1.1h-1.6c0-0.5,0.2-0.9,0.5-1.4s0.8-0.8,1.4-1.1s1.2-0.4,1.9-0.4c1.1,0,2,0.3,2.6,0.8
				s0.9,1.3,1,2.3v4.4c0,0.9,0.1,1.6,0.3,2.1v0.1C407,62.4,405.2,62.4,405.2,62.4z M402.5,61.2c0.5,0,1-0.1,1.4-0.4s0.8-0.6,1-1v-2
				h-1.3c-2,0-3,0.6-3,1.7c0,0.5,0.2,0.9,0.5,1.2S402,61.2,402.5,61.2z"/>
		</g>
		<g style="opacity:0.3;">
			<path style="fill:#FFFFFF;" d="M33.4,49.6L37.6,60l4.2-10.4H44v12.8h-1.7v-5l0.2-5.4l-4.2,10.4H37l-4.2-10.3l0.2,5.4v5h-1.7V49.6
				H33.4z"/>
			<path style="fill:#FFFFFF;" d="M46.7,57.6c0-0.9,0.2-1.8,0.5-2.5s0.9-1.3,1.5-1.7s1.4-0.6,2.2-0.6c1.3,0,2.3,0.4,3.1,1.3
				s1.2,2.1,1.2,3.6v0.1c0,0.9-0.2,1.8-0.5,2.5C54.5,61,54,61.5,53.3,62s-1.4,0.6-2.3,0.6c-1.3,0-2.3-0.4-3.1-1.3s-1.2-2.1-1.2-3.6
				V57.6z M48.4,57.7c0,1.1,0.2,1.9,0.7,2.5s1.1,1,2,1c0.8,0,1.5-0.3,2-1c0.5-0.6,0.7-1.6,0.7-2.7c0-1-0.2-1.9-0.7-2.5s-1.2-1-2-1
				s-1.5,0.3-1.9,1S48.4,56.6,48.4,57.7z"/>
			<path style="fill:#FFFFFF;" d="M65.5,52.9v9.5h-1.6v-8.2h-3.2l-0.2,3.6c-0.1,1.6-0.4,2.8-0.8,3.5s-1.1,1.1-2.1,1.1h-0.7V61h0.5
				c0.5-0.1,0.9-0.4,1.1-0.9s0.4-1.6,0.4-3.1l0.2-4.1H65.5z"/>
			<path style="fill:#FFFFFF;" d="M68.2,57.6c0-0.9,0.2-1.8,0.5-2.5s0.9-1.3,1.5-1.7s1.4-0.6,2.2-0.6c1.3,0,2.3,0.4,3.1,1.3
				s1.2,2.1,1.2,3.6v0.1c0,0.9-0.2,1.8-0.5,2.5c-0.4,0.7-0.9,1.3-1.5,1.7s-1.4,0.6-2.3,0.6c-1.3,0-2.3-0.4-3.1-1.3s-1.2-2.1-1.2-3.6
				v-0.1H68.2z M69.8,57.7c0,1.1,0.2,1.9,0.7,2.5s1.1,1,2,1c0.8,0,1.5-0.3,2-1c0.5-0.6,0.7-1.6,0.7-2.7c0-1-0.2-1.9-0.7-2.5
				s-1.2-1-2-1s-1.5,0.3-1.9,1S69.8,56.6,69.8,57.7z"/>
			<path style="fill:#FFFFFF;" d="M78.6,61.1l0.6-0.7c0.6-0.8,1-2.1,1.1-3.7l0.1-3.8h6.1v8.2h1.2v4.1h-1.6v-2.8h-6.6v2.8h-1.6v-4.1
				H78.6z M80.5,61.1h4.4v-6.7H82l-0.1,2.3C81.8,58.6,81.3,60,80.5,61.1z"/>
			<path style="fill:#FFFFFF;" d="M89.6,57.6c0-0.9,0.2-1.8,0.5-2.5s0.9-1.3,1.5-1.7s1.4-0.6,2.2-0.6c1.3,0,2.3,0.4,3.1,1.3
				s1.2,2.1,1.2,3.6v0.1c0,0.9-0.2,1.8-0.5,2.5c-0.4,0.7-0.9,1.3-1.5,1.7s-1.4,0.6-2.3,0.6c-1.3,0-2.3-0.4-3.1-1.3s-1.2-2.1-1.2-3.6
				v-0.1H89.6z M91.2,57.7c0,1.1,0.2,1.9,0.7,2.5s1.1,1,2,1c0.8,0,1.5-0.3,2-1c0.5-0.6,0.7-1.6,0.7-2.7c0-1-0.2-1.9-0.7-2.5
				s-1.2-1-2-1s-1.5,0.3-1.9,1S91.2,56.6,91.2,57.7z"/>
			<path style="fill:#FFFFFF;" d="M104.5,61.2c0.6,0,1.1-0.2,1.5-0.5s0.7-0.8,0.7-1.3h1.5c0,0.5-0.2,1.1-0.6,1.6s-0.8,0.9-1.4,1.2
				s-1.2,0.4-1.8,0.4c-1.3,0-2.3-0.4-3.1-1.3c-0.8-0.9-1.1-2-1.1-3.5v-0.3c0-0.9,0.2-1.7,0.5-2.5s0.8-1.3,1.5-1.7s1.4-0.6,2.3-0.6
				c1.1,0,2,0.3,2.7,1s1.1,1.5,1.1,2.5h-1.5c0-0.6-0.3-1.1-0.7-1.5c-0.4-0.4-0.9-0.6-1.6-0.6c-0.8,0-1.5,0.3-1.9,0.9
				s-0.7,1.5-0.7,2.6v0.3c0,1.1,0.2,1.9,0.7,2.5S103.7,61.2,104.5,61.2z"/>
			<path style="fill:#FFFFFF;" d="M117.7,54.2h-3.2v8.2h-1.6v-8.2h-3.1v-1.3h7.9C117.7,52.9,117.7,54.2,117.7,54.2z"/>
			<path style="fill:#FFFFFF;" d="M121.5,56.2h2.5c1.1,0,1.9,0.3,2.6,0.8s0.9,1.3,0.9,2.2s-0.3,1.7-1,2.3s-1.5,0.9-2.6,0.9h-4v-9.5
				h1.6V56.2z M121.5,57.5v3.6h2.4c0.6,0,1.1-0.2,1.4-0.5s0.5-0.7,0.5-1.3c0-0.5-0.2-1-0.5-1.3s-0.8-0.5-1.4-0.5H121.5z"/>
		</g>
		<g style="opacity:0.3;">
			<path style="fill:#FFFFFF;" d="M337.5,295h-6.2v11.4h-1.7v-12.8h7.9L337.5,295L337.5,295z"/>
			<path style="fill:#FFFFFF;" d="M343.7,306.4c-0.1-0.2-0.2-0.5-0.2-1c-0.8,0.8-1.7,1.2-2.7,1.2c-0.9,0-1.7-0.3-2.3-0.8
				c-0.6-0.5-0.9-1.2-0.9-2c0-1,0.4-1.8,1.1-2.3c0.8-0.5,1.8-0.8,3.2-0.8h1.6V300c0-0.6-0.2-1-0.5-1.4c-0.3-0.3-0.8-0.5-1.5-0.5
				c-0.6,0-1.1,0.1-1.5,0.4s-0.6,0.6-0.6,1.1h-1.6c0-0.5,0.2-0.9,0.5-1.4c0.3-0.4,0.8-0.8,1.4-1.1c0.6-0.3,1.2-0.4,1.9-0.4
				c1.1,0,2,0.3,2.6,0.8s0.9,1.3,1,2.3v4.4c0,0.9,0.1,1.6,0.3,2.1v0.1L343.7,306.4L343.7,306.4z M341,305.2c0.5,0,1-0.1,1.5-0.4
				s0.8-0.6,1-1v-2h-1.3c-2,0-3,0.6-3,1.7c0,0.5,0.2,0.9,0.5,1.2S340.5,305.2,341,305.2z"/>
			<path style="fill:#FFFFFF;" d="M352.3,297.4c1.2,0,2.2,0.4,2.9,1.2c0.7,0.8,1.1,1.9,1.1,3.2v0.1c0,0.9-0.2,1.7-0.5,2.4
				c-0.3,0.7-0.8,1.3-1.5,1.6s-1.4,0.6-2.2,0.6c-1.3,0-2.3-0.4-3.1-1.3c-0.8-0.9-1.2-2-1.2-3.4V301c0-2,0.4-3.6,1.1-4.8
				s1.8-1.9,3.3-2.2c0.8-0.1,1.4-0.3,1.7-0.5s0.4-0.5,0.4-0.9h1.3c0,0.7-0.2,1.3-0.5,1.7s-0.9,0.7-1.6,0.9l-1.2,0.3
				c-1,0.2-1.7,0.6-2.2,1.2s-0.8,1.3-0.9,2.2C350,297.9,351,297.4,352.3,297.4z M352,298.8c-0.8,0-1.4,0.3-1.9,0.8s-0.7,1.3-0.7,2.2
				v0.1c0,1,0.2,1.8,0.7,2.4s1.1,0.9,1.9,0.9s1.4-0.3,1.9-0.9s0.7-1.5,0.7-2.6c0-0.9-0.2-1.6-0.7-2.2
				C353.4,299,352.8,298.8,352,298.8z"/>
			<path style="fill:#FFFFFF;" d="M364.4,306.4c-0.1-0.2-0.2-0.5-0.2-1c-0.8,0.8-1.7,1.2-2.7,1.2c-0.9,0-1.7-0.3-2.3-0.8
				s-0.9-1.2-0.9-2c0-1,0.4-1.8,1.1-2.3s1.8-0.8,3.2-0.8h1.6V300c0-0.6-0.2-1-0.5-1.4c-0.3-0.3-0.8-0.5-1.5-0.5
				c-0.6,0-1.1,0.1-1.5,0.4s-0.6,0.6-0.6,1.1h-1.6c0-0.5,0.2-0.9,0.5-1.4s0.8-0.8,1.4-1.1s1.2-0.4,1.9-0.4c1.1,0,2,0.3,2.6,0.8
				s0.9,1.3,1,2.3v4.4c0,0.9,0.1,1.6,0.3,2.1v0.1L364.4,306.4L364.4,306.4z M361.7,305.2c0.5,0,1-0.1,1.4-0.4s0.8-0.6,1-1v-2h-1.3
				c-2,0-3,0.6-3,1.7c0,0.5,0.2,0.9,0.5,1.2S361.1,305.2,361.7,305.2z"/>
			<path style="fill:#FFFFFF;" d="M376.8,301.7c0,1.4-0.3,2.6-1,3.5s-1.6,1.3-2.7,1.3c-1.2,0-2.1-0.4-2.7-1.1v4.6h-1.6v-13.2h1.5
				l0.1,1.1c0.7-0.8,1.6-1.2,2.8-1.2c1.1,0,2,0.4,2.7,1.3s1,2.1,1,3.6L376.8,301.7L376.8,301.7z M375.1,301.6c0-1.1-0.2-1.9-0.7-2.5
				s-1.1-0.9-1.9-0.9c-1,0-1.7,0.4-2.2,1.3v4.5c0.5,0.9,1.2,1.3,2.2,1.3c0.8,0,1.4-0.3,1.9-0.9C374.9,303.7,375.1,302.8,375.1,301.6
				z"/>
			<path style="fill:#FFFFFF;" d="M385.4,296.9h1.6v9.5h-1.6v-6.9l-4.4,6.9h-1.6v-9.5h1.6v6.9L385.4,296.9z"/>
			<path style="fill:#FFFFFF;" d="M397.2,298.2H394v8.2h-1.6v-8.2h-3.1v-1.3h7.9L397.2,298.2L397.2,298.2z"/>
			<path style="fill:#FFFFFF;" d="M401,300.2h2.5c1.1,0,1.9,0.3,2.6,0.8s0.9,1.3,0.9,2.2c0,0.9-0.3,1.7-1,2.3s-1.5,0.9-2.6,0.9h-4
				v-9.5h1.6V300.2z M401,301.5v3.6h2.4c0.6,0,1.1-0.2,1.4-0.5s0.5-0.7,0.5-1.3c0-0.5-0.2-1-0.5-1.3s-0.8-0.5-1.4-0.5L401,301.5
				L401,301.5z M410.4,306.4h-1.6v-9.5h1.6V306.4z"/>
		</g>
		<g style="opacity:0.3;">
			<path style="fill:#FFFFFF;" d="M48.1,293.6v12.8h-1.7V295h-4.6l-0.2,5.1c-0.1,1.7-0.3,3-0.5,3.8s-0.6,1.5-1.1,1.9s-1.2,0.6-2,0.6
				h-0.6V305h0.4c0.5,0,1-0.2,1.3-0.5s0.5-0.8,0.7-1.5s0.3-1.7,0.3-3.2l0.3-6.2L48.1,293.6L48.1,293.6z"/>
			<path style="fill:#FFFFFF;" d="M50.9,301.6c0-0.9,0.2-1.8,0.5-2.5s0.9-1.3,1.5-1.7s1.4-0.6,2.2-0.6c1.3,0,2.3,0.4,3.1,1.3
				s1.2,2.1,1.2,3.6v0.1c0,0.9-0.2,1.8-0.5,2.5c-0.4,0.7-0.9,1.3-1.5,1.7s-1.4,0.6-2.3,0.6c-1.3,0-2.3-0.4-3.1-1.3s-1.2-2.1-1.2-3.6
				L50.9,301.6L50.9,301.6z M52.6,301.7c0,1.1,0.2,1.9,0.7,2.5s1.1,1,2,1c0.8,0,1.5-0.3,2-1c0.5-0.6,0.7-1.6,0.7-2.7
				c0-1-0.2-1.9-0.7-2.5s-1.2-1-2-1s-1.5,0.3-1.9,1S52.6,300.6,52.6,301.7z"/>
			<path style="fill:#FFFFFF;" d="M62.2,306.4v-9.5h3.7c1.3,0,2.2,0.2,2.9,0.7s1,1.1,1,1.9c0,0.4-0.1,0.8-0.4,1.2
				c-0.3,0.4-0.7,0.6-1.2,0.8c0.6,0.1,1,0.4,1.4,0.8s0.5,0.9,0.5,1.4c0,0.9-0.3,1.5-1,2s-1.5,0.7-2.7,0.7H62.2z M63.9,300.9H66
				c1.5,0,2.3-0.4,2.3-1.3s-0.7-1.4-2.2-1.4h-2.2C63.9,298.2,63.9,300.9,63.9,300.9z M63.9,302.2v2.9h2.7c0.7,0,1.2-0.1,1.5-0.4
				s0.5-0.6,0.5-1.1c0-0.9-0.7-1.4-2.1-1.4H63.9z"/>
			<path style="fill:#FFFFFF;" d="M75.8,302.3h-1.2v4.1H73v-9.5h1.6v4h1.1l3.2-4h2l-3.8,4.6l4.1,4.9h-2.1L75.8,302.3z"/>
			<path style="fill:#FFFFFF;" d="M82.4,301.6c0-0.9,0.2-1.8,0.5-2.5s0.9-1.3,1.5-1.7s1.4-0.6,2.2-0.6c1.3,0,2.3,0.4,3.1,1.3
				s1.2,2.1,1.2,3.6v0.1c0,0.9-0.2,1.8-0.5,2.5c-0.4,0.7-0.9,1.3-1.5,1.7s-1.4,0.6-2.3,0.6c-1.3,0-2.3-0.4-3.1-1.3s-1.2-2.1-1.2-3.6
				v-0.1H82.4z M84,301.7c0,1.1,0.2,1.9,0.7,2.5s1.1,1,2,1c0.8,0,1.5-0.3,2-1c0.5-0.6,0.7-1.6,0.7-2.7c0-1-0.2-1.9-0.7-2.5
				s-1.2-1-2-1s-1.5,0.3-1.9,1S84,300.6,84,301.7z"/>
			<path style="fill:#FFFFFF;" d="M97.3,305.2c0.6,0,1.1-0.2,1.5-0.5s0.7-0.8,0.7-1.3h1.5c0,0.5-0.2,1.1-0.6,1.6s-0.8,0.9-1.4,1.2
				s-1.2,0.4-1.8,0.4c-1.3,0-2.3-0.4-3.1-1.3c-0.8-0.9-1.1-2-1.1-3.5v-0.3c0-0.9,0.2-1.7,0.5-2.5s0.8-1.3,1.5-1.7s1.4-0.6,2.3-0.6
				c1.1,0,2,0.3,2.7,1s1.1,1.5,1.1,2.5h-1.5c0-0.6-0.3-1.1-0.7-1.5c-0.4-0.4-0.9-0.6-1.6-0.6c-0.8,0-1.5,0.3-1.9,0.9
				s-0.7,1.5-0.7,2.6v0.3c0,1.1,0.2,1.9,0.7,2.5S96.5,305.2,97.3,305.2z"/>
			<path style="fill:#FFFFFF;" d="M110.5,298.2h-3.2v8.2h-1.6v-8.2h-3.1v-1.3h7.9C110.5,296.9,110.5,298.2,110.5,298.2z"/>
			<path style="fill:#FFFFFF;" d="M114.3,300.2h2.5c1.1,0,1.9,0.3,2.6,0.8s0.9,1.3,0.9,2.2c0,0.9-0.3,1.7-1,2.3s-1.5,0.9-2.6,0.9h-4
				v-9.5h1.6V300.2z M114.3,301.5v3.6h2.4c0.6,0,1.1-0.2,1.4-0.5s0.5-0.7,0.5-1.3c0-0.5-0.2-1-0.5-1.3s-0.8-0.5-1.4-0.5L114.3,301.5
				L114.3,301.5z"/>
		</g>
		<g style="opacity:0.3;">
			<path style="fill:#FFFFFF;" d="M18.5,178.4c0,1.3-0.2,2.3-0.6,3.3c-0.4,0.9-1,1.6-1.8,2.1s-1.7,0.7-2.7,0.7s-1.9-0.2-2.7-0.7
				s-1.4-1.2-1.8-2.1c-0.4-0.9-0.7-2-0.7-3.2v-0.9c0-1.2,0.2-2.3,0.6-3.3s1-1.7,1.8-2.2s1.7-0.8,2.7-0.8s1.9,0.2,2.7,0.7
				c0.8,0.5,1.4,1.2,1.8,2.2c0.4,0.9,0.6,2,0.6,3.3L18.5,178.4L18.5,178.4z M16.8,177.6c0-1.5-0.3-2.7-0.9-3.5s-1.5-1.2-2.6-1.2
				s-1.9,0.4-2.5,1.2s-0.9,1.9-0.9,3.4v0.9c0,1.5,0.3,2.6,0.9,3.5s1.5,1.3,2.6,1.3s1.9-0.4,2.5-1.2s0.9-1.9,0.9-3.4V177.6z"/>
			<path style="fill:#FFFFFF;" d="M29,184.4h-1.6v-8.2H23v8.2h-1.6v-9.5H29V184.4z"/>
			<path style="fill:#FFFFFF;" d="M33.8,178.2h2.5c1.1,0,1.9,0.3,2.6,0.8s0.9,1.3,0.9,2.2s-0.3,1.7-1,2.3s-1.5,0.9-2.6,0.9h-4v-9.5
				h1.6V178.2z M33.8,179.5v3.6h2.4c0.6,0,1.1-0.2,1.4-0.5s0.5-0.7,0.5-1.3c0-0.5-0.2-1-0.5-1.3s-0.8-0.5-1.4-0.5H33.8z M43.2,184.4
				h-1.6v-9.5h1.6V184.4z"/>
			<path style="fill:#FFFFFF;" d="M53.5,176.2h-3.2v8.2h-1.6v-8.2h-3.1v-1.3h7.9C53.5,174.9,53.5,176.2,53.5,176.2z"/>
		</g>
		<g style="opacity:0.3;">
			<path style="fill:#FFFFFF;" d="M407.6,180.3c-0.2,1.4-0.7,2.4-1.5,3.1c-0.8,0.7-2,1.1-3.4,1.1c-1.5,0-2.7-0.5-3.6-1.6
				s-1.4-2.5-1.4-4.4v-1.2c0-1.2,0.2-2.2,0.6-3.1s1-1.6,1.8-2.1s1.7-0.7,2.7-0.7c1.4,0,2.4,0.4,3.3,1.1s1.3,1.8,1.4,3.2h-1.7
				c-0.1-1-0.5-1.8-1-2.2c-0.5-0.5-1.2-0.7-2.1-0.7c-1.1,0-1.9,0.4-2.5,1.2s-0.9,1.9-0.9,3.4v1.2c0,1.4,0.3,2.5,0.9,3.3
				s1.4,1.2,2.4,1.2c0.9,0,1.7-0.2,2.2-0.6c0.5-0.4,0.8-1.2,1-2.2H407.6z"/>
			<path style="fill:#FFFFFF;" d="M416.2,174.9h1.6v9.5h-1.6v-6.9l-4.4,6.9h-1.6v-9.5h1.6v6.9L416.2,174.9z"/>
			<path style="fill:#FFFFFF;" d="M428.7,174.9v9.5h-1.6v-8.2h-3.2l-0.2,3.6c-0.1,1.6-0.4,2.8-0.8,3.5s-1.1,1.1-2.1,1.1h-0.7V183
				h0.5c0.5-0.1,0.9-0.4,1.1-0.9s0.4-1.6,0.4-3.1l0.2-4.1H428.7z"/>
			<path style="fill:#FFFFFF;" d="M437.6,184.4c-0.1-0.2-0.2-0.5-0.2-1c-0.8,0.8-1.7,1.2-2.7,1.2c-0.9,0-1.7-0.3-2.3-0.8
				c-0.6-0.5-0.9-1.2-0.9-2c0-1,0.4-1.8,1.1-2.3c0.8-0.5,1.8-0.8,3.2-0.8h1.6V178c0-0.6-0.2-1-0.5-1.4c-0.3-0.3-0.8-0.5-1.5-0.5
				c-0.6,0-1.1,0.1-1.5,0.4s-0.6,0.6-0.6,1.1h-1.6c0-0.5,0.2-0.9,0.5-1.4c0.3-0.4,0.8-0.8,1.4-1.1s1.2-0.4,1.9-0.4
				c1.1,0,2,0.3,2.6,0.8s0.9,1.3,1,2.3v4.4c0,0.9,0.1,1.6,0.3,2.1v0.1L437.6,184.4L437.6,184.4z M434.9,183.2c0.5,0,1-0.1,1.5-0.4
				s0.8-0.6,1-1v-2h-1.3c-2,0-3,0.6-3,1.7c0,0.5,0.2,0.9,0.5,1.2S434.4,183.2,434.9,183.2z"/>
		</g>
	</g>
	<path style="opacity:0.2;fill:#FFFFFF;enable-background:new    ;" d="M229,247.4h-8.9v-1.9l4.1-4.3c1-1.2,1.5-2.1,1.5-2.8
		c0-0.6-0.1-1-0.4-1.3s-0.6-0.4-1-0.4c-0.5,0-0.8,0.2-1.1,0.6c-0.3,0.4-0.4,0.9-0.4,1.4h-3c0-0.8,0.2-1.5,0.6-2.2
		c0.4-0.7,0.9-1.2,1.6-1.6s1.5-0.6,2.3-0.6c1.4,0,2.4,0.3,3.2,1s1.1,1.6,1.1,2.8c0,0.5-0.1,1-0.3,1.5s-0.5,1-0.9,1.5s-1,1.2-1.9,2.1
		l-1.7,1.9h5v2.3H229z"/>
	<path style="opacity:0.2;fill:#FFFFFF;enable-background:new    ;" d="M221.8,272.8h1.4c1.1,0,1.7-0.5,1.7-1.6c0-0.4-0.1-0.8-0.4-1
		c-0.3-0.3-0.6-0.4-1.1-0.4c-0.4,0-0.7,0.1-1,0.3s-0.4,0.5-0.4,0.9h-3c0-0.7,0.2-1.3,0.6-1.8s0.9-0.9,1.6-1.2s1.4-0.4,2.2-0.4
		c1.4,0,2.5,0.3,3.4,1s1.2,1.5,1.2,2.7c0,0.6-0.2,1.1-0.5,1.6s-0.8,0.9-1.5,1.2c0.7,0.2,1.2,0.6,1.6,1.1c0.4,0.5,0.6,1.1,0.6,1.9
		c0,1.1-0.4,2.1-1.3,2.7s-2,1-3.5,1c-0.8,0-1.6-0.2-2.3-0.5s-1.3-0.8-1.6-1.3c-0.4-0.6-0.6-1.2-0.6-1.9h3c0,0.4,0.2,0.7,0.5,1
		s0.7,0.4,1.2,0.4s0.9-0.1,1.2-0.4s0.5-0.7,0.5-1.1c0-0.6-0.2-1.1-0.5-1.4s-0.8-0.4-1.3-0.4h-1.4v-2.4H221.8z"/>
	<path style="opacity:0.2;fill:#FFFFFF;enable-background:new    ;" d="M225.6,214.4h-3v-9.5l-2.9,0.9v-2.3l5.6-1.9h0.3L225.6,214.4
		L225.6,214.4z"/>
	
		<linearGradient id="SVGID_8_" gradientUnits="userSpaceOnUse" x1="185.65" y1="124.8516" x2="185.65" y2="142.6455" gradientTransform="matrix(1 0 0 -1 0 312)">
		<stop  offset="0" style="stop-color:#F8AF00"/>
		<stop  offset="1" style="stop-color:#F5F128"/>
	</linearGradient>
	<path style="fill:url(#SVGID_8_);" d="M191.7,176h-3.9l-0.4-1.5h-2.9l-0.6,0.5v6.5l0.6,0.5h2.9l0.4-1.5h3.9v2.7
		c-0.5,0.4-1,0.8-1.5,1.2s-1,0.8-1.5,1.2h-5.8l-3.4-2.8v-9.2l3.3-2.7h6.1l2.9,2.4v2.7H191.7z"/>
	
		<linearGradient id="SVGID_9_" gradientUnits="userSpaceOnUse" x1="201.15" y1="124.8516" x2="201.15" y2="142.6455" gradientTransform="matrix(1 0 0 -1 0 312)">
		<stop  offset="0" style="stop-color:#F8AF00"/>
		<stop  offset="1" style="stop-color:#F5F128"/>
	</linearGradient>
	<path style="fill:url(#SVGID_9_);" d="M208,185.6h-4.9l-0.4-1.2l-1.4,1.2h-4.2l-3-2.5v-4l2.5-1.9l5.5-0.9v-1.4l-0.5-0.4h-2.9
		l-0.4,1.5h-3.9v-2.8l2.9-2.4h6.4l2.9,2.4v8.7l1.6,0.4v3.3H208z M198.5,180.8v0.8l0.5,0.4h2.5l0.5-0.4v-1.9l-3.2,0.7L198.5,180.8z"
		/>
	
		<linearGradient id="SVGID_10_" gradientUnits="userSpaceOnUse" x1="217.65" y1="124.8516" x2="217.65" y2="142.6455" gradientTransform="matrix(1 0 0 -1 0 312)">
		<stop  offset="0" style="stop-color:#F8AF00"/>
		<stop  offset="1" style="stop-color:#F5F128"/>
	</linearGradient>
	<path style="fill:url(#SVGID_10_);" d="M209.9,170.9h4.7l0.4,1.2l1.4-1.2h4.4l3,2.5v8.6l1.6,0.4v3.2h-6.9v-3.2l1-0.4v-7l-0.5-0.4
		h-2.5L216,175v7l1,0.4v3.2h-6.9v-3.2l1.6-0.4v-7.4l-1.6-0.4v-3.3H209.9z"/>
	
		<linearGradient id="SVGID_11_" gradientUnits="userSpaceOnUse" x1="233.85" y1="124.8516" x2="233.85" y2="142.6455" gradientTransform="matrix(1 0 0 -1 0 312)">
		<stop  offset="0" style="stop-color:#F8AF00"/>
		<stop  offset="1" style="stop-color:#F5F128"/>
	</linearGradient>
	<path style="fill:url(#SVGID_11_);" d="M240,183.1l-3,2.5h-6.4l-2.9-2.4v-9.8l3-2.5h6.3l3,2.5v4l-2.5,1.9l-5.5,0.9v1.4l0.5,0.4h3
		l0.4-1.5h3.9v2.6H240z M235.6,175.7V175l-0.5-0.4h-2.5L232,175v1.7l3.2-0.5L235.6,175.7z"/>
	
		<linearGradient id="SVGID_12_" gradientUnits="userSpaceOnUse" x1="248.8" y1="124.8516" x2="248.8" y2="142.6455" gradientTransform="matrix(1 0 0 -1 0 312)">
		<stop  offset="0" style="stop-color:#F8AF00"/>
		<stop  offset="1" style="stop-color:#F5F128"/>
	</linearGradient>
	<path style="fill:url(#SVGID_12_);" d="M248.3,174.5v7.5h3.5l0.4-2h3.1v5.6h-13v-3.2l1.6-0.4v-7.5l-1.6-0.4v-3.2h7.7v3.2
		L248.3,174.5z"/>
	
		<linearGradient id="SVGID_13_" gradientUnits="userSpaceOnUse" x1="263.3" y1="124.8516" x2="263.3" y2="142.6455" gradientTransform="matrix(1 0 0 -1 0 312)">
		<stop  offset="0" style="stop-color:#F8AF00"/>
		<stop  offset="1" style="stop-color:#F5F128"/>
	</linearGradient>
	<path style="fill:url(#SVGID_13_);" d="M267.9,184.3c-0.5,0.4-1.1,0.9-1.6,1.3h-6l-3.2-2.6v-9.5l3.1-2.6h6.2l3.1,2.6v9.5
		C268.9,183.4,268.4,183.8,267.9,184.3z M262,174.5l-0.6,0.4v6.5l0.6,0.5h2.5l0.6-0.5V175l-0.6-0.4H262V174.5z"/>
</g>
<g id="line-to-animate">
	<polygon style="fill:none;stroke:#F7CD12;stroke-width:3;stroke-miterlimit:10;" points="304,254.9 168,231.9 146,177.7 147,98.9 
		224.5,131.9 305,99.9 303,177.7 	"/>
</g>
</svg>
