<?xml version="1.0" encoding="utf-8"?>
<!-- Generator: Adobe Illustrator 20.1.0, SVG Export Plug-In . SVG Version: 6.00 Build 0)  -->
<svg version="1.1" id="svg-inside" xmlns="http://www.w3.org/2000/svg" xmlns:xlink="http://www.w3.org/1999/xlink" x="0px" y="0px"
	 viewBox="0 0 36 36" style="enable-background:new 0 0 36 36;" xml:space="preserve">
<g>
	<path style="fill:#FFFFFF;" d="M24.3,5.5l-3.3,0c-3.7,0-6,2.4-6,6.2v2.8h-3.3c-0.3,0-0.5,0.2-0.5,0.5v4.1c0,0.3,0.2,0.5,0.5,0.5H15
		V30c0,0.3,0.2,0.5,0.5,0.5h4.3c0.3,0,0.5-0.2,0.5-0.5V19.6h3.8c0.3,0,0.5-0.2,0.5-0.5l0-4.1c0-0.1-0.1-0.3-0.2-0.4
		c-0.1-0.1-0.2-0.1-0.4-0.1h-3.8v-2.4c0-1.2,0.3-1.8,1.8-1.8l2.2,0c0.3,0,0.5-0.2,0.5-0.5V6C24.8,5.7,24.6,5.5,24.3,5.5L24.3,5.5z
		 M24.3,5.5"/>
</g>
</svg>
