<?xml version="1.0" encoding="utf-8"?>
<!-- Generator: Adobe Illustrator 20.1.0, SVG Export Plug-In . SVG Version: 6.00 Build 0)  -->
<svg version="1.1" id="Layer_1" xmlns="http://www.w3.org/2000/svg" xmlns:xlink="http://www.w3.org/1999/xlink" x="0px" y="0px"
	 viewBox="0 0 54.8 57" style="enable-background:new 0 0 54.8 57;" xml:space="preserve">
<g>
	<g>
		<linearGradient id="SVGID_1_" gradientUnits="userSpaceOnUse" x1="26.9178" y1="54.5647" x2="20.1908" y2="17.6451">
			<stop  offset="0" style="stop-color:#F8AF00"/>
			<stop  offset="1" style="stop-color:#F5F128"/>
		</linearGradient>
		<path style="fill:url(#SVGID_1_);" d="M43.7,50C30.4,40.6,17.6,30.5,5.3,19.8c-1.4-1.3-3.6,0.8-2.1,2.1
			c12.4,10.9,25.4,21.1,39,30.7C43.8,53.7,45.3,51.1,43.7,50L43.7,50z"/>
	</g>
</g>
<g>
	<g>
		<linearGradient id="SVGID_2_" gradientUnits="userSpaceOnUse" x1="34.0976" y1="40.7787" x2="26.9758" y2="1.6921">
			<stop  offset="0" style="stop-color:#F8AF00"/>
			<stop  offset="1" style="stop-color:#F5F128"/>
		</linearGradient>
		<path style="fill:url(#SVGID_2_);" d="M46.7,37C34.4,27.9,24.2,16.5,16.5,3.3c-1-1.7-3.6-0.2-2.6,1.5c8,13.7,18.6,25.4,31.3,34.8
			C46.7,40.7,48.2,38.1,46.7,37L46.7,37z"/>
	</g>
</g>
</svg>
