<?xml version="1.0" encoding="utf-8"?>
<!-- Generator: Adobe Illustrator 20.1.0, SVG Export Plug-In . SVG Version: 6.00 Build 0)  -->
<svg version="1.1" id="Layer_1" xmlns="http://www.w3.org/2000/svg" xmlns:xlink="http://www.w3.org/1999/xlink" x="0px" y="0px"
	 viewBox="0 0 138.7 123.7" style="enable-background:new 0 0 138.7 123.7;" xml:space="preserve">
<g>
	<g>
		<linearGradient id="SVGID_1_" gradientUnits="userSpaceOnUse" x1="80.2964" y1="106.606" x2="63.9871" y2="17.0947">
			<stop  offset="0" style="stop-color:#F8AF00"/>
			<stop  offset="1" style="stop-color:#F5F128"/>
		</linearGradient>
		<path style="fill:url(#SVGID_1_);" d="M131.6,3.9c-22.6,22.3-48,41.5-75.6,57c-1.2,0.7-0.8,2.9,0.8,2.8c12.6-1,25.2-2,37.7-3.1
			c-0.4-0.9-0.7-1.7-1.1-2.6c-26.6,21-54.2,40.8-82.7,59.3c-1.6,1-0.1,3.6,1.5,2.6c28.7-18.6,56.4-38.6,83.3-59.7
			c1-0.8,0.2-2.7-1.1-2.6c-12.6,1-25.2,2-37.7,3.1c0.3,0.9,0.5,1.9,0.8,2.8c27.9-15.7,53.5-35,76.2-57.5
			C135.1,4.7,133,2.6,131.6,3.9L131.6,3.9z"/>
	</g>
</g>
</svg>
