<?xml version="1.0" encoding="utf-8"?>
<!-- Generator: Adobe Illustrator 20.1.0, SVG Export Plug-In . SVG Version: 6.00 Build 0)  -->
<svg version="1.1" id="Layer_1" xmlns="http://www.w3.org/2000/svg" xmlns:xlink="http://www.w3.org/1999/xlink" x="0px" y="0px"
	 viewBox="0 0 103 113" style="enable-background:new 0 0 103 113;" xml:space="preserve">
<g>
	<g>
		<g>
			<linearGradient id="SVGID_1_" gradientUnits="userSpaceOnUse" x1="1.9074" y1="68.2234" x2="80.8232" y2="68.2234">
				<stop  offset="0" style="stop-color:#F8AF00"/>
				<stop  offset="1" style="stop-color:#F5F128"/>
			</linearGradient>
			<path style="fill:url(#SVGID_1_);" d="M25.6,56.2c0.2-9.2,0.4-18.4,0.6-27.6c-0.9,0.3-1.9,0.5-2.8,0.8c3.3,4.7,6.6,9.3,10,13.9
				c2.4,3.2,4.7,7.5,7.9,9.9c2.6,1.9,5.1,1,7.8-0.2c5.4-2.3,10.7-4.8,16.1-7.2c-0.7-0.7-1.4-1.4-2.1-2.1c-2.6,5.8-5.9,11.2-10,16.1
				c-0.7,0.9-0.5,2.1,0.7,2.5c8.7,2.9,16.9,6.7,24.7,11.5c0.3-0.9,0.5-1.9,0.8-2.8c-6.8,0.7-13.6,1.4-20.4,2.1
				c-0.9,0.1-1.8,0.9-1.4,1.9c3.6,11.6,8.3,22.8,14.1,33.4c0.8-0.6,1.6-1.2,2.4-1.8c-9.3-8.1-19.6-14.8-30.7-20.1
				c-0.8-0.4-1.6-0.2-2.1,0.5c-2.7,3.9-5.3,7.8-8,11.7c0.9,0.3,1.9,0.5,2.8,0.8c-0.5-5.1-1.1-10.2-1.6-15.3c-0.3-2.6,0-5.9-2.3-7.6
				c-3-2.2-8.7-2.4-12.3-3.2C14.5,72.2,9.2,71,4,69.8c0,1,0,1.9,0,2.9c10.1-4.1,20.2-8.1,30.3-12.2c1.8-0.7,1-3.6-0.8-2.9
				c-10.1,4.1-20.2,8.1-30.3,12.2c-1.3,0.5-1.6,2.5,0,2.9c7.5,1.7,14.9,3.5,22.4,5.2c3.2,0.7,4.4,0.4,5.6,4.5
				c0.5,1.7,0.4,3.9,0.6,5.7c0.4,3.8,0.8,7.7,1.2,11.5c0.2,1.5,1.9,2,2.8,0.8c2.7-3.9,5.3-7.8,8-11.7c-0.7,0.2-1.4,0.4-2.1,0.5
				c10.9,5.2,20.9,11.7,30.1,19.6c1.3,1.1,3.2-0.3,2.4-1.8c-5.7-10.4-10.3-21.4-13.8-32.7c-0.5,0.6-1,1.3-1.4,1.9
				c6.8-0.7,13.6-1.4,20.4-2.1c1.4-0.1,2.1-2,0.8-2.8c-8-4.9-16.5-8.8-25.4-11.8c0.2,0.8,0.4,1.7,0.7,2.5
				c4.2-5.1,7.7-10.6,10.4-16.7c0.6-1.4-0.6-2.7-2.1-2.1c-3.4,1.5-6.8,3.1-10.2,4.6c-1.6,0.7-3.4,1.8-5.1,2.3
				c-5.9,1.7-6.4-0.3-9-3.7c-4.6-6-9.1-12.2-13.5-18.4c-0.8-1.2-2.8-0.8-2.8,0.8c-0.2,9.2-0.4,18.4-0.6,27.6
				C22.6,58.2,25.6,58.2,25.6,56.2L25.6,56.2z"/>
		</g>
	</g>
	<g>
		<g>
			<linearGradient id="SVGID_2_" gradientUnits="userSpaceOnUse" x1="24.689" y1="68.1725" x2="35.1992" y2="68.1725">
				<stop  offset="0" style="stop-color:#F8AF00"/>
				<stop  offset="1" style="stop-color:#F5F128"/>
			</linearGradient>
			<path style="fill:url(#SVGID_2_);" d="M33.2,43.2c-0.6,16.9-3.8,33.5-9.5,49.5c-0.6,1.8,2.3,2.6,2.9,0.8
				c5.7-16.2,8.9-33.1,9.6-50.3C36.3,41.3,33.3,41.3,33.2,43.2L33.2,43.2z"/>
		</g>
	</g>
</g>
<g>
	<g>
		<linearGradient id="SVGID_3_" gradientUnits="userSpaceOnUse" x1="53.0024" y1="18.4782" x2="50.6829" y2="5.7477">
			<stop  offset="0" style="stop-color:#F8AF00"/>
			<stop  offset="1" style="stop-color:#F5F128"/>
		</linearGradient>
		<path style="fill:url(#SVGID_3_);" d="M53,18.7c-0.5-4.3-0.3-8.5,0.6-12.6c0.4-1.9-2.5-2.7-2.9-0.8c-1,4.5-1.2,8.9-0.7,13.4
			C50.2,20.6,53.2,20.6,53,18.7L53,18.7z"/>
	</g>
</g>
<g>
	<g>
		<linearGradient id="SVGID_4_" gradientUnits="userSpaceOnUse" x1="89.5754" y1="35.4788" x2="89.3101" y2="34.0225">
			<stop  offset="0" style="stop-color:#F8AF00"/>
			<stop  offset="1" style="stop-color:#F5F128"/>
		</linearGradient>
		<path style="fill:url(#SVGID_4_);" d="M85.8,37.2c2.7-0.6,5.3-1.3,8-1.9c1.9-0.5,1.1-3.3-0.8-2.9c-2.7,0.6-5.3,1.3-8,1.9
			C83.2,34.7,84,37.6,85.8,37.2L85.8,37.2z"/>
	</g>
</g>
<g>
	<g>
		<linearGradient id="SVGID_5_" gradientUnits="userSpaceOnUse" x1="94.1524" y1="66.4088" x2="93.7226" y2="64.0495">
			<stop  offset="0" style="stop-color:#F8AF00"/>
			<stop  offset="1" style="stop-color:#F5F128"/>
		</linearGradient>
		<path style="fill:url(#SVGID_5_);" d="M92,66.2c1,0.3,2,0.7,3,1c0.8,0.3,1.6-0.3,1.8-1c0.2-0.8-0.3-1.6-1-1.8c-1-0.3-2-0.7-3-1
			c-0.8-0.3-1.6,0.3-1.8,1C90.8,65.1,91.3,65.9,92,66.2L92,66.2z"/>
	</g>
</g>
</svg>
