<?xml version="1.0" encoding="utf-8"?>
<!-- Generator: Adobe Illustrator 20.1.0, SVG Export Plug-In . SVG Version: 6.00 Build 0)  -->
<svg version="1.1" id="Layer_1" xmlns="http://www.w3.org/2000/svg" xmlns:xlink="http://www.w3.org/1999/xlink" x="0px" y="0px"
	 viewBox="0 0 92 73" style="enable-background:new 0 0 92 73;" xml:space="preserve">
<g>
	<g>
		<linearGradient id="SVGID_1_" gradientUnits="userSpaceOnUse" x1="52.4787" y1="73.8707" x2="39.0903" y2="0.3906">
			<stop  offset="0" style="stop-color:#F8AF00"/>
			<stop  offset="1" style="stop-color:#F5F128"/>
		</linearGradient>
		<path style="fill:url(#SVGID_1_);" d="M5.5,8.1c17,10.6,34.9,19.6,53.4,27.1c0.1-1,0.3-2,0.4-2.9c-9.1,1-18.1,1-27.2,0
			c-1.3-0.1-2,1.7-1.1,2.6c15.8,14.6,34,26,54,34.1c1.8,0.7,2.6-2.2,0.8-2.9c-19.4-7.8-37.2-19.1-52.6-33.3
			c-0.4,0.9-0.7,1.7-1.1,2.6c9.1,1,18.1,1,27.2,0c1.7-0.2,2-2.3,0.4-2.9C41.4,24.9,23.8,15.9,7,5.5C5.3,4.4,3.8,7,5.5,8.1L5.5,8.1z"
			/>
	</g>
</g>
</svg>
