<?xml version="1.0" encoding="utf-8"?>
<!-- Generator: Adobe Illustrator 20.1.0, SVG Export Plug-In . SVG Version: 6.00 Build 0)  -->
<svg version="1.1" xmlns="http://www.w3.org/2000/svg" xmlns:xlink="http://www.w3.org/1999/xlink" x="0px" y="0px"
	 viewBox="0 0 364 278" style="enable-background:new 0 0 364 278;" xml:space="preserve">
<g style="opacity:0.2;">
	
		<line class="s-6__svg--draw3" style="fill:none;stroke:#FFFFFF;stroke-width:1.5;stroke-linecap:round;stroke-linejoin:round;stroke-miterlimit:10;" x1="358.3" y1="5" x2="357" y2="14"/>
	
		<line class="s-6__svg--draw3" style="fill:none;stroke:#FFFFFF;stroke-width:1.5;stroke-linecap:round;stroke-linejoin:round;stroke-miterlimit:10;" x1="354.9" y1="22.6" x2="352.1" y2="31.3"/>
	
		<line class="s-6__svg--draw3" style="fill:none;stroke:#FFFFFF;stroke-width:1.5;stroke-linecap:round;stroke-linejoin:round;stroke-miterlimit:10;" x1="348.5" y1="39.5" x2="344.2" y2="47.3"/>
	<path class="s-6__svg--draw3" style="fill:none;stroke:#FFFFFF;stroke-width:1.5;stroke-linecap:round;stroke-linejoin:round;stroke-miterlimit:10;" d="
		M339,54.6c0,0-4.1,5.2-6.2,6.9"/>
	<path class="s-6__svg--draw3" style="fill:none;stroke:#FFFFFF;stroke-width:1.5;stroke-linecap:round;stroke-linejoin:round;stroke-miterlimit:10;" d="
		M326.1,67.1c0,0-4.7,3.7-7.6,5.1"/>
	<path class="s-6__svg--draw3" style="fill:none;stroke:#FFFFFF;stroke-width:1.5;stroke-linecap:round;stroke-linejoin:round;stroke-miterlimit:10;" d="
		M310.3,76c0,0-4.5,2-8.4,3"/>
	<path class="s-6__svg--draw3" style="fill:none;stroke:#FFFFFF;stroke-width:1.5;stroke-linecap:round;stroke-linejoin:round;stroke-miterlimit:10;" d="
		M293.1,80.8c0,0-1.9,0.7-9,1.1"/>
	<path class="s-6__svg--draw3" style="fill:none;stroke:#FFFFFF;stroke-width:1.5;stroke-linecap:round;stroke-linejoin:round;stroke-miterlimit:10;" d="
		M275.2,82.1c0,0-7-0.2-8.9-0.5"/>
	
		<line class="s-6__svg--draw3" style="fill:none;stroke:#FFFFFF;stroke-width:1.5;stroke-linecap:round;stroke-linejoin:round;stroke-miterlimit:10;" x1="257.3" y1="80.5" x2="248.3" y2="79"/>
	
		<line class="s-6__svg--draw3" style="fill:none;stroke:#FFFFFF;stroke-width:1.5;stroke-linecap:round;stroke-linejoin:round;stroke-miterlimit:10;" x1="239.6" y1="77.5" x2="230.5" y2="76.2"/>
	
		<line class="s-6__svg--draw3" style="fill:none;stroke:#FFFFFF;stroke-width:1.5;stroke-linecap:round;stroke-linejoin:round;stroke-miterlimit:10;" x1="221.8" y1="74.8" x2="212.7" y2="73.5"/>
	
		<line class="s-6__svg--draw3" style="fill:none;stroke:#FFFFFF;stroke-width:1.5;stroke-linecap:round;stroke-linejoin:round;stroke-miterlimit:10;" x1="204" y1="72.4" x2="194.8" y2="71.3"/>
	
		<line class="s-6__svg--draw3" style="fill:none;stroke:#FFFFFF;stroke-width:1.5;stroke-linecap:round;stroke-linejoin:round;stroke-miterlimit:10;" x1="186" y1="70.6" x2="177" y2="70"/>
	
		<line class="s-6__svg--draw3" style="fill:none;stroke:#FFFFFF;stroke-width:1.5;stroke-linecap:round;stroke-linejoin:round;stroke-miterlimit:10;" x1="168" y1="69.8" x2="159" y2="69.7"/>
	<path class="s-6__svg--draw3" style="fill:none;stroke:#FFFFFF;stroke-width:1.5;stroke-linecap:round;stroke-linejoin:round;stroke-miterlimit:10;" d="
		M150,70.2c0,0-5.4,0.2-8.9,0.9"/>
	
		<line class="s-6__svg--draw3" style="fill:none;stroke:#FFFFFF;stroke-width:1.5;stroke-linecap:round;stroke-linejoin:round;stroke-miterlimit:10;" x1="132.2" y1="72.5" x2="123.4" y2="74.8"/>
	
		<line class="s-6__svg--draw3" style="fill:none;stroke:#FFFFFF;stroke-width:1.5;stroke-linecap:round;stroke-linejoin:round;stroke-miterlimit:10;" x1="115" y1="77.5" x2="106.8" y2="81.1"/>
	
		<line class="s-6__svg--draw3" style="fill:none;stroke:#FFFFFF;stroke-width:1.5;stroke-linecap:round;stroke-linejoin:round;stroke-miterlimit:10;" x1="98.8" y1="85.3" x2="91.3" y2="90.4"/>
	<path class="s-6__svg--draw3" style="fill:none;stroke:#FFFFFF;stroke-width:1.5;stroke-linecap:round;stroke-linejoin:round;stroke-miterlimit:10;" d="
		M84,95.8c0,0-5.5,5-6.6,6.2"/>
	<path class="s-6__svg--draw3" style="fill:none;stroke:#FFFFFF;stroke-width:1.5;stroke-linecap:round;stroke-linejoin:round;stroke-miterlimit:10;" d="
		M71.2,108.2c0,0-5.4,5.8-6.1,6.9"/>
	<path class="s-6__svg--draw3" style="fill:none;stroke:#FFFFFF;stroke-width:1.5;stroke-linecap:round;stroke-linejoin:round;stroke-miterlimit:10;" d="
		M62.4,118.5c0,0-5.1,6.6-6.8,8.8"/>
	<path class="s-6__svg--draw3" style="fill:none;stroke:#FFFFFF;stroke-width:1.5;stroke-linecap:round;stroke-linejoin:round;stroke-miterlimit:10;" d="
		M59.9,137.4c0,0-39.3-18.3-51,15.6s4.8,54.5,39.8,52.9s34-41.1,31.1-48.6s-8.4-22.5-26.8-27.9"/>
	<path class="s-6__svg--draw3" style="fill:none;stroke:#FFFFFF;stroke-width:1.5;stroke-linecap:round;stroke-linejoin:round;stroke-miterlimit:10;" d="
		M25.1,206c0,0-1.8,8.8-1.8,11.2"/>
	<path class="s-6__svg--draw3" style="fill:none;stroke:#FFFFFF;stroke-width:1.5;stroke-linecap:round;stroke-linejoin:round;stroke-miterlimit:10;" d="
		M22.7,220.4c0,0-1.2,8.5-2.1,10.9"/>
	
		<line class="s-6__svg--draw3" style="fill:none;stroke:#FFFFFF;stroke-width:1.5;stroke-linecap:round;stroke-linejoin:round;stroke-miterlimit:10;" x1="20" y1="234" x2="17.9" y2="243.4"/>
	
		<line class="s-6__svg--draw3" style="fill:none;stroke:#FFFFFF;stroke-width:1.5;stroke-linecap:round;stroke-linejoin:round;stroke-miterlimit:10;" x1="17.1" y1="249.6" x2="15.3" y2="258"/>
	
		<line class="s-6__svg--draw3" style="fill:none;stroke:#FFFFFF;stroke-width:1.5;stroke-linecap:round;stroke-linejoin:round;stroke-miterlimit:10;" x1="14.6" y1="262.6" x2="13.1" y2="269.9"/>
</g>
</svg>
