<?xml version="1.0" encoding="utf-8"?>
<!-- Generator: Adobe Illustrator 20.1.0, SVG Export Plug-In . SVG Version: 6.00 Build 0)  -->
<svg version="1.1" xmlns="http://www.w3.org/2000/svg" xmlns:xlink="http://www.w3.org/1999/xlink" x="0px" y="0px"
	 viewBox="0 0 28 132" style="enable-background:new 0 0 28 132;" xml:space="preserve">
<g id="line-anim">
	<path class="s-6__svg--draw1" style="fill:none;stroke:#FFFFFF;stroke-width:1.5;stroke-linecap:round;stroke-linejoin:round;stroke-miterlimit:10;" d="
		M10.7,2.7c0,0-2.2,6-3.3,10.8"/>
	<path class="s-6__svg--draw1" style="fill:none;stroke:#FFFFFF;stroke-width:1.5;stroke-linecap:round;stroke-linejoin:round;stroke-miterlimit:10;" d="
		M5.6,23.3c0,0-1,5.9-1,9.4"/>
	<path class="s-6__svg--draw1" style="fill:none;stroke:#FFFFFF;stroke-width:1.5;stroke-linecap:round;stroke-linejoin:round;stroke-miterlimit:10;" d="
		M4.3,42.1c0,0,0,6.6,0.1,8.9"/>
	<path class="s-6__svg--draw1" style="fill:none;stroke:#FFFFFF;stroke-width:1.5;stroke-linecap:round;stroke-linejoin:round;stroke-miterlimit:10;" d="
		M5.4,59.6c0,0,0.5,5.3,1.2,9.6"/>
	<path class="s-6__svg--draw1" style="fill:none;stroke:#FFFFFF;stroke-width:1.5;stroke-linecap:round;stroke-linejoin:round;stroke-miterlimit:10;" d="
		M8.6,78.1c0,0,1,4,1.9,7.1"/>
	<path class="s-6__svg--draw1" style="fill:none;stroke:#FFFFFF;stroke-width:1.5;stroke-linecap:round;stroke-linejoin:round;stroke-miterlimit:10;" d="
		M13.7,100.5c-0.5-2.6-1.6-8.4-1.6-8.4"/>
	<path class="s-6__svg--draw1" style="fill:none;stroke:#FFFFFF;stroke-width:1.5;stroke-linecap:round;stroke-linejoin:round;stroke-miterlimit:10;" d="
		M15.3,107.8c0,0,1.1,6.6,1.8,9.2"/>
	<path class="s-6__svg--draw1" style="fill:none;stroke:#FFFFFF;stroke-width:1.5;stroke-linecap:round;stroke-linejoin:round;stroke-miterlimit:10;" d="
		M12.8,123.7c0,0,5.3,2.6,7,3.7s2-1.5,2-1.5l1.8-6.9"/>
</g>
</svg>
