<?xml version="1.0" encoding="utf-8"?>
<!-- Generator: Adobe Illustrator 20.1.0, SVG Export Plug-In . SVG Version: 6.00 Build 0)  -->
<svg version="1.1" xmlns="http://www.w3.org/2000/svg" xmlns:xlink="http://www.w3.org/1999/xlink" x="0px" y="0px"
	 viewBox="0 0 95 193" style="enable-background:new 0 0 95 193;" xml:space="preserve">
<g id="line-amin">
	
		<line class="s-6__svg--draw2" style="fill:none;stroke:#FFFFFF;stroke-width:1.5;stroke-linecap:round;stroke-linejoin:round;stroke-miterlimit:10;" x1="91.4" y1="4.3" x2="89.8" y2="8.4"/>
	
		<line class="s-6__svg--draw2" style="fill:none;stroke:#FFFFFF;stroke-width:1.5;stroke-linecap:round;stroke-linejoin:round;stroke-miterlimit:10;" x1="87.5" y1="13.9" x2="84.2" y2="20.6"/>
	
		<line class="s-6__svg--draw2" style="fill:none;stroke:#FFFFFF;stroke-width:1.5;stroke-linecap:round;stroke-linejoin:round;stroke-miterlimit:10;" x1="80.6" y1="25.8" x2="76.3" y2="31.6"/>
	
		<line class="s-6__svg--draw2" style="fill:none;stroke:#FFFFFF;stroke-width:1.5;stroke-linecap:round;stroke-linejoin:round;stroke-miterlimit:10;" x1="71.3" y1="36.4" x2="66.1" y2="40.6"/>

		<path class="s-6__svg--draw2" style="fill:none;stroke:#FFFFFF;stroke-width:1.5;stroke-linecap:round;stroke-linejoin:round;stroke-miterlimit:10;" d="
			M60.1,43.9c0,0-4.3,2.2-6.4,2.7"/>
		<path class="s-6__svg--draw2" style="fill:none;stroke:#FFFFFF;stroke-width:1.5;stroke-linecap:round;stroke-linejoin:round;stroke-miterlimit:10;" d="
			M46.9,48.1c0,0-4,0.5-6.9,0.5"/>
		<path class="s-6__svg--draw2" style="fill:none;stroke:#FFFFFF;stroke-width:1.5;stroke-linecap:round;stroke-linejoin:round;stroke-miterlimit:10;" d="
			M33.2,48.3c0,0-5.7-0.9-6.6-1.3"/>
		<path class="s-6__svg--draw2" style="fill:none;stroke:#FFFFFF;stroke-width:1.5;stroke-linecap:round;stroke-linejoin:round;stroke-miterlimit:10;" d="
			M20,45.2c0,0-5.6-2.2-6.7-2.8"/>
		<path class="s-6__svg--draw2" style="fill:none;stroke:#FFFFFF;stroke-width:1.5;stroke-linecap:round;stroke-linejoin:round;stroke-miterlimit:10;" d="
			M7.9,39c0,0-3.6-2.9-4.2-5.8"/>
		<path class="s-6__svg--draw2" style="fill:none;stroke:#FFFFFF;stroke-width:1.5;stroke-linecap:round;stroke-linejoin:round;stroke-miterlimit:10;" d="
			M3.7,26.9c0,0,1.9-4.4,4.5-6.1"/>
		<path class="s-6__svg--draw2" style="fill:none;stroke:#FFFFFF;stroke-width:1.5;stroke-linecap:round;stroke-linejoin:round;stroke-miterlimit:10;" d="
			M13.2,17.2c0,0,2.4-1.6,6.8-2.9"/>
		<path class="s-6__svg--draw2" style="fill:none;stroke:#FFFFFF;stroke-width:1.5;stroke-linecap:round;stroke-linejoin:round;stroke-miterlimit:10;" d="
			M26.3,13.4c0,0,4.5-0.1,7.2,1.4"/>
		<path class="s-6__svg--draw2" style="fill:none;stroke:#FFFFFF;stroke-width:1.5;stroke-linecap:round;stroke-linejoin:round;stroke-miterlimit:10;" d="
			M38.4,18.7c0,0,2.2,1.9,2.9,6.6"/>
	
		<line class="s-6__svg--draw2" style="fill:none;stroke:#FFFFFF;stroke-width:1.5;stroke-linecap:round;stroke-linejoin:round;stroke-miterlimit:10;" x1="41.7" y1="31.7" x2="42.2" y2="38.8"/>
	
		<line class="s-6__svg--draw2" style="fill:none;stroke:#FFFFFF;stroke-width:1.5;stroke-linecap:round;stroke-linejoin:round;stroke-miterlimit:10;" x1="42.3" y1="45.5" x2="42.2" y2="52.5"/>
	
		<line class="s-6__svg--draw2" style="fill:none;stroke:#FFFFFF;stroke-width:1.5;stroke-linecap:round;stroke-linejoin:round;stroke-miterlimit:10;" x1="42.1" y1="59.2" x2="41.9" y2="66.1"/>

		<path class="s-6__svg--draw2" style="fill:none;stroke:#FFFFFF;stroke-width:1.5;stroke-linecap:round;stroke-linejoin:round;stroke-miterlimit:10;" d="
			M41.9,72.9c0,0,0.5,5.3,1.1,7.1"/>
		<path class="s-6__svg--draw2" style="fill:none;stroke:#FFFFFF;stroke-width:1.5;stroke-linecap:round;stroke-linejoin:round;stroke-miterlimit:10;" d="
			M45,86.3c0,0,2.4,5.3,3.2,6.3"/>
		<path class="s-6__svg--draw2" style="fill:none;stroke:#FFFFFF;stroke-width:1.5;stroke-linecap:round;stroke-linejoin:round;stroke-miterlimit:10;" d="
			M50.5,98.9c0,0,1,2.7,1.3,7"/>
	
		<line class="s-6__svg--draw2" style="fill:none;stroke:#FFFFFF;stroke-width:1.5;stroke-linecap:round;stroke-linejoin:round;stroke-miterlimit:10;" x1="51.9" y1="112.5" x2="51.7" y2="119.4"/>
	
		<line class="s-6__svg--draw2" style="fill:none;stroke:#FFFFFF;stroke-width:1.5;stroke-linecap:round;stroke-linejoin:round;stroke-miterlimit:10;" x1="51.3" y1="126.2" x2="51.5" y2="133.3"/>

		<path class="s-6__svg--draw2" style="fill:none;stroke:#FFFFFF;stroke-width:1.5;stroke-linecap:round;stroke-linejoin:round;stroke-miterlimit:10;" d="
			M52.1,140c0,0,0.9,5.6,1.3,6.8"/>
	
		<line class="s-6__svg--draw2" style="fill:none;stroke:#FFFFFF;stroke-width:1.5;stroke-linecap:round;stroke-linejoin:round;stroke-miterlimit:10;" x1="55.2" y1="153.4" x2="57.5" y2="159.8"/>
	
		<line class="s-6__svg--draw2" style="fill:none;stroke:#FFFFFF;stroke-width:1.5;stroke-linecap:round;stroke-linejoin:round;stroke-miterlimit:10;" x1="60.2" y1="166.1" x2="63" y2="172.3"/>
	
		<line class="s-6__svg--draw2" style="fill:none;stroke:#FFFFFF;stroke-width:1.5;stroke-linecap:round;stroke-linejoin:round;stroke-miterlimit:10;" x1="66.1" y1="178.3" x2="69.6" y2="184.3"/>
	
		<polyline class="s-6__svg--draw2" style="fill:none;stroke:#FFFFFF;stroke-width:1.5;stroke-linecap:round;stroke-linejoin:round;stroke-miterlimit:10;" points="
		67,189.3 73.5,189.7 73.9,183.7 	"/>

		<path class="s-6__svg--draw2" style="fill:none;stroke:#FFFFFF;stroke-width:1.5;stroke-linecap:round;stroke-linejoin:round;stroke-miterlimit:10;" d="
			M65.5,173.4"/>
</g>
</svg>
