<?xml version="1.0" encoding="utf-8"?>
<!-- Generator: Adobe Illustrator 21.1.0, SVG Export Plug-In . SVG Version: 6.00 Build 0)  -->
<svg version="1.1" class="s-1__svg-inside" xmlns="http://www.w3.org/2000/svg" xmlns:xlink="http://www.w3.org/1999/xlink" x="0px" y="0px"
	 viewBox="0 0 56 56" style="enable-background:new 0 0 56 56;" xml:space="preserve">
            <path class="s-1__svg-inside__path1" stlye="fill:#111111;" d="M34.3,29.6l-8.9,6.3l0-16.8l8.9,6.3C35.8,26.4,35.8,28.6,34.3,29.6z"/>
            <path class="s-1__svg-inside__path2" stlye="fill:#111111;" d="M25.9,19.5l0,16.1l-1.2,0.9c-1.7,1.2-4.1,0-4.1-2.2V20.7c0-2.1,2.4-3.3,4.1-2.1
        L25.9,19.5z"/>
            <path class="s-1__svg-inside__start1" stlye="fill:#111111;" d="M34.3,29.6l-8.9,6.3l0-16.8l8.9,6.3C35.8,26.4,35.8,28.6,34.3,29.6z"/>
            <path class="s-1__svg-inside__start2" stlye="fill:#111111;" d="M25.9,19.5l0,16.1l-1.2,0.9c-1.7,1.2-4.1,0-4.1-2.2V20.7c0-2.1,2.4-3.3,4.1-2.1
        L25.9,19.5z"/>
            <path class="s-1__svg-inside__end1" d="M51.3,39.7c-1.1,0.9-2.1,1.8-3.2,2.6h-12L29.8,37V18l6.1-5.1h12.5l6.1,5.1v19C53.4,37.9,52.4,38.8,51.3,39.7z
                 M39.6,20.1L38.4,21v13.1l1.2,1h5.1l1.2-1V21l-1.1-0.9H39.6z"/>
            <path class="s-1__svg-inside__end2" d="M18.4,23.2l-0.8-3.1h-6.2l-1.2,1v13l1.3,1h4.9l1.3-1.1v-4h-3.9v-5h12.6v17.4h-6.6L18.8,40L16,42.3H8.3
                l-6.8-5.6V18.3L8,12.9h12.5l5.8,4.8v5.5H18.4z"/>
        </svg>
