<?xml version="1.0" encoding="utf-8"?>
<!-- Generator: Adobe Illustrator 20.1.0, SVG Export Plug-In . SVG Version: 6.00 Build 0)  -->
<svg version="1.1" xmlns="http://www.w3.org/2000/svg" xmlns:xlink="http://www.w3.org/1999/xlink" x="0px" y="0px"
	 viewBox="0 0 206.5 97" style="enable-background:new 0 0 206.5 97;" xml:space="preserve">
<g id="Content-7">
</g>
<g id="Content-6">
</g>
<g id="Content-5">
</g>
<g id="Content-4">
</g>
<g id="Content-3">
</g>
<g id="Content-2">
</g>
<g id="Content-1">
	<g>
		<g id="kz_7_">
			<path style="fill:#FFFFFF;" d="M183.7,20.6l-0.3,0.2l-1.5,0.8c-0.3,0.2-0.5,0.6-0.5,1l0.1,0.3l0.4,1.4l0.1,0.3
				c0.1,0.3,0.4,0.3,0.7,0.2L184,24l0.3-0.2c0.3-0.1,0.4-0.6,0.3-0.7l-0.1-0.4l-0.4-1.4L184,21C184.1,20.6,183.9,20.5,183.7,20.6z"
				/>
			<path style="fill:#FFFFFF;" d="M191.9,6.6L189.4,8l0,0c-0.2,0.1-0.3,0.3-0.4,0.5l-0.1,0.3l-1.2,4.9l-1.1-3.2l-0.1-0.2
				c-0.1-0.3-0.4-0.3-0.7-0.2l0,0l-1.8,1l-0.4,0.2c-0.2,0.2-0.4,0.6-0.3,1l0,0.1l2.9,9.3l0.2,0.5c0.1,0.2,0.3,0.3,0.5,0.2l0.3-0.2
				l1.7-0.9l0.4-0.2c0.2-0.2,0.3-0.5,0.2-0.8l-0.1-0.2l-0.3-1.2l0.6-2.2l2.3,1.9l0.2,0.2c0.3,0.2,0.7,0.2,1,0l2.3-1.3
				c0.3-0.2,0.2-0.6,0.2-0.7c0-0.1-0.2-0.2-0.2-0.2l-4.3-3.5l1.6-5.7l0,0c0-0.1,0.1-0.3,0-0.4C192.5,6.6,192.1,6.5,191.9,6.6z"/>
			<path style="fill:#FFFFFF;" d="M201.6,1.1l-7.7,4.4c-0.3,0.2-0.5,0.5-0.5,1l0.1,0.4l0.4,1.4l0,0.2c0.1,0.3,0.4,0.3,0.7,0.2l0,0
				l4-2.3l-2.9,7.7l0,0.1c0,0.1,0,0.2,0,0.4l0.1,0.4l0.4,1.3l0,0.1l0,0.1c0.1,0.3,0.4,0.3,0.7,0.2l0.1,0l7.6-4.3l0.2-0.1
				c0.3-0.1,0.4-0.5,0.4-0.8l-0.2-0.6l-0.4-1.1l-0.1-0.4c-0.2-0.1-0.4-0.2-0.6-0.1l-0.1,0l-3.7,2.1l2.5-7.7l-0.5-1.8l-0.1-0.3
				C202.2,1.1,201.9,1,201.6,1.1z"/>
		</g>
		<g>
			<g>
				<g>
					<g>
						<defs>
							<path id="SVGID_973_" d="M91,48.8l-0.2,0.1L67.2,62.3l0,0c-0.3,0.2-0.8,0.1-1-0.3c0,0,0,0,0,0l-0.1-0.3l-5.4-18.1l0-0.1
								c-0.1-0.3,0-0.7,0.1-0.9l0,0l0,0c0.1-0.1,0.1-0.2,0.2-0.2l0.1,0l0,0c0,0,0.1-0.1,0.2-0.1l29.2-16.6c0.1,0,0.1-0.1,0.2-0.1
								l0,0l0,0c0.1,0,0.2,0,0.3,0l0,0l0,0c0.2,0,0.4,0.2,0.5,0.4l0,0c0,0,0,0.1,0.1,0.1l0,0l5.4,18.2l0.1,0.3c0,0.2,0,0.3,0,0.5
								l0,0l0,0c-0.1,0.3-0.3,0.5-0.5,0.7l-0.1,0L91,48.8z"/>
						</defs>
						<clipPath id="SVGID_1_">
							<use xlink:href="#SVGID_973_"  style="overflow:visible;"/>
						</clipPath>
					</g>
					<g>
						<defs>
							<path id="SVGID_975_" d="M80.4,58.7L51.2,75.3c0,0-0.1,0-0.1,0.1l0,0l0,0c-0.4,0.3-0.5,0.8-0.4,1.2l0,0.1l5.4,18.1l0.1,0.3
								l0,0c0.2,0.3,0.6,0.5,1,0.3l0,0l29.2-16.5l0.1,0c0.1,0,0.1-0.1,0.1-0.1l0,0l0,0c0.3-0.3,0.5-0.7,0.4-1.1l-0.1-0.3l-5.4-18.2
								l0,0c0,0,0-0.1,0-0.1l0,0c-0.1-0.1-0.2-0.2-0.3-0.3l0,0l0,0c-0.1-0.1-0.2-0.1-0.3-0.1l0,0l0,0C80.7,58.6,80.6,58.6,80.4,58.7
								"/>
						</defs>
						<clipPath id="SVGID_2_">
							<use xlink:href="#SVGID_975_"  style="overflow:visible;"/>
						</clipPath>
					</g>
				</g>
			</g>
			<g>
				<g>
					<g>
						<g>
							<path style="fill:#FFFFFF;" d="M8.3,72.3L2,75.9c-0.5,0.3-0.7,0.9-0.5,1.4l0,0l5.4,18.2l0,0.2c0,0,0,0,0,0.1
								c0.2,0.3,0.6,0.5,1,0.3l5.2-3c0.2-0.2,0.3-0.4,0.3-0.7l-0.1-0.2l-1.6-5.4l2.9-1.7c3.6-2,4.9-5.8,3.5-9.7
								C16.4,70.5,12.4,70,8.3,72.3 M12.6,78.2c0.6,1.6-0.6,2.5-1.7,3.1l-0.6,0.4l-1-3.5l0.6-0.3C10.9,77.2,12.1,76.8,12.6,78.2z"/>
						</g>
					</g>
					<g>
						<g>
							<path style="fill:#FFFFFF;" d="M38.1,77.7l-11.5-15l-0.1-0.2c-0.2-0.2-0.5-0.3-0.8-0.1l-5.7,3.2c-0.2,0.2-0.4,0.5-0.4,0.7
								l0,0.4l0.8,20.7l0,0.4c0,0,0,0.1,0.1,0.1c0.2,0.3,0.6,0.5,1,0.3l0,0l5-2.9l0.1,0c0.2-0.1,0.3-0.3,0.3-0.4l-0.1-0.5l-0.2-2
								L31,80l0.9,1.3l0.3,0.5c0.2,0.1,0.5,0.2,0.7,0.1l5.2-2.9c0.3-0.2,0.4-0.6,0.3-0.9L38.1,77.7z M25.9,77.2l-0.7-6l0.1-0.1
								c1.3,1.9,3,4.7,3,4.7L25.9,77.2z"/>
						</g>
					</g>
					<g>
						<g>
							<path style="fill:#FFFFFF;" d="M40.9,53.8l-6.2,3.5c-0.4,0.3-0.6,0.8-0.5,1.3l0,0.1l5.4,18.1l0.1,0.3c0,0,0,0,0,0
								c0.2,0.3,0.6,0.5,0.9,0.3l5.2-3c0.3-0.2,0.4-0.5,0.4-0.8l0-0.1l-1.7-5.8c0,0,0,0,0.1-0.1c0.2-0.1,3.1,3.1,4.2,4.3
								c0.1,0.1,0.1,0.1,0.1,0.2c0.2,0.1,0.4,0.2,0.7,0.1l5.2-2.9c0.3-0.2,0.5-0.6,0.3-1c0,0,0,0,0-0.1c-0.1-0.1-0.1-0.1-0.2-0.2
								c-1.5-1.5-4.9-4.8-5.9-4.7c2.1-2.2,3.3-4.3,2.2-7.2C49.3,51.4,44.8,51.4,40.9,53.8 M45.4,59.5c0.5,1.5-0.6,2.5-1.9,3.1
								L43,62.9l-1-3.5l0.5-0.3C43.9,58.4,44.9,58,45.4,59.5z"/>
						</g>
					</g>
					<g>
						<path style="fill:#FFFFFF;" d="M56.5,44.9l-5,2.8c-0.5,0.3-0.7,0.8-0.6,1.3l0,0.1l5.4,18.1l0.1,0.2c0,0,0,0,0,0.1
							c0.2,0.3,0.6,0.4,0.9,0.3l5.1-2.9c0.3-0.2,0.5-0.6,0.5-1l-0.2-0.5l-5.4-18l0-0.1c0,0,0-0.1,0-0.1
							C57.2,44.9,56.8,44.8,56.5,44.9"/>
					</g>
					<g>
						<defs>
							<path id="SVGID_977_" d="M91,48.8l-0.2,0.1L67.2,62.3l0,0c-0.3,0.2-0.8,0.1-1-0.3c0,0,0,0,0,0l-0.1-0.3l-5.4-18.1l0-0.1
								c-0.1-0.3,0-0.7,0.1-0.9l0,0l0,0c0.1-0.1,0.1-0.2,0.2-0.2l0.1,0l0,0c0,0,0.1-0.1,0.2-0.1l29.2-16.6c0.1,0,0.1-0.1,0.2-0.1
								l0,0l0,0c0.1,0,0.2,0,0.3,0l0,0l0,0c0.2,0,0.4,0.2,0.5,0.4l0,0c0,0,0,0.1,0.1,0.1l0,0l5.4,18.2l0.1,0.3c0,0.2,0,0.3,0,0.5
								l0,0l0,0c-0.1,0.3-0.3,0.5-0.5,0.7l-0.1,0L91,48.8z"/>
						</defs>
						<clipPath id="SVGID_3_">
							<use xlink:href="#SVGID_977_"  style="overflow:visible;"/>
						</clipPath>
						
							<linearGradient id="SVGID_4_" gradientUnits="userSpaceOnUse" x1="-54.8986" y1="1346.6633" x2="-54.2349" y2="1346.6633" gradientTransform="matrix(52.0738 -29.5639 15.2579 26.8752 -17626.9609 -37761.0938)">
							<stop  offset="0" style="stop-color:#FFD900"/>
							<stop  offset="1" style="stop-color:#F8AF00"/>
						</linearGradient>
						<polygon style="clip-path:url(#SVGID_3_);fill:url(#SVGID_4_);" points="66.5,62.7 101.1,43.1 91,25.3 56.5,45 						"/>
					</g>
					<g>
						<defs>
							<path id="SVGID_980_" d="M80.4,58.7L51.2,75.3c0,0-0.1,0-0.1,0.1l0,0l0,0c-0.4,0.3-0.5,0.8-0.4,1.2l0,0.1l5.4,18.1l0.1,0.3
								l0,0c0.2,0.3,0.6,0.5,1,0.3l0,0l29.2-16.5l0.1,0c0.1,0,0.1-0.1,0.1-0.1l0,0l0,0c0.3-0.3,0.5-0.7,0.4-1.1l-0.1-0.3l-5.4-18.2
								l0,0c0,0,0-0.1,0-0.1l0,0c-0.1-0.1-0.2-0.2-0.3-0.3l0,0l0,0c-0.1-0.1-0.2-0.1-0.3-0.1l0,0l0,0C80.7,58.6,80.6,58.6,80.4,58.7
								"/>
						</defs>
						<clipPath id="SVGID_5_">
							<use xlink:href="#SVGID_980_"  style="overflow:visible;"/>
						</clipPath>
						
							<linearGradient id="SVGID_6_" gradientUnits="userSpaceOnUse" x1="-54.6873" y1="1346.2589" x2="-54.0237" y2="1346.2589" gradientTransform="matrix(52.0805 -29.5677 15.2467 26.8556 -17626.377 -37684.7344)">
							<stop  offset="0" style="stop-color:#FFD900"/>
							<stop  offset="1" style="stop-color:#F8AF00"/>
						</linearGradient>
						<polygon style="clip-path:url(#SVGID_5_);fill:url(#SVGID_6_);" points="56.6,95.7 91.1,76.1 81.1,58.3 46.5,77.9 						"/>
					</g>
					<g>
						<path style="fill:#FFFFFF;" d="M104.4,45.1L97.5,49c-0.3,0.2-0.5,0.5-0.6,0.9c0,0.1,0,0.2,0,0.3c0.1,2.6,0.4,10.2,0.5,11.1
							l-0.1,0.1l-5.3-8.3l-0.1-0.2c-0.2-0.2-0.5-0.3-0.8-0.2L85.2,56c-0.4,0.2-0.7,0.7-0.6,1.2l0.1,0.3l5.4,18.1l0,0.1
							c0,0,0,0.1,0,0.1c0.2,0.3,0.6,0.5,1,0.3l4.3-2.4c0.3-0.2,0.4-0.5,0.3-0.8l0-0.1l-3.1-10.4c0.3,0.7,4.2,6.8,5.5,8.8
							c0,0.1,0.1,0.1,0.1,0.2c0.2,0.2,0.6,0.3,0.9,0.1l3-1.7c0.2-0.1,0.3-0.3,0.4-0.6c0-0.1,0-0.1,0-0.2c-0.1-2.3-0.4-11.4-0.5-12
							l0.1-0.1l3,10.1l0,0.1c0,0,0,0.1,0,0.1c0.2,0.3,0.6,0.5,0.9,0.3l4.5-2.6c0.2-0.2,0.3-0.4,0.3-0.7l-0.1-0.2l-5.5-18.5l0-0.1
							c0,0,0-0.1,0-0.1C105.1,45.1,104.7,45,104.4,45.1"/>
					</g>
					<g>
						<path style="fill:#FFFFFF;" d="M135.5,27.4L135.5,27.4l-13.2,7.5l-0.1,0.1c-0.4,0.3-0.6,0.8-0.5,1.3l0,0l1.4,4.5l0,0.1
							c0,0,0,0.1,0,0.1c0.2,0.3,0.6,0.4,0.9,0.3l0.1-0.1l3.5-2l3.8,12.7l0.1,0.3c0,0,0,0,0,0c0.2,0.3,0.5,0.4,0.8,0.3l5-2.8
							c0.4-0.3,0.7-0.7,0.6-1.2l-0.1-0.3l-3.8-12.7l3.3-1.8l0,0c0.5-0.3,0.7-0.8,0.6-1.3l0-0.1l-1.4-4.5l0-0.1c0,0,0-0.1,0-0.1
							C136.3,27.3,135.9,27.2,135.5,27.4"/>
					</g>
					<g>
						<g>
							<path style="fill:#FFFFFF;" d="M130,53l-11.5-15l-0.1-0.2c-0.2-0.2-0.5-0.2-0.8-0.1l-5.6,3.2c-0.3,0.2-0.5,0.5-0.5,0.9l0,0.3
								l0.8,20.9l0,0.1c0,0.1,0,0.2,0.1,0.3c0.2,0.3,0.6,0.5,1,0.3l0,0l5-2.8l0.1,0c0.2-0.1,0.4-0.4,0.3-0.7l0,0l-0.3-2.3l4.4-2.5
								l1,1.5l0.1,0.1c0.2,0.3,0.6,0.3,0.9,0.2l5.1-2.9c0.3-0.2,0.5-0.6,0.3-1L130,53z M117.8,52.4l-0.7-6l0.1-0.1
								c1.3,1.9,3,4.7,3,4.7L117.8,52.4z"/>
						</g>
					</g>
					<g>
						<path style="fill:#FFFFFF;" d="M155.5,22.5c-1.1-1.8-3.9-4.9-9.8-1.9c-6.6,3.4-8,9.9-5.3,16.2c2.3,5.4,7.1,7.7,13.1,4.1
							c5.6-3.4,5.3-8,4.7-10.3c0-0.1,0-0.1,0-0.2c0-0.1,0-0.1-0.1-0.2c-0.3-0.6-1-0.8-1.6-0.5l-0.1,0l-4.7,2.6l0,0
							c-0.2,0.1-0.3,0.3-0.3,0.6c0,0,0,0.1,0,0.1c0,1-0.7,1.8-1.4,2.1c-1.5,0.5-2.4-1-3-2.3c-0.5-1.1-1-5,0.8-6
							c0.7-0.4,1.2-0.4,1.6-0.2c0,0,0.1,0,0.1,0.1c0.2,0.1,0.4,0.1,0.6,0l5-2.8C155.6,23.8,155.8,23.1,155.5,22.5
							C155.5,22.5,155.5,22.5,155.5,22.5"/>
					</g>
					<g>
						<path style="fill:#FFFFFF;" d="M171.5,7c0,0-0.1,0.1-0.2,0.1l-4.7,2.7c0,0-0.1,0.1-0.2,0.1c-0.4,0.3-0.6,0.8-0.5,1.3l0,0
							l1.7,5.8l-4,2.2l-1.8-5.7c0-0.1,0-0.2-0.1-0.3l0,0c-0.2-0.3-0.6-0.4-0.9-0.3c0,0-0.1,0-0.1,0c0,0-0.1,0-0.1,0.1l-4.8,2.7
							c-0.4,0.2-0.6,0.7-0.6,1.2c0,0.1,0.1,0.2,0.1,0.4l5.4,17.9l0.1,0.3c0,0,0,0,0,0c0.2,0.3,0.6,0.5,1,0.3l4.9-2.8
							c0.4-0.3,0.7-0.8,0.6-1.2l-0.1-0.3l-1.8-5.9l4-2.3l1.8,6c0,0,0.1,0.2,0.1,0.2c0.2,0.3,0.6,0.5,1,0.3l4.8-2.8
							c0.5-0.3,0.7-0.8,0.6-1.3l0-0.1l-5.4-18.1l0-0.1c0,0,0-0.1,0-0.1C172.2,7,171.8,6.9,171.5,7"/>
					</g>
				</g>
			</g>
			<g>
				<g>
					<g>
						<defs>
							<path id="SVGID_983_" d="M91,48.8l-0.2,0.1L67.2,62.3l0,0c-0.3,0.2-0.8,0.1-1-0.3c0,0,0,0,0,0l-0.1-0.3l-5.4-18.1l0-0.1
								c-0.1-0.3,0-0.7,0.1-0.9l0,0l0,0c0.1-0.1,0.1-0.2,0.2-0.2l0.1,0l0,0c0,0,0.1-0.1,0.2-0.1l29.2-16.6c0.1,0,0.1-0.1,0.2-0.1
								l0,0l0,0c0.1,0,0.2,0,0.3,0l0,0l0,0c0.2,0,0.4,0.2,0.5,0.4l0,0c0,0,0,0.1,0.1,0.1l0,0l5.4,18.2l0.1,0.3c0,0.2,0,0.3,0,0.5
								l0,0l0,0c-0.1,0.3-0.3,0.5-0.5,0.7l-0.1,0L91,48.8z"/>
						</defs>
						<clipPath id="SVGID_7_">
							<use xlink:href="#SVGID_983_"  style="overflow:visible;"/>
						</clipPath>
					</g>
					<g>
						<defs>
							<path id="SVGID_985_" d="M80.4,58.7L51.2,75.3c0,0-0.1,0-0.1,0.1l0,0l0,0c-0.4,0.3-0.5,0.8-0.4,1.2l0,0.1l5.4,18.1l0.1,0.3
								l0,0c0.2,0.3,0.6,0.5,1,0.3l0,0l29.2-16.5l0.1,0c0.1,0,0.1-0.1,0.1-0.1l0,0l0,0c0.3-0.3,0.5-0.7,0.4-1.1l-0.1-0.3l-5.4-18.2
								l0,0c0,0,0-0.1,0-0.1l0,0c-0.1-0.1-0.2-0.2-0.3-0.3l0,0l0,0c-0.1-0.1-0.2-0.1-0.3-0.1l0,0l0,0C80.7,58.6,80.6,58.6,80.4,58.7
								"/>
						</defs>
						<clipPath id="SVGID_8_">
							<use xlink:href="#SVGID_985_"  style="overflow:visible;"/>
						</clipPath>
					</g>
				</g>
			</g>
		</g>
	</g>
</g>
<g id="gid" style="display:none;opacity:0.5;">
</g>
<g id="GUI" style="display:none;">
</g>
</svg>
