<?xml version="1.0" encoding="utf-8"?>
<!-- Generator: Adobe Illustrator 20.1.0, SVG Export Plug-In . SVG Version: 6.00 Build 0)  -->
<svg version="1.1" id="svg-folder" xmlns="http://www.w3.org/2000/svg" xmlns:xlink="http://www.w3.org/1999/xlink" x="0px" y="0px"
	 viewBox="0 0 173.8 58" style="enable-background:new 0 0 173.8 58;" xml:space="preserve">
<g id="all-svg-ph">
	<path style="fill:#FFD900;" d="M20.7,46.3l-0.9-0.9h-1l-0.9,0.9v7.3l0.9,1h1l0.9-1v-1.3h1.5v1.9L20.4,56h-2.3l-1.7-1.9v-8.4
		l1.7-1.8h2.3l1.7,1.8v1.8h-1.5v-1.2H20.7z"/>
	<path style="fill:#FFD900;" d="M24.1,45.3V44h6.5v12h-1.5V45.4h-2.7V56h-1.5V45.8l0.6-0.4v-0.1H24.1z"/>
	<path style="fill:#FFD900;" d="M39.2,54.1L37.4,56h-2.3l-1.8-1.9v-8.5l1.8-1.8h2.3l1.8,1.8V54.1z M37.7,53.5v-7.3l-1-1h-1.1l-1,1
		v7.3l1,1h1.1L37.7,53.5z"/>
	<path style="fill:#FFD900;" d="M41.2,44h2.3v5.3h2.7V44h1.5v12h-1.5v-5.3h-2.7V56H42V46l0.6-0.4v-0.1h-1.4
		C41.2,45.5,41.2,44,41.2,44z"/>
	<path style="fill:#FFD900;" d="M54.7,46.3l-0.9-0.9h-1l-0.9,0.9v7.3l0.9,1h1l0.9-1v-1.3h1.5v1.9L54.4,56h-2.3l-1.7-1.9v-8.4
		l1.7-1.8h2.3l1.7,1.8v1.8h-1.5L54.7,46.3L54.7,46.3z"/>
	<path style="fill:#FFD900;" d="M64.6,54.1L62.8,56h-2.3l-1.8-1.9v-8.5l1.8-1.8h2.3l1.8,1.8V54.1z M63.2,53.5v-7.3l-1-1h-1.1l-1,1
		v7.3l1,1h1.1L63.2,53.5z"/>
	<path style="fill:#FFD900;" d="M73.1,45.8v4.3L71.3,52H69v4h-1.5V45.9l0.6-0.4v-0.1h-1.5V44h4.6L73.1,45.8z M70.7,50.6l1-1.1v-3.1
		l-1-1H69v5.1L70.7,50.6L70.7,50.6z"/>
	<path style="fill:#FFD900;" d="M78.4,45.3V44h6.5v12h-1.5V45.4h-2.7V56h-1.5V45.8l0.6-0.4v-0.1H78.4z"/>
	<path style="fill:#FFD900;" d="M93.3,45.8v4.3L91.5,52h-2.3v4h-1.5V45.9l0.6-0.4v-0.1h-1.5V44h4.6L93.3,45.8z M90.9,50.6l1-1.1
		v-3.1l-1-1h-1.7v5.1L90.9,50.6L90.9,50.6z"/>
	<path style="fill:#FFD900;" d="M101.8,54.1L100,56h-2.3l-1.8-1.9v-8.5l1.8-1.8h2.3l1.8,1.8V54.1z M100.3,53.5v-7.3l-1-1h-1.1l-1,1
		v7.3l1,1h1.1L100.3,53.5z"/>
	<path style="fill:#FFD900;" d="M108.8,49.3v1.5h-2.7v3.7h2.1v-1.2h1.5V56h-5.1V45.9l0.6-0.4v-0.1h-1.5V44h5.8v2.8H108v-1.4h-2v3.9
		H108.8z"/>
	<path style="fill:#FFD900;" d="M113.9,48.8h0.8L117,44h1.6l-2.6,5.6l3,6.4h-1.6l-2.7-5.7h-0.8V56h-1.5V46l0.6-0.4v-0.1h-1.5V44h2.3
		L113.9,48.8L113.9,48.8z"/>
	<path style="fill:#FFD900;" d="M122.4,45.3h-1.2v1.3h-1.3V44h6.6v2.6h-1.3v-1.3h-1.3V56h-1.5C122.4,56,122.4,45.3,122.4,45.3z"/>
	<path style="fill:#FFD900;" d="M128.7,44h3.8l1.8,12h-1.5l-0.5-3.1h-2.5l-0.5,3.1h-1.5l1.5-10.1l0.6-0.4v-0.1h-1.2L128.7,44
		L128.7,44z M131.2,45.4h-0.3l-0.9,6h2.1L131.2,45.4z"/>
	<path style="fill:#FFFFFF;" d="M11.9,2H6.4C5.9,2,5.6,2.3,5.5,2.7l0,0l-3.2,14v0.1c0,0,0,0,0,0.1c0,0.3,0.2,0.5,0.5,0.5h4.6
		c0.2,0,0.4-0.1,0.5-0.3v-0.2l0.9-4.1h2.6c3.1,0,5.4-2,5.9-5.1C17.8,3.8,15.5,2,11.9,2 M12.5,7.5c-0.2,1.2-1.3,1.4-2.3,1.4H9.7
		l0.6-2.7h0.5C11.7,6.2,12.7,6.3,12.5,7.5z"/>
	<path style="fill:#FFFFFF;" d="M29.4,16.7l-2-14.1V2.5c0-0.3-0.2-0.5-0.5-0.5H22c-0.2,0-0.4,0.2-0.5,0.3l-0.1,0.2l-7.2,13.9
		L14,16.8v0.1c0,0.3,0.2,0.5,0.5,0.5l0,0h4.4H19c0.1,0,0.3-0.1,0.4-0.2l0.1-0.3l0.6-1.4h3.8l0.1,1.2v0.4c0.1,0.2,0.2,0.3,0.4,0.3
		h4.5c0.3,0,0.5-0.2,0.5-0.5V16.7z M21.6,11.8l1.8-4.2h0.1c0.1,1.7,0.2,4.2,0.2,4.2H21.6z"/>
	<path style="fill:#FFFFFF;" d="M40.2,2h-5.4c-0.4,0-0.7,0.3-0.8,0.7v0.1l-3.2,13.9v0.2l0,0c0,0.3,0.2,0.5,0.5,0.5h4.5
		c0.2,0,0.4-0.2,0.5-0.4v-0.1l1-4.4c0,0,0,0,0.1,0c0.2,0,0.9,3.2,1.2,4.4c0,0.1,0,0.1,0,0.2c0.1,0.2,0.2,0.3,0.4,0.3h4.5
		c0.3,0,0.5-0.2,0.5-0.5c0,0,0,0,0-0.1s0-0.1,0-0.2c-0.4-1.6-1.5-5-2.1-5.3c2.2-0.7,3.7-1.6,4.1-3.9C46.6,3.5,43.7,1.9,40.2,2
		 M41,7.4c-0.2,1.1-1.3,1.4-2.4,1.3h-0.4L38.8,6h0.5C40.4,6.1,41.2,6.3,41,7.4z"/>
	<path style="fill:#FFFFFF;" d="M53.7,2h-4.3c-0.4,0-0.7,0.3-0.9,0.6v0.1l-3.2,13.9v0.2l0,0c0,0.3,0.2,0.5,0.5,0.5h4.4
		c0.3,0,0.5-0.2,0.7-0.5l0.1-0.4l3.2-13.8V2.5V2.4C54.2,2.3,54,2,53.7,2"/>
	<g>
		<g>
			<defs>
				<path id="SVGID_1_" d="M74.9,17.4L74.9,17.4H54.3l0,0c-0.3,0-0.5-0.2-0.5-0.5l0,0v-0.2L57,2.8V2.7c0.1-0.2,0.2-0.4,0.4-0.6l0,0
					l0,0c0.1,0,0.1-0.1,0.2-0.1h0.1l0,0h0.1h25.4c0.1,0,0.1,0,0.1,0l0,0l0,0c0.1,0,0.1,0,0.2,0.1l0,0l0,0c0.1,0.1,0.2,0.3,0.2,0.4
					l0,0v0.1l0,0l-3.2,14v0.2c0,0.1-0.1,0.2-0.2,0.3l0,0l0,0c-0.2,0.2-0.4,0.3-0.6,0.3h-0.1L74.9,17.4z"/>
			</defs>
			<clipPath id="SVGID_2_">
				<use xlink:href="#SVGID_1_"  style="overflow:visible;"/>
			</clipPath>
			
				<linearGradient id="SVGID_3_" gradientUnits="userSpaceOnUse" x1="-278.8208" y1="187.4353" x2="-278.3198" y2="187.4353" gradientTransform="matrix(59.8808 0 0 -30.9044 16749.7129 5802.2744)">
				<stop  offset="0" style="stop-color:#FFD900"/>
				<stop  offset="1" style="stop-color:#F8AF00"/>
			</linearGradient>
			<rect x="53.7" y="2" style="clip-path:url(#SVGID_2_);fill:url(#SVGID_3_);" width="30" height="15.4"/>
		</g>
	</g>
	<g>
		<g>
			<defs>
				<path id="SVGID_4_" d="M64.3,19.9H38.9c0,0,0,0-0.1,0l0,0l0,0c-0.4,0.1-0.7,0.3-0.7,0.7v0.1l-3.2,13.9v0.2l0,0
					c0,0.3,0.2,0.5,0.5,0.5l0,0h25.3h0.1h0.1l0,0l0,0c0.3-0.1,0.6-0.3,0.7-0.6v-0.2l3.2-14l0,0v-0.1l0,0c0-0.1,0-0.2-0.1-0.3l0,0
					l0,0c0-0.1-0.1-0.1-0.2-0.2l0,0l0,0C64.5,20,64.4,19.9,64.3,19.9"/>
			</defs>
			<clipPath id="SVGID_5_">
				<use xlink:href="#SVGID_4_"  style="overflow:visible;"/>
			</clipPath>
			
				<linearGradient id="SVGID_6_" gradientUnits="userSpaceOnUse" x1="-278.5075" y1="188.0027" x2="-278.0066" y2="188.0027" gradientTransform="matrix(59.8884 0 0 -30.8818 16714.2246 5833.4614)">
				<stop  offset="0" style="stop-color:#FFD900"/>
				<stop  offset="1" style="stop-color:#F8AF00"/>
			</linearGradient>
			<rect x="34.9" y="19.9" style="clip-path:url(#SVGID_5_);fill:url(#SVGID_6_);" width="30" height="15.4"/>
		</g>
	</g>
	<path style="fill:#FFFFFF;" d="M85.1,19.9h-6c-0.3,0-0.6,0.1-0.7,0.4c0,0.1-0.1,0.1-0.1,0.2c-0.9,1.8-3.5,6.8-3.8,7.5h-0.1L74,20.5
		v-0.2c-0.1-0.2-0.2-0.4-0.5-0.4h-5c-0.4,0-0.7,0.2-0.8,0.6l-0.1,0.2l-3.2,13.9v0.1v0.1c0,0.3,0.2,0.5,0.5,0.5h3.7
		c0.3,0,0.5-0.2,0.5-0.4l0,0l1.8-8c-0.1,0.5,0.3,6,0.4,7.8c0,0.1,0,0.1,0,0.2c0.1,0.2,0.3,0.4,0.5,0.4h2.6c0.2,0,0.3-0.1,0.4-0.2
		c0,0,0-0.1,0.1-0.1c0.8-1.6,3.9-7.6,4.1-8.1h0.1l-1.8,7.8v0.1v0.1c0,0.3,0.2,0.5,0.5,0.5h3.9c0.2,0,0.4-0.1,0.5-0.3v-0.2l3.3-14.2
		v-0.1c0,0,0,0,0-0.1C85.6,20.2,85.4,20,85.1,19.9"/>
	<path style="fill:#FFFFFF;" d="M112.1,19.9L112.1,19.9h-11.5h-0.1c-0.4,0-0.7,0.3-0.8,0.7l0,0l-0.8,3.5v0.1v0.1
		c0,0.3,0.2,0.5,0.5,0.5h0.1h3l-2.3,9.8v0.2l0,0c0,0.3,0.2,0.5,0.4,0.5h4.3c0.4,0,0.7-0.2,0.8-0.6l0.1-0.2l2.2-9.7h2.8l0,0
		c0.4,0,0.8-0.3,0.9-0.7V24l0.8-3.4v-0.1v-0.1C112.7,20.2,112.4,19.9,112.1,19.9"/>
	<path style="fill:#FFFFFF;" d="M99,34.7l-2-14.2v-0.2c-0.1-0.2-0.2-0.4-0.5-0.4h-4.8c-0.3,0-0.5,0.2-0.7,0.4l-0.1,0.2l-7.2,14l0,0
		c0,0.1,0,0.1,0,0.2c0,0.3,0.2,0.5,0.5,0.5l0,0h4.3h0.1c0.2,0,0.4-0.1,0.5-0.3l0,0l0.7-1.6h3.8l0.1,1.3v0.1c0,0.2,0.2,0.4,0.5,0.4
		h4.4c0.3,0,0.5-0.2,0.5-0.5L99,34.7z M91.2,29.8l1.8-4.2h0.1c0.1,1.7,0.2,4.2,0.2,4.2H91.2z"/>
	<path style="fill:#FFFFFF;" d="M127,24.1c-0.1-1.6-0.8-4.7-5.7-4.9c-5.6-0.2-9,3.5-9.5,8.7c-0.5,4.4,1.8,7.7,7.1,7.6
		c5-0.1,6.5-3.2,6.9-5v-0.1v-0.1c0-0.5-0.4-0.9-0.9-0.9h-0.1h-4.1l0,0c-0.2,0-0.3,0.1-0.4,0.2c0,0,0,0,0,0.1c-0.4,0.6-1.1,1-1.7,0.9
		c-1.2-0.2-1.2-1.5-1.1-2.6c0.1-0.9,1.2-3.6,2.7-3.6c0.6,0,0.9,0.2,1.1,0.5V25c0.1,0.1,0.2,0.2,0.4,0.2h4.3
		C126.6,25.1,127,24.7,127,24.1C127,24.2,127,24.2,127,24.1"/>
	<path style="fill:#FFFFFF;" d="M143.3,20h-0.1h-4.1H139c-0.4,0-0.7,0.3-0.8,0.7l0,0l-1,4.5h-3.4l1-4.4c0-0.1,0.1-0.1,0.1-0.2l0,0
		c0-0.3-0.2-0.5-0.5-0.5h-0.1h-0.1h-4.1c-0.4,0-0.7,0.2-0.8,0.5c0,0.1-0.1,0.2-0.1,0.3L126,34.7v0.2l0,0c0,0.3,0.2,0.5,0.5,0.5h4.2
		c0.4,0,0.7-0.2,0.8-0.6v-0.2l1-4.5h3.5l-1.1,4.6c0,0,0,0.1,0,0.2c0,0.3,0.2,0.5,0.5,0.5h4.2c0.4,0,0.8-0.3,0.9-0.7v-0.1l3.2-13.9
		v-0.1v-0.1C143.8,20.2,143.6,20,143.3,20"/>
</g>
<g id="kz">
	<path style="fill:#FFFFFF;" d="M146.4,32.3H146h-1.7c-0.4,0-0.7,0.3-0.9,0.6l-0.1,0.3l-0.3,1.4l-0.1,0.3c0,0.3,0.2,0.5,0.5,0.5h1.6
		h0.4c0.3,0,0.6-0.3,0.6-0.5l0.1-0.4l0.3-1.4l0.1-0.3C146.7,32.5,146.6,32.3,146.4,32.3z"/>
	<path style="fill:#FFFFFF;" d="M160.4,24.2h-2.8h0c-0.2,0-0.4,0.1-0.6,0.2l-0.2,0.2l-3.5,3.7l0.6-3.3l0-0.2c0-0.3-0.2-0.5-0.5-0.5
		h0h-2.1h-0.5c-0.3,0.1-0.6,0.3-0.7,0.7l0,0.1l-2.1,9.5l-0.1,0.5c0,0.2,0.1,0.4,0.3,0.4h0.4h1.9h0.5c0.3-0.1,0.5-0.3,0.6-0.6l0-0.2
		l0.3-1.2l1.6-1.6l1,2.8l0.1,0.3c0.2,0.3,0.5,0.5,0.9,0.5h2.6c0.4,0,0.5-0.4,0.5-0.5s-0.1-0.3-0.1-0.3l-2-5.2l4.2-4.2l0,0
		c0.1-0.1,0.2-0.2,0.2-0.4C160.9,24.5,160.7,24.2,160.4,24.2z"/>
	<path style="fill:#FFFFFF;" d="M171.6,24.2h-8.9c-0.4,0-0.7,0.2-0.9,0.6l-0.1,0.4l-0.3,1.4l-0.1,0.2c0,0.3,0.2,0.5,0.5,0.5h0l4.6,0
		l-6.3,5.3l-0.1,0.1c-0.1,0.1-0.1,0.2-0.2,0.3l-0.1,0.4l-0.3,1.3l0,0.1c0,0,0,0.1,0,0.1c0,0.3,0.2,0.5,0.5,0.5h0.1l8.7,0h0.2
		c0.3,0,0.6-0.2,0.7-0.5l0.1-0.6l0.2-1.1l0.1-0.4c-0.1-0.2-0.2-0.4-0.5-0.4h-0.1h-4.2l6-5.5l0.5-1.8l0.1-0.3
		C172.1,24.5,171.9,24.2,171.6,24.2z"/>
</g>
</svg>
