<?xml version="1.0" encoding="utf-8"?>
<!-- Generator: Adobe Illustrator 20.1.0, SVG Export Plug-In . SVG Version: 6.00 Build 0)  -->
<svg version="1.1" id="svg-inside" xmlns="http://www.w3.org/2000/svg" xmlns:xlink="http://www.w3.org/1999/xlink" x="0px" y="0px"
	 viewBox="0 0 56 56" style="enable-background:new 0 0 56 56;" xml:space="preserve">
<path id="start" style="fill:#111111;" d="M24.7,36.4l9.6-6.8c1.5-1,1.5-3.2,0-4.2l-9.6-6.8c-1.7-1.2-4.1,0-4.1,2.1v13.5
	C20.6,36.4,23,37.6,24.7,36.4z"/>
<path id="end" d="M48.4,13H36.1L30,17.7v19.4l6.3,4.9h11.8c1.1,0,1.9-1.5,2.9-2.4S53,38,54,37.1V17.7L48.4,13z M46,34.4L44.8,35h-5
	L39,34.4V20.5l0.7-0.5h5.1l1.2,0.5V34.4z M18.5,23.2l-0.8-3h-6.1l-1.2,1v12.8l1.2,1h4.8l1.3-1.1v-4h-3.9v-5h12.4V42h-6.5l-0.8-2.3
	L16.1,42H8.5l-6.7-5.5V18.4L8.2,13h12.3l5.7,4.7v5.5H18.5z"/>
</svg>
