<?xml version="1.0" encoding="utf-8"?>
<!-- Generator: Adobe Illustrator 20.1.0, SVG Export Plug-In . SVG Version: 6.00 Build 0)  -->
<svg version="1.1" id="svg-inside" xmlns="http://www.w3.org/2000/svg" xmlns:xlink="http://www.w3.org/1999/xlink" x="0px" y="0px"
	 viewBox="0 0 36 36" style="enable-background:new 0 0 36 36;" xml:space="preserve">
<g>
	<path style="fill-rule:evenodd;clip-rule:evenodd;fill:#FFFFFF;" d="M28.8,20.3c1,1,2,1.9,2.9,2.9c0.4,0.5,0.8,1,1.1,1.5
		c0.4,0.8,0,1.6-0.7,1.7l-4.4,0c-1.1,0.1-2-0.4-2.8-1.1c-0.6-0.6-1.2-1.3-1.7-1.9c-0.2-0.3-0.5-0.5-0.8-0.7
		c-0.6-0.4-1.1-0.3-1.5,0.4c-0.3,0.6-0.4,1.3-0.5,2c0,1-0.4,1.3-1.4,1.3c-2.2,0.1-4.3-0.2-6.2-1.3c-1.7-1-3-2.4-4.2-3.9
		c-2.3-3.1-4-6.4-5.5-9.8c-0.3-0.8-0.1-1.2,0.8-1.2c1.4,0,2.8,0,4.3,0c0.6,0,1,0.3,1.2,0.9c0.8,1.9,1.7,3.7,2.9,5.4
		c0.3,0.4,0.6,0.9,1.1,1.2c0.5,0.3,0.9,0.2,1.1-0.3c0.2-0.4,0.2-0.7,0.3-1.1c0.1-1.3,0.1-2.6-0.1-3.9c-0.1-0.8-0.6-1.3-1.4-1.5
		c-0.4-0.1-0.4-0.2-0.2-0.5c0.4-0.4,0.7-0.7,1.3-0.7h4.9c0.8,0.2,0.9,0.5,1.1,1.3l0,5.5c0,0.3,0.2,1.2,0.7,1.4
		c0.4,0.1,0.7-0.2,1-0.5c1.2-1.3,2-2.7,2.8-4.3c0.3-0.7,0.6-1.4,0.9-2.1c0.2-0.5,0.5-0.8,1.1-0.8l4.7,0c0.1,0,0.3,0,0.4,0
		c0.8,0.1,1,0.5,0.8,1.3c-0.4,1.2-1.1,2.2-1.9,3.3c-0.8,1.1-1.6,2.2-2.4,3.3C27.8,18.9,27.9,19.4,28.8,20.3L28.8,20.3z M28.8,20.3"
		/>
</g>
</svg>
