<?xml version="1.0" encoding="utf-8"?>
<!-- Generator: Adobe Illustrator 18.1.0, SVG Export Plug-In . SVG Version: 6.00 Build 0)  -->
<svg version="1.1" id="ic-down" xmlns="http://www.w3.org/2000/svg" xmlns:xlink="http://www.w3.org/1999/xlink" x="0px" y="0px"
	 viewBox="0 0 38 38" style="enable-background:new 0 0 38 38;" xml:space="preserve">
<path id="ic" style="fill-rule:evenodd;clip-rule:evenodd;fill:#FFFFFF;" d="M25.9,25.3H12.1c-0.9,0-1.5,0.7-1.5,1.6
	c0,0.9,0.7,1.6,1.5,1.6h13.8c0.9,0,1.5-0.7,1.5-1.6C27.5,26,26.8,25.3,25.9,25.3L25.9,25.3z M17.9,23.5c0.3,0.3,0.6,0.4,1,0.5
	c0,0,0.1,0,0.1,0c0,0,0.1,0,0.1,0c0.4,0,0.7-0.2,1-0.5l4.9-5c0.6-0.6,0.6-1.6,0-2.2c-0.6-0.6-1.6-0.6-2.2,0l-2.3,2.3v-7.4
	c0-0.9-0.7-1.6-1.6-1.6c-0.9,0-1.6,0.7-1.6,1.6v7.4l-2.3-2.3c-0.6-0.6-1.6-0.6-2.2,0c-0.6,0.6-0.6,1.6,0,2.2L17.9,23.5z M17.9,23.5"
	/>
</svg>
