<svg xmlns="http://www.w3.org/2000/svg" xmlns:xlink="http://www.w3.org/1999/xlink" viewBox="0 0 206 206"><path d="M118.5 203.6c-1.2 0-2.4-.1-3.6-.2-6.6-.8-12.7-4.5-16.6-10.2-3.9-5.6-5.2-12.5-3.7-18.9 1.5-6.3 4.8-9.1 7.9-11.8 2.1-1.8 4.2-3.6 5.5-6.3v-.1c.1-.4.1-.8 0-1-.2-.3-.5-.4-1-.5l-51.7-3.3c-4.8-.3-8.5-4.5-8.2-9.3l3.2-49.4c0-.6-.2-.9-.2-1 0-.1-.2-.2-.6-.2-.2 0-.4 0-.7.1-2.9.9-5 2.8-7 4.6-3.4 3.1-7.3 6.5-15.8 6.5-.7 0-1.5 0-2.2-.1-6.3-.4-11.7-3.1-15.5-7.8C4 89.6 2.1 82.4 3 75.1c1.5-11.7 11.9-20.9 23.8-20.9 1.8 0 3.7.2 5.4.7 6.2 1.5 9 4.8 11.7 7.9 1.9 2.2 3.7 4.3 6.6 5.6h.1c.1.1.3.1.5.1.6 0 .7-.5.8-.9l3.6-56c.3-4.6 4.2-8.3 8.8-8.3h.5l128.9 8.3c2.4.2 4.9 1.5 6.8 3.7 1.9 2.2 2.9 4.8 2.7 7.2l-8.3 128.8c-.3 5-5.5 8.1-10.1 8.1-.1 0-.5.2-.7.2l-52.4-3.2h-.1c-.1 0-.3-.2-.4 0-.1.2-.1.5 0 1v.1c.9 2.8 2.8 4.9 4.6 6.9 3.3 3.7 7.1 8 6.4 18-.7 12.5-10.5 21.2-23.7 21.2z" fill="none" stroke="#038d97" stroke-width="3" stroke-miterlimit="10"/><defs><path id="a" d="M118.5 199.6c-1 0-2.1-.1-3.1-.2-5.5-.7-10.5-3.8-13.8-8.5-3.2-4.7-4.3-10.4-3.1-15.7 1.2-5 3.7-7.2 6.7-9.7 2.3-2 4.8-4.2 6.5-7.7l.1-.2c.6-1.6.5-3.3-.3-4.7-.9-1.4-2.4-2.2-4.2-2.3l-51.7-3.3c-2.6-.2-4.6-2.4-4.4-5.1l3.2-49.4c.1-2.1-.8-3.4-1.3-4-.9-1-2.1-1.5-3.5-1.5-.9 0-1.6.2-1.9.3-3.7 1.2-6.2 3.5-8.5 5.4-3.3 3-6.2 5.5-13.1 5.5-.6 0-1.3 0-2-.1-5.2-.3-9.6-2.5-12.7-6.3C7.8 87.9 6.2 81.8 7 75.6c1.2-9.8 9.9-17.4 19.8-17.4 1.5 0 3 .2 4.5.5 5 1.2 7.1 3.7 9.6 6.6 2 2.3 4.3 5 8 6.6l.1.1c.7.3 1.4.4 2.1.4 2.6 0 4.6-1.9 4.8-4.6l3.6-56c.2-2.5 2.3-4.5 4.8-4.5h.2l128.9 8.3c1.3.1 2.9 1 4 2.3 1.2 1.4 1.8 3 1.8 4.3L190.9 151c-.2 2.6-3.3 4.4-6.1 4.4h-.4l-52.5-3.4h-.2c-1.5 0-2.8.7-3.7 1.8-.9 1.3-1.1 2.8-.6 4.6l.1.2c1.2 3.7 3.4 6.2 5.4 8.4 3.2 3.6 6 6.7 5.4 15.1-.6 10.4-8.8 17.5-19.8 17.5z"/></defs><clipPath id="b"><use xlink:href="#a" overflow="visible"/></clipPath><g clip-path="url(#b)"><image width="423" height="280" xlink:href="img/ser-f-svg-anim/svg-ser-f-1/E5C69A23.jpg" transform="translate(-30.532 -.455) scale(.7188)" overflow="visible"/></g></svg>