<svg id="Layer_1" xmlns="http://www.w3.org/2000/svg" viewBox="0 0 100 100"><style>.st0{fill:url(#SVGID_1_)}.st1{fill:url(#SVGID_2_)}</style><linearGradient id="SVGID_1_" gradientUnits="userSpaceOnUse" x1="1.25" y1="50" x2="100.288" y2="50"><stop offset="0" stop-color="#00a8b8"/><stop offset="1" stop-color="#17e8ea"/></linearGradient><path class="st0" d="M78.3 37.7l-.1-.1 14.7-16.3c3.7-4.1 4.8-11.6.7-15.3l-4.5-4C85.1-1.7 77.7.2 74 4.2L59.3 20.5l-.1-.1c-1.6-1.5-4.2-1.3-5.6.3-1.5 1.6-1.3 4.2.3 5.6l.3.3-39.5 43.7c-2.9 3.2-3.8 6.9-4.6 10.2-.5 1.9-.9 3.7-1.6 4.9-.5.9-1.1 1.8-1.6 2.6-1.9 2.8-4.6 6.8-1.4 9.7l1.3 1.1c3.1 2.8 6.3.1 8.4-1.7 1-.9 2.1-1.7 3.2-2.4 1.1-.6 2.4-1 3.9-1.5 3.3-1.1 7.4-2.5 10.8-6.3l39.5-43.7.5.4c1.6 1.5 4.2 1.3 5.6-.3 1.4-1.6 1.2-4.1-.4-5.6zM29.5 83.8c-2.6 2.9-5.8 4-8.9 5-1.6.6-3.2 1.1-4.6 1.9-1.5.8-2.8 1.9-4 2.9-.7.6-1.8 1.5-2.3 1.7l-1.2-1c0-.6 1.3-2.6 2.1-3.7l1.8-2.7c1.1-1.8 1.6-3.9 2.1-6.1.7-2.9 1.5-5.9 3.5-8.2l39.5-43.7L69 40.1 29.5 83.8z"/><linearGradient id="SVGID_2_" gradientUnits="userSpaceOnUse" x1="1.25" y1="75.331" x2="100.288" y2="75.331"><stop offset="0" stop-color="#00a8b8"/><stop offset="1" stop-color="#17e8ea"/></linearGradient><path class="st1" d="M43.9 63.6c-.1-.2-.3-.4-.6-.4H30.7c-.2 0-.4.1-.5.2-1.2 1.2-11.3 12.3-12.1 13.7-.6 1-2.9 6.7-1.7 9.2.3.7.9 1.1 1.6 1.2h.4c2.5 0 7.5-3.3 8.9-4.7 1.4-1.5 16-17.8 16.6-18.5.1-.2.1-.5 0-.7z"/></svg>