<?xml version="1.0" encoding="utf-8"?>
<!-- Generator: Adobe Illustrator 22.0.1, SVG Export Plug-In . SVG Version: 6.00 Build 0)  -->
<svg version="1.1" id="Layer_1" xmlns="http://www.w3.org/2000/svg" xmlns:xlink="http://www.w3.org/1999/xlink" x="0px" y="0px"
	 viewBox="0 0 100 100" style="enable-background:new 0 0 100 100;" xml:space="preserve">
<style type="text/css">
	.st0{fill:url(#SVGID_1_);}
	.st1{fill:url(#SVGID_2_);}
</style>
<linearGradient id="SVGID_1_" gradientUnits="userSpaceOnUse" x1="1.25" y1="50" x2="100.2882" y2="50">
	<stop  offset="0" style="stop-color:#00A8B8"/>
	<stop  offset="1" style="stop-color:#17E8EA"/>
</linearGradient>
<path class="st0" d="M78.3,37.7l-0.1-0.1l14.7-16.3c3.7-4.1,4.8-11.6,0.7-15.3L89.1,2C85.1-1.7,77.7,0.2,74,4.2L59.3,20.5l-0.1-0.1
	c-1.6-1.5-4.2-1.3-5.6,0.3c-1.5,1.6-1.3,4.2,0.3,5.6l0.3,0.3L14.7,70.3c-2.9,3.2-3.8,6.9-4.6,10.2c-0.5,1.9-0.9,3.7-1.6,4.9
	C8,86.3,7.4,87.2,6.9,88c-1.9,2.8-4.6,6.8-1.4,9.7l1.3,1.1c3.1,2.8,6.3,0.1,8.4-1.7c1-0.9,2.1-1.7,3.2-2.4c1.1-0.6,2.4-1,3.9-1.5
	c3.3-1.1,7.4-2.5,10.8-6.3l39.5-43.7l0.5,0.4c1.6,1.5,4.2,1.3,5.6-0.3C80.1,41.7,79.9,39.2,78.3,37.7z M29.5,83.8
	c-2.6,2.9-5.8,4-8.9,5c-1.6,0.6-3.2,1.1-4.6,1.9c-1.5,0.8-2.8,1.9-4,2.9c-0.7,0.6-1.8,1.5-2.3,1.7l-1.2-1c0-0.6,1.3-2.6,2.1-3.7
	c0.6-0.9,1.2-1.8,1.8-2.7c1.1-1.8,1.6-3.9,2.1-6.1c0.7-2.9,1.5-5.9,3.5-8.2l39.5-43.7L69,40.1L29.5,83.8z"/>
<linearGradient id="SVGID_2_" gradientUnits="userSpaceOnUse" x1="1.25" y1="75.3311" x2="100.2882" y2="75.3311">
	<stop  offset="0" style="stop-color:#00A8B8"/>
	<stop  offset="1" style="stop-color:#17E8EA"/>
</linearGradient>
<path class="st1" d="M43.9,63.6c-0.1-0.2-0.3-0.4-0.6-0.4H30.7c-0.2,0-0.4,0.1-0.5,0.2C29,64.6,18.9,75.7,18.1,77.1
	c-0.6,1-2.9,6.7-1.7,9.2c0.3,0.7,0.9,1.1,1.6,1.2c0.1,0,0.3,0,0.4,0c2.5,0,7.5-3.3,8.9-4.7c1.4-1.5,16-17.8,16.6-18.5
	C44,64.1,44,63.8,43.9,63.6z"/>
</svg>
