<svg id="Layer_1" xmlns="http://www.w3.org/2000/svg" viewBox="0 0 75 75"><style>.st0{fill:url(#SVGID_1_)}.st1{fill:url(#SVGID_2_)}.st2{fill:url(#SVGID_3_)}.st3{fill:url(#SVGID_4_)}</style><linearGradient id="SVGID_1_" gradientUnits="userSpaceOnUse" x1="-.896" y1="37.5" x2="48.053" y2="37.5"><stop offset="0" stop-color="#00a8b8"/><stop offset="1" stop-color="#17e8ea"/></linearGradient><path class="st0" d="M25.6 24.1v-1.9h1.3c.7 0 1.3-.3 1.7-.8.4-.4.6-1 .5-1.6L27.4 2c-.1-1-1-2-2.2-2H9C7.8 0 6.8 1 6.7 2L5 19.7c-.1.6.2 1.2.5 1.6.4.4 1 .8 1.7.8h1.3V24c-4.2.6-8.5 4.6-8.5 9.4v38c0 2 1.8 3.7 3.8 3.7h26.6c2 0 3.8-1.7 3.8-3.7v-38c-.1-4.7-4.3-8.7-8.6-9.3zm-.3-22.4c.2 0 .4.3.4.5l1.7 17.7c0 .1-.1.3-.1.3-.1.1-.3.3-.4.3h-.7L24.7 1.7h.6zm-1.6 0l1.6 18.8h-1.6L22.6 1.7h1.1zm.2 20.5v1.7H10.2v-1.7h13.7zM21.8 1.7l1 18.8h-1.5l-.7-18.8h1.2zm-2.2 0l.8 18.8h-1.6l-.3-18.8h1.1zm-3.1 0h1.1l.3 18.8h-1.6l.2-18.8zm-2 0h1.1l-.2 18.8h-1.6l.7-18.8zm-.9 0l-.7 18.8h-1.6l1.2-18.8h1.1zm-1.9 0l-1.3 18.8H8.9l1.6-18.8h1.2zM7.9 20.6h-.6c-.2-.1-.3-.2-.4-.3-.1-.1-.1-.2-.1-.3L8.4 2.3c0-.2.3-.5.5-.5h.6L7.9 20.6zm24.5 50.9c0 1-1 2-2 2H3.8c-1 0-2-.9-2-2v-6.2h30.7v-1.7H1.7V38h30.7v-1.7H1.7v-2.8c0-4.3 3.8-7.8 8-7.8h14.7c4.3 0 8 3.6 8 7.8v38z"/><linearGradient id="SVGID_2_" gradientUnits="userSpaceOnUse" x1="-.896" y1="28.157" x2="48.053" y2="28.157"><stop offset="0" stop-color="#00a8b8"/><stop offset="1" stop-color="#17e8ea"/></linearGradient><path class="st1" d="M41.9 36.7h1.7V26.4h3.1l-4-6.8-3.8 6.8h3z"/><linearGradient id="SVGID_3_" gradientUnits="userSpaceOnUse" x1="-.896" y1="50.256" x2="48.053" y2="50.256"><stop offset="0" stop-color="#00a8b8"/><stop offset="1" stop-color="#17e8ea"/></linearGradient><path class="st2" d="M43.6 41.7h-1.7V52h-3l3.8 6.8 4-6.8h-3.1z"/><linearGradient id="SVGID_4_" gradientUnits="userSpaceOnUse" x1="-389.597" y1="109.851" x2="-338.735" y2="109.851"><stop offset="0" stop-color="#00a8b8"/><stop offset="1" stop-color="#17e8ea"/></linearGradient><path class="st3" d="M-364.2 147.4c-14 0-25.4-12.7-25.4-28.2 0-17.1 14-34.6 24.5-46.3.3-.3.6-.4.9-.4h.1c.3 0 .6.2.9.4 10.5 11.7 24.5 29.3 24.5 46.3 0 15.5-11.5 28.2-25.5 28.2zm-1-70.5c-14.5 16.7-21.9 30.9-21.9 42.2 0 14.1 10.3 25.6 22.8 25.6s22.8-11.5 22.8-25.6c0-11.3-7.4-25.5-21.9-42.2l-1-1.1-.8 1.1zm8.8 58.8c-.5 0-.9-.2-1.1-.5-.2-.3-.2-.6-.2-1 .1-.3.3-.7.5-.9 4.3-3 7.7-10.6 7.2-16 0-.3.1-.7.3-1 .3-.3.6-.5.9-.5.6 0 1.2.6 1.2 1.2.6 6.9-2.8 14.7-8.2 18.4-.1.2-.3.3-.6.3z"/></svg>