<?xml version="1.0" encoding="utf-8"?>
<!-- Generator: Adobe Illustrator 22.0.1, SVG Export Plug-In . SVG Version: 6.00 Build 0)  -->
<svg version="1.1" id="Layer_1" xmlns="http://www.w3.org/2000/svg" xmlns:xlink="http://www.w3.org/1999/xlink" x="0px" y="0px"
	 viewBox="0 0 75 75" style="enable-background:new 0 0 75 75;" xml:space="preserve">
<style type="text/css">
	.st0{fill:url(#SVGID_1_);}
	.st1{fill:url(#SVGID_2_);}
	.st2{fill:url(#SVGID_3_);}
	.st3{fill:url(#SVGID_4_);}
</style>
<g>
	<linearGradient id="SVGID_1_" gradientUnits="userSpaceOnUse" x1="-0.8959" y1="37.5" x2="48.0531" y2="37.5">
		<stop  offset="0" style="stop-color:#00A8B8"/>
		<stop  offset="1" style="stop-color:#17E8EA"/>
	</linearGradient>
	<path class="st0" d="M25.6,24.1v-1.9h1.3c0.7,0,1.3-0.3,1.7-0.8c0.4-0.4,0.6-1,0.5-1.6L27.4,2c-0.1-1-1-2-2.2-2H9
		C7.8,0,6.8,1,6.7,2L5,19.7c-0.1,0.6,0.2,1.2,0.5,1.6c0.4,0.4,1,0.8,1.7,0.8h1.3V24C4.3,24.6,0,28.6,0,33.4v38c0,2,1.8,3.7,3.8,3.7
		h26.6c2,0,3.8-1.7,3.8-3.7V33.4C34.1,28.7,29.9,24.7,25.6,24.1z M25.3,1.7c0.2,0,0.4,0.3,0.4,0.5l1.7,17.7c0,0.1-0.1,0.3-0.1,0.3
		c-0.1,0.1-0.3,0.3-0.4,0.3h-0.7L24.7,1.7H25.3z M23.7,1.7l1.6,18.8h-1.6L22.6,1.7H23.7z M23.9,22.2v1.7H10.2v-1.7H23.9z M21.8,1.7
		l1,18.8h-1.5L20.6,1.7H21.8z M19.6,1.7l0.8,18.8h-1.6L18.5,1.7H19.6z M16.5,1.7h1.1l0.3,18.8h-1.6L16.5,1.7z M14.5,1.7h1.1
		l-0.2,18.8h-1.6L14.5,1.7z M13.6,1.7l-0.7,18.8h-1.6l1.2-18.8H13.6z M11.7,1.7l-1.3,18.8H8.9l1.6-18.8H11.7z M7.9,20.6H7.3
		c-0.2-0.1-0.3-0.2-0.4-0.3c-0.1-0.1-0.1-0.2-0.1-0.3L8.4,2.3c0-0.2,0.3-0.5,0.5-0.5h0.6L7.9,20.6z M32.4,71.5c0,1-1,2-2,2H3.8
		c-1,0-2-0.9-2-2v-6.2h30.7v-1.7H1.7V38h30.7v-1.7H1.7v-2.8c0-4.3,3.8-7.8,8-7.8h14.7c4.3,0,8,3.6,8,7.8
		C32.4,33.4,32.4,71.5,32.4,71.5z"/>
	<linearGradient id="SVGID_2_" gradientUnits="userSpaceOnUse" x1="-0.8959" y1="28.157" x2="48.0531" y2="28.157">
		<stop  offset="0" style="stop-color:#00A8B8"/>
		<stop  offset="1" style="stop-color:#17E8EA"/>
	</linearGradient>
	<polygon class="st1" points="41.9,36.7 43.6,36.7 43.6,26.4 46.7,26.4 42.7,19.6 38.9,26.4 41.9,26.4 	"/>
	<linearGradient id="SVGID_3_" gradientUnits="userSpaceOnUse" x1="-0.8959" y1="50.2559" x2="48.0531" y2="50.2559">
		<stop  offset="0" style="stop-color:#00A8B8"/>
		<stop  offset="1" style="stop-color:#17E8EA"/>
	</linearGradient>
	<polygon class="st2" points="43.6,41.7 41.9,41.7 41.9,52 38.9,52 42.7,58.8 46.7,52 43.6,52 	"/>
</g>
<linearGradient id="SVGID_4_" gradientUnits="userSpaceOnUse" x1="-389.5966" y1="109.8509" x2="-338.7345" y2="109.8509">
	<stop  offset="0" style="stop-color:#00A8B8"/>
	<stop  offset="1" style="stop-color:#17E8EA"/>
</linearGradient>
<path class="st3" d="M-364.2,147.4c-14,0-25.4-12.7-25.4-28.2c0-17.1,14-34.6,24.5-46.3c0.3-0.3,0.6-0.4,0.9-0.4c0,0,0,0,0.1,0
	c0.3,0,0.6,0.2,0.9,0.4c10.5,11.7,24.5,29.3,24.5,46.3C-338.7,134.7-350.2,147.4-364.2,147.4z M-365.2,76.9
	c-14.5,16.7-21.9,30.9-21.9,42.2c0,14.1,10.3,25.6,22.8,25.6s22.8-11.5,22.8-25.6c0-11.3-7.4-25.5-21.9-42.2l-1-1.1L-365.2,76.9z
	 M-356.4,135.7c-0.5,0-0.9-0.2-1.1-0.5c-0.2-0.3-0.2-0.6-0.2-1c0.1-0.3,0.3-0.7,0.5-0.9c4.3-3,7.7-10.6,7.2-16c0-0.3,0.1-0.7,0.3-1
	c0.3-0.3,0.6-0.5,0.9-0.5h0c0.6,0,1.2,0.6,1.2,1.2c0.6,6.9-2.8,14.7-8.2,18.4C-355.9,135.6-356.1,135.7-356.4,135.7z"/>
</svg>
