<?xml version="1.0" encoding="utf-8"?>
<!-- Generator: Adobe Illustrator 22.0.1, SVG Export Plug-In . SVG Version: 6.00 Build 0)  -->
<svg version="1.1" id="Layer_1" xmlns="http://www.w3.org/2000/svg" xmlns:xlink="http://www.w3.org/1999/xlink" x="0px" y="0px"
	 viewBox="0 0 75 75" style="enable-background:new 0 0 75 75;" xml:space="preserve">
<style type="text/css">
	.st0{fill:url(#SVGID_1_);}
	.st1{fill:url(#SVGID_2_);}
	.st2{fill:url(#SVGID_3_);}
	.st3{fill:url(#SVGID_4_);}
	.st4{fill:url(#SVGID_5_);}
	.st5{fill:url(#SVGID_6_);}
	.st6{fill:url(#SVGID_7_);}
	.st7{fill:url(#SVGID_8_);}
	.st8{fill:url(#SVGID_9_);}
</style>
<g>
	<g>
		<linearGradient id="SVGID_1_" gradientUnits="userSpaceOnUse" x1="0" y1="37.5" x2="75.2167" y2="37.5">
			<stop  offset="0" style="stop-color:#00A8B8"/>
			<stop  offset="1" style="stop-color:#17E8EA"/>
		</linearGradient>
		<path class="st0" d="M5.1,75C2.3,75,0,72.7,0,69.9V14.1C0,11.3,2.3,9,5.1,9h5.7V3.3c0-1.8,1.5-3.3,3.3-3.3h7.2
			c1.8,0,3.3,1.5,3.3,3.3V9h25.8V3.3c0-1.8,1.5-3.3,3.3-3.3h7.2c1.8,0,3.3,1.5,3.3,3.3V9h5.7c2.8,0,5.1,2.3,5.1,5.1v55.8
			c0,2.8-2.3,5.1-5.1,5.1H5.1z M3,69.9C3,71.1,3.9,72,5.1,72h64.8c1.2,0,2.1-0.9,2.1-2.1V30H3V69.9z M5.1,12C3.9,12,3,12.9,3,14.1
			V27h69V14.1c0-1.2-0.9-2.1-2.1-2.1h-5.7v5.4H50.4V12H24.6v5.4H10.8V12H5.1z M53.4,14.4h7.8V3h-7.8V14.4z M13.8,14.4h7.8V3h-7.8
			V14.4z"/>
		<linearGradient id="SVGID_2_" gradientUnits="userSpaceOnUse" x1="3.5175" y1="41.1006" x2="72.9781" y2="41.1006">
			<stop  offset="0" style="stop-color:#00A8B8"/>
			<stop  offset="1" style="stop-color:#17E8EA"/>
		</linearGradient>
		<rect x="41.9" y="39.6" class="st1" width="6.6" height="3"/>
		<linearGradient id="SVGID_3_" gradientUnits="userSpaceOnUse" x1="4.7302" y1="41.1006" x2="74.1855" y2="41.1006">
			<stop  offset="0" style="stop-color:#00A8B8"/>
			<stop  offset="1" style="stop-color:#17E8EA"/>
		</linearGradient>
		<rect x="56.3" y="39.6" class="st2" width="6.6" height="3"/>
		<linearGradient id="SVGID_4_" gradientUnits="userSpaceOnUse" x1="2.3092" y1="50.0988" x2="71.7697" y2="50.0988">
			<stop  offset="0" style="stop-color:#00A8B8"/>
			<stop  offset="1" style="stop-color:#17E8EA"/>
		</linearGradient>
		<rect x="27.5" y="48.6" class="st3" width="6.6" height="3"/>
		<linearGradient id="SVGID_5_" gradientUnits="userSpaceOnUse" x1="3.5175" y1="50.0988" x2="72.9781" y2="50.0988">
			<stop  offset="0" style="stop-color:#00A8B8"/>
			<stop  offset="1" style="stop-color:#17E8EA"/>
		</linearGradient>
		<rect x="41.9" y="48.6" class="st4" width="6.6" height="3"/>
		<linearGradient id="SVGID_6_" gradientUnits="userSpaceOnUse" x1="4.7302" y1="50.0988" x2="74.1855" y2="50.0988">
			<stop  offset="0" style="stop-color:#00A8B8"/>
			<stop  offset="1" style="stop-color:#17E8EA"/>
		</linearGradient>
		<rect x="56.3" y="48.6" class="st5" width="6.6" height="3"/>
		<linearGradient id="SVGID_7_" gradientUnits="userSpaceOnUse" x1="2.3092" y1="59.1009" x2="71.7697" y2="59.1009">
			<stop  offset="0" style="stop-color:#00A8B8"/>
			<stop  offset="1" style="stop-color:#17E8EA"/>
		</linearGradient>
		<rect x="27.5" y="57.6" class="st6" width="6.6" height="3"/>
		<linearGradient id="SVGID_8_" gradientUnits="userSpaceOnUse" x1="3.5175" y1="59.1009" x2="72.9781" y2="59.1009">
			<stop  offset="0" style="stop-color:#00A8B8"/>
			<stop  offset="1" style="stop-color:#17E8EA"/>
		</linearGradient>
		<rect x="41.9" y="57.6" class="st7" width="6.6" height="3"/>
		<linearGradient id="SVGID_9_" gradientUnits="userSpaceOnUse" x1="4.7302" y1="59.1009" x2="74.1855" y2="59.1009">
			<stop  offset="0" style="stop-color:#00A8B8"/>
			<stop  offset="1" style="stop-color:#17E8EA"/>
		</linearGradient>
		<rect x="56.3" y="57.6" class="st8" width="6.6" height="3"/>
	</g>
</g>
</svg>
