<svg id="Layer_1" xmlns="http://www.w3.org/2000/svg" viewBox="0 0 75 75"><style>.st0{fill:url(#SVGID_1_)}.st1{fill:url(#SVGID_2_)}.st2{fill:url(#SVGID_3_)}.st3{fill:url(#SVGID_4_)}.st4{fill:url(#SVGID_5_)}.st5{fill:url(#SVGID_6_)}.st6{fill:url(#SVGID_7_)}.st7{fill:url(#SVGID_8_)}.st8{fill:url(#SVGID_9_)}</style><linearGradient id="SVGID_1_" gradientUnits="userSpaceOnUse" y1="37.5" x2="75.217" y2="37.5"><stop offset="0" stop-color="#00a8b8"/><stop offset="1" stop-color="#17e8ea"/></linearGradient><path class="st0" d="M5.1 75C2.3 75 0 72.7 0 69.9V14.1C0 11.3 2.3 9 5.1 9h5.7V3.3c0-1.8 1.5-3.3 3.3-3.3h7.2c1.8 0 3.3 1.5 3.3 3.3V9h25.8V3.3c0-1.8 1.5-3.3 3.3-3.3h7.2c1.8 0 3.3 1.5 3.3 3.3V9h5.7c2.8 0 5.1 2.3 5.1 5.1v55.8c0 2.8-2.3 5.1-5.1 5.1H5.1zM3 69.9c0 1.2.9 2.1 2.1 2.1h64.8c1.2 0 2.1-.9 2.1-2.1V30H3v39.9zM5.1 12c-1.2 0-2.1.9-2.1 2.1V27h69V14.1c0-1.2-.9-2.1-2.1-2.1h-5.7v5.4H50.4V12H24.6v5.4H10.8V12H5.1zm48.3 2.4h7.8V3h-7.8v11.4zm-39.6 0h7.8V3h-7.8v11.4z"/><linearGradient id="SVGID_2_" gradientUnits="userSpaceOnUse" x1="3.518" y1="41.101" x2="72.978" y2="41.101"><stop offset="0" stop-color="#00a8b8"/><stop offset="1" stop-color="#17e8ea"/></linearGradient><path class="st1" d="M41.9 39.6h6.6v3h-6.6z"/><linearGradient id="SVGID_3_" gradientUnits="userSpaceOnUse" x1="4.73" y1="41.101" x2="74.186" y2="41.101"><stop offset="0" stop-color="#00a8b8"/><stop offset="1" stop-color="#17e8ea"/></linearGradient><path class="st2" d="M56.3 39.6h6.6v3h-6.6z"/><linearGradient id="SVGID_4_" gradientUnits="userSpaceOnUse" x1="2.309" y1="50.099" x2="71.77" y2="50.099"><stop offset="0" stop-color="#00a8b8"/><stop offset="1" stop-color="#17e8ea"/></linearGradient><path class="st3" d="M27.5 48.6h6.6v3h-6.6z"/><linearGradient id="SVGID_5_" gradientUnits="userSpaceOnUse" x1="3.518" y1="50.099" x2="72.978" y2="50.099"><stop offset="0" stop-color="#00a8b8"/><stop offset="1" stop-color="#17e8ea"/></linearGradient><path class="st4" d="M41.9 48.6h6.6v3h-6.6z"/><linearGradient id="SVGID_6_" gradientUnits="userSpaceOnUse" x1="4.73" y1="50.099" x2="74.186" y2="50.099"><stop offset="0" stop-color="#00a8b8"/><stop offset="1" stop-color="#17e8ea"/></linearGradient><path class="st5" d="M56.3 48.6h6.6v3h-6.6z"/><linearGradient id="SVGID_7_" gradientUnits="userSpaceOnUse" x1="2.309" y1="59.101" x2="71.77" y2="59.101"><stop offset="0" stop-color="#00a8b8"/><stop offset="1" stop-color="#17e8ea"/></linearGradient><path class="st6" d="M27.5 57.6h6.6v3h-6.6z"/><linearGradient id="SVGID_8_" gradientUnits="userSpaceOnUse" x1="3.518" y1="59.101" x2="72.978" y2="59.101"><stop offset="0" stop-color="#00a8b8"/><stop offset="1" stop-color="#17e8ea"/></linearGradient><path class="st7" d="M41.9 57.6h6.6v3h-6.6z"/><linearGradient id="SVGID_9_" gradientUnits="userSpaceOnUse" x1="4.73" y1="59.101" x2="74.186" y2="59.101"><stop offset="0" stop-color="#00a8b8"/><stop offset="1" stop-color="#17e8ea"/></linearGradient><path class="st8" d="M56.3 57.6h6.6v3h-6.6z"/></svg>