<?xml version="1.0" encoding="utf-8"?>
<!-- Generator: Adobe Illustrator 22.0.1, SVG Export Plug-In . SVG Version: 6.00 Build 0)  -->
<svg version="1.1" id="Layer_1" xmlns="http://www.w3.org/2000/svg" xmlns:xlink="http://www.w3.org/1999/xlink" x="0px" y="0px"
	 viewBox="0 0 75 75" style="enable-background:new 0 0 75 75;" xml:space="preserve">
<style type="text/css">
	.st0{fill:url(#SVGID_1_);}
	.st1{fill:url(#SVGID_2_);}
	.st2{fill:url(#SVGID_3_);}
	.st3{fill:url(#SVGID_4_);}
	.st4{fill:url(#SVGID_5_);}
	.st5{fill:url(#SVGID_6_);}
	.st6{fill:url(#SVGID_7_);}
	.st7{fill:url(#SVGID_8_);}
	.st8{fill:url(#SVGID_9_);}
	.st9{fill:url(#SVGID_10_);}
	.st10{fill:url(#SVGID_11_);}
	.st11{fill:url(#SVGID_12_);}
	.st12{fill:url(#SVGID_13_);}
	.st13{fill:url(#SVGID_14_);}
</style>
<linearGradient id="SVGID_1_" gradientUnits="userSpaceOnUse" x1="1.5" y1="37.5" x2="1.5" y2="37.5">
	<stop  offset="0" style="stop-color:#00A8B8"/>
	<stop  offset="1" style="stop-color:#17E8EA"/>
</linearGradient>
<path class="st0" d="M1.5,37.5"/>
<linearGradient id="SVGID_2_" gradientUnits="userSpaceOnUse" x1="0.3333" y1="37.5" x2="75.4229" y2="37.5">
	<stop  offset="0" style="stop-color:#00A8B8"/>
	<stop  offset="1" style="stop-color:#17E8EA"/>
</linearGradient>
<path class="st1" d="M37.5,75C16.8,75,0,58.2,0,37.5S16.8,0,37.5,0S75,16.8,75,37.5S58.2,75,37.5,75z M37.5,3C18.5,3,3,18.5,3,37.5
	S18.5,72,37.5,72S72,56.5,72,37.5S56.5,3,37.5,3z"/>
<linearGradient id="SVGID_3_" gradientUnits="userSpaceOnUse" x1="0.3333" y1="22.107" x2="75.4229" y2="22.107">
	<stop  offset="0" style="stop-color:#00A8B8"/>
	<stop  offset="1" style="stop-color:#17E8EA"/>
</linearGradient>
<polygon class="st2" points="64.8,20 66.3,22.6 63.5,24.2 62,21.6 "/>
<linearGradient id="SVGID_4_" gradientUnits="userSpaceOnUse" x1="0.3333" y1="37.5" x2="75.4229" y2="37.5">
	<stop  offset="0" style="stop-color:#00A8B8"/>
	<stop  offset="1" style="stop-color:#17E8EA"/>
</linearGradient>
<rect x="66.7" y="36" class="st3" width="3.2" height="3"/>
<linearGradient id="SVGID_5_" gradientUnits="userSpaceOnUse" x1="0.3333" y1="67.4995" x2="75.4229" y2="67.4995">
	<stop  offset="0" style="stop-color:#00A8B8"/>
	<stop  offset="1" style="stop-color:#17E8EA"/>
</linearGradient>
<polygon class="st4" points="39,65.9 39,69.1 36,69.1 36,65.9 "/>
<linearGradient id="SVGID_6_" gradientUnits="userSpaceOnUse" x1="0.3333" y1="64.1544" x2="75.4229" y2="64.1544">
	<stop  offset="0" style="stop-color:#00A8B8"/>
	<stop  offset="1" style="stop-color:#17E8EA"/>
</linearGradient>
<polygon class="st5" points="21.6,62 24.2,63.5 22.6,66.3 20,64.8 "/>
<linearGradient id="SVGID_7_" gradientUnits="userSpaceOnUse" x1="0.3333" y1="52.8838" x2="75.4229" y2="52.8838">
	<stop  offset="0" style="stop-color:#00A8B8"/>
	<stop  offset="1" style="stop-color:#17E8EA"/>
</linearGradient>
<polygon class="st6" points="63.5,50.8 66.3,52.4 64.8,55 62,53.4 "/>
<linearGradient id="SVGID_8_" gradientUnits="userSpaceOnUse" x1="0.3333" y1="64.148" x2="75.4229" y2="64.148">
	<stop  offset="0" style="stop-color:#00A8B8"/>
	<stop  offset="1" style="stop-color:#17E8EA"/>
</linearGradient>
<polygon class="st7" points="53.4,62 55,64.8 52.4,66.3 50.8,63.5 "/>
<linearGradient id="SVGID_9_" gradientUnits="userSpaceOnUse" x1="0.3333" y1="10.8484" x2="75.4229" y2="10.8484">
	<stop  offset="0" style="stop-color:#00A8B8"/>
	<stop  offset="1" style="stop-color:#17E8EA"/>
</linearGradient>
<polygon class="st8" points="52.4,8.7 55,10.2 53.4,13 50.8,11.5 "/>
<linearGradient id="SVGID_10_" gradientUnits="userSpaceOnUse" x1="0.3333" y1="52.6136" x2="75.4229" y2="52.6136">
	<stop  offset="0" style="stop-color:#00A8B8"/>
	<stop  offset="1" style="stop-color:#17E8EA"/>
</linearGradient>
<polygon class="st9" points="11.4,50.5 12.8,53.1 10,54.7 8.5,52.1 "/>
<linearGradient id="SVGID_11_" gradientUnits="userSpaceOnUse" x1="0.3333" y1="37.5" x2="75.4229" y2="37.5">
	<stop  offset="0" style="stop-color:#00A8B8"/>
	<stop  offset="1" style="stop-color:#17E8EA"/>
</linearGradient>
<rect x="5.1" y="36" class="st10" width="3.2" height="3"/>
<linearGradient id="SVGID_12_" gradientUnits="userSpaceOnUse" x1="0.3333" y1="22.0156" x2="75.4229" y2="22.0156">
	<stop  offset="0" style="stop-color:#00A8B8"/>
	<stop  offset="1" style="stop-color:#17E8EA"/>
</linearGradient>
<polygon class="st11" points="10.3,19.9 13.1,21.5 11.6,24.1 8.8,22.5 "/>
<linearGradient id="SVGID_13_" gradientUnits="userSpaceOnUse" x1="0.3333" y1="10.8489" x2="75.4229" y2="10.8489">
	<stop  offset="0" style="stop-color:#00A8B8"/>
	<stop  offset="1" style="stop-color:#17E8EA"/>
</linearGradient>
<polygon class="st12" points="22.6,8.7 24.2,11.5 21.6,13 20,10.2 "/>
<linearGradient id="SVGID_14_" gradientUnits="userSpaceOnUse" x1="0.3333" y1="22.1732" x2="75.4229" y2="22.1732">
	<stop  offset="0" style="stop-color:#00A8B8"/>
	<stop  offset="1" style="stop-color:#17E8EA"/>
</linearGradient>
<path class="st13" d="M39,35.7V6c0-0.8-0.7-1.5-1.5-1.5S36,5.1,36,6v25.9l-8.8-15.2c-0.4-0.7-1.3-1-2-0.5c-0.7,0.4-1,1.3-0.5,2
	l10.6,18.4c-0.1,0.3-0.2,0.5-0.2,0.8c0,1.3,1.1,2.4,2.4,2.4s2.4-1.1,2.4-2.4C39.9,36.8,39.5,36.1,39,35.7z"/>
</svg>
