<svg id="Layer_1" xmlns="http://www.w3.org/2000/svg" viewBox="0 0 75 75"><style>.st0{fill:url(#SVGID_1_)}.st1{fill:url(#SVGID_2_)}.st2{fill:url(#SVGID_3_)}.st3{fill:url(#SVGID_4_)}.st4{fill:url(#SVGID_5_)}.st5{fill:url(#SVGID_6_)}.st6{fill:url(#SVGID_7_)}.st7{fill:url(#SVGID_8_)}.st8{fill:url(#SVGID_9_)}.st9{fill:url(#SVGID_10_)}.st10{fill:url(#SVGID_11_)}.st11{fill:url(#SVGID_12_)}.st12{fill:url(#SVGID_13_)}.st13{fill:url(#SVGID_14_)}</style><linearGradient id="SVGID_1_" gradientUnits="userSpaceOnUse" x1="1.5" y1="37.5" x2="1.5" y2="37.5"><stop offset="0" stop-color="#00a8b8"/><stop offset="1" stop-color="#17e8ea"/></linearGradient><linearGradient id="SVGID_2_" gradientUnits="userSpaceOnUse" x1=".333" y1="37.5" x2="75.423" y2="37.5"><stop offset="0" stop-color="#00a8b8"/><stop offset="1" stop-color="#17e8ea"/></linearGradient><path class="st1" d="M37.5 75C16.8 75 0 58.2 0 37.5S16.8 0 37.5 0 75 16.8 75 37.5 58.2 75 37.5 75zm0-72C18.5 3 3 18.5 3 37.5S18.5 72 37.5 72 72 56.5 72 37.5 56.5 3 37.5 3z"/><linearGradient id="SVGID_3_" gradientUnits="userSpaceOnUse" x1=".333" y1="22.107" x2="75.423" y2="22.107"><stop offset="0" stop-color="#00a8b8"/><stop offset="1" stop-color="#17e8ea"/></linearGradient><path class="st2" d="M64.8 20l1.5 2.6-2.8 1.6-1.5-2.6z"/><linearGradient id="SVGID_4_" gradientUnits="userSpaceOnUse" x1=".333" y1="37.5" x2="75.423" y2="37.5"><stop offset="0" stop-color="#00a8b8"/><stop offset="1" stop-color="#17e8ea"/></linearGradient><path class="st3" d="M66.7 36h3.2v3h-3.2z"/><linearGradient id="SVGID_5_" gradientUnits="userSpaceOnUse" x1=".333" y1="67.499" x2="75.423" y2="67.499"><stop offset="0" stop-color="#00a8b8"/><stop offset="1" stop-color="#17e8ea"/></linearGradient><path class="st4" d="M39 65.9v3.2h-3v-3.2z"/><linearGradient id="SVGID_6_" gradientUnits="userSpaceOnUse" x1=".333" y1="64.154" x2="75.423" y2="64.154"><stop offset="0" stop-color="#00a8b8"/><stop offset="1" stop-color="#17e8ea"/></linearGradient><path class="st5" d="M21.6 62l2.6 1.5-1.6 2.8-2.6-1.5z"/><linearGradient id="SVGID_7_" gradientUnits="userSpaceOnUse" x1=".333" y1="52.884" x2="75.423" y2="52.884"><stop offset="0" stop-color="#00a8b8"/><stop offset="1" stop-color="#17e8ea"/></linearGradient><path class="st6" d="M63.5 50.8l2.8 1.6-1.5 2.6-2.8-1.6z"/><linearGradient id="SVGID_8_" gradientUnits="userSpaceOnUse" x1=".333" y1="64.148" x2="75.423" y2="64.148"><stop offset="0" stop-color="#00a8b8"/><stop offset="1" stop-color="#17e8ea"/></linearGradient><path class="st7" d="M53.4 62l1.6 2.8-2.6 1.5-1.6-2.8z"/><linearGradient id="SVGID_9_" gradientUnits="userSpaceOnUse" x1=".333" y1="10.848" x2="75.423" y2="10.848"><stop offset="0" stop-color="#00a8b8"/><stop offset="1" stop-color="#17e8ea"/></linearGradient><path class="st8" d="M52.4 8.7l2.6 1.5-1.6 2.8-2.6-1.5z"/><linearGradient id="SVGID_10_" gradientUnits="userSpaceOnUse" x1=".333" y1="52.614" x2="75.423" y2="52.614"><stop offset="0" stop-color="#00a8b8"/><stop offset="1" stop-color="#17e8ea"/></linearGradient><path class="st9" d="M11.4 50.5l1.4 2.6-2.8 1.6-1.5-2.6z"/><linearGradient id="SVGID_11_" gradientUnits="userSpaceOnUse" x1=".333" y1="37.5" x2="75.423" y2="37.5"><stop offset="0" stop-color="#00a8b8"/><stop offset="1" stop-color="#17e8ea"/></linearGradient><path class="st10" d="M5.1 36h3.2v3H5.1z"/><linearGradient id="SVGID_12_" gradientUnits="userSpaceOnUse" x1=".333" y1="22.016" x2="75.423" y2="22.016"><stop offset="0" stop-color="#00a8b8"/><stop offset="1" stop-color="#17e8ea"/></linearGradient><path class="st11" d="M10.3 19.9l2.8 1.6-1.5 2.6-2.8-1.6z"/><linearGradient id="SVGID_13_" gradientUnits="userSpaceOnUse" x1=".333" y1="10.849" x2="75.423" y2="10.849"><stop offset="0" stop-color="#00a8b8"/><stop offset="1" stop-color="#17e8ea"/></linearGradient><path class="st12" d="M22.6 8.7l1.6 2.8-2.6 1.5-1.6-2.8z"/><linearGradient id="SVGID_14_" gradientUnits="userSpaceOnUse" x1=".333" y1="22.173" x2="75.423" y2="22.173"><stop offset="0" stop-color="#00a8b8"/><stop offset="1" stop-color="#17e8ea"/></linearGradient><path class="st13" d="M39 35.7V6c0-.8-.7-1.5-1.5-1.5S36 5.1 36 6v25.9l-8.8-15.2c-.4-.7-1.3-1-2-.5-.7.4-1 1.3-.5 2l10.6 18.4c-.1.3-.2.5-.2.8 0 1.3 1.1 2.4 2.4 2.4s2.4-1.1 2.4-2.4c0-.6-.4-1.3-.9-1.7z"/></svg>