<svg id="Layer_1" xmlns="http://www.w3.org/2000/svg" viewBox="0 0 75 75"><style>.st0{display:none;fill:url(#SVGID_1_)}.st1{fill:url(#SVGID_2_)}</style><g transform="translate(0 -952.362)"><linearGradient id="SVGID_1_" gradientUnits="userSpaceOnUse" x1="38" y1="1052.385" x2="162" y2="1052.385"><stop offset="0" stop-color="#00a8b8"/><stop offset="1" stop-color="#17e8ea"/></linearGradient><path class="st0" d="M100.4 962.4c1.5.1 3 .8 4 2 29.4 32.8 57.6 71.8 57.6 109.5 0 37.5-27.6 68.5-62 68.5s-62-31-62-68.5c0-37.7 28.1-76.7 57.6-109.5 1.2-1.4 3-2.2 4.8-2zM100 978c-26.8 30.9-50 66.4-50 95.9 0 31.4 22.6 56.3 50 56.3s50-24.8 50-56.3c0-29.5-23.2-65-50-95.9zm41.8 90.8c1.6 17.2-6.9 36.1-20.4 45.4-2.6 1.9-6.7 1.2-8.5-1.4s-1-6.7 1.7-8.4c8.6-6 16.4-22.5 15.2-34.4-.4-3.4 2.7-6.7 6.1-6.6 3.1-.1 5.6 2.5 5.9 5.4z"/><linearGradient id="SVGID_2_" gradientUnits="userSpaceOnUse" y1="989.862" x2="50.862" y2="989.862"><stop offset="0" stop-color="#00a8b8"/><stop offset="1" stop-color="#17e8ea"/></linearGradient><path class="st1" d="M25.4 1027.4c-14 0-25.4-12.7-25.4-28.2 0-17.1 14-34.6 24.5-46.3.3-.3.6-.4.9-.4h.1c.3 0 .6.2.9.4 10.5 11.7 24.5 29.3 24.5 46.3 0 15.5-11.5 28.2-25.5 28.2zm-1-70.5C9.9 973.7 2.6 987.8 2.6 999.1c0 14.1 10.3 25.6 22.8 25.6s22.8-11.5 22.8-25.6c0-11.3-7.4-25.5-21.9-42.2l-1-1.1-.9 1.1zm8.8 58.8c-.5 0-.9-.2-1.1-.5-.2-.3-.2-.6-.2-1 .1-.3.3-.7.5-.9 4.3-3 7.7-10.6 7.2-16 0-.3.1-.7.3-1 .3-.3.6-.5.9-.5.6 0 1.2.6 1.2 1.2.6 6.9-2.8 14.7-8.2 18.4-.1.2-.4.3-.6.3z"/></g></svg>