<?xml version="1.0" encoding="utf-8"?>
<!-- Generator: Adobe Illustrator 22.0.1, SVG Export Plug-In . SVG Version: 6.00 Build 0)  -->
<svg version="1.1"
	 id="Layer_1" xmlns:cc="http://creativecommons.org/ns#" xmlns:dc="http://purl.org/dc/elements/1.1/" xmlns:inkscape="http://www.inkscape.org/namespaces/inkscape" xmlns:rdf="http://www.w3.org/1999/02/22-rdf-syntax-ns#" xmlns:sodipodi="http://sodipodi.sourceforge.net/DTD/sodipodi-0.dtd" xmlns:svg="http://www.w3.org/2000/svg"
	 xmlns="http://www.w3.org/2000/svg" xmlns:xlink="http://www.w3.org/1999/xlink" x="0px" y="0px" viewBox="0 0 75 75"
	 style="enable-background:new 0 0 75 75;" xml:space="preserve">
<style type="text/css">
	.st0{display:none;fill:url(#SVGID_1_);}
	.st1{fill:url(#SVGID_2_);}
</style>
<g transform="translate(0,-952.36218)">
	<linearGradient id="SVGID_1_" gradientUnits="userSpaceOnUse" x1="38" y1="1052.3848" x2="162" y2="1052.3848">
		<stop  offset="0" style="stop-color:#00A8B8"/>
		<stop  offset="1" style="stop-color:#17E8EA"/>
	</linearGradient>
	<path class="st0" d="M100.4,962.4c1.5,0.1,3,0.8,4,2c29.4,32.8,57.6,71.8,57.6,109.5c0,37.5-27.6,68.5-62,68.5s-62-31-62-68.5
		c0-37.7,28.1-76.7,57.6-109.5C96.8,963,98.6,962.2,100.4,962.4L100.4,962.4z M100,978c-26.8,30.9-50,66.4-50,95.9
		c0,31.4,22.6,56.3,50,56.3s50-24.8,50-56.3C150,1044.4,126.8,1008.9,100,978L100,978z M141.8,1068.8c1.6,17.2-6.9,36.1-20.4,45.4
		c-2.6,1.9-6.7,1.2-8.5-1.4s-1-6.7,1.7-8.4c8.6-6,16.4-22.5,15.2-34.4c-0.4-3.4,2.7-6.7,6.1-6.6
		C139,1063.3,141.5,1065.9,141.8,1068.8L141.8,1068.8z"/>
	<linearGradient id="SVGID_2_" gradientUnits="userSpaceOnUse" x1="0" y1="989.8622" x2="50.8621" y2="989.8622">
		<stop  offset="0" style="stop-color:#00A8B8"/>
		<stop  offset="1" style="stop-color:#17E8EA"/>
	</linearGradient>
	<path class="st1" d="M25.4,1027.4c-14,0-25.4-12.7-25.4-28.2c0-17.1,14-34.6,24.5-46.3c0.3-0.3,0.6-0.4,0.9-0.4c0,0,0,0,0.1,0
		c0.3,0,0.6,0.2,0.9,0.4c10.5,11.7,24.5,29.3,24.5,46.3C50.9,1014.7,39.4,1027.4,25.4,1027.4z M24.4,956.9
		C9.9,973.7,2.6,987.8,2.6,999.1c0,14.1,10.3,25.6,22.8,25.6s22.8-11.5,22.8-25.6c0-11.3-7.4-25.5-21.9-42.2l-1-1.1L24.4,956.9z
		 M33.2,1015.7c-0.5,0-0.9-0.2-1.1-0.5c-0.2-0.3-0.2-0.6-0.2-1c0.1-0.3,0.3-0.7,0.5-0.9c4.3-3,7.7-10.6,7.2-16c0-0.3,0.1-0.7,0.3-1
		c0.3-0.3,0.6-0.5,0.9-0.5h0c0.6,0,1.2,0.6,1.2,1.2c0.6,6.9-2.8,14.7-8.2,18.4C33.7,1015.6,33.4,1015.7,33.2,1015.7z"/>
</g>
</svg>
