<svg id="Layer_1" xmlns="http://www.w3.org/2000/svg" viewBox="0 0 21.6 14.9"><style>.st0{fill:#008641}</style><path class="st0" d="M0 12.7c1.4-1.8 3-3.5 4.6-4.9-.7-.6-1.2-1.3-1.4-2.2.5 1 1.1 1.8 1.6 2 .5-.4 1-.8 1.5-1.1-.7-1-1-2-1-3.2.3 1.4.6 2.5 1.2 3 3-2.1 6.2-3.3 9.8-3.2-1.3 0-2.5.3-3.7.7.9.2 1.4.5 2.1 1.2-.9-.6-1.8-1-2.5-1.1-.6.2-1.3.5-1.9.8 1.3.3 2.5.9 3.4 1.7-1.6-.9-3-1.6-3.9-1.5-.5.3-1 .5-1.5.9 1.4.3 2.5.9 3.5 1.7-1.6-.9-3-1.6-3.9-1.5-.5.3-.9.7-1.3 1 1.6.3 3 1 4.2 2-1.9-1.1-3.5-1.8-4.7-1.7-.3.3-.7.6-1.1.9 1.7.3 3.1 1 4.3 2.1-1.9-1.2-3.6-1.9-4.7-1.7-.3.2-.6.5-.9.8 2.1.3 3.9 1.2 5.4 2.5-2.5-1.4-4.6-2.4-6-1.9-1.1 1-2 2-2.9 3.1 13.3 7.1 12.7-8 21.5-10.6C8.6-3.2 2 1.3 0 12.7z"/></svg>