<?xml version="1.0" encoding="utf-8"?>
<!-- Generator: Adobe Illustrator 22.0.1, SVG Export Plug-In . SVG Version: 6.00 Build 0)  -->
<svg version="1.1" id="Layer_1" xmlns="http://www.w3.org/2000/svg" xmlns:xlink="http://www.w3.org/1999/xlink" x="0px" y="0px"
	 viewBox="0 0 21.6 14.9" style="enable-background:new 0 0 21.6 14.9;" xml:space="preserve">
<style type="text/css">
	.st0{fill:#008641;}
</style>
<path class="st0" d="M0,12.7c1.4-1.8,3-3.5,4.6-4.9C3.9,7.2,3.4,6.5,3.2,5.6c0.5,1,1.1,1.8,1.6,2c0.5-0.4,1-0.8,1.5-1.1
	c-0.7-1-1-2-1-3.2c0.3,1.4,0.6,2.5,1.2,3c3-2.1,6.2-3.3,9.8-3.2c-1.3,0-2.5,0.3-3.7,0.7C13.5,4,14,4.3,14.7,5
	c-0.9-0.6-1.8-1-2.5-1.1c-0.6,0.2-1.3,0.5-1.9,0.8c1.3,0.3,2.5,0.9,3.4,1.7c-1.6-0.9-3-1.6-3.9-1.5c-0.5,0.3-1,0.5-1.5,0.9
	c1.4,0.3,2.5,0.9,3.5,1.7c-1.6-0.9-3-1.6-3.9-1.5C7.4,6.3,7,6.7,6.6,7c1.6,0.3,3,1,4.2,2C8.9,7.9,7.3,7.2,6.1,7.3
	C5.8,7.6,5.4,7.9,5,8.2c1.7,0.3,3.1,1,4.3,2.1C7.4,9.1,5.7,8.4,4.6,8.6C4.3,8.8,4,9.1,3.7,9.4c2.1,0.3,3.9,1.2,5.4,2.5
	c-2.5-1.4-4.6-2.4-6-1.9C2,11,1.1,12,0.2,13.1c13.3,7.1,12.7-8,21.5-10.6C8.6-3.2,2,1.3,0,12.7z"/>
</svg>
