<?xml version="1.0" encoding="utf-8"?>
<!-- Generator: Adobe Illustrator 22.0.1, SVG Export Plug-In . SVG Version: 6.00 Build 0)  -->
<svg version="1.1" id="Layer_1" xmlns="http://www.w3.org/2000/svg" xmlns:xlink="http://www.w3.org/1999/xlink" x="0px" y="0px"
	 viewBox="0 0 100 100" style="enable-background:new 0 0 100 100;" xml:space="preserve">
<style type="text/css">
	.st0{display:none;}
	.st1{display:inline;}
	.st2{fill:url(#SVGID_1_);}
	.st3{fill:url(#SVGID_2_);}
	.st4{fill:url(#SVGID_3_);}
</style>
<g class="st0">
	<rect x="-526.5" y="0" class="st1" width="2732.5" height="62.5"/>
</g>
<g>
	<g>
		<linearGradient id="SVGID_1_" gradientUnits="userSpaceOnUse" x1="0.5" y1="33.9346" x2="80.0505" y2="33.9346">
			<stop  offset="0" style="stop-color:#00A8B8"/>
			<stop  offset="1" style="stop-color:#17E8EA"/>
		</linearGradient>
		<path class="st2" d="M21.8,16.5L20,17.2l1.1,1.6c0.3,0.4,6.7,9.9,15.4,10.9c0.5,0.1,1.1,0.1,1.6,0.1c3.3,0,6.4-1.3,9.3-3.8
			c6.9,5.6,11.4,12.4,14.3,18.9C47.7,30.1,32,42,31.9,42.1l-1.6,1.2l1.6,1.2c7.7,6.1,14.6,7.9,20,7.9c6.8,0,11.1-2.7,11.4-2.9
			l0.2-0.1c3.6,10,3.7,18.3,3.7,18.4h3.1c0-0.6-0.1-9.2-3.8-19.5c7.8-3.3,12.9-7.9,15.3-13.6c3-7.2,0.4-13.6,0.2-13.9l-0.6-1.5
			L80,20c-12.4,5.7-15.6,15.2-16.4,21.4C60.5,35.3,56,29,49.4,23.6c5.8-3.1,14.3-11.2,9.4-22.2l-0.6-1.4l-1.4,0.6
			c-0.1,0.1-13.9,5.8-10.6,21.2C42.5,18.5,33.2,12.1,21.8,16.5z M35.5,43.4c4.1-2.4,14.6-6.6,24.5,4.3
			C56.4,49.2,47.1,51.7,35.5,43.4z M79.7,23.7c0.5,2,0.9,5.8-0.7,9.8C77,38.2,72.8,42,66.5,44.9C66.4,40.5,67.6,30,79.7,23.7z
			 M56.5,4.3c2.6,8.3-4.1,13.8-7.5,15.9C47.4,10.7,53.6,5.9,56.5,4.3z M44.5,24.4c-2.4,1.8-5,2.5-7.6,2.2c-5.3-0.7-9.8-5.4-11.9-7.9
			C34.4,16.2,41.7,21.9,44.5,24.4z"/>
		<linearGradient id="SVGID_2_" gradientUnits="userSpaceOnUse" x1="0.5" y1="84.0424" x2="80.0505" y2="84.0424">
			<stop  offset="0" style="stop-color:#00A8B8"/>
			<stop  offset="1" style="stop-color:#17E8EA"/>
		</linearGradient>
		<path class="st3" d="M75.1,80.9c0.4-0.9,0.3-1.8-0.1-2.7c-1-1.9-4.3-4.9-21.6-8.5c-18.2-3.8-31.1-0.1-31.7,0l-1.1,0.3v27.9
			l2.3-1.1c3-1.5,11.7-5,15.8-3c5.7,2.8,19.7,6.3,29.2,6.3c0.9,0,1.7,0,2.5-0.1C80.6,99.2,96.2,86.5,99,82.5
			c1.7-2.4,0.8-3.9,0.3-4.5c-2.1-2.5-7.9-1.4-12.6,0.9c-6.3,3.2-21.2,7.4-31,3.4C74,83.6,74.7,81.9,75.1,80.9z M49.8,78.8l-4.3-0.4
			l3.1,3.1c11.2,11,34.1,3,39.6,0.3c4.6-2.3,8.2-2.2,8.7-1.8c0,0,0,0.2-0.4,0.8C94,84.2,79.2,96.1,70.1,96.9
			C61.4,97.6,45.8,93.8,40,91c-1.3-0.6-2.9-0.9-4.6-0.9c-4.2,0-9,1.7-11.7,2.9V72.5c3.5-0.8,14.6-2.7,29,0.3
			c15.1,3.2,18.5,5.7,19.3,6.6C69.1,79.9,58.7,79.5,49.8,78.8z"/>
		<linearGradient id="SVGID_3_" gradientUnits="userSpaceOnUse" x1="0.5" y1="84.9335" x2="80.0505" y2="84.9335">
			<stop  offset="0" style="stop-color:#00A8B8"/>
			<stop  offset="1" style="stop-color:#17E8EA"/>
		</linearGradient>
		<path class="st4" d="M0,69.8v30.3h16.9V69.8L0,69.8L0,69.8z M13.7,97H3.1v-24h10.6V97z"/>
	</g>
</g>
</svg>
