<svg id="Layer_1" xmlns="http://www.w3.org/2000/svg" viewBox="0 0 100 100"><style>.st0{display:none}.st1{display:inline}.st2{fill:url(#SVGID_1_)}.st3{fill:url(#SVGID_2_)}.st4{fill:url(#SVGID_3_)}</style><g class="st0"><path class="st1" d="M-526.5 0H2206v62.5H-526.5z"/></g><linearGradient id="SVGID_1_" gradientUnits="userSpaceOnUse" x1=".5" y1="33.935" x2="80.05" y2="33.935"><stop offset="0" stop-color="#00a8b8"/><stop offset="1" stop-color="#17e8ea"/></linearGradient><path class="st2" d="M21.8 16.5l-1.8.7 1.1 1.6c.3.4 6.7 9.9 15.4 10.9.5.1 1.1.1 1.6.1 3.3 0 6.4-1.3 9.3-3.8 6.9 5.6 11.4 12.4 14.3 18.9-14-14.8-29.7-2.9-29.8-2.8l-1.6 1.2 1.6 1.2c7.7 6.1 14.6 7.9 20 7.9 6.8 0 11.1-2.7 11.4-2.9l.2-.1c3.6 10 3.7 18.3 3.7 18.4h3.1c0-.6-.1-9.2-3.8-19.5 7.8-3.3 12.9-7.9 15.3-13.6 3-7.2.4-13.6.2-13.9l-.6-1.5-1.4.7c-12.4 5.7-15.6 15.2-16.4 21.4C60.5 35.3 56 29 49.4 23.6c5.8-3.1 14.3-11.2 9.4-22.2L58.2 0l-1.4.6c-.1.1-13.9 5.8-10.6 21.2-3.7-3.3-13-9.7-24.4-5.3zm13.7 26.9c4.1-2.4 14.6-6.6 24.5 4.3-3.6 1.5-12.9 4-24.5-4.3zm44.2-19.7c.5 2 .9 5.8-.7 9.8-2 4.7-6.2 8.5-12.5 11.4-.1-4.4 1.1-14.9 13.2-21.2zM56.5 4.3c2.6 8.3-4.1 13.8-7.5 15.9-1.6-9.5 4.6-14.3 7.5-15.9zm-12 20.1c-2.4 1.8-5 2.5-7.6 2.2-5.3-.7-9.8-5.4-11.9-7.9 9.4-2.5 16.7 3.2 19.5 5.7z"/><linearGradient id="SVGID_2_" gradientUnits="userSpaceOnUse" x1=".5" y1="84.042" x2="80.05" y2="84.042"><stop offset="0" stop-color="#00a8b8"/><stop offset="1" stop-color="#17e8ea"/></linearGradient><path class="st3" d="M75.1 80.9c.4-.9.3-1.8-.1-2.7-1-1.9-4.3-4.9-21.6-8.5-18.2-3.8-31.1-.1-31.7 0l-1.1.3v27.9l2.3-1.1c3-1.5 11.7-5 15.8-3 5.7 2.8 19.7 6.3 29.2 6.3.9 0 1.7 0 2.5-.1 10.2-.8 25.8-13.5 28.6-17.5 1.7-2.4.8-3.9.3-4.5-2.1-2.5-7.9-1.4-12.6.9-6.3 3.2-21.2 7.4-31 3.4 18.3 1.3 19-.4 19.4-1.4zm-25.3-2.1l-4.3-.4 3.1 3.1c11.2 11 34.1 3 39.6.3 4.6-2.3 8.2-2.2 8.7-1.8 0 0 0 .2-.4.8-2.5 3.4-17.3 15.3-26.4 16.1-8.7.7-24.3-3.1-30.1-5.9-1.3-.6-2.9-.9-4.6-.9-4.2 0-9 1.7-11.7 2.9V72.5c3.5-.8 14.6-2.7 29 .3C67.8 76 71.2 78.5 72 79.4c-2.9.5-13.3.1-22.2-.6z"/><linearGradient id="SVGID_3_" gradientUnits="userSpaceOnUse" x1=".5" y1="84.933" x2="80.05" y2="84.933"><stop offset="0" stop-color="#00a8b8"/><stop offset="1" stop-color="#17e8ea"/></linearGradient><path class="st4" d="M0 69.8v30.3h16.9V69.8H0zM13.7 97H3.1V73h10.6v24z"/></svg>