<?xml version="1.0" encoding="utf-8"?>
<!-- Generator: Adobe Illustrator 22.0.1, SVG Export Plug-In . SVG Version: 6.00 Build 0)  -->
<svg version="1.1" id="Layer_1" xmlns="http://www.w3.org/2000/svg" xmlns:xlink="http://www.w3.org/1999/xlink" x="0px" y="0px"
	 viewBox="0 0 100 100" style="enable-background:new 0 0 100 100;" xml:space="preserve">
<style type="text/css">
	.st0{fill:url(#SVGID_1_);}
</style>
<linearGradient id="SVGID_1_" gradientUnits="userSpaceOnUse" x1="8" y1="50" x2="92.2645" y2="50">
	<stop  offset="0" style="stop-color:#00A8B8"/>
	<stop  offset="1" style="stop-color:#17E8EA"/>
</linearGradient>
<path class="st0" d="M75.8,73.3l8.9,19.1l-10-0.3l-6.2,7.8l-8-17.2l0,0c-1,1.5-3,1.8-4.4,0.9l-3.4-2.2c-1.5-1-3.8-1-5.3,0l-3.4,2.2
	c-1.5,1-3.4,0.6-4.4-0.9l0,0l-8,17.2l-6.2-7.8l-10,0.3l8.9-19.1l-0.3-1.5c-0.3-1.7-2-3.4-3.7-3.7l-4-0.8c-1.7-0.3-2.8-2-2.5-3.7
	l0.8-4c0.3-1.7-0.6-3.9-2-4.9l-3.4-2.2c-1.5-1-1.8-3-0.9-4.4l2.2-3.4c1-1.5,1-3.8,0-5.3l-2.2-3.4c-1-1.5-0.6-3.4,0.9-4.4l3.4-2.2
	c1.5-1,2.4-3.2,2-4.9l-0.8-4c-0.3-1.7,0.8-3.4,2.5-3.7l4-0.8c1.7-0.3,3.4-2,3.7-3.7l0.8-4c0.3-1.7,2-2.8,3.7-2.5l4,0.8
	c1.7,0.3,3.9-0.6,4.9-2l2.2-3.4c1-1.5,3-1.8,4.4-0.9l3.4,2.2c1.5,1,3.8,1,5.3,0l3.4-2.2c1.5-1,3.4-0.6,4.4,0.9l2.2,3.4
	c1,1.5,3.2,2.4,4.9,2l4-0.8c1.7-0.3,3.4,0.8,3.7,2.5l0.8,4c0.3,1.7,2,3.4,3.7,3.7l4,0.8c1.7,0.3,2.8,2,2.5,3.7l-0.8,4
	c-0.3,1.7,0.6,3.9,2,4.9l3.4,2.2c1.5,1,1.8,3,0.9,4.4l-2.2,3.4c-1,1.5-1,3.8,0,5.3l2.2,3.4c1,1.5,0.6,3.4-0.9,4.4l-3.4,2.2
	c-1.5,1-2.4,3.2-2,4.9l0.8,4c0.3,1.7-0.8,3.4-2.5,3.7l-4,0.8c-1.7,0.3-3.4,2-3.7,3.7L75.8,73.3z M74.3,77.5
	c-0.7,0.6-1.7,0.9-2.7,0.7l-4-0.8c-1.7-0.3-3.9,0.6-4.9,2l-0.2,0.3L69.2,94l4-5.1l6.5,0.2L74.3,77.5z M37.7,79.8l-0.2-0.3
	c-1-1.5-3.2-2.4-4.9-2l-4,0.8c-1,0.2-2-0.1-2.7-0.7l-5.4,11.6L27,89l4,5.1L37.7,79.8z M57.3,77.9c0,0,2.1-3.1,2.1-3.1
	c1.5-2.3,4.7-3.6,7.5-3.1l3.6,0.7c0,0,0.7-3.6,0.7-3.6c0.5-2.7,3-5.2,5.7-5.7l3.6-0.7c0,0-0.7-3.6-0.7-3.6c-0.5-2.7,0.8-5.9,3.1-7.5
	l3.1-2.1c0,0-2.1-3.1-2.1-3.1c-1.5-2.3-1.5-5.8,0-8.1l2.1-3.1c0,0-3.1-2.1-3.1-2.1c-2.3-1.5-3.6-4.7-3.1-7.5l0.7-3.6
	c0,0-3.6-0.7-3.6-0.7c-2.7-0.5-5.2-3-5.7-5.7l-0.7-3.6c0,0-3.6,0.7-3.6,0.7c-2.7,0.5-5.9-0.8-7.5-3.1l-2.1-3.1c0,0-3.1,2.1-3.1,2.1
	c-2.3,1.5-5.8,1.5-8.1,0L43,6.3c0,0-2.1,3.1-2.1,3.1c-1.5,2.3-4.7,3.6-7.5,3.1l-3.6-0.7c0,0-0.7,3.6-0.7,3.6c-0.5,2.7-3,5.2-5.7,5.7
	l-3.6,0.7c0,0,0.7,3.6,0.7,3.6c0.5,2.7-0.8,5.9-3.1,7.5L14.3,35c0,0,2.1,3.1,2.1,3.1c1.5,2.3,1.5,5.8,0,8.1l-2.1,3.1
	c0,0,3.1,2.1,3.1,2.1c2.3,1.5,3.6,4.7,3.1,7.5l-0.7,3.6c0,0,3.6,0.7,3.6,0.7c2.7,0.5,5.2,3,5.7,5.7l0.7,3.6c0,0,3.6-0.7,3.6-0.7
	c2.7-0.5,5.9,0.8,7.5,3.1l2.1,3.1c0,0,3.1-2.1,3.1-2.1c2.3-1.5,5.8-1.5,8.1,0L57.3,77.9z M50.1,70.6c-15.7,0-28.4-12.7-28.4-28.4
	s12.7-28.4,28.4-28.4c15.7,0,28.4,12.7,28.4,28.4S65.8,70.6,50.1,70.6z M50.1,67.4c14,0,25.3-11.3,25.3-25.3S64.1,16.9,50.1,16.9
	c-14,0-25.3,11.3-25.3,25.3S36.2,67.4,50.1,67.4z M38.5,42.5l0.9-0.9c0.6-0.6,1.6-0.6,2.2,0l4.1,4.1c0.6,0.6,1.6,0.6,2.2,0
	l10.4-10.4c0.6-0.6,1.6-0.6,2.2,0l0.9,0.9c0.6,0.6,0.6,1.6,0,2.2L49.1,50.8c-1.2,1.2-3.2,1.2-4.5,0l-6.1-6.1
	C37.9,44.1,37.8,43.1,38.5,42.5z"/>
</svg>
