<svg id="Layer_1" xmlns="http://www.w3.org/2000/svg" viewBox="0 0 100 100"><style>.st0{fill:url(#SVGID_1_)}</style><linearGradient id="SVGID_1_" gradientUnits="userSpaceOnUse" x1="8" y1="50" x2="92.264" y2="50"><stop offset="0" stop-color="#00a8b8"/><stop offset="1" stop-color="#17e8ea"/></linearGradient><path class="st0" d="M75.8 73.3l8.9 19.1-10-.3-6.2 7.8-8-17.2c-1 1.5-3 1.8-4.4.9l-3.4-2.2c-1.5-1-3.8-1-5.3 0L44 83.6c-1.5 1-3.4.6-4.4-.9l-8 17.2-6.2-7.8-10 .3 8.9-19.1-.3-1.5c-.3-1.7-2-3.4-3.7-3.7l-4-.8c-1.7-.3-2.8-2-2.5-3.7l.8-4c.3-1.7-.6-3.9-2-4.9l-3.4-2.2c-1.5-1-1.8-3-.9-4.4l2.2-3.4c1-1.5 1-3.8 0-5.3L8.3 36c-1-1.5-.6-3.4.9-4.4l3.4-2.2c1.5-1 2.4-3.2 2-4.9l-.8-4c-.3-1.7.8-3.4 2.5-3.7l4-.8c1.7-.3 3.4-2 3.7-3.7l.8-4c.3-1.7 2-2.8 3.7-2.5l4 .8c1.7.3 3.9-.6 4.9-2l2.2-3.4c1-1.5 3-1.8 4.4-.9l3.4 2.2c1.5 1 3.8 1 5.3 0L56.1.3c1.5-1 3.4-.6 4.4.9l2.2 3.4c1 1.5 3.2 2.4 4.9 2l4-.8c1.7-.3 3.4.8 3.7 2.5l.8 4c.3 1.7 2 3.4 3.7 3.7l4 .8c1.7.3 2.8 2 2.5 3.7l-.8 4c-.3 1.7.6 3.9 2 4.9l3.4 2.2c1.5 1 1.8 3 .9 4.4l-2.2 3.4c-1 1.5-1 3.8 0 5.3l2.2 3.4c1 1.5.6 3.4-.9 4.4l-3.4 2.2c-1.5 1-2.4 3.2-2 4.9l.8 4c.3 1.7-.8 3.4-2.5 3.7l-4 .8c-1.7.3-3.4 2-3.7 3.7l-.3 1.5zm-1.5 4.2c-.7.6-1.7.9-2.7.7l-4-.8c-1.7-.3-3.9.6-4.9 2l-.2.3L69.2 94l4-5.1 6.5.2-5.4-11.6zm-36.6 2.3l-.2-.3c-1-1.5-3.2-2.4-4.9-2l-4 .8c-1 .2-2-.1-2.7-.7l-5.4 11.6L27 89l4 5.1 6.7-14.3zm19.6-1.9l2.1-3.1c1.5-2.3 4.7-3.6 7.5-3.1l3.6.7.7-3.6c.5-2.7 3-5.2 5.7-5.7l3.6-.7-.7-3.6c-.5-2.7.8-5.9 3.1-7.5l3.1-2.1-2.1-3.1c-1.5-2.3-1.5-5.8 0-8.1l2.1-3.1-3.1-2.1c-2.3-1.5-3.6-4.7-3.1-7.5l.7-3.6-3.6-.7c-2.7-.5-5.2-3-5.7-5.7l-.7-3.6-3.6.7c-2.7.5-5.9-.8-7.5-3.1l-2.1-3.1-3.1 2.1c-2.3 1.5-5.8 1.5-8.1 0l-3.1-2-2.1 3.1c-1.5 2.3-4.7 3.6-7.5 3.1l-3.6-.7-.7 3.6c-.5 2.7-3 5.2-5.7 5.7l-3.6.7.7 3.6c.5 2.7-.8 5.9-3.1 7.5L14.3 35l2.1 3.1c1.5 2.3 1.5 5.8 0 8.1l-2.1 3.1 3.1 2.1c2.3 1.5 3.6 4.7 3.1 7.5l-.7 3.6 3.6.7c2.7.5 5.2 3 5.7 5.7l.7 3.6 3.6-.7c2.7-.5 5.9.8 7.5 3.1L43 78l3.1-2.1c2.3-1.5 5.8-1.5 8.1 0l3.1 2zm-7.2-7.3c-15.7 0-28.4-12.7-28.4-28.4s12.7-28.4 28.4-28.4 28.4 12.7 28.4 28.4-12.7 28.4-28.4 28.4zm0-3.2c14 0 25.3-11.3 25.3-25.3S64.1 16.9 50.1 16.9 24.8 28.2 24.8 42.2s11.4 25.2 25.3 25.2zM38.5 42.5l.9-.9c.6-.6 1.6-.6 2.2 0l4.1 4.1c.6.6 1.6.6 2.2 0l10.4-10.4c.6-.6 1.6-.6 2.2 0l.9.9c.6.6.6 1.6 0 2.2L49.1 50.8c-1.2 1.2-3.2 1.2-4.5 0l-6.1-6.1c-.6-.6-.7-1.6 0-2.2z"/></svg>