<svg version="1" xmlns="http://www.w3.org/2000/svg" width="287.273" height="121.465"><path d="M41.648 67.776l7.129-37.726s3.066 1.456 6.268 1.456c3.199 0 6.859-1.456 6.859-1.456l-7.141 37.726H41.648zm23.467-11.333c2.305 1.071 6.68 2.749 10.582 2.681 2.609 0 3.686-.998 3.686-2.215 0-1.389-1.156-2.455-4.439-3.918-4.295-2.078-8.457-5.221-8.457-10.209 0-8.357 7.367-13.581 17.799-13.581 4.832 0 8.441.933 10.436 2.001l-2.994 9.05c-1.68-.692-4.447-1.608-7.969-1.608-2.471 0-4.07.775-4.07 2.303 0 1.07 1.381 2.223 4.295 3.527 4.066 1.914 9.053 4.748 9.053 10.431 0 8.97-7.75 13.81-18.555 13.729-5.064-.158-9.973-1.387-12.43-3.147l3.063-9.044zM137.9 82.966l7.209-37.802c.76-4.451 1.771-11.577 2.225-15.491h11.656l-.537 5.206h.15c2.914-3.751 7.145-5.678 11.436-5.678 8.211 0 12.416 6.523 12.416 14.579 0 13.025-8.428 24.854-21.779 24.854-2.59 0-5.295-.697-6.508-1.533h-.154l-3.07 15.865H137.9zm18.098-25.84c1.002 1 2.311 1.691 4.143 1.691 4.908 0 8.596-7.669 8.596-14.041 0-2.527-1.146-4.98-3.914-4.98-3.754 0-6.594 4.151-7.67 10.203l-1.155 7.127zm97.781 10.65c.088-2.143.23-4.352.311-6.512h-.135c-3.225 5.602-7.916 7.369-11.895 7.369-6.822 0-11.67-5.209-11.67-13.428 0-12.496 7.9-26.005 27.379-26.005 4.91 0 10.061 1.001 13.436 2.081l-3.992 19.791c-.775 4.062-1.6 11.799-1.455 16.703h-11.979zm2.776-28.523c-.854-.148-1.773-.232-2.387-.232-6.125 0-10.119 8.206-10.119 13.73 0 3.537 1.453 5.375 3.76 5.375 2.373 0 5.508-2.391 7.217-11.281l1.529-7.592zm24.98-16.799c3.232 0 5.738 2.514 5.738 5.641 0 3.201-2.506 5.676-5.77 5.676-3.232 0-5.822-2.475-5.822-5.676 0-3.127 2.59-5.641 5.822-5.641h.032zm-.062 1.142c-2.475 0-4.336 2.019-4.336 4.499 0 2.519 1.861 4.514 4.398 4.514 2.484.023 4.293-1.995 4.293-4.514 0-2.48-1.809-4.499-4.324-4.499h-.031zm-.858 7.428h-1.313V25.43a10.038 10.038 0 0 1 2.17-.218c1.064 0 1.537.182 1.969.442.309.243.529.69.529 1.207 0 .652-.475 1.138-1.15 1.34v.063c.539.176.846.621 1.021 1.383.178.857.271 1.201.41 1.377h-1.395c-.186-.209-.287-.698-.447-1.337-.117-.628-.455-.897-1.176-.897h-.619v2.234zm.043-3.163h.607c.73 0 1.305-.243 1.305-.823 0-.516-.371-.857-1.199-.857-.357 0-.584.025-.713.063v1.617zm-249.24-7.083c-4.305 9.633-13.117 29.586-14.695 33.888h-.148c-.463-6.206-3.076-38.573-3.076-38.573H0l6.451 51.684h15.34l26.816-52.693s-2.555.242-7.492 1.623c-3.957 1.128-8.59 3.491-9.697 4.071zm65.219 46.998h13.119l3.146-16.568c1.375-7.261 4.281-11.563 7.75-11.563 2.143 0 2.916 1.456 2.916 3.523 0 1.385-.154 2.913-.461 4.445l-3.836 20.162h13.107l3.986-21.389c.467-2.223.771-5.217.771-6.895 0-6.139-2.99-10.292-9.582-10.292-4.605 0-8.283 2.001-11.361 4.915h-.152l2.779-14.311c-4.26-.632-8.488-1.344-12.693-2.072l-9.489 50.045zm119.345-38.575c-4.613 0-8.291 2.001-11.354 4.915h-.154l3.975-20.785h-.223a89.014 89.014 0 0 1-14.109 6.555l-9.045 47.891h13.117l3.135-16.568c1.389-7.261 4.301-11.563 7.77-11.563 2.119 0 2.898 1.456 2.898 3.523 0 1.385-.17 2.913-.473 4.445l-3.828 20.162h13.117l3.986-21.389c.471-2.223.775-5.217.775-6.895.001-6.138-3.003-10.291-9.587-10.291z" fill="#414142"/><path d="M61.24 1.273c-8.459 1.612-15.559 5.358-21.396 8.808-.912.539-2.686 1.598-6.672 4.609 1.541-.852 6.846-3.293 17-4.912 11.096-1.748 30.266-2.771 58.588 2.389 63.111 11.484 92.031-1.084 101.539-7.018l.781-.533s.943-.686 1.762-1.303c-3.395 1.467-7.234 2.759-11.689 3.917-23.248 6.073-49.527 3.558-69.826.684-6.074-.846-12.365-2.046-18.434-3.198C95.695 1.462 77.932-1.896 61.24 1.273z" fill="#f7931e"/><path d="M49.338 26.71c1.439-1.814 2.99-3.455 4.633-4.862a4.348 4.348 0 0 1-1.457-2.182c.541 1.015 1.084 1.796 1.643 2.046.465-.403.963-.794 1.463-1.149a5.672 5.672 0 0 1-.984-3.153c.271 1.377.627 2.494 1.217 3.01 2.951-2.08 6.199-3.313 9.758-3.22-1.27.026-2.508.262-3.719.657.912.243 1.428.525 2.195 1.194-.943-.569-1.818-.995-2.537-1.097-.617.218-1.266.484-1.896.784 1.32.28 2.475.886 3.438 1.735-1.553-.947-2.963-1.559-3.92-1.468a13.56 13.56 0 0 0-1.525.858c1.357.265 2.504.886 3.508 1.728-1.564-.929-2.955-1.552-3.932-1.463-.439.279-.867.589-1.285.9 1.617.286 3 1.006 4.213 2.029-1.865-1.08-3.533-1.829-4.682-1.687-.371.3-.746.58-1.111.896 1.678.276 3.104 1.02 4.326 2.062-1.91-1.129-3.621-1.881-4.76-1.688-.299.25-.58.518-.881.773 2.119.301 3.869 1.209 5.381 2.482-2.469-1.436-4.6-2.371-5.953-1.908a35.796 35.796 0 0 0-2.904 3.13C62.91 34.22 62.254 19.108 71.025 16.48c-13.107-5.618-19.656-1.161-21.687 10.23z" fill-rule="evenodd" clip-rule="evenodd" fill="#008641"/><path d="M165.951 83.108h-.018c-.482.559-1.089 1.084-2.158 1.084-1.32 0-2.069-1.152-2.069-2.744 0-2.337 1.444-5.826 4.066-5.826.768 0 1.267.508 1.445 1.066h.018l.928-4.708h1.373l-1.017 4.76h.036c.41-.509 1.142-1.118 2.087-1.118 1.569 0 2.158 1.372 2.158 2.913 0 2.337-1.374 5.657-3.925 5.657-.802 0-1.391-.509-1.587-1.067h-.036l-.82 4.234h-1.392l.911-4.251zm-2.783-1.795c0 1.051.429 1.728 1.195 1.728 1.088 0 1.767-1.101 1.98-2.049l.445-2.135a4.19 4.19 0 0 0 .09-.948c0-.609-.464-1.168-.999-1.168-1.818-.001-2.711 3.065-2.711 4.572zm5.44-3.541c-.285.44-.41.898-.517 1.474-.125.593-.25 1.203-.375 1.83a2.318 2.318 0 0 0-.035.778c.035.491.464 1.22 1.194 1.203 1.605-.051 2.462-2.829 2.462-4.404 0-.965-.25-1.862-1.105-1.862-.606 0-1.16.321-1.624.981zm10.899 6.234c0-.491.089-1.271.196-2.117h-.036c-.945 1.693-2.123 2.304-3.354 2.304-1.516 0-2.479-1.152-2.479-2.71 0-2.846 2.212-5.86 5.976-5.86.82 0 1.73.136 2.319.321l-.874 4.269c-.286 1.423-.41 2.879-.375 3.794h-1.373zm.963-7.148a4.193 4.193 0 0 0-1.034-.118c-2.23 0-4.05 2.219-4.067 4.488 0 .914.339 1.812 1.48 1.812 1.23 0 2.693-1.524 3.122-3.709l.499-2.473zm11.539-3.81c-.374.135-.803.203-1.23.271-1.694.237-3.175.457-4.37 1.847-.518.593-.981 1.49-1.213 2.388h.054c.713-1.033 1.802-1.744 3.157-1.744 1.854 0 2.89 1.371 2.872 3.15 0 2.473-1.677 5.233-4.656 5.233-2.104 0-3.14-1.524-3.14-3.828 0-2.253.75-4.438 2.034-5.877 1.444-1.711 3.157-2.083 5.262-2.354a7.609 7.609 0 0 0 1.463-.321l-.233 1.235zm-2.265 6.029c0-1.135-.5-2.185-1.767-2.185-.855 0-1.694.542-2.247 1.32-.464.627-.767 1.542-.767 2.524 0 1.202.553 2.371 1.854 2.371 1.963.001 2.927-2.353 2.927-4.03zm1.783 8.282l1.73-8.638c.178-.982.356-2.084.481-2.913h1.355l-.25 1.541h.036c.785-1.067 1.927-1.728 3.104-1.728 1.873 0 2.658 1.456 2.658 2.964 0 2.879-2.177 5.606-5.048 5.606-.928 0-1.534-.187-1.873-.373h-.036l-.695 3.54h-1.462zm2.426-4.725c.375.288.945.457 1.642.457 1.908 0 3.514-2.252 3.514-4.403 0-.863-.41-1.896-1.659-1.896-1.159 0-2.622 1.27-3.067 3.557l-.43 2.285zm16.16-6.825l-1.159 5.81c-.179.914-.304 1.71-.393 2.388h-1.338l.231-1.541h-.035c-.768 1.066-1.909 1.728-3.051 1.728-1.105 0-2.265-.509-2.265-2.371 0-.39.053-.83.16-1.372l.928-4.641h1.48l-.91 4.572c-.106.458-.16.848-.16 1.203 0 .847.374 1.423 1.392 1.423 1.07 0 2.443-1.186 2.8-2.998l.839-4.2h1.481zm4.067 0l-.731 3.624h.339l3.728-3.624h1.784l-4.21 3.76c.945.22 1.48.999 1.909 2.304.303.847.481 1.643.749 2.134h-1.445c-.231-.457-.428-1.236-.713-1.999-.5-1.287-.999-1.693-2.069-1.693h-.268l-.731 3.692h-1.445l1.659-8.197h1.444zm10.666 8.197c0-.491.089-1.271.196-2.117h-.036c-.945 1.693-2.123 2.304-3.354 2.304-1.516 0-2.479-1.152-2.479-2.71 0-2.846 2.212-5.86 5.976-5.86.82 0 1.73.136 2.319.321l-.874 4.269c-.286 1.423-.41 2.879-.375 3.794h-1.373zm.963-7.148a4.193 4.193 0 0 0-1.034-.118c-2.23 0-4.05 2.219-4.067 4.488 0 .914.339 1.812 1.48 1.812 1.23 0 2.693-1.524 3.122-3.709l.499-2.473zm14.037-1.049l-1.641 8.197h-1.463l1.392-7.063h-2.943l-.429 2.117c-.464 2.219-1.105 3.794-2.301 4.505-.518.373-.98.542-1.766.559l-.125-1.135c.393-.033.803-.152 1.053-.321.892-.576 1.391-1.88 1.729-3.591l.66-3.269h5.834zm.925 8.197l1.659-8.197h1.48l-1.659 8.197h-1.48zm1.927-10.485c0-.542.446-.948.981-.948s.874.373.874.881c-.019.559-.429.948-.999.948-.517 0-.856-.372-.856-.881zm5.263 2.288l-.731 3.624h.339l3.728-3.624h1.784l-4.21 3.76c.945.22 1.48.999 1.909 2.304.303.847.481 1.643.749 2.134h-1.445c-.231-.457-.428-1.236-.713-1.999-.5-1.287-.999-1.693-2.069-1.693h-.268l-.731 3.692h-1.445l1.659-8.197h1.444zm5.028 8.197l1.659-8.197h1.48l-1.659 8.197h-1.48zm1.927-10.485c0-.542.446-.948.981-.948s.874.373.874.881c-.019.559-.429.948-.999.948-.517 0-.856-.372-.856-.881zm9.453 3.998c0 1.118-1.142 1.778-2.033 2.066v.034c.874.102 1.783.678 1.783 1.829 0 1.948-2.122 2.727-3.889 2.727-1.729 0-2.89-.66-2.89-2.371 0-1.49.714-4.353 2.248-5.453.624-.458 1.373-.729 2.337-.729 1.391 0 2.444.609 2.444 1.897zM259 80.449c-.089.339-.16.813-.16 1.236 0 .932.481 1.456 1.569 1.456 1.159 0 2.212-.593 2.212-1.643 0-.948-.82-1.304-1.802-1.321a6.46 6.46 0 0 0-1.819.272zm.196-.999c.963-.119 2.123-.271 2.854-.661.481-.254.892-.644.892-1.151 0-.644-.535-.982-1.213-.982-1.551-.001-2.194 1.574-2.533 2.794z" fill="#414142"/><path d="M14.53 110.052H8.697v4.547h6.522v2.319H5.872v-15.479h9.002v2.32H8.697v3.995h5.833v2.298zm6.11-4.318v4.639h.413l3.445-4.639h3.353l-4.455 4.914c1.539.229 2.48 1.447 3.238 3.238.345.826.758 2.066 1.263 3.031h-2.939c-.299-.482-.62-1.309-1.034-2.389-.597-1.516-1.447-2.25-2.917-2.25h-.367v4.639h-2.825v-11.184h2.825zm17.109 10.839c-.597.275-1.768.574-3.169.574-3.491 0-5.764-2.228-5.764-5.695 0-3.353 2.296-5.971 6.224-5.971 1.033 0 2.089.229 2.732.528l-.505 2.113c-.459-.207-1.125-.437-2.136-.437-2.159 0-3.445 1.584-3.422 3.628 0 2.297 1.493 3.605 3.422 3.605.987 0 1.676-.207 2.228-.437l.39 2.092zm12.172-10.839v11.184h-2.847v-9.002h-4.203v9.002h-2.825v-11.184h9.875zm5.237 6.384c.069 2.021 1.653 2.894 3.444 2.894 1.309 0 2.251-.184 3.101-.505l.413 1.952c-.964.39-2.296.688-3.904.688-3.628 0-5.764-2.228-5.764-5.649 0-3.1 1.883-6.017 5.466-6.017 3.628 0 4.822 2.985 4.822 5.442 0 .528-.046.942-.092 1.194h-7.486zm4.914-1.974c.023-1.033-.436-2.732-2.319-2.732-1.745 0-2.48 1.584-2.595 2.732h4.914zm5.168-.69c0-1.47-.046-2.663-.092-3.72h2.48l.138 1.723h.046c.827-1.264 2.135-1.976 3.835-1.976 2.572 0 4.708 2.205 4.708 5.695 0 4.042-2.549 5.994-5.098 5.994-1.401 0-2.572-.598-3.146-1.493h-.046v5.787H65.24v-12.01zm2.825 2.779c0 .275.023.528.092.78a2.555 2.555 0 0 0 2.48 1.976c1.792 0 2.848-1.493 2.848-3.697 0-1.976-.964-3.583-2.778-3.583-1.171 0-2.251.85-2.526 2.09a2.552 2.552 0 0 0-.115.712v1.722zm18.855-6.499v2.182h-3.353v9.002h-2.825v-9.002H77.39v-2.182h9.53zm11.965 3.72c0-1.47-.046-2.663-.092-3.72h2.48l.138 1.723h.046c.827-1.264 2.135-1.976 3.835-1.976 2.572 0 4.708 2.205 4.708 5.695 0 4.042-2.549 5.994-5.098 5.994-1.401 0-2.572-.598-3.146-1.493h-.046v5.787h-2.825v-12.01zm2.825 2.779c0 .275.023.528.092.78a2.555 2.555 0 0 0 2.48 1.976c1.792 0 2.848-1.493 2.848-3.697 0-1.976-.964-3.583-2.779-3.583-1.171 0-2.25.85-2.526 2.09a2.552 2.552 0 0 0-.115.712v1.722zm21.473-1.01c0 4.11-2.894 5.948-5.741 5.948-3.169 0-5.604-2.182-5.604-5.765 0-3.674 2.411-5.925 5.787-5.925 3.33 0 5.558 2.343 5.558 5.742zm-8.428.115c0 2.158 1.057 3.789 2.779 3.789 1.607 0 2.733-1.585 2.733-3.835 0-1.746-.781-3.743-2.71-3.743-1.998 0-2.802 1.929-2.802 3.789zm19.199 5.235c-.597.275-1.768.574-3.169.574-3.491 0-5.764-2.228-5.764-5.695 0-3.353 2.296-5.971 6.224-5.971 1.033 0 2.089.229 2.732.528l-.505 2.113c-.459-.207-1.125-.437-2.136-.437-2.159 0-3.445 1.584-3.422 3.628 0 2.297 1.493 3.605 3.422 3.605.987 0 1.676-.207 2.228-.437l.39 2.092zm11.942-10.839v11.184h-2.847v-9.002h-3.032v2.435c0 2.916-.321 4.891-1.653 5.879-.643.619-1.47.918-2.802.918l-.298-2.204c.482-.092.918-.276 1.194-.552.827-.688.918-1.975.918-4.134v-4.523h8.52zm5.88 0v4.019c0 1.769-.069 2.963-.161 4.524h.069c.597-1.31.941-2.136 1.516-3.308l2.756-5.235h3.422v11.184h-2.688v-3.996c0-1.791.069-2.617.184-4.73h-.092a39.184 39.184 0 0 1-1.47 3.215c-.872 1.653-1.883 3.675-2.848 5.512h-3.375v-11.184h2.687zm13.643 0v4.271h4.317v-4.271h2.824v11.184h-2.824v-4.708h-4.317v4.708h-2.824v-11.184h2.824zm13.183 0v4.271h4.317v-4.271h2.824v11.184h-2.824v-4.708h-4.317v4.708h-2.824v-11.184h2.824zm13.044 0v4.019c0 1.769-.069 2.963-.161 4.524h.069c.597-1.31.941-2.136 1.516-3.308l2.756-5.235h3.422v11.184h-2.688v-3.996c0-1.791.069-2.617.184-4.73h-.092a39.184 39.184 0 0 1-1.47 3.215c-.872 1.653-1.883 3.675-2.848 5.512h-3.375v-11.184h2.687zm12.723 0l1.332 2.112a48.95 48.95 0 0 1 1.011 1.723h.068c.322-.62.644-1.194.965-1.769l1.24-2.066h3.077l-3.743 5.374 3.813 5.81h-3.192l-1.378-2.228a28.975 28.975 0 0 1-1.011-1.814h-.046a27.714 27.714 0 0 1-1.01 1.814l-1.286 2.228h-3.123l3.881-5.695-3.743-5.488h3.145zm28.799 0v11.184h-2.848v-9.002h-3.031v2.435c0 2.916-.321 4.891-1.653 5.879-.643.619-1.47.918-2.802.918l-.298-2.204c.481-.092.918-.276 1.193-.552.827-.688.919-1.975.919-4.134v-4.523h8.52zm6.225-3.123c0 .85-.62 1.516-1.608 1.516-.941 0-1.562-.666-1.562-1.516 0-.873.644-1.539 1.585-1.539.964 0 1.561.666 1.585 1.539zm-3.009 14.307v-11.184h2.848v11.184h-2.848zm8.933-11.184v4.639h.414l3.444-4.639h3.353l-4.455 4.914c1.539.229 2.48 1.447 3.238 3.238.345.826.758 2.066 1.263 3.031h-2.939c-.298-.482-.62-1.309-1.033-2.389-.597-1.516-1.446-2.25-2.916-2.25h-.368v4.639h-2.824v-11.184h2.823zm12.058-3.123c0 .85-.62 1.516-1.608 1.516-.941 0-1.562-.666-1.562-1.516 0-.873.644-1.539 1.585-1.539.965 0 1.562.666 1.585 1.539zm-3.009 14.307v-11.184h2.848v11.184h-2.848zm6.087-11.046c.826-.138 2.525-.275 4.064-.275 1.883 0 5.281.252 5.281 2.824 0 1.424-1.102 2.228-2.296 2.48v.046c1.653.253 2.802 1.171 2.802 2.732 0 3.077-4.042 3.376-6.293 3.376-1.4 0-2.894-.092-3.559-.161v-11.022zm2.733 9.347c.459.046.804.068 1.378.068 1.286 0 2.848-.344 2.848-1.653 0-1.263-1.24-1.676-3.009-1.676h-1.217v3.261zm.022-4.961h1.172c1.446 0 2.641-.413 2.641-1.47 0-.896-.781-1.377-2.457-1.377-.552 0-.919.046-1.355.092v2.755z" fill="#008641"/></svg>