<?xml version="1.0" encoding="utf-8"?>
<!-- Generator: Adobe Illustrator 20.1.0, SVG Export Plug-In . SVG Version: 6.00 Build 0)  -->
<svg version="1.1" id="apple-ic" xmlns="http://www.w3.org/2000/svg" xmlns:xlink="http://www.w3.org/1999/xlink" x="0px" y="0px"
	 viewBox="0 0 32 32" style="enable-background:new 0 0 32 32;" xml:space="preserve">
<path style="fill:none;stroke:#F7D523;stroke-miterlimit:10;" d="M27.9,23c-0.1,0.2-0.2,0.5-0.2,0.7c-0.7,2-1.9,3.8-3.2,5.4
	c-0.3,0.3-0.6,0.6-0.9,0.9c-0.6,0.5-1.3,0.8-2.2,0.9c-0.6,0-1.2-0.1-1.8-0.3c-0.4-0.2-0.8-0.4-1.3-0.5c-1.4-0.5-2.7-0.4-4.1,0.1
	c-0.5,0.2-1,0.4-1.5,0.6c-0.6,0.2-1.2,0.3-1.8,0.2c-0.5-0.1-1-0.3-1.4-0.7c-0.5-0.4-1-0.9-1.4-1.4c-2-2.4-3.3-5.2-4-8.2
	c-0.3-1.3-0.4-2.7-0.3-4C4,14.9,4.4,13.4,5.3,12c1.1-1.7,2.6-2.9,4.6-3.4c1.2-0.3,2.4-0.2,3.5,0.3c0.6,0.2,1.2,0.5,1.8,0.7
	c0.6,0.2,1.1,0.2,1.7,0c0.6-0.2,1.2-0.5,1.9-0.7c0.6-0.2,1.3-0.4,2-0.5c1-0.1,2,0,3,0.4c1.4,0.5,2.5,1.3,3.3,2.4c0,0,0,0.1,0.1,0.1
	c-2.1,1.5-3.3,3.4-3.2,6.1C24.2,20,25.6,21.8,27.9,23L27.9,23z M16,8.1c0.6,0,1.2-0.1,1.8-0.3c2.6-1.1,4-3.8,4-6c0-0.2,0-0.3,0-0.5
	c-0.3,0-0.5,0.1-0.8,0.1c-1.9,0.5-3.4,1.6-4.4,3.3c-0.6,1-0.9,2.1-0.8,3.3C15.9,8,15.9,8.1,16,8.1L16,8.1z M16,8.1"/>
</svg>
