<?xml version="1.0" encoding="utf-8"?>
<!-- Generator: Adobe Illustrator 20.1.0, SVG Export Plug-In . SVG Version: 6.00 Build 0)  -->
<svg version="1.1" id="Layer_1" xmlns="http://www.w3.org/2000/svg" xmlns:xlink="http://www.w3.org/1999/xlink" x="0px" y="0px"
	 viewBox="0 0 308.3 73.8" style="enable-background:new 0 0 308.3 73.8;" xml:space="preserve">
<g>
	<g>
		<g>
			<path style="fill:#F7D523;" d="M116.5,17.4h-8.2V21h2.9c2.1,0,3.9,0.5,5.1,1.6c1.3,1,1.9,2.4,1.9,4.2c0,1.8-0.6,3.2-1.9,4.3
				c-1.3,1.1-2.9,1.6-5,1.6h-6.9V14.4h12V17.4z M108.3,24v5.6h3c1,0,1.7-0.3,2.3-0.8c0.6-0.5,0.9-1.2,0.9-2.1c0-0.8-0.3-1.5-0.8-2
				c-0.5-0.5-1.3-0.7-2.3-0.7H108.3z"/>
			<path style="fill:#F7D523;" d="M137.4,23.9c0,1.8-0.3,3.4-1,4.7c-0.6,1.4-1.5,2.4-2.7,3.1c-1.2,0.7-2.5,1.1-4.1,1.1
				c-1.5,0-2.9-0.4-4.1-1.1c-1.2-0.7-2.1-1.8-2.8-3.1c-0.7-1.4-1-2.9-1-4.7v-0.9c0-1.8,0.3-3.4,1-4.7c0.6-1.4,1.6-2.4,2.7-3.1
				c1.2-0.7,2.5-1.1,4.1-1.1c1.5,0,2.9,0.4,4.1,1.1c1.2,0.7,2.1,1.8,2.7,3.1c0.6,1.4,1,2.9,1,4.7V23.9z M133.6,23.1
				c0-1.9-0.3-3.4-1-4.4c-0.7-1-1.7-1.5-2.9-1.5c-1.3,0-2.2,0.5-2.9,1.5c-0.7,1-1,2.4-1,4.3v0.9c0,1.9,0.3,3.3,1,4.3
				c0.7,1,1.7,1.5,3,1.5c1.3,0,2.2-0.5,2.9-1.5s1-2.4,1-4.3V23.1z"/>
			<path style="fill:#F7D523;" d="M156.8,32.6h-3.8v-7.8h-7.3v7.8H142V14.4h3.8v7.4h7.3v-7.4h3.8V32.6z"/>
			<path style="fill:#F7D523;" d="M168.8,23l3.3-8.6h4.1l-6.4,15.1l-0.5,1c-0.9,1.6-2.4,2.5-4.3,2.5l-1.3-0.1l0-3
				c0.2,0,0.5,0.1,1,0.1c0.5,0,1-0.1,1.3-0.3c0.3-0.2,0.6-0.5,0.8-1l0.5-1.2l-6.4-13h4.1L168.8,23z"/>
			<path style="fill:#F7D523;" d="M194,26.5c-0.1,2-0.9,3.5-2.2,4.6c-1.3,1.1-3,1.7-5.2,1.7c-2.3,0-4.2-0.8-5.5-2.4
				c-1.3-1.6-2-3.7-2-6.5v-1.1c0-1.8,0.3-3.3,0.9-4.6c0.6-1.3,1.5-2.4,2.7-3.1c1.1-0.7,2.5-1.1,4-1.1c2.1,0,3.8,0.6,5.1,1.7
				c1.3,1.1,2,2.7,2.2,4.8h-3.8c-0.1-1.2-0.4-2-1-2.6c-0.6-0.5-1.4-0.8-2.6-0.8c-1.3,0-2.2,0.4-2.8,1.3c-0.6,0.9-0.9,2.3-1,4.2v1.4
				c0,2,0.3,3.4,0.9,4.3c0.6,0.9,1.5,1.4,2.8,1.4c1.2,0,2-0.3,2.6-0.8c0.6-0.5,0.9-1.4,1-2.5H194z"/>
			<path style="fill:#F7D523;" d="M219,22.4h4.5v3.3H219v5.1h-3.5v-5.1H211v-3.3h4.5v-4.9h3.5V22.4z"/>
			<path style="fill:#F7D523;" d="M236.2,32.6h-3.6v-14l-4.3,1.3V17l7.6-2.7h0.4V32.6z"/>
			<path style="fill:#F7D523;" d="M256.2,25.1c0,2.5-0.5,4.5-1.6,5.8c-1,1.3-2.6,2-4.6,2c-2,0-3.5-0.7-4.6-2
				c-1.1-1.3-1.6-3.2-1.6-5.6v-3.4c0-2.6,0.5-4.5,1.6-5.8c1.1-1.3,2.6-2,4.6-2c2,0,3.5,0.7,4.6,2c1.1,1.3,1.6,3.2,1.6,5.6V25.1z
				 M252.6,21.4c0-1.5-0.2-2.6-0.6-3.3c-0.4-0.7-1.1-1-1.9-1c-0.9,0-1.5,0.3-1.9,1c-0.4,0.7-0.6,1.7-0.6,3.1v4.4
				c0,1.5,0.2,2.6,0.6,3.3c0.4,0.7,1.1,1.1,2,1.1c0.9,0,1.5-0.3,1.9-1c0.4-0.7,0.6-1.8,0.6-3.2V21.4z"/>
			<path style="fill:#F7D523;" d="M272.8,25.1c0,2.5-0.5,4.5-1.6,5.8c-1,1.3-2.6,2-4.6,2c-2,0-3.5-0.7-4.6-2
				c-1.1-1.3-1.6-3.2-1.6-5.6v-3.4c0-2.6,0.5-4.5,1.6-5.8c1.1-1.3,2.6-2,4.6-2c2,0,3.5,0.7,4.6,2c1.1,1.3,1.6,3.2,1.6,5.6V25.1z
				 M269.1,21.4c0-1.5-0.2-2.6-0.6-3.3c-0.4-0.7-1.1-1-1.9-1c-0.9,0-1.5,0.3-1.9,1c-0.4,0.7-0.6,1.7-0.6,3.1v4.4
				c0,1.5,0.2,2.6,0.6,3.3c0.4,0.7,1.1,1.1,2,1.1c0.9,0,1.5-0.3,1.9-1c0.4-0.7,0.6-1.8,0.6-3.2V21.4z"/>
			<path style="fill:#F7D523;" d="M276.7,21.6c0-0.8,0.3-1.5,0.8-2s1.3-0.8,2.1-0.8c0.9,0,1.6,0.3,2.2,0.8c0.5,0.5,0.8,1.2,0.8,2.1
				v0.7c0,0.8-0.3,1.5-0.8,2s-1.3,0.8-2.1,0.8c-0.9,0-1.6-0.3-2.2-0.8s-0.8-1.2-0.8-2.1V21.6z M278.5,22.3c0,0.4,0.1,0.7,0.3,0.9
				c0.2,0.2,0.5,0.3,0.9,0.3s0.6-0.1,0.8-0.4c0.2-0.2,0.3-0.5,0.3-0.9v-0.7c0-0.4-0.1-0.7-0.3-0.9c-0.2-0.2-0.5-0.4-0.9-0.4
				c-0.3,0-0.6,0.1-0.8,0.3c-0.2,0.2-0.3,0.6-0.3,1V22.3z M280.2,31.6l-1.3-0.7l6.7-10.7l1.3,0.7L280.2,31.6z M283.2,29.3
				c0-0.8,0.3-1.5,0.8-2c0.6-0.5,1.3-0.8,2.1-0.8c0.9,0,1.6,0.3,2.2,0.8c0.5,0.5,0.8,1.2,0.8,2.1V30c0,0.8-0.3,1.5-0.8,2
				c-0.5,0.5-1.3,0.8-2.2,0.8c-0.9,0-1.6-0.3-2.2-0.8c-0.5-0.5-0.8-1.2-0.8-2.1V29.3z M285,30c0,0.3,0.1,0.6,0.3,0.9
				c0.2,0.2,0.5,0.4,0.8,0.4c0.8,0,1.1-0.4,1.1-1.3v-0.7c0-0.4-0.1-0.7-0.3-0.9c-0.2-0.2-0.5-0.3-0.8-0.3s-0.6,0.1-0.8,0.3
				c-0.2,0.2-0.3,0.5-0.3,0.9V30z"/>
			<path style="fill:#FFFFFF;" d="M107.1,49.3h-1v3.5h-2V44h2v3.6h0.9l2.5-3.6h2.5l-3.2,4.3l3.5,4.6h-2.6L107.1,49.3z"/>
			<path style="fill:#FFFFFF;" d="M131,52.9h-2v-7.3h-3.5v7.3h-2V44h7.5V52.9z"/>
			<path style="fill:#FFFFFF;" d="M138.2,53c-1.3,0-2.3-0.4-3.1-1.2c-0.8-0.8-1.2-1.9-1.2-3.2v-0.2c0-0.9,0.2-1.7,0.5-2.4
				c0.3-0.7,0.8-1.2,1.4-1.6c0.6-0.4,1.3-0.6,2.1-0.6c1.2,0,2.2,0.4,2.8,1.2s1,1.9,1,3.3V49H136c0.1,0.7,0.3,1.3,0.7,1.7
				c0.4,0.4,1,0.6,1.6,0.6c0.9,0,1.7-0.4,2.2-1.1l1.1,1c-0.4,0.5-0.8,0.9-1.4,1.2C139.7,52.9,139,53,138.2,53z M138,45.4
				c-0.5,0-1,0.2-1.3,0.6c-0.3,0.4-0.6,0.9-0.6,1.6h3.8v-0.1c0-0.7-0.2-1.2-0.5-1.5S138.6,45.4,138,45.4z"/>
			<path style="fill:#FFFFFF;" d="M152.4,48.5c0,1.4-0.3,2.5-0.9,3.3c-0.6,0.8-1.5,1.2-2.5,1.2c-1,0-1.8-0.3-2.3-1v4.2h-2V44h1.8
				l0.1,0.9c0.6-0.7,1.4-1.1,2.4-1.1c1.1,0,1.9,0.4,2.6,1.2c0.6,0.8,0.9,1.9,0.9,3.4V48.5z M150.4,48.3c0-0.9-0.2-1.6-0.5-2.1
				c-0.4-0.5-0.9-0.8-1.5-0.8c-0.8,0-1.4,0.3-1.8,1v4c0.4,0.7,1,1,1.8,1c0.6,0,1.1-0.3,1.5-0.8C150.2,50.2,150.4,49.4,150.4,48.3z"
				/>
			<path style="fill:#FFFFFF;" d="M155.4,52.9V44h3.6c1.2,0,2.1,0.2,2.8,0.6s1,1,1,1.8c0,0.4-0.1,0.8-0.4,1.1
				c-0.3,0.3-0.6,0.6-1.1,0.8c0.6,0.1,1,0.4,1.4,0.7c0.3,0.4,0.5,0.8,0.5,1.3c0,0.8-0.3,1.5-0.9,1.9s-1.5,0.7-2.6,0.7H155.4z
				 M157.4,47.6h1.6c1.1,0,1.7-0.3,1.7-1c0-0.7-0.5-1.1-1.6-1.1h-1.7V47.6z M157.4,49.1v2.2h2.2c1,0,1.5-0.4,1.5-1.1
				c0-0.7-0.5-1.1-1.6-1.1H157.4z"/>
			<path style="fill:#FFFFFF;" d="M165.6,48.3c0-0.9,0.2-1.7,0.5-2.4c0.3-0.7,0.8-1.2,1.5-1.6c0.6-0.4,1.3-0.6,2.2-0.6
				c1.2,0,2.2,0.4,2.9,1.2c0.7,0.8,1.2,1.8,1.2,3.1l0,0.5c0,0.9-0.2,1.7-0.5,2.4c-0.3,0.7-0.8,1.2-1.4,1.6c-0.6,0.4-1.4,0.6-2.2,0.6
				c-1.3,0-2.3-0.4-3-1.3C166,50.9,165.6,49.8,165.6,48.3L165.6,48.3z M167.6,48.5c0,0.9,0.2,1.6,0.6,2.2c0.4,0.5,0.9,0.8,1.6,0.8
				s1.2-0.3,1.6-0.8c0.4-0.5,0.6-1.3,0.6-2.3c0-0.9-0.2-1.6-0.6-2.1c-0.4-0.5-0.9-0.8-1.6-0.8c-0.7,0-1.2,0.3-1.6,0.8
				C167.8,46.7,167.6,47.5,167.6,48.5z"/>
			<path style="fill:#FFFFFF;" d="M182.1,50.4l2.6-6.4h2.5v8.9h-2V47l-2.5,5.9h-1.4l-2.5-5.9v5.9h-2V44h2.5L182.1,50.4z"/>
			<path style="fill:#FFFFFF;" d="M193.8,50l1.8-6h2.1l-3.5,10.3c-0.5,1.5-1.5,2.2-2.8,2.2c-0.3,0-0.6,0-1-0.1v-1.6l0.4,0
				c0.5,0,0.9-0.1,1.1-0.3c0.3-0.2,0.5-0.5,0.6-0.9l0.3-0.8l-3.1-8.9h2.2L193.8,50z"/>
			<path style="fill:#FFFFFF;" d="M209.1,51.3c0.6-0.6,0.9-1.2,1.1-1.8c0.2-0.6,0.3-1.3,0.3-2.1l0.1-3.4h6.2v7.3h1.2v4.2h-2v-2.7
				h-5.7v2.7h-2l0-4.2H209.1z M211.4,51.3h3.4v-5.6h-2.2l-0.1,1.7C212.5,49,212.1,50.3,211.4,51.3z"/>
			<path style="fill:#FFFFFF;" d="M224.6,53c-1.3,0-2.3-0.4-3.1-1.2c-0.8-0.8-1.2-1.9-1.2-3.2v-0.2c0-0.9,0.2-1.7,0.5-2.4
				c0.3-0.7,0.8-1.2,1.4-1.6c0.6-0.4,1.3-0.6,2.1-0.6c1.2,0,2.2,0.4,2.8,1.2s1,1.9,1,3.3V49h-5.8c0.1,0.7,0.3,1.3,0.7,1.7
				c0.4,0.4,1,0.6,1.6,0.6c0.9,0,1.7-0.4,2.2-1.1l1.1,1c-0.4,0.5-0.8,0.9-1.4,1.2C226,52.9,225.3,53,224.6,53z M224.4,45.4
				c-0.5,0-1,0.2-1.3,0.6c-0.3,0.4-0.6,0.9-0.6,1.6h3.8v-0.1c0-0.7-0.2-1.2-0.5-1.5C225.4,45.6,224.9,45.4,224.4,45.4z"/>
			<path style="fill:#FFFFFF;" d="M238.5,52.9h-2v-7.3H233v7.3h-2V44h7.5V52.9z"/>
			<path style="fill:#FFFFFF;" d="M241.4,48.3c0-0.9,0.2-1.7,0.5-2.4c0.3-0.7,0.8-1.2,1.5-1.6c0.6-0.4,1.3-0.6,2.2-0.6
				c1.2,0,2.2,0.4,2.9,1.2c0.7,0.8,1.2,1.8,1.2,3.1l0,0.5c0,0.9-0.2,1.7-0.5,2.4c-0.3,0.7-0.8,1.2-1.4,1.6c-0.6,0.4-1.4,0.6-2.2,0.6
				c-1.3,0-2.3-0.4-3-1.3C241.8,50.9,241.4,49.8,241.4,48.3L241.4,48.3z M243.4,48.5c0,0.9,0.2,1.6,0.6,2.2c0.4,0.5,0.9,0.8,1.6,0.8
				s1.2-0.3,1.6-0.8c0.4-0.5,0.6-1.3,0.6-2.3c0-0.9-0.2-1.6-0.6-2.1c-0.4-0.5-0.9-0.8-1.6-0.8c-0.7,0-1.2,0.3-1.6,0.8
				C243.6,46.7,243.4,47.5,243.4,48.5z"/>
			<path style="fill:#FFFFFF;" d="M259.3,46.4c0,0.4-0.1,0.8-0.4,1.1c-0.2,0.3-0.6,0.6-1,0.8c1,0.4,1.5,1,1.5,2.1c0,0.8-0.3,1.5-1,2
				c-0.7,0.5-1.6,0.7-2.7,0.7c-0.7,0-1.3-0.1-1.9-0.3c-0.6-0.2-1-0.6-1.3-1c-0.3-0.4-0.5-0.9-0.5-1.5h2c0,0.4,0.2,0.7,0.5,0.9
				c0.3,0.2,0.7,0.4,1.2,0.4c0.5,0,0.9-0.1,1.2-0.3c0.3-0.2,0.4-0.5,0.4-0.9c0-0.4-0.1-0.7-0.4-0.9c-0.3-0.2-0.6-0.3-1.2-0.3h-1.4
				v-1.4h1.5c0.9,0,1.3-0.4,1.3-1.1c0-0.4-0.1-0.6-0.4-0.8s-0.6-0.3-1.1-0.3c-0.4,0-0.8,0.1-1.1,0.3c-0.3,0.2-0.5,0.5-0.5,0.8h-2
				c0-0.8,0.3-1.4,1-1.9c0.7-0.5,1.5-0.8,2.5-0.8c1.1,0,2,0.2,2.6,0.7S259.3,45.6,259.3,46.4z"/>
			<path style="fill:#FFFFFF;" d="M267.9,44h2v8.9h-2v-5.9l-3.5,5.9h-2V44h2v5.9L267.9,44z"/>
			<path style="fill:#FFFFFF;" d="M280.2,45.5h-2.9v7.3h-2v-7.3h-2.9V44h7.7V45.5z"/>
			<path style="fill:#FFFFFF;" d="M285.9,50l1.8-6h2.1l-3.5,10.3c-0.5,1.5-1.5,2.2-2.8,2.2c-0.3,0-0.6,0-1-0.1v-1.6l0.4,0
				c0.5,0,0.9-0.1,1.1-0.3c0.3-0.2,0.5-0.5,0.6-0.9l0.3-0.8l-3.1-8.9h2.2L285.9,50z"/>
		</g>
		<g>
			<g>
				<path style="fill:#F7D523;" d="M29.1,40.6c0,0.1,0.1,0.1,0.2,0.2c0.1,0,0.2,0.1,0.4,0.1s0.4,0,0.7,0c0.3,0,0.5,0,0.7,0
					c0.2,0,0.3-0.1,0.4-0.1c0.1,0,0.2-0.1,0.2-0.2c0-0.1,0.1-0.1,0.1-0.2v-4.5h4.1c0.1,0,0.2,0,0.2-0.1c0.1,0,0.1-0.1,0.2-0.2
					c0.1-0.1,0.1-0.2,0.1-0.4c0-0.2,0-0.4,0-0.6c0-0.2,0-0.4,0-0.6c0-0.2-0.1-0.3-0.1-0.4c0-0.1-0.1-0.2-0.2-0.2
					c-0.1,0-0.1-0.1-0.2-0.1h-4.2v-4.5c0-0.1,0-0.2-0.1-0.2c0-0.1-0.1-0.1-0.2-0.2c-0.1,0-0.2-0.1-0.4-0.1c-0.2,0-0.4,0-0.7,0
					c-0.3,0-0.5,0-0.7,0c-0.2,0-0.3,0.1-0.4,0.1c-0.1,0-0.2,0.1-0.2,0.2c0,0.1-0.1,0.2-0.1,0.2v4.5h-4.1c-0.1,0-0.1,0-0.2,0.1
					c-0.1,0-0.1,0.1-0.2,0.2c0,0.1-0.1,0.2-0.1,0.4c0,0.2,0,0.4,0,0.6c0,0.2,0,0.5,0,0.6c0,0.2,0.1,0.3,0.1,0.4
					c0.1,0.1,0.1,0.2,0.2,0.2c0.1,0,0.1,0.1,0.2,0.1H29v4.5C29,40.4,29.1,40.5,29.1,40.6z"/>
				<path style="fill:#F7D523;" d="M39,39.5c-0.1,0-0.1,0-0.2,0.1c-0.1,0-0.1,0.1-0.2,0.2c0,0.1-0.1,0.2-0.1,0.4c0,0.2,0,0.4,0,0.6
					c0,0.2,0,0.5,0,0.6c0,0.2,0.1,0.3,0.1,0.4c0,0.1,0.1,0.2,0.2,0.2c0.1,0,0.1,0.1,0.2,0.1h9.4c0.1,0,0.2,0,0.2-0.1
					c0.1,0,0.1-0.1,0.2-0.2c0-0.1,0.1-0.2,0.1-0.4c0-0.2,0-0.4,0-0.6c0-0.3,0-0.5,0-0.6c0-0.2-0.1-0.3-0.1-0.4
					c0-0.1-0.1-0.2-0.2-0.2c-0.1,0-0.1-0.1-0.2-0.1h-2.8V25.2c0-0.1,0-0.1-0.1-0.2c0-0.1-0.1-0.1-0.2-0.1c-0.1,0-0.3-0.1-0.5-0.1
					c-0.2,0-0.5,0-0.8,0c-0.3,0-0.5,0-0.7,0c-0.2,0-0.3,0-0.4,0c-0.1,0-0.2,0-0.3,0.1c-0.1,0-0.1,0.1-0.2,0.1l-3.7,2.4
					c-0.1,0.1-0.2,0.1-0.3,0.2c-0.1,0.1-0.1,0.1-0.1,0.2c0,0.1-0.1,0.2-0.1,0.4c0,0.1,0,0.3,0,0.5c0,0.3,0,0.6,0,0.8
					c0,0.2,0.1,0.3,0.2,0.4c0.1,0.1,0.2,0.1,0.3,0.1c0.1,0,0.3-0.1,0.5-0.2l2.8-1.5v11.2H39z"/>
				<path style="fill:#F7D523;" d="M59.5,25.2c-0.8-0.4-1.7-0.6-2.9-0.6c-1.1,0-2.1,0.2-2.9,0.6c-0.8,0.4-1.4,1-1.9,1.8
					c-0.5,0.8-0.9,1.7-1.1,2.8c-0.2,1.1-0.3,2.4-0.3,3.7c0,1.4,0.1,2.6,0.3,3.7s0.5,2,0.9,2.8c0.5,0.8,1.1,1.3,1.8,1.7
					c0.8,0.4,1.7,0.6,2.9,0.6c1.2,0,2.1-0.2,2.9-0.6c0.8-0.4,1.4-1,1.9-1.8c0.5-0.8,0.9-1.7,1.1-2.8c0.2-1.1,0.3-2.4,0.3-3.7
					c0-1.4-0.1-2.6-0.3-3.7c-0.2-1.1-0.5-2-0.9-2.8C60.9,26.2,60.3,25.6,59.5,25.2z M59,35.5c0,0.6-0.1,1.1-0.2,1.5
					c-0.1,0.4-0.2,0.8-0.3,1.2c-0.1,0.3-0.3,0.6-0.5,0.8c-0.2,0.2-0.4,0.4-0.7,0.5c-0.3,0.1-0.6,0.2-0.9,0.2c-0.5,0-0.9-0.1-1.2-0.3
					c-0.3-0.2-0.6-0.5-0.8-1c-0.2-0.5-0.4-1.1-0.5-1.9c-0.1-0.8-0.1-1.8-0.1-3c0-1,0-1.9,0.1-2.6c0.1-0.8,0.2-1.4,0.4-1.9
					c0.2-0.5,0.5-0.9,0.8-1.1c0.3-0.3,0.8-0.4,1.3-0.4c0.3,0,0.6,0,0.8,0.1c0.2,0.1,0.5,0.2,0.7,0.4c0.2,0.2,0.4,0.4,0.5,0.8
					c0.1,0.3,0.3,0.7,0.3,1.2c0.1,0.5,0.2,1,0.2,1.6c0,0.6,0.1,1.3,0.1,2.2C59,34.3,59,35,59,35.5z"/>
				<path style="fill:#F7D523;" d="M74.2,40.1c0.5-0.8,0.9-1.7,1.1-2.8c0.2-1.1,0.3-2.4,0.3-3.7c0-1.4-0.1-2.6-0.3-3.7
					c-0.2-1.1-0.5-2-0.9-2.8c-0.5-0.8-1.1-1.3-1.8-1.7c-0.8-0.4-1.7-0.6-2.9-0.6c-1.1,0-2.1,0.2-2.9,0.6c-0.8,0.4-1.4,1-1.9,1.8
					c-0.5,0.8-0.9,1.7-1.1,2.8c-0.2,1.1-0.3,2.4-0.3,3.7c0,1.4,0.1,2.6,0.3,3.7c0.2,1.1,0.5,2,0.9,2.8c0.5,0.8,1.1,1.3,1.8,1.7
					c0.8,0.4,1.7,0.6,2.9,0.6c1.2,0,2.1-0.2,2.9-0.6C73,41.4,73.7,40.8,74.2,40.1z M72,35.5c0,0.6-0.1,1.1-0.2,1.5
					c-0.1,0.4-0.2,0.8-0.3,1.2c-0.1,0.3-0.3,0.6-0.5,0.8c-0.2,0.2-0.4,0.4-0.7,0.5c-0.3,0.1-0.6,0.2-0.9,0.2c-0.5,0-0.9-0.1-1.2-0.3
					c-0.3-0.2-0.6-0.5-0.8-1c-0.2-0.5-0.4-1.1-0.5-1.9c-0.1-0.8-0.1-1.8-0.1-3c0-1,0-1.9,0.1-2.6c0.1-0.8,0.2-1.4,0.4-1.9
					c0.2-0.5,0.5-0.9,0.8-1.1c0.3-0.3,0.8-0.4,1.3-0.4c0.3,0,0.6,0,0.8,0.1c0.2,0.1,0.5,0.2,0.7,0.4c0.2,0.2,0.4,0.4,0.5,0.8
					c0.1,0.3,0.3,0.7,0.3,1.2c0.1,0.5,0.2,1,0.2,1.6c0,0.6,0.1,1.3,0.1,2.2C72.1,34.3,72.1,35,72,35.5z"/>
				<path style="fill:#F7D523;" d="M82.1,36.2c0.2,0,0.4,0,0.6,0V25.2c-0.4-0.1-0.7-0.2-1.1-0.3c-2.4-0.8-4.2-2.8-4.8-5.2
					c-0.1-0.4-0.2-0.7-0.2-1.1H25.8c0,0.4-0.1,0.7-0.2,1.1c-0.7,2.6-2.7,4.7-5.3,5.4c-0.4,0.1-0.7,0.2-1.1,0.2v18.5
					c0.4,0,0.7,0.1,1.1,0.2c2.6,0.7,4.6,2.7,5.3,5.2c0.1,0.4,0.2,0.7,0.2,1.1h41.8c0-0.4,0-0.7,0.1-1.1H27.1c-0.8-3.4-3.5-6-6.8-6.8
					V26.5c3.4-0.8,6.1-3.5,6.9-6.9h48.1c0.7,3.2,3.2,5.8,6.4,6.8v9.8C81.8,36.2,81.9,36.2,82.1,36.2z"/>
				<path style="fill:#F7D523;" d="M19.8,51.4c-1.1,0-2-0.9-2-2v-30c0-1.1,0.9-2,2-2H82c1.1,0,2,0.9,2,2v16.9
					c1.1,0.1,2.2,0.4,3.2,0.8V19.4c0-2.9-2.4-5.2-5.2-5.2H19.8c-2.9,0-5.2,2.4-5.2,5.2v30c0,2.9,2.4,5.2,5.2,5.2h48.2
					c-0.3-1-0.5-2.1-0.5-3.2H19.8z"/>
				<path style="fill:#F7D523;" d="M76.9,48.2c0.1,0.2,0.2,0.3,0.4,0.4c0.1,0.1,0.3,0.1,0.5,0.1c0.2,0,0.4,0,0.5-0.1
					c0.1-0.1,0.3-0.2,0.3-0.4c0.1-0.2,0.2-0.4,0.2-0.7c0-0.3,0.1-0.6,0.1-1c0-0.4,0-0.8-0.1-1.1c0-0.3-0.1-0.5-0.2-0.7
					c-0.1-0.2-0.2-0.3-0.4-0.4c-0.2-0.1-0.3-0.1-0.5-0.1c-0.2,0-0.4,0-0.5,0.1c-0.1,0.1-0.3,0.2-0.4,0.4c-0.1,0.2-0.2,0.4-0.2,0.7
					c0,0.3-0.1,0.6-0.1,1.1c0,0.5,0,0.9,0.1,1.2C76.7,47.8,76.8,48.1,76.9,48.2z"/>
				<path style="fill:#F7D523;" d="M87.6,52.1c-0.1-0.2-0.2-0.3-0.4-0.4c-0.2-0.1-0.3-0.1-0.5-0.1c-0.2,0-0.4,0-0.5,0.1
					c-0.1,0.1-0.3,0.2-0.4,0.4c-0.1,0.2-0.2,0.4-0.2,0.7c0,0.3-0.1,0.6-0.1,1.1c0,0.5,0,0.9,0.1,1.2c0.1,0.3,0.1,0.5,0.2,0.7
					c0.1,0.2,0.2,0.3,0.4,0.4c0.1,0.1,0.3,0.1,0.5,0.1c0.2,0,0.4,0,0.5-0.1c0.1-0.1,0.3-0.2,0.3-0.4c0.1-0.2,0.2-0.4,0.2-0.7
					c0-0.3,0.1-0.6,0.1-1c0-0.4,0-0.8-0.1-1.1C87.7,52.5,87.7,52.3,87.6,52.1z"/>
				<path style="fill:#F7D523;" d="M82.1,38.1c-7,0-12.7,5.7-12.7,12.7s5.7,12.7,12.7,12.7c7,0,12.7-5.7,12.7-12.7
					S89.1,38.1,82.1,38.1z M75.1,49.2c-0.3-0.3-0.4-0.8-0.5-1.2c-0.1-0.5-0.2-1-0.2-1.6c0-0.6,0.1-1.1,0.2-1.6
					c0.1-0.5,0.3-0.9,0.6-1.3c0.3-0.4,0.6-0.6,1.1-0.8c0.4-0.2,1-0.3,1.6-0.3c0.7,0,1.2,0.1,1.7,0.3c0.4,0.2,0.8,0.5,1,0.8
					c0.3,0.4,0.4,0.8,0.5,1.2c0.1,0.5,0.1,1,0.1,1.5c0,0.6-0.1,1.2-0.2,1.6c-0.1,0.5-0.3,0.9-0.6,1.3c-0.3,0.3-0.6,0.6-1.1,0.8
					c-0.4,0.2-1,0.3-1.6,0.3c-0.6,0-1.2-0.1-1.6-0.3C75.7,49.8,75.3,49.6,75.1,49.2z M78.1,57.5c-0.1,0.1-0.1,0.2-0.2,0.2
					c-0.1,0.1-0.2,0.1-0.3,0.1c-0.1,0-0.2,0.1-0.4,0.1c-0.2,0-0.3,0-0.6,0c-0.3,0-0.5,0-0.6,0c-0.1,0-0.3-0.1-0.3-0.1
					c-0.1-0.1-0.1-0.1-0.1-0.2c0-0.1,0.1-0.2,0.1-0.3l10.6-14.6c0.1-0.1,0.1-0.2,0.2-0.2c0.1-0.1,0.2-0.1,0.3-0.1
					c0.1,0,0.2-0.1,0.4-0.1c0.2,0,0.3,0,0.6,0c0.3,0,0.5,0,0.6,0c0.1,0,0.3,0.1,0.3,0.1c0.1,0.1,0.1,0.1,0.1,0.2
					c0,0.1-0.1,0.2-0.1,0.3L78.1,57.5z M89.9,55.4c-0.1,0.5-0.3,0.9-0.6,1.3c-0.3,0.3-0.6,0.6-1.1,0.8c-0.4,0.2-1,0.3-1.6,0.3
					c-0.6,0-1.2-0.1-1.6-0.3c-0.4-0.2-0.8-0.5-1-0.8c-0.3-0.3-0.4-0.8-0.5-1.2c-0.1-0.5-0.2-1-0.2-1.6c0-0.6,0.1-1.1,0.2-1.6
					c0.1-0.5,0.3-0.9,0.6-1.3c0.3-0.4,0.6-0.6,1.1-0.8c0.4-0.2,1-0.3,1.6-0.3c0.7,0,1.2,0.1,1.7,0.3c0.4,0.2,0.8,0.5,1,0.8
					c0.3,0.4,0.4,0.8,0.5,1.2c0.1,0.5,0.1,1,0.1,1.5C90.1,54.4,90.1,54.9,89.9,55.4z"/>
			</g>
		</g>
	</g>
	<g style="opacity:0.2;">
		<path style="fill:#FFFFFF;" d="M301.6,1c3.1,0,5.7,2.6,5.7,5.7v60.4c0,3.1-2.6,5.7-5.7,5.7H6.7c-3.1,0-5.7-2.6-5.7-5.7V6.7
			C1,3.6,3.6,1,6.7,1H301.6 M301.6,0H6.7C3,0,0,3,0,6.7v60.4c0,3.7,3,6.7,6.7,6.7h294.9c3.7,0,6.7-3,6.7-6.7V6.7
			C308.3,3,305.3,0,301.6,0L301.6,0z"/>
	</g>
</g>
</svg>
