<?xml version="1.0" encoding="utf-8"?>
<!-- Generator: Adobe Illustrator 18.1.0, SVG Export Plug-In . SVG Version: 6.00 Build 0)  -->
<svg version="1.1" id="ic-rotate" xmlns="http://www.w3.org/2000/svg" xmlns:xlink="http://www.w3.org/1999/xlink" x="0px" y="0px"
	 viewBox="0 0 200 200" style="enable-background:new 0 0 200 200;" xml:space="preserve">
<g id="ic">
	<path style="fill:#F7D523;" d="M164.2,155.8c-2.1,0-3.8-1.7-3.8-3.8v-6.1c0-2.1,1.7-3.8,3.8-3.8s3.8,1.7,3.8,3.8v6.1
		C168,154.1,166.3,155.8,164.2,155.8z M164.2,143.9c-1.1,0-1.9,0.9-1.9,1.9v6.1c0,1.1,0.9,1.9,1.9,1.9s1.9-0.9,1.9-1.9v-6.1
		C166.1,144.8,165.3,143.9,164.2,143.9z"/>
	<path style="fill:#F7D523;" d="M164.2,198.6H17.4c-8.8,0-16-7.2-16-16v-67.3c0-8.8,7.2-16,16-16h81.8V17.4c0-8.8,7.2-16,16-16h67.3
		c4.3,0,8.3,1.7,11.3,4.7c3,3,4.7,7.1,4.7,11.3v146.8c0,8.8-7.2,16-16,16h-2.3v2.3C180.2,191.4,173,198.6,164.2,198.6z M17.4,101.1
		c-7.8,0-14.2,6.3-14.2,14.2v67.3c0,7.8,6.3,14.2,14.2,14.2h146.8c7.8,0,14.2-6.3,14.2-14.2v-4.2h4.2c7.8,0,14.2-6.3,14.2-14.2V17.4
		c0-3.8-1.5-7.3-4.1-10c-2.7-2.7-6.2-4.1-10-4.1h-67.3c-7.8,0-14.2,6.3-14.2,14.2v83.7H17.4z M164.2,192.9h-10.3v-65.3
		c0-1.1-0.9-1.9-1.9-1.9s-1.9,0.9-1.9,1.9v65.3H31.6V105h118.5v10.3c0,1.1,0.9,1.9,1.9,1.9s1.9-0.9,1.9-1.9V105h10.3
		c5.7,0,10.3,4.6,10.3,10.3v67.3C174.5,188.2,169.9,192.9,164.2,192.9z M155.8,191h8.4c4.6,0,8.4-3.8,8.4-8.4v-67.3
		c0-4.6-3.8-8.4-8.4-8.4h-8.4v8.4c0,2.1-1.7,3.8-3.8,3.8s-3.8-1.7-3.8-3.8v-8.4H33.5V191h114.7v-63.5c0-2.1,1.7-3.8,3.8-3.8
		s3.8,1.7,3.8,3.8V191z M27.8,192.9H17.4c-5.7,0-10.3-4.6-10.3-10.3v-67.3c0-5.7,4.6-10.3,10.3-10.3h10.3V192.9z M17.4,106.9
		c-4.6,0-8.4,3.8-8.4,8.4v67.3c0,4.6,3.8,8.4,8.4,8.4h8.4v-84.1H17.4z M182.6,174.5h-4.2v-20.6h14.5v10.3
		C192.9,169.9,188.2,174.5,182.6,174.5z M180.2,172.6h2.3c4.6,0,8.4-3.8,8.4-8.4v-8.4h-10.7V172.6z M192.9,150.1h-14.5v-34.8
		c0-7.8-6.3-14.2-14.2-14.2H105V31.6h65.3c1.1,0,1.9-0.9,1.9-1.9c0-1.1-0.9-1.9-1.9-1.9H105V17.4c0-5.7,4.6-10.3,10.3-10.3h67.3
		c5.7,0,10.3,4.6,10.3,10.3v10.3h-10.3c-1.1,0-1.9,0.9-1.9,1.9c0,1.1,0.9,1.9,1.9,1.9h10.3V150.1z M180.2,148.2H191V33.5h-8.4
		c-2.1,0-3.8-1.7-3.8-3.8s1.7-3.8,3.8-3.8h8.4v-8.4c0-4.6-3.8-8.4-8.4-8.4h-67.3c-4.6,0-8.4,3.8-8.4,8.4v8.4h63.5
		c2.1,0,3.8,1.7,3.8,3.8s-1.7,3.8-3.8,3.8h-63.5v65.8h57.3c8.8,0,16,7.2,16,16V148.2z"/>
	<path style="fill:#F7D523;" d="M34.7,90.8c-1.3,0-2.6-0.7-3.2-1.8l-9.2-15.3c-1.1-1.8-0.5-4.1,1.3-5.2c0.6-0.4,1.3-0.5,1.9-0.5
		c1.3,0,2.5,0.7,3.2,1.8l2,3.4V50.3C30.7,27.8,49,9.5,71.4,9.5H86c2,0,3.7,1.7,3.7,3.7S88,16.9,86,16.9H71.4
		c-18.4,0-33.3,15-33.3,33.3v23.1l2.4-3.7c0.7-1.1,2-1.8,3.3-1.8c0.7,0,1.4,0.2,2,0.5c1.8,1.1,2.4,3.4,1.4,5.2L38,88.9
		C37.3,90.1,36.1,90.8,34.7,90.8z M25.5,69.8c-0.3,0-0.6,0.1-0.9,0.3c-0.9,0.5-1.2,1.7-0.7,2.6L33.1,88c0.3,0.6,1,0.9,1.6,0.9
		c0.7,0,1.3-0.4,1.6-0.9l9.1-15.3c0.5-0.9,0.2-2.1-0.7-2.6c-0.3-0.2-0.6-0.3-1-0.3c-0.7,0-1.4,0.4-1.7,0.9l-5.8,9.2V50.3
		c0-19.4,15.8-35.2,35.2-35.2H86c1,0,1.8-0.8,1.8-1.8S87,11.4,86,11.4H71.4c-21.4,0-38.9,17.4-38.9,38.9v29.9l-5.5-9.4
		C26.7,70.1,26.2,69.8,25.5,69.8z"/>
</g>
</svg>
