<?xml version="1.0" encoding="utf-8"?>
<!-- Generator: Adobe Illustrator 21.1.0, SVG Export Plug-In . SVG Version: 6.00 Build 0)  -->
<svg version="1.1" id="Слой_1" xmlns="http://www.w3.org/2000/svg" xmlns:xlink="http://www.w3.org/1999/xlink" x="0px" y="0px"
	 viewBox="0 0 172 62.5" style="enable-background:new 0 0 172 62.5;" xml:space="preserve">
<style type="text/css">
	.st0{fill:#FFFFFF;}
	.st1{clip-path:url(#SVGID_6_);fill:url(#SVGID_7_);}
	.st2{clip-path:url(#SVGID_9_);fill:url(#SVGID_10_);}
</style>
<g>
	<g>
		<g>
			<g>
				<g>
					<g>
						<defs>
							<path id="SVGID_1_" d="M88.2,19.8l-0.2,0l-23.8,0h0c-0.3,0-0.6-0.3-0.6-0.6c0,0,0,0,0,0l0.1-0.2l3.7-16.1l0-0.1
								c0.1-0.3,0.3-0.5,0.5-0.7l0,0v0c0.1,0,0.2-0.1,0.2-0.1l0.1,0v0c0.1,0,0.1,0,0.2,0l29.3,0c0.1,0,0.1,0,0.2,0v0l0,0
								C98,2,98,2.1,98.1,2.1v0l0,0c0.2,0.1,0.2,0.3,0.3,0.5v0c0,0,0,0.1,0,0.1l0,0l-3.7,16.1l-0.1,0.2c-0.1,0.1-0.1,0.3-0.2,0.4
								l0,0v0c-0.2,0.2-0.4,0.3-0.7,0.3l-0.1,0L88.2,19.8z"/>
						</defs>
						<clipPath id="SVGID_2_">
							<use xlink:href="#SVGID_1_"  style="overflow:visible;"/>
						</clipPath>
					</g>
					<g>
						<defs>
							<path id="SVGID_3_" d="M75.9,22.8l-29.4,0c0,0-0.1,0-0.1,0v0l0,0c-0.4,0.1-0.8,0.4-0.9,0.8l0,0.1l-3.7,16.1l-0.1,0.2l0,0
								c0,0.3,0.3,0.6,0.6,0.6h0l29.3,0l0.1,0c0.1,0,0.1,0,0.2,0v0l0,0c0.4-0.1,0.7-0.3,0.8-0.7l0.1-0.2l3.7-16.1l0,0
								c0,0,0-0.1,0-0.1v0c0-0.1,0-0.2-0.1-0.3h0v0c0-0.1-0.1-0.1-0.2-0.2l0,0l0,0C76.2,22.8,76.1,22.8,75.9,22.8"/>
						</defs>
						<clipPath id="SVGID_4_">
							<use xlink:href="#SVGID_3_"  style="overflow:visible;"/>
						</clipPath>
					</g>
				</g>
			</g>
			<g>
				<g>
					<g>
						<g>
							<path class="st0" d="M15.2,2L8.9,2C8.4,2,8,2.4,7.9,2.9l0,0L4.2,19l0,0.1c0,0,0,0,0,0.1c0,0.3,0.3,0.6,0.6,0.6l5.3,0
								c0.2,0,0.4-0.2,0.5-0.4l0-0.2l1.1-4.8l3,0c3.6,0,6.3-2.3,6.8-5.9C22.2,4.2,19.4,2,15.2,2 M16,8.4c-0.3,1.4-1.5,1.6-2.6,1.6
								l-0.6,0l0.7-3.1l0.6,0C15.1,6.9,16.2,7,16,8.4z"/>
						</g>
					</g>
					<g>
						<g>
							<path class="st0" d="M35.6,19L33.3,2.6l0-0.2C33.2,2.2,32.9,2,32.7,2L27,2c-0.3,0.1-0.5,0.2-0.6,0.4l-0.1,0.3l-8.3,16.1
								l-0.2,0.3c0,0,0,0.1,0,0.1c0,0.3,0.3,0.6,0.6,0.6l0,0l5.1,0l0.1,0c0.2,0,0.3-0.1,0.4-0.2l0.2-0.4l0.7-1.6l4.4,0l0.1,1.4
								l0,0.5c0.1,0.2,0.3,0.3,0.5,0.3l5.2,0c0.3,0,0.6-0.3,0.6-0.6L35.6,19z M26.5,13.4l2.1-4.8l0.1,0c0.1,2,0.3,4.8,0.3,4.8
								L26.5,13.4z"/>
						</g>
					</g>
					<g>
						<g>
							<path class="st0" d="M48,2l-6.2,0c-0.5,0-0.8,0.3-1,0.8l0,0.1L37.1,19l-0.1,0.2c0,0,0,0,0,0c0,0.3,0.3,0.6,0.6,0.6l5.3,0
								c0.3,0,0.5-0.2,0.6-0.4l0-0.1l1.2-5.1c0,0,0,0,0.1,0c0.2,0,1,3.7,1.4,5.1c0,0.1,0,0.1,0,0.2c0.1,0.2,0.2,0.3,0.4,0.4l5.2,0
								c0.3,0,0.6-0.3,0.6-0.6c0,0,0,0,0-0.1c0-0.1,0-0.1-0.1-0.2c-0.5-1.8-1.7-5.8-2.4-6.1c2.5-0.8,4.3-1.8,4.7-4.5
								C55.4,3.8,52,1.9,48,2 M48.9,8.3c-0.2,1.3-1.6,1.6-2.8,1.6l-0.5,0l0.7-3.1l0.5,0C48.3,6.8,49.2,7,48.9,8.3z"/>
						</g>
					</g>
					<g>
						<path class="st0" d="M63.7,2l-5,0c-0.5,0-0.9,0.3-1,0.7l0,0.1L54,19l0,0.2c0,0,0,0,0,0c0,0.3,0.3,0.6,0.6,0.6l5.1,0
							c0.3-0.1,0.6-0.3,0.8-0.6l0.1-0.5l3.7-16l0-0.1c0,0,0-0.1,0-0.1C64.2,2.3,64,2.1,63.7,2"/>
					</g>
					<g>
						<defs>
							<path id="SVGID_5_" d="M88.2,19.8l-0.2,0l-23.8,0h0c-0.3,0-0.6-0.3-0.6-0.6c0,0,0,0,0,0l0.1-0.2l3.7-16.1l0-0.1
								c0.1-0.3,0.3-0.5,0.5-0.7l0,0v0c0.1,0,0.2-0.1,0.2-0.1l0.1,0v0c0.1,0,0.1,0,0.2,0l29.3,0c0.1,0,0.1,0,0.2,0v0l0,0
								C98,2,98,2.1,98.1,2.1v0l0,0c0.2,0.1,0.2,0.3,0.3,0.5v0c0,0,0,0.1,0,0.1l0,0l-3.7,16.1l-0.1,0.2c-0.1,0.1-0.1,0.3-0.2,0.4
								l0,0v0c-0.2,0.2-0.4,0.3-0.7,0.3l-0.1,0L88.2,19.8z"/>
						</defs>
						<clipPath id="SVGID_6_">
							<use xlink:href="#SVGID_5_"  style="overflow:visible;"/>
						</clipPath>
						
							<linearGradient id="SVGID_7_" gradientUnits="userSpaceOnUse" x1="-314.0106" y1="326.0926" x2="-313.431" y2="326.0926" gradientTransform="matrix(67.8532 -1.583348e-02 9.079189e-03 38.9193 21364.9805 -12685.335)">
							<stop  offset="0" style="stop-color:#FFD900"/>
							<stop  offset="1" style="stop-color:#F8AF00"/>
						</linearGradient>
						<rect x="61.3" y="-0.3" class="st1" width="39.3" height="22.4"/>
					</g>
					<g>
						<defs>
							<path id="SVGID_8_" d="M75.9,22.8l-29.4,0c0,0-0.1,0-0.1,0v0l0,0c-0.4,0.1-0.8,0.4-0.9,0.8l0,0.1l-3.7,16.1l-0.1,0.2l0,0
								c0,0.3,0.3,0.6,0.6,0.6h0l29.3,0l0.1,0c0.1,0,0.1,0,0.2,0v0l0,0c0.4-0.1,0.7-0.3,0.8-0.7l0.1-0.2l3.7-16.1l0,0
								c0,0,0-0.1,0-0.1v0c0-0.1,0-0.2-0.1-0.3h0v0c0-0.1-0.1-0.1-0.2-0.2l0,0l0,0C76.2,22.8,76.1,22.8,75.9,22.8"/>
						</defs>
						<clipPath id="SVGID_9_">
							<use xlink:href="#SVGID_8_"  style="overflow:visible;"/>
						</clipPath>
						
							<linearGradient id="SVGID_10_" gradientUnits="userSpaceOnUse" x1="-314.4238" y1="324.5755" x2="-313.8443" y2="324.5755" gradientTransform="matrix(71.8476 -1.676661e-02 1.000565e-02 42.8927 22625.7246 -13895.5264)">
							<stop  offset="0" style="stop-color:#FFD900"/>
							<stop  offset="1" style="stop-color:#F8AF00"/>
						</linearGradient>
						<rect x="38.4" y="19.3" class="st2" width="41.6" height="24.8"/>
					</g>
					<g>
						<path class="st0" d="M100,22.8l-6.9,0c-0.3,0-0.6,0.2-0.8,0.4c0,0.1-0.1,0.2-0.1,0.3c-1,2-4.1,7.9-4.4,8.6l-0.1,0l-0.5-8.6
							l0-0.2c-0.1-0.2-0.3-0.4-0.5-0.5l-5.8,0c-0.4,0-0.8,0.3-1,0.7l-0.1,0.3L76,39.8l0,0.1c0,0,0,0.1,0,0.1c0,0.3,0.3,0.6,0.6,0.6
							l4.3,0c0.3,0,0.5-0.2,0.6-0.5l0-0.1l2.1-9.2c-0.1,0.6,0.3,6.9,0.4,9.1c0,0.1,0,0.1,0,0.2c0.1,0.3,0.3,0.5,0.6,0.5l3,0
							c0.2,0,0.4-0.1,0.5-0.3c0,0,0-0.1,0.1-0.2c0.9-1.8,4.6-8.8,4.7-9.3l0.2,0l-2.1,9l0,0.1c0,0,0,0.1,0,0.1c0,0.3,0.3,0.6,0.6,0.6
							l4.5,0c0.2,0,0.4-0.2,0.5-0.4l0-0.2l3.8-16.4l0-0.1c0,0,0-0.1,0-0.1C100.5,23.1,100.3,22.8,100,22.8"/>
					</g>
					<g>
						<path class="st0" d="M131.3,22.7L131.3,22.7l-13.3,0l-0.1,0c-0.5,0-0.8,0.4-0.9,0.8l0,0l-0.9,4l0,0.1c0,0,0,0.1,0,0.1
							c0,0.3,0.3,0.6,0.6,0.6l0.1,0l3.5,0l-2.6,11.3l-0.1,0.2c0,0,0,0,0,0c0,0.3,0.2,0.6,0.5,0.6l5,0c0.4,0,0.8-0.3,1-0.7l0.1-0.3
							l2.6-11.2l3.3,0l0,0c0.5,0,0.9-0.3,1-0.8l0-0.1l0.9-4l0-0.1c0,0,0-0.1,0-0.1C131.9,23,131.6,22.8,131.3,22.7"/>
					</g>
					<g>
						<g>
							<path class="st0" d="M116,39.8l-2.3-16.4l0-0.2c-0.1-0.2-0.3-0.4-0.5-0.4l-5.6,0c-0.3,0-0.6,0.2-0.8,0.4l-0.1,0.2l-8.4,16.2
								l0,0.1c0,0.1,0,0.2,0,0.2c0,0.3,0.3,0.6,0.6,0.6l0,0l5,0l0.1,0c0.2,0,0.4-0.2,0.5-0.4l0,0l0.8-1.8l4.4,0l0.1,1.6l0,0.1
								c0,0.3,0.3,0.5,0.6,0.5l5.1,0c0.3,0,0.6-0.3,0.6-0.6L116,39.8z M107,34.1l2.1-4.8l0.1,0c0.1,2,0.3,4.8,0.3,4.8L107,34.1z"/>
						</g>
					</g>
					<g>
						<path class="st0" d="M148.5,27.6c-0.1-1.8-0.9-5.4-6.7-5.6c-6.4-0.3-10.4,4.1-11,10.1c-0.5,5.1,2.1,8.9,8.2,8.8
							c5.7-0.1,7.5-3.7,8-5.8c0-0.1,0-0.1,0-0.1c0-0.1,0-0.1,0-0.2c0-0.6-0.4-1-1-1l-0.1,0l-4.7,0l0,0c-0.2,0-0.4,0.1-0.5,0.3
							c0,0,0,0,0,0.1c-0.5,0.7-1.3,1.1-1.9,1c-1.4-0.3-1.4-1.8-1.3-3c0.1-1.1,1.4-4.2,3.2-4.2c0.7,0,1.1,0.2,1.3,0.5
							c0,0,0,0.1,0.1,0.1c0.1,0.1,0.3,0.2,0.4,0.3l5,0C148.1,28.7,148.5,28.2,148.5,27.6C148.5,27.7,148.5,27.6,148.5,27.6"/>
					</g>
					<g>
						<path class="st0" d="M167.3,22.8c0,0-0.1,0-0.2,0l-4.7,0c0,0-0.1,0-0.2,0c-0.5,0-0.8,0.4-0.9,0.8l0,0l-1.2,5.2l-4,0l1.1-5.1
							c0-0.1,0.1-0.2,0.1-0.3l0,0c0-0.3-0.2-0.6-0.5-0.6c0,0-0.1,0-0.1,0c0,0-0.1,0-0.1,0l-4.8,0c-0.4,0-0.8,0.3-1,0.6
							c0,0.1-0.1,0.2-0.1,0.3l-3.6,15.9l-0.1,0.3c0,0,0,0,0,0c0,0.3,0.3,0.6,0.6,0.6l4.9,0c0.5,0,0.8-0.3,1-0.7l0.1-0.2l1.2-5.3l4,0
							l-1.2,5.4c0,0,0,0.2,0,0.2c0,0.3,0.3,0.6,0.6,0.6l4.9,0c0.5,0,0.9-0.3,1-0.8l0-0.1l3.7-16.1l0-0.1c0,0,0-0.1,0-0.1
							C167.9,23.1,167.6,22.8,167.3,22.8"/>
					</g>
				</g>
			</g>
			<g>
				<g>
					<g>
						<defs>
							<path id="SVGID_11_" d="M88.2,19.8l-0.2,0l-23.8,0h0c-0.3,0-0.6-0.3-0.6-0.6c0,0,0,0,0,0l0.1-0.2l3.7-16.1l0-0.1
								c0.1-0.3,0.3-0.5,0.5-0.7l0,0v0c0.1,0,0.2-0.1,0.2-0.1l0.1,0v0c0.1,0,0.1,0,0.2,0l29.3,0c0.1,0,0.1,0,0.2,0v0l0,0
								C98,2,98,2.1,98.1,2.1v0l0,0c0.2,0.1,0.2,0.3,0.3,0.5v0c0,0,0,0.1,0,0.1l0,0l-3.7,16.1l-0.1,0.2c-0.1,0.1-0.1,0.3-0.2,0.4
								l0,0v0c-0.2,0.2-0.4,0.3-0.7,0.3l-0.1,0L88.2,19.8z"/>
						</defs>
						<clipPath id="SVGID_12_">
							<use xlink:href="#SVGID_11_"  style="overflow:visible;"/>
						</clipPath>
					</g>
					<g>
						<defs>
							<path id="SVGID_13_" d="M75.9,22.8l-29.4,0c0,0-0.1,0-0.1,0v0l0,0c-0.4,0.1-0.8,0.4-0.9,0.8l0,0.1l-3.7,16.1l-0.1,0.2l0,0
								c0,0.3,0.3,0.6,0.6,0.6h0l29.3,0l0.1,0c0.1,0,0.1,0,0.2,0v0l0,0c0.4-0.1,0.7-0.3,0.8-0.7l0.1-0.2l3.7-16.1l0,0
								c0,0,0-0.1,0-0.1v0c0-0.1,0-0.2-0.1-0.3h0v0c0-0.1-0.1-0.1-0.2-0.2l0,0l0,0C76.2,22.8,76.1,22.8,75.9,22.8"/>
						</defs>
						<clipPath id="SVGID_14_">
							<use xlink:href="#SVGID_13_"  style="overflow:visible;"/>
						</clipPath>
					</g>
				</g>
			</g>
		</g>
	</g>
	<g>
		<g>
			<path class="st0" d="M47.6,55.8c-0.6,1.9-1.8,2.8-3.4,2.8c-1,0-1.8-0.3-2.4-1c-0.6-0.6-0.8-1.5-0.8-2.5c0-1.1,0.4-2.1,1.1-3
				c0.7-0.9,1.6-1.3,2.8-1.3c1.1,0,1.8,0.3,2.3,0.9c0.5,0.6,0.7,1.2,0.7,1.9v0.2l-1.9,0.1c0-0.5-0.1-0.8-0.3-1.1
				c-0.2-0.2-0.5-0.3-0.8-0.3c-0.5,0-0.9,0.3-1.2,0.8c-0.3,0.6-0.4,1.3-0.4,2.2c0,0.9,0.4,1.4,1.1,1.4c0.7,0,1.1-0.4,1.4-1.3
				L47.6,55.8z"/>
			<polygon class="st0" points="49.5,58.4 50.5,52.5 48.5,52.5 48.7,50.9 54.9,50.9 54.6,52.5 52.6,52.5 51.7,58.4 			"/>
			<path class="st0" d="M59.3,54.8c-1.8,0.1-2.6,0.6-2.6,1.5c0,0.3,0.1,0.5,0.2,0.6c0.2,0.2,0.4,0.3,0.6,0.3c0.4,0,0.8-0.2,1.1-0.6
				C59,56.2,59.2,55.6,59.3,54.8 M59,58.4c0-0.2,0-0.4,0-0.5c0-0.1,0-0.3,0-0.5c0-0.1,0-0.2,0-0.3c-0.5,1-1.3,1.5-2.4,1.5
				c-0.7,0-1.2-0.2-1.6-0.6c-0.4-0.4-0.6-0.9-0.6-1.4c0-0.8,0.4-1.5,1.1-2c0.7-0.5,2-0.8,4-0.9c0.1-0.2,0.1-0.5,0.1-0.7
				c0-0.3-0.1-0.5-0.3-0.6c-0.2-0.2-0.4-0.2-0.7-0.2c-0.7,0-1.2,0.4-1.5,1.1l-2-0.2c0.5-1.5,1.7-2.3,3.6-2.3c1,0,1.7,0.2,2.2,0.6
				c0.5,0.4,0.7,0.9,0.7,1.6c0,0.2-0.1,0.8-0.2,1.6l-0.3,1.9c-0.1,0.6-0.2,1.1-0.2,1.4c0,0.2,0,0.3,0,0.5H59z"/>
			<path class="st0" d="M65.6,54h1.5c0.4,0,0.6-0.1,0.8-0.3c0.2-0.2,0.2-0.4,0.2-0.6c0-0.5-0.3-0.7-1.1-0.7h-1.2L65.6,54z
				 M65.1,56.9h1.5c0.8,0,1.2-0.4,1.2-1.1c0-0.5-0.4-0.8-1.1-0.8h-1.3L65.1,56.9z M62.7,58.4l1.2-7.5h3.7c1.7,0,2.6,0.6,2.6,1.7
				c0,1-0.7,1.6-2,1.8c1.1,0.3,1.6,0.8,1.6,1.7c0,0.6-0.2,1.2-0.7,1.6c-0.5,0.4-1.2,0.6-2.1,0.6H62.7z"/>
			<polygon class="st0" points="76.5,53.5 78.1,58.4 75.8,58.4 74.7,55 73.5,56.1 73.1,58.4 70.9,58.4 72.2,50.9 74.3,50.9 73.8,54 
				76.9,50.9 79.1,50.9 			"/>
			<path class="st0" d="M81.1,57.7L81,58.4h-2.2l1.2-7.5h2.2l-0.5,2.7c-0.1,0.5-0.2,1.1-0.4,1.8c0.4-0.6,0.8-1.1,1.3-1.6l1.8-2
				l0.1-0.8h2.2l-1.3,7.5h-2.1l0.4-2.5c0.1-0.6,0.2-1.2,0.4-2c-0.4,0.7-0.8,1.2-1.2,1.7L81.1,57.7z"/>
			<polygon class="st0" points="91.1,58.4 92.3,50.9 94.5,50.9 94,53.6 96.3,53.6 96.7,50.9 98.9,50.9 97.6,58.4 95.5,58.4 96,55.2 
				93.7,55.2 93.2,58.4 			"/>
			<path class="st0" d="M104.2,54.8c-1.8,0.1-2.6,0.6-2.6,1.5c0,0.3,0.1,0.5,0.2,0.6c0.2,0.2,0.4,0.3,0.6,0.3c0.4,0,0.8-0.2,1.1-0.6
				C103.9,56.2,104.1,55.6,104.2,54.8 M103.9,58.4c0-0.2,0-0.4,0-0.5c0-0.1,0-0.3,0-0.5c0-0.1,0-0.2,0-0.3c-0.5,1-1.3,1.5-2.4,1.5
				c-0.7,0-1.2-0.2-1.6-0.6s-0.6-0.9-0.6-1.4c0-0.8,0.4-1.5,1.1-2c0.7-0.5,2-0.8,4-0.9c0.1-0.2,0.1-0.5,0.1-0.7
				c0-0.3-0.1-0.5-0.3-0.6c-0.2-0.2-0.4-0.2-0.7-0.2c-0.7,0-1.2,0.4-1.5,1.1l-2-0.2c0.5-1.5,1.7-2.3,3.6-2.3c1,0,1.7,0.2,2.2,0.6
				c0.5,0.4,0.7,0.9,0.7,1.6c0,0.2-0.1,0.8-0.2,1.6l-0.3,1.9c-0.1,0.6-0.2,1.1-0.2,1.4c0,0.2,0,0.3,0,0.5H103.9z"/>
			<path class="st0" d="M118.2,55.8c-0.6,1.9-1.8,2.8-3.4,2.8c-1,0-1.8-0.3-2.4-1c-0.6-0.6-0.8-1.5-0.8-2.5c0-1.1,0.4-2.1,1.1-3
				c0.7-0.9,1.6-1.3,2.8-1.3c1.1,0,1.8,0.3,2.3,0.9c0.5,0.6,0.7,1.2,0.7,1.9v0.2l-1.9,0.1c0-0.5-0.1-0.8-0.3-1.1
				c-0.2-0.2-0.5-0.3-0.8-0.3c-0.5,0-0.9,0.3-1.2,0.8c-0.3,0.6-0.4,1.3-0.4,2.2c0,0.9,0.4,1.4,1.1,1.4c0.7,0,1.1-0.4,1.4-1.3
				L118.2,55.8z"/>
			<polygon class="st0" points="119,58.4 120.2,50.9 126.5,50.9 125.3,58.4 123.1,58.4 124.1,52.4 122.1,52.4 121.1,58.4 			"/>
			<path class="st0" d="M131.1,52.2c-0.6,0-1,0.4-1.3,1.1c-0.2,0.8-0.4,1.5-0.4,2.3c0,0.9,0.4,1.4,1.1,1.4c0.6,0,1-0.4,1.3-1.2
				c0.2-0.8,0.3-1.6,0.3-2.2C132.2,52.7,131.8,52.2,131.1,52.2 M131.1,50.8c1,0,1.8,0.3,2.4,1c0.6,0.6,0.9,1.5,0.9,2.5
				c0,1.2-0.4,2.2-1.1,3c-0.7,0.8-1.6,1.3-2.7,1.3c-0.9,0-1.7-0.3-2.3-1c-0.6-0.6-0.9-1.4-0.9-2.4c0-1.3,0.4-2.3,1.1-3.2
				C129,51.2,130,50.8,131.1,50.8"/>
			<path class="st0" d="M138.7,57.1c0.5,0,0.9-0.4,1.2-1.2c0.2-0.8,0.4-1.6,0.4-2.3c0-0.3-0.1-0.6-0.2-0.9c-0.2-0.2-0.4-0.4-0.7-0.4
				c-0.3,0-0.6,0.1-0.8,0.4c-0.3,0.3-0.5,0.8-0.6,1.5c-0.1,0.7-0.2,1.2-0.2,1.5c0,0.4,0.1,0.8,0.3,1C138.2,57,138.5,57.1,138.7,57.1
				 M136.8,61h-2.2l1.7-10.1h2l-0.2,1.3c0.5-1,1.2-1.4,2.1-1.4c0.7,0,1.3,0.3,1.7,0.8c0.4,0.6,0.6,1.3,0.6,2.2
				c0,1.3-0.3,2.3-0.9,3.3c-0.6,0.9-1.3,1.4-2.3,1.4c-0.4,0-0.8-0.1-1.2-0.4c-0.3-0.2-0.6-0.5-0.7-0.9L136.8,61z"/>
			<polygon class="st0" points="144.2,58.4 145.2,52.5 143.2,52.5 143.5,50.9 149.6,50.9 149.4,52.5 147.4,52.5 146.4,58.4 			"/>
		</g>
	</g>
</g>
</svg>
