<svg id="Layer_1" data-name="Layer 1" xmlns="http://www.w3.org/2000/svg" viewBox="0 0 200 200"><defs><style>.cls-1{fill:none;stroke:#fff;stroke-miterlimit:10;stroke-width:5px;}</style></defs><title>icon-03</title><g id="Protect"><path d="M99.65,8.1C120,27.79,144.17,37,175.86,37h0c0,4.62.08,9.45.17,14.56l0,.86c.51,24.93,1.08,53.18-8.45,79-10.85,29.35-33.05,49.5-67.87,61.61H99.6c-34.76-12.06-56.94-32.2-67.79-61.55-9.52-25.74-9-54-8.53-79v0h0v-.55c.09-5.17.18-10.05.18-14.85h0c31.6,0,55.77-9.17,76.07-28.83a.16.16,0,0,1,.1-.05m0-7a7.19,7.19,0,0,0-4.91,1.95C75.81,21.44,53.15,30,23.43,30a7,7,0,0,0-7,7c0,4.92-.09,10-.19,15.32-.92,50-2.22,118.49,81.07,147.37a7.46,7.46,0,0,0,4.64,0c83.39-29,82.09-97.41,81.07-147.37-.1-5.38-.19-10.49-.19-15.32a7,7,0,0,0-7-7c-29.81,0-52.47-8.54-71.41-26.93A7,7,0,0,0,99.66,1.1Z"/><path class="cls-1" d="M128,75.08l-36.2,36.2L76.31,95.83a7.5,7.5,0,1,0-10.6,10.61l20.75,20.75a7.51,7.51,0,0,0,10.6,0l41.5-41.5A7.5,7.5,0,0,0,128,75.08Z"/></g></svg>