<svg id="Layer_1" data-name="Layer 1" xmlns="http://www.w3.org/2000/svg" xmlns:xlink="http://www.w3.org/1999/xlink" viewBox="0 0 200 200"><defs><style>.cls-1,.cls-2{fill:none;}.cls-2{stroke:#000;stroke-miterlimit:10;stroke-width:5px;}.cls-3{clip-path:url(#clip-path);}</style><clipPath id="clip-path"><polygon class="cls-1" points="80.92 101.17 65.38 110.1 36.91 89.72 67.72 -14.98 132.89 6.17 112.67 68.47 80.92 101.17"/></clipPath></defs><title>icon-05</title><g id="Lacto_1" data-name="Lacto 1"><rect class="cls-2" x="94.71" y="120.86" width="104.94" height="27.8" rx="13.9" ry="13.9" transform="translate(-52.18 143.54) rotate(-45)"/><rect class="cls-2" x="92.67" y="83.36" width="104.94" height="27.8" rx="13.9" ry="13.9" transform="translate(-26.26 131.12) rotate(-45)"/><rect class="cls-2" x="63.84" y="71.52" width="104.94" height="27.8" rx="13.9" ry="13.9" transform="translate(-26.34 107.27) rotate(-45)"/><rect class="cls-2" x="11.39" y="114.39" width="104.94" height="27.8" rx="13.9" ry="13.9" transform="translate(29.78 267.49) rotate(-139.78)"/><rect class="cls-2" x="2" y="144.1" width="104.94" height="27.8" rx="13.9" ry="13.9" transform="translate(-5.98 313.82) rotate(-139.78)"/><g class="cls-3"><rect class="cls-2" x="45.6" y="40.49" width="104.94" height="27.8" rx="13.9" ry="13.9" transform="translate(14.78 129.48) rotate(-71.05)"/><rect class="cls-2" x="14.5" y="42.51" width="104.94" height="27.8" rx="13.9" ry="13.9" transform="matrix(0.32, -0.95, 0.95, 0.32, -8.13, 101.44)"/></g></g></svg>