<svg id="Layer_1" data-name="Layer 1" xmlns="http://www.w3.org/2000/svg" viewBox="0 0 200 200"><defs><style>.cls-1{fill:none;stroke:#000;stroke-miterlimit:10;stroke-width:5px;}</style></defs><title>icon-11</title><rect class="cls-1" x="47.11" y="163.31" width="52.48" height="19.04" rx="9.34" ry="9.34" transform="translate(-113 149.93) rotate(-60)"/><rect class="cls-1" x="54.96" y="113.11" width="52.48" height="19.04" rx="9.34" ry="9.34" transform="translate(-35.04 212.75) rotate(-94.27)"/><rect class="cls-1" x="56.93" y="60.11" width="52.48" height="19.04" rx="9.34" ry="9.34" transform="translate(3.12 142.83) rotate(-82.38)"/><rect class="cls-1" x="11.52" y="77.49" width="52.48" height="19.04" rx="9.34" ry="9.34" transform="translate(-46.2 131.15) rotate(-94.27)"/><rect class="cls-1" x="14.58" y="25.04" width="52.48" height="19.04" rx="9.34" ry="9.34" transform="translate(-0.3 68.77) rotate(-80.03)"/><rect class="cls-1" x="131.32" y="99.1" width="52.48" height="19.04" rx="9.34" ry="9.34" transform="translate(345.59 73.01) rotate(134.69)"/><rect class="cls-1" x="89.75" y="131.23" width="52.48" height="19.04" rx="9.34" ry="9.34" transform="translate(287.97 201.48) rotate(148.94)"/><rect class="cls-1" x="82.46" y="74.98" width="52.48" height="19.04" rx="9.34" ry="9.34" transform="translate(-27.91 101.61) rotate(-45)"/><rect class="cls-1" x="81.32" y="15.84" width="52.48" height="19.04" rx="9.34" ry="9.34" transform="translate(13.57 83.48) rotate(-45)"/><rect class="cls-1" x="28.76" y="125.51" width="52.48" height="19.04" rx="9.34" ry="9.34" transform="translate(-18.81 260.78) rotate(-127.43)"/></svg>