<svg id="Layer_1" data-name="Layer 1" xmlns="http://www.w3.org/2000/svg" viewBox="0 0 200 200"><defs><style>.cls-1,.cls-2{fill:none;stroke:#000;stroke-linejoin:round;stroke-width:5px;}.cls-2{stroke-linecap:round;}</style></defs><title>icon-12</title><path class="cls-1" d="M180.8,38.49c.51-6.36-2.93-11.71-4.71-14,.38-4.58-.64-8.4-3.19-11.46-3.82-4.71-10.05-5.85-12.22-6.24a19.72,19.72,0,0,0-14.77-2c-6.23,1.78-10.43,6.36-12.47,9.16-5-1.27-9.29-.76-12.73,1.4a14.88,14.88,0,0,0-5.6,7,10,10,0,0,0-6.37.13,12,12,0,0,0-4.07,2.68,9.51,9.51,0,0,0-3.57-1.91,12.85,12.85,0,0,0-7.64.12,11.76,11.76,0,0,0-4.71-5,14.79,14.79,0,0,0-8.91-1.53,15.19,15.19,0,0,0-6-6.62A18.43,18.43,0,0,0,62.15,8.7C57.82,5,53.23,3.1,48.4,3.36c-6.37.25-11.08,4.07-13,5.85-5.09.89-8.78,3.06-10.82,6.62a15.83,15.83,0,0,0-1.53,10.7,13.53,13.53,0,0,0-6.36,7,16.93,16.93,0,0,0,.12,11.33c-6.23,7.13-4.58,15.53-2,20.62-5.09,7.26-2.68,15.66-.13,20.37-1.27,4.46-4.46,18.33,2.42,27.88,4.33,6,11.46,9,21.39,9,10.18,0,17.57-3,21.89-9.17,6.5-9.16,3.57-21.89,2.3-26.09,4.45-9.17,2.41-15.66-.51-19.1a15.4,15.4,0,0,0,1.91-6.49,19.38,19.38,0,0,0,16.55,2.67,15.75,15.75,0,0,0,9.93,5.73A19.44,19.44,0,0,0,102,67.9c4.08,2.67,7.9,3.44,11.46,2.42A12.09,12.09,0,0,0,120.33,65a12.47,12.47,0,0,0,10.44-.76,18.2,18.2,0,0,0,1.9,3.56,11.56,11.56,0,0,0-3.31,6.37c-.76,4.33,1,8.27,2.3,10.57-3.82,6-2.17,11.58.25,15.4a8.61,8.61,0,0,0-2.29,3.31,11.55,11.55,0,0,0-.64,6.11,15.85,15.85,0,0,0-1.4.76,6.83,6.83,0,0,0-1.65,1.66,14.38,14.38,0,0,0-8-2.42c-5,0-9.17,2.67-11.46,4.46-5.35-2.42-14.9-3.31-23.43,6.23-10.43,11.84-5.85,25.34-4.45,28.9-.51,6-2.17,33.87,6.87,43.67a11.06,11.06,0,0,0,8.15,3.69,11.52,11.52,0,0,0,8.53-3.82c7.64-7.89,9-26.73,9.17-36.66a15.74,15.74,0,0,0,16.42-1.66c6,3.57,11.71,4.71,16.8,3.31a19.48,19.48,0,0,0,10.7-8.27c13.49-4.2,16.93-13.88,16.8-19.48,8.66-10.69,4.71-21.26.51-27a18.33,18.33,0,0,0-.25-18c4.45-7.13,2.8-13.11.12-16.55a18.51,18.51,0,0,0,1.66-18.59C178.25,46.64,180.42,42.82,180.8,38.49Z"/><path class="cls-2" d="M39.56,51.48C36.12,58.35,37.77,65,38.79,68a18.45,18.45,0,0,0-.25,19.09c-3.06,6.37-.38,13.75-.26,14"/><path class="cls-2" d="M138.28,36.25c-10.06-1-15.54,4-18,8.28C112.43,43,107,45.68,104,47.84,98.68,44,92.32,44.53,88.88,45.29,84.17,37.91,76.4,37,71.31,37.91,66.6,31,58.2,31.29,57.82,31.29"/><path class="cls-2" d="M153.86,73.56a14,14,0,0,0-1.4,17.06c-1.91,3.56-5.22,11.45-1.4,18.46-1.65,3.18-4.58,9.54-3.69,15-4.33,1.27-11.33,4.2-15.53,10.05-3.82-1.14-11.08-2.67-17.19.13-2.42-1.4-6.62-3.31-9.93-2"/></svg>