<?xml version="1.0" encoding="utf-8"?>
<!-- Generator: Adobe Illustrator 22.0.1, SVG Export Plug-In . SVG Version: 6.00 Build 0)  -->
<svg version="1.1" id="Layer_1" xmlns="http://www.w3.org/2000/svg" xmlns:xlink="http://www.w3.org/1999/xlink" x="0px" y="0px"
	 viewBox="0 0 200 200" style="enable-background:new 0 0 200 200;" xml:space="preserve">
<style type="text/css">
	.st0{fill:#FFFFFF;}
	.st1{fill:url(#SVGID_1_);}
	.st2{fill:url(#SVGID_2_);}
	.st3{fill:url(#SVGID_3_);}
	.st4{fill:url(#SVGID_4_);}
	.st5{fill:url(#SVGID_5_);}
	.st6{fill:url(#SVGID_6_);}
	.st7{fill:url(#SVGID_7_);}
	.st8{fill:url(#SVGID_8_);}
	.st9{fill:url(#SVGID_9_);}
	.st10{fill:url(#SVGID_10_);}
	.st11{fill:url(#SVGID_11_);}
	.st12{fill:url(#SVGID_12_);}
	.st13{fill:url(#SVGID_13_);}
	.st14{fill:url(#SVGID_14_);}
	.st15{fill:url(#SVGID_15_);}
	.st16{fill:url(#SVGID_16_);}
	.st17{fill:url(#SVGID_17_);}
	.st18{fill:url(#SVGID_18_);}
	.st19{fill:url(#SVGID_19_);}
	.st20{fill:url(#SVGID_20_);}
	.st21{fill:url(#SVGID_21_);}
	.st22{fill:url(#SVGID_22_);}
	.st23{opacity:0.2;fill:url(#SVGID_23_);}
	.st24{opacity:0.2;fill:url(#SVGID_24_);}
	.st25{opacity:0.2;fill:url(#SVGID_25_);}
	.st26{opacity:0.2;fill:url(#SVGID_26_);}
	.st27{fill:url(#SVGID_27_);}
	.st28{fill:url(#SVGID_28_);}
	.st29{opacity:0.2;fill:url(#SVGID_29_);}
	.st30{opacity:0.2;fill:url(#SVGID_30_);}
	.st31{fill:url(#SVGID_31_);}
	.st32{opacity:0.2;fill:url(#SVGID_32_);}
	.st33{opacity:0.2;fill:url(#SVGID_33_);}
	.st34{opacity:0.2;fill:url(#SVGID_34_);}
	.st35{opacity:0.2;fill:url(#SVGID_35_);}
	.st36{fill:url(#SVGID_36_);}
	.st37{opacity:0.2;fill:url(#SVGID_37_);}
	.st38{fill:url(#SVGID_38_);}
	.st39{opacity:0.2;fill:url(#SVGID_39_);}
	.st40{fill:url(#SVGID_40_);}
	.st41{fill:url(#SVGID_41_);}
	.st42{fill:url(#SVGID_42_);}
	.st43{fill:url(#SVGID_43_);}
	.st44{fill:url(#SVGID_44_);}
	.st45{opacity:0.2;fill:url(#SVGID_45_);}
	.st46{fill:url(#SVGID_46_);}
	.st47{opacity:0.2;fill:url(#SVGID_47_);}
	.st48{fill:url(#SVGID_48_);}
	.st49{opacity:0.2;fill:url(#SVGID_49_);}
	.st50{fill:url(#SVGID_50_);}
	.st51{fill:url(#SVGID_51_);}
	.st52{fill:url(#SVGID_52_);}
	.st53{fill:url(#SVGID_53_);}
	.st54{fill:url(#SVGID_54_);}
	.st55{fill:url(#SVGID_55_);}
	.st56{fill:url(#SVGID_56_);}
	.st57{fill:url(#SVGID_57_);}
	.st58{fill:url(#SVGID_58_);}
	.st59{fill:url(#SVGID_59_);}
	.st60{fill:url(#SVGID_60_);}
	.st61{fill:url(#SVGID_61_);}
	.st62{fill:url(#SVGID_62_);}
	.st63{fill:url(#SVGID_63_);}
	.st64{fill:url(#SVGID_64_);}
	.st65{fill:url(#SVGID_65_);}
	.st66{fill:url(#SVGID_66_);}
	.st67{fill:url(#SVGID_67_);}
	.st68{fill:url(#SVGID_68_);}
	.st69{fill:url(#SVGID_69_);}
	.st70{fill:url(#SVGID_70_);}
	.st71{fill:url(#SVGID_71_);}
	.st72{fill:url(#SVGID_72_);}
	.st73{fill:url(#SVGID_73_);}
	.st74{fill:url(#SVGID_74_);}
	.st75{fill:url(#SVGID_75_);}
	.st76{fill:url(#SVGID_76_);}
	.st77{fill:url(#SVGID_77_);}
	.st78{fill:url(#SVGID_78_);}
	.st79{fill:url(#SVGID_79_);}
	.st80{fill:url(#SVGID_80_);}
	.st81{fill:url(#SVGID_81_);}
	.st82{fill:url(#SVGID_82_);}
	.st83{fill:url(#SVGID_83_);}
	.st84{fill:url(#SVGID_84_);}
	.st85{fill:url(#SVGID_85_);}
	.st86{fill:url(#SVGID_86_);}
	.st87{fill:url(#SVGID_87_);}
	.st88{fill:url(#SVGID_88_);}
	.st89{fill:url(#SVGID_89_);}
	.st90{fill:url(#SVGID_90_);}
	.st91{fill:url(#SVGID_91_);}
	.st92{fill:url(#SVGID_92_);}
	.st93{fill:url(#SVGID_93_);}
	.st94{fill:url(#SVGID_94_);}
	.st95{fill:url(#SVGID_95_);}
	.st96{fill:url(#SVGID_96_);}
	.st97{fill:url(#SVGID_97_);}
	.st98{fill:url(#SVGID_98_);}
	.st99{fill:url(#SVGID_99_);}
	.st100{fill:url(#SVGID_100_);}
	.st101{fill:url(#SVGID_101_);}
	.st102{fill:url(#SVGID_102_);}
	.st103{fill:url(#SVGID_103_);}
	.st104{fill:url(#SVGID_104_);}
	.st105{fill:url(#SVGID_105_);}
	.st106{fill:url(#SVGID_106_);}
	.st107{fill:url(#SVGID_107_);}
	.st108{fill:url(#SVGID_108_);}
	.st109{fill:url(#SVGID_109_);}
	.st110{fill:url(#SVGID_110_);}
	.st111{fill:url(#SVGID_111_);}
	.st112{fill:url(#SVGID_112_);}
	.st113{fill:url(#SVGID_113_);}
	.st114{fill:url(#SVGID_114_);}
	.st115{fill:url(#SVGID_115_);}
	.st116{fill:url(#SVGID_116_);}
	.st117{fill:url(#SVGID_117_);}
	.st118{fill:url(#SVGID_118_);}
	.st119{fill:url(#SVGID_119_);}
	.st120{fill:url(#SVGID_120_);}
	.st121{fill:url(#SVGID_121_);}
	.st122{fill:url(#SVGID_122_);}
	.st123{fill:url(#SVGID_123_);}
	.st124{display:none;}
	.st125{fill:url(#SVGID_124_);}
	.st126{fill:url(#SVGID_125_);}
	.st127{fill:url(#SVGID_126_);}
	.st128{fill:url(#SVGID_127_);}
	.st129{fill:url(#SVGID_128_);}
	.st130{fill:url(#SVGID_129_);}
	.st131{fill:url(#SVGID_130_);}
	.st132{fill:url(#SVGID_131_);}
	.st133{fill:url(#SVGID_132_);}
	.st134{fill:url(#SVGID_133_);}
	.st135{fill:url(#SVGID_134_);}
	.st136{fill:url(#SVGID_135_);}
	.st137{fill:url(#SVGID_136_);}
	.st138{fill:url(#SVGID_137_);}
	.st139{fill:url(#SVGID_138_);}
	.st140{fill:url(#SVGID_139_);}
	.st141{fill:url(#SVGID_140_);}
	.st142{fill:url(#SVGID_141_);}
	.st143{fill:url(#SVGID_142_);}
	.st144{fill:url(#SVGID_143_);}
	.st145{fill:url(#SVGID_144_);}
	.st146{fill:url(#SVGID_145_);}
	.st147{fill:url(#SVGID_146_);}
</style>
<g>
	<path class="st0" d="M195.1,95.2l-15.3-2.6c-5.5-0.9-6.7-8.2-1.9-10.9l13.5-7.7c5.4-3.1,2.9-11-2.8-11c-0.4,0-0.8,0-1.2,0.1
		l-15.2,2.8c-0.4,0.1-0.8,0.1-1.1,0.1c-4.8,0-7.8-5.8-4.4-9.7l10-11.8c3.5-4.2,0.1-9.8-4.5-9.8c-1,0-2,0.3-3,0.9l-13.4,7.8
		c-1,0.6-2,0.8-3,0.8c-3.8,0-7.1-3.8-5.5-8l5.4-14.5c1.6-4.4-1.9-8-5.6-8c-1.6,0-3.2,0.7-4.4,2.2l-9.9,11.9
		c-1.2,1.5-2.9,2.1-4.5,2.1c-3,0-6-2.3-6-5.9l0.1-15.5c0-3.8-3-5.9-6-5.9c-2.3,0-4.5,1.2-5.5,3.9l-5.2,14.6
		c-0.9,2.6-3.2,3.9-5.6,3.9s-4.6-1.3-5.6-3.9L89.2,6.3c-1-2.7-3.2-3.9-5.5-3.9c-3,0-6,2.2-6,5.9l0.1,15.5c0,3.6-2.9,5.9-6,5.9
		c-1.6,0-3.3-0.7-4.5-2.1l-9.9-11.9c-1.3-1.5-2.9-2.2-4.4-2.2c-3.7,0-7.2,3.6-5.6,8l5.4,14.5c1.5,4.1-1.7,8-5.5,8c-1,0-2-0.3-3-0.8
		l-13.4-7.8c-1-0.6-2-0.9-3-0.9c-4.5,0-8,5.6-4.5,9.8l10,11.8c3.3,3.9,0.4,9.7-4.4,9.7c-0.4,0-0.7,0-1.1-0.1L12.6,63
		c-0.4-0.1-0.8-0.1-1.2-0.1c-5.7,0-8.2,8-2.8,11l13.5,7.7c4.8,2.7,3.5,10-1.9,10.9L4.9,95.2c-6.5,1.1-6.5,10.5,0,11.6l15.3,2.6
		c5.5,0.9,6.7,8.2,1.9,10.9l-13.5,7.7c-5.4,3.1-2.9,11,2.8,11c0.4,0,0.8,0,1.2-0.1l15.2-2.8c0.4-0.1,0.8-0.1,1.1-0.1
		c4.8,0,7.8,5.8,4.4,9.7l-10,11.8c-3.5,4.2-0.1,9.8,4.5,9.8c1,0,2-0.3,3-0.9l13.4-7.8c1-0.6,2-0.8,3-0.8c3.8,0,7.1,3.8,5.5,8
		l-5.4,14.5c-1.6,4.4,1.9,8,5.6,8c1.6,0,3.2-0.7,4.4-2.2l9.9-11.9c1.2-1.5,2.9-2.1,4.5-2.1c3,0,6,2.3,6,5.9l-0.1,15.5
		c0,3.8,3,5.9,6,5.9c2.3,0,4.5-1.2,5.5-3.9l5.2-14.6c0.9-2.6,3.2-3.9,5.6-3.9s4.6,1.3,5.6,3.9l5.2,14.6c1,2.7,3.2,3.9,5.5,3.9
		c3,0,6-2.2,6-5.9l-0.1-15.5c0-3.6,2.9-5.9,6-5.9c1.6,0,3.3,0.7,4.5,2.1l9.9,11.9c1.3,1.5,2.9,2.2,4.4,2.2c3.7,0,7.2-3.6,5.6-8
		l-5.4-14.5c-1.5-4.1,1.7-8,5.5-8c1,0,2,0.3,3,0.8l13.4,7.8c1,0.6,2,0.9,3,0.9c4.5,0,8-5.6,4.5-9.8l-10-11.8
		c-3.3-3.9-0.4-9.7,4.4-9.7c0.4,0,0.7,0,1.1,0.1l15.2,2.8c0.4,0.1,0.8,0.1,1.2,0.1c5.7,0,8.2-8,2.8-11l-13.5-7.7
		c-4.8-2.7-3.5-10,1.9-10.9l15.3-2.6C201.6,105.7,201.6,96.3,195.1,95.2z M194.2,101.9l-15.3,2.6c-4.6,0.8-8.1,4.3-8.9,8.9
		c-0.8,4.6,1.3,9.1,5.3,11.4l13.5,7.7c0.3,0.1,0.6,0.3,0.4,1c-0.1,0.2-0.2,0.7-0.8,0.7c-0.1,0-0.2,0-0.3,0l-15.2-2.8
		c-0.7-0.1-1.3-0.2-2-0.2c-4.3,0-8,2.4-9.8,6.3c-1.8,3.9-1.2,8.3,1.6,11.6l10,11.8c0.3,0.4,0.3,0.6,0.2,0.9
		c-0.2,0.4-0.5,0.7-0.8,0.7c-0.2,0-0.4-0.1-0.5-0.2l-13.4-7.8c-1.7-1-3.6-1.5-5.5-1.5c-3.6,0-6.9,1.8-9,4.7c-2,2.9-2.5,6.6-1.2,10
		l5.4,14.5c0.2,0.5,0.1,0.6,0,0.8c-0.2,0.3-0.6,0.5-0.9,0.5c-0.1,0-0.3,0-0.6-0.4l-9.9-11.9c-2.1-2.5-5.1-3.9-8.3-3.9
		c-2.9,0-5.8,1.2-7.8,3.2c-2,2-3.1,4.8-3.1,7.7l0.1,15.5c0,0.4-0.1,0.6-0.2,0.6c-0.2,0.2-0.5,0.3-0.8,0.3c-0.5,0-0.6-0.2-0.8-0.6
		l-5.2-14.6c-1.6-4.4-5.6-7.2-10.3-7.2c-4.7,0-8.7,2.8-10.3,7.2L84.5,194c-0.1,0.4-0.3,0.6-0.8,0.6c-0.3,0-0.6-0.1-0.8-0.3
		c-0.1-0.1-0.2-0.2-0.2-0.6l0.1-15.5c0-2.9-1.1-5.7-3.1-7.7c-2.1-2.1-4.9-3.2-7.8-3.2c-3.2,0-6.2,1.4-8.3,3.9l-9.9,11.9
		c-0.3,0.4-0.5,0.4-0.6,0.4c-0.3,0-0.7-0.2-0.9-0.5c-0.1-0.1-0.2-0.3,0-0.8l5.4-14.5c1.3-3.4,0.8-7-1.2-10c-2.1-3-5.4-4.7-9-4.7
		c-1.9,0-3.8,0.5-5.5,1.5l-13.4,7.8c-0.1,0.1-0.3,0.2-0.5,0.2c-0.3,0-0.7-0.3-0.8-0.7c-0.1-0.3-0.1-0.5,0.2-0.9l10-11.8
		c2.8-3.3,3.4-7.7,1.6-11.6c-1.8-3.9-5.6-6.3-9.8-6.3c-0.7,0-1.3,0.1-2,0.2l-15.2,2.8c-0.1,0-0.2,0-0.3,0c-0.5,0-0.7-0.5-0.8-0.7
		c-0.2-0.6,0.2-0.8,0.4-1l13.5-7.7c4.1-2.3,6.1-6.8,5.3-11.4c-0.8-4.6-4.3-8.1-8.9-8.9l-15.3-2.6c-0.3,0-0.8-0.1-0.8-0.9
		c0-0.8,0.5-0.8,0.8-0.9L21,97.5c4.6-0.8,8.1-4.3,8.9-8.9s-1.3-9.1-5.3-11.4l-13.5-7.7c-0.3-0.1-0.6-0.3-0.4-1
		c0.1-0.2,0.2-0.7,0.8-0.7c0.1,0,0.2,0,0.3,0L27,70.7c0.7,0.1,1.3,0.2,2,0.2c4.3,0,8-2.4,9.8-6.3c1.8-3.9,1.2-8.3-1.6-11.6l-10-11.8
		c-0.3-0.4-0.3-0.6-0.2-0.9c0.2-0.4,0.5-0.7,0.8-0.7c0.2,0,0.4,0.1,0.5,0.2l13.4,7.8c1.7,1,3.6,1.5,5.5,1.5c3.6,0,6.9-1.8,9-4.7
		c2-2.9,2.5-6.6,1.2-10l-5.4-14.5c-0.2-0.5-0.1-0.6,0-0.8c0.2-0.3,0.6-0.5,0.9-0.5c0.1,0,0.3,0,0.6,0.4l9.9,11.9
		c2.1,2.5,5.1,3.9,8.3,3.9c2.9,0,5.8-1.2,7.8-3.2c2-2,3.1-4.8,3.1-7.7L82.8,8.3c0-0.4,0.1-0.6,0.2-0.6c0.2-0.2,0.5-0.3,0.8-0.3
		c0.5,0,0.6,0.2,0.8,0.6l5.2,14.6c1.6,4.4,5.6,7.2,10.3,7.2c4.7,0,8.7-2.8,10.3-7.2L115.5,8c0.1-0.4,0.3-0.6,0.8-0.6
		c0.3,0,0.6,0.1,0.8,0.3c0.1,0.1,0.2,0.2,0.2,0.6l-0.1,15.5c0,2.9,1.1,5.7,3.1,7.7c2.1,2.1,4.9,3.2,7.8,3.2c3.2,0,6.2-1.4,8.3-3.9
		l9.9-11.9c0.3-0.4,0.5-0.4,0.6-0.4c0.3,0,0.7,0.2,0.9,0.5c0.1,0.1,0.2,0.3,0,0.8l-5.4,14.5c-1.3,3.4-0.8,7,1.2,10
		c2.1,3,5.4,4.7,9,4.7c1.9,0,3.8-0.5,5.5-1.5l13.4-7.8c0.1-0.1,0.3-0.2,0.5-0.2c0.3,0,0.7,0.3,0.8,0.7c0.1,0.3,0.1,0.5-0.2,0.9
		l-10,11.8c-2.8,3.3-3.4,7.7-1.6,11.6c1.8,3.9,5.6,6.3,9.8,6.3c0.7,0,1.3-0.1,2-0.2l15.2-2.8c0.1,0,0.2,0,0.3,0
		c0.5,0,0.7,0.5,0.8,0.7c0.2,0.6-0.2,0.8-0.4,1l-13.5,7.7c-4.1,2.3-6.1,6.8-5.3,11.4s4.3,8.1,8.9,8.9l15.3,2.6
		c0.3,0,0.8,0.1,0.8,0.9C195,101.8,194.5,101.8,194.2,101.9z"/>
	<path class="st0" d="M104.9,71.8c1.4,0,2.5-1.2,2.4-2.6c-0.3-11.6-8.1-21.8-19-24.9c-7-2-15.2-0.9-21.4,2.7c-4,2.3-6.6,5.4-7.5,8.8
		c-2.2,8.6,7.2,16.8,15.4,24.1c3.2,2.8,7.9,7,8.4,8.7c-1.9,1.2-11.3,0.7-23.9-2.4c-3.4-0.8-6.2-1.7-8.4-2.4c-5-1.6-8.3-2.6-11-0.3
		c-4,3.4-2.8,11.2,3.6,25.5c0.4,0.9,1.3,1.5,2.3,1.5c0.3,0,0.7-0.1,1-0.2c1.3-0.6,1.8-2.1,1.2-3.3c-7.7-17-5.1-19.5-4.9-19.6
		c0.6-0.5,3.3,0.4,6.3,1.3c2.3,0.7,5.2,1.6,8.7,2.5c17.4,4.2,27.3,4.1,29.6-0.2c2.3-4.3-2.7-8.6-9.6-14.7
		c-6.4-5.7-15.3-13.5-13.8-19.1c0.5-2,2.4-4.1,5.1-5.7c5-2.9,11.9-3.8,17.5-2.2c8.8,2.5,15.1,10.8,15.3,20.2
		C102.4,70.8,103.5,71.9,104.9,71.8z"/>
	<path class="st0" d="M76.2,119.1c0.2-1.4-0.7-2.7-2-2.9c-1.4-0.2-2.7,0.7-2.9,2c-0.6,3.3-2.1,8.2-5.9,12.8
		c-2.4,2.9-5.4,5.2-8.8,6.9c-1.2,0.6-1.8,2.1-1.2,3.3c0.4,0.9,1.3,1.4,2.3,1.4c0.4,0,0.7-0.1,1.1-0.3c4.1-2,7.6-4.7,10.5-8.2
		C73.7,128.8,75.5,123,76.2,119.1z"/>
	<path class="st0" d="M89.8,120.5C89.8,120.5,89.8,120.5,89.8,120.5c-1.4,0-2.5,1.2-2.5,2.6c0.1,2.8-0.3,8.3-3.9,13.6
		c-4.4,6.6-11,9-13.6,9.7c-1.3,0.4-2.1,1.7-1.8,3.1c0.3,1.1,1.3,1.9,2.4,1.9c0.2,0,0.4,0,0.7-0.1c3.2-0.9,11.1-3.7,16.5-11.8
		c4.3-6.5,4.8-13.1,4.7-16.5C92.3,121.6,91.2,120.5,89.8,120.5z"/>
	<path class="st0" d="M118.4,91.2c-1-1-2.5-1-3.5-0.1c-4.4,4.2-7.9,9.2-10.2,14.8c-2,4.7-3.1,9.7-3.4,14.8c-0.1,1.4,1,2.6,2.4,2.6
		c0,0,0.1,0,0.1,0c1.3,0,2.4-1,2.5-2.4c0.2-4.5,1.3-9,3-13.1c2.1-5,5.2-9.4,9.1-13.1C119.4,93.8,119.4,92.2,118.4,91.2z"/>
	<path class="st0" d="M142.5,109.8c-1.4,0-2.5,1-2.6,2.4c-0.2,5-1.2,9.7-3,14.1c-5.4,13-16.3,19.5-22.3,22.3
		c-1.3,0.6-1.8,2.1-1.2,3.3c0.4,0.9,1.3,1.5,2.3,1.5c0.3,0,0.7-0.1,1-0.2c6.7-3.1,18.8-10.4,24.9-24.9c2.1-5,3.2-10.3,3.4-15.9
		C144.9,111,143.9,109.8,142.5,109.8z"/>
	<path class="st0" d="M123.1,106.2c0.6,0,1.3-0.2,1.7-0.7c5.3-5.1,9.2-11.4,11.4-18.2c4.8-14.9,0-28-2.3-32.9
		c-0.6-1.3-2.1-1.8-3.3-1.2c-1.3,0.6-1.8,2.1-1.2,3.3c2,4.4,6.3,16.1,2,29.3c-1.9,6-5.4,11.6-10.1,16.1c-1,1-1,2.5,0,3.5
		C121.8,105.9,122.4,106.2,123.1,106.2z"/>
</g>
</svg>
