<?xml version="1.0" encoding="utf-8"?>
<!-- Generator: Adobe Illustrator 22.0.1, SVG Export Plug-In . SVG Version: 6.00 Build 0)  -->
<svg version="1.1" id="Layer_1" xmlns="http://www.w3.org/2000/svg" xmlns:xlink="http://www.w3.org/1999/xlink" x="0px" y="0px"
	 viewBox="0 0 200 200" style="enable-background:new 0 0 200 200;" xml:space="preserve">
<style type="text/css">
	.st0{fill:#FFFFFF;}
	.st1{fill:url(#SVGID_1_);}
	.st2{fill:url(#SVGID_2_);}
	.st3{fill:url(#SVGID_3_);}
	.st4{fill:url(#SVGID_4_);}
	.st5{fill:url(#SVGID_5_);}
	.st6{fill:url(#SVGID_6_);}
	.st7{fill:url(#SVGID_7_);}
	.st8{fill:url(#SVGID_8_);}
	.st9{fill:url(#SVGID_9_);}
	.st10{fill:url(#SVGID_10_);}
	.st11{fill:url(#SVGID_11_);}
	.st12{fill:url(#SVGID_12_);}
	.st13{fill:url(#SVGID_13_);}
	.st14{fill:url(#SVGID_14_);}
	.st15{fill:url(#SVGID_15_);}
	.st16{fill:url(#SVGID_16_);}
	.st17{fill:url(#SVGID_17_);}
	.st18{fill:url(#SVGID_18_);}
	.st19{fill:url(#SVGID_19_);}
	.st20{fill:url(#SVGID_20_);}
	.st21{fill:url(#SVGID_21_);}
	.st22{fill:url(#SVGID_22_);}
	.st23{opacity:0.2;fill:url(#SVGID_23_);}
	.st24{opacity:0.2;fill:url(#SVGID_24_);}
	.st25{opacity:0.2;fill:url(#SVGID_25_);}
	.st26{opacity:0.2;fill:url(#SVGID_26_);}
	.st27{fill:url(#SVGID_27_);}
	.st28{fill:url(#SVGID_28_);}
	.st29{opacity:0.2;fill:url(#SVGID_29_);}
	.st30{opacity:0.2;fill:url(#SVGID_30_);}
	.st31{fill:url(#SVGID_31_);}
	.st32{opacity:0.2;fill:url(#SVGID_32_);}
	.st33{opacity:0.2;fill:url(#SVGID_33_);}
	.st34{opacity:0.2;fill:url(#SVGID_34_);}
	.st35{opacity:0.2;fill:url(#SVGID_35_);}
	.st36{fill:url(#SVGID_36_);}
	.st37{opacity:0.2;fill:url(#SVGID_37_);}
	.st38{fill:url(#SVGID_38_);}
	.st39{opacity:0.2;fill:url(#SVGID_39_);}
	.st40{fill:url(#SVGID_40_);}
	.st41{fill:url(#SVGID_41_);}
	.st42{fill:url(#SVGID_42_);}
	.st43{fill:url(#SVGID_43_);}
	.st44{fill:url(#SVGID_44_);}
	.st45{opacity:0.2;fill:url(#SVGID_45_);}
	.st46{fill:url(#SVGID_46_);}
	.st47{opacity:0.2;fill:url(#SVGID_47_);}
	.st48{fill:url(#SVGID_48_);}
	.st49{opacity:0.2;fill:url(#SVGID_49_);}
	.st50{fill:url(#SVGID_50_);}
	.st51{fill:url(#SVGID_51_);}
	.st52{fill:url(#SVGID_52_);}
	.st53{fill:url(#SVGID_53_);}
	.st54{fill:url(#SVGID_54_);}
	.st55{fill:url(#SVGID_55_);}
	.st56{fill:url(#SVGID_56_);}
	.st57{fill:url(#SVGID_57_);}
	.st58{fill:url(#SVGID_58_);}
	.st59{fill:url(#SVGID_59_);}
	.st60{fill:url(#SVGID_60_);}
	.st61{fill:url(#SVGID_61_);}
	.st62{fill:url(#SVGID_62_);}
	.st63{fill:url(#SVGID_63_);}
	.st64{fill:url(#SVGID_64_);}
	.st65{fill:url(#SVGID_65_);}
	.st66{fill:url(#SVGID_66_);}
	.st67{fill:url(#SVGID_67_);}
	.st68{fill:url(#SVGID_68_);}
	.st69{fill:url(#SVGID_69_);}
	.st70{fill:url(#SVGID_70_);}
	.st71{fill:url(#SVGID_71_);}
	.st72{fill:url(#SVGID_72_);}
	.st73{fill:url(#SVGID_73_);}
	.st74{fill:url(#SVGID_74_);}
	.st75{fill:url(#SVGID_75_);}
	.st76{fill:url(#SVGID_76_);}
	.st77{fill:url(#SVGID_77_);}
	.st78{fill:url(#SVGID_78_);}
	.st79{fill:url(#SVGID_79_);}
	.st80{fill:url(#SVGID_80_);}
	.st81{fill:url(#SVGID_81_);}
	.st82{fill:url(#SVGID_82_);}
	.st83{fill:url(#SVGID_83_);}
	.st84{fill:url(#SVGID_84_);}
	.st85{fill:url(#SVGID_85_);}
	.st86{fill:url(#SVGID_86_);}
	.st87{fill:url(#SVGID_87_);}
	.st88{fill:url(#SVGID_88_);}
	.st89{fill:url(#SVGID_89_);}
	.st90{fill:url(#SVGID_90_);}
	.st91{fill:url(#SVGID_91_);}
	.st92{fill:url(#SVGID_92_);}
	.st93{fill:url(#SVGID_93_);}
	.st94{fill:url(#SVGID_94_);}
	.st95{fill:url(#SVGID_95_);}
	.st96{fill:url(#SVGID_96_);}
	.st97{fill:url(#SVGID_97_);}
	.st98{fill:url(#SVGID_98_);}
	.st99{fill:url(#SVGID_99_);}
	.st100{fill:url(#SVGID_100_);}
	.st101{fill:url(#SVGID_101_);}
	.st102{fill:url(#SVGID_102_);}
	.st103{fill:url(#SVGID_103_);}
	.st104{fill:url(#SVGID_104_);}
	.st105{fill:url(#SVGID_105_);}
	.st106{fill:url(#SVGID_106_);}
	.st107{fill:url(#SVGID_107_);}
	.st108{fill:url(#SVGID_108_);}
	.st109{fill:url(#SVGID_109_);}
	.st110{fill:url(#SVGID_110_);}
	.st111{fill:url(#SVGID_111_);}
	.st112{fill:url(#SVGID_112_);}
	.st113{fill:url(#SVGID_113_);}
	.st114{fill:url(#SVGID_114_);}
	.st115{fill:url(#SVGID_115_);}
	.st116{fill:url(#SVGID_116_);}
	.st117{fill:url(#SVGID_117_);}
	.st118{fill:url(#SVGID_118_);}
	.st119{fill:url(#SVGID_119_);}
	.st120{fill:url(#SVGID_120_);}
	.st121{fill:url(#SVGID_121_);}
	.st122{fill:url(#SVGID_122_);}
	.st123{fill:url(#SVGID_123_);}
	.st124{display:none;}
	.st125{fill:url(#SVGID_124_);}
	.st126{fill:url(#SVGID_125_);}
	.st127{fill:url(#SVGID_126_);}
	.st128{fill:url(#SVGID_127_);}
	.st129{fill:url(#SVGID_128_);}
	.st130{fill:url(#SVGID_129_);}
	.st131{fill:url(#SVGID_130_);}
	.st132{fill:url(#SVGID_131_);}
	.st133{fill:url(#SVGID_132_);}
	.st134{fill:url(#SVGID_133_);}
	.st135{fill:url(#SVGID_134_);}
	.st136{fill:url(#SVGID_135_);}
	.st137{fill:url(#SVGID_136_);}
	.st138{fill:url(#SVGID_137_);}
	.st139{fill:url(#SVGID_138_);}
	.st140{fill:url(#SVGID_139_);}
	.st141{fill:url(#SVGID_140_);}
	.st142{fill:url(#SVGID_141_);}
	.st143{fill:url(#SVGID_142_);}
	.st144{fill:url(#SVGID_143_);}
	.st145{fill:url(#SVGID_144_);}
	.st146{fill:url(#SVGID_145_);}
	.st147{fill:url(#SVGID_146_);}
</style>
<g>
	<path class="st0" d="M144.7,141.7L95,131l9.8-12.4c8.6-10.9,6.7-26.7-4.2-35.3c-10.9-8.6-26.7-6.7-35.3,4.2l-44.9,56.9
		c-8.6,10.9-6.7,26.7,4.2,35.3c4.6,3.6,10.1,5.4,15.6,5.4c7.4,0,14.8-3.3,19.8-9.6l0.5-0.7c1,0.3,1.9,0.6,2.9,0.8l70.8,15.2
		c1.8,0.4,3.5,0.6,5.3,0.6c4.8,0,9.5-1.4,13.6-4c5.7-3.7,9.5-9.3,11-15.8c1.4-6.5,0.2-13.3-3.5-18.9S151.3,143.1,144.7,141.7z
		 M69.2,90.5c4-5,9.9-7.7,15.8-7.7c4.4,0,8.8,1.4,12.5,4.3c8.7,6.9,10.2,19.6,3.3,28.3l-20.9,26.5l-31.6-25L69.2,90.5z M55.9,172.3
		c-6.9,8.7-19.6,10.2-28.3,3.3c-8.7-6.9-10.2-19.6-3.3-28.3l20.9-26.5l31.6,25L55.9,172.3z M63.7,170.5l27.8-35.2l14.3,3.1
		l-8.5,39.4l-33-7.1C64.2,170.7,63.9,170.6,63.7,170.5z M159.1,170.5c-1.1,5.2-4.2,9.7-8.8,12.7c-4.5,2.9-9.9,3.9-15.1,2.8l-33-7.1
		l8.5-39.4l33,7.1c5.2,1.1,9.7,4.2,12.7,8.8C159.3,159.9,160.3,165.3,159.1,170.5z"/>
	<path class="st0" d="M175.2,85.1l-38-61.7c-3.5-5.7-9-9.7-15.6-11.2c-6.5-1.6-13.3-0.5-19,3c-5.7,3.5-9.7,9.1-11.2,15.6
		c-1.6,6.6-0.5,13.3,3,19l38,61.7c3.5,5.7,9,9.7,15.6,11.2c2,0.5,3.9,0.7,5.9,0.7c4.6,0,9.1-1.3,13.1-3.7c5.7-3.5,9.7-9,11.2-15.6
		C179.8,97.6,178.7,90.8,175.2,85.1z M96.2,32c1.2-5.3,4.4-9.7,9-12.5c3.2-2,6.8-3,10.5-3c1.6,0,3.2,0.2,4.7,0.6
		c5.3,1.2,9.7,4.4,12.5,9l17.7,28.7l-34.3,21.1L98.7,47.2C95.9,42.6,95,37.2,96.2,32z M173.4,103c-1.2,5.3-4.4,9.7-9,12.5
		c-4.6,2.8-10,3.7-15.2,2.4c-5.3-1.2-9.7-4.4-12.5-9L119,80.2L153.3,59L171,87.8C173.8,92.3,174.6,97.7,173.4,103z"/>
</g>
</svg>
