<svg id="Layer_1" data-name="Layer 1" xmlns="http://www.w3.org/2000/svg" viewBox="0 0 200 200" style="color:#fff;"><defs><style>.cls-1{color:#fff;fill:none;stroke:#fff;stroke-linecap:round;stroke-miterlimit:10;stroke-width:5px;} .cls-2{color:#fff;fill:none;stroke:#fff;}</style></defs><title>icon-04</title><g id="Virus"><path class="cls-2" d="M116.27,7.42a1.19,1.19,0,0,1,.79.29c.06,0,.18.18.18.63l-.08,15.49a10.84,10.84,0,0,0,3.13,7.73,11.12,11.12,0,0,0,7.83,3.24,10.81,10.81,0,0,0,8.33-3.95l9.9-11.92c.31-.36.5-.36.61-.36a1.25,1.25,0,0,1,.92.49c.07.11.19.28,0,.76l-5.38,14.54a10.72,10.72,0,0,0,1.24,10,10.83,10.83,0,0,0,14.49,3.22l13.38-7.81a.82.82,0,0,1,1.32.48c.13.28.14.5-.18.88l-10,11.82a10.91,10.91,0,0,0,8.25,18,11.38,11.38,0,0,0,2-.18l15.25-2.77.29,0c.51,0,.7.5.76.72a.75.75,0,0,1-.44,1l-13.46,7.68A10.91,10.91,0,0,0,179,97.5l15.28,2.61a.9.9,0,0,1,0,1.78L179,104.5a10.91,10.91,0,0,0-3.56,20.22l13.46,7.68a.75.75,0,0,1,.44,1c-.06.21-.25.72-.76.72l-.29,0L173,131.3a11.38,11.38,0,0,0-2-.18,10.91,10.91,0,0,0-8.25,18l10,11.82c.32.38.31.6.18.88a.82.82,0,0,1-1.32.48l-13.38-7.81a10.83,10.83,0,0,0-14.49,3.22,10.72,10.72,0,0,0-1.24,10l5.38,14.54c.17.48,0,.65,0,.76a1.25,1.25,0,0,1-.92.49c-.11,0-.3,0-.61-.36l-9.9-11.92a10.81,10.81,0,0,0-8.33-4,11.12,11.12,0,0,0-7.83,3.24,10.84,10.84,0,0,0-3.13,7.73l.08,15.49c0,.45-.12.58-.18.63a1.19,1.19,0,0,1-.79.29c-.47,0-.64-.22-.78-.61l-5.23-14.59a10.9,10.9,0,0,0-20.52,0L84.51,194c-.14.39-.31.61-.78.61a1.19,1.19,0,0,1-.79-.29c-.06,0-.18-.18-.18-.63l.08-15.49a10.84,10.84,0,0,0-3.13-7.73,11.12,11.12,0,0,0-7.83-3.24,10.78,10.78,0,0,0-8.33,4l-9.9,11.92c-.31.36-.5.36-.61.36a1.25,1.25,0,0,1-.92-.49c-.07-.11-.19-.28,0-.76l5.38-14.54a10.72,10.72,0,0,0-1.24-10,10.83,10.83,0,0,0-14.49-3.22l-13.38,7.81a1.08,1.08,0,0,1-.5.18,1.08,1.08,0,0,1-.82-.66c-.13-.28-.14-.5.18-.88l10-11.82a10.91,10.91,0,0,0-8.25-18,11.38,11.38,0,0,0-2,.18l-15.25,2.77-.29,0c-.51,0-.7-.5-.76-.72a.75.75,0,0,1,.44-1l13.46-7.68A10.91,10.91,0,0,0,21,104.5L5.75,101.89a.9.9,0,0,1,0-1.78L21,97.5a10.91,10.91,0,0,0,3.56-20.22L11.13,69.6a.75.75,0,0,1-.44-1c.06-.21.25-.72.76-.72l.29,0L27,70.7a11.38,11.38,0,0,0,2,.18,10.91,10.91,0,0,0,8.25-18l-10-11.82c-.32-.38-.31-.6-.18-.88a1.08,1.08,0,0,1,.82-.66,1.08,1.08,0,0,1,.5.18l13.38,7.81a10.83,10.83,0,0,0,14.49-3.22,10.72,10.72,0,0,0,1.24-10L52.1,19.82c-.17-.48-.05-.65,0-.76a1.25,1.25,0,0,1,.92-.49c.11,0,.3,0,.61.36l9.9,11.93a10.83,10.83,0,0,0,8.33,3.94,11.12,11.12,0,0,0,7.83-3.24,10.84,10.84,0,0,0,3.13-7.73L82.76,8.34c0-.45.12-.58.18-.63a1.19,1.19,0,0,1,.79-.29c.47,0,.64.22.78.61l5.23,14.59a10.9,10.9,0,0,0,20.52,0L115.49,8c.14-.39.31-.61.78-.61m0-5a5.7,5.7,0,0,0-5.49,3.92l-5.22,14.59a5.91,5.91,0,0,1-11.12,0L89.22,6.34a5.7,5.7,0,0,0-5.49-3.92,5.81,5.81,0,0,0-6,5.94l.08,15.5a5.89,5.89,0,0,1-6,5.94,5.76,5.76,0,0,1-4.49-2.14l-9.9-11.92A5.69,5.69,0,0,0,53,13.57a5.92,5.92,0,0,0-5.63,8l5.38,14.53a5.88,5.88,0,0,1-8.51,7.15L30.89,35.42a5.87,5.87,0,0,0-3-.86c-4.53,0-8,5.61-4.45,9.77l10,11.82A5.91,5.91,0,0,1,29,65.88a6.21,6.21,0,0,1-1.12-.1L12.63,63a6.91,6.91,0,0,0-1.18-.11c-5.71,0-8.2,8-2.8,11l13.46,7.68a5.91,5.91,0,0,1-1.93,10.95L4.91,95.18c-6.55,1.12-6.55,10.52,0,11.64l15.27,2.61a5.91,5.91,0,0,1,1.93,10.95L8.65,128.06c-5.41,3.08-2.91,11,2.8,11a6.91,6.91,0,0,0,1.18-.11l15.25-2.77a6.21,6.21,0,0,1,1.12-.1,5.91,5.91,0,0,1,4.44,9.73l-10,11.82c-3.54,4.16-.08,9.77,4.45,9.77a5.87,5.87,0,0,0,3-.86l13.39-7.82a5.88,5.88,0,0,1,8.51,7.15l-5.38,14.53a5.92,5.92,0,0,0,5.63,8,5.69,5.69,0,0,0,4.45-2.17l9.9-11.92a5.76,5.76,0,0,1,4.49-2.14,5.89,5.89,0,0,1,6,5.94l-.08,15.5a5.81,5.81,0,0,0,6,5.94,5.7,5.7,0,0,0,5.49-3.92l5.22-14.59a5.91,5.91,0,0,1,11.12,0l5.22,14.59a5.7,5.7,0,0,0,5.49,3.92,5.81,5.81,0,0,0,6-5.94l-.08-15.5a5.89,5.89,0,0,1,6-5.94,5.76,5.76,0,0,1,4.49,2.14l9.9,11.92a5.69,5.69,0,0,0,4.45,2.17,5.92,5.92,0,0,0,5.63-8l-5.38-14.53a5.88,5.88,0,0,1,8.51-7.15l13.39,7.82a5.87,5.87,0,0,0,3,.86c4.53,0,8-5.61,4.45-9.77l-10-11.82a5.91,5.91,0,0,1,4.44-9.73,6.21,6.21,0,0,1,1.12.1L187.37,139a6.91,6.91,0,0,0,1.18.11c5.71,0,8.2-8,2.8-11l-13.46-7.68a5.91,5.91,0,0,1,1.93-10.95l15.27-2.61c6.55-1.12,6.55-10.52,0-11.64l-15.27-2.61a5.91,5.91,0,0,1-1.93-10.95l13.46-7.68c5.41-3.08,2.91-11-2.8-11a6.91,6.91,0,0,0-1.18.11l-15.25,2.77a6.21,6.21,0,0,1-1.12.1,5.91,5.91,0,0,1-4.44-9.73l10-11.82c3.54-4.16.08-9.77-4.45-9.77a5.87,5.87,0,0,0-3,.86l-13.39,7.82a5.88,5.88,0,0,1-8.51-7.15l5.38-14.53a5.92,5.92,0,0,0-5.63-8,5.69,5.69,0,0,0-4.45,2.17l-9.9,11.92a5.76,5.76,0,0,1-4.49,2.14,5.89,5.89,0,0,1-6-5.94l.08-15.5a5.81,5.81,0,0,0-6-5.94Z"/><path class="cls-1" d="M45.8,108c-7.07-15.6-6.37-20.77-4.29-22.54,2.49-2.12,6.87.73,17.17,3.22,1.91.46,24.27,5.86,26.83,1.07,3.14-5.87-26.75-20.81-23.61-33.27,1.83-7.26,14.63-12.78,25.76-9.66a23.88,23.88,0,0,1,17.17,22.54"/><path class="cls-1" d="M57.61,140.17a29.27,29.27,0,0,0,9.66-7.51,29.6,29.6,0,0,0,6.44-14"/><path class="cls-1" d="M70.49,148.76a26.59,26.59,0,0,0,15-10.73,26.18,26.18,0,0,0,4.29-15"/><path class="cls-1" d="M116.64,93a41.55,41.55,0,0,0-12.88,27.9"/><path class="cls-1" d="M115.56,150.91c4.12-1.89,17.34-8.59,23.61-23.62a42.37,42.37,0,0,0,3.22-15"/><path class="cls-1" d="M131.66,55.39c1.55,3.38,6.94,16.21,2.15,31.12a42,42,0,0,1-10.74,17.17"/></g></svg>