<svg id="Layer_1" data-name="Layer 1" xmlns="http://www.w3.org/2000/svg" xmlns:xlink="http://www.w3.org/1999/xlink" viewBox="0 0 200 200"><defs><style>.cls-1,.cls-4{fill:none;}.cls-2{clip-path:url(#clip-path);}.cls-3{clip-path:url(#clip-path-2);}.cls-4{stroke:#000;stroke-linecap:round;stroke-miterlimit:10;stroke-width:5px;}</style><clipPath id="clip-path"><rect class="cls-1" x="47.05" y="95.62" width="218.15" height="81.71" transform="translate(-50.26 156.61) rotate(-46.73)"/></clipPath><clipPath id="clip-path-2"><rect class="cls-1" x="-34.03" y="-10.36" width="218.15" height="141.01" transform="translate(-20.19 73.56) rotate(-46.73)"/></clipPath></defs><title>icon-08</title><g id="Gastrointestinal_tract_2" data-name="Gastrointestinal tract 2"><g class="cls-2"><path d="M51.66,4.88h0c3.36,0,6.67,1.43,10.11,4.37A5,5,0,0,0,65,10.45a5.52,5.52,0,0,0,1-.1,14.31,14.31,0,0,1,2.81-.26,13.15,13.15,0,0,1,5.89,1.3A10.76,10.76,0,0,1,78.84,16a5,5,0,0,0,4.51,2.85,4.53,4.53,0,0,0,.52,0,15.46,15.46,0,0,1,1.73-.1,9,9,0,0,1,4.53,1.07A7.38,7.38,0,0,1,93.05,23a5,5,0,0,0,4.41,2.66,5.19,5.19,0,0,0,1.5-.22,9.4,9.4,0,0,1,2.81-.45,6.68,6.68,0,0,1,2.09.31l.08,0a5.22,5.22,0,0,1,1.84.95,5,5,0,0,0,3.29,1.24A5,5,0,0,0,112.61,26a7.32,7.32,0,0,1,2.44-1.63,4.72,4.72,0,0,1,1.64-.29,6.21,6.21,0,0,1,1.79.28,5.28,5.28,0,0,0,1.41.2,5,5,0,0,0,4.66-3.19,10.49,10.49,0,0,1,3.84-4.86,9.63,9.63,0,0,1,5.18-1.37,16.49,16.49,0,0,1,4.07.56,5.26,5.26,0,0,0,1.24.15,5,5,0,0,0,4-2.06c1.61-2.2,5.07-6.12,10.21-7.61a14.51,14.51,0,0,1,3.67-.48,16.71,16.71,0,0,1,7.94,2.17,5,5,0,0,0,1.5.52c1.69.3,6.82,1.2,9.65,4.69l0,.05c1.74,2.09,2.44,4.79,2.16,8.26a5,5,0,0,0,1,3.48c1.29,1.66,4.24,6.05,3.85,11-.28,3.16-1.93,5.84-5,8.19a5,5,0,0,0-1.53,6.07,14.2,14.2,0,0,1-1.26,14.3,5,5,0,0,0,.15,5.95c1.12,1.44,3.32,5.43-.43,11.42a5,5,0,0,0-.08,5.17,14,14,0,0,1,.16,13.75,5,5,0,0,0,.39,5.29c2.48,3.37,7.39,12.26-.38,21.86a5,5,0,0,0-1.11,3.26c0,1.11-.15,11-13.9,15.29a5,5,0,0,0-2.71,2.06A15.16,15.16,0,0,1,149,155a12.11,12.11,0,0,1-3.2.42,20.63,20.63,0,0,1-10.33-3.32,4.89,4.89,0,0,0-2.55-.71,5,5,0,0,0-3,1A11.89,11.89,0,0,1,123,154.7a11.51,11.51,0,0,1-5-1.17,5,5,0,0,0-4.78.29,5,5,0,0,0-2.35,4.17c-.21,16.64-3.24,29.56-8.12,34.61A7,7,0,0,1,97.6,195a6.51,6.51,0,0,1-4.79-2.24c-5.86-6.4-7.11-25.94-5.8-41.4a5,5,0,0,0-.32-2.26C85,144.82,82,133.83,90.38,124.32c3.83-4.28,8.1-6.46,12.71-6.46a14.42,14.42,0,0,1,5.77,1.22,5,5,0,0,0,5.13-.61c2.09-1.62,5.31-3.56,8.8-3.56a10,10,0,0,1,5.58,1.7,5,5,0,0,0,2.73.81,4.76,4.76,0,0,0,1.12-.13,5,5,0,0,0,3.07-2.14,4.64,4.64,0,0,1,.42-.36l.79-.41a5,5,0,0,0,2.71-5.18,7.15,7.15,0,0,1,.29-3.62.61.61,0,0,0,.07-.14,4,4,0,0,1,1-1.53,5,5,0,0,0,.93-6.43c-3.5-5.54-1.07-9.35-.27-10.6a5,5,0,0,0,.16-5.12c-1.6-2.87-2.21-5.45-1.83-7.65,0,0,0-.06,0-.09a6.86,6.86,0,0,1,2-3.84,5,5,0,0,0,.7-6.18l-.21-.34a12.78,12.78,0,0,1-1.31-2.41,5,5,0,0,0-3-3,5.12,5.12,0,0,0-1.72-.31,5.06,5.06,0,0,0-2.48.66,7,7,0,0,1-3.55.94,10.78,10.78,0,0,1-3.25-.56,4.75,4.75,0,0,0-1.53-.24,5,5,0,0,0-4.24,2.35,7.75,7.75,0,0,1-4.19,3.36l-.07,0a6.66,6.66,0,0,1-1.82.25A11.11,11.11,0,0,1,109,62.6a5,5,0,0,0-5.07-.24,16.08,16.08,0,0,1-7.42,2.06,11.13,11.13,0,0,1-1.44-.09A11.35,11.35,0,0,1,88,60.12a5,5,0,0,0-3.82-1.77,5.28,5.28,0,0,0-1.41.2,15.56,15.56,0,0,1-4.32.62,14.78,14.78,0,0,1-8.56-2.69,5,5,0,0,0-2.86-.9,5.07,5.07,0,0,0-2.18.5A5,5,0,0,0,62,60.29a10.84,10.84,0,0,1-1.34,4.57,5,5,0,0,0,.55,5.69c1.31,1.53,3.9,6-.16,14.36a5,5,0,0,0-.29,3.63c.72,2.38,4,14.66-1.67,22.7-3.47,4.9-9.73,7.39-18.61,7.39-8.63,0-14.55-2.39-18.1-7.29-5.83-8.1-2.82-20.87-1.76-24.59a5,5,0,0,0-.4-3.75c-1.16-2.13-4.58-9.58-.18-15.85A5,5,0,0,0,20.42,62c-1.36-2.73-4-9.72,1.4-15.84a5,5,0,0,0,1-5,12.64,12.64,0,0,1-.2-8.26,9.06,9.06,0,0,1,4.32-4.68A5,5,0,0,0,29.44,23c-.31-1.71-.59-5,1-7.66l0,0c1.3-2.29,3.83-3.73,7.73-4.41a5.06,5.06,0,0,0,2.55-1.27C42.53,7.94,46.26,5.09,51,4.9H51l.63,0M135.39,115h0M51.66-.12c-.3,0-.59,0-.89,0C44.18.17,39.3,4.13,37.32,6c-5.28.93-9.1,3.17-11.21,6.86a16.38,16.38,0,0,0-1.59,11.08,14,14,0,0,0-6.59,7.26,17.55,17.55,0,0,0,.13,11.74C11.6,50.29,13.31,59,16,64.27c-5.28,7.52-2.77,16.23-.13,21.11-1.32,4.61-4.62,19,2.5,28.88,4.49,6.2,11.87,9.37,22.16,9.37,10.55,0,18.21-3.17,22.69-9.5,6.73-9.49,3.69-22.68,2.37-27,4.62-9.49,2.51-16.22-.52-19.78a15.89,15.89,0,0,0,2-6.73,19.83,19.83,0,0,0,11.42,3.59,20.41,20.41,0,0,0,5.73-.82,16.37,16.37,0,0,0,10.29,5.94,17.1,17.1,0,0,0,2.12.13,21.19,21.19,0,0,0,9.75-2.64,15.84,15.84,0,0,0,8.68,3,11.86,11.86,0,0,0,3.19-.44,12.55,12.55,0,0,0,7.13-5.54,15.42,15.42,0,0,0,4.78.8,11.89,11.89,0,0,0,6-1.6,19.36,19.36,0,0,0,2,3.7,11.86,11.86,0,0,0-3.43,6.59c-.79,4.49,1.06,8.58,2.37,11-3.95,6.2-2.24,12,.27,16a8.88,8.88,0,0,0-2.38,3.43,12,12,0,0,0-.66,6.33c-.52.27-1,.53-1.45.79a7,7,0,0,0-1.71,1.72,14.91,14.91,0,0,0-8.31-2.51c-5.14,0-9.5,2.77-11.87,4.62a19.12,19.12,0,0,0-7.83-1.67c-5,0-10.94,2-16.44,8.13-10.82,12.27-6.07,26.25-4.62,29.94-.53,6.2-2.24,35.09,7.12,45.24A11.47,11.47,0,0,0,97.6,200a11.93,11.93,0,0,0,8.83-4c7.92-8.17,9.37-27.7,9.5-38a16.27,16.27,0,0,0,17-1.72,25.41,25.41,0,0,0,12.88,4,17.12,17.12,0,0,0,4.53-.6,20.2,20.2,0,0,0,11.08-8.57c14-4.36,17.54-14.38,17.41-20.18,9-11.08,4.88-22,.52-28a19,19,0,0,0-.26-18.6c4.62-7.38,2.9-13.58.13-17.14A19.18,19.18,0,0,0,181,48.05c4.35-3.3,6.59-7.25,7-11.74.53-6.59-3-12.13-4.88-14.51.39-4.75-.66-8.7-3.3-11.87-4-4.88-10.42-6.07-12.66-6.46A21.58,21.58,0,0,0,156.8.7a19.33,19.33,0,0,0-5,.66C145.34,3.2,141,8,138.88,10.85a21.77,21.77,0,0,0-5.31-.71,14.53,14.53,0,0,0-7.88,2.16,15.42,15.42,0,0,0-5.8,7.26,11.14,11.14,0,0,0-3.2-.48,9.72,9.72,0,0,0-3.4.61,12.54,12.54,0,0,0-4.22,2.77,10.09,10.09,0,0,0-3.69-2,11.8,11.8,0,0,0-3.61-.54,14.71,14.71,0,0,0-4.31.67,12.24,12.24,0,0,0-4.88-5.14,14.07,14.07,0,0,0-7-1.71,19.5,19.5,0,0,0-2.25.13A15.65,15.65,0,0,0,77.15,7a17.88,17.88,0,0,0-8.34-1.94A19.4,19.4,0,0,0,65,5.45C60.8,1.85,56.34-.12,51.66-.12Z"/></g><circle cx="162" cy="129" r="5"/><circle cx="106" cy="144" r="5"/><circle cx="124" cy="122" r="3"/><circle cx="105" cy="160" r="3"/><circle cx="170" cy="78" r="3"/><circle cx="148" cy="113" r="3"/><circle cx="147" cy="145" r="3"/><circle cx="122" cy="148" r="3"/><circle cx="157" cy="87" r="3"/><circle cx="133" cy="132" r="3"/><circle cx="165" cy="107" r="3"/><g class="cls-3"><path d="M51.66-.12c-.3,0-.59,0-.89,0C44.18.17,39.3,4.13,37.32,6h-.13a21.73,21.73,0,0,0-3.78,1l1.72,4.69a17.36,17.36,0,0,1,3-.79,5.06,5.06,0,0,0,2.55-1.27C42.53,7.94,46.26,5.09,51,4.9H51l.63,0v-5ZM29.33,22.29l-5,.65c0,.17.05.34.07.5h0v.05h0v0h0v0h0v0h0v0h0v0h0v0h0v0h0v0h0a14,14,0,0,0-6.59,7.26h0v0h0v0h0v0h0l0,0h0v0h0l0,0h0v0h0v0h0v0h0v0h0v0h0v0h0v0h0l0,.06h0l0,.05h0A14.89,14.89,0,0,0,17,35.2h0v0h0v.06h0v0h0v.06h0v0h0v0h0v0h0v0h0v0h0v0h0v0h0v0h0v0h0v0h0v0h0v0h0v0h0v0h0v0h0v0h0v0h0v0h0v0h0v0h0v0h0v0h0v0h0v0h0v0h0v0h0v0h0v.09h0v0h0v0h0v.09h0c0,.43,0,.86.08,1.27h0v0h0v0h0v0h0v0h0v0h0v0h0v0h0v0h0v0h0v0h0v0h0v0h0v0h0v0h0v.08h0c0,.34.1.67.16,1l4.91-.92A11.52,11.52,0,0,1,22.58,33a9.06,9.06,0,0,1,4.32-4.68A5,5,0,0,0,29.44,23c0-.23-.08-.48-.11-.73ZM18.93,57.76l-4.9,1q.18.8.39,1.56h0v0h0v0h0v0h0v0h0v0h0v0h0v0h0v0h0v0h0v0h0v0h0v0h0v0h0v0h0v0h0v0h0v0h0v0h0v0h0v0h0v0h0v0h0v0h0v0h0v0h0v0h0v0h0v0h0v0h0v0h0v0h0v0h0v0h0v0h0v0h0v0h0v0h0v0h0v0h0v0h0v0h0v0h0v0h0v0h0v0h0v0h0v0h0v0h0v0h0v0h0v0h0v0h0v0h0v0h.1v0h0v0h0v0h0v0h.28v0h.13v0h0v0h.08v0h0v0h.05v0h0v0h0v0h0v0h0v0h0v0h0v0h0v0h-.08l0,0h0v0h0v0h0l0,0h0v0h0l0,0h0l0,0h0v0h0l0,0h0l0,0h0l0,.07h0a16.62,16.62,0,0,0-2.17,5h0l0,.06h0v0h0l0,.07h0v0h0v0h0v0h0v0h0v0h0v0h0v0h0v0h0v0h0v0h0v.05h0V71h0a19.21,19.21,0,0,0,0,6.81l4.92-.85A12.71,12.71,0,0,1,20,67.15,5,5,0,0,0,20.42,62a18,18,0,0,1-1.49-4.28Zm-5,39.37c-.19,5.38.62,11.51,4,16.57H18v0h0v0h0l.09.14h0v0h0v0h.14l0,0h0v0h0l0,0h0l0,.05h0l.63.81h0l0,.05h0l0,0h0v0h0l0,0h0l0,0h0l0,0h0l0,0h0l.18.21,3.75-3.3c-.32-.37-.64-.77-.93-1.17-2.5-3.47-3.67-8.2-3.46-14l-5-.18Zm40.39,18.45c-3.47,2-8.12,3-13.83,3-.93,0-1.84,0-2.71-.09l-.33,5H47.61l.07,0h1.48l.07,0h.45l.06,0h.06l.07,0h.06l.06,0h.44l.06,0h.07l.06,0h.18l.06,0h3l.06,0H54l.05,0h0l.08,0h0l.08,0h0l.08,0h0l.08,0h0l.08,0h0l.08,0h0l.19-.09h0a19.26,19.26,0,0,0,1.92-1l-2.51-4.33Zm7.82-33.22a26.94,26.94,0,0,1-1.08,2.55,5,5,0,0,0-.29,3.63A36.9,36.9,0,0,1,62.15,103l4.95.65a31.07,31.07,0,0,0,.28-4h0V99.5h0v0h0v0h0v0h0v0h0v0h0v0h0v0h0v0h0v0h0v0h0v0h0v0h0v0h0v0h0v0h0v0h0v0h0v0h0v0h0v-.06h0v-.06h0a44,44,0,0,0-1.27-9.4h0l0-.15h0v0h0v-.05h0l0-.07h0a2.5,2.5,0,0,0-.07-.26h0l0-.12h0v0h0v0h0v0h0v0h0v0h0v0h0v0h0v0h0v0h0v0h0v0h0v0h0v0h0v0h0v0h0v0h0v0h0v0h0v0h0v0h0l0,0h0v0h0v0h0l0-.07h0v0h0a29.59,29.59,0,0,0,1.16-2.75h0v0h0v0h0v0h0v0h0l-4.7-1.7ZM67,55.58a5.07,5.07,0,0,0-2.18.5A5,5,0,0,0,62,60.29a10.46,10.46,0,0,1-.68,3.13L66,65.19h0v0h0v0h0l0,0h0l0-.05h0A15.72,15.72,0,0,0,67,60.8h0v0h0v0h0v0a19.83,19.83,0,0,0,11.42,3.59h.85c.51,0,1-.06,1.49-.12h.37l.39-.06L80.76,59a15.5,15.5,0,0,1-2.35.18,14.78,14.78,0,0,1-8.56-2.69,5,5,0,0,0-2.86-.9Zm39.31,6.2a4.93,4.93,0,0,0-2.33.58,17.56,17.56,0,0,1-5.26,1.87l.85,4.93H103l0,0h0l0,0h0l0,0h0l0,0h0l0,0h0l0,0h0l.11,0h0l0,0h0a27.19,27.19,0,0,0,2.68-1.2h0l0,0h0l0,0h0l0,0h0l0,0h0a15.84,15.84,0,0,0,8.68,3,11.86,11.86,0,0,0,3.19-.44h.28L117,64.42l-.15,0-.07,0a6.66,6.66,0,0,1-1.82.25A11.11,11.11,0,0,1,109,62.6a4.91,4.91,0,0,0-2.74-.82ZM136.11,58a5.06,5.06,0,0,0-2.48.66l-.07,0L136,63l.12-.07h0v0h0l0,.05h0v0h0l0,.09h0v0h0a14.37,14.37,0,0,0,1,2h0l0,.06h.05l0,.07h0l.57.91h0l0,0h0l0,.07h0v0h0v0h0a11.86,11.86,0,0,0-3.43,6.59h0v0h0v0h0v0h0v0h0v0h0v0h0v0h0v0h0v0h0v0h0v0h0v0h0v0h0v0h0v0h0v0h0v0h0v0h0v0h0v0h0v0h0v0h0v0h0v0h0v0h0v0h0v0h0v0h0v0h0c0,.08,0,.15,0,.22h0v0h0s0,.07,0,.11h0v.1h0v0h0a15.14,15.14,0,0,0,0,1.79h0v0h0v0h0v.05h0v.08h0v0h0v0h0v0h0v0h0v0h0v0h0v0h0v0h0v0h0v0h0v0h0v0h0v0h0v0h0v0h0v0h0v0h0v0h0v0h0v0h0v0h0v0h0v0h0v0h0v0h0v0h0v0h0l0,.14h0a18.34,18.34,0,0,0,.82,2.71l4.66-1.79a10.07,10.07,0,0,1-.7-5.29s0-.06,0-.09a6.86,6.86,0,0,1,2-3.84,5,5,0,0,0,.7-6.18l-.21-.34a12.78,12.78,0,0,1-1.31-2.41,5,5,0,0,0-3-3,5.12,5.12,0,0,0-1.72-.31Zm5.31,39.36-4.26,2.62h0l.13.2h0a8.88,8.88,0,0,0-2.38,3.43,10.69,10.69,0,0,0-.81,4.25,15.07,15.07,0,0,0,.15,2.08h0l0,0h-.46l0,0h0l0,0h-.07l0,0h0l-.08,0h-.13l0,0h-.2l0,0h0l-.23.14.26.39-.3-.37c-.22.18-.45.36-.66.55h0l0,0H132l0,0h0a5.71,5.71,0,0,0-.55.55h0a4.25,4.25,0,0,0-.31.43H131l-.05,0h-.07a15.26,15.26,0,0,0-4.29-1.87l-1.26,4.84a10,10,0,0,1,3.07,1.38,5,5,0,0,0,2.73.81,4.76,4.76,0,0,0,1.12-.13,5,5,0,0,0,3.07-2.14,4.64,4.64,0,0,1,.42-.36l.79-.41a5,5,0,0,0,2.71-5.18,7.15,7.15,0,0,1,.29-3.62.61.61,0,0,0,.07-.14,4,4,0,0,1,1-1.53,5,5,0,0,0,.93-6.43l-.1-.17Zm-38.33,15.55h0a20.05,20.05,0,0,0-11.53,3.77h0l0,0H91.3l0,0h0l0,0h0c-.61.44-1.22.93-1.83,1.46l3.28,3.77a15.75,15.75,0,0,1,10.49-4.26,14.22,14.22,0,0,1,3.55.45l1.24-4.84a19.62,19.62,0,0,0-4.55-.61h-.24ZM80,135.52h0v0h0v0h0v0h0v0h0v.06h0v0h0v0h0v.06h0v0h0a30.77,30.77,0,0,0,.67,10.39h0l0,.12h0l0,.09h0v0h0v0h0v0h0v0h0v0h0v0h0v0h0a33.4,33.4,0,0,0,1.26,4h0v0h0c-.08.94-.19,2.41-.28,4.25l5,.25c.1-2,.22-3.41.27-4.1a5,5,0,0,0-.32-2.26,27.06,27.06,0,0,1-1.77-12.95l-5-.63Zm7.17,39.15-5,.52c.75,7.2,2.34,14.34,5.48,19.05l4.16-2.78c-2.26-3.39-3.88-9.19-4.67-16.79Zm21.69,4c-1.41,6.48-3.48,11.27-6,13.89a8.31,8.31,0,0,1-.94.86l3.12,3.91a14.47,14.47,0,0,0,1.37-1.25h0l0,0h0v0h.34l0,0h.1l0,0H107l0,0h.08l0,0h.09l0,0h0v0h0v0h0l0,0h0v0h.08l0,0h0v0h.06l0,0h0v0h0l.06-.06h0v0h0l0-.07h0v0h0v0h0l0,0h0v0h0l.05-.07h0v0h0v0h0l.07-.1h0v0h0l.08-.12h0l0,0h0a.76.76,0,0,0,.08-.11h0l.12-.18h0l.08-.12h0l0,0h0l.1-.15h0c.16-.24.31-.48.46-.74h0v0h0c.44-.74.85-1.52,1.24-2.34h0l.08-.18h0l0,0h0l.06-.14h0l.1-.21h0l.06-.14h0l.06-.13h0v0h0l.08-.18h0v0h0l.09-.2h0l0-.11h0v0h0v0h0v0h0v0h0l0-.09h0v0h0v0h0v0h0v0h0l0-.07h0v0h0v0h0v0h0v0h0l0,0h0v0h0v0h0v0h0l0-.06h0v0h0v0h0v0h0l0-.07h0v0h0v0h0v0h0l0-.08h0v0h0v0h0v0h0l0-.05h0v0h0v0h0v0h0v0h0l0-.07h0v0h0v0h0v0h0v0h0l0,0h0v0h0v0h0v0h0l0,0h0v0h0v0h0l0-.06h0v0h0v0h0v0h0v0h0v0h0v0h0v0h0v0h0v0h0v0h0v0H112v0h0v0h0v0h0v0h.11v0h0v0h.06v0h0v0h0l0-.06h0v0h0v0h0v0h0v0h0v0h0v0h0v0h0v0h0v0h0v0h0v0h0v0h0v0h0v0h0l0-.06h.1v0h0v0h0v0h0l0,0h0v0h0v0h0l0,0h0l0-.08h0v0h0v0h0v0h0v0h0v0h0v0h0v0h0l0-.12h0v0h0v0h0v0h0v0h0l0-.12h0v0h0v0h0l0-.12h0v0h0v0h0q.33-1.31.63-2.64l-4.89-1.06ZM133,151.34a5,5,0,0,0-3,1A11.89,11.89,0,0,1,123,154.7a11.51,11.51,0,0,1-5-1.17,5,5,0,0,0-4.78.29,5,5,0,0,0-2.35,4.17q0,.85,0,1.8l5,.13c0-.27,0-.54,0-.8h0c0-.36,0-.71,0-1.05h0a16.27,16.27,0,0,0,17-1.72h0l.12.07,2.54-4.3-.11-.06a4.89,4.89,0,0,0-2.55-.71Zm32.83-7.48a26.13,26.13,0,0,1-5.83,2.56,5,5,0,0,0-2.71,2.06,15.72,15.72,0,0,1-7,6l1.88,4.63.54-.23h0l.09,0h.06l.06,0h.49l.05,0h.07l.08,0h0a20.8,20.8,0,0,0,6.78-5.83h0l0-.06h0l0,0h.06v0h0l0,0h0l0,0h0v0h0l0,0h0l0,0h0v0h0v0h0l0,0h0l0,0H161l0-.05h0l0-.06h.06l0,0h0l0,0h0l0-.05h0l0,0h0v0h0l0,0h0l0,0h1.43l0,0h0l0,0h.21l.06,0h0l.06,0h0l.06,0h0l0,0h0l.06,0h0l.06,0h0l.05,0h0l0,0h0l.06,0h0l0,0h0l0,0h0l.06,0h0l.05,0h0l.06,0H164l0,0h0l.09,0h0l.06,0h0l.05,0h0l.16-.07h0l.15-.06h0l.05,0h0l0,0h0a28.84,28.84,0,0,0,3.73-1.88l-2.58-4.29Zm18.09-30.51-4.92.87c.84,4.75-.5,9.35-4,13.65a5,5,0,0,0-1.11,3.26c0,.21,0,.44,0,.67l5,.24h0v0h0v0h0c0-.29,0-.57,0-.84h0v0H179v0h0v0h.2v0h0v0h0v0h.21v0h.21v0h.09l0,0h.07l0,0h0v0H180l0-.07h.06v0h0l0,0h.06v0h0l0-.06h0v0h0l0-.06h0v0h0v0h0l0-.05h.06v0h0l0-.06h0v0h0v0h0l.06-.09h0v0h0l.06-.08h0v0h0v0h0l.16-.26h0a20.64,20.64,0,0,0,3-14.78ZM177,75.63a12.4,12.4,0,0,1-2.1,6.17,5,5,0,0,0-.08,5.17,14.14,14.14,0,0,1,1.88,7.59l5,.21a19,19,0,0,0-.07-2.63h0v-.07h0v0h0V92h0v0h0v0h0v0h0v0h0v0h0v0h0v0h0v0h0v0h0v0h0v0h0v0h0v0h0v0h0v0h0v0h0v0h0v0h0v0h0v0h0v0h0v0h0v0h0v0h0v0h0v0h0v0h0v0h0v0h0v0h0v0h0v0h0v0h0v0h0v0h0v0h0v0h0v0h0v0h0v0h0v-.07h0v0h0v0h0v0h0c0-.08,0-.17-.05-.26h0a19.3,19.3,0,0,0-2-5.4h0l0-.08h0l0,0h0v0h-.06v0h0v0h0v0h0v0h0v0h0v0h0v0h0v0h0v0h0v0h0v0h0l0,0h0v0h0v0h0v0h0l0,0h0v0h0v0h0l0,0h0v0h0v0h0l0-.06h0v0h0v0h0l0-.06h0v0h0v0h0l.05-.09h0v0h0v0h0l0-.06h0v0h0v0h0l.05-.08h0v0h0v0h0l0-.08h0v0h0l0-.09h0v0h0v0h0l0-.08h0v0h0l0-.08h0v0h0v0h0l0-.07h0v0h0v0h0l0-.08h0v0h0v0h0l0-.09h0v0h0v0h0l0-.06h0v0h0v0h0v0h0l0-.06h0v0h0v0h0l0-.08h0v0h0l0-.06h0v0h0v0h0v0h0l0-.06h0v0h0v0h0v0h0l0-.07h0v0h0l0,0h0v0h0v0h0v0h0l0-.06h0l0,0h0v0h0v0h0l0,0h0v0h0v0h0v0h0v0h0v0h.08v0h0v0h0v0h0v0h0v0h0v0h0v0h0v-.05h0v0h0v0h0l0,0h0v0h0v0h0l0,0h0v0h0v0h0l0-.06h0v0h0v0h0l0-.07h0v0h0l0-.08h0v0h0l0-.1h0a15.46,15.46,0,0,0,.58-3.15h0v-.09h0v0h0v-.07h0v0h0v-.05h0v0h0v0h0v0h0l-5-.16Zm5.54-37.5a12.19,12.19,0,0,1-4.57,5.93,5,5,0,0,0-1.53,6.07,15.15,15.15,0,0,1,1.35,6.8l5,.21c0-.33,0-.66,0-1h0v-.24h0v0h0v0h0v0h0v0h0v0h0v0h0v0h0v0h0v0h0v0h0v0h0v0h0v0h0v0h0c0-.06,0-.11,0-.17h0v0h0v0h0v0h0v0h0v0h0v0h0v0h0v0h0v0h0a1.64,1.64,0,0,0,0-.22h0v0h0v0h0v0h0v0h0v0h0v0h0v0h0v0h0a2.51,2.51,0,0,0,0-.27h0v0h0v0h0v0h0v0h0v0h0v0h0v0h0v0h0v0h0l0-.21h0v0h0v0h0v0h0v0h0v0h0v0h0v0h0v0h0l0-.09h0v0h0v0h0v0h0v0h0v0h0v0h0v0h0l0-.11h0v0h0v0h0v0h0v0h0v0h0v0h0l-.06-.23h0v0h0v0h0a21,21,0,0,0-1.07-3.14H181l0,0h0l0,0h.08v0h0l0,0h0l0,0h.07l0,0h0l0,0h0l0,0h0l0,0h0l0,0h0l0,0h0l0,0h0l0,0h0l0,0h0l0,0h0l0,0h0l0,0h0v0h0l0,0h0l0,0h0l0,0h0l0,0h0l0,0h0l0,0h0l0,0h0l0,0h0l0,0h0l0,0h0l0,0h0l0,0h0l.19-.16h0l0,0h0l0,0h0l.07-.06h0l0,0h0A18.65,18.65,0,0,0,185,44h0l.05-.06h0l0-.07h0l0,0h0l0,0h0l0,0h0c.06-.09.13-.18.19-.28h0l0,0h0l0,0h0l0,0h0l0,0h0l0,0h0l0,0h0l0-.07h0a15,15,0,0,0,1.69-3.52l-4.76-1.55Zm-9.37-33-1.93,4.61a11.77,11.77,0,0,1,4.68,3.31l0,.05a10.54,10.54,0,0,1,2.2,7.54l5,.23a15.83,15.83,0,0,0-2.42-9.71h0v0h0v0h0l-.14-.19h0v0h0v0h0v0h0v0h0v0h0v0h0a1.13,1.13,0,0,0-.1-.13h0v0h0v0h0v0h0v0h0v0h0v0h0v0h0l-.07-.09h0v0h0v0h0v0h0v0H180v0h0v0h0l0-.06h-.08v0h-.08v0h0l0,0h-.15v0h0l0,0h0a16.1,16.1,0,0,0-4.93-3.84h-.09l0,0h0l-.11-.06h-.21l-.06,0H174l-.84-.37ZM153.88.93a18.32,18.32,0,0,0-1.93.39h0l-.06,0h-.07C145.34,3.2,141,8,138.88,10.85h-1.37l-.12,0h0l-.94,4.92c.4.07.8.16,1.21.27a5.26,5.26,0,0,0,1.24.15,5,5,0,0,0,4-2.06c1.61-2.2,5.07-6.12,10.21-7.61a13.49,13.49,0,0,1,1.51-.31L153.88.93ZM120.52,18.15c-.23.46-.43.9-.6,1.33h0a11.14,11.14,0,0,0-3.2-.48h0a9.53,9.53,0,0,0-3.29.57l-.11,0a12.54,12.54,0,0,0-4.22,2.77,10.09,10.09,0,0,0-3.69-2H105l-.06,0h0a11.57,11.57,0,0,0-2-.36l-.48,5a6.46,6.46,0,0,1,1.35.28l.08,0a5.22,5.22,0,0,1,1.84.95,5,5,0,0,0,3.29,1.24A5,5,0,0,0,112.61,26a7.32,7.32,0,0,1,2.44-1.63,4.72,4.72,0,0,1,1.64-.29,6.21,6.21,0,0,1,1.79.28,5.28,5.28,0,0,0,1.41.2,5,5,0,0,0,4.66-3.19c.12-.31.26-.63.42-.95l-4.45-2.27ZM69.16,5.09l-.09,5a12.94,12.94,0,0,1,5.63,1.3A10.76,10.76,0,0,1,78.84,16a5,5,0,0,0,4.51,2.85,4.53,4.53,0,0,0,.52,0,15.46,15.46,0,0,1,1.73-.1h0l0-5H85.6a19.5,19.5,0,0,0-2.25.13A15.65,15.65,0,0,0,77.15,7h-.3l-.09,0h-.2l-.2-.09h-.14a15,15,0,0,0-2.4-.85h-.08l-.19,0H73l-.14,0h-.13a19.7,19.7,0,0,0-3.55-.38Z"/></g><line class="cls-4" x1="50" y1="190" x2="194.5" y2="36.5"/></g></svg>