<svg id="Layer_1" data-name="Layer 1" xmlns="http://www.w3.org/2000/svg" viewBox="0 0 200 200"><title>icon-07</title><g id="Gastrointestinal_tract_1" data-name="Gastrointestinal tract 1"><path d="M50.66,4.88h0c3.36,0,6.67,1.43,10.11,4.37A5,5,0,0,0,64,10.45a5.52,5.52,0,0,0,1-.1,14.31,14.31,0,0,1,2.81-.26,13.15,13.15,0,0,1,5.89,1.3A10.76,10.76,0,0,1,77.84,16a5,5,0,0,0,4.51,2.85,4.53,4.53,0,0,0,.52,0,15.46,15.46,0,0,1,1.73-.1,9,9,0,0,1,4.53,1.07A7.38,7.38,0,0,1,92.05,23a5,5,0,0,0,4.41,2.66,5.19,5.19,0,0,0,1.5-.22,9.4,9.4,0,0,1,2.81-.45,6.68,6.68,0,0,1,2.09.31l.08,0a5.22,5.22,0,0,1,1.84.95,5,5,0,0,0,3.29,1.24A5,5,0,0,0,111.61,26a7.32,7.32,0,0,1,2.44-1.63,4.72,4.72,0,0,1,1.64-.29,6.21,6.21,0,0,1,1.79.28,5.28,5.28,0,0,0,1.41.2,5,5,0,0,0,4.66-3.19,10.49,10.49,0,0,1,3.84-4.86,9.63,9.63,0,0,1,5.18-1.37,16.49,16.49,0,0,1,4.07.56,5.26,5.26,0,0,0,1.24.15,5,5,0,0,0,4-2.06c1.61-2.2,5.07-6.12,10.21-7.61a14.51,14.51,0,0,1,3.67-.48,16.71,16.71,0,0,1,7.94,2.17,5,5,0,0,0,1.5.52c1.69.3,6.82,1.2,9.65,4.69l0,.05c1.74,2.09,2.44,4.79,2.16,8.26a5,5,0,0,0,1,3.48c1.29,1.66,4.24,6.05,3.85,11-.28,3.16-1.93,5.84-5,8.19a5,5,0,0,0-1.53,6.07,14.2,14.2,0,0,1-1.26,14.3,5,5,0,0,0,.15,5.95c1.12,1.44,3.32,5.43-.43,11.42a5,5,0,0,0-.08,5.17,14,14,0,0,1,.16,13.75,5,5,0,0,0,.39,5.29c2.48,3.37,7.39,12.26-.38,21.86a5,5,0,0,0-1.11,3.26c0,1.11-.15,11-13.9,15.29a5,5,0,0,0-2.71,2.06A15.16,15.16,0,0,1,148,155a12.11,12.11,0,0,1-3.2.42,20.63,20.63,0,0,1-10.33-3.32,4.89,4.89,0,0,0-2.55-.71,5,5,0,0,0-3,1A11.89,11.89,0,0,1,122,154.7a11.51,11.51,0,0,1-5-1.17,5,5,0,0,0-4.78.29,5,5,0,0,0-2.35,4.17c-.21,16.64-3.24,29.56-8.12,34.61A7,7,0,0,1,96.6,195a6.51,6.51,0,0,1-4.79-2.24c-5.86-6.4-7.11-25.94-5.8-41.4a5,5,0,0,0-.32-2.26C84,144.82,81,133.83,89.38,124.32c3.83-4.28,8.1-6.46,12.71-6.46a14.42,14.42,0,0,1,5.77,1.22,5,5,0,0,0,5.13-.61c2.09-1.62,5.31-3.56,8.8-3.56a10,10,0,0,1,5.58,1.7,5,5,0,0,0,2.73.81,4.76,4.76,0,0,0,1.12-.13,5,5,0,0,0,3.07-2.14,4.64,4.64,0,0,1,.42-.36l.79-.41a5,5,0,0,0,2.71-5.18,7.15,7.15,0,0,1,.29-3.62.61.61,0,0,0,.07-.14,4,4,0,0,1,1-1.53,5,5,0,0,0,.93-6.43c-3.5-5.54-1.07-9.35-.27-10.6a5,5,0,0,0,.16-5.12c-1.6-2.87-2.21-5.45-1.83-7.65,0,0,0-.06,0-.09a6.86,6.86,0,0,1,2-3.84,5,5,0,0,0,.7-6.18l-.21-.34a12.78,12.78,0,0,1-1.31-2.41,5,5,0,0,0-3-3,5.12,5.12,0,0,0-1.72-.31,5.06,5.06,0,0,0-2.48.66,7,7,0,0,1-3.55.94,10.78,10.78,0,0,1-3.25-.56,4.75,4.75,0,0,0-1.53-.24,5,5,0,0,0-4.24,2.35,7.75,7.75,0,0,1-4.19,3.36l-.07,0a6.66,6.66,0,0,1-1.82.25A11.11,11.11,0,0,1,108,62.6a5,5,0,0,0-5.07-.24,16.08,16.08,0,0,1-7.42,2.06,11.13,11.13,0,0,1-1.44-.09A11.35,11.35,0,0,1,87,60.12a5,5,0,0,0-3.82-1.77,5.28,5.28,0,0,0-1.41.2,15.56,15.56,0,0,1-4.32.62,14.78,14.78,0,0,1-8.56-2.69,5,5,0,0,0-2.86-.9,5.07,5.07,0,0,0-2.18.5A5,5,0,0,0,61,60.29a10.84,10.84,0,0,1-1.34,4.57,5,5,0,0,0,.55,5.69c1.31,1.53,3.9,6-.16,14.36a5,5,0,0,0-.29,3.63c.72,2.38,4,14.66-1.67,22.7-3.47,4.9-9.73,7.39-18.61,7.39-8.63,0-14.55-2.39-18.1-7.29-5.83-8.1-2.82-20.87-1.76-24.59a5,5,0,0,0-.4-3.75c-1.16-2.13-4.58-9.58-.18-15.85A5,5,0,0,0,19.42,62c-1.36-2.73-4-9.72,1.4-15.84a5,5,0,0,0,1-5,12.64,12.64,0,0,1-.2-8.26,9.06,9.06,0,0,1,4.32-4.68A5,5,0,0,0,28.44,23c-.31-1.71-.59-5,1-7.66l0,0c1.3-2.29,3.83-3.73,7.73-4.41a5.06,5.06,0,0,0,2.55-1.27C41.53,7.94,45.26,5.09,50,4.9H50l.63,0M134.39,115h0M50.66-.12c-.3,0-.59,0-.89,0C43.18.17,38.3,4.13,36.32,6c-5.28.93-9.1,3.17-11.21,6.86a16.38,16.38,0,0,0-1.59,11.08,14,14,0,0,0-6.59,7.26,17.55,17.55,0,0,0,.13,11.74C10.6,50.29,12.31,59,15,64.27c-5.28,7.52-2.77,16.23-.13,21.11-1.32,4.61-4.62,19,2.5,28.88,4.49,6.2,11.87,9.37,22.16,9.37,10.55,0,18.21-3.17,22.69-9.5,6.73-9.49,3.69-22.68,2.37-27,4.62-9.49,2.51-16.22-.52-19.78a16,16,0,0,0,2-6.73,19.78,19.78,0,0,0,11.41,3.59,20.41,20.41,0,0,0,5.73-.82,16.37,16.37,0,0,0,10.29,5.94,17.1,17.1,0,0,0,2.12.13,21.19,21.19,0,0,0,9.75-2.64,15.84,15.84,0,0,0,8.68,3,11.86,11.86,0,0,0,3.19-.44,12.55,12.55,0,0,0,7.13-5.54,15.42,15.42,0,0,0,4.78.8,11.89,11.89,0,0,0,6-1.6,19.36,19.36,0,0,0,2,3.7,11.86,11.86,0,0,0-3.43,6.59c-.79,4.49,1.06,8.58,2.37,11-3.95,6.2-2.24,12,.27,16a8.88,8.88,0,0,0-2.38,3.43,12,12,0,0,0-.66,6.33c-.52.27-1,.53-1.45.79a7,7,0,0,0-1.71,1.72,14.91,14.91,0,0,0-8.31-2.51c-5.14,0-9.5,2.77-11.87,4.62a19.12,19.12,0,0,0-7.83-1.67c-5,0-10.94,2-16.44,8.13-10.82,12.27-6.07,26.25-4.62,29.94-.53,6.2-2.24,35.09,7.12,45.24A11.47,11.47,0,0,0,96.6,200a11.93,11.93,0,0,0,8.83-4c7.92-8.17,9.37-27.7,9.5-38a16.27,16.27,0,0,0,17-1.72,25.41,25.41,0,0,0,12.88,4,17.12,17.12,0,0,0,4.53-.6,20.2,20.2,0,0,0,11.08-8.57c14-4.36,17.54-14.38,17.41-20.18,9-11.08,4.88-22,.52-28a19,19,0,0,0-.26-18.6c4.62-7.38,2.9-13.58.13-17.14A19.18,19.18,0,0,0,180,48.05c4.35-3.3,6.59-7.25,7-11.74.53-6.59-3-12.13-4.88-14.51.39-4.75-.66-8.7-3.3-11.87-4-4.88-10.42-6.07-12.66-6.46A21.58,21.58,0,0,0,155.8.7a19.33,19.33,0,0,0-5,.66C144.34,3.2,140,8,137.88,10.85a21.77,21.77,0,0,0-5.31-.71,14.53,14.53,0,0,0-7.88,2.16,15.42,15.42,0,0,0-5.8,7.26,11.14,11.14,0,0,0-3.2-.48,9.72,9.72,0,0,0-3.4.61,12.54,12.54,0,0,0-4.22,2.77,10.09,10.09,0,0,0-3.69-2,11.8,11.8,0,0,0-3.61-.54,14.71,14.71,0,0,0-4.31.67,12.24,12.24,0,0,0-4.88-5.14,14.07,14.07,0,0,0-7-1.71,19.5,19.5,0,0,0-2.25.13A15.65,15.65,0,0,0,76.15,7a17.88,17.88,0,0,0-8.34-1.94A19.4,19.4,0,0,0,64,5.45C59.8,1.85,55.34-.12,50.66-.12Z"/><circle cx="46" cy="23" r="5"/><circle cx="160" cy="128" r="5"/><circle cx="95" cy="144" r="5"/><circle cx="152" cy="23" r="5"/><circle cx="35" cy="54" r="3"/><circle cx="105" cy="126" r="3"/><circle cx="103" cy="159" r="3"/><circle cx="135" cy="45" r="3"/><circle cx="163" cy="74" r="3"/><circle cx="146" cy="112" r="3"/><circle cx="145" cy="144" r="3"/><circle cx="85" cy="36" r="3"/><circle cx="69" cy="26" r="3"/><circle cx="88" cy="52" r="3"/><circle cx="38.5" cy="86.5" r="3.5"/><circle cx="51" cy="100" r="3"/><circle cx="27" cy="74" r="3"/><circle cx="120" cy="147" r="3"/><circle cx="51" cy="75" r="3"/><circle cx="32" cy="109" r="3"/><circle cx="150" cy="83" r="3"/><circle cx="153" cy="55" r="3"/><circle cx="164" cy="42" r="3"/><circle cx="57" cy="43" r="3"/><circle cx="131" cy="131" r="3"/><circle cx="120" cy="52" r="3"/><circle cx="163" cy="106" r="3"/><circle cx="108" cy="40" r="3"/><circle cx="131" cy="26" r="3"/></g></svg>