<svg id="Layer_1" data-name="Layer 1" xmlns="http://www.w3.org/2000/svg" viewBox="0 0 200 200"><defs><style>.cls-1{fill:none;stroke:#000;stroke-linecap:round;stroke-miterlimit:10;stroke-width:5px;}</style></defs><title>icon-09</title><line class="cls-1" x1="134.34" y1="134.02" x2="110.08" y2="120.08"/><line class="cls-1" x1="91.49" y1="89.66" x2="67.23" y2="75.72"/><path class="cls-1" d="M100.42,123.86V85.69l-34.69-20L31,85.69v40.06l32.8,18.14Z"/><path class="cls-1" d="M100.42,85.69v38.17l34.69,20,34.7-20V83.8L137,65.66Z"/><line class="cls-1" x1="65.49" y1="32.5" x2="65.49" y2="66"/><line class="cls-1" x1="134.87" y1="143.89" x2="134.87" y2="177.39"/><line class="cls-1" x1="136.87" y1="32.16" x2="136.87" y2="65.66"/><line class="cls-1" x1="64.49" y1="143.89" x2="64.49" y2="177.39"/><line class="cls-1" x1="30.18" y1="125.89" x2="2" y2="142.16"/><line class="cls-1" x1="197.98" y1="67.58" x2="169.81" y2="83.85"/><line class="cls-1" x1="30.18" y1="85.36" x2="2" y2="69.09"/><line class="cls-1" x1="197.98" y1="140.06" x2="169.81" y2="123.79"/></svg>