<?xml version="1.0" encoding="utf-8"?>
<!-- Generator: Adobe Illustrator 20.1.0, SVG Export Plug-In . SVG Version: 6.00 Build 0)  -->
<svg version="1.1" id="vk-ic" xmlns="http://www.w3.org/2000/svg" xmlns:xlink="http://www.w3.org/1999/xlink" x="0px" y="0px"
	 viewBox="0 0 32 32" style="enable-background:new 0 0 32 32;" xml:space="preserve">
<path style="fill:#FFFFFF;" d="M29,22c0-0.1-0.1-0.1-0.1-0.2c-0.5-0.8-1.3-1.8-2.6-3l0,0l0,0l0,0h0c-0.6-0.6-1-0.9-1.1-1.1
	c-0.3-0.4-0.3-0.7-0.2-1.1c0.1-0.3,0.5-0.9,1.2-1.8c0.4-0.5,0.7-0.9,0.9-1.2c1.6-2.1,2.3-3.4,2-4L29,9.5c-0.1-0.1-0.2-0.2-0.4-0.2
	c-0.2-0.1-0.5-0.1-0.9,0l-3.9,0c-0.1,0-0.2,0-0.3,0c-0.1,0-0.2,0-0.2,0l-0.1,0l-0.1,0c0,0-0.1,0.1-0.2,0.1c-0.1,0.1-0.1,0.1-0.1,0.2
	c-0.4,1.1-0.9,2.1-1.5,3.1c-0.3,0.6-0.6,1.1-0.9,1.5c-0.3,0.4-0.5,0.7-0.7,0.9c-0.2,0.2-0.4,0.4-0.5,0.5c-0.2,0.1-0.3,0.2-0.4,0.2
	c-0.1,0-0.2,0-0.2-0.1c-0.1-0.1-0.2-0.2-0.3-0.3c-0.1-0.1-0.1-0.3-0.2-0.5c0-0.2,0-0.4,0-0.6c0-0.2,0-0.4,0-0.7c0-0.3,0-0.5,0-0.6
	c0-0.3,0-0.7,0-1.1c0-0.4,0-0.7,0-1c0-0.2,0-0.5,0-0.8c0-0.3,0-0.5,0-0.6c0-0.1-0.1-0.3-0.1-0.4C18,9.1,17.9,9,17.8,8.9
	c-0.1-0.1-0.3-0.1-0.5-0.2c-0.5-0.1-1.1-0.2-1.8-0.2c-1.7,0-2.8,0.1-3.3,0.3c-0.2,0.1-0.4,0.2-0.5,0.4c-0.2,0.2-0.2,0.3-0.1,0.3
	c0.5,0.1,0.9,0.3,1.2,0.6l0.1,0.2c0.1,0.1,0.1,0.3,0.2,0.6c0.1,0.3,0.1,0.6,0.1,1c0,0.7,0,1.2,0,1.7c0,0.5-0.1,0.8-0.1,1.1
	c0,0.3-0.1,0.5-0.2,0.6c-0.1,0.2-0.1,0.3-0.2,0.3c0,0,0,0.1-0.1,0.1c-0.1,0-0.2,0.1-0.4,0.1c-0.1,0-0.3-0.1-0.5-0.2
	c-0.2-0.1-0.4-0.3-0.6-0.5c-0.2-0.2-0.4-0.5-0.7-0.9c-0.2-0.4-0.5-0.9-0.8-1.4l-0.2-0.4c-0.1-0.3-0.3-0.6-0.6-1.1
	c-0.2-0.5-0.4-1-0.6-1.4C8.4,9.7,8.3,9.5,8.1,9.4L8,9.4c0,0-0.1-0.1-0.2-0.1c-0.1,0-0.2-0.1-0.3-0.1l-3.7,0C3.4,9.2,3.1,9.3,3,9.5
	L2.9,9.6c0,0,0,0.1,0,0.2c0,0.1,0,0.2,0.1,0.4c0.5,1.3,1.1,2.5,1.8,3.7C5.4,15,6,16,6.4,16.7c0.5,0.7,1,1.4,1.4,2.1
	c0.5,0.6,0.8,1.1,1,1.2c0.2,0.2,0.3,0.3,0.4,0.4l0.3,0.3c0.2,0.2,0.5,0.5,1,0.8c0.4,0.3,0.9,0.6,1.4,0.9c0.5,0.3,1.1,0.5,1.8,0.7
	c0.7,0.2,1.3,0.3,2,0.2h1.6c0.3,0,0.6-0.1,0.7-0.3l0.1-0.1c0-0.1,0.1-0.1,0.1-0.3c0-0.1,0-0.2,0-0.4c0-0.4,0-0.7,0.1-1.1
	c0.1-0.3,0.1-0.5,0.2-0.7c0.1-0.2,0.2-0.3,0.3-0.4c0.1-0.1,0.2-0.2,0.2-0.2c0,0,0.1,0,0.1,0c0.2-0.1,0.5,0,0.8,0.2
	c0.3,0.2,0.6,0.5,0.8,0.8c0.3,0.3,0.6,0.7,0.9,1.1c0.4,0.4,0.7,0.7,1,0.9l0.3,0.2c0.2,0.1,0.4,0.2,0.7,0.3c0.3,0.1,0.5,0.1,0.8,0.1
	l3.5-0.1c0.3,0,0.6-0.1,0.8-0.2c0.2-0.1,0.3-0.2,0.3-0.4c0-0.1,0-0.3,0-0.5C29,22.2,29,22.1,29,22L29,22z M29,22"/>
</svg>
