<?xml version="1.0" encoding="utf-8"?>
<!-- Generator: Adobe Illustrator 20.1.0, SVG Export Plug-In . SVG Version: 6.00 Build 0)  -->
<svg version="1.1" id="Layer_1" xmlns="http://www.w3.org/2000/svg" xmlns:xlink="http://www.w3.org/1999/xlink" x="0px" y="0px"
	 viewBox="0 0 72 72" style="enable-background:new 0 0 72 72;" xml:space="preserve">
<g>
	<g>
		<path style="fill:#F7D523;" d="M60.7,43.6l-6.2,8.9L50.1,49c-0.5-0.4-1.2-0.3-1.6,0.2c-0.4,0.5-0.3,1.2,0.2,1.6l5.3,4.4
			c0.2,0.2,0.5,0.3,0.7,0.3c0,0,0.1,0,0.2,0c0.3,0,0.6-0.2,0.8-0.5l6.9-9.9c0.3-0.5,0.2-1.2-0.3-1.5C61.8,43,61.1,43.1,60.7,43.6
			L60.7,43.6z M60.7,43.6"/>
		<path style="fill:#F7D523;" d="M67.2,42.1V9.7c0,0,0,0,0,0c0-0.1,0-0.2-0.1-0.4c0,0,0,0,0,0c0,0,0-0.1,0-0.1C67,9.1,67,9.1,66.9,9
			c0,0-0.1-0.1-0.1-0.1c-0.1-0.1-0.1-0.1-0.2-0.2c0,0-0.1,0-0.1,0c-0.1-0.1-0.3-0.1-0.4-0.1H3.8c-0.1,0-0.3,0-0.4,0.1
			c0,0-0.1,0-0.1,0c-0.1,0-0.2,0.1-0.2,0.2C3.1,8.9,3,8.9,3,9C3,9.1,2.9,9.1,2.9,9.2c0,0,0,0.1,0,0.1c0,0,0,0,0,0
			c0,0.1-0.1,0.2-0.1,0.4c0,0,0,0,0,0v43.4v0c0,0.1,0,0.2,0.1,0.4c0,0,0,0,0,0c0,0,0,0.1,0.1,0.1c0,0.1,0.1,0.2,0.2,0.2
			c0,0,0.1,0.1,0.1,0.1C3.2,54,3.2,54,3.3,54.1c0,0,0.1,0,0.1,0.1c0.1,0,0.2,0.1,0.4,0.1h37.4c1.9,5.8,7.3,10,13.8,10
			c8,0,14.5-6.5,14.5-14.5C69.4,46.9,68.6,44.3,67.2,42.1L67.2,42.1z M64.1,38.6c-0.3-0.2-0.5-0.4-0.8-0.6c-0.1-0.1-0.2-0.2-0.3-0.2
			c-0.3-0.2-0.6-0.3-0.8-0.5c-0.1-0.1-0.2-0.1-0.4-0.2c-0.3-0.1-0.5-0.3-0.8-0.4c-0.2-0.1-0.3-0.1-0.5-0.2c-0.3-0.1-0.5-0.2-0.8-0.3
			c-0.2-0.1-0.4-0.1-0.5-0.2c-0.3-0.1-0.5-0.1-0.8-0.2c-0.2,0-0.4-0.1-0.6-0.1c-0.3-0.1-0.6-0.1-0.9-0.1c-0.2,0-0.4-0.1-0.5-0.1
			c-0.5,0-1-0.1-1.4-0.1c-2.5,0-4.8,0.6-6.8,1.7l-5.9-4.8l22.7-20v27.1c-0.2-0.2-0.4-0.3-0.6-0.5C64.3,38.7,64.2,38.6,64.1,38.6
			L64.1,38.6z M63.2,10.8L39.8,31.5c0,0,0,0,0,0c0,0,0,0,0,0l-2.2,1.9c-1.4,1.3-3.7,1.3-5.1,0l-2.2-1.9c0,0,0,0,0,0
			c0,0-0.1,0-0.1-0.1L6.8,10.8H63.2z M27.7,32.3C21.5,37.7,9.5,47.2,4.9,50.8V12.2L27.7,32.3z M40.7,52H7c5.1-4,16.5-13.1,22.3-18.2
			l1.6,1.4c1.1,1,2.6,1.5,4,1.5c1.5,0,2.9-0.5,4-1.5l1.6-1.4l5.6,4.6c0,0-0.1,0.1-0.1,0.1c-0.3,0.3-0.6,0.5-0.9,0.8
			c-0.1,0.1-0.2,0.2-0.3,0.3c-0.3,0.3-0.5,0.6-0.8,0.8c-0.3,0.3-0.5,0.6-0.7,0.9c-0.1,0.2-0.3,0.3-0.4,0.5c-0.2,0.3-0.3,0.5-0.5,0.8
			c-0.1,0.2-0.2,0.3-0.3,0.5c-0.1,0.3-0.3,0.5-0.4,0.8c-0.1,0.2-0.2,0.4-0.3,0.6c-0.1,0.3-0.2,0.5-0.3,0.8c-0.1,0.2-0.1,0.5-0.2,0.7
			c-0.1,0.2-0.1,0.5-0.2,0.7c-0.1,0.3-0.1,0.6-0.2,0.9c0,0.2-0.1,0.4-0.1,0.6c-0.1,0.5-0.1,1-0.1,1.6c0,0.4,0,0.8,0.1,1.3
			c0,0.2,0.1,0.5,0.1,0.7C40.7,51.8,40.7,51.9,40.7,52L40.7,52z M55,62c-5.7,0-10.5-3.9-11.8-9.2c-0.1-0.5-0.2-1-0.3-1.5
			c0,0,0-0.1,0-0.1c-0.1-0.5-0.1-1-0.1-1.5c0-0.5,0-1,0.1-1.4c0-0.2,0-0.3,0.1-0.5c0-0.3,0.1-0.6,0.2-0.9c0-0.2,0.1-0.4,0.1-0.6
			c0.1-0.3,0.2-0.5,0.3-0.8c0.1-0.2,0.1-0.4,0.2-0.5c0.2-0.4,0.3-0.8,0.5-1.1c0.1-0.2,0.2-0.3,0.3-0.5c0.1-0.2,0.3-0.5,0.4-0.7
			c0.1-0.2,0.2-0.3,0.4-0.5c0.2-0.3,0.4-0.5,0.6-0.7c0.1-0.1,0.2-0.2,0.3-0.3c0.3-0.3,0.7-0.7,1.1-1c0.4-0.3,0.8-0.6,1.3-0.9
			c1.9-1.2,4.1-1.8,6.4-1.8c0.5,0,0.9,0,1.4,0.1c0.1,0,0.3,0,0.4,0.1c0.3,0,0.6,0.1,1,0.2c0.2,0,0.3,0.1,0.5,0.1
			c0.3,0.1,0.6,0.2,0.9,0.3c0.1,0.1,0.3,0.1,0.4,0.2c0.3,0.1,0.7,0.3,1,0.4c0.1,0,0.2,0.1,0.3,0.1c0.4,0.2,0.7,0.4,1.1,0.7
			c0.1,0.1,0.3,0.2,0.4,0.3c0.2,0.2,0.4,0.3,0.7,0.5c0.1,0.1,0.3,0.3,0.4,0.4c0.2,0.2,0.4,0.4,0.6,0.6c0.1,0.1,0.2,0.2,0.3,0.3
			c0.3,0.3,0.6,0.7,0.8,1.1c1.3,1.9,2.1,4.3,2.1,6.8C67.2,56.5,61.7,62,55,62L55,62z M55,62"/>
	</g>
</g>
</svg>
