<?xml version="1.0" encoding="utf-8"?>
<!-- Generator: Adobe Illustrator 20.1.0, SVG Export Plug-In . SVG Version: 6.00 Build 0)  -->
<svg version="1.1" id="Layer_1" xmlns="http://www.w3.org/2000/svg" xmlns:xlink="http://www.w3.org/1999/xlink" x="0px" y="0px"
	 viewBox="0 0 194 63" style="enable-background:new 0 0 194 63;" xml:space="preserve">
<g id="logo-path_7_">
	<g>
		<g>
			<g>
				<g>
					<g>
						<defs>
							<path id="SVGID_1_" d="M85.2,19.8l-0.2,0l-23.8,0h0c-0.3,0-0.6-0.3-0.6-0.6c0,0,0,0,0,0l0.1-0.2l3.7-16.1l0-0.1
								c0.1-0.3,0.3-0.5,0.5-0.7l0,0l0,0c0.1,0,0.2-0.1,0.2-0.1l0.1,0l0,0c0.1,0,0.1,0,0.2,0l29.3,0c0.1,0,0.1,0,0.2,0v0l0,0
								c0.1,0,0.1,0.1,0.2,0.1v0l0,0c0.2,0.1,0.2,0.3,0.3,0.5l0,0c0,0,0,0.1,0,0.1l0,0l-3.7,16.1l-0.1,0.2c-0.1,0.1-0.1,0.3-0.2,0.4
								l0,0l0,0c-0.2,0.2-0.4,0.3-0.7,0.3l-0.1,0L85.2,19.8z"/>
						</defs>
						<clipPath id="SVGID_2_">
							<use xlink:href="#SVGID_1_"  style="overflow:visible;"/>
						</clipPath>
					</g>
					<g>
						<defs>
							<path id="SVGID_3_" d="M72.9,22.8l-29.4,0c0,0-0.1,0-0.1,0v0l0,0c-0.4,0.1-0.8,0.4-0.9,0.8l0,0.1l-3.7,16.1l-0.1,0.2l0,0
								c0,0.3,0.3,0.6,0.6,0.6h0l29.3,0l0.1,0c0.1,0,0.1,0,0.2,0v0l0,0c0.4-0.1,0.7-0.3,0.8-0.7l0.1-0.2l3.7-16.1l0,0
								c0,0,0-0.1,0-0.1v0c0-0.1,0-0.2-0.1-0.3h0v0c0-0.1-0.1-0.1-0.2-0.2l0,0v0C73.1,22.8,73,22.8,72.9,22.8"/>
						</defs>
						<clipPath id="SVGID_4_">
							<use xlink:href="#SVGID_3_"  style="overflow:visible;"/>
						</clipPath>
					</g>
				</g>
			</g>
			<g>
				<g>
					<g>
						<g>
							<path style="fill:#FFFFFF;" d="M12.2,2L5.9,2c-0.5,0-0.9,0.4-1,0.8l0,0L1.1,19l0,0.1c0,0,0,0,0,0.1c0,0.3,0.3,0.6,0.6,0.6
								l5.3,0c0.2,0,0.4-0.2,0.5-0.4l0-0.2l1.1-4.8l3,0c3.6,0,6.3-2.3,6.8-5.9C19.1,4.2,16.4,2,12.2,2 M12.9,8.4
								c-0.3,1.4-1.5,1.6-2.6,1.6l-0.6,0l0.7-3.1l0.6,0C12.1,6.9,13.2,7,12.9,8.4z"/>
						</g>
					</g>
					<g>
						<g>
							<path style="fill:#FFFFFF;" d="M32.5,19L30.2,2.6l0-0.2C30.1,2.2,29.9,2,29.6,2l-5.7,0c-0.3,0.1-0.5,0.2-0.6,0.4l-0.1,0.3
								l-8.3,16.1l-0.2,0.3c0,0,0,0.1,0,0.1c0,0.3,0.3,0.6,0.6,0.6l0,0l5.1,0l0.1,0c0.2,0,0.3-0.1,0.4-0.2l0.2-0.4l0.7-1.6l4.4,0
								l0.1,1.4l0,0.5c0.1,0.2,0.3,0.3,0.5,0.3l5.2,0c0.3,0,0.6-0.3,0.6-0.6L32.5,19z M23.5,13.4l2.1-4.8l0.1,0
								c0.1,2,0.3,4.8,0.3,4.8L23.5,13.4z"/>
						</g>
					</g>
					<g>
						<g>
							<path style="fill:#FFFFFF;" d="M45,2l-6.2,0c-0.5,0-0.8,0.3-1,0.8l0,0.1L34.1,19L34,19.2c0,0,0,0,0,0c0,0.3,0.3,0.6,0.6,0.6
								l5.3,0c0.3,0,0.5-0.2,0.6-0.4l0-0.1l1.2-5.1c0,0,0,0,0.1,0c0.2,0,1,3.7,1.4,5.1c0,0.1,0,0.1,0,0.2c0.1,0.2,0.2,0.3,0.4,0.4
								l5.2,0c0.3,0,0.6-0.3,0.6-0.6c0,0,0,0,0-0.1c0-0.1,0-0.1-0.1-0.2c-0.5-1.8-1.7-5.8-2.4-6.1c2.5-0.8,4.3-1.8,4.7-4.5
								C52.4,3.8,49,1.9,45,2 M45.9,8.3c-0.2,1.3-1.6,1.6-2.8,1.6l-0.5,0l0.7-3.1l0.5,0C45.3,6.8,46.2,7,45.9,8.3z"/>
						</g>
					</g>
					<g>
						<path style="fill:#FFFFFF;" d="M60.6,2l-5,0c-0.5,0-0.9,0.3-1,0.7l0,0.1L51,19l0,0.2c0,0,0,0,0,0c0,0.3,0.3,0.6,0.6,0.6l5.1,0
							c0.3-0.1,0.6-0.3,0.8-0.6l0.1-0.5l3.7-16l0-0.1c0,0,0-0.1,0-0.1C61.2,2.3,60.9,2.1,60.6,2"/>
					</g>
					<g>
						<defs>
							<path id="SVGID_5_" d="M85.2,19.8l-0.2,0l-23.8,0h0c-0.3,0-0.6-0.3-0.6-0.6c0,0,0,0,0,0l0.1-0.2l3.7-16.1l0-0.1
								c0.1-0.3,0.3-0.5,0.5-0.7l0,0l0,0c0.1,0,0.2-0.1,0.2-0.1l0.1,0l0,0c0.1,0,0.1,0,0.2,0l29.3,0c0.1,0,0.1,0,0.2,0v0l0,0
								c0.1,0,0.1,0.1,0.2,0.1v0l0,0c0.2,0.1,0.2,0.3,0.3,0.5l0,0c0,0,0,0.1,0,0.1l0,0l-3.7,16.1l-0.1,0.2c-0.1,0.1-0.1,0.3-0.2,0.4
								l0,0l0,0c-0.2,0.2-0.4,0.3-0.7,0.3l-0.1,0L85.2,19.8z"/>
						</defs>
						<clipPath id="SVGID_6_">
							<use xlink:href="#SVGID_5_"  style="overflow:visible;"/>
						</clipPath>
						
							<linearGradient id="SVGID_7_" gradientUnits="userSpaceOnUse" x1="-301.7394" y1="326.0925" x2="-301.1598" y2="326.0925" gradientTransform="matrix(67.8532 -1.583348e-02 9.079189e-03 38.9193 20529.3164 -12685.1377)">
							<stop  offset="0" style="stop-color:#FFD900"/>
							<stop  offset="1" style="stop-color:#F8AF00"/>
						</linearGradient>
						<rect x="58.3" y="-0.3" style="clip-path:url(#SVGID_6_);fill:url(#SVGID_7_);" width="39.3" height="22.4"/>
					</g>
					<g>
						<defs>
							<path id="SVGID_8_" d="M72.9,22.8l-29.4,0c0,0-0.1,0-0.1,0v0l0,0c-0.4,0.1-0.8,0.4-0.9,0.8l0,0.1l-3.7,16.1l-0.1,0.2l0,0
								c0,0.3,0.3,0.6,0.6,0.6h0l29.3,0l0.1,0c0.1,0,0.1,0,0.2,0v0l0,0c0.4-0.1,0.7-0.3,0.8-0.7l0.1-0.2l3.7-16.1l0,0
								c0,0,0-0.1,0-0.1v0c0-0.1,0-0.2-0.1-0.3h0v0c0-0.1-0.1-0.1-0.2-0.2l0,0v0C73.1,22.8,73,22.8,72.9,22.8"/>
						</defs>
						<clipPath id="SVGID_9_">
							<use xlink:href="#SVGID_8_"  style="overflow:visible;"/>
						</clipPath>
						
							<linearGradient id="SVGID_10_" gradientUnits="userSpaceOnUse" x1="-302.1399" y1="324.5754" x2="-301.5604" y2="324.5754" gradientTransform="matrix(71.8476 -1.676661e-02 1.000565e-02 42.8927 21740.1309 -13895.3164)">
							<stop  offset="0" style="stop-color:#FFD900"/>
							<stop  offset="1" style="stop-color:#F8AF00"/>
						</linearGradient>
						<rect x="35.4" y="19.3" style="clip-path:url(#SVGID_9_);fill:url(#SVGID_10_);" width="41.6" height="24.8"/>
					</g>
					<g>
						<path style="fill:#FFFFFF;" d="M96.9,22.8l-6.9,0c-0.3,0-0.6,0.2-0.8,0.4c0,0.1-0.1,0.2-0.1,0.3c-1,2-4.1,7.9-4.4,8.6l-0.1,0
							L84,23.5l0-0.2c-0.1-0.2-0.3-0.4-0.5-0.5l-5.8,0c-0.4,0-0.8,0.3-1,0.7l-0.1,0.3l-3.7,16.1l0,0.1c0,0,0,0.1,0,0.1
							c0,0.3,0.3,0.6,0.6,0.6l4.3,0c0.3,0,0.5-0.2,0.6-0.5l0-0.1l2.1-9.2c-0.1,0.6,0.3,6.9,0.4,9.1c0,0.1,0,0.1,0,0.2
							c0.1,0.3,0.3,0.5,0.6,0.5l3,0c0.2,0,0.4-0.1,0.5-0.3c0,0,0-0.1,0.1-0.2c0.9-1.8,4.6-8.8,4.7-9.3l0.2,0l-2.1,9l0,0.1
							c0,0,0,0.1,0,0.1c0,0.3,0.3,0.6,0.6,0.6l4.5,0c0.2,0,0.4-0.2,0.5-0.4l0-0.2l3.8-16.4l0-0.1c0,0,0-0.1,0-0.1
							C97.5,23.1,97.3,22.8,96.9,22.8"/>
					</g>
					<g>
						<path style="fill:#FFFFFF;" d="M128.2,22.7L128.2,22.7l-13.3,0l-0.1,0c-0.5,0-0.8,0.4-0.9,0.8l0,0l-0.9,4l0,0.1
							c0,0,0,0.1,0,0.1c0,0.3,0.3,0.6,0.6,0.6l0.1,0l3.5,0l-2.6,11.3l-0.1,0.2c0,0,0,0,0,0c0,0.3,0.2,0.6,0.5,0.6l5,0
							c0.4,0,0.8-0.3,1-0.7l0.1-0.3l2.6-11.2l3.3,0l0,0c0.5,0,0.9-0.3,1-0.8l0-0.1l0.9-4l0-0.1c0,0,0-0.1,0-0.1
							C128.9,23,128.6,22.8,128.2,22.7"/>
					</g>
					<g>
						<g>
							<path style="fill:#FFFFFF;" d="M113,39.8l-2.3-16.4l0-0.2c-0.1-0.2-0.3-0.4-0.5-0.4l-5.6,0c-0.3,0-0.6,0.2-0.8,0.4l-0.1,0.2
								l-8.4,16.2l0,0.1c0,0.1,0,0.2,0,0.2c0,0.3,0.3,0.6,0.6,0.6l0,0l5,0l0.1,0c0.2,0,0.4-0.2,0.5-0.4l0,0l0.8-1.8l4.4,0l0.1,1.6
								l0,0.1c0,0.3,0.3,0.5,0.6,0.5l5.1,0c0.3,0,0.6-0.3,0.6-0.6L113,39.8z M104,34.1l2.1-4.8l0.1,0c0.1,2,0.3,4.8,0.3,4.8
								L104,34.1z"/>
						</g>
					</g>
					<g>
						<path style="fill:#FFFFFF;" d="M145.5,27.6c-0.1-1.8-0.9-5.4-6.7-5.6c-6.4-0.3-10.4,4.1-11,10.1c-0.5,5.1,2.1,8.9,8.2,8.8
							c5.7-0.1,7.5-3.7,8-5.8c0-0.1,0-0.1,0-0.1c0-0.1,0-0.1,0-0.2c0-0.6-0.4-1-1-1l-0.1,0l-4.7,0l0,0c-0.2,0-0.4,0.1-0.5,0.3
							c0,0,0,0,0,0.1c-0.5,0.7-1.3,1.1-1.9,1c-1.4-0.3-1.4-1.8-1.3-3c0.1-1.1,1.4-4.2,3.2-4.2c0.7,0,1.1,0.2,1.3,0.5
							c0,0,0,0.1,0.1,0.1c0.1,0.1,0.3,0.2,0.4,0.3l5,0C145,28.7,145.5,28.2,145.5,27.6C145.5,27.7,145.5,27.6,145.5,27.6"/>
					</g>
					<g>
						<path style="fill:#FFFFFF;" d="M164.3,22.8c0,0-0.1,0-0.2,0l-4.7,0c0,0-0.1,0-0.2,0c-0.5,0-0.8,0.4-0.9,0.8l0,0l-1.2,5.2l-4,0
							l1.1-5.1c0-0.1,0.1-0.2,0.1-0.3v0c0-0.3-0.2-0.6-0.5-0.6c0,0-0.1,0-0.1,0c0,0-0.1,0-0.1,0l-4.8,0c-0.4,0-0.8,0.3-1,0.6
							c0,0.1-0.1,0.2-0.1,0.3l-3.6,15.9l-0.1,0.3l0,0c0,0.3,0.3,0.6,0.6,0.6l4.9,0c0.5,0,0.8-0.3,1-0.7l0.1-0.2l1.2-5.3l4,0
							l-1.2,5.4c0,0,0,0.2,0,0.2c0,0.3,0.3,0.6,0.6,0.6l4.9,0c0.5,0,0.9-0.3,1-0.8l0-0.1l3.7-16.1l0-0.1c0,0,0-0.1,0-0.1
							C164.9,23.1,164.6,22.8,164.3,22.8"/>
					</g>
				</g>
			</g>
			<g>
				<g>
					<g>
						<defs>
							<path id="SVGID_11_" d="M85.2,19.8l-0.2,0l-23.8,0h0c-0.3,0-0.6-0.3-0.6-0.6c0,0,0,0,0,0l0.1-0.2l3.7-16.1l0-0.1
								c0.1-0.3,0.3-0.5,0.5-0.7l0,0l0,0c0.1,0,0.2-0.1,0.2-0.1l0.1,0l0,0c0.1,0,0.1,0,0.2,0l29.3,0c0.1,0,0.1,0,0.2,0v0l0,0
								c0.1,0,0.1,0.1,0.2,0.1v0l0,0c0.2,0.1,0.2,0.3,0.3,0.5l0,0c0,0,0,0.1,0,0.1l0,0l-3.7,16.1l-0.1,0.2c-0.1,0.1-0.1,0.3-0.2,0.4
								l0,0l0,0c-0.2,0.2-0.4,0.3-0.7,0.3l-0.1,0L85.2,19.8z"/>
						</defs>
						<clipPath id="SVGID_12_">
							<use xlink:href="#SVGID_11_"  style="overflow:visible;"/>
						</clipPath>
					</g>
					<g>
						<defs>
							<path id="SVGID_13_" d="M72.9,22.8l-29.4,0c0,0-0.1,0-0.1,0v0l0,0c-0.4,0.1-0.8,0.4-0.9,0.8l0,0.1l-3.7,16.1l-0.1,0.2l0,0
								c0,0.3,0.3,0.6,0.6,0.6h0l29.3,0l0.1,0c0.1,0,0.1,0,0.2,0v0l0,0c0.4-0.1,0.7-0.3,0.8-0.7l0.1-0.2l3.7-16.1l0,0
								c0,0,0-0.1,0-0.1v0c0-0.1,0-0.2-0.1-0.3h0v0c0-0.1-0.1-0.1-0.2-0.2l0,0v0C73.1,22.8,73,22.8,72.9,22.8"/>
						</defs>
						<clipPath id="SVGID_14_">
							<use xlink:href="#SVGID_13_"  style="overflow:visible;"/>
						</clipPath>
					</g>
				</g>
			</g>
		</g>
	</g>
	<g>
		<g>
			<path style="fill:#FFFFFF;" d="M44.6,55.8c-0.6,1.9-1.8,2.8-3.4,2.8c-1,0-1.8-0.3-2.4-1c-0.6-0.6-0.8-1.5-0.8-2.5
				c0-1.1,0.4-2.1,1.1-3c0.7-0.9,1.6-1.3,2.8-1.3c1.1,0,1.8,0.3,2.3,0.9c0.5,0.6,0.7,1.2,0.7,1.9v0.2l-1.9,0.1
				c0-0.5-0.1-0.8-0.3-1.1c-0.2-0.2-0.5-0.3-0.8-0.3c-0.5,0-0.9,0.3-1.2,0.8c-0.3,0.6-0.4,1.3-0.4,2.2c0,0.9,0.4,1.4,1.1,1.4
				c0.7,0,1.1-0.4,1.4-1.3L44.6,55.8z"/>
			<polygon style="fill:#FFFFFF;" points="46.5,58.4 47.5,52.5 45.5,52.5 45.7,50.9 51.9,50.9 51.6,52.5 49.6,52.5 48.6,58.4 			"/>
			<path style="fill:#FFFFFF;" d="M56.3,54.8c-1.8,0.1-2.6,0.6-2.6,1.5c0,0.3,0.1,0.5,0.2,0.6c0.2,0.2,0.4,0.3,0.6,0.3
				c0.4,0,0.8-0.2,1.1-0.6C56,56.2,56.2,55.6,56.3,54.8 M56,58.4c0-0.2,0-0.4,0-0.5c0-0.1,0-0.3,0-0.5c0-0.1,0-0.2,0-0.3
				c-0.5,1-1.3,1.5-2.4,1.5c-0.7,0-1.2-0.2-1.6-0.6c-0.4-0.4-0.6-0.9-0.6-1.4c0-0.8,0.4-1.5,1.1-2c0.7-0.5,2-0.8,4-0.9
				c0.1-0.2,0.1-0.5,0.1-0.7c0-0.3-0.1-0.5-0.3-0.6c-0.2-0.2-0.4-0.2-0.7-0.2c-0.7,0-1.2,0.4-1.5,1.1l-2-0.2
				c0.5-1.5,1.7-2.3,3.6-2.3c1,0,1.7,0.2,2.2,0.6c0.5,0.4,0.7,0.9,0.7,1.6c0,0.2-0.1,0.8-0.2,1.6l-0.3,1.9c-0.1,0.6-0.2,1.1-0.2,1.4
				c0,0.2,0,0.3,0,0.5H56z"/>
			<path style="fill:#FFFFFF;" d="M62.6,54h1.5c0.4,0,0.6-0.1,0.8-0.3c0.2-0.2,0.2-0.4,0.2-0.6c0-0.5-0.3-0.7-1.1-0.7h-1.2L62.6,54z
				 M62.1,56.9h1.5c0.8,0,1.2-0.4,1.2-1.1c0-0.5-0.4-0.8-1.1-0.8h-1.3L62.1,56.9z M59.7,58.4l1.2-7.5h3.7c1.7,0,2.6,0.6,2.6,1.7
				c0,1-0.7,1.6-2,1.8c1.1,0.3,1.6,0.8,1.6,1.7c0,0.6-0.2,1.2-0.7,1.6c-0.5,0.4-1.2,0.6-2.1,0.6H59.7z"/>
			<polygon style="fill:#FFFFFF;" points="73.4,53.5 75.1,58.4 72.8,58.4 71.7,55 70.4,56.1 70.1,58.4 67.9,58.4 69.1,50.9 
				71.3,50.9 70.8,54 73.8,50.9 76.1,50.9 			"/>
			<path style="fill:#FFFFFF;" d="M78.1,57.7L78,58.4h-2.2l1.2-7.5h2.2l-0.5,2.7c-0.1,0.5-0.2,1.1-0.4,1.8c0.4-0.6,0.8-1.1,1.3-1.6
				l1.8-2l0.1-0.8h2.2l-1.3,7.5h-2.1l0.4-2.5c0.1-0.6,0.2-1.2,0.4-2c-0.4,0.7-0.8,1.2-1.2,1.7L78.1,57.7z"/>
			<polygon style="fill:#FFFFFF;" points="88,58.4 89.3,50.9 91.4,50.9 91,53.6 93.3,53.6 93.7,50.9 95.9,50.9 94.6,58.4 92.5,58.4 
				93,55.2 90.7,55.2 90.2,58.4 			"/>
			<path style="fill:#FFFFFF;" d="M101.2,54.8c-1.8,0.1-2.6,0.6-2.6,1.5c0,0.3,0.1,0.5,0.2,0.6c0.2,0.2,0.4,0.3,0.6,0.3
				c0.4,0,0.8-0.2,1.1-0.6C100.9,56.2,101.1,55.6,101.2,54.8 M100.9,58.4c0-0.2,0-0.4,0-0.5c0-0.1,0-0.3,0-0.5c0-0.1,0-0.2,0-0.3
				c-0.5,1-1.3,1.5-2.4,1.5c-0.7,0-1.2-0.2-1.6-0.6c-0.4-0.4-0.6-0.9-0.6-1.4c0-0.8,0.4-1.5,1.1-2c0.7-0.5,2-0.8,4-0.9
				c0.1-0.2,0.1-0.5,0.1-0.7c0-0.3-0.1-0.5-0.3-0.6c-0.2-0.2-0.4-0.2-0.7-0.2c-0.7,0-1.2,0.4-1.5,1.1l-2-0.2
				c0.5-1.5,1.7-2.3,3.6-2.3c1,0,1.7,0.2,2.2,0.6c0.5,0.4,0.7,0.9,0.7,1.6c0,0.2-0.1,0.8-0.2,1.6l-0.3,1.9c-0.1,0.6-0.2,1.1-0.2,1.4
				c0,0.2,0,0.3,0,0.5H100.9z"/>
			<path style="fill:#FFFFFF;" d="M115.2,55.8c-0.6,1.9-1.8,2.8-3.4,2.8c-1,0-1.8-0.3-2.4-1c-0.6-0.6-0.8-1.5-0.8-2.5
				c0-1.1,0.4-2.1,1.1-3c0.7-0.9,1.6-1.3,2.8-1.3c1.1,0,1.8,0.3,2.3,0.9c0.5,0.6,0.7,1.2,0.7,1.9v0.2l-1.9,0.1
				c0-0.5-0.1-0.8-0.3-1.1c-0.2-0.2-0.5-0.3-0.8-0.3c-0.5,0-0.9,0.3-1.2,0.8c-0.3,0.6-0.4,1.3-0.4,2.2c0,0.9,0.4,1.4,1.1,1.4
				c0.7,0,1.1-0.4,1.4-1.3L115.2,55.8z"/>
			<polygon style="fill:#FFFFFF;" points="115.9,58.4 117.2,50.9 123.5,50.9 122.3,58.4 120.1,58.4 121.1,52.4 119.1,52.4 
				118.1,58.4 			"/>
			<path style="fill:#FFFFFF;" d="M128.1,52.2c-0.6,0-1,0.4-1.3,1.1c-0.2,0.8-0.4,1.5-0.4,2.3c0,0.9,0.4,1.4,1.1,1.4
				c0.6,0,1-0.4,1.3-1.2c0.2-0.8,0.3-1.6,0.3-2.2C129.2,52.7,128.8,52.2,128.1,52.2 M128.1,50.8c1,0,1.8,0.3,2.4,1
				c0.6,0.6,0.9,1.5,0.9,2.5c0,1.2-0.4,2.2-1.1,3c-0.7,0.8-1.6,1.3-2.7,1.3c-0.9,0-1.7-0.3-2.3-1c-0.6-0.6-0.9-1.4-0.9-2.4
				c0-1.3,0.4-2.3,1.1-3.2C126,51.2,126.9,50.8,128.1,50.8"/>
			<path style="fill:#FFFFFF;" d="M135.7,57.1c0.5,0,0.9-0.4,1.2-1.2c0.2-0.8,0.4-1.6,0.4-2.3c0-0.3-0.1-0.6-0.2-0.9
				c-0.2-0.2-0.4-0.4-0.7-0.4c-0.3,0-0.6,0.1-0.8,0.4c-0.3,0.3-0.5,0.8-0.6,1.5c-0.1,0.7-0.2,1.2-0.2,1.5c0,0.4,0.1,0.8,0.3,1
				C135.2,57,135.4,57.1,135.7,57.1 M133.8,61h-2.2l1.7-10.1h2l-0.2,1.3c0.5-1,1.2-1.4,2.1-1.4c0.7,0,1.3,0.3,1.7,0.8
				c0.4,0.6,0.6,1.3,0.6,2.2c0,1.3-0.3,2.3-0.9,3.3c-0.6,0.9-1.3,1.4-2.3,1.4c-0.4,0-0.8-0.1-1.2-0.4c-0.3-0.2-0.6-0.5-0.7-0.9
				L133.8,61z"/>
			<polygon style="fill:#FFFFFF;" points="141.2,58.4 142.2,52.5 140.2,52.5 140.5,50.9 146.6,50.9 146.4,52.5 144.4,52.5 
				143.4,58.4 			"/>
		</g>
	</g>
	<path style="fill:#FFFFFF;" d="M167.4,37.5H167h-1.7c-0.4,0-0.7,0.3-0.9,0.6l-0.1,0.3l-0.3,1.4l-0.1,0.3c0,0.3,0.2,0.5,0.5,0.5h1.6
		h0.4c0.3,0,0.6-0.3,0.6-0.5l0.1-0.4l0.3-1.4l0.1-0.3C167.7,37.7,167.6,37.5,167.4,37.5z"/>
	<path style="fill:#FFFFFF;" d="M181.4,29.4h-2.8l0,0c-0.2,0-0.4,0.1-0.6,0.2l-0.2,0.2l-3.5,3.7l0.6-3.3V30c0-0.3-0.2-0.5-0.5-0.5
		l0,0h-2.1h-0.5c-0.3,0.1-0.6,0.3-0.7,0.7v0.1l-2.1,9.5l-0.1,0.5c0,0.2,0.1,0.4,0.3,0.4h0.4h1.9h0.5c0.3-0.1,0.5-0.3,0.6-0.6v-0.2
		l0.3-1.2l1.6-1.6l1,2.8l0.1,0.3c0.2,0.3,0.5,0.5,0.9,0.5h2.6c0.4,0,0.5-0.4,0.5-0.5s-0.1-0.3-0.1-0.3l-2-5.2l4.2-4.2l0,0
		c0.1-0.1,0.2-0.2,0.2-0.4C181.9,29.7,181.7,29.4,181.4,29.4z"/>
	<path style="fill:#FFFFFF;" d="M192.6,29.4h-8.9c-0.4,0-0.7,0.2-0.9,0.6l-0.1,0.4l-0.3,1.4l-0.1,0.2c0,0.3,0.2,0.5,0.5,0.5l0,0h4.6
		l-6.3,5.3l-0.1,0.1c-0.1,0.1-0.1,0.2-0.2,0.3l-0.1,0.4l-0.3,1.3V40v0.1c0,0.3,0.2,0.5,0.5,0.5h0.1h8.7h0.2c0.3,0,0.6-0.2,0.7-0.5
		l0.1-0.6l0.2-1.1L191,38c-0.1-0.2-0.2-0.4-0.5-0.4h-0.1h-4.2l6-5.5l0.5-1.8l0.1-0.3C193.1,29.7,192.9,29.4,192.6,29.4z"/>
</g>
</svg>
