<?xml version="1.0" encoding="utf-8"?>
<!-- Generator: Adobe Illustrator 20.1.0, SVG Export Plug-In . SVG Version: 6.00 Build 0)  -->
<svg version="1.1" id="_x31_-1_1_" xmlns="http://www.w3.org/2000/svg" xmlns:xlink="http://www.w3.org/1999/xlink" x="0px" y="0px"
	 viewBox="0 0 66 66" style="enable-background:new 0 0 66 66;" xml:space="preserve">
<g id="_x31_-1">
	<path style="fill:#FF4C22;" d="M49.7,30.5c-1.5-0.8-2.1-2.8-1.3-4.3c0.6-1.1,0.7-2.3,0.3-3.5c-0.4-1.2-1.1-2.1-2.2-2.7
		c-0.3-0.2-0.7-0.1-0.9,0.3c-0.2,0.3-0.1,0.7,0.3,0.9c0.8,0.4,1.3,1.1,1.6,1.9c0.2,0.8,0.2,1.7-0.2,2.4c-1.1,2-0.5,4.4,1.2,5.7
		c0.2,0.2,0.4,0.3,0.7,0.4c0.3,0.2,0.7,0.1,0.9-0.3C50.1,31.1,50,30.7,49.7,30.5L49.7,30.5z M49.7,30.5"/>
	<path style="fill:#FF4C22;" d="M20.7,25.4c1-0.8,1.5-2.2,1.1-3.5c-0.1-0.4-0.6-0.7-1-0.5c-0.4,0.1-0.7,0.6-0.5,1
		c0.3,0.9-0.2,1.8-1.1,2c-1.7,0.5-2.7,2.4-2.1,4.1c0.1,0.4,0.6,0.7,1,0.5c0.1,0,0.2-0.1,0.2-0.1c0.3-0.2,0.4-0.5,0.3-0.9
		c-0.3-0.9,0.2-1.8,1.1-2C20.1,25.8,20.4,25.6,20.7,25.4L20.7,25.4z M20.7,25.4"/>
	<path style="fill:#FF4C22;" d="M22,40.3c-0.8-0.3-1.3-1.3-1-2.1v0c0.6-1.7-0.2-3.5-1.9-4.2c-0.4-0.2-0.9,0.1-1,0.5
		c-0.2,0.4,0.1,0.9,0.5,1c0.8,0.3,1.3,1.3,1,2.1v0c-0.6,1.7,0.2,3.5,1.9,4.2c0.1,0,0.2,0.1,0.3,0.1c0.3,0,0.6-0.2,0.8-0.5
		C22.6,40.9,22.4,40.5,22,40.3L22,40.3z M22,40.3"/>
	<path style="fill:#FF4C22;" d="M53.5,27.4c-0.6-1-1-3-0.9-4.3c0.2-3-1.4-5.9-3.8-7.2c-0.5-0.3-0.9-0.4-1.3-0.5
		c-0.6-0.2-0.9-0.3-1.1-0.8c-1.3-2.7-2.7-3-5.4-2.8c-0.3,0-0.6-0.4-0.9-0.7c-0.6-0.6-1.4-1.5-2.6-1.6l-0.4,0c-1.6,0-3.1,0.6-4,1.5
		c-0.4-0.5-1-0.9-1.5-1.2c-1.1-0.6-2-0.6-2.8-0.3c-1.2,0.3-2,1-2.6,1.6c-0.5,0.5-0.8,0.8-1,0.7c-2.7-0.2-4.1,0.2-5.4,2.8
		c-0.2,0.5-0.5,0.6-1.1,0.8c-0.4,0.1-0.8,0.2-1.3,0.5c-2.4,1.3-4,4.2-3.8,7.2c0.1,1.3-0.3,3.4-0.9,4.3c-1.5,2.4-1.5,5.7,0,8.1
		c0.2,0.4,0.6,0.8,1,1.3c0.7,0.9,1.9,2.4,1.9,3c-0.2,3,1.6,6.4,4.1,7.7c0.4,0.2,0.5,0.5,0.7,1.1c0.1,0.4,0.2,0.8,0.5,1.4
		c0.7,1.4,1.7,1.8,2.4,2.1c0.8,0.3,1.1,0.4,1.2,1.2c0.4,2.7,2,3.6,3.6,3.6c0.1,0,0.2,0,0.3,0c1.9-0.1,3.9-1.6,4.9-3.8
		c1.1,2.2,3,3.7,4.9,3.8c0.1,0,0.2,0,0.3,0c1.5,0,3.2-0.9,3.6-3.6c0.1-0.8,0.4-0.9,1.2-1.2c0.8-0.3,1.8-0.7,2.4-2.1
		c0.2-0.5,0.4-1,0.5-1.4c0.2-0.7,0.2-0.9,0.7-1.1c2.4-1.2,4.3-4.7,4.1-7.7c0-0.7,1.2-2.2,1.9-3c0.4-0.5,0.7-0.9,1-1.3
		C55,33,55,29.7,53.5,27.4z M42.2,31.2l-0.4,0.7l-0.8,1.4l-1.7,2.9l-1.3,2.3l-0.2,0.4c-0.1,0.1-0.2,0.1-0.3,0.1H34h-2h-3.5
		c-0.1,0-0.2-0.1-0.2-0.1L24,31.4l-0.1-0.2c0-0.1,0-0.2,0-0.3l4.4-7.7c0,0,0,0,0.1-0.1c0.1-0.1,0.1-0.1,0.2-0.1H32h2h3.4
		c0.1,0,0.2,0.1,0.3,0.2l4.4,7.7C42.2,30.9,42.2,31.1,42.2,31.2z M27.9,55.2c-1.2,0.1-1.9-0.7-2.1-2.2c-0.2-1.8-1.3-2.2-2.2-2.5
		c-0.7-0.3-1-0.4-1.4-1.3c-0.2-0.3-0.2-0.7-0.2-1c0,0,0,0,0,0c0-0.1,0-0.2,0-0.4c0-2.2,1.7-4,3.9-4c0.4,0,0.8-0.4,0.8-0.8
		c0-0.4-0.4-0.8-0.8-0.8c-2.5,0-4.7,1.7-5.4,4c-0.1-0.1-0.2-0.1-0.3-0.2c-1.9-0.9-3.3-3.8-3.2-6.2c0.1-1.3-1.1-2.8-2.2-4.1
		c-0.4-0.4-0.7-0.8-0.9-1.1c-1.2-1.9-1.2-4.5,0-6.3c0.8-1.3,1.2-3.7,1.1-5.3c-0.1-2.3,1.1-4.7,3-5.6c0.3-0.2,0.7-0.3,1-0.4
		c0.3-0.1,0.7-0.2,1-0.4c0.1,0,0.1,0,0.2,0c1.8,0,3.2,1.4,3.2,3.2c0,0.4,0.4,0.8,0.8,0.8s0.8-0.4,0.8-0.8c0-2.3-1.6-4.2-3.8-4.7
		c0.7-1.4,1.3-1.8,2.7-1.8c0.3,0,0.6,0,1,0c1,0.1,1.7-0.6,2.3-1.2c0.6-0.6,1.1-1.1,1.9-1.2l0.3-0.1l0.1-0.1c0.1-0.1,0.5,0,1.1,0.3
		c0.9,0.5,1.4,1.2,1.4,1.5V19v2h-3.4c-0.1,0-0.2,0-0.2,0c0,0-0.1,0-0.1,0c-0.7,0.1-1.3,0.5-1.7,1.1l-4.4,7.7
		C22.1,30,22,30.1,22,30.2c-0.2,0.5-0.2,1.1,0,1.6c0,0.1,0.1,0.3,0.2,0.4l4.4,7.7c0.3,0.5,0.7,0.8,1.1,1c0.3,0.1,0.6,0.2,0.9,0.2H32
		v8.4C32,52.9,29.6,55.1,27.9,55.2z M49,39.8c0.1,2.3-1.3,5.2-3.2,6.2c-0.1,0.1-0.2,0.1-0.3,0.2c-0.7-2.3-2.8-4-5.3-4
		c-0.4,0-0.8,0.4-0.8,0.8c0,0.4,0.4,0.8,0.8,0.8c2.2,0,4,1.8,4,4c0,0.1,0,0.3,0.1,0.4c0,0,0,0,0,0c-0.1,0.3-0.2,0.7-0.3,1
		c-0.4,0.8-0.9,1-1.6,1.3c-0.8,0.3-2,0.7-2.2,2.5c-0.2,1.5-0.9,2.3-2.1,2.2c-1.7-0.1-4.2-2.3-4.2-5.8V41h3.4c0.6,0,1.2-0.2,1.6-0.6
		c0.2-0.2,0.3-0.3,0.4-0.5l3.4-5.8c0.5,0.1,0.9,0.2,1.4,0.2c2.6,0,4.8,2.2,4.8,4.8c0,0.1,0,0.2,0.1,0.3C49,39.5,49,39.7,49,39.8z
		 M52.1,34.6c-0.2,0.3-0.5,0.7-0.9,1.1c-0.3,0.4-0.6,0.8-1,1.2c-0.9-2.5-3.3-4.3-6.1-4.3c-0.2,0-0.4,0-0.6,0l0.2-0.4
		c0.4-0.7,0.4-1.6,0-2.3l-4.4-7.7c-0.4-0.7-1.2-1.2-2-1.2H34v-8.4c0-0.6,1.1-1.5,2.7-1.6l0.3,0c0.7,0,1.2,0.4,1.8,1.1
		c0.6,0.6,1.2,1.3,2.2,1.2c2.2-0.1,2.9,0,3.7,1.8c-1.7,0.5-3,2-3,3.8c0,0.4,0.4,0.8,0.8,0.8s0.8-0.4,0.8-0.8c0-1.3,1.1-2.4,2.4-2.4
		c0.1,0,0.1,0,0.2,0c0.3,0.2,0.7,0.3,1,0.4c0.3,0.1,0.6,0.2,1,0.4c1.9,0.9,3.1,3.3,3,5.6c-0.1,1.6,0.3,4,1.1,5.3
		C53.3,30.1,53.3,32.7,52.1,34.6z"/>
</g>
</svg>
