<?xml version="1.0" encoding="utf-8"?>
<!-- Generator: Adobe Illustrator 20.1.0, SVG Export Plug-In . SVG Version: 6.00 Build 0)  -->
<svg version="1.1" id="_x31_-2_1_" xmlns="http://www.w3.org/2000/svg" xmlns:xlink="http://www.w3.org/1999/xlink" x="0px" y="0px"
	 viewBox="0 0 66 66" style="enable-background:new 0 0 66 66;" xml:space="preserve">
<g id="_x31_-2">
	<path style="fill:#FF4C22;" d="M50.2,47.1c-0.7,0-1.3,0.2-1.8,0.5L37.9,37c0.9-1.1,1.5-2.5,1.5-4c0-1.5-0.5-2.9-1.5-4l7.3-7.3
		c0.9,0.7,2,1.1,3.1,1.1c2.8,0,5.1-2.3,5.1-5.1s-2.3-5.1-5.1-5.1c-2.8,0-5.1,2.3-5.1,5.1c0,1.2,0.4,2.3,1.1,3.1L37,28.1
		c-1.1-0.9-2.5-1.5-4-1.5c-1.5,0-2.9,0.5-4,1.5l-4.8-4.8c0.3-0.5,0.5-1.1,0.5-1.8c0-1.7-1.4-3.2-3.2-3.2c-1.7,0-3.2,1.4-3.2,3.2
		c0,1.7,1.4,3.2,3.2,3.2c0.7,0,1.3-0.2,1.8-0.5l4.8,4.8c-0.9,1.1-1.5,2.5-1.5,4c0,0.7,0.1,1.4,0.4,2.1l-7.5,3.4
		c-0.7-1-1.8-1.7-3.1-1.7c-2.1,0-3.8,1.7-3.8,3.8c0,2.1,1.7,3.8,3.8,3.8c2.1,0,3.8-1.7,3.8-3.8c0-0.4-0.1-0.7-0.1-1l7.5-3.4
		c1.1,1.9,3.1,3.1,5.5,3.2l0.4,4.7c-1.3,0.4-2.3,1.6-2.3,3c0,1.7,1.4,3.2,3.2,3.2c1.7,0,3.2-1.4,3.2-3.2c0-1.6-1.2-3-2.8-3.1
		l-0.4-4.7c1.1-0.2,2.1-0.7,2.9-1.3l10.6,10.6c-0.3,0.5-0.5,1.1-0.5,1.8c0,1.7,1.4,3.2,3.2,3.2c1.7,0,3.2-1.4,3.2-3.2
		C53.4,48.5,52,47.1,50.2,47.1L50.2,47.1z M16.4,43.3c-1.4,0-2.6-1.2-2.6-2.6s1.2-2.6,2.6-2.6c1,0,1.9,0.6,2.3,1.5c0,0,0,0,0,0
		c0,0,0,0,0,0c0.1,0.3,0.2,0.7,0.2,1.1C19,42.1,17.8,43.3,16.4,43.3L16.4,43.3z M48.3,13.8c2.1,0,3.9,1.7,3.9,3.9
		c0,2.1-1.7,3.9-3.9,3.9c-2.1,0-3.9-1.7-3.9-3.9C44.5,15.5,46.2,13.8,48.3,13.8L48.3,13.8z M19.5,21.5c0-1.1,0.9-2,2-2
		c1.1,0,2,0.9,2,2c0,1.1-0.9,2-2,2C20.4,23.5,19.5,22.6,19.5,21.5L19.5,21.5z M27.9,33c0-2.8,2.3-5.1,5.1-5.1c2.8,0,5.2,2.3,5.2,5.1
		c0,2.8-2.3,5.2-5.2,5.2C30.2,38.1,27.9,35.8,27.9,33L27.9,33z M36.2,47.1c0,1.1-0.9,2-2,2c-1.1,0-2-0.9-2-2c0-1.1,0.9-2,2-2
		C35.4,45.1,36.2,46,36.2,47.1L36.2,47.1z M50.2,52.2c-1.1,0-2-0.9-2-2c0-1.1,0.9-2,2-2c1.1,0,2,0.9,2,2
		C52.2,51.3,51.3,52.2,50.2,52.2L50.2,52.2z M50.2,52.2"/>
	<path style="fill:#FF4C22;" d="M35.6,33c0,0.3,0.3,0.6,0.6,0.6c0.3,0,0.6-0.3,0.6-0.6c0-2.1-1.7-3.8-3.8-3.8
		c-0.3,0-0.6,0.3-0.6,0.6c0,0.3,0.3,0.6,0.6,0.6C34.4,30.4,35.6,31.6,35.6,33L35.6,33z M35.6,33"/>
	<path style="fill:#FF4C22;" d="M48.3,16.4c0.7,0,1.3,0.6,1.3,1.3c0,0.3,0.3,0.6,0.6,0.6c0.3,0,0.6-0.3,0.6-0.6
		c0-1.4-1.1-2.5-2.5-2.5c-0.3,0-0.6,0.3-0.6,0.6C47.7,16.1,48,16.4,48.3,16.4L48.3,16.4z M48.3,16.4"/>
	<path style="fill:#FF4C22;" d="M16.4,39.4c-0.3,0-0.6,0.3-0.6,0.6c0,0.3,0.3,0.6,0.6,0.6c0,0,0,0,0,0c0,0.3,0.3,0.6,0.6,0.6
		c0.3,0,0.6-0.3,0.6-0.6C17.6,40,17.1,39.4,16.4,39.4L16.4,39.4z M16.4,39.4"/>
</g>
</svg>
