<?xml version="1.0" encoding="utf-8"?>
<!-- Generator: Adobe Illustrator 20.1.0, SVG Export Plug-In . SVG Version: 6.00 Build 0)  -->
<svg version="1.1" id="_x32_-1_1_" xmlns="http://www.w3.org/2000/svg" xmlns:xlink="http://www.w3.org/1999/xlink" x="0px" y="0px"
	 viewBox="0 0 66 66" style="enable-background:new 0 0 66 66;" xml:space="preserve">
<g id="_x32_-1">
	<path style="fill:#FF952C;" d="M51.4,34.2c-0.8-3.9-5.6-5.7-11.8-4.4c-3.4,0.7-6,2-7.5,3.7c-0.3-0.1-0.5-0.2-0.8-0.3
		c-2.1-0.7-4.8-0.7-7.6-0.1c-2.9,0.6-5.3,1.7-6.9,3.1c-1.8,1.6-2.6,3.6-2.2,5.6c0.4,2.1,1.6,3.7,3.9,4.7C19,46.8,20,47,20,47.1V46
		c0-0.1-0.7-0.3-1.1-0.5c-1.9-0.8-3-2.2-3.4-3.9c-0.4-2.1,0.8-3.6,1.9-4.5c1.5-1.3,3.8-2.3,6.5-2.9c1.3-0.3,2.5-0.4,3.6-0.4
		c1.3,0,2.5,0.2,3.5,0.5c0.1,0.1,0.3,0.1,0.4,0.2c0.1,0,0.2,0.1,0.3,0.1c0.4,0.2,0.9,0.1,1.1-0.2c0.1-0.1,0.2-0.2,0.3-0.3
		c1.5-1.5,4.1-2.6,6.8-3.2c1.2-0.3,2.4-0.4,3.6-0.4c1.7,0,3.3,0.3,4.5,0.9c1.2,0.6,2.1,1.6,2.4,3c0.8,3.8-2.4,7.1-8,8.3
		c-2.9,0.6-5.6,0.3-7.5-0.6c-0.1,0-0.1-0.1-0.2-0.1c-0.4-0.2-1-0.1-1.3,0.3c0,0.1-0.1,0.1-0.1,0.2c-1.4,1.7-4.1,3-7.2,3.6
		c-0.5,0.1-0.9,0.2-1.9,0.2v1.1c1-0.1,1.6-0.1,2.2-0.3c3.4-0.7,6.2-2.2,7.8-4.1c1.5,0.7,3.3,1.2,5.3,1.2c1,0,2.1-0.1,3.2-0.3
		C48.7,42.5,52.3,38.7,51.4,34.2z"/>
	<path style="fill:#FF952C;" d="M31.3,35.7c-0.2-0.1-0.4-0.1-0.6,0c-0.1,0-0.1,0.1-0.1,0.2c-1,1.7-3.1,3.1-5.5,3.6
		c-2.3,0.5-4.7,0.1-6.4-1.1c-0.3-0.2-0.6-0.1-0.8,0.1c-0.2,0.3-0.1,0.6,0.1,0.8c1.4,1,3.2,1.5,5.1,1.5c0.7,0,1.4-0.1,2.1-0.2
		c2.1-0.4,3.9-1.4,5.2-2.7c0.4-0.4,0.8-0.9,1.1-1.4C31.7,36.2,31.6,35.9,31.3,35.7z"/>
	<path style="fill:#FF952C;" d="M47.2,32.5c-0.3-0.2-0.6-0.1-0.8,0.2c-1,1.7-3.1,3.1-5.5,3.6c-2.3,0.5-4.7,0.1-6.4-1.1
		C34.4,35,34.3,35,34.2,35c-0.1,0-0.3,0.1-0.4,0.2c-0.2,0.3-0.1,0.6,0.1,0.8c0.4,0.3,0.9,0.5,1.3,0.8c1.1,0.5,2.4,0.8,3.8,0.8
		c0.7,0,1.4-0.1,2.1-0.2c2.7-0.6,5.1-2.1,6.3-4.1C47.6,33,47.5,32.6,47.2,32.5z"/>
	<path style="fill:#FF952C;" d="M36.2,28c1,0.3,2,0.4,2.9,0.4c1.3,0,2.4-0.3,3.2-0.8c0.9-0.5,1.5-1.4,1.8-2.4
		c0.7-2.5-1.4-4.9-5.3-6.1c-3.9-1.1-7-0.2-7.8,2.3C30.3,24.1,32.5,26.9,36.2,28z M32.1,21.7c0.4-1.4,1.8-1.9,3.5-1.9
		c0.9,0,1.9,0.2,2.9,0.4c2.4,0.7,4.6,2.2,4.6,4c0,0.2,0,0.4-0.1,0.7c-0.7,2.5-3.8,2.8-6.5,2C33.5,26.1,31.6,23.8,32.1,21.7z"/>
	<path style="fill:#FF952C;" d="M37.4,24.1c0.7,0.2,1.3,0.3,2,0.3c1,0,2-0.2,2.8-0.7c0.3-0.2,0.3-0.5,0.2-0.8
		c-0.2-0.3-0.5-0.3-0.8-0.2c-1,0.6-2.5,0.7-3.9,0.3c-1.4-0.4-2.5-1.3-3-2.3c-0.1-0.3-0.5-0.4-0.7-0.3c-0.3,0.1-0.4,0.5-0.3,0.7
		C34.3,22.5,35.7,23.6,37.4,24.1z"/>
</g>
</svg>
