<?xml version="1.0" encoding="utf-8"?>
<!-- Generator: Adobe Illustrator 20.1.0, SVG Export Plug-In . SVG Version: 6.00 Build 0)  -->
<svg version="1.1" id="Layer_1" xmlns="http://www.w3.org/2000/svg" xmlns:xlink="http://www.w3.org/1999/xlink" x="0px" y="0px"
	 viewBox="0 0 66 66" style="enable-background:new 0 0 66 66;" xml:space="preserve">
<g id="_x32_-3">
	<path style="fill:#FF952C;" d="M49.2,43.5L28.4,17.8c-0.5-0.6-1.3-1-2.1-1.1c-0.8-0.1-1.6,0.2-2.3,0.7L23,18.2
		c-1.3,1.1-1.5,3-0.5,4.3l1.6,2l1.1-0.6l-1.7-2.1c-0.6-0.8-0.5-2,0.3-2.6l1.1-0.9c0.4-0.3,0.9-0.5,1.3-0.4c0.5,0,0.9,0.3,1.3,0.7
		l20.8,25.7c0.7,0.8,0.5,2-0.3,2.6l-1.1,0.9c-0.4,0.3-0.9,0.4-1.4,0.4c-0.5,0-0.9-0.3-1.2-0.7L31.4,31.5l-0.1,1.6
		c0,0.6-0.2,1.2-0.3,1.8c-0.1,0.2-0.1,0.4-0.2,0.7l-0.1,0.3l0.3,0.3c0.5,0.5,1.1,1.3,1.6,2.4c0.4,0.8,0.6,1.6,0.7,2.4l0,0.2l0.2,0.1
		c0.8,0.7,3.3,3.1,2.8,5.8c0,0.2-0.1,0.3-0.3,0.4c-0.2,0.1-0.4,0.2-0.6,0.1c-0.2,0-0.3-0.1-0.5-0.3c-0.1-0.2-0.2-0.3-0.1-0.5
		c0.1-0.8-0.1-1.7-0.7-2.7l-0.8-1.2l-0.3,1.4c-0.2,0.7-0.4,1.4-0.7,2.1c0,0.1-0.1,0.2-0.2,0.2c-0.2,0.2-0.5,0.2-0.7,0.1
		c-0.2-0.1-0.3-0.3-0.4-0.5l-0.2-0.8l-0.7,0.4c-1.3,0.7-1.9,0.8-2.2,0.8c-0.1,0-0.3,0-0.5-0.2c-0.1-0.1-0.2-0.3-0.1-0.4
		c0-0.3,0.1-0.4,0.2-0.5c0.1-0.1,0.3-0.2,0.6-0.3c0.6-0.2,2-0.9,3.5-1.9l0.3-0.2l0-0.3c0.2-2.4-0.7-4.2-1.5-5.3l-0.4-0.6l-0.5,0.5
		c-0.1,0.1-0.3,0.3-0.4,0.4c-0.5,0.4-1,0.7-1.6,0.9L27.2,39l-0.1,0.2c-0.5,1-1.3,2.9-1.2,4.9c0,0.2-0.1,0.5-0.3,0.6
		c-0.1,0.1-0.2,0.1-0.4,0.2c-0.2,0-0.4,0-0.5-0.2c-0.1-0.1-0.2-0.3-0.2-0.5c-0.1-1.5,0.2-2.9,0.6-3.9l0.3-0.9l-1,0.1
		c-0.6,0.1-1.2,0.1-1.9,0.1l-0.3,0l-0.2,0.2c-0.3,0.4-0.8,0.9-1.5,1.5c-0.9,0.7-1.8,1.1-2.6,1.2c-0.2,0-0.4-0.1-0.5-0.2
		c-0.1-0.1-0.2-0.3-0.2-0.5c0-0.4,0.2-0.5,0.2-0.5c0.1-0.1,0.3-0.2,0.5-0.2c0.3,0,0.7-0.2,1-0.4l1.7-1l-1.9-0.2
		c-0.5-0.1-0.8-0.1-0.9-0.1c-0.2,0-0.3-0.1-0.5-0.3c-0.1-0.1-0.2-0.3-0.1-0.5c0-0.2,0.1-0.3,0.3-0.4c0.2-0.1,0.4-0.2,0.6-0.1
		c0.2,0,1.5,0.2,3.5,0.2l1.5,0l-1.1-1.1c-0.5-0.5-1.2-0.9-2-1.3c-0.2-0.1-0.3-0.2-0.4-0.4c-0.1-0.2-0.1-0.4,0-0.5
		c0-0.1,0.1-0.2,0.2-0.3c0.2-0.2,0.5-0.2,0.7-0.1c2.1,0.9,3.2,2.2,3.6,3.1l0.2,0.4l0.4-0.1c0.6-0.1,1.2-0.2,1.7-0.3
		c0.6-0.1,1.1-0.4,1.6-0.8c0.7-0.5,1.2-1.4,1.5-2.4C30,33.2,30,30.1,30,30l0-0.2L27.7,27l-1.1,0.6l2.1,2.6c0,1.2-0.1,3.2-0.3,4
		c-0.2,0.8-0.6,1.4-1.1,1.8c-0.3,0.2-0.7,0.4-1.1,0.5c-0.4,0.1-0.8,0.2-1.2,0.2c-0.6-1-1.8-2.3-4-3.3c-0.7-0.3-1.4-0.2-2,0.3
		c-0.3,0.2-0.4,0.5-0.6,0.8c-0.2,0.5-0.2,1,0,1.5c0.2,0.4,0.4,0.7,0.8,0.9c-0.6,0-0.9-0.1-0.9-0.1c-0.5-0.1-1.1,0.1-1.5,0.4
		c-0.4,0.3-0.6,0.7-0.7,1.2c-0.1,0.5,0,1,0.3,1.5c0.1,0.1,0.2,0.3,0.4,0.4c0,0-0.1,0-0.1,0.1c-0.5,0.4-0.7,0.9-0.7,1.5
		c0,0.5,0.2,1,0.6,1.3c0.4,0.4,0.9,0.5,1.4,0.5c1.1,0,2.2-0.5,3.3-1.4c0.6-0.5,1.1-1,1.5-1.4c0.3,0,0.5,0,0.8-0.1
		c-0.3,1.2-0.4,2.4-0.3,3.5c0,0.5,0.3,1,0.7,1.3c0.4,0.3,0.9,0.5,1.4,0.5c0.3,0,0.5-0.1,0.7-0.2c0,0.1,0,0.2,0,0.3
		c0,0.5,0.1,1,0.5,1.4c0.3,0.3,0.8,0.5,1.3,0.5c0.6,0,1.3-0.2,2.3-0.7c0.2,0.3,0.4,0.5,0.7,0.6c0.7,0.3,1.5,0.2,2.1-0.3
		c0.2-0.2,0.4-0.4,0.5-0.7c0.1-0.2,0.2-0.4,0.3-0.6c0,0.1,0,0.2,0,0.3c-0.1,0.5,0,1,0.3,1.4c0.3,0.4,0.7,0.7,1.3,0.8
		c0.6,0.1,1.1-0.1,1.6-0.4c0.4-0.3,0.6-0.7,0.7-1.2c0.6-3.1-1.8-5.7-3.1-6.8c-0.2-0.9-0.4-1.7-0.8-2.6c-0.5-1.1-1.1-1.9-1.6-2.4
		c0-0.1,0.1-0.3,0.1-0.4c0.1-0.2,0.1-0.4,0.2-0.6l11,13.6c0.5,0.6,1.3,1,2.1,1.1c0.1,0,0.2,0,0.3,0c0.7,0,1.4-0.2,1.9-0.7l1.1-0.9
		C50.1,46.7,50.3,44.8,49.2,43.5z M28.1,40c0.6-0.2,1.2-0.6,1.7-1c0.5,0.9,1,2.1,0.9,3.6c-1.4,0.9-2.7,1.5-3,1.6
		c-0.2,0.1-0.4,0.1-0.5,0.2c0-0.2,0-0.3,0-0.5C27,42.4,27.7,40.8,28.1,40z"/>
</g>
</svg>
