<?xml version="1.0" encoding="utf-8"?>
<!-- Generator: Adobe Illustrator 20.1.0, SVG Export Plug-In . SVG Version: 6.00 Build 0)  -->
<svg version="1.1" id="_x34_-2_1_" xmlns="http://www.w3.org/2000/svg" xmlns:xlink="http://www.w3.org/1999/xlink" x="0px" y="0px"
	 viewBox="0 0 66 66" style="enable-background:new 0 0 66 66;" xml:space="preserve">
<g id="_x34_-2">
	<path style="fill:#FFBE1D;" d="M45.9,28.9c0.3-0.6,0.4-1.3,0.4-2c0-2.9-2.4-5.3-5.3-5.3c0,0-0.1,0-0.1,0c-0.2-0.9-0.6-1.7-1.2-2.3
		c-0.8-0.9-1.9-1.3-3.1-1.3c-1.2,0-2.3,0.5-3.2,1.3c-0.2,0.2-0.3,0.3-0.4,0.5c-0.1-0.2-0.3-0.3-0.4-0.5c-0.8-0.9-1.9-1.4-3.1-1.4
		s-2.3,0.5-3.1,1.4c-0.6,0.6-1,1.4-1.2,2.3c0,0-0.1,0-0.1,0c-2.9,0-5.3,2.4-5.3,5.3c0,0.7,0.1,1.4,0.4,2C18.8,30.2,18,32,18,33.9
		c0,1.4,0.4,2.7,1.1,3.8c0.6,1,1.5,1.8,2.5,2.3c0.4,2.5,2.6,4.4,5.2,4.4h0c0,0.7,0.2,1.4,0.6,2c0.7,0.9,1.7,1.5,2.9,1.5
		c1.1,0,2-0.5,2.7-1.2c0.7,0.7,1.7,1.2,2.7,1.2c1.2,0,2.2-0.6,2.9-1.5c0.4-0.6,0.6-1.3,0.6-2h0c2.6,0,4.8-1.9,5.2-4.4
		c1-0.6,1.8-1.4,2.5-2.3c0.7-1.1,1.1-2.5,1.1-3.8C48,32,47.2,30.2,45.9,28.9z M30.3,46.2c-0.6,0-1.1-0.3-1.4-0.8
		c-0.3-0.4-0.4-0.8-0.3-1.3c0.5-0.2,1-0.4,1.4-0.7c0.4-0.3,0.5-0.8,0.2-1.2c-0.3-0.4-0.8-0.5-1.2-0.2c-0.6,0.4-1.3,0.7-2.1,0.7
		c-1.9,0-3.5-1.6-3.5-3.5c0-1.3,0.7-2.5,1.9-3.1c0.4-0.2,0.6-0.7,0.4-1.2c-0.2-0.4-0.7-0.6-1.2-0.4c-1.4,0.7-2.4,2-2.8,3.5
		c-1.2-1-1.9-2.5-1.9-4.1c0-1.6,0.7-3.1,2-4.1c0.3-0.3,0.4-0.8,0.2-1.1c-0.3-0.5-0.5-1.1-0.5-1.8c0-1.9,1.6-3.5,3.5-3.5
		c0.2,0,0.5,0,0.7,0.1c0.5,0.1,1.1-0.3,1.1-0.9c0-1.5,1.2-2.8,2.6-2.8s2.6,1.3,2.6,2.8v5.3c0,1.5-1.2,2.6-2.6,2.6
		c-0.5,0-0.9,0.4-0.9,0.9s0.4,0.9,0.9,0.9c1,0,1.9-0.3,2.6-0.9v13.2C32.1,45.5,31.3,46.2,30.3,46.2z M44.3,38
		c-0.3-1.4-1.3-2.7-2.6-3.4c-0.4-0.2-1-0.1-1.2,0.4c-0.2,0.4-0.1,1,0.4,1.2c1.1,0.6,1.9,1.8,1.9,3.1c0,1.9-1.6,3.5-3.5,3.5
		c-0.7,0-1.5-0.2-2.1-0.7c-0.4-0.3-0.9-0.2-1.2,0.2c-0.3,0.4-0.2,0.9,0.2,1.2c0.4,0.3,0.9,0.6,1.4,0.7c0.1,0.5,0,0.9-0.3,1.3
		c-0.3,0.5-0.9,0.8-1.4,0.8c-1,0-1.9-0.8-1.9-1.8V31.2c0.8,0.6,1.8,0.9,2.8,0.9c0.5,0,0.9-0.4,0.9-0.9s-0.4-0.9-0.9-0.9
		c-1.5,0-2.8-1.2-2.8-2.6v-5.3c0-1.5,1.3-2.8,2.8-2.8c1.5,0,2.7,1.3,2.6,2.8c0,0.6,0.5,1,1.1,0.9c0.2,0,0.5-0.1,0.7-0.1
		c1.9,0,3.5,1.6,3.5,3.5c0,0.6-0.2,1.2-0.5,1.8c-0.2,0.4-0.1,0.9,0.2,1.1c1.3,1,2,2.5,2,4.1C46.2,35.5,45.5,37,44.3,38z"/>
</g>
</svg>
