<?xml version="1.0" encoding="utf-8"?>
<!-- Generator: Adobe Illustrator 20.1.0, SVG Export Plug-In . SVG Version: 6.00 Build 0)  -->
<svg version="1.1" id="_x35_-3" xmlns="http://www.w3.org/2000/svg" xmlns:xlink="http://www.w3.org/1999/xlink" x="0px" y="0px"
	 viewBox="0 0 66 66" style="enable-background:new 0 0 66 66;" xml:space="preserve">
<g id="_x35_-3_1_">
	<path style="fill:#008DF6;" d="M52.9,42.9c-0.8-0.2-1.6-0.3-2.4-0.3c-1.4,0-2.4,0.3-2.8,0.5c-6.4-3.7-9.9-7-11.8-9.1
		c-1.8-2.1-2.4-3.5-2.4-3.8c0.1,0,0.1,0,0.3,0c1.4,0,4.7,1,4.8,1.1c0,0,0,0,0,0h0l0,0c0,0,0,0,0,0l0,0c0,0,0,0,0,0c0,0,0,0,0,0
		s0,0,0,0c0,0,0,0,0,0c0,0,0,0,0,0c0,0,0,0,0,0c0,0,0,0,0,0l0,0h0l0,0c0,0,0,0,0,0c0.2,0,0.3-0.1,0.4-0.2c0-0.1,0-0.2,0-0.3l0,0h0
		c0,0,0,0,0,0l0,0h0l0,0c0,0,0,0,0,0c0,0,0,0,0,0l0,0l0,0l0,0c0,0,0,0,0,0l0,0c0,0,0,0,0,0l0,0c0,0,0,0,0,0l0,0c0,0,0,0,0,0l0,0
		c0,0,0,0,0,0c0,0,0,0,0,0l0,0l0,0l0,0l0,0v0l0,0c0,0,0,0,0,0s0,0,0,0c0,0,0,0,0,0l0,0v0c0,0,0,0,0,0l0,0c0,0,0,0,0,0l0,0
		c0,0,0,0,0,0l0,0c0,0,0,0,0,0l0,0l0,0c0,0,0,0,0,0c0,0,0,0,0,0l0,0c0,0,0,0,0,0l0,0v0l0,0c0,0,0,0,0,0c0,0-0.1-0.1-0.2-0.1l0,0
		c-0.1,0-5.4-1.7-5.7-4.3c-0.1-1.3,1.1-2.6,3.6-4c0.1-0.1,0.1-0.1,0.1-0.1c0.2-0.1,0.2-0.3,0.1-0.5c-0.1-0.2-0.3-0.2-0.5-0.1
		c0,0-0.1,0-0.1,0.1c-0.4,0.2-1.7,0.8-3.1,0.8c-1.1,0-2.1-0.4-2.8-1.2c-1-1.1-1.6-2.8-1.8-5.2c0-0.2-0.2-0.3-0.4-0.3
		c-0.2,0-0.3,0.2-0.3,0.3c0,0.1-0.2,5.7-3.3,5.7c-0.3,0-0.6,0-0.9-0.1c-4.4-1.3-6.6-3.4-6.6-3.5c-0.1-0.1-0.4-0.1-0.5,0
		c-0.1,0.1-0.1,0.3,0,0.5c0,0,2.8,3.2,4.1,5c0.4,0.6,0.5,1.3,0.2,2c-0.5,0.9-1.6,1.4-3.4,1.4c-1.2,0-2.7-0.3-4.3-0.8
		c-0.2-0.1-0.4,0-0.4,0.2c-0.1,0.2,0,0.4,0.2,0.4c0.1,0,8.3,2.6,9.2,6c0.2,0.8,0,1.7-0.8,2.5c-0.3,0.3-0.5,0.5-0.5,0.5
		c-0.1,0.1-0.1,0.4,0,0.5c0.1,0.1,0.3,0.1,0.5,0c0.2-0.2,0.4-0.4,0.6-0.5C23,35,25.4,33,27.5,33c2,0,3.3,1.9,3.8,5.6
		c0,0.2,0.2,0.3,0.4,0.3c0.2,0,0.3-0.2,0.3-0.4l-0.1-5.2c0.7,0.8,1.8,2.1,3.4,3.6c2.3,2.3,6.1,5.5,11.1,8.1L45,47.8
		c-0.1,0.1,0,0.2,0,0.3c0.1,0.1,0.2,0.2,0.3,0.2c1.4-0.1,1.9-0.8,2.3-1.3c0.2-0.3,0.4-0.5,0.6-0.6c0,0,0.5,0.1,1.7,1.8
		c0.7,1,1.2,1.9,1.2,1.9c0.1,0.1,0.2,0.2,0.3,0.2c0,0,0.1,0,0.1,0c0.2,0,0.3-0.2,0.3-0.3c0-1.9-1.6-4.7-2-5.4c0.3-0.5,1.9-0.9,3-1
		c0.2,0,0.3-0.2,0.3-0.3C53.2,43.1,53.1,42.9,52.9,42.9L52.9,42.9z M18.9,28.6c-0.7-0.4-1.2-0.6-1.9-0.9c0.2,0,0.4,0,0.6,0
		c2.7,0,3.7-1.1,4-1.8c0.2-0.4,0.3-0.9,0.2-1.4h1.7c0.2,0,0.4-0.2,0.4-0.4c0-0.2-0.2-0.4-0.4-0.4h-1.9c-0.1-0.2-0.2-0.4-0.3-0.6
		c-0.6-0.8-1.5-1.8-2.3-2.8c1.1,0.6,2.6,1.4,4.5,1.9c0.4,0.1,0.8,0.2,1.1,0.2c2.2,0,3.2-2.1,3.7-3.9c0.9,3.8,3.1,4.7,4.9,4.7
		c0.3,0,0.6,0,0.9-0.1c-0.3,0.3-0.6,0.5-0.8,0.8h-1.1c-0.2,0-0.4,0.2-0.4,0.4c0,0.2,0.2,0.4,0.4,0.4h0.6c-0.1,0.2-0.2,0.5-0.3,0.7
		h-3c-0.2,0-0.4,0.2-0.4,0.4c0,0.2,0.2,0.4,0.4,0.4h2.8c0,0.1,0,0.2,0,0.4c0.1,1.3,1.3,2.4,2.6,3.2c-0.5-0.1-0.9-0.1-1.3-0.1
		c-0.3,0-0.7,0-0.9,0.3c-0.1,0.1-0.1,0.3,0,0.6c0.1,0.2,0.6,1.7,2.5,4c1.9,2.2,5.5,5.6,12.2,9.4c0.1,0.1,0.2,0.1,0.3,0
		c0,0,1-0.5,2.6-0.5c0,0,0,0,0.1,0c-0.7,0.2-1.3,0.6-1.5,1.2c0,0.1,0,0.2,0,0.2c0,0,1,1.7,1.6,3.3c-0.1-0.1-0.1-0.2-0.2-0.3
		c-1.3-1.9-1.9-2.1-2.3-2.1c-0.1,0-0.2,0-0.2,0c-0.4,0.2-0.7,0.5-0.9,0.8c-0.3,0.4-0.6,0.7-1.2,0.9l1.2-2.5c0.1-0.2,0-0.4-0.2-0.5
		c-9.5-5-15.1-12.4-15.1-12.5c-0.1-0.1-0.3-0.2-0.4-0.1c-0.1,0-0.2,0.2-0.2,0.3l0,3.1c-0.3-0.7-0.6-1.3-0.9-1.7
		c-0.7-0.9-1.7-1.4-2.8-1.4c-1.6,0-3.2,0.9-4.4,1.8c0.1-0.5,0.1-1,0-1.5c-0.1-0.5-0.4-1-0.7-1.4h1.3c0.2,0,0.4-0.2,0.4-0.4
		c0-0.2-0.2-0.4-0.4-0.4h-1.9c0,0,0,0,0,0c-0.5-0.5-1-0.9-1.6-1.3h2.7c0.2,0,0.4-0.2,0.4-0.4s-0.2-0.4-0.4-0.4H18.9z M18.9,28.6"/>
	<path style="fill:#008DF6;" d="M27.8,25.2c-0.1,0-0.3,0-0.4,0c-1,0-1.9,0.7-2.2,1.6h-1.5c-0.2,0-0.4,0.2-0.4,0.4
		c0,0.2,0.2,0.4,0.4,0.4h1.4c0,1.1,0.8,2,1.9,2.2c0.1,0,0.3,0,0.4,0c1.1,0,2.1-0.8,2.2-1.9c0.1-0.6,0-1.2-0.4-1.7
		C28.9,25.7,28.4,25.3,27.8,25.2L27.8,25.2z M28.9,27.7c-0.1,0.8-0.8,1.3-1.5,1.3c-0.1,0-0.2,0-0.3,0c-0.9-0.1-1.4-1-1.3-1.8
		c0.1-0.8,0.8-1.3,1.5-1.3c0.1,0,0.2,0,0.3,0c0.4,0.1,0.8,0.3,1,0.6C28.9,26.9,29,27.3,28.9,27.7L28.9,27.7z M28.9,27.7"/>
</g>
</svg>
