<?xml version="1.0" encoding="utf-8"?>
<!-- Generator: Adobe Illustrator 20.1.0, SVG Export Plug-In . SVG Version: 6.00 Build 0)  -->
<svg version="1.1" id="_x36_-1_1_" xmlns="http://www.w3.org/2000/svg" xmlns:xlink="http://www.w3.org/1999/xlink" x="0px" y="0px"
	 viewBox="0 0 66 66" style="enable-background:new 0 0 66 66;" xml:space="preserve">
<g id="_x36_-1">
	<g>
		<path style="fill:#038D97;" d="M53.5,27.4c-0.6-1-1-3.1-0.9-4.3c0.2-3-1.4-5.9-3.8-7.2c-0.5-0.2-0.9-0.4-1.3-0.5
			c-0.6-0.2-0.9-0.3-1.1-0.8c-1.3-2.7-2.7-3-5.4-2.9c-0.3,0-0.6-0.4-0.9-0.7c-0.6-0.6-1.4-1.5-2.6-1.6l-0.4,0c-1.6,0-3.1,0.6-4,1.5
			c-0.4-0.5-1-0.9-1.5-1.2c-1.1-0.6-2-0.7-2.8-0.3c-1.2,0.2-2,1-2.6,1.6c-0.5,0.5-0.8,0.8-1,0.7c-2.7-0.2-4.1,0.2-5.4,2.9
			c-0.2,0.5-0.5,0.6-1.1,0.8c-0.4,0.1-0.8,0.2-1.3,0.5c-2.4,1.3-4,4.2-3.8,7.2c0.1,1.3-0.3,3.4-0.9,4.3c-1.5,2.4-1.5,5.7,0,8.1
			c0.2,0.4,0.6,0.8,1,1.3c0.7,0.9,1.9,2.4,1.9,3c-0.2,3,1.6,6.4,4.1,7.7c0.4,0.2,0.5,0.5,0.7,1.1c0.1,0.4,0.2,0.9,0.4,1.4
			c0.7,1.4,1.7,1.8,2.4,2c0.8,0.3,1.1,0.4,1.2,1.2c0.4,2.7,2.1,3.6,3.6,3.6c0.1,0,0.2,0,0.3,0c1.9-0.1,3.9-1.6,4.9-3.8
			c1.1,2.2,3,3.7,4.9,3.8c0.1,0,0.2,0,0.3,0c1.5,0,3.2-0.9,3.6-3.6c0.1-0.8,0.4-0.9,1.2-1.2c0.8-0.3,1.8-0.7,2.4-2
			c0.2-0.5,0.4-1,0.4-1.4c0.2-0.7,0.2-0.9,0.7-1.1c2.4-1.2,4.2-4.7,4.1-7.7c0-0.7,1.2-2.1,1.9-3c0.4-0.5,0.7-0.9,1-1.3
			C55,33,55,29.7,53.5,27.4L53.5,27.4z M28,55.2c-1.2,0.1-2-0.7-2.2-2.2c-0.2-1.8-1.4-2.2-2.2-2.5c-0.7-0.3-1.2-0.5-1.6-1.2
			c-0.2-0.4-0.3-0.7-0.3-1c0,0,0,0,0,0c0.1-0.1,0.1-0.2,0.1-0.4c0-2.2,1.8-4,4-4c0.4,0,0.8-0.4,0.8-0.8c0-0.4-0.4-0.8-0.8-0.8
			c-2.5,0-4.6,1.7-5.4,4c-0.1-0.1-0.2-0.1-0.2-0.2c-1.8-0.9-3.3-3.8-3.2-6.2c0.1-1.3-1.1-2.8-2.2-4.1c-0.4-0.4-0.7-0.9-0.9-1.1
			c-1.2-1.9-1.2-4.5,0-6.3c0.8-1.3,1.2-3.7,1.1-5.3c-0.1-2.3,1.1-4.7,3-5.6c0.3-0.2,0.7-0.3,1-0.4c0.3-0.1,0.7-0.2,1-0.4
			c0.1,0,0.1,0,0.2,0c1.8,0,3.2,1.4,3.2,3.2c0,0.4,0.4,0.8,0.8,0.8s0.8-0.4,0.8-0.8c0-2.3-1.6-4.2-3.8-4.7c0.7-1.4,1.3-1.8,2.7-1.8
			c0.3,0,0.6,0,1,0c1,0.1,1.7-0.6,2.3-1.2c0.6-0.6,1.1-1.1,1.9-1.2l0.3-0.1l0.1-0.1c0.2-0.1,0.6,0,1.2,0.3c0.9,0.5,1.5,1.2,1.5,1.5
			V19c-3.2,0.4-5.6,3.1-5.6,6.3c0,2.6-2.2,4.8-4.8,4.8c-0.4,0-0.8,0.4-0.8,0.8c0,0.4,0.4,0.8,0.8,0.8c3.5,0,6.4-2.9,6.4-6.4
			c0-2.4,1.7-4.3,4-4.7v28.7C32.2,52.9,29.7,55.1,28,55.2L28,55.2z M52.1,34.6c-0.2,0.3-0.5,0.7-0.9,1.1c-0.3,0.4-0.7,0.8-1,1.2
			c-0.9-2.5-3.2-4.3-6.1-4.3c-2.6,0-4.8-2.2-4.8-4.8c0-0.4-0.4-0.8-0.8-0.8c-0.4,0-0.8,0.4-0.8,0.8c0,3.5,2.9,6.4,6.4,6.4
			c2.6,0,4.8,2.2,4.8,4.8c0,0.1,0,0.2,0.1,0.3c0,0.2-0.1,0.4-0.1,0.6c0.1,2.3-1.4,5.2-3.2,6.2c-0.1,0-0.2,0.1-0.3,0.2
			c-0.7-2.3-2.8-4-5.4-4c-0.4,0-0.8,0.4-0.8,0.8c0,0.4,0.4,0.8,0.8,0.8c2.2,0,4,1.8,4,4c0,0.1,0,0.3,0.1,0.4c0,0,0,0,0,0
			c-0.1,0.3-0.2,0.7-0.3,1c-0.4,0.8-0.9,1-1.6,1.2c-0.8,0.3-1.9,0.7-2.2,2.5c-0.2,1.5-1,2.3-2.2,2.2c-1.7-0.1-4.2-2.3-4.2-5.8V12.6
			c0-0.6,1.2-1.5,2.8-1.6l0.4,0c0.7,0,1.2,0.4,1.8,1.1c0.6,0.6,1.2,1.3,2.2,1.2c2.1-0.1,2.8,0,3.7,1.8c-1.7,0.5-3,2-3,3.8
			c0,0.4,0.4,0.8,0.8,0.8c0.4,0,0.8-0.4,0.8-0.8c0-1.3,1.1-2.4,2.4-2.4c0.1,0,0.1,0,0.2,0c0.3,0.2,0.7,0.3,1,0.4
			c0.3,0.1,0.6,0.2,1,0.4c1.9,1,3.1,3.3,3,5.6c-0.1,1.6,0.3,4,1.1,5.3C53.3,30.1,53.3,32.7,52.1,34.6L52.1,34.6z M52.1,34.6"/>
		<path style="fill:#038D97;" d="M30.2,31.5c-0.3-0.3-0.8-0.3-1.1,0c-1.1,1.1-1.7,2.5-1.7,4.1c0,1.3,0.4,2.5,1.2,3.5
			c-0.8,1-1.2,2.2-1.2,3.5c0,1.5,0.6,3,1.7,4.1c0.2,0.2,0.4,0.2,0.6,0.2c0.2,0,0.4-0.1,0.6-0.2c0.3-0.3,0.3-0.8,0-1.1
			c-0.8-0.8-1.2-1.8-1.2-3c0-1.1,0.4-2.2,1.2-3c0.3-0.3,0.3-0.8,0-1.1c-0.8-0.8-1.2-1.8-1.2-3c0-1.1,0.4-2.2,1.2-3
			C30.5,32.3,30.5,31.8,30.2,31.5L30.2,31.5z M30.2,31.5"/>
		<path style="fill:#038D97;" d="M36.8,34.2c-0.3,0.3-0.3,0.8,0,1.1c1.5,1.5,1.5,3.9,0,5.4c-1,1-1.6,2.4-1.6,3.8
			c0,1.4,0.6,2.8,1.6,3.8c0.2,0.2,0.4,0.2,0.6,0.2c0.2,0,0.4-0.1,0.6-0.2c0.3-0.3,0.3-0.8,0-1.1c-0.7-0.7-1.1-1.7-1.1-2.7
			c0-1,0.4-2,1.1-2.7c2.1-2.1,2.1-5.5,0-7.7C37.7,33.9,37.2,33.9,36.8,34.2L36.8,34.2z M36.8,34.2"/>
		<path style="fill:#038D97;" d="M47.3,26.6c-2.1,0.4-4.1-1-4.4-3.1c-0.3-1.4-1-2.7-2.2-3.5c-1.2-0.8-2.6-1.1-4-0.9
			c-0.4,0.1-0.7,0.5-0.6,0.9c0.1,0.4,0.5,0.7,0.9,0.7c1-0.2,2,0,2.9,0.6c0.8,0.6,1.4,1.5,1.6,2.5c0.5,2.6,2.7,4.5,5.3,4.5
			c0.3,0,0.6,0,0.9-0.1c0.4-0.1,0.7-0.5,0.6-0.9C48.1,26.8,47.7,26.5,47.3,26.6L47.3,26.6z M47.3,26.6"/>
		<path style="fill:#038D97;" d="M20.1,27.4c1.3,0,2.6-0.8,3-2.1c0.2-0.4-0.1-0.9-0.5-1c-0.4-0.2-0.9,0.1-1,0.5
			c-0.3,0.8-1.3,1.3-2.1,1c-1.7-0.6-3.5,0.2-4.2,1.9c-0.2,0.4,0.1,0.9,0.5,1c0.1,0,0.2,0.1,0.3,0.1c0.3,0,0.6-0.2,0.8-0.5
			c0.3-0.8,1.3-1.3,2.1-1C19.3,27.4,19.7,27.4,20.1,27.4L20.1,27.4z M20.1,27.4"/>
		<path style="fill:#038D97;" d="M22.6,39.7c-0.8-0.3-1.3-1.3-1-2.1v0c0.6-1.7-0.2-3.5-1.9-4.2c-0.4-0.2-0.9,0.1-1,0.5
			c-0.2,0.4,0.1,0.9,0.5,1c0.8,0.3,1.3,1.3,1,2.1v0c-0.6,1.7,0.2,3.5,1.9,4.2c0.1,0,0.2,0.1,0.3,0.1c0.3,0,0.6-0.2,0.8-0.5
			C23.3,40.3,23.1,39.8,22.6,39.7L22.6,39.7z M22.6,39.7"/>
	</g>
</g>
</svg>
