<?xml version="1.0" encoding="utf-8"?>
<!-- Generator: Adobe Illustrator 20.1.0, SVG Export Plug-In . SVG Version: 6.00 Build 0)  -->
<svg version="1.1" id="_x36_-2" xmlns="http://www.w3.org/2000/svg" xmlns:xlink="http://www.w3.org/1999/xlink" x="0px" y="0px"
	 viewBox="0 0 66 66" style="enable-background:new 0 0 66 66;" xml:space="preserve">
<g id="_x36_-2_1_">
	<path style="fill:#038D97;" d="M45.7,21.8c1.1-1.4,1.6-3.1,1.6-4.8c0-4.4-3.6-8-8-8c-2.5,0-4.8,1.2-6.3,3.1
		C31.5,10.2,29.2,9,26.7,9c-4.4,0-8,3.6-8,8c0,1.8,0.6,3.4,1.6,4.8c1.3,1.8,3.2,4.2,5.2,6.8c2.1,2.7,4.4,5.7,6.5,8.5
		c-2.3,3-4.2,5.6-5.4,7.4c-1,1.6-1.6,3.1-1.5,4.7c0,4.3,3.5,7.8,7.9,7.8H33c4.3,0,7.9-3.5,7.9-7.8c0-1.6-0.5-3.2-1.5-4.7
		c-0.8-1.2-2.1-3-3.8-5.3c-0.3-0.3-0.7-0.4-1.1-0.2c-0.3,0.3-0.4,0.7-0.2,1.1c1.7,2.3,3,4,3.8,5.2c0.9,1.3,1.3,2.6,1.3,3.9
		c0,3.5-2.9,6.3-6.3,6.3h0c-3.5,0-6.3-2.8-6.4-6.3c0-1.3,0.4-2.5,1.3-3.9c2.3-3.5,8-10.9,12.6-16.8C42.5,26,44.4,23.6,45.7,21.8
		L45.7,21.8z M33,35.8c-2.1-2.7-4.3-5.6-6.3-8.2c-2-2.6-3.9-5-5.2-6.8c-0.9-1.1-1.3-2.5-1.3-3.9c0-3.6,2.9-6.5,6.5-6.5
		c3.5,0,6.4,2.9,6.4,6.4c0,0.4,0.3,0.8,0.8,0.8c0.4,0,0.8-0.3,0.8-0.8c0-1.2-0.3-2.3-0.7-3.4c1.2-1.9,3.2-3.1,5.5-3.1
		c3.6,0,6.5,2.9,6.5,6.5c0,1.4-0.5,2.8-1.3,3.9c-1.3,1.8-3.2,4.2-5.2,6.8C37.3,30.2,35.1,33.1,33,35.8L33,35.8z M33,35.8"/>
	<path style="fill:#038D97;" d="M30.3,46c-0.4-0.2-0.8-0.1-1.1,0.2c-0.7,1.1-1,2-1,3c0,2.6,2.2,4.8,4.8,4.8H33
		c0.4,0,0.8-0.3,0.8-0.8c0-0.4-0.4-0.8-0.8-0.8h0c-1.8,0-3.3-1.5-3.3-3.3c0-0.7,0.3-1.4,0.8-2.1C30.7,46.7,30.6,46.2,30.3,46
		L30.3,46z M30.3,46"/>
</g>
</svg>
