<svg xmlns="http://www.w3.org/2000/svg" xmlns:xlink="http://www.w3.org/1999/xlink" viewBox="0 0 322 383"><path d="M296.2 212.6c-3.4 5.2-6.9 9.6-10 13.1-20.8 23.3-31.5 39.1-34.3 70.9-1.3 14.5 3.6 29.7 10.6 44.6 8.9 18.9-4.9 40.7-25.8 40.7H135.2c-14.7 0-26.8-11.2-28.4-25.7v-.2c-.9-7.4-4.7-11.5-11.7-28.2-5.7-13.4-11.4-14.1-20.1-14.8-13-1-32.7 2.7-45-11-9-10-4.8-26.1-2.8-31.7 2-5.7-2.4-6.8-6.2-11.2-2-2.3-1-6 .5-8.8 1.1-2.3.6-5-1.3-6.7-1.5-1.4-3.2-3.6-4.5-7.2-3.2-8.9 4.3-9.2 5.6-17C22.5 211.6 14 212 5 204s1.3-17.2 8-25c6.7-7.8 15-14 20.6-21.4 6.4-8.5 5.8-20.1 4.6-27.6-4.2-28 10-48 17.8-64 1.7-3.4 3.9-6.8 6-10 15-23 38.1-43.8 82.5-51.9 26-4.7 62.4-1.6 95.4 12.3.8.3 1.6.7 2.3 1 27.3 12 51.9 31.5 65.9 60.3 6.4 13.3 10.2 26.5 11.8 39.2v.2c5 39.2-9.3 73.9-23.7 95.5z" fill-rule="evenodd" clip-rule="evenodd" fill="#eaf3f9"/><defs><path id="a" d="M142.4 4.5L139 27.9c-.4 2.9-3.8 4.4-6.2 2.7-3.6-2.4-7.5-4.3-10.6-4.7-7.4-1.1-12.2 4.2-13.3 11.4-.3 2.3-.2 4.6.3 6.6 0 .1.1.2.1.3 1.2 4.1 4.2 7.2 9.2 7.9 3 .4 7.4-.2 11.5-1.6 2.4-.8 4.8.8 5.2 3.1v.9l-5 35.2h.1v.1l-34.9-5c-2.9-.4-4.4-3.8-2.7-6.2C95.1 75 97 71 97.4 68c1.1-7.4-4.2-12.2-11.4-13.3-4.6-.7-9 .4-11.7 3.2-.2.1-.3.3-.4.4v.1c-1.3 1.5-2.3 3.5-2.6 5.9-.4 3 .2 7.4 1.5 11.5.6 2-.3 4-2 4.8-.6.3-1.3.3-2 .2l-19.1-2.7C51.8 74 54.1 69.9 56 66c1.7-3.4 3.9-6.8 6-10 14.8-22.6 37.3-43.2 80.4-51.5z"/></defs><clipPath id="b"><use xlink:href="#a" overflow="visible"/></clipPath><g clip-path="url(#b)"><image width="310" height="286" xlink:href="img/svg-head/A505EE3B.jpg" transform="translate(-37 -74)" overflow="visible"/></g><path d="M131.1 91l-1-.1-34.9-5c-1.7-.2-3.1-1.3-3.8-2.9-.7-1.6-.5-3.4.4-4.9 2.5-3.6 4.2-7.4 4.5-10.2.5-3.2-.4-6-2.4-8.2-1.9-2-4.8-3.4-8.2-3.9-4.5-.6-8.4.4-10.9 2.9l-.3.3-.2.2c-1.2 1.4-2 3.2-2.3 5.4-.4 2.7.2 6.9 1.5 11 .8 2.4-.3 4.9-2.5 6-.9.4-1.7.5-2.6.3L48 79.2l.6-1.3c.9-1.6 1.7-3.3 2.5-4.8 1.4-2.7 2.7-5.2 3.9-7.6 1.6-3.3 3.7-6.4 5.7-9.5l.4-.6c18.5-28.3 44.2-44.8 81-51.9l1.4-.3-3.5 24.9c-.2 1.7-1.3 3.1-2.9 3.8-1.6.7-3.4.5-4.9-.4-3.6-2.5-7.4-4.2-10.2-4.5-3.2-.5-6 .4-8.2 2.4-2 1.9-3.4 4.8-3.9 8.2-.3 2.2-.2 4.3.3 6.2l.1.3c1.1 4 4.1 6.6 8.3 7.2 2.7.4 6.9-.2 11-1.5 1.4-.5 2.9-.3 4.2.5 1.2.8 2.1 2 2.3 3.4v1.2l-4.9 34.5v.7l-.1.9zM83.3 53.7c.9 0 1.8.1 2.8.2 3.9.6 7.2 2.2 9.4 4.6 2.4 2.6 3.4 6 2.9 9.8-.4 3.1-2.2 7.1-4.9 11-.6.9-.7 2-.3 2.9.4 1 1.3 1.6 2.3 1.7l33.8 4.8 4.9-34.3v-.7c-.1-.7-.6-1.5-1.4-1.9-.8-.5-1.7-.6-2.5-.3-4.5 1.5-8.9 2-11.9 1.6-5.1-.7-8.6-3.8-10-8.7l-.1-.3c-.6-2.2-.7-4.6-.4-7.1.6-3.9 2.2-7.2 4.6-9.4 2.6-2.4 6-3.4 9.8-2.9 3.1.4 7.1 2.2 11 4.9.9.6 2 .7 2.9.3.9-.4 1.6-1.3 1.7-2.3l3.2-22c-35.5 7.2-60.4 23.3-78.3 50.8l-.4.6c-2 3-4 6.1-5.6 9.3-1.2 2.4-2.5 5-4 7.6-.6 1.2-1.2 2.3-1.9 3.6L68.6 80c.5.1 1.1 0 1.5-.2 1.1-.5 2-2 1.4-3.6-1.5-4.5-2-8.9-1.6-11.9.4-2.5 1.3-4.7 2.8-6.4l.1-.1c.2-.2.3-.4.5-.5 2.5-2.3 6-3.6 10-3.6z" fill="#eaf3f9"/><defs><path id="c" d="M177.3 125.1c-.9 0-1.8-.1-2.7-.2-3.6-.5-6.8-2-8.8-4.2-2.2-2.4-3.1-5.5-2.6-9 .4-2.9 2.2-6.7 4.9-10.6.8-1.1.9-2.5.4-3.8-.6-1.3-1.7-2.2-3.1-2.4l-35.1-5 5-34.8c.1-.4.1-.8 0-1.2-.1-1.2-.7-2.3-1.8-3-.6-.4-1.4-.7-2.2-.7-.4 0-.9.1-1.3.2-3.5 1.2-6.9 1.9-9.6 1.9-.7 0-1.3 0-1.9-.1-4.6-.6-7.8-3.4-9.1-7.7l-.1-.3c-.5-2-.6-4.2-.3-6.5 1-7.1 5.4-11.6 11.5-11.6.6 0 1.2 0 1.8.1 2.9.4 6.7 2.2 10.6 4.9.7.5 1.4.7 2.2.7.5 0 1.1-.1 1.6-.3 1.3-.6 2.2-1.7 2.4-3.1l3.4-23.8c.7-.1 1.3-.3 2-.4 7.6-1.4 15.8-2.1 24.5-2.1 23.6 0 48.7 5 70.5 14.2l-3.7 25.5c-.2 1.4-1.1 2.5-2.3 3.1-.5.2-1.1.3-1.6.3-.8 0-1.6-.2-2.3-.7-3.7-2.5-7.7-4.3-10.6-4.7-.6-.1-1.2-.1-1.8-.1-2.8 0-5.2 1-7.2 2.8-2.2 2-3.7 5.2-4.2 8.8-.8 5.4.9 10.1 4.3 12.7.1.1.1.1.2.1 1.5 1.1 3.3 1.9 5.4 2.2.6.1 1.3.1 2 .1 2.7 0 6.1-.6 9.5-1.7.4-.1.8-.2 1.3-.2 1.1 0 2.1.4 2.9 1.2l.1.1.1.2c.5.8.6 1.7.5 2.6l-5 35.2-34.9-5h-.6c-.4 0-.9.1-1.3.2h-.2c-1 .3-1.8 1.1-2.3 2-.5 1-.6 2-.2 3.1 1.5 4.4 2.1 8.6 1.7 11.5v.6c0 .2-.1.4-.1.6v.1l-1.9-.6v.2l1.9.5-.1.2-.1.3c-.1.5-.3 1-.5 1.5l-.3.6c-.1.2-.3.5-.4.7-.3.4-.5.8-.9 1.2-2.2 2.2-5.6 3.6-9.6 3.6z"/></defs><clipPath id="d"><use xlink:href="#c" overflow="visible"/></clipPath><g clip-path="url(#d)"><image width="333" height="165" xlink:href="img/svg-head/A505EE39.jpg" transform="translate(16 -28)" overflow="visible"/></g><path d="M177.3 126.1c-.9 0-1.8-.1-2.8-.2-3.9-.6-7.2-2.2-9.4-4.5-2.4-2.6-3.4-6-2.9-9.8.4-3 2.3-7 5.1-11 .6-.9.7-1.9.3-2.9-.4-1-1.3-1.6-2.4-1.8l-36.1-5.2 5.1-35.8V54c-.1-1-.6-1.8-1.4-2.4-.8-.5-1.7-.6-2.6-.3-4.6 1.6-9 2.2-12 1.8-5-.7-8.5-3.7-9.9-8.4l-.1-.3c-.5-2.1-.6-4.5-.3-6.9 1.2-8.4 7-13.3 14.4-12.3 3 .4 7 2.3 11 5.1.9.6 1.9.7 2.9.3 1-.4 1.6-1.3 1.8-2.3l3.5-24.5.7-.1c.7-.1 1.4-.3 2-.4 28.6-5.2 65.2-.5 95.6 12.2l.7.3-3.8 26.3c-.2 1.7-1.3 3.1-2.9 3.8-1.6.7-3.4.5-4.9-.4-3.6-2.5-7.4-4.2-10.2-4.5-3.2-.5-6 .4-8.2 2.4-2 1.9-3.4 4.8-3.9 8.2-.7 5 .8 9.4 3.9 11.7 0 0 .1.1.2.1 1.3 1 3 1.7 4.9 2 2.7.4 6.9-.2 11-1.5 1.8-.6 3.8-.1 5.2 1.3l.4.2v.3c.6 1 .8 2.1.6 3.2l-5.2 36.1-35.9-5.1c-.5-.1-1 0-1.4.1l-.2.1c-.7.3-1.4.8-1.7 1.5-.4.7-.4 1.5-.2 2.3 1.6 4.6 2.2 9 1.8 12 0 .1 0 .2-.1.4v.2c0 .3-.1.5-.2.7v.1l-.2.6c-.1.5-.3 1.1-.6 1.6l-.3.6c-.2.3-.3.5-.4.8-.3.5-.6.9-1 1.3-2 2.4-5.7 3.9-9.9 3.9zM131.4 89l34.1 4.9c1.7.3 3.2 1.4 3.9 3 .7 1.6.5 3.4-.5 4.8-2.6 3.7-4.3 7.5-4.7 10.1-.5 3.2.4 6 2.4 8.2 1.9 2 4.8 3.4 8.2 3.9 4.7.7 8.9-.5 11.3-3.4.3-.4.6-.7.8-1.1.1-.2.2-.4.4-.7.1-.1.1-.3.2-.5.2-.5.4-.9.5-1.4l.2-.6c0-.2.1-.3.1-.4 0-.1 0-.2.1-.3v-.2c.4-2.7-.2-6.9-1.7-11.1-.4-1.3-.3-2.6.3-3.8.6-1.2 1.7-2.1 3-2.5h.2c.7-.2 1.4-.3 2.2-.2l33.9 4.8 4.9-34.2c.1-.9-.2-1.6-.4-2-.8-.9-2-1.2-3.2-.8-4.5 1.5-8.9 2-11.9 1.6-2.3-.3-4.2-1.1-5.8-2.4l-.1-.1c-3.8-2.8-5.6-7.9-4.8-13.6.6-3.9 2.2-7.2 4.6-9.4 2.6-2.4 6-3.4 9.8-2.9 3.1.4 7.1 2.2 11 4.9.9.6 2 .7 2.9.3 1-.4 1.6-1.3 1.7-2.3l3.5-24.7C208.5 4.5 172.7 0 144.6 5.1c-.4.1-.9.2-1.3.2L140 28.4c-.2 1.7-1.4 3.2-3 3.9-1.6.7-3.4.5-4.8-.5-3.7-2.6-7.4-4.3-10.1-4.7-7.7-1.1-11.3 5-12.1 10.6-.3 2.1-.2 4.2.3 6.1l.1.3c1.2 3.9 4.1 6.4 8.3 7 2.7.4 6.8-.2 11-1.7 1.5-.5 3-.3 4.3.6 1.3.9 2.1 2.3 2.2 3.8.1.4.1.9 0 1.4L131.4 89zm56.7 27.4z" fill="#eaf3f9"/><defs><path id="e" d="M319.8 117l-10.9-1.5-19.5-2.8c-2.9-.4-4.4-3.8-2.8-6.2 2.4-3.6 4.2-7.5 4.7-10.6 1.1-7.4-4.2-12.2-11.5-13.3-2.4-.3-4.7-.1-6.8.4-1.9.6-3.6 1-5 3-.1 0 0 .1 0 .2-.1.1 0 .1 0 .1 0 .1-.3.2-.4.3-1.2 1.5-2.2 3.4-2.5 5.7-.4 3 .2 7.4 1.5 11.5.7 2-.4 4.1-2.1 4.9-.6.2-1.3.3-2 .2l-35.2-5 .9-6.7 4-28.2c.2-1.2-.2-2.4-1-3.2-.9-1.4-2.8-2.2-4.5-1.6-4.1 1.4-8.5 2.2-11.5 1.8-2-.3-3.7-1-5-1.9 0 0-.1-.1-.2-.1-3.4-2.7-4.7-7.4-4-12.4 1-7.2 5.9-12.5 13.3-11.4 3 .4 7 2.4 10.6 4.9 2.4 1.7 5.8.2 6.2-2.7l3.7-25.8c.8.3 1.6.7 2.3 1 27.3 12 51.9 31.5 65.9 60.3 6.5 13.2 10.2 26.3 11.8 39.1z"/></defs><clipPath id="f"><use xlink:href="#e" overflow="visible"/></clipPath><g clip-path="url(#f)"><image width="189" height="140" xlink:href="img/svg-head/A505EE3F.jpg" transform="translate(171 2)" overflow="visible"/></g><path d="M321 118.1l-31.8-4.5a4.9 4.9 0 0 1-3.9-2.9c-.7-1.6-.5-3.4.4-4.8 2.4-3.6 4.1-7.4 4.5-10.2 1.1-7.7-5-11.3-10.6-12.1-2.1-.3-4.3-.2-6.3.4l-.2.1c-1.7.5-3.1.9-4.1 2.4v.1c-.1.5-.5.7-.7.8-1.2 1.4-1.9 3.1-2.2 5.1-.4 2.8.2 6.9 1.5 11 .8 2.4-.4 5-2.6 6.1-.8.3-1.7.4-2.5.3l-36.1-5.2 1.1-7.7 4-28.2c.1-.8-.1-1.6-.6-2.3h-.1l-.3-.4c-.7-.8-1.9-1.4-3.2-1-4.6 1.6-9 2.2-12 1.8-2.1-.3-3.9-1-5.5-2.1l-.1-.1c-3.6-2.9-5.2-7.8-4.4-13.4 1.2-8.4 7-13.3 14.4-12.3 3 .4 7 2.3 11 5.1.8.6 1.9.7 2.9.3 1-.4 1.6-1.3 1.8-2.3L239 15l1.6.7c.7.3 1.3.6 2 .9C273.3 30 296.2 51 308.9 77.3c6.1 12.7 10.1 26 11.9 39.5l.2 1.3zm-43.5-36.7c.8 0 1.7.1 2.5.2 8.4 1.2 13.4 7 12.3 14.4-.4 3.1-2.3 7.2-4.8 11-.6.9-.7 2-.3 2.9.4 1 1.3 1.6 2.3 1.8l29.2 4.1c-1.8-12.9-5.7-25.5-11.6-37.6-12.5-25.9-35.1-46.6-65.4-59.9-.4-.2-.8-.3-1.1-.5l-3.5 24.5c-.2 1.7-1.4 3.2-3 3.9-1.6.7-3.4.5-4.8-.5-3.6-2.6-7.4-4.3-10.1-4.7-7.7-1.1-11.3 5-12.1 10.6-.7 4.9.6 9.1 3.6 11.5 0 0 .1.1.2.1 1.2.9 2.8 1.5 4.6 1.7 2.7.4 6.8-.3 11-1.7 2-.7 4.3 0 5.5 1.7l.3.2v.3c.8 1 1.1 2.4 1 3.7l-4.8 33.9 34.2 4.9c.5.1 1 0 1.5-.2 1.1-.5 2.1-2 1.5-3.6-1.4-4.4-2-8.8-1.5-11.9.3-2.4 1.3-4.4 2.7-6.2l.2-.2.6-.7c1.5-1.9 3.3-2.4 5-2.9l.2-.1c1.4-.5 3-.7 4.6-.7z" fill="#eaf3f9"/><defs><path id="g" d="M151.5 142.5s0 .1 0 0c0 .2 0 .3-.1.4-1.2 6.9-6 11.9-13.2 10.8-3-.4-7-2.4-10.6-4.9-2.4-1.7-5.8-.2-6.2 2.7l-2.7 19.2-1.3 9.4-1 6.7-35.2-5c-2.9-.4-4.4-3.8-2.7-6.2 2.5-3.6 4.5-7.5 4.9-10.6 1-7.4-4.2-12.2-11.4-13.3-7.2-1-13.6 2.1-14.7 9.5-.4 3 .2 7.4 1.6 11.5.9 2.8-1.4 5.6-4.3 5.2l-34.9-5v-.3c5-5.2 10.1-10.1 14-15.2 6.4-8.5 5.8-20.1 4.6-27.6-3.2-21.2 4.1-37.8 11.3-51.5L68.5 81c.8.1 1.6 0 2.3-.4 1.9-.7 3-2.9 2.3-5-1.4-4.1-2.2-8.5-1.7-11.5.3-2.4 1.2-4.3 2.5-5.8v-.1c.1-.2.3-.3.4-.4 2.8-2.7 7-3.7 11.6-3.1 7.2 1 12.5 5.8 11.4 13.3-.4 3-2.4 7-4.9 10.6-1.7 2.4-.2 5.8 2.7 6.2l35.2 5-5 34.7-.1.4c-.4 2.9 2.4 5.3 5.2 4.4 4.1-1.4 8.5-2.2 11.5-1.8 7.4 1.4 10.6 7.8 9.6 15z"/></defs><clipPath id="h"><use xlink:href="#g" overflow="visible"/></clipPath><g clip-path="url(#h)"><image width="336" height="311" xlink:href="img/svg-head/A505EE38.jpg" transform="translate(-95 -35)" overflow="visible"/></g><path d="M117.2 188.1l-36.1-5.2c-1.7-.3-3.2-1.4-3.9-3-.7-1.6-.5-3.4.5-4.8 2.6-3.7 4.3-7.5 4.7-10.1 1.1-7.7-5-11.3-10.6-12.1-5.6-.8-12.5 1-13.6 8.7-.4 2.7.2 6.9 1.5 11 .5 1.7.2 3.5-.9 4.8-1.1 1.3-2.8 2-4.5 1.7L18.5 174l.2-1.6.2-.2c.9-.9 1.8-1.9 2.7-2.8 4.1-4.2 8-8.2 11.1-12.3 4.7-6.2 6.2-15.2 4.4-26.8C34 109.6 40.7 93 48.5 78.2l.3-.6 19.6 2.8c.6.1 1.2 0 1.7-.3 1.4-.6 2.4-2.1 1.8-3.7-1.6-4.6-2.2-9-1.8-12 .3-2.4 1.2-4.5 2.7-6.2l.1-.1c.2-.2.3-.4.5-.5 2.9-2.8 7.4-4 12.4-3.3 3.9.6 7.2 2.2 9.4 4.5 2.4 2.6 3.4 6 2.9 9.8-.4 3-2.3 7-5.1 11-.6.9-.7 1.9-.3 2.9.4 1 1.3 1.7 2.3 1.8l36.1 5.2-5.2 36.1c-.1 1 .3 2.1 1.1 2.8.8.7 1.9.9 2.8.5 4.6-1.6 9-2.2 12-1.8 7.3 1.1 11.5 7.3 10.4 15.7v.3c0 .1 0 .2-.1.3-1.4 8-7 12.6-14.3 11.6-3-.4-7-2.3-11-5.1-.8-.6-1.9-.7-2.9-.3-1 .4-1.6 1.3-1.8 2.3l-4.9 36.2zm-47.9-37.4c.9 0 1.8.1 2.8.2 8.4 1.2 13.3 7 12.3 14.4-.4 3-2.3 7-5.1 11-.6.9-.7 1.9-.3 2.9.4 1 1.3 1.7 2.3 1.8l34.2 4.9 4.9-34.3c.2-1.7 1.4-3.2 3-3.9 1.6-.7 3.4-.5 4.8.5 3.7 2.6 7.5 4.3 10.1 4.7 6.1.9 10.8-3.1 12-10v-.4c1-7.3-2.4-12.6-8.7-13.5-2.7-.4-6.8.3-11 1.7-1.6.6-3.4.2-4.7-.9-1.4-1.1-2-2.8-1.8-4.6l.1-.4L129 91l-34.2-4.9c-1.7-.3-3.2-1.4-3.9-3-.7-1.6-.5-3.4.5-4.8 2.6-3.7 4.3-7.5 4.7-10.1.5-3.2-.4-6-2.4-8.2-1.9-2-4.8-3.4-8.2-3.9-4.4-.6-8.3.4-10.8 2.8l-.3.3-.2.2c-1.2 1.4-1.9 3.2-2.2 5.2-.4 2.7.2 6.8 1.7 11 .8 2.5-.4 5.2-2.9 6.2-.8.4-1.8.6-2.8.4l-18-2.5c-6.9 13.4-13.9 29.5-10.8 50.3 1.8 12.1.2 21.7-4.8 28.3-3.2 4.2-7.1 8.2-11.3 12.5l-1.6 1.6 33.2 4.7c1 .1 2-.2 2.7-1 .7-.8.9-1.9.6-2.9-1.5-4.5-2-8.9-1.6-11.9.8-6.6 5.9-10.6 12.9-10.6z" fill="#eaf3f9"/><defs><path id="i" d="M248.3 156.1c-1 7.2-5.8 12.5-13.3 11.4-3-.4-7-2.4-10.6-4.9-2.4-1.7-5.8-.2-6.2 2.7l-5 35.2-35.1-5c-2.9-.4-5.3 2.4-4.4 5.2 1.4 4.1 2.2 8.5 1.7 11.5-1.1 7.4-7.5 10.6-14.7 9.5-7.2-1-12.5-5.9-11.4-13.3.4-3 2.3-7 4.7-10.6 1.7-2.4.2-5.8-2.7-6.2l-34.9-5 .9-6.5 1.3-9.4 2.7-19.2c.4-2.9 3.8-4.4 6.2-2.7 3.6 2.5 7.5 4.5 10.6 4.9 7.2 1 11.9-3.9 13.2-10.8 0-.1 0-.2.1-.3v-.3c1-7.2-2.1-13.6-9.5-14.7-3-.4-7.4.2-11.5 1.6-2.8.9-5.6-1.4-5.2-4.3l5-34.9 34.9 5c2.9.4 4.4 3.8 2.7 6.2-2.4 3.6-4.3 7.6-4.7 10.6-1.1 7.4 4.2 12.2 11.4 13.3 4.9.7 9.5-.6 12.2-3.8l.9-1.2c.1-.2.3-.5.4-.7l.3-.6c.2-.5.4-1 .5-1.5 0-.1.1-.3.1-.4v-.2c0-.2.1-.4.1-.5v-.6c.4-3-.3-7.4-1.7-11.5-.8-2.2.6-4.5 2.7-5.1.5-.2 1.1-.2 1.7-.1l35.2 5-5 34.9c-.1.9.1 1.8.5 2.5.9 1.6 2.8 2.5 4.7 1.8 4.1-1.3 8.5-2 11.5-1.6 3.2.5 5.6 1.9 7.2 4 0 0 0 .1.1.1 2.2 2.7 3 6.5 2.4 10.5z"/></defs><clipPath id="j"><use xlink:href="#i" overflow="visible"/></clipPath><g clip-path="url(#j)"><image width="308" height="280" xlink:href="img/svg-head/A505EE36.jpg" transform="translate(27 5)" overflow="visible"/></g><path d="M163.4 223c-.9 0-1.8-.1-2.8-.2-8.4-1.2-13.3-7-12.3-14.4.4-3 2.3-7.1 4.9-11 .6-.9.7-2 .3-2.9-.4-1-1.3-1.6-2.3-1.7l-35.9-5.1 5.2-36.1c.2-1.7 1.4-3.2 3-3.9 1.6-.7 3.4-.5 4.8.5 3.7 2.6 7.5 4.3 10.1 4.7 6.1.9 10.8-3.1 12-10v-.2l.1-.4c.5-3.4 0-6.6-1.5-9-1.5-2.5-4-4.1-7.2-4.6-2.7-.4-6.9.2-11 1.5-1.7.5-3.5.2-4.8-.9-1.3-1.1-2-2.8-1.7-4.5l5.1-35.9 35.9 5.1c1.7.2 3.1 1.3 3.8 2.9.7 1.6.5 3.4-.4 4.9-2.5 3.6-4.2 7.4-4.5 10.2-.5 3.2.4 6 2.4 8.2 1.9 2 4.8 3.4 8.2 3.9 4.8.7 8.9-.6 11.3-3.5.3-.4.6-.7.8-1.1.1-.2.2-.4.4-.6.1-.2.2-.3.2-.5.2-.5.4-.9.5-1.4l.1-.4.1-.3c0-.1.1-.3.1-.4 0-.1 0-.2.1-.3v-.2c.4-2.7-.2-6.9-1.7-11.1-.4-1.3-.3-2.6.3-3.8.6-1.2 1.7-2.1 3-2.5h.2c.6-.2 1.3-.2 2-.1l36.2 5.2-5.1 35.9c-.1.6 0 1.2.3 1.8v.1c.7 1.3 2.2 1.8 3.6 1.4 4.5-1.5 8.9-2 11.9-1.6 3.3.5 6 2 7.9 4.4l.1.1c2.2 3 3.1 7 2.4 11.3-.6 3.9-2.2 7.2-4.5 9.4-2.6 2.4-6 3.4-9.8 2.9-3-.4-7-2.3-11-5.1-.8-.6-1.9-.7-2.9-.3-1 .4-1.6 1.3-1.8 2.3l-5.2 36.1-36.1-5.2c-1.1-.2-2.1.2-2.8 1.1-.7.8-.9 1.8-.5 2.8 1.6 4.6 2.2 9 1.8 12-1.2 6.5-6.3 10.5-13.3 10.5zm-45.8-37.1l33.9 4.8c1.7.2 3.1 1.3 3.8 2.9.7 1.6.5 3.4-.5 4.9-2.4 3.6-4.1 7.4-4.5 10.2-1.1 7.7 5 11.3 10.6 12.1 5.6.8 12.5-1 13.6-8.7.4-2.7-.3-6.8-1.7-11-.6-1.6-.2-3.4.9-4.8s2.8-2 4.6-1.8l34.2 4.9 4.9-34.2c.2-1.7 1.4-3.2 3-3.9 1.6-.7 3.4-.5 4.8.5 3.7 2.6 7.5 4.3 10.1 4.7 3.2.5 6-.4 8.2-2.4 2-1.9 3.4-4.8 3.9-8.2.6-3.9-.2-7.4-2-9.8l-.1-.1c-1.6-2-3.7-3.2-6.5-3.6-2.8-.4-6.9.1-11 1.4-2.1.7-4.3.1-5.6-1.9h-.1l-.3-.5c-.5-.9-.7-1.9-.5-3l4.8-33.9-34.2-4.9c-.4-.1-.9 0-1.3.1h-.1c-.7.3-1.4.8-1.7 1.5-.4.7-.4 1.5-.2 2.3 1.6 4.6 2.2 9 1.8 12 0 .1 0 .2-.1.4v.2c0 .2-.1.4-.1.6 0 .1-.1.2-.1.3l-.1.5c-.1.5-.3 1.1-.6 1.6l-.3.6c-.1.3-.3.5-.4.8-.3.5-.6.9-1 1.3-2.9 3.4-7.7 4.9-13.2 4.2-3.9-.6-7.2-2.2-9.4-4.5-2.4-2.6-3.4-6-2.9-9.8.4-3 2.3-7.1 4.9-11 .6-.9.7-2 .3-2.9-.4-1-1.3-1.6-2.3-1.7l-33.9-4.8-4.8 33.9c-.1 1 .2 2 1 2.7.8.7 1.9.9 2.9.6 4.5-1.5 8.9-2 11.9-1.6 3.8.5 6.8 2.4 8.6 5.5 1.7 2.8 2.3 6.4 1.7 10.3v.1l-1-.1 1 .2v.2c0 .1 0 .2-.1.3-1.4 8-7 12.6-14.3 11.6-3-.4-7-2.3-11-5.1-.8-.6-1.9-.7-2.9-.3-1 .4-1.6 1.3-1.8 2.3l-4.8 34z" fill="#eaf3f9"/><defs><path id="k" d="M275.4 208.2c-.9-.1-1.7-.7-2-1.6-.4-.8-.3-1.7.2-2.5 2.8-4 4.7-8.1 5.1-11.2 1.1-7.6-4-13.6-12.6-14.8-.9-.1-1.9-.2-2.8-.2-7.3 0-12.5 4.2-13.5 10.9-.4 3.1.1 7.5 1.6 12.1.3.8.1 1.7-.4 2.4s-1.2 1.1-2.1 1.1h-.4l-33.5-4.8 4.8-33.5c.2-1.5 1.4-2.2 2.6-2.2.5 0 1 .2 1.5.5 4 2.7 8 4.5 11.2 4.9.7.1 1.4.2 2.1.2 6.7 0 11.7-5 12.8-12.8.7-4.7-.3-8.9-2.7-11.9l-.1-.1c-1.9-2.5-4.7-4-8.1-4.5-.7-.1-1.4-.1-2.2-.1-2.9 0-6.4.6-9.9 1.8-.3.1-.5.1-.8.1-.9 0-1.8-.5-2.2-1.3-.1-.4-.2-.8-.1-1.2l4.8-33.8 33.5 4.8c.3 0 .5.1.8.1.8 0 1.5-.2 2.2-.5 2.7-1 4.1-4 3.2-6.7-1.4-4.2-2-8.2-1.7-10.9.3-1.9.9-3.5 2-4.9l.2-.2c1.9-2.1 4.9-3.3 8.4-3.3.8 0 1.6.1 2.4.2 5.4.8 11.3 4.3 10.3 11.7-.4 2.6-2.1 6.3-4.7 10a5.12 5.12 0 0 0-.5 5.2c.8 1.7 2.3 2.9 4.2 3.2l29.8 4.3c5.2 43.4-14 78.7-23.1 92.7l-20.3-3.2z"/></defs><clipPath id="l"><use xlink:href="#k" overflow="visible"/></clipPath><g clip-path="url(#l)"><image width="260" height="200" xlink:href="img/svg-head/A505EE37.jpg" transform="translate(152 47)" overflow="visible"/></g><path d="M277.1 83.9c.8 0 1.6.1 2.4.2 5.4.8 11.3 4.3 10.3 11.7-.4 2.6-2.1 6.3-4.7 10a5.12 5.12 0 0 0-.5 5.2c.8 1.7 2.3 2.9 4.2 3.2l29.8 4.3c5.2 43.4-14 78.7-23.1 92.7l-20.2-2.9c-.9-.1-1.7-.7-2-1.6-.4-.8-.3-1.7.2-2.5 2.8-4 4.7-8.1 5.1-11.2 1.1-7.6-4-13.6-12.6-14.8-.9-.1-1.9-.2-2.8-.2-7.3 0-12.5 4.2-13.5 10.9-.4 3.1.1 7.5 1.6 12.1.3.8.1 1.7-.4 2.4s-1.2 1.1-2.1 1.1h-.4l-33.5-4.8 4.8-33.5c.2-1.5 1.4-2.2 2.6-2.2.5 0 1 .2 1.5.5 4 2.7 8 4.5 11.2 4.9.7.1 1.4.2 2.1.2 6.7 0 11.7-5 12.8-12.8.7-4.7-.3-8.9-2.7-11.9l-.1-.1c-1.9-2.5-4.7-4-8.1-4.5-.7-.1-1.4-.1-2.2-.1-2.9 0-6.4.6-9.9 1.8-.3.1-.5.1-.8.1-.9 0-1.8-.5-2.2-1.3-.1-.4-.2-.8-.1-1.2l4.8-33.8 33.5 4.8c.3 0 .5.1.8.1.8 0 1.5-.2 2.2-.5 2.7-1 4.1-4 3.2-6.7-1.4-4.2-2-8.2-1.7-10.9.3-1.9.9-3.5 2-4.9l.2-.2c1.8-2.4 4.8-3.6 8.3-3.6m0-1.4c-3.9 0-7.3 1.3-9.4 3.8l-.2.2c-1.2 1.6-2 3.4-2.3 5.6-.4 2.8.3 7.1 1.7 11.5.7 2-.3 4.2-2.4 5-.5.2-1 .4-1.6.4h-.6l-33.5-4.8-1.4-.2-.2 1.4-4.8 33.8c-.1.6 0 1.3.2 1.9v.1l.1.1c.7 1.2 2 1.9 3.4 1.9.4 0 .8-.1 1.3-.2 3.4-1.1 6.7-1.7 9.5-1.7.7 0 1.4 0 2 .1 3 .4 5.5 1.8 7.2 4l.1.1c2.2 2.7 3 6.6 2.4 10.9-1 7-5.5 11.6-11.4 11.6-.6 0-1.2 0-1.9-.1-2.9-.4-6.8-2.1-10.6-4.7-.7-.5-1.5-.7-2.3-.7-1.7 0-3.6 1.2-3.9 3.4l-4.8 33.5-.2 1.4 1.4.2 33.5 4.8h.6c1.3 0 2.4-.6 3.2-1.6.8-1.1 1-2.4.6-3.6-1.4-4.4-2-8.6-1.6-11.5.9-6.1 5.4-9.7 12.1-9.7.9 0 1.7.1 2.6.2 7.9 1.1 12.4 6.3 11.4 13.3-.4 2.9-2.2 6.7-4.9 10.6-.8 1.1-.9 2.6-.4 3.8.6 1.3 1.7 2.2 3.1 2.4l20.2 2.9.9.1.5-.7c8.8-13.4 28.6-49.4 23.3-93.6l-.1-1.1-1.1-.2-29.8-4.3c-1.4-.2-2.6-1.1-3.1-2.4-.6-1.3-.4-2.7.4-3.8 2.7-3.8 4.5-7.7 4.9-10.6 1.1-7.9-4.9-12.3-11.4-13.3-1-.1-1.9-.2-2.7-.2z" fill="#eaf3f9"/></svg>