<svg id="Layer_1" xmlns="http://www.w3.org/2000/svg" viewBox="0 0 19 20"><style>.st0{fill:#939eab}</style><path class="st0" d="M7.2.4c-1 .4-2.3 1-3.3 2.3-.4.5-1.3 1-1.3 4.5 0 4.7-1.1 6.1-1.7 6.5-.5.4-.9 1-.9 1.6 0 1.1.9 2 2 2h4.4C6.6 18.9 8 20 9.5 20s2.9-1.1 3.2-2.6H17c1.1 0 2-.9 2-2 0-.7-.3-1.3-.9-1.6-.7-.4-1.7-1.9-1.7-6.5 0-4.4-2.7-6.1-4.6-6.9-.3-.1-.6-.2-1-.3C9.6-.1 8.6 0 8.2.1c-.4.1-.8.2-1 .3zM3.6 7.3c0-4 2.5-5.5 4.5-6.1 0 0 .6-.2 1.4-.2.4 0 .9.1 1.4.2 2 .6 4.5 2.1 4.5 6.1 0 3 .4 5.2 1.3 6.5H2.3c.9-1.4 1.3-3.5 1.3-6.5zM9.5 19c-1 0-1.8-.7-2.1-1.5h4.2c-.3.8-1.1 1.5-2.1 1.5zm7.5-2.6H2c-.5 0-1-.4-1-.9 0-.3.1-.5.3-.7h16.3c.2.2.3.4.3.7.1.5-.4.9-.9.9z"/></svg>