<?xml version="1.0" encoding="utf-8"?>
<!-- Generator: Adobe Illustrator 22.0.1, SVG Export Plug-In . SVG Version: 6.00 Build 0)  -->
<svg version="1.1" id="Layer_1" xmlns="http://www.w3.org/2000/svg" xmlns:xlink="http://www.w3.org/1999/xlink" x="0px" y="0px"
	 viewBox="0 0 200 200" style="enable-background:new 0 0 200 200;" xml:space="preserve">
<style type="text/css">
	.st0{fill:#E34C2F;}
	.st1{fill:#FFFFFF;}
</style>
<g id="notification">
	<path d="M80.4,31.8c-7.5,2.7-17.8,7.8-25.1,17.9C52.5,53.7,45,57,45,84.4c0,36-8.2,47-13.2,50.2c-4.2,2.8-6.6,7.6-6.6,12.4
		c0,8.4,6.8,15,15,15h33.4c2.4,11.6,12.6,20,24.4,20s22-8.4,24.4-19.8h33.4c8.2,0,15-6.8,15-15c0-5-2.4-9.8-6.6-12.6
		c-5-3.4-13.2-14.4-13.2-50.2c0-33.6-20.4-47-35.4-52.6c-2-0.7-4.6-1.6-7.8-2.2C98.5,27.8,91,29,88,29.6
		C84.8,30.3,82.2,31.1,80.4,31.8z M53,84.4C53,54,71.8,42.4,87.4,38h0.2c0,0,4.4-1.4,10.6-1.4c3.2,0,6.6,0.4,10.4,1.6h0.2
		c15.6,4.4,34.4,16,34.4,46.4c0,23.2,3.2,39.8,9.8,49.6H43.2C49.6,124,53,107.4,53,84.4z M98,174c-7.4,0-14-5-16.2-11.8h32.4
		C112,169,105.4,174,98,174z M155.8,154.2H40.2c-3.8,0-7-3.2-7-7c0-2,0.8-3.8,2.4-5.2h125.2c1.4,1.4,2.4,3.2,2.4,5.2
		C162.8,151,159.6,154.2,155.8,154.2z"/>
</g>
<g id="alert_1_">
	<g id="icon-alert">
		<circle class="st0" cx="130" cy="44.2" r="26.5"/>
		<path class="st1" d="M130,21.2c12.7,0,23,10.3,23,23c0,12.7-10.3,23-23,23s-23-10.3-23-23C107,31.5,117.3,21.2,130,21.2 M130,14.2
			c-16.5,0-30,13.5-30,30s13.5,30,30,30s30-13.5,30-30S146.5,14.2,130,14.2L130,14.2z"/>
	</g>
</g>
</svg>
