<?xml version="1.0" encoding="utf-8"?>
<!-- Generator: Adobe Illustrator 22.0.1, SVG Export Plug-In . SVG Version: 6.00 Build 0)  -->
<svg version="1.1" id="Layer_1" xmlns="http://www.w3.org/2000/svg" xmlns:xlink="http://www.w3.org/1999/xlink" x="0px" y="0px"
	 viewBox="0 0 19 20" style="enable-background:new 0 0 19 20;" xml:space="preserve">
<style type="text/css">
	.st0{fill:#939EAB;}
</style>
<g>
	<path class="st0" d="M7.2,0.4c-1,0.4-2.3,1-3.3,2.3c-0.4,0.5-1.3,1-1.3,4.5c0,4.7-1.1,6.1-1.7,6.5c-0.5,0.4-0.9,1-0.9,1.6
		c0,1.1,0.9,2,2,2h4.4C6.6,18.9,8,20,9.5,20s2.9-1.1,3.2-2.6H17c1.1,0,2-0.9,2-2c0-0.7-0.3-1.3-0.9-1.6c-0.7-0.4-1.7-1.9-1.7-6.5
		c0-4.4-2.7-6.1-4.6-6.9c-0.3-0.1-0.6-0.2-1-0.3C9.6-0.1,8.6,0,8.2,0.1C7.8,0.2,7.4,0.3,7.2,0.4z M3.6,7.3c0-4,2.5-5.5,4.5-6.1h0
		c0,0,0.6-0.2,1.4-0.2c0.4,0,0.9,0.1,1.4,0.2h0c2,0.6,4.5,2.1,4.5,6.1c0,3,0.4,5.2,1.3,6.5H2.3C3.2,12.4,3.6,10.3,3.6,7.3z M9.5,19
		c-1,0-1.8-0.7-2.1-1.5h4.2C11.3,18.3,10.5,19,9.5,19z M17,16.4H2C1.5,16.4,1,16,1,15.5c0-0.3,0.1-0.5,0.3-0.7h16.3
		c0.2,0.2,0.3,0.4,0.3,0.7C18,16,17.5,16.4,17,16.4z"/>
</g>
</svg>
