<svg id="Layer_1" xmlns="http://www.w3.org/2000/svg" viewBox="0 0 200 200"><style>.st0{fill:#e34c2f}.st1{fill:#fff}</style><path d="M80.4 31.8c-7.5 2.7-17.8 7.8-25.1 17.9C52.5 53.7 45 57 45 84.4c0 36-8.2 47-13.2 50.2-4.2 2.8-6.6 7.6-6.6 12.4 0 8.4 6.8 15 15 15h33.4c2.4 11.6 12.6 20 24.4 20s22-8.4 24.4-19.8h33.4c8.2 0 15-6.8 15-15 0-5-2.4-9.8-6.6-12.6-5-3.4-13.2-14.4-13.2-50.2 0-33.6-20.4-47-35.4-52.6-2-.7-4.6-1.6-7.8-2.2-9.3-1.8-16.8-.6-19.8 0-3.2.7-5.8 1.5-7.6 2.2zM53 84.4C53 54 71.8 42.4 87.4 38h.2s4.4-1.4 10.6-1.4c3.2 0 6.6.4 10.4 1.6h.2c15.6 4.4 34.4 16 34.4 46.4 0 23.2 3.2 39.8 9.8 49.6H43.2C49.6 124 53 107.4 53 84.4zM98 174c-7.4 0-14-5-16.2-11.8h32.4C112 169 105.4 174 98 174zm57.8-19.8H40.2c-3.8 0-7-3.2-7-7 0-2 .8-3.8 2.4-5.2h125.2c1.4 1.4 2.4 3.2 2.4 5.2-.4 3.8-3.6 7-7.4 7z" id="notification"/><g id="alert_1_"><g id="icon-alert"><circle class="st0" cx="130" cy="44.2" r="26.5"/><path class="st1" d="M130 21.2c12.7 0 23 10.3 23 23s-10.3 23-23 23-23-10.3-23-23 10.3-23 23-23m0-7c-16.5 0-30 13.5-30 30s13.5 30 30 30 30-13.5 30-30-13.5-30-30-30z"/></g></g></svg>